<svg width="24" height="24" viewBox="0 0 24 24" fill="currentColor" preserveAspectRatio="none" xmlns="http://www.w3.org/2000/svg">
    <path fill-rule="evenodd" clip-rule="evenodd" d="M10.5 5C10.5 4.17157 11.1716 3.5 12 3.5C12.8284 3.5 13.5 4.17157 13.5 5C13.5 5.82843 12.8284 6.5 12 6.5C11.1716 6.5 10.5 5.82843 10.5 5ZM15.5 5C15.5 6.58551 14.4457 7.92479 13 8.35506V9.5H15.5C16.0523 9.5 16.5 9.94771 16.5 10.5C16.5 11.0523 16.0523 11.5 15.5 11.5H13V20.4373C14.753 20.2165 16.3942 19.4195 17.6569 18.1569C18.8156 16.9981 19.5821 15.5206 19.8711 13.9304L18.3162 14.4487C17.7923 14.6234 17.2259 14.3402 17.0513 13.8163C16.8766 13.2923 17.1598 12.726 17.6837 12.5513L20.661 11.5589C20.7211 11.5373 20.784 11.5212 20.8489 11.5113C20.9575 11.4946 21.066 11.4963 21.1706 11.5145C21.3312 11.5421 21.4787 11.608 21.6033 11.7024C21.8072 11.8569 21.95 12.0876 21.9892 12.3522C21.9978 12.4095 22.0013 12.4667 22 12.5234C21.9938 15.1671 20.9409 17.7012 19.0711 19.5711C17.1957 21.4464 14.6522 22.5 12 22.5C9.34784 22.5 6.8043 21.4464 4.92893 19.5711C3.05908 17.7012 2.0062 15.1671 2.00003 12.5234C1.9987 12.4667 2.00222 12.4095 2.01085 12.3522C2.05014 12.0869 2.19361 11.8556 2.39832 11.7012C2.52214 11.6078 2.66837 11.5425 2.82752 11.5148C2.93279 11.4963 3.04205 11.4945 3.15143 11.5114C3.21621 11.5212 3.27895 11.5373 3.33902 11.5589L6.31625 12.5513C6.8402 12.726 7.12336 13.2923 6.94871 13.8163C6.77406 14.3402 6.20774 14.6234 5.6838 14.4487L4.12888 13.9304C4.41787 15.5206 5.18444 16.9981 6.34315 18.1569C7.60577 19.4195 9.247 20.2165 11 20.4373V11.5H8.5C7.94772 11.5 7.5 11.0523 7.5 10.5C7.5 9.94771 7.94772 9.5 8.5 9.5H11V8.35506C9.55426 7.92479 8.5 6.58551 8.5 5C8.5 3.067 10.067 1.5 12 1.5C13.933 1.5 15.5 3.067 15.5 5Z"/>
</svg>
