<svg width="24" height="24" viewBox="0 0 24 24" fill="currentColor" preserveAspectRatio="none" xmlns="http://www.w3.org/2000/svg">
<path fill-rule="evenodd" clip-rule="evenodd" d="M12 2.99997C11.4477 2.99997 11 3.4477 11 3.99998C11 4.55226 11.4477 4.99997 12 4.99997L17.5858 4.99991L10.2929 12.2929C9.90237 12.6834 9.90237 13.3166 10.2929 13.7071C10.6834 14.0976 11.3166 14.0976 11.7071 13.7071L19 6.41411L19 11.9999C19 12.5522 19.4477 12.9999 20 12.9999C20.5523 12.9999 21 12.5522 21 11.9999V3.99988C21 3.73466 20.8946 3.4803 20.7071 3.29277C20.5196 3.10523 20.2652 2.99988 20 2.99988L12 2.99997ZM5 6.99997C5 5.8954 5.89543 4.99997 7 4.99997H8C8.55228 4.99997 9 4.55225 9 3.99997C9 3.44768 8.55228 2.99997 8 2.99997H7C4.79086 2.99997 3 4.79083 3 6.99997V17C3 19.2091 4.79086 21 7 21H17C19.2091 21 21 19.2091 21 17V16C21 15.4477 20.5523 15 20 15C19.4477 15 19 15.4477 19 16V17C19 18.1045 18.1046 19 17 19H7C5.89543 19 5 18.1045 5 17V6.99997Z"/>
</svg>
