<svg width="24" height="24" viewBox="0 0 24 24" ="currentColor" preserveAspectRatio="none" xmlns="http://www.w3.org/2000/svg">
<path fill-rule="evenodd" clip-rule="evenodd" d="M13.5 2C15.1569 2 16.5 3.34315 16.5 5V6H19.5C21.1569 6 22.5 7.34315 22.5 9V18.5C22.5 20.1569 21.1569 21.5 19.5 21.5H4.5C2.84315 21.5 1.5 20.1569 1.5 18.5V9C1.5 7.34315 2.84315 6 4.5 6H7.5V5C7.5 3.34315 8.84315 2 10.5 2H13.5ZM14.5 5V6H9.5V5C9.5 4.44772 9.94771 4 10.5 4L13.5 4C14.0523 4 14.5 4.44772 14.5 5ZM4.5 8H8.5H15.5H19.5C20.0523 8 20.5 8.44772 20.5 9V12H12H3.5V9C3.5 8.44772 3.94772 8 4.5 8ZM3.5 14V18.5C3.5 19.0523 3.94772 19.5 4.5 19.5H19.5C20.0523 19.5 20.5 19.0523 20.5 18.5V14H13V15.5C13 16.0523 12.5523 16.5 12 16.5C11.4477 16.5 11 16.0523 11 15.5V14H3.5Z"/>
</svg>
