<svg width="24" height="24" viewBox="0 0 24 24" fill="currentColor" preserveAspectRatio="none" xmlns="http://www.w3.org/2000/svg">
<path fill-rule="evenodd" clip-rule="evenodd" d="M9.40072 2.75224C10.8231 1.68742 12.6004 1 14.5 1C17.5998 1 19.7558 2.42733 21.1087 4.20742C22.4311 5.94747 23 8.03595 23 9.5C23 11.1728 22.5806 12.4499 22.1444 13.3222C21.9638 13.6834 21.7811 13.9739 21.6255 14.1937C21.6752 14.3113 21.737 14.4425 21.8117 14.5769C22.0746 15.0502 22.4142 15.4173 22.8162 15.5513C23.1999 15.6792 23.4688 16.0257 23.4975 16.4291C23.5262 16.8326 23.309 17.2135 22.9472 17.3944C22.6268 17.5546 22.193 17.7003 21.7791 17.8026C21.3736 17.9028 20.8803 17.9883 20.4532 17.9682C19.9015 17.9423 19.4752 17.4741 19.5011 16.9225C19.5235 16.4439 19.8788 16.0597 20.3328 15.9832C20.2289 15.8326 20.1395 15.6852 20.0633 15.5481C19.8747 15.2086 19.7443 14.8913 19.6607 14.659C19.6185 14.542 19.5874 14.4441 19.5661 14.3727C19.5555 14.337 19.5472 14.3077 19.5412 14.2857L19.5339 14.2583L19.5315 14.249L19.5306 14.2454L19.5302 14.2439L19.53 14.2432C19.5299 14.2429 19.5299 14.2425 20.5 14L19.5299 14.2425C19.4454 13.9047 19.5428 13.5476 19.7864 13.2994L19.7873 13.2985C19.7907 13.2948 19.7991 13.2857 19.8119 13.2712C19.8374 13.242 19.88 13.1912 19.9344 13.1187C20.0432 12.9737 20.1978 12.7433 20.3556 12.4278C20.6694 11.8001 21 10.8272 21 9.5C21 8.46405 20.5689 6.80253 19.5163 5.41758C18.4942 4.07267 16.9002 3 14.5 3C13.0859 3 11.721 3.51359 10.5993 4.35332C10.1572 4.68429 9.53043 4.59418 9.19946 4.15206C8.86849 3.70993 8.95859 3.08321 9.40072 2.75224ZM9.83392 8C6.24406 8 3.33391 10.9102 3.33391 14.5C3.33391 15.8801 3.76289 17.157 4.49478 18.2084C4.68364 18.4797 4.72621 18.8268 4.60852 19.1357C4.34974 19.815 3.97156 20.4345 3.49971 20.9691C3.66345 20.9895 3.83039 21 3.99994 21C4.76423 21 5.47562 20.7866 6.08126 20.4167C6.37009 20.2403 6.72856 20.2219 7.03389 20.3679C7.88062 20.7728 8.82934 21 9.83392 21C13.4238 21 16.3339 18.0899 16.3339 14.5C16.3339 10.9102 13.4238 8 9.83392 8ZM1.33391 14.5C1.33391 9.80558 5.13949 6 9.83392 6C14.5283 6 18.3339 9.80558 18.3339 14.5C18.3339 19.1944 14.5283 23 9.83392 23C8.71005 23 7.63518 22.7814 6.65108 22.3837C5.8509 22.7784 4.95024 23 3.99994 23C2.90877 23 1.88281 22.7078 0.999287 22.1967C0.690288 22.018 0.5 21.6881 0.5 21.3311C0.5 20.9741 0.690288 20.6442 0.999287 20.4655C1.65147 20.0882 2.18717 19.5322 2.53941 18.8657C1.77402 17.5892 1.33391 16.0948 1.33391 14.5ZM9.90002 16C10.7285 16 11.4 15.3284 11.4 14.5C11.4 13.6716 10.7285 13 9.90002 13C9.0716 13 8.40002 13.6716 8.40002 14.5C8.40002 15.3284 9.0716 16 9.90002 16ZM15.4 14.5C15.4 15.3284 14.7285 16 13.9 16C13.0716 16 12.4 15.3284 12.4 14.5C12.4 13.6716 13.0716 13 13.9 13C14.7285 13 15.4 13.6716 15.4 14.5ZM5.90002 16C6.72845 16 7.40002 15.3284 7.40002 14.5C7.40002 13.6716 6.72845 13 5.90002 13C5.0716 13 4.40002 13.6716 4.40002 14.5C4.40002 15.3284 5.0716 16 5.90002 16Z" />
</svg>
