<svg width="200" height="40" viewBox="0 0 200 40" fill="currentColor" preserveAspectRatio="none" xmlns="http://www.w3.org/2000/svg">
<path fill-rule="evenodd" clip-rule="evenodd" d="M7.7257 31.512C7.06115 30.444 6.55271 28.6785 6.55271 26.3791C6.55271 20.8042 8.14553 14.999 10.7468 11.1016C12.5856 8.34468 14.7828 6.54192 17.3699 6.54031C20.5664 6.54157 22.5698 8.52617 24.1284 10.1696C24.908 10.9919 25.9926 12.3485 27.2535 14.1312L24.6771 18.0607C24.1125 18.9215 23.467 19.9333 22.7754 21.0174L22.775 21.0179L22.7749 21.018C21.1226 23.608 19.2075 26.6097 17.5062 28.9466C14.4936 33.0827 12.9303 33.5037 11.2215 33.5037C9.89657 33.5037 8.597 32.911 7.7257 31.512ZM2.13923 35.1644C0.704638 32.7958 0 29.688 0 26.1466C0 19.7079 1.77995 12.9971 5.16484 7.81428L5.16016 7.81152C8.16436 3.21466 12.4998 0 17.4723 0H17.4788C20.3564 0.00126966 23.2172 0.847892 26.2044 3.26911C27.7811 4.54654 29.408 6.22229 31.1574 8.42125C32.5787 6.51493 34.1119 4.71193 35.7614 3.28377C38.2002 1.17277 40.831 0 43.4787 0C47.9238 0 52.158 2.55707 55.3985 7.35288C58.9449 12.6052 60.6664 19.2209 60.6664 26.0482C60.6664 30.1068 59.8605 33.089 58.4892 35.445C57.1643 37.7236 54.582 40 50.2381 40H50.2317C47.5313 40 45.1389 39.4178 42.4933 36.9403C40.4596 35.0387 38.0819 31.6607 36.2528 28.6241L30.8119 19.6021C30.6579 19.3467 30.5047 19.0949 30.3523 18.847C30.1983 19.1174 30.0429 19.3908 29.8859 19.667L27.9745 23.0283C24.1349 29.7864 23.1623 31.3257 21.2425 33.866C17.8776 38.3141 15.0041 40 11.2215 40C6.73414 40 3.89661 38.0712 2.13923 35.1644ZM34.1344 12.4965C35.1431 13.9824 36.1973 15.6341 37.3077 17.4702L38.8667 20.0503C42.6304 26.2743 44.7718 29.4764 46.0249 30.9864C47.6367 32.9257 48.7654 33.5037 50.2317 33.5037C53.9511 33.5037 54.8793 30.111 54.8793 26.2283L54.8858 26.2281C54.8858 20.6951 53.5862 14.5549 50.7234 10.1675C48.6917 7.0555 46.0588 5.15393 43.1622 5.15393C40.0293 5.15393 37.5083 7.49948 34.6749 11.6817C34.4954 11.9465 34.3153 12.2182 34.1344 12.4965ZM80.9825 1.26369H73.4023V39.2951H79.5859V10.1475L90.8875 30.3317H96.6891L107.993 10.1475V39.2951H114.176V1.26369H106.761L93.8706 24.4092L80.9825 1.26369ZM125.807 22.8595C126.446 18.7569 129.117 15.4438 133.552 15.4438C138.092 15.4438 140.548 18.6333 140.858 22.8595H125.807ZM133.659 10.2815C125.297 10.2815 119.676 16.5642 119.676 25.1967C119.676 33.4208 125.073 39.9736 134.126 39.9736C139.109 39.9736 143.045 38.3443 146.14 35.5192L142.856 31.5255C140.581 33.6511 138.183 34.8134 134.345 34.8134C129.535 34.8134 126.552 31.8061 125.807 27.3433H146.796V25.6574C146.796 16.4846 141.885 10.2815 133.659 10.2815ZM148.602 15.9883H154.294V29.4333C154.294 36.426 157.514 39.9192 163.955 39.9192C165.668 39.9192 167.25 39.7056 168.908 39.2407V34.2689C167.577 34.4888 166.676 34.6228 165.104 34.6228C161.661 34.6228 160.261 33.0773 160.261 28.7276V15.9883H168.908V10.9621H160.261V2.65007H154.294V10.9621H148.602V15.9883ZM186.231 15.6616C190.159 15.6616 192.832 17.8731 194.03 20.8763V29.3789C192.885 32.271 190.011 34.5956 185.986 34.5956C180.866 34.5956 177.858 30.826 177.858 25.115C177.858 19.2574 181.125 15.6616 186.231 15.6616ZM194.14 39.2951H199.997V10.9621H194.14V14.6019C192.054 11.8438 188.965 10.2815 185.028 10.2815C177.064 10.2815 171.754 16.6249 171.754 25.115C171.754 33.5255 176.94 39.9736 184.699 39.9736C189.524 39.9736 192.503 37.6637 194.14 35.3286V39.2951Z"/>
</svg>
