<svg width="24" height="24" viewBox="0 0 24 24" ="currentColor" preserveAspectRatio="none" xmlns="http://www.w3.org/2000/svg">
<path fill-rule="evenodd" clip-rule="evenodd" d="M1.99983 6.00021C1.99983 4.34336 3.34298 3.00021 4.99983 3.00021H18.9998C20.6567 3.00021 21.9998 4.34336 21.9998 6.00021V12.0002C21.9998 12.2424 21.9119 12.4764 21.7524 12.6587L14.7524 20.6587C14.5625 20.8757 14.2882 21.0002 13.9998 21.0002H4.99983C3.34298 21.0002 1.99983 19.6571 1.99983 18.0002V6.00021ZM4.99983 5.00021C4.44755 5.00021 3.99983 5.44793 3.99983 6.00021V18.0002C3.99983 18.5525 4.44755 19.0002 4.99983 19.0002H12.9998V14.0002C12.9998 12.3434 14.343 11.0002 15.9998 11.0002H19.9998V6.00021C19.9998 5.44793 19.5521 5.00021 18.9998 5.00021H4.99983ZM18.7961 13.0002H15.9998C15.4475 13.0002 14.9998 13.4479 14.9998 14.0002V17.3388L18.7961 13.0002ZM17.9998 8.00021C17.9998 8.5525 17.5521 9.00021 16.9998 9.00021H6.99983C6.44755 9.00021 5.99983 8.5525 5.99983 8.00021C5.99983 7.44793 6.44755 7.00021 6.99983 7.00021H16.9998C17.5521 7.00021 17.9998 7.44793 17.9998 8.00021ZM10.4998 13.0002C11.0521 13.0002 11.4998 12.5525 11.4998 12.0002C11.4998 11.4479 11.0521 11.0002 10.4998 11.0002H6.99983C6.44755 11.0002 5.99983 11.4479 5.99983 12.0002C5.99983 12.5525 6.44755 13.0002 6.99983 13.0002H10.4998Z"/>
</svg>
