<svg width="105" height="40" viewBox="0 0 105 40" fill="currentColor" preserveAspectRatio="none" xmlns="http://www.w3.org/2000/svg">
<path fill-rule="evenodd" clip-rule="evenodd" d="M0 16.6175V33.235H4.20927H8.41854V20.3841V7.53327L10.9441 7.60713C13.2318 7.66252 13.5429 7.71791 14.3664 8.16104C15.4828 8.75189 15.9769 9.25042 16.4528 10.3398C17.2031 12.0015 16.7639 14.6234 15.5194 15.842C14.5128 16.8022 13.7259 17.0422 11.0173 17.1345C9.68133 17.1714 8.61986 17.2822 8.63816 17.3745C8.67475 17.4484 10.595 21.0462 12.8998 25.3647L12.9023 25.3694L17.1116 33.235H21.4673H25.8413L25.4753 32.6257C25.2922 32.3118 24.7066 31.2778 24.2125 30.3731C24.0132 30.0142 23.6978 29.4515 23.3254 28.7872C22.7399 27.7426 22.0134 26.4467 21.3758 25.2955C20.3143 23.4122 19.3627 21.6951 19.2528 21.492C19.0515 21.1227 19.143 21.0304 20.2411 20.3841C23.2059 18.6301 24.8896 15.3989 24.8896 11.4476C24.8896 8.08719 23.8647 5.39146 21.8333 3.34197C19.0881 0.590845 16.2332 0 5.56356 0H0V16.6175ZM34.3865 7.8479C31.5133 8.54953 28.8047 10.4513 26.9746 13.0363C23.4424 18.0215 23.7902 25.0932 27.7615 29.543C29.6648 31.6479 32.1355 33.125 34.716 33.7158C36.5461 34.122 39.6756 33.9928 41.3593 33.4389C44.2143 32.5157 47.1425 30.023 48.7347 27.1427L49.5948 25.5732L45.8248 25.5179L42.0364 25.4809L41.5606 26.0533C40.6821 27.1242 39.639 27.5858 37.9004 27.6597C36.601 27.7151 36.1435 27.6597 35.2467 27.3273C33.5996 26.6995 32.4466 25.4994 32.0074 23.9669L31.861 23.4499L41.0482 23.413L50.2354 23.3576V20.6803C50.2171 18.3908 50.1622 17.8184 49.8144 16.729C48.2405 11.9654 44.745 8.73417 40.1148 7.77405C38.7971 7.49709 35.6493 7.55248 34.3865 7.8479ZM39.3828 14.0333C40.5357 14.3657 41.7619 15.3442 42.4025 16.4336C42.7319 16.9875 43.0064 17.5045 43.0064 17.5784C43.0064 17.6522 40.5357 17.7261 37.516 17.7261C33.8009 17.7261 32.0257 17.6707 32.0257 17.5415C32.0257 17.1722 32.6113 16.1567 33.197 15.5474C33.7826 14.9011 34.4414 14.4764 35.4114 14.0887C36.1069 13.8302 38.486 13.7933 39.3828 14.0333ZM50.6727 14.7352C51.2217 11.3932 53.6558 8.86364 57.2794 7.84812C58.8167 7.42345 62.4952 7.57116 64.0325 8.12508C65.6614 8.71593 67.2719 9.87915 68.1137 11.0793C68.8092 12.0948 69.5412 14.0335 69.5412 14.8829V15.326H65.9725H62.4037L62.2939 14.8829C62.239 14.6428 61.9828 14.2366 61.7266 13.9966C61.3423 13.6458 61.0861 13.5719 60.0795 13.5719C58.9997 13.5719 58.8533 13.6273 58.4507 14.0889C57.2062 15.5476 58.3226 16.5631 62.6051 17.8186C66.6313 19.0188 68.6993 20.2928 69.6693 22.2315C70.0719 22.9885 70.1634 23.5055 70.2366 24.8718C70.2915 25.8689 70.2183 26.9583 70.1085 27.4568C69.102 31.4819 65.277 34.0484 60.2991 34.0299C55.3395 34.0115 51.6243 31.5373 50.5995 27.5491C50.5639 27.411 50.5293 27.284 50.4975 27.1673L50.4975 27.1672L50.4975 27.1672C50.3585 26.6568 50.273 26.3427 50.389 26.1499C50.5746 25.8415 51.2761 25.8436 53.0997 25.8489C53.3594 25.8496 53.6417 25.8504 53.9486 25.8504H57.5539L57.865 26.589C58.4141 27.9184 60.171 28.4723 61.7449 27.8076C63.3737 27.1244 63.3554 25.3519 61.69 24.4841C61.4155 24.3364 59.8599 23.7086 58.2494 23.0993C54.644 21.7514 53.6375 21.2529 52.576 20.2559C50.9289 18.7234 50.3067 16.9324 50.6727 14.7352ZM82.0941 7.93957C80.7581 8.41963 79.5868 9.21358 78.928 10.0998L78.4156 10.783L78.3241 9.58286L78.2325 8.40117L74.8102 8.34578L71.3696 8.30885V20.772V33.2351H75.0115H78.6535L78.7267 25.5172C78.8182 16.8946 78.8548 16.5991 80.0993 15.5098C80.9594 14.7343 81.4902 14.5496 82.8993 14.5496C84.3451 14.5312 85.2602 14.9005 85.8641 15.7129C86.6877 16.8022 86.7243 17.3008 86.7792 24.0401C86.7975 27.5852 86.8341 30.4655 86.8707 30.4655C86.889 30.4655 86.9988 30.1147 87.1086 29.6716C87.676 27.5482 88.7191 25.9788 91.7205 22.803C94.0631 20.3104 94.1363 20.1627 94.2095 18.2978C94.2827 16.4699 93.9167 14.0511 93.3493 12.5555C92.5441 10.4507 90.9336 8.86276 88.8472 8.10574C87.1818 7.49644 83.5765 7.42258 82.0941 7.93957ZM94.1852 25.0924C96.235 22.8952 97.3696 21.2519 97.3696 20.4395C97.3696 20.2733 97.4612 20.1256 97.5527 20.1256C97.6625 20.1256 97.7357 20.2549 97.7357 20.4395C97.7357 21.2519 98.8886 22.8952 101.176 25.3694C103.848 28.2313 104.544 29.3576 104.891 31.3701C105.916 37.2416 99.6024 41.913 94.2767 39.2173C90.8361 37.4817 89.2622 33.475 90.5982 29.893C91.0557 28.6375 91.7878 27.6773 94.1852 25.0924Z"/>
</svg>
