<svg width="24" height="24" viewBox="0 0 24 24" fill="currentColor" preserveAspectRatio="none" xmlns="http://www.w3.org/2000/svg">
<path fill-rule="evenodd" clip-rule="evenodd" d="M3.99998 12C3.99998 7.58172 7.58171 4 12 4C16.4183 4 20 7.58172 20 12C20 16.4183 16.4183 20 12 20C7.58171 20 3.99998 16.4183 3.99998 12ZM12 2C6.47714 2 1.99998 6.47715 1.99998 12C1.99998 17.5228 6.47714 22 12 22C17.5228 22 22 17.5228 22 12C22 6.47715 17.5228 2 12 2ZM17.89 13.1437C17.9953 12.6015 17.6411 12.0767 17.0989 11.9714C16.5568 11.8661 16.0319 12.2203 15.9267 12.7625C15.7513 13.6657 15.2699 14.4808 14.5636 15.0705C13.8574 15.6602 12.9694 15.9883 12.0494 15.9997C11.1294 16.0111 10.2336 15.7049 9.51301 15.1329C8.79239 14.5608 8.29101 13.7579 8.09337 12.8593C7.97473 12.3199 7.44129 11.9788 6.9019 12.0974C6.36251 12.2161 6.02142 12.7495 6.14006 13.2889C6.43652 14.6368 7.18859 15.8413 8.26952 16.6993C9.35045 17.5574 10.6941 18.0166 12.0741 17.9996C13.4541 17.9825 14.7861 17.4902 15.8455 16.6057C16.9049 15.7212 17.6269 14.4985 17.89 13.1437Z" />
<path fill-rule="evenodd" clip-rule="evenodd" d="M6.64795 10.3813C6.16113 10.1206 5.97786 9.51458 6.2386 9.02776L6.24589 9.01436L6.25673 8.99499C6.26514 8.98018 6.27595 8.96157 6.28917 8.9397C6.31552 8.8961 6.35185 8.83881 6.39808 8.77239C6.48939 8.6412 6.6255 8.46548 6.80706 8.28693C7.15909 7.94076 7.77161 7.5 8.6182 7.5C9.46432 7.5 10.0774 7.94031 10.4299 8.28574C10.6118 8.46401 10.7483 8.63947 10.8399 8.77047C10.8863 8.83681 10.9492 8.93753 10.9492 8.93753C10.9492 8.93753 10.9734 8.97794 10.9818 8.99272L10.9927 9.01204L10.9968 9.01948L11 9.02539C11.262 9.51151 11.0804 10.118 10.5943 10.3801C10.1112 10.6405 9.50925 10.4627 9.24459 9.98342L9.24032 9.97628C9.23354 9.96512 9.22037 9.9442 9.2012 9.91679C9.16169 9.8603 9.10328 9.78578 9.03011 9.71407C8.87241 9.55952 8.73468 9.49987 8.6182 9.49987C8.5022 9.49987 8.36565 9.55907 8.20925 9.71287C8.1366 9.78431 8.07865 9.85857 8.03947 9.91487C8.02045 9.94219 8.00742 9.96303 8.00072 9.9741L7.99655 9.98113C7.73315 10.4611 7.1317 10.6404 6.64795 10.3813Z" />
<path fill-rule="evenodd" clip-rule="evenodd" d="M13.5379 10.3801C13.0511 10.1193 12.8678 9.51331 13.1286 9.02649L13.1359 9.01309L13.1467 8.99372C13.1551 8.9789 13.1659 8.96029 13.1792 8.93843C13.2055 8.89482 13.2418 8.83754 13.2881 8.77111C13.3794 8.63992 13.5155 8.46421 13.6971 8.28566C14.0491 7.93949 14.6616 7.49873 15.5082 7.49873C16.3543 7.49873 16.9674 7.93904 17.3198 8.28446C17.5018 8.46273 17.6383 8.63819 17.7299 8.7692C17.7763 8.83553 17.8392 8.93626 17.8392 8.93626C17.8392 8.93626 17.8634 8.97666 17.8718 8.99144L17.8827 9.01076L17.8868 9.0182L17.89 9.02412C18.152 9.51023 17.9704 10.1167 17.4843 10.3788C17.0012 10.6392 16.3992 10.4614 16.1346 9.98215L16.1303 9.975C16.1235 9.96385 16.1104 9.94292 16.0912 9.91551C16.0517 9.85903 15.9933 9.78451 15.9201 9.71279C15.7624 9.55825 15.6247 9.4986 15.5082 9.4986C15.3922 9.4986 15.2556 9.5578 15.0992 9.7116C15.0266 9.78304 14.9686 9.8573 14.9295 9.9136C14.9104 9.94092 14.8974 9.96175 14.8907 9.97283L14.8865 9.97985C14.6231 10.4598 14.0217 10.6392 13.5379 10.3801Z" />
</svg>
