<svg width="400" height="400" viewBox="0 0 400 400" fill="none" xmlns="http://www.w3.org/2000/svg">
<rect width="400" height="400" fill="#22C55E"/>
<path fill-rule="evenodd" clip-rule="evenodd" d="M283.202 87C282.611 82.8597 279.731 79.409 275.763 78.0865C271.796 76.7639 267.421 77.7965 264.464 80.7539L231.339 113.879C229.268 115.95 228.105 118.758 228.105 121.686V161.28L206.221 183.164C204.396 182.676 202.479 182.416 200.501 182.416C188.304 182.416 178.417 192.303 178.417 204.499C178.417 216.695 188.304 226.582 200.501 226.582C212.697 226.582 222.584 216.695 222.584 204.499C222.584 202.521 222.324 200.603 221.836 198.779L243.72 176.895H283.313C286.242 176.895 289.05 175.732 291.121 173.661L324.246 140.536C327.203 137.578 328.236 133.204 326.913 129.236C325.591 125.269 322.14 122.389 318 121.797L287.552 117.448L283.202 87ZM200.501 94.0824C206.613 94.0824 212.61 94.5791 218.453 95.5344L215.724 98.2635C210.781 103.207 207.561 109.551 206.452 116.363C204.485 116.232 202.501 116.166 200.501 116.166C151.716 116.166 112.167 155.714 112.167 204.499C112.167 253.284 151.716 292.832 200.501 292.832C249.286 292.832 288.834 253.284 288.834 204.499C288.834 202.499 288.768 200.515 288.637 198.548C295.449 197.439 301.793 194.219 306.736 189.276L309.465 186.547C310.421 192.389 310.917 198.386 310.917 204.499C310.917 265.48 261.482 314.916 200.501 314.916C139.519 314.916 90.084 265.48 90.084 204.499C90.084 143.518 139.519 94.0824 200.501 94.0824ZM200.501 138.249C202.36 138.249 204.201 138.326 206.021 138.476V152.132L197.736 160.417C174.631 161.844 156.334 181.035 156.334 204.499C156.334 228.892 176.108 248.666 200.501 248.666C223.965 248.666 243.155 230.368 244.582 207.263L252.867 198.978H266.524C266.674 200.799 266.751 202.64 266.751 204.499C266.751 241.088 237.09 270.749 200.501 270.749C163.912 270.749 134.251 241.088 134.251 204.499C134.251 167.91 163.912 138.249 200.501 138.249Z" fill="white"/>
</svg>
