<svg width="400" height="400" viewBox="0 0 400 400" fill="none" xmlns="http://www.w3.org/2000/svg">
<g clip-path="url(#clip0_4574_1844)">
<rect width="400" height="400" fill="#0866FF"/>
<path fill-rule="evenodd" clip-rule="evenodd" d="M120 110C125.523 110 130 114.477 130 120V270H290C295.523 270 300 274.477 300 280C300 285.523 295.523 290 290 290H120C114.477 290 110 285.523 110 280V120C110 114.477 114.477 110 120 110ZM175 150C166.716 150 160 156.716 160 165L160 225C160 233.284 166.716 240 175 240H195C203.284 240 210 233.284 210 225L210 165C210 156.716 203.284 150 195 150L175 150ZM245 110C236.716 110 230 116.716 230 125L230 225C230 233.284 236.716 240 245 240H265C273.284 240 280 233.284 280 225V125C280 116.716 273.284 110 265 110H245Z" fill="white"/>
<path d="M400 199.998C400 89.5412 310.457 -0.00204468 200 -0.00204468C89.5432 -0.00204468 0 89.5412 0 199.998C0 293.794 64.572 372.496 151.685 394.108V261.115H110.443V199.998H151.685V173.663C151.685 105.589 182.491 74.0372 249.323 74.0372C261.994 74.0372 283.857 76.5212 292.801 79.006V134.409C288.08 133.912 279.882 133.664 269.695 133.664C236.901 133.664 224.23 146.086 224.23 178.384V199.998H289.557L278.334 261.115H224.23V398.533C323.258 386.572 400 302.252 400 199.998Z" fill="#0866FF"/>
<path d="M278.333 261.116L289.556 199.999H224.229V178.384C224.229 146.086 236.899 133.664 269.693 133.664C279.88 133.664 288.078 133.912 292.799 134.409V79.0067C283.855 76.5219 261.992 74.0371 249.321 74.0371C182.49 74.0371 151.683 105.59 151.683 173.664V199.999H110.441V261.116H151.683V400C199.998 400 183.337 399.999 199.998 399.999C208.201 399.999 199.998 399.999 224.229 400V261.116H278.333Z" fill="white"/>
</g>
<defs>
<clipPath id="clip0_4574_1844">
<rect width="400" height="400" fill="white"/>
</clipPath>
</defs>
</svg>
