<svg width="400" height="400" viewBox="0 0 400 400" fill="none" xmlns="http://www.w3.org/2000/svg">
<g clip-path="url(#clip0_4574_1844)">
<rect width="400" height="400" fill="#0866FF"/>
<path fill-rule="evenodd" clip-rule="evenodd" d="M120 110C125.523 110 130 114.477 130 120V270H290C295.523 270 300 274.477 300 280C300 285.523 295.523 290 290 290H120C114.477 290 110 285.523 110 280V120C110 114.477 114.477 110 120 110ZM175 150C166.716 150 160 156.716 160 165L160 225C160 233.284 166.716 240 175 240H195C203.284 240 210 233.284 210 225L210 165C210 156.716 203.284 150 195 150L175 150ZM245 110C236.716 110 230 116.716 230 125L230 225C230 233.284 236.716 240 245 240H265C273.284 240 280 233.284 280 225V125C280 116.716 273.284 110 265 110H245Z" fill="white"/>
<path d="M446 199.998C446 89.5412 356.457 -0.00204468 246 -0.00204468C135.543 -0.00204468 46 89.5412 46 199.998C46 293.794 110.572 372.496 197.685 394.108V261.115H156.443V199.998H197.685V173.663C197.685 105.589 228.491 74.0372 295.323 74.0372C307.994 74.0372 329.857 76.5212 338.801 79.006V134.409C334.08 133.912 325.882 133.664 315.695 133.664C282.901 133.664 270.23 146.086 270.23 178.384V199.998H335.557L324.334 261.115H270.23V398.533C369.258 386.572 446 302.252 446 199.998Z" fill="#0866FF"/>
<path d="M324.333 261.116L335.556 199.999H270.229V178.384C270.229 146.086 282.899 133.664 315.693 133.664C325.88 133.664 334.078 133.912 338.799 134.409V79.0067C329.855 76.5219 307.992 74.0371 295.321 74.0371C228.49 74.0371 197.683 105.59 197.683 173.664V199.999H156.441V261.116H197.683V400C245.998 400 229.337 399.999 245.998 399.999C254.201 399.999 245.998 399.999 270.229 400V261.116H324.333Z" fill="white"/>
</g>
<defs>
<clipPath id="clip0_4574_1844">
<rect width="400" height="400" fill="white"/>
</clipPath>
</defs>
</svg>
