<svg width="400" height="400" viewBox="0 0 400 400" fill="none" xmlns="http://www.w3.org/2000/svg">
<rect width="400" height="400" fill="black"/>
<path d="M91.9434 248.689C97.0256 248.689 102.109 249.377 107.74 250.478V262.305H106.641C105.267 258.592 104.031 256.254 102.383 254.604C100.185 252.265 96.4768 251.027 90.708 251.027C80.9557 251.027 72.5762 260.242 72.5762 277.847C72.5762 295.726 81.2301 304.665 90.5703 304.803C95.3778 304.803 100.186 302.878 103.757 299.302C105.405 297.514 106.916 295.45 108.152 293.112L109.113 293.388L107.465 304.528C102.383 306.041 97.0259 307.004 90.9824 307.004C77.2468 307.004 62.0001 297.514 62 277.847C62 258.18 77.2463 248.69 91.9434 248.689ZM128.756 249.515L143.315 290.362L157.875 249.515H171.199V250.615C166.941 251.165 165.568 252.403 165.705 256.392L167.353 299.714C167.49 303.427 169.551 305.216 174.358 305.216H174.495C179.028 305.216 180.677 303.565 180.677 299.577V256.254C180.677 252.403 179.44 251.165 175.457 250.615V249.515H194.824C205.675 249.515 215.016 253.503 215.016 265.606C215.015 277.709 205.675 281.697 194.824 281.697C193.451 281.697 191.665 281.56 189.88 281.285V299.577C189.88 303.428 191.528 304.391 196.885 305.216V306.315H151.831V305.216C156.501 304.666 158.012 303.565 157.875 299.714L156.639 260.93L140.294 306.453L139.194 306.315L122.574 260.104L121.338 297.927C121.201 302.19 123.399 304.666 127.244 305.216V306.315H112.136V305.216C116.119 304.528 118.317 302.052 118.454 297.927L119.965 256.392C120.102 252.541 118.729 251.165 114.471 250.615V249.515H128.756ZM230.125 249.377L248.531 299.714C250.317 304.527 251.003 305.078 252.239 305.078C253.613 305.078 254.712 303.702 254.712 299.714V256.392C254.712 252.541 253.476 251.302 249.492 250.752V249.652H261.717L286.579 287.474V256.392C286.579 252.541 284.93 251.577 279.573 250.752V249.652H313.501V250.752C307.595 251.577 306.77 252.54 308.144 255.703L318.309 278.946L328.198 256.254C329.709 252.678 327.786 251.165 322.429 250.615V249.515H338.226V250.615C334.929 251.165 332.731 252.266 330.533 257.217L319.27 282.798V299.577C319.27 303.428 320.781 304.666 325.451 305.216V306.315H303.886V305.216C308.418 304.666 310.067 303.565 310.067 299.577V282.798L298.392 256.254C296.469 251.715 294.82 250.89 292.76 250.89C290.699 250.89 289.463 252.266 289.463 256.254V306.453H287.678L257.597 260.792V299.577C257.597 303.428 259.245 304.391 264.602 305.216V306.315H233.834V305.216C238.641 304.391 239.602 303.015 237.954 298.339L234.108 288.024H217.351L213.367 299.026C212.131 302.602 213.917 304.803 219.549 305.354V306.453H203.341V305.354C206.363 304.666 209.385 302.877 211.308 297.514L229.026 249.377H230.125ZM96.4766 261.205C103.894 261.205 113.097 267.807 113.097 277.847C113.097 288.024 103.756 294.488 96.4766 294.488C89.0593 294.488 79.8566 287.886 79.8564 277.847C79.8564 267.669 89.1966 261.205 96.4766 261.205ZM96.4766 263.543C91.8065 263.543 88.6475 267.257 88.6475 277.847C88.6475 288.299 91.8065 292.15 96.4766 292.15C101.009 292.15 104.306 288.437 104.306 277.847C104.306 267.394 101.147 263.543 96.4766 263.543ZM218.175 285.686H233.422L225.729 264.781L218.175 285.686ZM189.88 251.577V279.084C191.528 279.359 193.176 279.497 194.412 279.497C201.829 279.497 205.264 275.508 205.264 265.469C205.264 255.566 201.967 251.577 194.412 251.577H189.88ZM218.527 94C228.963 94 237.863 95.5349 246.457 97.9902V125.919H244.309C240.933 114.87 237.249 108.732 233.566 105.049C229.27 101.059 224.052 99.2178 216.993 99.2178C202.568 99.2178 194.895 107.504 194.895 117.939C194.895 127.147 198.578 133.592 211.161 140.651L235.101 153.849C248.605 161.215 256.278 173.184 256.278 187.609C256.278 212.163 234.18 224.133 213.31 224.133C202.568 224.133 189.984 222.291 180.163 219.529V195.282H160.521V192.827C169.421 192.213 173.104 190.679 170.648 184.848L165.124 171.957H140.264L135.967 182.392C133.818 187.916 136.274 192.213 145.175 193.134V195.59H120.621V193.134C124.918 192.52 127.373 190.985 131.056 182.085L158.679 116.405H161.134L189.37 183.62C192.746 191.599 195.202 192.213 199.191 193.134V195.59H184.767C187.222 202.342 190.905 207.56 194.281 210.936C199.499 216.153 206.865 219.222 215.766 219.222C229.27 219.222 241.546 210.628 241.546 198.658C241.546 188.53 237.556 181.778 224.973 174.719L202.875 162.442C190.291 155.076 182.618 142.493 182.618 128.682C182.618 106.891 197.964 94 218.527 94ZM337.918 95.5342V125.919H335.463C331.78 106.584 324.107 100.445 311.217 100.445H305.078V207.56C305.078 216.153 308.455 218.915 318.89 220.143V222.599H270.703V220.143C280.831 218.915 284.515 216.46 284.515 207.56V100.752H278.376C265.486 100.752 257.813 106.891 254.13 126.227H251.675V95.5342H337.918ZM143.333 95.5342V125.919H140.878C137.195 106.583 129.521 100.445 116.631 100.445H94.2266V152.007H108.345C115.71 152.007 119.701 148.938 123.69 135.434H126.146V173.491H123.69C119.701 159.987 115.404 156.918 108.345 156.611H94.2266V207.252C94.2266 215.846 97.9091 217.994 109.879 219.836V222.291H62V219.836C70.9005 218.608 73.6631 216.152 73.6631 207.252V110.573C73.663 101.98 70.9004 99.2179 62 97.9902V95.5342H143.333ZM142.719 167.046H163.589L153.154 141.572L142.719 167.046Z" fill="white"/>
</svg>
