<svg width="400" height="400" viewBox="0 0 400 400" fill="none" xmlns="http://www.w3.org/2000/svg">
<rect width="400" height="400" fill="#E11D48"/>
<path d="M299.874 90.084C305.971 90.0857 310.916 95.0286 310.916 101.126V114.227C310.915 140.579 300.445 165.853 281.813 184.488L261.228 205.073V246.921C261.227 262.686 254.485 277.701 242.703 288.177L207.832 319.167C204.584 322.052 199.945 322.766 195.981 320.989C192.017 319.207 189.457 315.264 189.457 310.918V276.844L224.869 241.433C229.181 237.121 229.181 230.131 224.869 225.819C220.556 221.508 213.567 221.507 209.255 225.819L197.264 237.81C192.953 242.118 185.962 242.119 181.651 237.81L163.19 219.349C158.882 215.038 158.882 208.047 163.19 203.736L175.181 191.745C179.493 187.433 179.493 180.444 175.181 176.131C170.869 171.82 163.879 171.82 159.567 176.131L124.156 211.542H90.0823C85.7365 211.541 81.7919 208.983 80.011 205.019C78.2334 201.054 78.9477 196.417 81.8334 193.168L112.823 158.297C123.298 146.516 138.315 139.774 154.079 139.772H195.927L216.512 119.187C235.146 100.556 260.423 90.0859 286.773 90.084H299.874ZM126.561 233.842C132.538 232.648 138.357 236.523 139.554 242.5C140.749 248.478 136.872 254.295 130.896 255.494L125.353 256.604C116.478 258.383 109.58 265.403 107.96 274.31L103.787 297.202L126.69 293.04C135.597 291.419 142.618 284.523 144.396 275.647L145.506 270.104C146.703 264.128 152.523 260.253 158.5 261.446C164.476 262.644 168.354 268.461 167.158 274.439L166.048 279.971C162.496 297.729 148.465 311.525 130.648 314.767L92.0555 321.776C88.4932 322.422 84.8361 321.284 82.2755 318.724C79.7155 316.163 78.5766 312.508 79.2239 308.944L86.2328 270.352C89.4737 252.535 103.272 238.506 121.029 234.952L126.561 233.842Z" fill="white"/>
</svg>
