<svg width="400" height="400" viewBox="0 0 400 400" fill="none" xmlns="http://www.w3.org/2000/svg">
<rect width="400" height="400" fill="#F59E0B"/>
<path fill-rule="evenodd" clip-rule="evenodd" d="M163.025 90.9768C166.454 89.5069 170.394 89.8687 173.499 91.9385L234.772 132.787L306.566 102.018C309.978 100.556 313.896 100.906 316.994 102.949C320.093 104.993 321.958 108.456 321.958 112.167V266.751C321.958 271.168 319.325 275.16 315.266 276.9L237.974 310.025C234.544 311.494 230.604 311.133 227.5 309.063L166.226 268.214L94.4322 298.983C91.0207 300.445 87.1029 300.095 84.0043 298.052C80.9058 296.009 79.041 292.546 79.041 288.834V134.251C79.041 129.834 81.6733 125.842 85.7332 124.102L163.025 90.9768ZM161.854 123.209C167.952 123.209 172.895 128.153 172.895 134.251V222.584C172.895 228.682 167.952 233.626 161.854 233.626C155.755 233.626 150.812 228.682 150.812 222.584V134.251C150.812 128.153 155.755 123.209 161.854 123.209ZM239.145 167.376C245.243 167.376 250.187 172.319 250.187 178.417V266.751C250.187 272.849 245.243 277.792 239.145 277.792C233.047 277.792 228.104 272.849 228.104 266.751V178.417C228.104 172.319 233.047 167.376 239.145 167.376Z" fill="white"/>
</svg>
