<svg width="400" height="400" viewBox="0 0 400 400" fill="none" xmlns="http://www.w3.org/2000/svg">
<rect width="400" height="400" fill="#0000FF"/>
<path d="M244.821 161.26C254.739 170.102 260.231 182.54 261.039 195.754C261.054 196.058 261.069 196.363 261.084 196.676C261.966 195.791 262.22 195.161 262.675 194.002C262.84 193.585 263.005 193.168 263.176 192.738C263.361 192.265 263.546 191.791 263.736 191.304C263.938 190.794 264.139 190.284 264.34 189.774C264.817 188.567 265.293 187.359 265.768 186.15C266.888 183.303 268.013 180.458 269.138 177.614C269.438 176.854 269.739 176.095 270.039 175.335C270.139 175.082 270.239 174.829 270.342 174.568C271.031 172.825 271.72 171.083 272.408 169.34C272.599 168.857 272.789 168.374 272.986 167.876C273.338 166.985 273.689 166.094 274.041 165.203C275.924 160.435 277.828 155.675 279.726 150.914C287.449 150.914 295.172 150.914 303.128 150.914C306.031 158.061 308.924 165.211 311.78 172.377C311.97 172.852 312.159 173.328 312.355 173.817C314.711 179.727 317.049 185.643 319.337 191.58C321.481 197.146 323.668 202.694 325.861 208.241C326.04 208.692 326.218 209.143 326.402 209.607C327.117 211.416 327.832 213.225 328.548 215.033C330.534 220.054 332.515 225.077 334.492 230.101C334.759 230.779 335.026 231.457 335.293 232.136C335.422 232.464 335.551 232.792 335.684 233.13C336.46 235.102 337.24 237.072 338.023 239.041C338.516 240.281 339.007 241.521 339.498 242.761C339.725 243.335 339.954 243.909 340.183 244.482C340.494 245.259 340.802 246.037 341.109 246.816C341.282 247.251 341.455 247.686 341.634 248.134C342 249.203 342 249.203 342 250.397C332.707 250.397 323.413 250.397 313.838 250.397C311.666 245.166 309.788 239.816 307.888 234.48C296.762 234.348 285.636 234.217 274.173 234.082C273.584 236.052 273.584 236.052 272.983 238.061C272.64 239.06 272.289 240.055 271.927 241.047C271.785 241.435 271.785 241.435 271.641 241.83C271.445 242.367 271.248 242.904 271.051 243.44C270.748 244.264 270.448 245.09 270.148 245.915C269.956 246.44 269.764 246.964 269.571 247.489C269.398 247.961 269.225 248.434 269.047 248.921C268.62 249.999 268.62 249.999 268.223 250.397C267.36 250.435 266.494 250.444 265.63 250.442C265.359 250.442 265.088 250.442 264.809 250.442C263.91 250.442 263.01 250.439 262.111 250.436C261.489 250.435 260.867 250.435 260.245 250.434C258.605 250.433 256.965 250.429 255.325 250.424C253.653 250.42 251.981 250.419 250.308 250.417C247.025 250.412 243.742 250.405 240.458 250.397C241.082 248.488 241.708 246.589 242.458 244.725C242.598 244.377 242.737 244.03 242.881 243.672C243.022 243.322 243.163 242.973 243.309 242.613C243.455 242.249 243.601 241.886 243.751 241.511C244.107 240.626 244.464 239.741 244.821 238.857C244.613 239.014 244.405 239.171 244.191 239.332C243.616 239.765 243.041 240.197 242.466 240.629C241.87 241.077 241.275 241.526 240.68 241.975C228.127 251.113 212.336 253.477 197.195 251.18C188.299 249.504 179.941 245.453 173.028 239.653C172.653 239.342 172.277 239.031 171.891 238.711C167.254 234.692 162.304 228.866 160.335 222.94C160.204 232.001 160.073 241.062 159.939 250.397C150.776 250.397 141.613 250.397 132.173 250.397C132.157 242.534 132.157 242.534 132.154 239.098C132.151 236.783 132.149 234.468 132.143 232.153C132.125 224.402 132.108 216.659 132.43 208.913C132.566 205.627 132.59 202.352 132.57 199.064C131.577 200.58 130.586 202.097 129.595 203.615C129.444 203.847 129.292 204.078 129.137 204.317C126.929 207.7 124.745 211.098 122.579 214.508C120.527 217.738 118.449 220.947 116.332 224.133C115.976 224.669 115.976 224.669 115.614 225.215C113.981 227.661 113.981 227.661 113.531 228.113C111.933 228.303 110.329 228.335 108.721 228.386C108.05 228.434 108.05 228.434 107.364 228.482C104.128 228.564 104.128 228.564 102.784 227.383C102.041 226.336 101.44 225.268 100.838 224.133C100.34 223.326 99.8375 222.522 99.332 221.719C98.8083 220.858 98.2857 219.997 97.764 219.134C95.7945 215.896 93.8003 212.679 91.7297 209.505C89.4086 205.935 87.1967 202.296 84.9721 198.666C85.0003 199.179 85.0284 199.692 85.0575 200.22C85.3594 206.042 85.4211 211.847 85.4075 217.676C85.4067 218.627 85.4061 219.578 85.4057 220.529C85.4042 223.001 85.4004 225.472 85.396 227.944C85.3911 230.926 85.3893 233.908 85.387 236.891C85.3832 241.393 85.3756 245.895 85.3687 250.397C76.337 250.397 67.3054 250.397 58 250.397C58 217.568 58 184.738 58 150.914C66.2463 150.914 74.4926 150.914 82.9888 150.914C89.3175 160.891 89.3175 160.891 91.8638 165.14C92.436 166.09 93.0091 167.04 93.5821 167.99C93.7242 168.226 93.8662 168.462 94.0126 168.705C96.2593 172.43 98.5433 176.132 100.822 179.838C101.682 181.24 102.54 182.644 103.398 184.048C103.833 184.76 104.269 185.473 104.705 186.186C105.117 186.86 105.528 187.536 105.94 188.211C106.189 188.619 106.439 189.027 106.696 189.448C106.916 189.807 107.135 190.166 107.361 190.537C107.927 191.423 108.525 192.262 109.168 193.095C112.113 188.476 115.038 183.847 117.908 179.18C120.276 175.331 122.668 171.498 125.06 167.663C125.841 166.41 126.621 165.155 127.401 163.901C135.03 151.629 135.03 151.629 135.743 150.914C136.498 150.876 137.254 150.867 138.009 150.868C138.5 150.868 138.991 150.868 139.498 150.868C140.278 150.872 140.278 150.872 141.075 150.875C141.55 150.875 142.025 150.875 142.515 150.876C144.298 150.878 146.082 150.884 147.866 150.889C151.85 150.897 155.834 150.905 159.939 150.914C160.069 159.449 160.2 167.985 160.335 176.779C161.513 174.678 162.691 172.577 163.905 170.412C172.764 158.358 184.495 151.006 199.262 148.652C215.613 146.297 232.265 150.285 244.821 161.26ZM290.832 187.921C290.683 188.354 290.533 188.786 290.379 189.231C284.91 205.028 284.91 205.028 281.949 212.72C281.687 213.333 281.687 213.333 281.709 213.787C287.862 213.787 294.014 213.787 300.352 213.787C299.619 211.336 298.883 208.943 298.002 206.551C297.782 205.95 297.563 205.348 297.344 204.746C297.232 204.439 297.119 204.132 297.004 203.815C295.083 198.555 293.211 193.295 291.626 187.921C291.364 187.921 291.102 187.921 290.832 187.921Z" fill="white"/>
</svg>
