<svg width="400" height="400" viewBox="0 0 400 400" fill="none" xmlns="http://www.w3.org/2000/svg">
<g clip-path="url(#clip0_4574_1850)">
<rect width="400" height="400" fill="#20BF51"/>
<path d="M332.435 38.4668C334.833 40.8273 339.091 44.7547 341.941 48.2109C371.681 84.3655 387.189 147.195 352.866 205L352.847 204.984C342.654 223.305 316.712 247.332 285.374 263.698C279.488 266.76 273.732 270.082 268.022 273.523C267.919 273.577 267.804 273.611 267.674 273.661C248.323 282.808 244.491 285.628 228.217 279.562C199.653 268.91 192.809 249.773 189.08 252.949C186.054 255.525 198.921 272.378 213.781 282.896C223.924 290.1 235.375 296.071 224.431 303.696C223.952 304.026 223.618 304.316 223.315 304.569C186.211 333.627 160.142 363.122 140.399 400.173H70.6035C64.3656 400.173 5.1829 400.174 0 400.125V322.53C10.373 323.994 21.7232 323.346 33.3838 320.426C78.0757 309.256 96.0751 279.735 100.409 271.982C104.49 264.706 101.861 259.763 94.3047 269.224C94.2506 269.302 72.4295 301.021 27.5977 309.632C16.9756 311.67 7.83246 311.858 0 310.59V177.03C27.7779 151.774 67.0556 138.301 103.977 137.113C133.49 136.163 162.472 141.669 189.725 152.962C216.629 164.113 238.505 176.529 269.199 176.092C282.519 175.9 292.601 171.628 302.419 165.312C321.414 148.87 329.871 120.137 321.697 95.168C329.365 86.3622 330.66 72.7283 326.655 58.4238C324.253 49.8671 328.752 42.6245 332.435 38.4668ZM145.582 188.922C139.336 185.002 131.074 186.883 127.143 193.148C123.215 199.406 125.119 207.656 131.365 211.576C137.627 215.508 145.869 213.626 149.797 207.369C153.728 201.104 151.847 192.854 145.582 188.922ZM283.166 74.8252C274.123 48.9326 293.435 20.9211 324.359 32.8193C324.293 32.8935 315.382 42.8312 318.856 61.0068C325.317 94.793 295.566 110.324 283.166 74.8252Z" fill="white"/>
</g>
<defs>
<clipPath id="clip0_4574_1850">
<rect width="400" height="400" fill="white"/>
</clipPath>
</defs>
</svg>
