<svg width="400" height="400" viewBox="0 0 400 400" fill="none" xmlns="http://www.w3.org/2000/svg">
<rect width="400" height="400" fill="#16D936"/>
<path d="M249.083 175.23C230.271 201.809 222.588 232.726 223.496 265.091C255.374 265.091 286.466 256.774 308.364 232.124C339.093 197.59 340 154.618 340 136.176C299.592 132.56 265.899 151.303 249.083 175.23Z" fill="white"/>
<path d="M161.493 103.39C136.571 81.3917 102.576 69.8804 60.1719 70.0009C59.3856 111.104 60.051 169.987 90.2961 205.123C108.08 225.856 132.034 234.896 157.259 244.358V330H210.43L210.248 265.091C210.127 153.172 191.678 129.968 161.493 103.39Z" fill="white"/>
</svg>
