<svg width="400" height="400" viewBox="0 0 400 400" fill="none" xmlns="http://www.w3.org/2000/svg">
<rect width="400" height="400" fill="#3B82F6"/>
<path fill-rule="evenodd" clip-rule="evenodd" d="M216.25 91.666C234.199 91.666 248.75 106.217 248.75 124.166V134.999H281.25C299.199 134.999 313.75 149.55 313.75 167.499V270.416C313.75 288.365 299.199 302.916 281.25 302.916H118.75C100.801 302.916 86.25 288.365 86.25 270.416V167.499C86.25 149.55 100.801 134.999 118.75 134.999H151.25V124.166C151.25 106.217 165.801 91.666 183.75 91.666H216.25ZM227.083 124.166V134.999H172.917V124.166C172.917 118.183 177.767 113.333 183.75 113.333H216.25C222.233 113.333 227.083 118.183 227.083 124.166ZM116.042 199.999C110.059 199.999 105.208 204.85 105.208 210.833C105.208 216.816 110.059 221.666 116.042 221.666H189.167V237.916C189.167 243.899 194.017 248.749 200 248.749C205.983 248.749 210.833 243.899 210.833 237.916V221.666H283.958C289.941 221.666 294.792 216.816 294.792 210.833C294.792 204.85 289.941 199.999 283.958 199.999H116.042Z" fill="white"/>
</svg>
