<svg width="400" height="400" viewBox="0 0 400 400" fill="none" xmlns="http://www.w3.org/2000/svg">
<rect width="400" height="400" fill="black"/>
<g clip-path="url(#clip0_4677_1043)">
<path d="M166.841 183.96C166.841 183.96 166.601 184.074 166.308 184.048C166.016 184.021 165.244 184.256 164.978 184.602C164.978 184.602 164.123 185.831 164.227 185.963C164.399 186.182 164.729 186.887 164.649 187.152C164.569 187.417 164.455 187.537 164.242 187.59C164.227 187.794 164.305 187.95 164.665 188.138C165.13 188.381 165.238 188.764 164.947 189.233C164.384 190.141 162.716 191.64 162.662 191.8C162.608 191.96 162.056 192.615 161.817 192.801C161.578 192.987 159.668 193.776 159.376 194.069C159.084 194.361 158.096 195.874 157.989 196.193C157.883 196.512 157.697 196.778 157.962 197.123C158.227 197.468 158.866 198.026 158.892 198.478C158.919 198.93 159.317 200.498 160.301 200.63C160.78 200.683 160.989 200.645 161.152 200.338C161.504 199.671 162.457 198.301 162.709 197.996C162.845 197.831 163.119 197.627 163.438 197.707C163.757 197.786 165.26 198.184 165.26 198.184C165.26 198.184 164.092 200.025 163.773 200.343C163.454 200.662 160.833 202.384 160.567 202.596C160.301 202.809 159.796 203.022 159.769 203.5C159.743 203.979 159.636 205.865 159.663 206.344C159.689 206.823 159.902 207.168 160.194 207.301C160.486 207.434 160.702 207.572 160.861 207.307C161.02 207.042 161.602 206.77 161.815 206.61C162.027 206.452 162.963 205.28 163.255 205.147C163.547 205.014 165.227 204.075 165.759 203.942C166.29 203.809 166.758 203.421 167.475 203.208C168.192 202.995 168.724 202.665 169.043 202.464C169.404 202.237 170.046 201.657 170.453 201.628C170.692 201.608 172.112 201.689 172.764 201.64C173.242 201.605 173.774 201.402 173.986 201.003C174.199 200.604 174.352 199.545 174.24 199.358C174.029 199.005 173.776 198.128 173.755 197.996C173.723 197.808 173.588 197.601 173.242 197.468C172.897 197.336 172.185 196.721 172.159 196.588C172.053 196.615 171.784 196.729 171.222 197.229C170.627 197.759 170.202 197.855 170.171 198.09C170.125 198.432 170.173 199.523 170.108 199.678C169.983 199.968 169.624 200.5 169.248 200.719C169.042 200.838 166.066 202.358 165.747 202.384C165.428 202.411 164.553 202.613 164.24 202.175C164.4 201.777 164.632 201.628 164.835 201.345C165.034 201.07 166.571 200.153 166.837 199.993C167.103 199.834 169.718 196.595 170.25 196.249C170.781 195.903 172.039 194.804 172.331 194.538C172.623 194.272 173.52 193.13 173.88 192.817C174.385 192.338 176.218 191.887 176.617 191.089C176.617 191.089 177.081 190.261 176.337 189.889C175.593 189.517 175.581 189.574 175.421 189.468C175.261 189.362 174.81 188.989 174.517 188.936C174.225 188.883 173.72 188.989 173.268 189.042C172.816 189.095 172.391 189.095 172.072 189.388C171.753 189.681 171.724 190.226 171.486 190.625C171.486 190.625 170.048 192.588 169.624 193.066C169.199 193.545 168.272 194.491 167.874 194.623C167.475 194.756 167.342 194.703 167.13 194.836C166.917 194.969 166.329 195.5 165.931 195.632C165.533 195.764 163.785 195.619 163.595 195.58C163.318 195.522 163.17 195.128 163.515 194.756C163.86 194.384 164.499 193.873 164.897 193.66C165.296 193.448 168.07 190.826 168.309 190.64C168.548 190.454 168.977 189.906 169.217 189.827C169.456 189.747 170.187 189.592 170.563 188.919C170.963 188.202 170.559 187.798 170.797 187.214C171.036 186.629 171.222 186.146 171.01 185.614C170.797 185.082 170.265 184.312 168.99 184.365C167.714 184.418 167.289 184.391 167.289 184.391C167.289 184.391 167.213 183.934 166.841 183.96Z" fill="white"/>
<path d="M164.962 206.448C164.769 206.384 164.352 206.573 164.149 206.778C163.945 206.981 163.663 207.542 163.883 207.905C164.102 208.264 165.776 210.11 166.731 210.909C166.868 211.022 167.043 211.534 167.278 211.784C167.513 212.036 167.716 212.255 167.81 212.317C167.904 212.379 168.139 212.286 168.327 212.379C168.515 212.473 168.562 212.52 168.593 212.613C168.624 212.707 168.656 212.832 168.828 212.738C169 212.644 169.393 212.189 169.657 212.222C169.782 212.238 170.017 212.253 170.33 212.628C170.33 212.628 170.565 212.987 170.846 213.13C171.128 213.271 171.926 213.661 172.16 213.833C172.395 214.005 173.271 214.741 174.148 214.929C175.025 215.117 175.744 215.054 175.963 215.117C176.182 215.179 176.37 215.336 176.526 215.383C176.683 215.43 177.089 215.352 177.199 215.383C177.308 215.416 177.684 215.617 177.95 215.651C178.216 215.682 178.169 215.682 178.545 215.51C178.92 215.336 179.218 214.946 179.359 214.914C179.5 214.883 179.625 214.914 179.766 214.836C179.907 214.758 180.032 214.57 180.188 214.445C180.344 214.32 181.158 214.037 182.191 212.129C182.504 211.877 182.926 211.736 183.067 211.721C183.208 211.705 184.069 211.69 184.46 211.768C184.851 211.846 185.383 212.082 185.524 212.832C185.665 213.584 185.728 213.49 185.79 213.537C185.852 213.584 186.338 213.818 186.541 213.537C186.745 213.256 186.897 212.164 187.276 211.83C187.652 211.502 188.22 211.203 189.013 211.299C190.437 211.471 193.004 211.801 194.725 214.178C194.725 214.178 194.819 214.321 195.007 214.367C195.195 214.413 195.648 214.592 195.993 214.57C196.713 214.521 197.62 213.787 198.028 213.802C198.028 213.802 198.529 213.864 198.795 214.005C199.061 214.146 199.092 214.146 199.218 213.817C199.343 213.489 199.327 212.958 199.296 212.768C199.265 212.58 199.187 212.127 198.357 211.407C197.528 210.688 195.055 209.264 194.586 208.997C194.586 208.997 193.819 208.809 193.537 208.575C193.256 208.341 192.645 207.526 191.988 207.448C191.988 207.448 191.44 207.401 190.705 207.95C190.032 208.2 189.766 208.309 189.625 208.419C189.484 208.529 189.296 208.825 189.14 208.825C188.983 208.825 188.95 208.852 188.89 208.778C188.749 208.606 188.858 208.075 188.577 207.698C188.472 207.559 188.167 207.37 188.139 207.089C188.092 206.636 188.349 206.136 188.624 205.775C188.624 205.775 188.968 205.054 189.516 205.07C190.064 205.086 190.439 205.226 190.768 205.211C191.096 205.195 191.55 205.133 191.723 205.164C191.895 205.195 192.098 205.367 192.443 205.211C192.788 205.055 192.725 204.852 192.881 204.758C193.038 204.664 193.163 204.633 193.131 204.43C193.099 204.227 193.022 203.991 193.022 203.912C193.022 203.833 192.959 203.646 192.725 203.568C192.49 203.49 191.88 203.427 191.739 203.287C191.598 203.146 190.816 202.16 190.065 202.035C189.6 201.957 187.938 202.16 187.609 202.004C187.575 201.713 187.498 200.376 187.467 200.094C187.436 199.812 187.42 198.936 187.436 198.686C187.639 198.576 188.547 198.529 189.189 198.576C189.831 198.623 191.677 199.092 192.397 199.108C192.397 199.108 193.039 199.17 193.32 198.889C193.602 198.607 193.68 198.279 194.025 198.247C194.275 198.224 194.244 198.341 194.541 198.263C194.838 198.185 194.838 198.029 195.12 198.013C195.402 197.997 195.95 198.295 196.216 198.248C196.482 198.201 196.419 197.998 196.763 197.356C197.108 196.714 197.233 196.699 197.154 196.464C197.076 196.23 196.81 195.932 196.591 195.713C196.372 195.494 194.431 193.648 194.196 193.334C193.962 193.021 193.57 192.333 193.414 192.286C193.258 192.239 192.726 192.505 192.444 192.396C192.162 192.286 191.521 191.895 191.317 191.833C191.114 191.771 191.067 191.739 191.051 191.849C191.035 191.958 191.133 192.19 191.051 192.256C190.895 192.381 190.816 192.381 190.613 192.35C190.467 192.327 190.707 192.992 190.566 193.179C190.425 193.367 190.41 193.586 190.284 193.633C190.331 193.79 190.628 194.337 190.55 194.604C190.472 194.87 190.221 195.605 189.721 195.965C189.22 196.325 188.797 196.888 187.514 196.528C187.592 195.761 187.639 195.339 187.827 195.119C188.015 194.899 188.5 193.272 188.562 192.928C188.625 192.584 189.016 190.659 189.267 190.283C189.517 189.907 190.128 188.953 191.286 189.219C192.444 189.485 192.244 189.523 192.507 189.563C192.914 189.626 193.869 189.579 194.134 189.673C194.401 189.767 194.619 189.892 194.713 189.892C194.807 189.892 194.948 189.954 195.042 189.735C195.136 189.516 195.292 189.031 195.292 188.859C195.292 188.687 195.386 188.671 195.183 188.562C194.979 188.453 194.729 188.249 194.651 188.093C194.573 187.937 194.416 187.733 194.134 187.561C193.852 187.389 193.398 187.139 193.414 186.654C193.461 186.45 193.508 186.341 193.32 186.294C193.132 186.247 192.35 185.981 192.022 185.809C191.693 185.637 190.895 185.09 190.566 184.964C190.237 184.838 189.502 184.807 189.157 184.698C188.918 184.622 188.672 184.855 188.437 185.073C188.187 185.277 188.062 185.136 187.749 185.433C187.436 185.73 187.108 186.479 186.748 186.794C186.122 187.341 183.884 188.234 181.615 188.046C180.238 187.858 180.081 187.937 180.003 187.874C179.924 187.812 179.611 187.733 179.533 187.624C179.454 187.514 179.345 187.467 179.314 187.608C179.282 187.749 179.282 188.015 179.142 188.14C179.002 188.265 178.797 188.281 178.86 188.359C178.922 188.437 179.361 189.251 179.595 189.36C179.83 189.47 179.942 189.521 180.362 189.579C180.816 189.641 181.437 189.518 181.63 189.532C181.849 189.548 182.334 189.751 182.35 190.142C182.365 190.514 182.209 190.893 181.818 191.191C181.568 191.473 181.709 191.911 181.709 191.911C181.709 191.911 181.928 191.911 182.006 192.115C182.084 192.318 182.241 192.506 182.397 192.522C182.554 192.538 183.012 192.876 183.106 193.143C183.195 193.393 183.064 193.539 182.814 193.769C182.814 193.769 182.365 193.947 182.272 194.04C182.178 194.134 182.022 194.322 181.787 194.415C181.552 194.508 180.739 194.885 180.379 195.135C180.019 195.385 179.487 196.106 178.861 196.027C178.235 195.949 177.327 195.292 176.795 194.619C176.623 194.4 176.576 194.337 176.482 194.509C176.388 194.681 176.326 194.853 176.216 194.869C176.106 194.885 176.106 194.932 176.075 195.088C176.044 195.244 176.169 196.763 176.216 197.107C176.262 197.451 176.503 198.127 176.842 198.734C177.296 199.547 178.97 201.864 179.502 202.192C180.034 202.52 180.034 202.614 180.175 202.192C180.316 201.77 180.519 201.221 180.566 200.987C180.613 200.752 180.613 200.438 180.441 200.235C180.269 200.032 180.065 199.672 180.112 199.453C180.159 199.234 180.566 198.843 180.66 198.765C180.754 198.687 180.832 198.687 180.754 198.499C180.676 198.311 180.55 198.296 180.629 198.155C180.707 198.014 180.895 197.936 180.973 197.764C181.051 197.592 181.786 195.901 181.974 195.51C182.162 195.119 182.24 194.822 182.553 194.587C182.865 194.353 183.366 194.118 183.429 194.118C183.492 194.118 183.8 194.221 183.852 194.65C183.852 194.65 184.165 197.764 184.181 198.046C184.15 198.625 184.305 200.331 184.306 200.925C184.308 201.826 183.948 202.726 183.888 203.025C183.888 203.025 181.925 204.017 181.035 204.101C180.049 204.195 178.891 203.898 178.657 203.851C178.422 203.804 178.422 203.882 178.469 203.976C178.516 204.07 178.657 204.353 178.547 204.525C178.438 204.697 177.952 204.822 177.984 204.963C178.039 205.207 178.399 205.863 179.158 206.043C180.284 206.309 181.177 205.871 181.584 205.902C181.584 205.902 182.178 206.105 182.429 206.121C182.68 206.137 183.185 205.935 183.438 205.908C183.709 205.877 183.571 206.324 183.634 206.574C183.696 206.826 183.743 207.185 183.65 207.701C183.579 208.094 183.349 209.029 182.928 209.269C182.634 209.437 181.568 210.158 181.083 210.251C180.663 210.333 179.283 209.829 177.437 210.017C176.237 210.138 175.733 210.374 175.324 210.423C174.181 210.564 172.46 210.439 172.022 210.454C171.584 210.47 169.925 210.407 169.737 210.392C169.424 210.423 169.142 210.66 168.876 210.628C168.359 209.876 167.061 207.982 166.544 207.388C166.346 207.159 165.777 206.511 165.464 206.48C165.15 206.448 165.15 206.51 164.962 206.448Z" fill="white"/>
<path d="M170.987 204.023C170.686 204.216 170.157 203.898 169.907 203.695C169.698 203.525 169.61 203.617 169.75 203.836C169.75 203.836 170.052 204.311 170.282 204.51C170.517 204.713 170.83 204.948 171.096 205.309C171.362 205.668 171.706 206.653 171.863 206.858C172.019 207.061 172.739 207.78 172.833 207.905C172.927 208.03 173.177 208.094 173.381 208.03C173.584 207.968 174.187 207.645 174.554 207.561C174.898 207.483 175.305 207.577 175.43 207.53C175.555 207.483 175.602 207.264 175.696 207.171C175.79 207.077 175.868 207.077 175.743 206.763C175.618 206.451 175.555 206.201 175.321 206.091C175.086 205.982 174.554 205.605 174.445 205.417C174.335 205.229 173.85 205.042 173.663 204.964C173.475 204.886 172.77 204.542 172.505 204.308C172.305 204.13 172.161 203.603 171.817 203.447C171.528 203.316 171.291 203.197 171.269 203.4C171.238 203.695 171.206 203.882 170.987 204.023Z" fill="white"/>
<path d="M230.225 188.957L230.223 188.953V188.957H230.225Z" fill="white"/>
<path d="M212.098 185.652C212.18 185.464 213.36 185.694 213.631 185.798C213.902 185.902 214.842 186.132 215.363 186.361C216.322 186.695 217.506 188.478 218.123 188.766C218.826 189.095 219.432 189.116 219.703 189.366C219.974 189.617 220.141 189.705 220.094 190.05C220.047 190.395 220.11 190.66 219.782 190.754C219.454 190.848 218.968 190.832 218.811 190.911C218.655 190.989 218.295 191.224 218.028 191.177C217.762 191.13 217.294 190.895 217.012 190.864C216.729 190.832 215.196 190.535 214.649 190.316C214.415 190.223 213.975 190.473 213.866 190.378C213.757 190.284 213.757 189.971 213.788 189.69C213.788 189.69 213.96 189.345 213.679 189.033C213.398 188.72 212.865 188.297 212.74 188.063C212.614 187.828 212.014 185.84 212.098 185.652Z" fill="white"/>
<path d="M208.546 194.414C208.546 194.414 208.202 194.711 208.093 194.774C207.982 194.836 207.978 195.046 208.062 195.149C208.25 195.384 207.935 196.135 208.187 196.542C208.187 196.542 208.812 197.497 209.876 197.998C210.687 198.38 211.706 198.186 212.114 198.499C212.52 198.812 212.364 199.156 212.426 199.187C212.488 199.218 214.147 198.608 214.68 198.671C215.635 198.783 215.838 199.38 216.26 199.392C216.26 199.392 216.996 199.454 217.887 198.546C217.121 197.607 216.135 196.872 215.196 196.418C214.257 195.964 213.975 196.199 213.772 196.09C213.569 195.98 212.801 195.542 212.411 195.495C212.021 195.448 209.501 195.245 209.204 195.01C208.906 194.774 208.546 194.414 208.546 194.414Z" fill="white"/>
<path d="M155.715 211.206C155.981 211.456 156.213 212.022 156.284 212.706C156.451 213.208 157.095 214.427 157.765 215.274C157.765 215.274 159.148 216.891 159.862 217.387C160.184 217.61 160.759 217.953 161.172 217.996C161.267 217.654 161.818 216.998 161.863 216.941C162.13 216.609 162.235 216.316 162.226 215.931C162.224 215.829 162.269 215.079 162.257 214.742C162.245 214.402 162.037 214.16 161.978 214.064C161.693 213.607 161.585 213.193 162.128 212.742C162.163 212.678 162.072 212.221 162.049 212.082C161.994 211.728 161.931 211.33 161.746 211.098C161.685 211.022 161.475 210.862 161.429 210.375C161.382 209.891 161.706 209.232 161.717 209.191C161.721 209.171 161.66 209.089 161.633 209.076C160.866 209.64 159.91 210.806 159.91 210.806C159.546 211.281 159.268 211.658 158.831 211.658C158.633 211.658 157.955 211.346 157.532 210.963C157.212 210.674 156.53 210.281 156.431 210.346C156.262 210.457 156.295 210.578 156.154 210.75C156.012 210.924 155.745 211.081 155.715 211.206Z" fill="white"/>
<path d="M250.167 200.403C250.085 200.278 247.638 198.567 247.06 198.4C246.48 198.233 245.755 198.363 245.337 198.217C244.919 198.071 244.497 197.727 244.101 197.685C243.705 197.643 242.927 197.649 242.509 197.44C242.093 197.232 241.728 196.934 241.456 196.934C241.184 196.934 240.569 196.856 240.382 196.709C240.194 196.563 240.167 196.464 240.376 196.214C240.585 195.964 240.972 195.421 241.284 195.338C241.596 195.255 243.386 194.54 243.888 194.269C244.388 193.998 244.576 193.956 244.618 193.768C244.659 193.58 244.698 193.394 244.444 193.21C243.991 192.881 243.678 192.704 243.385 192.662C243.094 192.62 242.766 192.662 242.592 192.975C242.332 193.444 241.418 193.924 241.19 194.195C240.96 194.466 240.59 195.165 240.067 195.541C239.547 195.917 239.358 196.219 238.671 196.199C237.982 196.178 237.132 195.902 236.901 195.776C236.672 195.651 236.339 195.401 236.339 195.401C236.339 195.401 236.651 194.895 236.901 194.728C237.151 194.561 237.563 194.248 238.044 194.248C238.525 194.248 238.528 194.4 238.655 194.274C238.952 193.977 239.964 192.767 240.257 192.6C240.548 192.433 240.757 192.245 241.132 192.182C241.509 192.12 241.78 192.078 241.968 191.849C241.968 191.849 242.066 191.614 241.816 191.442C241.566 191.27 241.316 191.05 241.16 190.988C241.004 190.926 240.408 190.988 240.189 190.863C239.97 190.738 239.798 190.534 239.673 190.534C239.603 190.534 237.148 194.102 236.152 194.9C236.152 194.9 235.996 195.072 235.838 195.025C235.682 194.978 235.354 194.821 235.26 194.759C235.166 194.697 235.166 194.493 235.229 194.399C235.291 194.305 235.651 193.836 235.793 193.679C235.865 193.596 235.838 193.413 235.65 193.303C235.462 193.194 235.312 193.199 235.187 193.121C235.062 193.042 234.492 192.771 234.289 192.693C234.086 192.615 233.977 192.443 233.992 192.318C234.008 192.193 234.445 191.848 234.65 191.786C234.853 191.724 235.806 191.457 236.074 191.426C236.34 191.395 236.886 191.426 237.232 191.067C237.576 190.707 237.623 190.55 237.67 190.409C237.717 190.268 237.764 190.08 237.529 189.955C237.295 189.83 237.105 189.626 237.076 189.501C237.012 189.36 236.793 189.235 236.871 189.047C236.949 188.859 237.451 188.343 237.842 188.405C238.235 188.467 239.438 188.609 239.658 188.687C239.877 188.765 240.189 188.734 240.346 188.452C240.549 188.233 240.752 188.155 241.16 188.343C241.566 188.531 241.707 188.703 241.894 188.75C242.082 188.797 243.271 189.439 243.632 189.767C243.991 190.096 244.273 190.502 244.868 190.237C245.462 189.987 245.571 189.987 245.759 189.94C245.948 189.893 246.025 189.736 245.931 189.502C245.837 189.268 245.587 188.407 244.79 187.937C243.991 187.468 242.864 187.405 242.38 187.014C241.894 186.623 241.081 185.825 240.673 185.621C240.267 185.417 239.53 185.261 239.28 185.105C239.03 184.948 238.733 184.73 238.468 184.745C238.2 184.761 237.904 184.683 237.747 184.886C237.59 185.089 237.419 185.449 237.325 185.559C237.231 185.669 237.137 185.763 237.2 185.981C237.262 186.2 237.341 186.451 237.151 186.701C236.963 186.951 236.667 187.28 236.495 187.39C236.323 187.499 235.677 187.449 235.227 186.873C234.444 185.872 234.038 184.995 233.85 184.76C233.662 184.526 233.334 184.244 233.02 184.197C232.708 184.119 232.551 183.978 232.504 183.821C232.457 183.665 232.113 183.571 231.893 183.446C231.674 183.321 230.594 182.867 229.342 183.055C228.424 183.193 227.668 184.213 226.918 184.088C226.67 184.047 226.541 184.151 226.619 184.354C226.697 184.558 226.572 184.917 226.619 185.184C226.666 185.451 226.978 185.779 227.027 185.951C227.074 186.123 227.152 186.311 227.465 186.311C227.778 186.311 228.012 186.265 228.358 186.436C228.702 186.608 229.467 187.14 229.249 187.625C229.031 188.11 228.718 188.204 228.499 188.188C228.278 188.172 228.358 188.142 228.106 188.142C227.856 188.142 227.137 188.314 226.635 188.188C226.354 188.063 226.385 187.797 226.26 187.781C225.93 187.823 225.713 188.313 225.367 188.407C225.099 188.48 222.613 188.829 222.301 188.861C221.989 188.893 221.346 188.783 221.08 188.626C220.986 188.564 220.799 188.454 220.892 188.673C220.986 188.877 221.033 188.861 221.189 189.158C221.345 189.455 221.47 190.081 221.564 190.285C221.658 190.489 221.814 190.739 222.207 190.614C222.598 190.489 222.895 190.41 223.176 190.27C223.459 190.129 224.256 189.722 224.696 189.707C225.134 189.691 225.885 189.503 225.948 189.457C226.01 189.739 226.354 191.601 226.323 191.93C226.292 192.259 226.198 192.305 226.276 192.572C226.354 192.839 226.417 193.37 225.979 193.605C225.54 193.839 225.29 194.09 224.852 194.121C224.414 194.152 223.866 194.105 223.616 194.262C223.366 194.418 223.241 194.59 222.848 194.669C222.457 194.747 221.752 194.825 221.346 194.716C220.94 194.607 220.375 194.434 220.25 194.434C220.125 194.434 220.078 194.465 220.031 194.716C219.984 194.966 219.953 195.467 220.312 195.624C220.671 195.78 221.322 196.033 221.72 196.281C222.247 196.61 222.456 197.236 222.128 197.72C222.128 197.72 220.421 199.765 220.14 200.094C219.859 200.422 219.66 200.782 219.16 200.991C218.869 201.112 218.389 200.698 217.615 201.387C217.615 201.387 216.822 202.524 216.65 202.727C216.478 202.93 216.478 202.977 216.634 203.26C216.777 203.572 216.839 203.932 216.587 204.278C216.337 204.622 215.054 205.122 214.429 206.124C214.099 206.651 213.271 207.517 213.021 208.956C212.785 209.536 211.726 211.063 210.908 210.726C209.092 209.974 209.812 208.706 209.578 208.566C209.144 208.38 208.295 209.255 208.295 210.068C208.295 210.701 208.623 210.757 208.561 211.257C208.499 211.757 208.258 213.109 208.389 213.448C208.545 213.854 208.526 214.104 209.604 214.594C210.831 215.153 212.295 216.641 212.838 216.973C213.381 217.307 215.209 218.057 216.104 217.61C216.698 217.313 216.239 216.239 216.26 215.905C216.281 215.571 216.385 215.178 216.219 214.762C216.051 214.344 215.53 213.698 215.614 212.905C215.698 212.112 216.594 209.837 216.928 209.38C217.262 208.921 217.699 208.212 217.366 207.417C217.012 206.452 216.991 205.022 217.575 204.105C218.159 203.188 218.409 202.568 218.702 202.212C218.995 201.856 219.952 201.292 220.376 201.054C220.626 200.913 220.7 200.611 221.034 200.256C221.768 199.474 222.891 198.301 223.126 197.924C223.249 197.726 223.146 197.377 223.417 197.173C223.835 196.86 224.173 196.281 224.356 196.13C225.086 195.525 226.047 194.732 226.338 194.732C226.463 195.566 226.494 196.469 226.26 196.891C226.069 197.235 225.963 197.444 225.983 197.966C225.948 198.629 225.045 199.343 224.665 199.364C224.161 199.391 223.12 199.166 223.101 199.458C223.08 199.75 223.037 200.24 222.255 200.772C222.589 200.855 224.038 201.017 224.728 202.04C225.999 201.247 226.611 200.449 226.986 199.781C227.154 199.593 227.466 199.364 227.759 199.447C228.197 199.572 229.251 199.775 229.611 199.911C230.142 200.115 230.752 201.038 229.814 201.6C228.875 202.164 226.318 203.036 225.818 203.12C225.318 203.202 224.232 203.286 223.418 202.765C222.606 202.244 222.225 202.066 222.119 202.003C222.015 201.941 221.91 201.691 221.41 201.899C220.91 202.106 220.674 202.118 220.486 202.18C220.298 202.242 220.08 202.43 220.414 202.576C220.748 202.722 221.582 203.119 222 203.828C222.418 204.537 222.668 205.558 222.646 206.226C222.624 206.894 222.375 212.392 222.084 213.04C221.791 213.686 221.332 213.905 221.02 213.968C220.708 214.031 220.54 213.988 220.374 213.988C220.206 213.988 220.159 214.109 220.159 214.277C220.159 214.443 220.206 214.74 220.227 214.845C220.248 214.949 220.327 215.183 220.661 215.183C220.993 215.183 222.501 215.429 222.794 215.513C223.085 215.595 223.462 215.617 223.774 215.177C224.086 214.739 224.295 214.343 224.692 214.156C225.089 213.969 225.319 213.656 225.381 213.029C225.443 212.404 225.86 209.525 225.86 209.316C225.86 209.107 225.831 208.888 226.069 208.836C226.59 208.721 227.358 208.315 227.983 208.127C228.61 207.939 232.559 207.416 233.038 207.188C233.518 206.958 235.647 206.542 236.063 206.436C236.481 206.332 236.815 205.915 237.19 206.165C237.565 206.417 237.586 206.792 237.461 207.27C237.336 207.75 237.002 208.737 237.357 209.551C237.711 210.363 237.9 210.713 237.919 211.235C237.94 211.756 237.94 212.508 236.917 212.592C235.896 212.674 234.634 212.514 234.194 212.555C233.756 212.598 233.61 212.576 232.88 212.514C232.15 212.452 231.743 212.217 231.806 212.487C231.868 212.758 231.931 212.989 232.39 213.26C232.849 213.531 234.257 214.453 234.572 214.621C234.884 214.787 236.961 215.617 237.336 215.971C237.711 216.326 238.682 217.541 239.016 217.688C239.35 217.835 239.893 217.856 240.393 217.563C240.895 217.272 241.071 217.161 241.489 217.077C241.907 216.995 242.366 216.765 242.469 216.161C242.574 215.556 242.531 215.159 242.24 214.7C241.947 214.241 241.801 214.052 241.844 213.343C241.885 212.634 241.801 209.734 241.801 209.337C241.801 208.94 241.594 208.482 241.594 207.773C241.594 207.064 241.76 204.101 242.094 203.287C242.428 202.475 242.862 202.115 243.053 201.978C243.334 201.775 243.446 201.419 242.772 200.929C242.098 200.439 240.002 199.161 238.86 198.509C238.487 198.296 237.159 198.165 236.95 198.144C236.741 198.123 236.706 198.227 236.434 198.582C236.162 198.937 235.764 199.048 235.635 199.208C235.375 199.532 235.5 200.095 235.375 200.492C235.25 200.889 234.979 201.139 234.561 201.055C234.145 200.972 233.487 200.528 233.321 200.383C233.153 200.237 233.05 199.945 233.3 199.569C233.55 199.194 233.53 199.235 233.696 198.881C233.862 198.526 233.553 198.114 233.68 197.723C233.852 197.197 234.317 196.383 234.588 196.299C234.858 196.215 235.213 196.08 235.834 196.278C236.422 196.466 236.648 196.8 236.793 197.05C236.939 197.3 237.045 197.363 237.42 197.238C237.795 197.113 238.15 196.842 239.256 197.342C240.361 197.842 242.108 198.805 243.012 199.428C243.951 200.075 244.608 200.52 248.155 201.636C248.704 201.808 249.731 201.577 249.94 201.493C250.064 201.072 250.23 200.508 250.167 200.403ZM232.034 189.908C232.27 189.799 232.444 189.718 232.661 189.97C232.849 190.189 232.692 190.658 232.395 190.987C232.096 191.316 231.159 191.629 230.75 191.848C230.344 192.067 230.062 192.333 229.641 192.411C229.217 192.489 229.123 192.301 228.998 192.082C228.873 191.863 229.076 191.738 229.31 191.628C229.31 191.628 230.171 191.206 230.626 190.94C231.081 190.675 231.767 190.033 232.034 189.908ZM228.906 189.126C228.906 189.126 229.468 188.907 229.72 188.782C229.97 188.657 230.142 188.641 230.282 188.673C230.422 188.705 230.704 188.861 230.909 188.97C231.112 189.079 231.112 189.189 230.971 189.424C230.83 189.659 230.235 190.019 229.985 190.159C229.735 190.3 229.03 190.441 229.03 190.441C228.796 190.488 228.733 190.394 228.686 190.253C228.639 190.112 228.655 189.783 228.624 189.565C228.593 189.345 228.765 189.204 228.906 189.126ZM227.935 198.218C227.513 198.218 227.56 198.108 227.576 197.858C227.592 197.608 227.685 197.232 227.748 197.107C227.81 196.982 227.873 196.81 227.842 196.575C227.811 196.34 228.045 195.683 228.266 195.386C228.485 195.089 228.594 195.151 228.704 195.104C228.814 195.057 228.907 194.963 229.173 194.775C229.439 194.587 229.8 194.434 230.144 194.4C231.068 194.306 231.208 194.479 231.474 194.713C231.74 194.948 231.818 195.699 231.865 195.965C231.912 196.231 231.849 196.56 231.912 196.951C231.976 197.342 231.678 197.311 231.474 197.373C231.271 197.436 230.785 197.655 230.503 197.733C230.22 197.811 228.359 198.218 227.935 198.218ZM226.011 205.902C225.681 206.009 225.509 205.933 225.4 205.699C225.291 205.463 225.181 205.041 225.166 204.853C225.151 204.665 225.322 204.525 225.541 204.415C226.137 204.116 226.387 204.116 226.668 204.087C226.951 204.054 226.84 203.991 227.139 203.851C227.436 203.71 227.748 203.57 228.219 203.273C228.688 202.974 230.315 202.412 230.533 202.349C230.751 202.286 230.926 202.349 230.658 202.708C230.392 203.069 228.922 204.415 227.982 205.024C227.044 205.636 226.542 205.73 226.011 205.902ZM233.804 202.412C233.96 202.365 234.101 202.256 234.507 202.146C234.915 202.037 235.118 202.427 235.15 203.085C235.181 203.741 234.869 203.913 234.697 204.023C234.525 204.134 234.697 204.195 234.367 204.619C233.883 204.994 230.377 206.23 230.064 206.293C229.751 206.356 228.89 206.371 228.515 206.527C228.138 206.685 227.247 206.857 226.824 206.904C226.402 206.951 226.623 206.75 226.793 206.67C227.154 206.498 228.781 205.557 229.219 205.244C229.658 204.932 231.489 203.336 231.817 203.086C232.146 202.834 233.648 202.459 233.804 202.412Z" fill="white"/>
<path d="M299.869 197.733C299.553 197.613 298.137 197.044 297.697 196.919C297.259 196.794 294.34 196.502 293.086 196.063C292.471 195.848 291.774 195.706 290.563 196.199C289.102 196.793 287.936 196.624 287.108 197.282C286.28 197.939 284.788 198.97 284.335 198.609C283.929 198.275 284.095 197.962 283.897 197.796C283.776 197.695 283.969 197.149 283.844 196.961C283.719 196.773 282.957 196.169 282.707 195.761C282.455 195.354 282.539 195.057 282.346 194.901C282.17 194.757 282.405 194.27 283.03 194.144C283.657 194.019 283.854 193.827 284.428 194.008C285.055 194.206 286.43 193.914 287.588 193.696C288.746 193.477 289.404 193.351 289.936 193.664C290.469 193.977 290.657 194.478 291.094 194.51C291.471 194.134 291.918 193.685 292.483 193.498C293.045 193.31 293.286 193.07 293.411 192.882C293.536 192.694 295.54 192.131 295.696 191.787C295.852 191.443 295.758 190.858 295.591 190.431C295.362 189.844 294.757 189.315 294.57 188.783C294.383 188.251 293.224 185.591 292.254 185.153C291.283 184.715 291.002 184.757 290.565 184.694C290.127 184.632 289.657 184.652 289.438 184.965C289.219 185.278 288.811 185.81 288.155 185.841C287.497 185.872 287.3 185.903 287.018 186.154C286.735 186.404 286.778 186.592 287.09 186.811C287.402 187.03 287.936 188.157 287.873 188.689C287.81 189.221 287.904 189.753 286.809 190.379C286.809 190.379 284.786 191.558 284.149 192.194C283.762 192.455 282.426 192.663 281.614 193.185C281.13 193.496 280.112 193.78 279.61 193.874C279.11 193.968 278.829 193.54 278.483 193.368C278.075 193.164 278.014 192.993 278.327 192.93C278.639 192.868 278.634 192.621 279.001 192.288C279.345 191.976 279.548 191.85 279.36 191.443C279.172 191.036 278.964 190.608 278.964 190.514C278.964 190.42 278.911 190.044 279.507 190.076C280.101 190.107 280.993 189.975 281.427 190.284C281.865 190.597 282.458 190.628 282.677 190.441C282.898 190.253 282.458 189.94 282.208 189.783C281.958 189.627 280.915 189.022 280.007 188.803C279.099 188.584 278.193 188.49 277.577 187.937C277.313 187.701 277.075 187.885 276.669 187.572C276.261 187.259 275.716 186.515 274.896 186.258C274.552 186.151 272.988 184.843 272.621 184.151C272.379 183.693 271.85 183.275 271.256 183.275C270.66 183.275 270.557 183.317 270.369 183.317C270.18 183.317 269.992 183.16 269.617 183.692C269.242 184.224 268.646 184.589 268.178 184.652C267.707 184.714 267.364 185.163 266.801 185.32C266.237 185.476 265.684 185.362 266.278 186.05C266.874 186.738 268.688 188.439 268.688 188.439C268.971 188.783 269.502 189.691 268.752 190.16C268 190.63 259.611 192.414 257.672 192.288C256.795 192.194 256.358 192.32 256.076 192.069C255.793 192.288 255.855 192.538 256.232 192.663C256.607 192.788 257.39 193.205 257.453 193.393C257.516 193.581 257.515 194.092 258.767 193.998C260.019 193.904 262.206 193.804 262.835 193.873C263.794 193.977 264.087 193.685 264.399 193.435C264.711 193.184 265.797 192.976 266.047 193.289C266.203 193.57 266.119 194.008 266.119 194.008C266.119 194.008 266.119 196.575 266.215 196.95C266.309 197.325 266.444 197.659 266.069 198.129C265.692 198.599 264.995 198.828 264.901 199.016C264.805 199.204 264.587 199.611 265.213 199.673C265.838 199.735 266.215 199.85 266.465 200.132C266.715 200.414 267.361 200.894 267.611 201.175C267.861 201.456 268.466 201.864 267.873 202.302C267.277 202.74 266.496 202.814 266.088 202.97C265.682 203.126 264.555 204.087 263.805 204.241C263.053 204.399 258.61 204.899 258.17 204.899C257.732 204.899 257.482 204.837 257.199 204.368C256.918 203.897 256.761 203.335 256.511 203.429C256.261 203.523 256.32 203.673 256.23 204.054C256.103 204.587 255.353 204.618 255.384 204.868C255.384 204.868 256.511 206.307 257.513 206.841C258.513 207.372 258.796 207.247 259.39 207.153C259.986 207.059 260.947 207.067 261.476 207.1C262.156 207.141 263.992 206.569 264.929 206.588C265.103 206.965 265.04 208.264 264.251 208.811C263.312 209.465 261.722 211.518 260.907 212.27C260.255 212.874 259.811 213.694 259.171 213.881C258.835 213.979 258.419 213.881 258.452 214.162C258.483 214.445 258.325 214.633 258.577 214.726C258.827 214.82 259.452 214.851 259.985 214.601C260.516 214.351 260.735 214.757 261.362 214.632C261.987 214.507 262.452 214.517 262.708 213.911C263.208 212.722 263.563 212.868 264.126 212.085C264.126 212.085 265.712 209.687 266.233 207.12C266.379 206.452 266.588 206.024 266.807 205.681C267.026 205.335 268.205 203.992 268.424 203.865C268.643 203.74 269.498 203.303 269.998 203.084C270.5 202.863 270.781 202.801 270.906 202.863C271.031 202.925 271.408 203.459 271.283 203.834C271.156 204.211 270.969 205.055 271.062 205.963C271.155 206.871 271.689 208.529 271.47 209.092C271.251 209.656 271.408 209.781 270.812 210C270.218 210.219 269.716 210.324 269.091 210.166C268.464 210.012 267.923 209.697 267.609 209.666C267.297 209.635 267.213 209.594 267.275 210.125C267.337 210.656 267.496 211.627 267.996 211.971C268.496 212.317 269.017 212.817 269.113 213.131C269.207 213.443 269.226 213.975 269.509 214.57C269.79 215.164 270.218 215.603 270.562 215.822C270.906 216.041 271.939 216.322 272.314 217.011C272.91 216.98 273.162 217.097 273.578 216.468C274.088 215.697 275.164 214.413 275.195 214.036C275.226 213.661 275.351 212.972 275.039 212.597C274.725 212.222 274.496 211.544 274.328 211.189C274.195 210.904 274.016 210.125 274.162 209.687C274.297 209.283 274.627 207.421 274.746 207.183C274.912 206.849 274.912 206.777 275.195 206.933C275.476 207.089 277.25 208.101 277.875 209.415C278.158 209.884 278.336 210.083 278.648 209.833C278.96 209.581 278.982 209.341 278.982 209.122C278.982 208.903 279.064 208.696 278.814 208.538C278.564 208.382 278.168 207.808 278.074 207.495C277.98 207.182 277.699 206.858 277.353 206.577C277.009 206.296 275.611 204.97 275.455 204.782C275.299 204.594 275.351 204.46 275.383 204.239C275.414 204.02 275.508 203.114 275.571 202.956C275.633 202.8 275.727 202.675 276.071 202.737C276.417 202.799 276.919 202.964 277.292 202.799C277.669 202.674 279.128 202.695 279.796 202.633C280.046 202.383 280.015 202.174 280.015 202.174C280.015 202.174 279.421 201.547 278.607 201.203C277.795 200.859 275.697 200.17 275.416 199.982C275.135 199.794 274.932 199.623 274.994 199.435C275.15 198.966 274.719 198.554 274.851 198.48C275.603 198.063 276.751 198.334 276.751 198.334C276.751 198.334 277.085 197.979 276.958 197.604C276.239 197.322 275.134 197.009 274.819 197.103C274.631 196.352 274.725 195.977 274.975 195.82C275.227 195.663 276.916 194.568 277.731 194.568C278.543 194.568 279.639 194.944 280.11 195.069C280.579 195.194 280.712 195.217 281.048 195.538C281.528 195.997 282.187 197.207 282.028 197.583C281.837 198.045 282.028 198.819 281.706 199.404C281.511 199.755 281.173 199.733 281.55 200.139C281.925 200.546 282.331 200.859 282.175 201.328C282.019 201.799 281.737 203.049 281.737 203.707C281.737 204.365 281.706 206.66 281.549 207.41C281.393 208.162 280.797 210.75 280.151 211.521C279.61 212.166 279.108 213.064 278.731 213.316C278.356 213.566 278.2 214.035 278.356 214.254C278.512 214.473 278.795 214.818 279.108 214.537C279.42 214.254 280.11 213.316 280.454 213.004C280.798 212.69 281.768 212.533 282.487 211.75C283.208 210.969 283.626 210.084 283.77 209.373C284.028 208.121 284.364 203.027 284.54 201.795C284.571 201.576 284.774 201.514 284.946 201.529C286.466 202 287.819 202.133 288.78 202.33C289.27 202.432 289.358 202.822 289.401 203.209C289.424 204.322 289.309 208.334 289.253 209.186C289.191 210.124 288.657 213.973 288.782 214.944C288.909 215.915 289.378 216.758 289.534 217.135C289.69 217.51 290.096 217.479 290.19 217.071C290.284 216.665 290.159 216.487 290.618 216.217C291.016 215.981 291.725 215.789 291.882 215.852C292.039 215.915 292.132 216.217 292.288 216.405C292.444 216.593 292.632 216.665 293.009 216.509C293.384 216.353 293.708 216.343 293.98 216.218C294.25 216.093 294.281 215.509 294.187 215.07C294.093 214.632 294.458 212.638 294.105 211.732C294.199 211.199 294.167 211.095 293.916 210.627C293.652 210.129 293.51 207.731 293.478 207.309C293.446 206.887 293.882 206.713 293.882 206.37C293.882 206.027 293.558 205.62 293.589 205.243C293.62 204.868 293.929 203.913 293.86 203.22C293.813 202.751 293.786 200.862 293.817 200.675C293.848 200.488 293.922 200.482 294.131 200.408C294.99 200.111 296.561 200.341 297.344 200.091C298.125 199.84 299.764 199.267 300.014 199.11C300.266 198.953 300.348 198.87 300.348 198.526C300.348 198.181 300.307 197.899 299.869 197.733ZM268.403 192.209C268.559 192.162 269.452 191.724 269.733 191.614C270.016 191.505 270.329 191.724 270.532 191.864C270.735 192.004 270.641 192.271 270.501 192.443C270.36 192.615 270.173 192.709 269.78 193.006C269.389 193.303 268.591 193.335 268.309 193.319C268.028 193.303 268.106 192.944 268.09 192.693C268.074 192.443 268.145 192.286 268.403 192.209ZM270.344 200.033C270.188 200.221 270.125 200.189 269.905 200.252C269.686 200.314 269.514 200.19 269.436 200.018C269.358 199.846 269.311 199.658 269.311 199.658C269.389 199.486 269.952 199.22 270.219 199.314C270.438 199.658 270.5 199.846 270.344 200.033ZM272.502 195.417C271.955 195.808 271.252 195.949 270.781 196.184C270.312 196.419 269.529 197.107 269.201 197.311C268.873 197.514 268.324 197.561 268.027 197.639C267.73 197.717 267.808 197.608 267.73 197.248C267.652 196.888 267.621 196.262 267.714 196.027C267.807 195.792 268.069 195.788 268.339 195.636C268.589 195.495 268.763 194.994 268.982 194.76C269.201 194.526 269.373 194.385 269.67 194.15C269.969 193.915 271.047 192.726 271.236 192.569C271.424 192.413 271.47 192.397 271.798 192.397C272.126 192.397 272.534 192.913 272.878 193.21C273.222 193.507 273.409 193.977 273.378 194.509C273.348 195.041 273.051 195.025 272.502 195.417Z" fill="white"/>
<path d="M328.371 188.421C328.324 188.077 328.074 187.388 327.838 187.107C327.723 186.967 327.682 187.013 327.276 186.998C327.022 186.988 326.493 186.607 326.196 186.2C325.442 186.144 325.524 186.159 324.507 185.449C323.413 184.685 323.38 184.541 322.972 184.353C322.566 184.165 322.675 184.337 322.316 184.369C322.113 184.385 321.72 184.228 321.298 184.103C320.876 183.978 320.296 184.259 319.905 184.494C319.905 184.854 319.561 185.323 319.421 185.511C319.278 185.699 319.091 186.028 318.95 186.293C318.809 186.56 318.669 186.622 318.388 186.763C316.712 187.342 314.255 187.608 314.255 187.608C313.739 187.623 313.208 187.107 312.066 187.029C311.263 186.974 310.062 187.389 309.328 187.107C309.328 187.107 308.857 187.013 308.639 186.607C308.498 186.356 308.451 186.341 308.201 186.184C307.951 186.028 307.982 186.403 307.982 186.794C307.982 187.185 307.92 187.248 307.746 187.608C307.434 187.592 307.371 187.796 307.184 188.14C306.997 188.484 307.028 188.61 307.512 188.969C307.998 189.329 308.467 190.362 308.858 191.02C309.251 191.677 309.766 192.929 310.126 193.164C310.487 193.399 310.675 193.414 310.925 193.289C311.175 193.164 311.663 192.918 312.083 193.758C312.521 194.634 311.817 196.387 311.849 196.935C311.872 197.357 312.13 199.955 311.99 201.035C311.902 201.703 311.597 202.678 311.597 203.039C311.597 203.398 311.786 204.07 311.74 205.213C311.694 206.356 311.16 208.172 310.832 208.516C310.502 208.86 309.893 209.204 309.596 209.487C309.299 209.768 309.188 210.159 309.487 210.565C309.784 210.973 309.971 211.754 310.065 212.397C310.159 213.04 309.987 214.43 310.284 215.229C310.583 216.028 311.067 215.872 311.458 215.856C311.851 215.84 312.819 216.497 313.056 216.59C313.29 216.684 313.4 216.528 313.478 216.371C313.556 216.214 314.283 215.531 314.636 215.119C315.105 214.572 315.058 214.26 315.011 213.789C314.949 213.148 315.294 211.879 315.37 211.004C315.45 210.127 314.995 209.203 314.714 208.359C314.433 207.513 314.636 207.185 314.605 206.558C314.58 206.042 314.293 205.431 314.293 204.556C314.293 203.507 314.855 203.099 314.934 202.802C315.013 202.505 315.059 201.144 315.122 200.33C315.184 199.517 315.546 198.531 315.64 198.14C315.734 197.749 316.296 197.78 316.546 197.717C316.798 197.655 316.923 197.467 317.595 197.201C318.269 196.935 319.724 196.904 320.177 196.732C320.632 196.56 321.476 196.137 321.884 195.636C322.29 195.135 322.368 195.01 322.665 194.916C322.88 194.849 323.495 194.963 323.776 194.916C324.057 194.869 324.309 194.056 324.419 193.805C324.528 193.555 324.981 193.085 325.357 191.974C325.707 190.941 325.906 188.797 325.906 188.797C325.906 188.797 326.095 188.868 326.265 188.766C326.499 188.625 326.609 188.563 327.111 188.625C327.531 188.678 328.002 188.641 328.207 188.61C328.403 188.578 328.391 188.562 328.371 188.421ZM321.016 192.991C320.969 193.32 320.922 193.946 320.719 194.259C320.514 194.572 319.983 195.073 319.733 195.151C319.483 195.229 319.249 195.526 319.044 195.573C318.841 195.62 318.669 195.73 318.153 195.918C317.635 196.106 317.51 196.262 317.089 196.184C316.946 196.158 316.525 196.106 316.196 196.059C315.867 196.012 315.962 195.652 315.884 195.386C315.806 195.12 315.884 194.901 316.009 194.619C316.134 194.337 316.087 194.181 316.087 193.852C316.087 193.523 316.181 192.803 316.29 192.333C316.399 191.864 316.804 191.718 317.151 191.739C317.417 191.755 318.327 191.643 318.622 191.677C319.044 191.723 320.36 192.162 320.657 192.209C320.954 192.256 321.065 192.648 321.016 192.991ZM321.172 188.202C321.125 188.484 321.188 188.953 320.86 189.235C320.532 189.517 320.249 189.627 319.796 189.673C319.343 189.719 319.013 189.782 318.622 189.955C318.231 190.127 316.743 190.409 316.589 190.424C316.431 190.44 316.337 190.346 316.29 190.236C316.243 190.127 316.134 189.97 316.024 189.845C315.915 189.72 315.665 189.11 315.68 188.938C315.696 188.766 315.649 188.515 315.868 188.375C316.087 188.234 316.321 188.093 316.321 188.093C316.509 188.062 316.618 188.202 316.885 188.171C317.151 188.14 317.903 187.905 318.809 187.514C319.717 187.123 320.092 186.919 320.547 186.982C321 187.044 321.359 187.342 321.344 187.733C321.334 187.999 321.281 187.983 321.172 188.202Z" fill="white"/>
<path d="M334.601 197.749C334.429 197.702 333.683 197.625 333.333 197.561C332.05 197.326 330.548 196.779 329.718 196.841C328.888 196.904 327.823 197.89 327.589 197.999C327.355 198.109 325.194 198.562 325.194 198.562C324.036 198.906 323.411 199.36 322.018 199.689C320.625 200.018 319.295 199.971 319.012 199.924C318.731 199.877 318.45 199.908 318.09 200.018C317.729 200.127 317.604 199.955 317.432 199.986C317.432 199.986 317.401 200.018 317.307 200.127C317.213 200.236 317.307 200.534 317.385 200.753C317.463 200.972 317.744 201.16 318.184 201.425C318.622 201.691 320.186 201.691 320.514 201.659C320.844 201.63 320.985 201.378 321.203 201.315C321.421 201.252 322.236 201.096 322.361 201.065C322.486 201.034 322.517 201.065 322.549 201.159C322.581 201.253 322.737 201.958 322.815 202.223C322.893 202.488 322.612 203.459 322.565 203.725C322.518 203.993 322.608 204.614 322.596 204.899C322.58 205.307 322.207 205.856 322.08 206.198C321.892 206.698 321.094 208.139 320.75 208.796C320.395 209.644 319.572 210.282 319.152 210.392C318.82 210.48 318.714 210.41 318.605 210.439C318.496 210.47 318.496 210.55 318.605 210.8C318.714 211.05 318.652 211.206 318.761 211.378C318.87 211.55 321.249 213.773 321.327 213.851C321.405 213.929 321.374 213.929 321.593 213.757C321.812 213.585 322.236 213.601 322.564 213.476C322.892 213.351 323.003 212.708 323.394 212.24C323.785 211.772 323.988 211.551 324.333 211.504C324.677 211.457 325.224 210.879 325.866 210.645C326.507 210.411 326.977 209.877 327.321 209.643C327.665 209.409 328.729 209.204 328.854 209.19C328.979 209.172 328.979 209.221 329.057 209.315C329.135 209.409 329.088 209.643 329.119 210.127C329.15 210.611 328.9 211.691 328.931 212.35C328.962 213.009 329.652 215.104 330.089 215.7C330.528 216.294 330.747 215.684 330.825 215.479C330.903 215.276 331.856 214.118 331.856 214.118C331.983 213.899 332.045 213.54 331.999 213.243C331.95 212.944 332.265 212.413 332.39 212.147C332.515 211.879 332.359 211.442 332.328 211.223C332.297 211.004 332.344 210.707 332.344 210.707C332.36 210.33 332.75 209.283 332.797 208.781C332.844 208.281 332.594 205.088 332.672 204.148C332.709 203.695 332.844 201.99 332.875 201.677C332.906 201.363 333.016 201.159 333.047 201.034C333.08 200.909 332.969 200.784 332.985 200.612C333.001 200.44 333.266 200.052 333.518 199.719C333.862 199.266 334.409 199.281 334.536 199.234C334.661 199.187 334.692 199.172 334.708 199.046C334.724 198.92 334.786 198.545 334.833 198.264C334.882 197.983 334.773 197.795 334.601 197.749ZM328.466 206.841C328.31 207.029 327.155 207.777 326.384 208.124C325.759 208.405 324.913 208.905 324.538 209.046C324.163 209.189 323.958 209.189 323.88 209.124C323.911 208.64 324.068 208.218 324.271 207.872C324.404 207.649 324.539 207.403 324.585 207.263C324.631 207.123 324.788 207.06 324.96 207.06C324.96 207.06 325.398 207.06 325.915 206.998C326.431 206.936 327.323 206.668 327.667 206.592C328.013 206.512 328.278 206.496 328.497 206.496C328.497 206.496 328.544 206.714 328.466 206.841ZM328.7 204.712C328.434 204.9 327.698 205.087 327.276 205.196C326.977 205.274 325.962 205.415 325.413 205.462C324.866 205.509 324.882 205.462 324.772 205.4C324.725 205.103 324.756 204.525 324.788 204.306C324.82 204.087 325.132 203.679 325.163 203.382C325.163 203.382 326.29 203.257 326.493 203.241C326.696 203.225 328.653 203.132 328.653 203.132C328.653 203.132 328.669 203.194 328.7 203.273C328.731 203.352 328.716 204.525 328.7 204.712ZM328.779 199.783C328.748 199.939 328.67 200.753 328.67 201.301C328.42 201.27 327.59 201.237 327.34 201.254C326.713 201.301 326.369 201.756 325.916 201.897C325.916 201.897 325.398 202.131 325.164 202.038C325.102 201.645 325.039 200.864 324.867 200.582C324.812 200.492 324.726 200.362 324.867 200.269C325.008 200.176 325.65 199.878 326.056 199.784C326.462 199.69 326.777 199.612 327.074 199.534C327.371 199.456 328.232 199.127 328.592 199.33C328.841 199.485 328.81 199.626 328.779 199.783Z" fill="white"/>
<path d="M346.916 187.56C346.977 187.294 347.197 187.091 346.916 186.793C346.633 186.496 346.023 185.933 344.818 185.479C343.613 185.025 343.177 185.067 342.892 184.9C342.439 184.634 341.343 183.836 341.249 183.789C341.155 183.742 341.187 183.679 340.937 183.773C340.685 183.867 339.261 184.383 338.917 184.665C338.573 184.947 338.456 185.084 338.167 185.26C337.728 185.526 336.632 185.902 336.491 185.995C336.35 186.089 335.632 186.621 335.083 186.7C334.536 186.778 334.065 186.747 333.097 186.747C332.126 186.747 331.281 186.559 330.812 186.121C330.712 186.029 330.607 186.042 330.607 186.042L328.98 186.011C328.98 186.011 328.839 186.089 328.855 186.152C328.871 186.215 329.56 187.67 329.623 187.67C329.811 187.701 330.311 187.936 330.404 188.186C330.498 188.436 331.14 190.017 331.125 190.361C331.11 190.705 331.109 190.815 330.937 191.049C330.765 191.284 330.357 191.675 330.484 192.145C330.484 192.145 330.796 193.319 331.046 193.678C331.405 193.788 331.829 193.85 331.985 194.273C332.141 194.695 332.36 195.431 332.454 195.587C332.548 195.743 332.798 195.962 333.081 195.978C333.362 195.994 334.065 195.884 334.286 195.884C334.503 195.884 338.464 195.853 338.636 195.978C338.777 196.087 338.761 196.056 338.761 196.182C338.761 196.307 338.964 197.778 338.995 198.342C339.026 198.905 338.854 202.27 338.917 203.631C338.979 205.541 339.573 208.576 339.747 209.953C339.747 209.953 339.872 211.283 339.559 211.957C339.088 211.863 338.916 211.783 338.666 211.816C338.416 211.847 337.883 211.957 337.57 211.923C337.258 211.894 336.443 211.72 336.146 211.642C335.964 211.595 335.912 211.689 335.802 211.642C335.692 211.595 335.597 211.564 335.488 211.533C335.379 211.502 335.207 211.408 335.316 211.689C335.425 211.972 336.068 212.832 336.209 213.224C336.35 213.615 336.381 214.036 336.74 214.286C337.101 214.538 338.318 215.354 338.666 215.663C339.26 216.196 339.637 216.87 340.199 217.104C340.199 217.104 341.357 217.542 341.467 217.604C341.577 217.666 341.905 217.698 342.203 217.698C342.203 217.698 344.221 217.807 344.582 217.839C344.941 217.872 345.865 217.886 346.1 217.872C346.334 217.808 346.444 217.792 346.428 217.62C346.412 217.448 346.272 217.12 346.334 216.931C346.396 216.743 346.623 216.441 346.584 216.197C346.506 215.697 345.818 215.023 345.818 214.617C345.818 214.209 345.865 213.99 345.832 213.537C345.803 213.082 345.394 211.299 345.363 210.25C345.271 208.119 344.896 204.006 344.863 203.6C344.742 202.098 345.097 201.049 345.066 200.298C345.035 199.547 344.392 198.091 344.33 197.341C344.268 196.59 344.299 195.056 344.314 194.571C344.33 194.086 344.392 193.663 344.613 193.053C344.832 192.443 345.066 191.692 345.113 191.394C345.16 191.096 345.082 190.705 345.285 190.486C345.488 190.267 346.381 189.97 346.584 189.704C346.787 189.438 346.85 189.297 346.943 188.828C347.061 188.258 346.852 187.826 346.916 187.56ZM338.699 193.319C338.656 193.715 338.637 194.179 338.449 194.32C338.316 194.42 338.199 194.492 337.931 194.524C337.665 194.555 334.628 194.441 334.443 194.383C334.191 194.305 334.097 194.039 334.097 194.039C334.097 194.039 334.331 193.006 334.599 192.787C334.865 192.568 335.021 192.458 335.349 192.427C335.679 192.396 336.492 192.317 336.804 192.286C337.118 192.255 337.275 192.098 337.478 192.067C337.681 192.035 337.697 192.051 337.79 192.02C337.884 191.989 338.292 191.77 338.495 191.832C338.698 191.894 338.704 191.942 338.729 192.145C338.762 192.396 338.762 192.74 338.699 193.319ZM338.809 190.283C338.67 190.529 338.637 190.502 338.528 190.549C338.419 190.596 337.323 190.721 336.68 190.705C336.227 190.694 335.973 190.475 335.662 190.533C335.412 190.58 334.974 190.564 334.85 190.564C334.726 190.564 334.6 190.611 334.584 190.392C334.568 190.173 334.475 189.124 334.475 189.124C334.444 188.905 334.522 188.842 334.725 188.795C334.725 188.795 335.696 188.67 336.133 188.482C336.57 188.294 337.01 188.075 337.276 187.794C337.542 187.513 338.294 186.793 338.7 186.793C338.997 186.887 339.091 187.215 339.091 187.622C339.09 188.029 339.168 189.641 338.809 190.283Z" fill="white"/>
<path d="M95.2603 192.677C94.9943 192.255 91.8493 189.266 91.6453 189.031C91.4413 188.796 90.7533 188.374 90.3303 188.295C89.9083 188.217 89.3293 188.201 88.9533 187.967C88.6473 187.775 86.4653 186.511 86.0893 186.402C85.7143 186.292 85.3223 186.136 84.8063 186.433C84.2893 186.73 83.9133 186.996 83.6323 187.075C83.3503 187.153 82.7403 187.372 82.5213 187.466C82.3023 187.56 81.1443 188.295 80.7373 188.358C80.3303 188.42 74.8853 188.628 74.3833 188.639C72.3963 188.686 67.1063 189.469 65.7603 189.532C64.4163 189.594 59.9253 189.5 59.3933 189.344C56.9673 188.655 54.6373 186.938 54.1503 186.542C53.9003 186.339 52.8993 186.761 53.0083 187.168C53.1393 187.656 53.2543 188.345 53.6653 189.031C53.9943 189.579 54.0883 192.834 54.0093 193.632C53.9453 194.286 53.7283 194.947 54.7603 195.761C55.7933 196.574 58.3603 197.513 58.7663 197.764C59.1733 198.014 60.0053 200.158 59.9553 201.818C59.8773 204.447 58.6253 209.595 58.5313 210.127C58.4373 210.66 58.2963 210.879 58.5153 211.348C58.7343 211.819 60.0173 213.758 61.4263 214.383C61.8953 214.572 62.0513 214.604 62.4583 214.416C62.8653 214.228 63.5853 213.82 64.0543 213.883C64.5243 213.945 65.4943 213.883 65.7133 213.914C65.9333 213.945 66.3493 213.842 66.5893 213.352C66.9493 212.616 67.7163 211.414 69.1713 210.739C70.6903 210.034 73.2873 209.19 76.6683 209.596C80.0493 210.002 80.7363 210.049 81.2373 210.362C81.7383 210.676 81.8633 210.848 82.0193 211.255C82.1763 211.661 82.2233 212.148 82.7553 212.335C83.2873 212.523 83.5223 212.757 84.0853 212.882C84.6483 213.009 86.0253 212.944 86.3073 213.103C86.5893 213.259 87.1523 213.337 87.4963 213.15C87.8403 212.963 87.8713 212.601 88.3563 212.351C88.7343 212.156 89.6873 212.007 89.9053 211.474C90.1243 210.943 89.4513 209.55 89.8113 208.783C90.9223 206.42 91.6583 203.088 92.2683 200.911C93.0083 198.274 93.9873 195.599 94.0993 195.231C94.5213 193.838 94.9113 193.516 95.1473 193.353C95.4023 193.178 95.4263 192.94 95.2603 192.677ZM84.4003 197.137C84.2593 199.563 83.3363 202.02 82.8513 202.489C82.3663 202.958 81.1143 203.757 80.4883 204.274C79.8633 204.79 79.9883 205.477 79.4243 205.932C78.9593 206.307 77.7183 206.354 76.6863 206.291C75.6863 206.23 71.8353 207.355 71.4123 207.465C70.9903 207.574 68.8153 208.324 68.5643 208.326C67.8083 208.332 66.1663 208.66 65.6533 207.871C65.3993 207.482 64.6193 206.418 64.5263 205.838C64.4583 205.41 64.4163 203.787 64.4163 203.568C64.4163 203.349 64.5513 202.908 64.9283 202.804C65.2763 202.708 65.8093 202.503 65.8093 202.503C67.0923 202.175 72.9763 202.894 73.4773 202.927C73.9773 202.956 74.1813 202.722 74.4003 202.706C74.6193 202.69 75.0293 202.8 75.4493 202.706C76.0643 202.571 77.3113 202.097 78.0153 201.563C78.7193 201.032 78.3443 200.625 78.0463 200.391C77.7493 200.156 77.3113 199.577 76.9663 199.264C76.6213 198.951 76.6383 198.967 75.9493 198.81C75.2613 198.653 74.6813 198.872 74.4313 198.888C74.1813 198.904 73.6333 198.841 73.6333 198.841C73.1953 198.841 71.3953 199.498 70.4253 199.545C70.0493 199.564 69.6433 199.545 69.2993 199.545C68.9543 199.545 68.0003 200.045 67.3893 200.202C66.7793 200.358 66.1063 200.405 65.4643 200.264C64.8223 200.123 64.2903 199.184 64.2123 198.48C64.1343 197.776 64.5093 195.71 64.8223 195.272C65.1353 194.834 65.6833 194.787 67.0913 194.662C68.5003 194.537 71.1763 195.194 71.1763 195.194C72.3023 195.476 73.0073 195.476 74.1643 194.913C75.3223 194.35 77.9673 192.127 78.2643 191.313C78.5623 190.5 78.9213 190.124 79.4853 189.936C79.4853 189.936 79.8923 189.873 80.2213 189.936C80.5503 189.998 81.8483 190.562 82.6473 190.578C83.1013 190.797 83.9923 191.407 84.2743 192.581C84.4183 193.177 84.5413 194.711 84.4003 197.137Z" fill="white"/>
<path d="M113.994 202.334C113.994 202.334 108.203 207.842 107.093 208.547C105.982 209.25 101.6 212.537 99.2837 213.068C98.2037 213.367 97.4367 212.961 96.9837 213.068C96.9837 213.068 96.4517 213.148 96.3417 213.445C96.2317 213.742 96.3417 213.945 96.2637 214.228C96.1847 214.509 95.6217 215.103 95.6537 215.337C95.6847 215.571 95.8727 216.276 95.9657 216.464C96.0597 216.652 96.2477 216.698 96.4827 216.685C96.7177 216.667 98.2197 216.449 98.4387 216.417C98.6577 216.386 98.8927 216.308 99.0807 216.042C99.2687 215.776 99.8387 215.073 100.333 214.884C103.504 213.667 108.747 210.419 110.083 209.298C111.245 208.319 118.643 200.768 119.206 200.314C119.769 199.86 120.646 199.063 121.084 198.89C121.522 198.718 122.289 198.389 122.555 198.577C122.821 198.765 122.884 198.952 122.884 199.312C122.884 199.672 122.884 200.477 122.853 200.768C122.791 201.347 122.791 201.755 122.461 202.083C122.312 202.231 122.086 202.271 121.992 202.645C121.926 202.911 121.319 203.475 120.865 203.678C120.411 203.881 119.269 203.647 118.627 204.1C118.627 204.1 117.985 204.555 118.017 204.914C118.049 205.273 118.408 205.572 118.643 205.963C118.832 206.277 119.426 207.043 119.551 207.168C119.676 207.293 119.864 207.465 120.302 207.371C120.74 207.277 121.382 207.09 121.601 207.199C121.82 207.308 121.851 207.355 121.867 207.605C121.883 207.857 121.914 209.906 121.695 210.578C121.476 211.252 121.51 211.389 121.585 211.83C121.805 213.125 122.278 215.053 122.853 216.182C123.016 216.502 122.978 216.573 123.291 216.684C123.604 216.791 124.762 216.95 124.918 216.979C125.074 217.012 125.2 216.932 125.45 216.745C125.7 216.557 126.031 216.261 126.342 216.292C126.796 216.339 128.001 215.98 128.33 215.948C128.659 215.916 129.097 215.745 129.206 215.571C129.36 215.329 129.347 215.087 129.284 214.977C129.221 214.867 128.862 214.209 128.799 213.975C128.737 213.741 128.518 211.096 128.518 210.313C128.518 209.532 128.565 208.092 128.893 207.811C129.279 207.479 129.533 207.114 129.957 207.309C130.364 207.497 130.787 207.512 131.037 207.512C131.133 207.512 131.287 207.496 131.429 207.293C131.57 207.09 132.305 205.963 132.649 205.775C132.993 205.587 133.197 205.587 133.228 205.32C133.259 205.054 133.291 205.039 133.166 204.836C133.166 204.836 132.211 203.881 131.679 203.709C131.147 203.537 130.506 203.553 129.848 203.303C129.19 203.053 128.565 202.66 128.533 202.285C128.508 201.984 128.612 199.922 128.658 199.577C128.704 199.232 129.284 198.639 129.707 198.513C130.013 198.422 130.286 198.294 130.677 198.372C131.068 198.45 132.064 198.741 132.305 199.092C132.501 199.379 137.634 202.904 139.436 204.239C140.729 205.2 145.784 208.8 146.822 209.456C147.078 209.618 147.39 209.64 147.641 209.499C147.641 209.499 148.079 209.171 148.533 209.435C148.987 209.703 149.331 209.828 150.098 209.828C150.865 209.828 151.389 209.848 151.616 209.453C151.976 208.826 151.814 207.844 151.428 207.527C149.868 206.244 146.232 204.351 145.732 204.086C145.231 203.818 143.119 202.973 142.633 202.707C142.148 202.441 140.223 201.314 139.894 201.143C139.565 200.971 137.954 200.299 137.093 199.672C136.566 199.289 133.4 197.841 133.055 197.653C132.71 197.465 131.662 196.527 131.303 196.401C130.943 196.276 130.677 196.37 130.332 195.994C130.152 195.798 129.824 195.723 129.66 195.603C129.488 195.478 129.393 195.353 129.425 195.008C129.456 194.664 129.581 194.32 129.581 193.881C129.581 193.443 129.565 193.286 129.8 193.271C130.035 193.256 130.567 193.13 130.943 193.083C131.319 193.036 131.819 193.13 132.148 193.13C132.633 193.13 133.044 192.822 133.4 192.88C133.885 192.958 133.869 193.303 134.12 193.459C134.37 193.615 135.618 194.309 137.015 194.194C138.549 194.069 139.206 193.709 140.036 192.989C140.302 192.957 140.224 192.175 139.833 191.862C139.608 191.682 137.837 190.579 136.64 190.406C134.574 190.109 132.806 189.624 132.431 189.592C131.914 189.55 131.288 189.686 130.788 189.499C130.688 189.461 130.308 189.244 130.021 189.123C129.783 189.023 129.643 189.027 129.474 188.92C129.179 188.732 129.375 188.747 129.098 188.56C128.763 188.334 128.556 188.253 128.473 188.153C128.223 187.856 128.019 187.558 127.675 186.823C127.322 186.07 127.456 185.477 127.268 185.117C127.08 184.757 126.83 184.538 126.439 184.429C126.047 184.319 125.215 184.158 124.984 184.1C124.608 184.006 123.81 183.584 123.215 183.6C122.677 183.614 121.543 184.344 121.071 184.633C120.508 184.977 120.023 185.165 120.023 185.541C120.023 185.86 120.039 186.667 120.211 187.09C120.383 187.512 120.493 188.311 120.43 188.608C120.367 188.905 119.992 189.563 120.039 190.047C120.039 190.047 120.242 190.986 120.008 191.19C120.008 191.19 119.241 191.878 118.083 192.082C116.925 192.285 115.876 192.504 115.047 192.411C114.217 192.317 113.404 192.067 112.465 192.145C111.526 192.223 109.961 192.63 109.366 192.552C108.771 192.474 108.02 192.286 107.739 192.208C107.457 192.129 107.191 192.365 107.176 192.412C107.161 192.459 107.097 192.844 107.129 193.069C107.176 193.397 107.536 194.133 108.005 194.571C108.005 194.571 109.304 195.885 110.384 196.12C110.384 196.12 111.777 196.464 113.154 196.261C114.531 196.058 116.004 195.623 116.252 195.541C116.667 195.405 118.282 195.406 118.469 195.562C118.657 195.719 118.704 195.849 118.719 195.959C118.735 196.068 118.849 196.136 119.022 196.199C119.194 196.261 119.491 196.34 119.46 196.59C119.429 196.841 119.345 197.086 119.053 197.399L113.994 202.334Z" fill="white"/>
</g>
<defs>
<clipPath id="clip0_4677_1043">
<rect width="294.057" height="34.997" fill="white" transform="translate(53 183)"/>
</clipPath>
</defs>
</svg>
