<svg width="400" height="400" viewBox="0 0 400 400" fill="none" xmlns="http://www.w3.org/2000/svg">
<rect width="400" height="400" fill="#008FBE"/>
<g clip-path="url(#clip0_4574_2060)">
<path fill-rule="evenodd" clip-rule="evenodd" d="M337.94 276.697C337.681 277.73 337.034 278.505 336.258 278.893L335.87 279.022C335.74 279.022 335.74 279.022 335.611 279.022C335.482 279.022 335.482 278.893 335.352 278.893L335.093 278.376C335.093 278.247 335.093 278.247 335.093 278.118C335.093 277.989 335.223 277.989 335.223 277.86L335.482 277.73C335.74 277.601 335.999 277.343 336.258 277.085C336.387 276.827 336.517 276.568 336.646 276.181L336.776 275.794H336.258C335.999 275.794 335.87 275.664 335.87 275.406L333.8 268.046C333.8 267.917 333.8 267.788 333.8 267.788C333.929 267.788 333.929 267.659 334.058 267.659H334.964C335.223 267.659 335.352 267.788 335.352 268.046L336.776 274.115L336.905 274.632C336.905 274.89 336.905 274.89 336.905 275.019C336.905 275.019 336.905 275.019 336.905 274.89C336.905 274.761 336.905 274.761 336.905 274.632C336.905 274.502 336.905 274.373 337.034 274.244C337.034 274.115 337.034 273.986 337.164 273.857L338.587 268.046C338.587 267.788 338.846 267.659 338.975 267.659H339.881C340.01 267.659 340.01 267.659 340.14 267.788C340.14 267.917 340.269 267.917 340.14 268.046L337.94 276.697ZM331.082 270.5C331.082 270.112 331.082 269.854 330.953 269.596C330.824 269.338 330.824 269.208 330.694 269.079C330.565 268.95 330.435 268.821 330.177 268.821C330.047 268.821 329.788 268.821 329.53 268.821C329.271 268.821 329.142 268.821 328.883 268.821C328.753 268.821 328.495 268.95 328.365 269.079C328.236 269.208 328.106 269.338 328.106 269.596C327.977 269.854 327.977 270.112 327.977 270.5C327.977 270.887 327.977 271.145 328.106 271.404C328.236 271.662 328.236 271.791 328.365 271.92C328.495 272.049 328.624 272.178 328.883 272.178C329.012 272.178 329.271 272.307 329.53 272.307C329.788 272.307 329.918 272.307 330.047 272.178C330.177 272.178 330.435 272.049 330.565 271.92C330.694 271.791 330.824 271.662 330.824 271.404C331.082 271.145 331.082 270.758 331.082 270.5ZM333.282 268.434C333.282 268.692 333.153 268.821 333.023 268.821L332.117 268.95C332.247 269.208 332.506 269.467 332.506 269.725C332.635 269.983 332.635 270.241 332.635 270.629C332.635 271.533 332.376 272.307 331.859 272.824C331.341 273.34 330.565 273.599 329.659 273.599C329.4 273.599 329.012 273.599 328.753 273.469C328.753 273.469 328.624 273.599 328.495 273.728C328.495 273.857 328.365 273.857 328.365 273.986C328.365 274.115 328.365 274.244 328.495 274.373C328.624 274.373 328.883 274.502 329.142 274.502H330.565C331.341 274.502 331.988 274.632 332.376 275.019C332.764 275.406 333.023 275.923 333.023 276.697C333.023 277.214 332.894 277.601 332.764 277.989C332.635 278.376 332.376 278.634 331.988 278.763C331.729 279.022 331.341 279.151 330.953 279.151C330.565 279.28 330.177 279.28 329.659 279.28C329.271 279.28 328.883 279.28 328.495 279.151C328.106 279.022 327.718 279.022 327.459 278.763C327.201 278.634 326.942 278.376 326.683 277.989C326.554 277.73 326.424 277.343 326.424 276.827C326.424 276.697 326.424 276.568 326.554 276.568C326.683 276.439 326.683 276.439 326.812 276.439H327.718C327.977 276.439 328.106 276.568 328.106 276.827C328.106 277.085 328.236 277.214 328.365 277.343C328.495 277.472 328.624 277.601 328.753 277.601C328.883 277.73 329.142 277.73 329.271 277.73C329.4 277.73 329.659 277.73 329.788 277.73C330.306 277.73 330.694 277.601 331.082 277.472C331.471 277.343 331.6 276.956 331.6 276.568C331.6 276.181 331.471 275.923 331.341 275.794C331.212 275.664 330.824 275.535 330.306 275.535H328.624C328.365 275.535 328.106 275.535 327.977 275.535C327.718 275.535 327.589 275.406 327.33 275.277C327.201 275.148 327.071 275.019 326.942 274.89C326.812 274.761 326.812 274.502 326.812 274.244C326.812 273.986 326.942 273.728 327.071 273.469C327.201 273.211 327.33 273.082 327.589 272.824C327.201 272.566 326.942 272.307 326.683 271.791C326.424 271.403 326.295 270.887 326.295 270.371C326.295 269.854 326.295 269.467 326.554 269.079C326.683 268.692 326.942 268.434 327.201 268.175C327.459 267.917 327.848 267.788 328.106 267.659C328.495 267.53 328.883 267.401 329.4 267.401C329.659 267.401 329.788 267.401 330.047 267.401C330.177 267.401 330.435 267.401 330.565 267.401H332.764C333.023 267.401 333.153 267.53 333.153 267.788V268.434H333.282ZM323.448 271.662C323.448 270.629 323.319 269.983 322.931 269.467C322.672 269.079 322.154 268.821 321.637 268.821C321.119 268.821 320.731 269.079 320.343 269.467C320.084 269.983 319.825 270.629 319.825 271.662C319.825 272.695 319.955 273.469 320.343 273.857C320.602 274.373 321.119 274.502 321.637 274.502C322.154 274.502 322.543 274.244 322.931 273.857C323.319 273.469 323.448 272.695 323.448 271.662ZM325.001 271.662C325.001 272.953 324.742 273.986 324.095 274.761C323.448 275.535 322.672 275.794 321.637 275.794C320.602 275.794 319.825 275.406 319.178 274.761C318.532 273.986 318.273 272.953 318.273 271.662C318.273 270.371 318.532 269.338 319.178 268.563C319.696 267.788 320.602 267.53 321.637 267.53C322.672 267.53 323.448 267.917 324.095 268.563C324.742 269.338 325.001 270.371 325.001 271.662ZM316.461 275.406C316.461 275.535 316.461 275.535 316.332 275.664C316.203 275.664 316.203 275.794 316.073 275.794H315.297C315.167 275.794 315.167 275.794 315.038 275.664C314.909 275.535 314.909 275.535 314.909 275.406V264.173C314.909 264.044 314.909 264.044 315.038 263.914C315.167 263.785 315.167 263.785 315.297 263.785H316.073C316.203 263.785 316.203 263.785 316.332 263.914C316.332 263.914 316.461 264.044 316.461 264.173V275.406ZM311.415 271.662C311.415 270.629 311.286 269.983 310.898 269.467C310.639 269.079 310.121 268.821 309.604 268.821C309.086 268.821 308.698 269.079 308.31 269.467C308.051 269.983 307.792 270.629 307.792 271.662C307.792 272.695 307.922 273.469 308.31 273.857C308.569 274.373 309.086 274.502 309.604 274.502C310.121 274.502 310.509 274.244 310.898 273.857C311.286 273.469 311.415 272.695 311.415 271.662ZM312.968 271.662C312.968 272.953 312.709 273.986 312.062 274.761C311.415 275.535 310.639 275.794 309.604 275.794C308.569 275.794 307.792 275.406 307.145 274.761C306.498 273.986 306.239 272.953 306.239 271.662C306.239 270.371 306.498 269.338 307.145 268.563C307.663 267.788 308.569 267.53 309.604 267.53C310.639 267.53 311.415 267.917 312.062 268.563C312.709 269.338 312.968 270.371 312.968 271.662ZM304.428 275.406C304.428 275.535 304.428 275.535 304.299 275.664C304.169 275.664 304.169 275.794 304.04 275.794H303.264C303.134 275.794 303.134 275.794 303.005 275.664C302.875 275.535 302.875 275.535 302.875 275.406V269.983C302.875 269.596 302.875 269.338 302.617 269.079C302.487 268.95 302.228 268.821 301.84 268.821C301.581 268.821 301.323 268.821 301.193 268.95C300.935 269.079 300.805 269.208 300.676 269.338C300.546 269.467 300.417 269.725 300.288 269.983C300.158 270.241 300.158 270.5 300.158 270.758V275.406C300.158 275.535 300.158 275.535 300.029 275.664C299.899 275.664 299.899 275.794 299.77 275.794H298.994C298.864 275.794 298.864 275.794 298.735 275.664C298.605 275.535 298.605 275.535 298.605 275.406V268.046C298.605 267.917 298.605 267.788 298.735 267.788C298.864 267.788 298.864 267.659 298.994 267.659H299.511C299.77 267.659 299.899 267.788 299.899 267.917L300.029 268.692C300.417 268.305 300.805 268.046 301.193 267.788C301.581 267.659 301.97 267.53 302.358 267.53C303.005 267.53 303.522 267.659 303.91 268.046C304.299 268.434 304.428 268.95 304.428 269.596V275.406ZM296.147 275.406C296.147 275.535 296.147 275.535 296.018 275.664C295.888 275.664 295.888 275.794 295.759 275.794H294.983C294.853 275.794 294.853 275.794 294.724 275.664C294.594 275.535 294.594 275.535 294.594 275.406V269.983C294.594 269.596 294.465 269.338 294.336 269.079C294.206 268.95 293.947 268.821 293.559 268.821C293.3 268.821 293.042 268.821 292.912 268.95C292.654 269.079 292.524 269.208 292.395 269.338C292.265 269.467 292.136 269.725 292.007 269.983C291.877 270.241 291.877 270.5 291.877 270.758V275.406C291.877 275.535 291.877 275.535 291.748 275.664C291.618 275.664 291.618 275.794 291.489 275.794H290.713C290.583 275.794 290.583 275.794 290.454 275.664C290.325 275.535 290.325 275.535 290.325 275.406V264.173C290.325 264.044 290.325 263.914 290.454 263.914C290.583 263.914 290.583 263.785 290.713 263.785H291.489C291.618 263.785 291.618 263.785 291.748 263.914C291.748 264.044 291.877 264.044 291.877 264.173V268.563C292.524 267.788 293.3 267.53 294.077 267.53C294.724 267.53 295.241 267.659 295.63 268.046C296.018 268.434 296.147 268.95 296.147 269.596V275.406ZM288.642 275.148C288.642 275.406 288.642 275.535 288.384 275.535C288.254 275.535 287.995 275.664 287.737 275.664C287.478 275.664 287.09 275.794 286.702 275.794C285.666 275.794 284.89 275.406 284.243 274.761C283.596 274.115 283.337 272.953 283.337 271.662C283.337 271.016 283.467 270.5 283.596 269.983C283.726 269.467 283.984 269.079 284.243 268.692C284.502 268.305 284.89 268.046 285.278 267.788C285.666 267.53 286.184 267.53 286.702 267.53C286.96 267.53 287.219 267.53 287.478 267.659C287.737 267.659 287.995 267.788 288.125 267.917C288.384 268.046 288.513 268.175 288.384 268.305L288.125 268.95C288.125 269.079 287.995 269.079 287.995 269.208C287.995 269.208 287.866 269.208 287.737 269.208C287.607 269.208 287.478 269.079 287.219 269.079C287.09 269.079 286.831 269.079 286.572 269.079C286.055 269.079 285.666 269.338 285.278 269.854C285.02 270.371 284.761 271.016 284.761 271.92C284.761 272.824 284.89 273.599 285.278 274.115C285.537 274.632 286.055 274.761 286.702 274.761C286.96 274.761 287.09 274.761 287.349 274.761C287.607 274.761 287.737 274.632 287.866 274.632C287.995 274.632 288.125 274.632 288.125 274.632C288.254 274.632 288.254 274.761 288.254 274.89L288.642 275.148ZM280.361 271.016C280.361 270.758 280.361 270.5 280.232 270.241C280.232 269.983 280.103 269.725 279.973 269.596C279.844 269.338 279.715 269.208 279.585 269.079C279.456 268.95 279.197 268.95 278.938 268.95C278.809 268.95 278.55 268.95 278.421 269.079C278.291 269.208 278.162 269.208 277.903 269.467C277.774 269.596 277.644 269.854 277.515 270.112C277.386 270.371 277.386 270.758 277.256 271.274H280.361V271.016ZM281.914 271.791C281.914 271.92 281.914 271.92 281.785 272.049C281.785 272.178 281.655 272.178 281.526 272.178H277.386C277.386 272.953 277.644 273.599 277.903 273.986C278.162 274.373 278.679 274.632 279.456 274.632C279.844 274.632 280.232 274.632 280.491 274.502C280.75 274.373 281.008 274.373 281.138 274.373C281.267 274.373 281.397 274.373 281.397 274.373C281.526 274.373 281.526 274.502 281.526 274.632L281.785 275.148C281.914 275.406 281.785 275.535 281.526 275.664C281.397 275.664 281.138 275.794 280.879 275.923C280.491 276.052 280.103 276.052 279.456 276.052C278.291 276.052 277.386 275.664 276.868 275.019C276.221 274.373 275.962 273.34 275.962 271.92C275.962 270.629 276.221 269.596 276.868 268.95C277.386 268.175 278.162 267.917 279.197 267.917C279.585 267.917 279.973 267.917 280.361 268.175C280.75 268.305 281.008 268.563 281.267 268.821C281.526 269.079 281.785 269.596 281.914 270.112C281.914 270.241 281.914 270.887 281.914 271.791ZM276.221 265.464C276.221 265.593 276.221 265.722 276.092 265.722C275.962 265.722 275.962 265.851 275.833 265.851H273.374V275.406C273.374 275.535 273.374 275.535 273.245 275.664C273.116 275.794 273.116 275.794 272.986 275.794H272.21C272.081 275.794 272.081 275.794 271.951 275.664C271.822 275.664 271.822 275.535 271.822 275.406V265.851H269.363C269.234 265.851 269.105 265.851 269.105 265.722C268.975 265.593 268.975 265.593 268.975 265.464V264.818C268.975 264.689 268.975 264.56 269.105 264.56C269.234 264.56 269.234 264.431 269.363 264.431H275.962C276.092 264.431 276.092 264.431 276.221 264.56C276.35 264.689 276.35 264.689 276.35 264.818V265.464H276.221ZM265.223 265.077C265.223 265.206 265.093 265.206 265.093 265.206C264.964 265.206 264.964 265.206 264.835 265.206C264.705 265.206 264.705 265.206 264.576 265.077C264.447 264.947 264.317 264.947 264.188 264.947C263.929 264.947 263.8 265.077 263.67 265.206C263.541 265.335 263.541 265.593 263.541 265.851V267.53H264.447C264.576 267.53 264.576 267.53 264.705 267.659C264.705 267.788 264.835 267.788 264.835 267.917V268.434C264.835 268.563 264.835 268.563 264.705 268.692C264.576 268.821 264.576 268.821 264.447 268.821H263.541V275.406C263.541 275.535 263.541 275.535 263.411 275.664C263.282 275.664 263.282 275.794 263.153 275.794H262.247C262.117 275.794 262.117 275.794 261.988 275.664C261.859 275.535 261.859 275.535 261.859 275.406V268.821H261.082C260.953 268.821 260.824 268.821 260.824 268.692C260.694 268.563 260.694 268.563 260.694 268.434V267.917C260.694 267.788 260.694 267.788 260.824 267.659C260.824 267.659 260.953 267.53 261.082 267.53H261.859V265.851C261.859 265.077 262.117 264.56 262.506 264.173C262.894 263.785 263.411 263.656 263.929 263.656C264.188 263.656 264.576 263.656 264.705 263.785C264.964 263.785 265.093 263.914 265.223 263.914C265.352 264.044 265.482 264.173 265.352 264.431L265.223 265.077ZM258.236 271.662C258.236 270.629 258.106 269.983 257.718 269.467C257.459 269.079 256.942 268.821 256.424 268.821C255.907 268.821 255.519 269.079 255.13 269.467C254.872 269.983 254.613 270.629 254.613 271.662C254.613 272.695 254.742 273.469 255.13 273.857C255.389 274.373 255.907 274.502 256.424 274.502C256.942 274.502 257.33 274.244 257.718 273.857C258.106 273.469 258.236 272.695 258.236 271.662ZM259.788 271.662C259.788 272.953 259.53 273.986 258.883 274.761C258.236 275.535 257.459 275.794 256.424 275.794C255.389 275.794 254.613 275.406 253.966 274.761C253.319 273.986 253.06 272.953 253.06 271.662C253.06 270.371 253.319 269.338 253.966 268.563C254.483 267.788 255.389 267.53 256.424 267.53C257.459 267.53 258.236 267.917 258.883 268.563C259.53 269.338 259.788 270.371 259.788 271.662ZM246.203 271.016C246.203 270.758 246.203 270.5 246.073 270.241C246.073 269.983 245.944 269.725 245.814 269.596C245.685 269.338 245.556 269.208 245.426 269.079C245.297 268.95 245.038 268.95 244.779 268.95C244.65 268.95 244.391 268.95 244.262 269.079C244.132 269.208 244.003 269.208 243.744 269.467C243.615 269.596 243.485 269.854 243.356 270.112C243.227 270.371 243.227 270.758 243.097 271.274H246.203V271.016ZM247.755 271.791C247.755 271.92 247.755 271.92 247.626 272.049C247.626 272.178 247.496 272.178 247.367 272.178H243.227C243.227 272.953 243.485 273.599 243.744 273.986C244.003 274.373 244.52 274.632 245.297 274.632C245.685 274.632 246.073 274.632 246.332 274.502C246.591 274.373 246.849 274.373 246.979 274.373C247.108 274.373 247.238 274.373 247.238 274.373C247.367 274.373 247.367 274.502 247.367 274.632L247.626 275.148C247.755 275.406 247.626 275.535 247.367 275.664C247.238 275.664 246.979 275.794 246.72 275.923C246.332 276.052 245.944 276.052 245.297 276.052C244.132 276.052 243.227 275.664 242.709 275.019C242.062 274.373 241.803 273.34 241.803 271.92C241.803 270.629 242.062 269.596 242.709 268.95C243.227 268.175 244.003 267.917 245.038 267.917C245.426 267.917 245.814 267.917 246.203 268.175C246.591 268.305 246.849 268.563 247.108 268.821C247.367 269.079 247.626 269.596 247.755 270.112C247.626 270.241 247.755 270.887 247.755 271.791ZM240.639 275.277C240.639 275.406 240.639 275.406 240.639 275.535C240.639 275.664 240.509 275.664 240.38 275.664C240.251 275.664 240.121 275.794 239.862 275.794C239.604 275.794 239.474 275.794 239.215 275.794C238.18 275.794 237.533 275.277 237.533 274.115V268.821H236.757C236.628 268.821 236.498 268.821 236.498 268.692C236.498 268.563 236.369 268.563 236.369 268.434V267.917C236.369 267.788 236.369 267.788 236.498 267.659C236.498 267.659 236.628 267.53 236.757 267.53H237.533V265.851C237.533 265.593 237.663 265.464 237.792 265.464L238.568 265.206C238.698 265.206 238.827 265.206 238.827 265.206C238.957 265.206 238.957 265.335 238.957 265.464V267.659H239.862C239.992 267.659 239.992 267.659 240.121 267.788C240.121 267.917 240.251 267.917 240.251 268.046V268.563C240.251 268.692 240.251 268.692 240.121 268.821C239.992 268.95 239.992 268.95 239.862 268.95H238.957V273.986C238.957 274.244 238.957 274.373 239.086 274.502C239.215 274.632 239.345 274.632 239.474 274.632C239.604 274.632 239.604 274.632 239.733 274.632C239.862 274.632 239.992 274.632 239.992 274.632C240.121 274.632 240.121 274.632 240.251 274.632C240.38 274.632 240.38 274.761 240.38 274.89L240.639 275.277ZM235.075 275.406C235.075 275.535 235.075 275.535 234.946 275.664C234.816 275.664 234.816 275.794 234.687 275.794H234.169C233.91 275.794 233.91 275.664 233.781 275.535L233.522 274.761L233.134 275.148C233.005 275.277 232.875 275.406 232.617 275.535C232.487 275.664 232.228 275.794 231.97 275.794C231.711 275.923 231.452 275.923 231.064 275.923C230.417 275.923 229.899 275.794 229.511 275.406C229.123 275.019 228.994 274.502 228.994 273.857V268.175C228.994 268.046 228.994 267.917 229.123 267.917C229.252 267.917 229.252 267.788 229.382 267.788H230.158C230.288 267.788 230.288 267.788 230.417 267.917C230.546 268.046 230.546 268.046 230.546 268.175V273.728C230.546 274.115 230.676 274.373 230.805 274.502C230.934 274.632 231.193 274.761 231.452 274.761C231.97 274.761 232.487 274.502 232.875 274.115C233.264 273.728 233.393 273.082 233.393 272.307V268.175C233.393 268.046 233.393 267.917 233.522 267.917C233.652 267.917 233.652 267.788 233.781 267.788H234.557C234.687 267.788 234.687 267.788 234.816 267.917C234.946 268.046 234.946 268.046 234.946 268.175V275.406H235.075ZM227.7 275.277C227.7 275.406 227.7 275.406 227.7 275.535C227.7 275.664 227.57 275.664 227.441 275.664C227.312 275.664 227.182 275.794 226.923 275.794C226.665 275.794 226.535 275.794 226.276 275.794C225.241 275.794 224.594 275.277 224.594 274.115V268.821H223.818C223.689 268.821 223.559 268.821 223.559 268.692C223.559 268.563 223.43 268.563 223.43 268.434V267.917C223.43 267.788 223.43 267.788 223.559 267.659C223.559 267.659 223.689 267.53 223.818 267.53H224.594V265.851C224.594 265.593 224.724 265.464 224.853 265.464L225.63 265.206C225.759 265.206 225.888 265.206 225.888 265.206C226.018 265.206 226.018 265.335 226.018 265.464V267.659H226.923C227.053 267.659 227.053 267.659 227.182 267.788C227.312 267.917 227.312 267.917 227.312 268.046V268.563C227.312 268.692 227.312 268.692 227.182 268.821C227.182 268.95 227.053 268.95 226.923 268.95H226.018V273.986C226.018 274.244 226.018 274.373 226.147 274.502C226.276 274.632 226.406 274.632 226.535 274.632C226.535 274.632 226.665 274.632 226.794 274.632C226.923 274.632 227.053 274.632 227.053 274.632C227.182 274.632 227.182 274.632 227.312 274.632C227.312 274.632 227.441 274.761 227.441 274.89L227.7 275.277ZM222.136 275.406C222.136 275.535 222.136 275.535 222.007 275.664C221.877 275.664 221.877 275.794 221.748 275.794H220.971C220.842 275.794 220.842 275.794 220.713 275.664C220.583 275.535 220.583 275.535 220.583 275.406V268.046C220.583 267.917 220.583 267.917 220.713 267.788C220.842 267.788 220.842 267.659 220.971 267.659H221.748C221.877 267.659 221.877 267.659 222.007 267.788C222.007 267.917 222.136 267.917 222.136 268.046V275.406ZM222.395 264.818C222.395 265.077 222.265 265.335 222.136 265.593C221.877 265.851 221.618 265.851 221.36 265.851C221.101 265.851 220.842 265.722 220.583 265.593C220.325 265.335 220.325 265.206 220.325 264.818C220.325 264.56 220.454 264.302 220.583 264.044C220.713 263.785 220.971 263.785 221.36 263.785C221.618 263.785 221.877 263.914 222.136 264.044C222.265 264.302 222.395 264.56 222.395 264.818ZM219.16 275.277C219.16 275.406 219.16 275.406 219.16 275.535C219.16 275.664 219.031 275.664 218.901 275.664C218.772 275.664 218.642 275.794 218.384 275.794C218.125 275.794 217.995 275.794 217.737 275.794C216.702 275.794 216.055 275.277 216.055 274.115V268.821H215.278C215.149 268.821 215.02 268.821 215.02 268.692C214.89 268.563 214.89 268.563 214.89 268.434V267.917C214.89 267.788 214.89 267.788 215.02 267.659C215.02 267.659 215.149 267.53 215.278 267.53H216.055V265.851C216.055 265.593 216.184 265.464 216.313 265.464L217.09 265.206C217.219 265.206 217.349 265.206 217.349 265.206C217.478 265.206 217.478 265.335 217.478 265.464V267.659H218.384C218.513 267.659 218.513 267.659 218.642 267.788C218.772 267.917 218.772 267.917 218.772 268.046V268.563C218.772 268.692 218.772 268.692 218.642 268.821C218.642 268.95 218.513 268.95 218.384 268.95H217.478V273.986C217.478 274.244 217.478 274.373 217.607 274.502C217.737 274.632 217.866 274.632 217.995 274.632C218.125 274.632 218.125 274.632 218.254 274.632C218.384 274.632 218.513 274.632 218.513 274.632C218.642 274.632 218.642 274.632 218.772 274.632C218.772 274.632 218.901 274.761 218.901 274.89L219.16 275.277ZM214.373 273.469C214.373 274.115 214.114 274.761 213.726 275.148C213.208 275.664 212.561 275.794 211.785 275.794C211.267 275.794 210.879 275.794 210.491 275.664C210.103 275.535 209.715 275.406 209.585 275.406C209.326 275.277 209.326 275.148 209.326 274.89L209.456 274.244C209.456 274.115 209.585 273.986 209.585 273.986C209.585 273.986 209.715 273.986 209.844 273.986C210.103 274.115 210.361 274.244 210.75 274.244C211.008 274.373 211.397 274.373 211.785 274.373C212.561 274.373 212.949 274.115 212.949 273.469C212.949 273.34 212.949 273.082 212.82 272.953C212.691 272.824 212.69 272.695 212.561 272.566C212.432 272.436 212.302 272.307 212.173 272.307L211.655 272.049C211.397 271.92 211.138 271.791 211.008 271.662C210.75 271.533 210.491 271.404 210.361 271.145C210.103 271.016 209.973 270.758 209.844 270.5C209.715 270.241 209.715 269.983 209.715 269.596C209.715 268.821 209.973 268.305 210.361 267.917C210.879 267.53 211.526 267.272 212.302 267.272C212.691 267.272 213.079 267.272 213.337 267.401C213.596 267.401 213.855 267.53 214.114 267.659C214.243 267.659 214.243 267.788 214.373 267.788C214.373 267.917 214.373 267.917 214.373 268.046L214.243 268.563C214.114 268.821 213.984 268.821 213.726 268.821C213.596 268.692 213.337 268.692 213.079 268.563C212.82 268.434 212.561 268.434 212.302 268.434C211.914 268.434 211.655 268.563 211.526 268.692C211.397 268.821 211.267 269.079 211.267 269.338C211.267 269.467 211.267 269.596 211.397 269.725C211.526 269.854 211.526 269.983 211.655 269.983C211.785 270.112 211.914 270.112 212.044 270.241L212.561 270.5L213.337 270.887C213.596 271.016 213.855 271.145 213.984 271.404C214.114 271.662 214.373 271.791 214.502 272.049C214.243 272.824 214.373 273.082 214.373 273.469ZM207.385 275.406C207.385 275.535 207.386 275.535 207.256 275.664C207.127 275.664 207.127 275.794 206.997 275.794H206.221C206.092 275.794 206.092 275.794 205.962 275.664C205.833 275.535 205.833 275.535 205.833 275.406V269.983C205.833 269.596 205.703 269.338 205.574 269.079C205.445 268.95 205.186 268.821 204.798 268.821C204.539 268.821 204.28 268.821 204.021 268.95C203.763 269.079 203.633 269.208 203.504 269.338C203.374 269.467 203.245 269.725 203.116 269.983C202.986 270.241 202.986 270.5 202.986 270.758V275.406C202.986 275.535 202.986 275.535 202.857 275.664C202.727 275.664 202.727 275.794 202.598 275.794H201.822C201.692 275.794 201.692 275.794 201.563 275.664C201.434 275.535 201.434 275.535 201.434 275.406V268.046C201.434 267.917 201.434 267.788 201.563 267.788C201.692 267.788 201.692 267.659 201.822 267.659H202.339C202.598 267.659 202.727 267.788 202.727 267.917L202.857 268.692C203.245 268.305 203.633 268.046 204.021 267.788C204.41 267.659 204.798 267.53 205.186 267.53C205.833 267.53 206.35 267.659 206.739 268.046C207.127 268.434 207.256 268.95 207.256 269.596V275.406H207.385ZM198.975 275.406C198.975 275.535 198.975 275.535 198.846 275.664C198.716 275.794 198.716 275.794 198.587 275.794H197.681C197.552 275.794 197.552 275.794 197.422 275.664C197.293 275.664 197.293 275.535 197.293 275.406V264.818C197.293 264.689 197.293 264.56 197.422 264.56C197.552 264.56 197.552 264.431 197.681 264.431H198.587C198.716 264.431 198.716 264.431 198.846 264.56C198.975 264.689 198.975 264.689 198.975 264.818V275.406ZM190.824 275.406C190.824 275.535 190.824 275.535 190.694 275.664C190.565 275.664 190.565 275.794 190.435 275.794H189.659C189.53 275.794 189.53 275.794 189.4 275.664C189.271 275.535 189.271 275.535 189.271 275.406V269.983C189.271 269.596 189.142 269.338 189.012 269.079C188.883 268.95 188.624 268.821 188.236 268.821C187.977 268.821 187.718 268.821 187.589 268.95C187.33 269.079 187.201 269.208 187.071 269.338C186.942 269.467 186.812 269.725 186.683 269.983C186.554 270.241 186.554 270.5 186.554 270.758V275.406C186.554 275.535 186.554 275.535 186.424 275.664C186.295 275.664 186.295 275.794 186.166 275.794H185.389C185.26 275.794 185.26 275.794 185.13 275.664C185.001 275.535 185.001 275.535 185.001 275.406V264.173C185.001 264.044 185.001 263.914 185.13 263.914C185.26 263.914 185.26 263.785 185.389 263.785H186.166C186.295 263.785 186.295 263.785 186.424 263.914C186.424 264.044 186.554 264.044 186.554 264.173V268.563C187.201 267.788 187.977 267.53 188.753 267.53C189.4 267.53 189.918 267.659 190.306 268.046C190.694 268.434 190.824 268.95 190.824 269.596V275.406ZM180.99 270.5C180.99 270.112 180.99 269.854 180.861 269.596C180.731 269.338 180.731 269.208 180.602 269.079C180.472 268.95 180.343 268.821 180.084 268.821C179.825 268.821 179.696 268.821 179.437 268.821C179.178 268.821 179.049 268.821 178.79 268.821C178.661 268.821 178.402 268.95 178.273 269.079C178.143 269.208 178.014 269.338 178.014 269.596C177.885 269.854 177.885 270.112 177.885 270.5C177.885 270.887 177.885 271.145 178.014 271.404C178.143 271.662 178.143 271.791 178.273 271.92C178.402 272.049 178.532 272.178 178.79 272.178C178.92 272.178 179.178 272.307 179.437 272.307C179.696 272.307 179.825 272.307 179.955 272.178C180.084 272.178 180.343 272.049 180.472 271.92C180.602 271.791 180.731 271.662 180.731 271.404C180.861 271.145 180.99 270.758 180.99 270.5ZM183.19 268.434C183.19 268.692 183.06 268.821 182.931 268.821L182.025 268.95C182.154 269.208 182.413 269.467 182.543 269.725C182.672 269.983 182.672 270.241 182.672 270.629C182.672 271.533 182.413 272.307 181.896 272.824C181.378 273.34 180.602 273.599 179.696 273.599C179.437 273.599 179.049 273.599 178.79 273.469C178.79 273.469 178.661 273.599 178.532 273.728C178.532 273.857 178.402 273.857 178.402 273.986C178.402 274.115 178.402 274.244 178.532 274.373C178.661 274.502 178.92 274.502 179.178 274.502H180.602C181.378 274.502 182.025 274.632 182.413 275.019C182.931 275.406 183.06 275.923 183.06 276.697C183.06 277.214 182.931 277.601 182.801 277.989C182.672 278.376 182.413 278.634 182.025 278.763C181.766 279.022 181.378 279.151 180.99 279.151C180.602 279.28 180.214 279.28 179.696 279.28C179.308 279.28 178.92 279.28 178.532 279.151C178.143 279.022 177.755 279.022 177.496 278.763C177.238 278.634 176.979 278.376 176.72 277.989C176.591 277.73 176.461 277.343 176.461 276.827C176.461 276.697 176.461 276.568 176.591 276.568C176.72 276.439 176.72 276.439 176.849 276.439H177.755C178.014 276.439 178.143 276.568 178.143 276.827C178.143 277.085 178.273 277.214 178.402 277.343C178.532 277.472 178.661 277.601 178.79 277.601C178.92 277.73 179.178 277.73 179.308 277.73C179.437 277.73 179.696 277.73 179.825 277.73C180.343 277.73 180.731 277.601 181.119 277.472C181.508 277.343 181.637 276.956 181.637 276.568C181.637 276.181 181.507 275.923 181.378 275.794C181.249 275.664 180.861 275.535 180.343 275.535H178.661C178.402 275.535 178.143 275.535 178.014 275.535C177.755 275.535 177.626 275.406 177.367 275.277C177.238 275.148 177.108 275.019 176.979 274.89C176.849 274.761 176.849 274.502 176.849 274.244C176.849 273.986 176.979 273.728 177.108 273.469C177.238 273.211 177.367 273.082 177.626 272.824C177.238 272.566 176.979 272.307 176.72 271.791C176.461 271.403 176.332 270.887 176.332 270.371C176.332 269.854 176.332 269.467 176.591 269.079C176.72 268.692 176.979 268.434 177.238 268.175C177.496 267.917 177.885 267.788 178.143 267.659C178.532 267.53 178.92 267.401 179.437 267.401C179.696 267.401 179.825 267.401 180.084 267.401C180.214 267.401 180.472 267.401 180.602 267.401H182.801C183.06 267.401 183.19 267.53 183.19 267.788V268.434ZM174.391 275.406C174.391 275.535 174.391 275.535 174.262 275.664C174.132 275.664 174.132 275.794 174.003 275.794H173.485C173.227 275.794 173.227 275.664 173.097 275.535L172.838 274.761L172.45 275.148C172.321 275.277 172.191 275.406 171.933 275.535C171.803 275.664 171.544 275.794 171.286 275.794C171.027 275.923 170.768 275.923 170.38 275.923C169.733 275.923 169.215 275.794 168.827 275.406C168.439 275.019 168.31 274.502 168.31 273.857V268.175C168.31 268.046 168.31 267.917 168.439 267.917C168.568 267.917 168.568 267.788 168.698 267.788H169.474C169.604 267.788 169.604 267.788 169.733 267.917C169.862 268.046 169.862 268.046 169.862 268.175V273.728C169.862 274.115 169.992 274.373 170.121 274.502C170.251 274.632 170.509 274.761 170.768 274.761C171.286 274.761 171.803 274.502 172.191 274.115C172.58 273.728 172.709 273.082 172.709 272.307V268.175C172.709 268.046 172.709 267.917 172.838 267.917C172.968 267.917 172.968 267.788 173.097 267.788H173.873C174.003 267.788 174.003 267.788 174.132 267.917C174.262 268.046 174.262 268.046 174.262 268.175V275.406H174.391ZM164.946 271.662C164.946 270.629 164.816 269.983 164.428 269.467C164.169 269.079 163.652 268.821 163.134 268.821C162.617 268.821 162.228 269.079 161.84 269.467C161.581 269.983 161.323 270.629 161.323 271.662C161.323 272.695 161.452 273.469 161.84 273.857C162.099 274.373 162.617 274.502 163.134 274.502C163.652 274.502 164.04 274.244 164.428 273.857C164.687 273.469 164.946 272.695 164.946 271.662ZM166.498 271.662C166.498 272.953 166.239 273.986 165.593 274.761C164.946 275.535 164.169 275.794 163.134 275.794C162.099 275.794 161.323 275.406 160.676 274.761C160.029 273.986 159.77 272.953 159.77 271.662C159.77 270.371 160.029 269.338 160.676 268.563C161.193 267.788 162.099 267.53 163.134 267.53C164.169 267.53 164.946 267.917 165.593 268.563C166.11 269.338 166.498 270.371 166.498 271.662ZM158.994 268.95C158.864 269.208 158.735 269.338 158.476 269.208C158.347 269.208 158.217 269.079 158.088 269.079C157.959 269.079 157.829 268.95 157.57 268.95C157.441 268.95 157.312 268.95 157.182 269.079C157.053 269.208 156.923 269.338 156.794 269.467C156.665 269.596 156.535 269.854 156.535 270.112C156.535 270.371 156.406 270.758 156.406 271.145V275.406C156.406 275.535 156.406 275.535 156.276 275.664C156.147 275.664 156.147 275.794 156.018 275.794H155.241C155.112 275.794 155.112 275.794 154.983 275.664C154.853 275.535 154.853 275.535 154.853 275.406V268.046C154.853 267.917 154.853 267.788 154.983 267.788C155.112 267.788 155.112 267.659 155.241 267.659H155.759C156.018 267.659 156.147 267.788 156.147 267.917L156.406 268.692C156.665 268.305 156.923 268.046 157.182 267.788C157.441 267.53 157.829 267.53 158.217 267.53C158.476 267.53 158.735 267.53 158.864 267.659C159.123 267.788 159.252 267.917 159.252 268.175L158.994 268.95ZM151.36 271.662C151.36 270.629 151.23 269.983 150.842 269.467C150.583 269.079 150.066 268.821 149.548 268.821C149.031 268.821 148.642 269.079 148.254 269.467C147.995 269.983 147.737 270.629 147.737 271.662C147.737 272.695 147.866 273.469 148.254 273.857C148.513 274.373 149.031 274.502 149.548 274.502C150.066 274.502 150.454 274.244 150.842 273.857C151.23 273.469 151.36 272.695 151.36 271.662ZM152.912 271.662C152.912 272.953 152.654 273.986 152.007 274.761C151.36 275.535 150.583 275.794 149.548 275.794C148.513 275.794 147.737 275.406 147.09 274.761C146.443 273.986 146.184 272.953 146.184 271.662C146.184 270.371 146.443 269.338 147.09 268.563C147.607 267.788 148.513 267.53 149.548 267.53C150.583 267.53 151.36 267.917 152.007 268.563C152.654 269.338 152.912 270.371 152.912 271.662ZM143.208 271.662C143.208 271.404 143.208 271.016 143.208 270.758C143.208 270.371 143.079 270.112 142.949 269.854C142.82 269.596 142.69 269.338 142.432 269.079C142.173 268.95 141.914 268.821 141.655 268.821C141.138 268.821 140.75 269.079 140.491 269.596C140.232 270.112 140.103 270.887 140.103 271.791C140.103 272.824 140.232 273.469 140.491 273.986C140.75 274.373 141.138 274.632 141.655 274.632C142.173 274.632 142.561 274.373 142.82 273.986C143.079 273.469 143.208 272.695 143.208 271.662ZM144.89 271.662C144.89 272.436 144.89 273.082 144.631 273.599C144.502 274.115 144.373 274.502 144.114 274.89C143.855 275.277 143.596 275.406 143.208 275.664C142.82 275.794 142.432 275.923 142.044 275.923C141.526 275.923 141.138 275.794 140.879 275.664C140.62 275.535 140.361 275.148 140.103 274.761L139.973 275.406C139.973 275.664 139.715 275.794 139.456 275.794H139.068C138.938 275.794 138.938 275.794 138.809 275.664C138.679 275.535 138.679 275.535 138.679 275.406V264.173C138.679 264.044 138.679 263.914 138.809 263.914C138.938 263.914 138.938 263.785 139.068 263.785H139.844C139.973 263.785 139.973 263.785 140.103 263.914C140.103 264.044 140.232 264.044 140.232 264.173V268.692C140.491 268.305 140.75 268.046 141.008 267.917C141.267 267.788 141.655 267.659 142.173 267.659C142.69 267.659 143.079 267.788 143.467 268.046C143.855 268.305 144.114 268.563 144.373 268.95C144.631 269.338 144.761 269.725 144.89 270.241C144.761 270.629 144.89 271.145 144.89 271.662ZM136.092 275.406C136.092 275.535 136.092 275.535 135.962 275.664C135.833 275.664 135.833 275.794 135.703 275.794H134.927C134.798 275.794 134.798 275.794 134.668 275.664C134.539 275.535 134.539 275.535 134.539 275.406V264.173C134.539 264.044 134.539 264.044 134.668 263.914C134.798 263.785 134.798 263.785 134.927 263.785H135.703C135.833 263.785 135.833 263.785 135.962 263.914C135.962 263.914 136.092 264.044 136.092 264.173V275.406ZM133.116 268.95C132.986 269.208 132.857 269.338 132.598 269.208C132.469 269.208 132.339 269.079 132.21 269.079C132.081 269.079 131.951 268.95 131.692 268.95C131.563 268.95 131.434 268.95 131.304 269.079C131.175 269.208 131.045 269.338 130.916 269.467C130.787 269.596 130.657 269.854 130.657 270.112C130.528 270.371 130.528 270.758 130.528 271.145V275.406C130.528 275.535 130.528 275.535 130.398 275.664C130.269 275.664 130.269 275.794 130.14 275.794H129.363C129.234 275.794 129.234 275.794 129.105 275.664C128.975 275.535 128.975 275.535 128.975 275.406V268.046C128.975 267.917 128.975 267.788 129.105 267.788C129.234 267.788 129.234 267.659 129.363 267.659H129.881C130.14 267.659 130.269 267.788 130.269 267.917L130.528 268.692C130.787 268.305 131.045 268.046 131.304 267.788C131.563 267.53 131.951 267.53 132.339 267.53C132.598 267.53 132.857 267.53 132.986 267.659C133.245 267.788 133.374 267.917 133.374 268.175L133.116 268.95ZM125.093 271.791H124.058C123.541 271.791 123.153 271.92 122.764 272.178C122.376 272.436 122.247 272.824 122.247 273.469C122.247 273.857 122.376 274.115 122.506 274.373C122.635 274.632 122.894 274.632 123.282 274.632C123.541 274.632 123.8 274.632 124.058 274.502C124.317 274.373 124.446 274.244 124.576 274.115C124.705 273.986 124.835 273.857 124.964 273.599C125.093 273.469 125.093 273.211 125.093 273.082V271.791ZM126.776 275.406C126.776 275.535 126.776 275.664 126.776 275.664C126.776 275.664 126.646 275.794 126.517 275.794H125.74C125.611 275.794 125.611 275.794 125.482 275.664C125.352 275.664 125.352 275.535 125.352 275.406L125.223 274.632C124.964 275.019 124.576 275.277 124.188 275.535C123.8 275.664 123.411 275.794 122.894 275.794C122.247 275.794 121.729 275.535 121.341 275.148C120.953 274.761 120.694 274.115 120.694 273.34C120.694 272.953 120.694 272.566 120.953 272.178C121.082 271.92 121.341 271.662 121.6 271.404C121.859 271.145 122.117 271.016 122.376 270.887C122.635 270.758 123.023 270.758 123.411 270.758L125.223 270.629V270.241C125.223 269.725 125.093 269.467 124.964 269.208C124.835 268.95 124.447 268.821 123.8 268.821C123.411 268.821 123.153 268.821 122.894 268.95C122.635 268.95 122.376 269.079 122.247 269.079C122.117 269.079 121.988 269.079 121.988 269.079C121.859 269.079 121.859 268.95 121.859 268.821L121.729 268.175C121.729 267.917 121.729 267.788 121.988 267.788C122.117 267.788 122.506 267.659 122.894 267.53C123.282 267.401 123.67 267.401 124.058 267.401C124.576 267.401 125.093 267.401 125.482 267.659C125.87 267.788 126.129 268.046 126.387 268.305C126.646 268.563 126.776 268.95 126.905 269.208C127.034 269.596 127.034 269.983 127.034 270.371V273.34C127.034 273.599 127.034 273.728 127.034 273.986C127.034 274.244 127.034 274.373 127.164 274.632L126.776 275.406ZM118.883 275.406C118.883 275.664 118.753 275.664 118.624 275.664H117.589C117.33 275.664 117.201 275.535 117.201 275.406L116.812 267.788C116.812 267.659 116.812 267.401 116.812 267.143V265.464C116.812 265.593 116.812 265.593 116.812 265.851C116.812 265.98 116.683 266.239 116.683 266.497L116.554 267.143C116.554 267.401 116.554 267.53 116.424 267.659L114.742 274.115C114.742 274.373 114.483 274.502 114.354 274.502H113.319C113.06 274.502 112.931 274.373 112.931 274.115L111.249 267.659C111.249 267.53 111.249 267.272 111.119 267.143C111.119 266.884 110.99 266.755 110.99 266.497C110.99 266.239 110.861 266.11 110.861 265.851V265.464V265.722C110.861 265.851 110.861 266.11 110.861 266.368V267.013C110.861 267.272 110.861 267.401 110.861 267.659L110.343 275.277C110.343 275.535 110.214 275.664 109.955 275.664H109.049C108.92 275.664 108.92 275.664 108.79 275.535C108.661 275.535 108.661 275.406 108.661 275.277L109.567 264.818C109.567 264.689 109.567 264.689 109.696 264.56C109.825 264.56 109.825 264.431 109.955 264.431H111.507C111.637 264.431 111.637 264.431 111.766 264.56C111.896 264.56 111.896 264.689 111.896 264.818L113.578 271.662C113.578 271.791 113.578 271.92 113.707 272.178C113.707 272.307 113.707 272.566 113.837 272.695C113.837 272.824 113.837 273.082 113.837 273.211C113.837 273.34 113.837 273.469 113.837 273.599C113.837 273.599 113.837 273.469 113.837 273.211C113.837 273.082 113.837 272.824 113.966 272.695C113.966 272.566 113.966 272.307 114.095 272.178C114.095 272.049 114.095 271.791 114.225 271.662L115.907 264.818C115.907 264.689 116.036 264.689 116.036 264.56C116.166 264.56 116.166 264.431 116.295 264.431H117.718C117.977 264.431 118.106 264.56 118.106 264.818L118.883 275.406ZM102.321 275.406C102.321 275.535 102.321 275.535 102.191 275.664C102.062 275.664 102.062 275.794 101.933 275.794H101.156C101.027 275.794 101.027 275.794 100.898 275.664C100.768 275.535 100.768 275.535 100.768 275.406V269.983C100.768 269.596 100.639 269.338 100.509 269.079C100.38 268.95 100.121 268.821 99.733 268.821C99.4742 268.821 99.2154 268.821 98.9567 268.95C98.6979 269.079 98.5685 269.208 98.4391 269.338C98.3097 269.467 98.1803 269.725 98.0509 269.983C97.9215 270.241 97.9215 270.5 97.9215 270.758V275.406C97.9215 275.535 97.9215 275.535 97.7922 275.664C97.6628 275.664 97.6628 275.794 97.5334 275.794H96.757C96.6276 275.794 96.6276 275.794 96.4983 275.664C96.3689 275.535 96.3689 275.535 96.3689 275.406V268.046C96.3689 267.917 96.3689 267.788 96.4983 267.788C96.6276 267.788 96.6276 267.659 96.757 267.659H97.2746C97.5334 267.659 97.6628 267.788 97.6628 267.917L97.9215 268.692C98.3097 268.305 98.6979 268.046 99.0861 267.788C99.4742 267.659 99.8624 267.53 100.251 267.53C100.898 267.53 101.415 267.659 101.803 268.046C102.191 268.434 102.321 268.95 102.321 269.596V275.406ZM93.0047 271.662C93.0047 270.629 92.8753 269.983 92.4872 269.467C92.2284 269.079 91.7108 268.821 91.1933 268.821C90.6757 268.821 90.2875 269.079 89.8994 269.467C89.6406 269.983 89.3818 270.629 89.3818 271.662C89.3818 272.695 89.5112 273.469 89.8994 273.857C90.1581 274.373 90.6757 274.502 91.1933 274.502C91.7108 274.502 92.099 274.244 92.4872 273.857C92.7459 273.469 93.0047 272.695 93.0047 271.662ZM94.5574 271.662C94.5574 272.953 94.2986 273.986 93.6517 274.761C93.0047 275.535 92.2284 275.794 91.1933 275.794C90.1581 275.794 89.3818 275.406 88.7349 274.761C88.0879 273.986 87.8291 272.953 87.8291 271.662C87.8291 270.371 88.0879 269.338 88.7349 268.563C89.2524 267.788 90.1581 267.53 91.1933 267.53C92.2284 267.53 93.0047 267.917 93.6517 268.563C94.1692 269.338 94.5574 270.371 94.5574 271.662ZM86.5352 273.469C86.5352 274.115 86.2764 274.761 85.8883 275.148C85.5001 275.664 84.7238 275.794 83.9474 275.794C83.4299 275.794 83.0417 275.794 82.6535 275.664C82.2654 275.535 81.8772 275.406 81.7478 275.406C81.489 275.277 81.489 275.148 81.489 274.89L81.6184 274.244C81.6184 274.115 81.7478 273.986 81.7478 273.986C81.7478 273.986 81.8772 273.986 82.0066 273.986C82.2654 274.115 82.5241 274.244 82.9123 274.244C83.1711 274.373 83.5593 274.373 83.9474 274.373C84.7238 274.373 85.1119 274.115 85.1119 273.469C85.1119 273.34 85.1119 273.082 84.9825 272.953C84.8532 272.824 84.8532 272.695 84.7238 272.566C84.5944 272.436 84.465 272.307 84.3356 272.307L83.818 272.049C83.5593 271.92 83.3005 271.791 83.1711 271.662C82.9123 271.533 82.6535 271.404 82.5241 271.145C82.2654 271.016 82.136 270.758 82.0066 270.5C81.8772 270.241 81.8772 269.983 81.8772 269.596C81.8772 268.821 82.136 268.305 82.5241 267.917C83.0417 267.53 83.6886 267.272 84.465 267.272C84.8532 267.272 85.2413 267.272 85.5001 267.401C85.7589 267.401 86.0177 267.53 86.2764 267.659C86.4058 267.659 86.4058 267.788 86.5352 267.788C86.5352 267.917 86.5352 267.917 86.5352 268.046L86.4058 268.563C86.2764 268.821 86.1471 268.821 85.8883 268.821C85.7589 268.692 85.5001 268.692 85.2413 268.563C84.9825 268.434 84.7238 268.434 84.465 268.434C84.0768 268.434 83.818 268.563 83.6886 268.692C83.5593 268.821 83.4299 269.079 83.4299 269.338C83.4299 269.467 83.4299 269.596 83.5593 269.725C83.6886 269.854 83.6886 269.983 83.818 269.983C83.9474 270.112 84.0768 270.112 84.2062 270.241L84.7238 270.5L85.5001 270.887C85.7589 271.016 86.0177 271.145 86.1471 271.404C86.2764 271.662 86.5352 271.791 86.6646 272.049C86.5352 272.824 86.5352 273.082 86.5352 273.469ZM79.5482 275.406C79.5482 275.535 79.5482 275.535 79.4188 275.664C79.2894 275.664 79.2894 275.794 79.16 275.794H78.3836C78.2543 275.794 78.2543 275.794 78.1249 275.664C77.9955 275.535 77.9955 275.535 77.9955 275.406V264.173C77.9955 264.044 77.9955 264.044 78.1249 263.914C78.2543 263.785 78.2543 263.785 78.3836 263.785H79.16C79.2894 263.785 79.2894 263.785 79.4188 263.914C79.5482 263.914 79.5482 264.044 79.5482 264.173V275.406ZM74.5019 271.016C74.5019 270.758 74.502 270.5 74.3726 270.241C74.3726 269.983 74.2432 269.725 74.1138 269.596C73.9844 269.338 73.855 269.208 73.7256 269.079C73.5962 268.95 73.3374 268.95 73.0787 268.95C72.9493 268.95 72.6905 268.95 72.5611 269.079C72.4317 269.208 72.3023 269.208 72.0435 269.467C71.9141 269.596 71.7848 269.854 71.6554 270.112C71.526 270.371 71.526 270.758 71.3966 271.274H74.5019V271.016ZM76.0546 271.791C76.0546 271.92 76.0546 271.92 75.9252 272.049C75.7959 272.178 75.7959 272.178 75.6665 272.178H71.526C71.526 272.953 71.7848 273.599 72.0435 273.986C72.3023 274.373 72.8199 274.632 73.5962 274.632C73.9844 274.632 74.2432 274.632 74.6313 274.502C74.8901 274.373 75.1489 274.373 75.2783 274.373C75.4077 274.373 75.5371 274.373 75.5371 274.373C75.5371 274.373 75.6665 274.502 75.6665 274.632L75.9252 275.148C75.9252 275.406 75.9252 275.535 75.6665 275.664C75.5371 275.664 75.2783 275.794 75.0195 275.923C74.6313 276.052 74.2432 276.052 73.5962 276.052C72.4317 276.052 71.526 275.664 70.879 275.019C70.2321 274.373 69.9733 273.34 69.9733 271.92C69.9733 270.629 70.2321 269.596 70.879 268.95C71.3966 268.175 72.1729 267.917 73.208 267.917C73.5962 267.917 73.9844 267.917 74.3726 268.175C74.7607 268.305 75.0195 268.563 75.2783 268.821C75.5371 269.079 75.7959 269.596 75.9252 270.112C76.0546 270.241 76.0546 270.887 76.0546 271.791ZM67.9031 275.406C67.9031 275.535 67.9031 275.535 67.7737 275.664C67.6443 275.794 67.6443 275.794 67.5149 275.794H66.221C65.9622 275.794 65.8328 275.664 65.8328 275.535L62.4687 268.046C62.4687 267.917 62.3393 267.788 62.2099 267.53C62.0805 267.272 62.0805 267.143 61.9511 266.884C61.9511 266.626 61.8217 266.497 61.8217 266.239C61.8217 266.11 61.6923 265.98 61.6923 265.851V266.239C61.6923 266.497 61.6923 266.626 61.8217 266.884C61.8217 267.143 61.8217 267.401 61.9511 267.659C61.9511 267.917 61.9511 268.175 61.9511 268.305V275.406C61.9511 275.535 61.9511 275.535 61.8217 275.664C61.6923 275.794 61.6923 275.794 61.5629 275.794H60.7866C60.6572 275.794 60.6572 275.794 60.5278 275.664C60.3984 275.664 60.3984 275.535 60.3984 275.406V264.818C60.3984 264.689 60.3984 264.56 60.5278 264.56C60.6572 264.56 60.6572 264.431 60.7866 264.431H62.2099C62.3393 264.431 62.4687 264.431 62.4687 264.431C62.5981 264.431 62.5981 264.56 62.5981 264.689L65.8328 272.178C65.8328 272.307 65.9622 272.566 66.0916 272.824C66.221 273.082 66.221 273.211 66.3504 273.469L66.4798 274.115L66.6092 274.502C66.6092 274.502 66.6092 274.373 66.6092 274.115C66.6092 273.986 66.6092 273.728 66.6092 273.469V272.695C66.6092 272.436 66.6092 272.178 66.6092 271.92V264.818C66.6092 264.689 66.6092 264.689 66.7385 264.56C66.8679 264.56 66.8679 264.431 66.9973 264.431H67.6443C67.7737 264.431 67.7737 264.431 67.9031 264.56C67.9031 264.689 68.0324 264.689 68.0324 264.818V275.406H67.9031Z" fill="white"/>
<path fill-rule="evenodd" clip-rule="evenodd" d="M128.715 282.637C128.585 282.637 128.585 282.637 128.456 282.508C128.456 282.508 128.327 282.379 128.327 282.25V281.604C128.327 281.475 128.327 281.475 128.456 281.346C128.456 281.217 128.585 281.217 128.715 281.217H132.726C132.855 281.217 132.855 281.217 132.985 281.346C132.985 281.346 133.114 281.475 133.114 281.604V282.25C133.114 282.379 133.114 282.379 132.985 282.508C132.985 282.508 132.855 282.637 132.726 282.637H128.715ZM66.2195 281.862C66.2195 281.991 66.2195 281.991 66.0901 282.12C66.0901 282.12 65.9607 282.25 65.8313 282.25H63.7611V290.513C63.7611 290.642 63.7611 290.642 63.6317 290.772C63.6317 290.772 63.5023 290.901 63.3729 290.901H62.726C62.5966 290.901 62.5966 290.901 62.4672 290.772C62.3378 290.772 62.3378 290.642 62.3378 290.513V282.25H60.1382C60.0088 282.25 60.0088 282.25 59.8794 282.12C59.75 282.12 59.75 281.991 59.75 281.862V281.217C59.75 281.087 59.75 281.087 59.8794 280.958C60.0088 280.958 60.0088 280.829 60.1382 280.829H65.8313C65.9607 280.829 65.9607 280.829 66.0901 280.958C66.2195 280.958 66.2195 281.087 66.2195 281.217V281.862ZM71.2657 287.285C71.2657 287.414 71.2657 287.414 71.1363 287.543C71.1363 287.543 71.0069 287.673 70.8775 287.673H67.2546C67.2546 288.189 67.384 288.706 67.6428 289.222C68.031 289.609 68.5485 289.868 69.0661 289.739C69.3249 289.739 69.713 289.739 69.9718 289.609L70.4894 289.48C70.6188 289.48 70.6188 289.48 70.7482 289.48L70.8775 289.609L71.0069 290.126C71.0069 290.255 71.0069 290.513 70.8775 290.513C70.7482 290.642 70.4894 290.642 70.36 290.772C69.9718 290.901 69.5836 290.901 69.0661 290.901C68.1604 290.901 67.384 290.642 66.7371 289.997C66.0901 289.222 65.8313 288.189 65.9607 287.285C65.9607 286.381 66.2195 285.478 66.7371 284.703C67.2546 284.057 67.9016 283.67 68.8073 283.67C69.1955 283.67 69.5836 283.67 69.8424 283.799C70.2306 283.928 70.4894 284.186 70.7482 284.445C71.0069 284.832 71.1363 285.219 71.2657 285.607C71.1363 286.252 71.1363 286.769 71.2657 287.285ZM69.9718 286.64C69.9718 286.381 69.9718 286.123 69.8424 285.994C69.8424 285.736 69.713 285.607 69.5836 285.348C69.4543 285.219 69.3249 284.961 69.1955 284.961C69.0661 284.832 68.8073 284.832 68.6779 284.832C68.5485 284.832 68.4191 284.832 68.2897 284.961C68.1604 284.961 68.031 285.09 67.9016 285.219C67.7722 285.348 67.6428 285.607 67.5134 285.736C67.384 285.994 67.384 286.381 67.2546 286.769L69.9718 286.64ZM84.7223 290.513C84.7223 290.642 84.5929 290.642 84.5929 290.772C84.4635 290.772 84.4635 290.901 84.3341 290.901H83.1696C83.0402 290.901 83.0402 290.901 82.9108 290.772C82.7814 290.772 82.7814 290.642 82.7814 290.513L81.4875 283.541C81.4875 283.412 81.4875 283.283 81.3581 283.024C81.2287 282.766 81.3581 282.637 81.3581 282.508C81.3581 282.379 81.3581 282.12 81.3581 281.991C81.3581 281.862 81.3581 281.862 81.3581 281.733V281.991C81.3581 282.12 81.3581 282.25 81.3581 282.508C81.3581 282.766 81.3581 282.895 81.3581 283.024C81.3581 283.153 81.3581 283.412 81.2287 283.541L79.8055 290.513C79.8055 290.642 79.5467 290.901 79.4173 290.772H78.1234C77.994 290.772 77.7352 290.642 77.7352 290.513L76.0531 281.217C76.0531 281.087 76.0531 281.087 76.0531 280.958C76.0531 280.958 76.1825 280.829 76.3119 280.829H77.2177C77.347 280.829 77.6058 280.958 77.6058 281.087L78.6409 287.802C78.6409 288.06 78.7703 288.189 78.7703 288.447C78.7703 288.706 78.7703 288.835 78.7703 289.093C78.7703 289.351 78.7703 289.48 78.7703 289.609C78.7703 289.739 78.7703 289.739 78.7703 289.868C78.7703 289.997 78.7703 289.739 78.7703 289.609C78.7703 289.48 78.7703 289.222 78.8997 289.093C79.0291 288.964 78.8997 288.706 79.0291 288.447C79.1585 288.189 79.0291 288.06 79.1585 287.802L80.5818 281.087C80.5818 280.829 80.7112 280.7 80.97 280.7H82.1345C82.2639 280.7 82.5226 280.829 82.5226 280.958L83.8165 287.673C83.8165 287.802 83.8165 288.06 83.9459 288.318C83.9459 288.576 83.9459 288.706 84.0753 288.964C84.0753 289.222 84.0753 289.351 84.0753 289.48C84.0753 289.609 84.0753 289.609 84.0753 289.739C84.0753 289.868 84.0753 289.609 84.0753 289.48C84.0753 289.351 84.0753 289.093 84.0753 288.964C84.0753 288.835 84.0753 288.576 84.2047 288.318C84.2047 288.06 84.2047 287.931 84.3341 287.673L85.4986 280.958C85.4986 280.829 85.4986 280.829 85.628 280.7C85.628 280.7 85.7574 280.571 85.8868 280.571H86.275C86.4043 280.571 86.4043 280.571 86.5337 280.7C86.5337 280.829 86.5337 280.829 86.5337 280.958L84.7223 290.513ZM93.1326 290.513C93.1326 290.642 93.1326 290.642 93.0032 290.772C93.0032 290.772 92.8738 290.901 92.7445 290.901H92.0975C91.9681 290.901 91.9681 290.901 91.8387 290.772C91.7093 290.772 91.7093 290.642 91.7093 290.513V285.736C91.7093 285.478 91.7093 285.219 91.4506 284.961C91.3212 284.832 91.0624 284.703 90.8036 284.703C90.5448 284.703 90.4154 284.703 90.1567 284.832C90.0273 284.961 89.7685 285.09 89.6391 285.219C89.5097 285.348 89.3803 285.607 89.2509 285.736C89.1215 285.994 89.1215 286.123 89.1215 286.381V290.384C89.1215 290.513 89.1215 290.513 88.9921 290.642C88.8628 290.642 88.8628 290.772 88.7334 290.772H88.0864C87.957 290.772 87.957 290.772 87.8276 290.642C87.8276 290.642 87.6982 290.513 87.6982 290.384V280.571C87.6982 280.442 87.6982 280.442 87.8276 280.313C87.957 280.313 87.957 280.184 88.0864 280.184H88.7334C88.8628 280.184 88.8628 280.184 88.9921 280.313C89.1215 280.313 89.1215 280.442 89.1215 280.571V284.445C89.6391 283.799 90.286 283.541 91.0624 283.541C91.5799 283.541 91.9681 283.67 92.3563 284.057C92.6151 284.445 92.8738 284.832 92.8738 285.348L93.1326 290.513ZM99.9903 290.513C99.9903 290.642 99.9903 290.642 99.9903 290.772C99.9903 290.772 99.8609 290.901 99.7315 290.901H99.214C99.0846 290.901 99.0846 290.901 98.9552 290.901C98.8258 290.901 98.8258 290.772 98.8258 290.642L98.6964 289.997C98.4376 290.384 98.1788 290.642 97.7907 290.772C97.4025 290.901 97.0143 291.03 96.6262 291.03C96.1086 291.03 95.591 290.901 95.2029 290.513C94.8147 290.126 94.6853 289.48 94.6853 288.964C94.6853 288.576 94.6853 288.318 94.8147 287.931C94.9441 287.673 95.0735 287.414 95.3323 287.285C95.591 287.156 95.8498 287.027 96.1086 286.898C96.3674 286.769 96.6262 286.769 97.0143 286.769L98.567 286.64V286.252C98.567 285.865 98.567 285.607 98.3082 285.348C98.0494 285.09 97.6613 284.961 97.2731 285.09C97.0143 285.09 96.7555 285.09 96.4968 285.219L95.8498 285.348C95.7204 285.348 95.7204 285.348 95.591 285.348C95.4616 285.348 95.4616 285.219 95.4616 285.219L95.3323 284.703C95.3323 284.574 95.3323 284.445 95.4616 284.315C95.4616 284.315 95.4616 284.315 95.591 284.315C95.8498 284.186 96.1086 284.186 96.3674 284.186C96.7555 284.057 97.0143 284.057 97.4025 284.057C97.7907 284.057 98.3082 284.057 98.6964 284.315C98.9552 284.445 99.214 284.574 99.4727 284.832C99.7315 285.09 99.8609 285.348 99.8609 285.607C99.9903 285.994 99.9903 286.252 99.9903 286.64V289.222C99.9903 289.351 99.9903 289.609 99.9903 289.739C99.9903 289.997 99.9903 290.126 100.12 290.384L99.9903 290.513ZM98.567 287.414H97.6613C97.2731 287.414 96.8849 287.543 96.4968 287.673C96.1086 287.931 95.9792 288.318 96.1086 288.706C96.1086 288.964 96.238 289.222 96.3674 289.48C96.4968 289.609 96.7555 289.739 97.0143 289.739C97.2731 289.739 97.4025 289.739 97.6613 289.609C97.7907 289.48 98.0494 289.351 98.1788 289.222C98.3082 289.093 98.4376 288.964 98.567 288.706C98.567 288.576 98.6964 288.447 98.6964 288.318V287.414H98.567ZM105.683 284.832C105.683 285.09 105.425 285.219 105.295 285.09L104.907 284.961C104.778 284.961 104.648 284.832 104.519 284.832C104.39 284.832 104.26 284.832 104.131 284.961C104.001 285.09 103.872 285.219 103.872 285.348C103.743 285.478 103.743 285.736 103.613 285.865C103.484 286.123 103.484 286.381 103.484 286.769V290.513C103.484 290.642 103.484 290.642 103.354 290.772C103.354 290.772 103.225 290.901 103.096 290.901H102.449C102.319 290.901 102.319 290.901 102.19 290.772C102.061 290.772 102.061 290.642 102.061 290.513V284.057C102.061 283.928 102.061 283.928 102.19 283.799C102.319 283.799 102.319 283.67 102.449 283.67H102.837C102.966 283.67 103.096 283.799 103.225 283.928L103.484 284.574C103.613 284.315 103.872 284.057 104.131 283.799C104.39 283.67 104.778 283.541 105.037 283.541C105.166 283.541 105.425 283.541 105.554 283.67C105.813 283.799 105.942 283.928 105.813 284.186L105.683 284.832ZM111.765 287.285C111.765 287.414 111.765 287.414 111.635 287.543C111.635 287.673 111.506 287.673 111.377 287.673H107.754C107.754 288.189 107.883 288.706 108.142 289.222C108.53 289.609 109.048 289.868 109.565 289.739C109.824 289.739 110.212 289.739 110.471 289.609L110.988 289.48C111.118 289.48 111.118 289.48 111.247 289.48L111.377 289.609L111.506 290.126C111.506 290.255 111.506 290.513 111.377 290.513C111.247 290.642 110.988 290.642 110.73 290.772C110.342 290.901 109.824 290.901 109.436 290.901C108.53 290.901 107.754 290.642 107.107 289.997C106.46 289.222 106.201 288.189 106.33 287.285C106.33 286.381 106.589 285.478 107.107 284.703C107.624 284.057 108.271 283.67 109.177 283.67C109.565 283.67 109.824 283.67 110.212 283.799C110.6 283.928 110.859 284.186 111.118 284.445C111.377 284.832 111.506 285.219 111.635 285.607C111.635 286.123 111.765 286.769 111.765 287.285ZM110.471 286.64C110.471 286.381 110.471 286.123 110.341 285.994C110.341 285.736 110.212 285.607 110.083 285.348C109.953 285.219 109.824 285.09 109.695 284.961C109.565 284.832 109.306 284.832 109.048 284.832C108.918 284.832 108.789 284.832 108.659 284.961C108.53 284.961 108.401 285.09 108.271 285.219C108.142 285.348 108.012 285.607 107.883 285.736C107.754 285.994 107.754 286.381 107.624 286.769L110.471 286.64ZM125.351 290.513C125.351 290.642 125.221 290.642 125.221 290.772C125.092 290.772 125.092 290.901 124.963 290.901H123.669C123.539 290.901 123.539 290.901 123.41 290.772C123.281 290.772 123.28 290.642 123.28 290.513L121.987 283.541C121.987 283.412 121.987 283.153 121.987 283.024C121.987 282.895 121.987 282.637 121.987 282.508C121.987 282.379 121.987 282.12 121.987 281.991C121.987 281.862 121.987 281.862 121.987 281.733V281.991C121.987 282.12 121.987 282.25 121.987 282.508C121.987 282.766 121.987 282.895 121.987 283.024C121.987 283.153 121.987 283.412 121.857 283.541L120.434 290.513C120.434 290.642 120.175 290.901 120.046 290.772H118.752C118.622 290.772 118.364 290.642 118.364 290.513L116.682 281.217C116.682 281.087 116.682 281.087 116.682 280.958C116.682 280.958 116.811 280.829 116.94 280.829H117.846C117.976 280.829 118.234 280.958 118.234 281.087L119.269 287.802C119.269 287.931 119.269 288.189 119.269 288.447C119.269 288.706 119.269 288.835 119.269 289.093C119.269 289.351 119.269 289.48 119.269 289.609C119.269 289.48 119.269 289.222 119.399 289.093C119.399 288.835 119.399 288.706 119.528 288.447C119.658 288.189 119.528 288.06 119.658 287.802L121.081 281.087C121.081 280.829 121.21 280.7 121.469 280.7H122.634C122.763 280.7 123.022 280.829 123.022 280.958L124.316 287.673C124.316 287.802 124.316 288.06 124.445 288.318C124.574 288.576 124.445 288.706 124.574 288.964C124.704 289.222 124.574 289.351 124.574 289.48C124.574 289.351 124.574 289.093 124.574 288.964L124.704 288.318C124.704 288.06 124.704 287.931 124.833 287.673L125.998 280.958C125.998 280.829 125.998 280.829 126.127 280.7C126.127 280.7 126.256 280.571 126.386 280.571H127.162C127.292 280.571 127.292 280.571 127.421 280.7C127.421 280.829 127.421 280.829 127.421 280.958L125.351 290.513ZM133.114 290.513C133.114 290.642 133.114 290.642 133.114 290.772C133.114 290.772 132.985 290.901 132.855 290.901H132.208C132.079 290.901 132.079 290.901 131.95 290.901C131.82 290.901 131.82 290.772 131.82 290.642L131.691 289.997C131.432 290.384 131.173 290.642 130.785 290.772C130.397 290.901 130.009 291.03 129.621 291.03C129.103 291.03 128.585 290.901 128.197 290.513C127.809 290.126 127.68 289.48 127.68 288.964C127.68 288.576 127.68 288.318 127.939 287.931C128.068 287.673 128.197 287.414 128.327 287.156C128.585 287.027 128.844 286.898 129.103 286.769C129.362 286.64 129.621 286.64 130.009 286.64L131.561 286.511V286.123C131.561 285.736 131.561 285.478 131.303 285.219C131.044 284.961 130.656 284.832 130.268 284.961C130.009 284.961 129.75 284.961 129.491 285.09L128.844 285.219C128.715 285.219 128.715 285.219 128.585 285.219C128.456 285.219 128.456 285.09 128.456 285.09L128.327 284.574C128.327 284.445 128.327 284.315 128.456 284.186C128.456 284.186 128.456 284.186 128.585 284.186C128.844 284.057 129.103 284.057 129.362 284.057C129.75 283.928 130.009 283.928 130.397 283.928C130.785 283.928 131.303 283.928 131.691 284.186C131.95 284.315 132.208 284.445 132.467 284.703C132.597 284.961 132.726 285.219 132.855 285.478C132.985 285.865 132.985 286.123 132.985 286.511V289.739C132.985 289.997 132.985 290.126 133.114 290.384V290.513ZM131.561 287.414H130.656C130.268 287.414 129.879 287.543 129.491 287.673C129.103 287.931 128.974 288.318 129.103 288.706C129.103 288.964 129.232 289.222 129.362 289.48C129.491 289.609 129.75 289.739 130.009 289.739C130.268 289.739 130.397 289.739 130.656 289.609C130.785 289.48 131.044 289.351 131.173 289.222C131.303 289.093 131.432 288.964 131.432 288.706C131.561 288.576 131.561 288.447 131.561 288.318V287.414ZM140.231 290.513C140.231 290.642 140.231 290.642 140.101 290.772C140.101 290.772 139.972 290.901 139.842 290.901H139.325C139.195 290.901 139.195 290.901 139.066 290.772C139.066 290.772 138.937 290.642 138.937 290.513V285.736C138.937 285.478 138.937 285.219 138.678 284.961C138.549 284.832 138.29 284.703 138.031 284.703C137.772 284.703 137.643 284.703 137.384 284.832C137.255 284.961 136.996 285.09 136.866 285.219C136.737 285.348 136.608 285.607 136.478 285.736C136.349 285.994 136.349 286.123 136.349 286.381V290.384C136.349 290.513 136.349 290.513 136.22 290.642C136.22 290.642 136.09 290.772 135.961 290.772H135.314C135.184 290.772 135.184 290.772 135.055 290.642C134.926 290.642 134.926 290.513 134.926 290.384V283.928C134.926 283.799 134.926 283.799 135.055 283.67C135.184 283.67 135.184 283.541 135.314 283.541H135.702C135.831 283.541 135.961 283.67 136.09 283.799L136.22 284.445C136.478 284.186 136.866 283.928 137.125 283.67C137.513 283.541 137.772 283.412 138.16 283.412C138.678 283.412 139.066 283.541 139.454 283.928C139.713 284.315 139.972 284.703 139.972 285.219L140.231 290.513ZM147.218 290.513C147.218 290.642 147.218 290.642 147.218 290.772C147.218 290.772 147.088 290.901 146.959 290.901H146.312C146.183 290.901 146.183 290.901 146.053 290.901C145.924 290.901 145.924 290.772 145.924 290.642L145.794 289.997C145.536 290.384 145.277 290.642 144.889 290.772C144.5 290.901 144.112 291.03 143.724 291.03C143.207 291.03 142.689 290.901 142.301 290.513C141.913 290.126 141.783 289.48 141.783 288.964C141.783 288.576 141.783 288.318 142.042 287.931C142.301 287.414 142.818 287.027 143.336 286.769C143.595 286.64 143.854 286.64 144.242 286.64L145.794 286.511V286.123C145.794 285.736 145.665 285.478 145.536 285.219C145.277 284.961 144.889 284.832 144.5 284.961C144.242 284.961 143.983 284.961 143.724 285.09L143.077 285.219C142.948 285.219 142.948 285.219 142.818 285.219C142.689 285.219 142.689 285.09 142.689 285.09L142.56 284.574C142.56 284.445 142.56 284.315 142.689 284.186C142.689 284.186 142.689 284.186 142.818 284.186C143.077 284.057 143.336 284.057 143.595 284.057C143.983 283.928 144.242 283.928 144.63 283.928C145.018 283.928 145.536 283.928 145.924 284.186C146.183 284.315 146.441 284.445 146.7 284.703C146.829 284.961 146.959 285.219 147.088 285.478C147.218 285.865 147.218 286.123 147.218 286.511V289.739C147.218 289.997 147.218 290.126 147.347 290.384L147.218 290.513ZM145.794 287.414H144.889C144.5 287.414 144.112 287.543 143.724 287.673C143.336 287.931 143.207 288.318 143.336 288.706C143.336 288.964 143.465 289.222 143.595 289.48C143.724 289.609 143.983 289.739 144.242 289.739C144.5 289.739 144.63 289.739 144.889 289.609C145.018 289.48 145.277 289.351 145.406 289.222C145.536 289.093 145.665 288.964 145.665 288.706C145.794 288.576 145.794 288.447 145.794 288.318V287.414ZM154.463 290.513C154.463 290.642 154.463 290.642 154.334 290.772C154.334 290.772 154.205 290.901 154.075 290.901H153.428C153.299 290.901 153.299 290.901 153.17 290.772C153.17 290.772 153.04 290.642 153.04 290.513V285.736C153.04 285.478 153.04 285.219 152.781 284.961C152.652 284.832 152.393 284.703 152.134 284.703C151.876 284.703 151.746 284.703 151.488 284.832C151.358 284.961 151.099 285.09 150.97 285.219C150.841 285.348 150.711 285.607 150.582 285.736C150.452 285.994 150.452 286.123 150.452 286.381V290.384C150.452 290.513 150.452 290.513 150.323 290.642C150.323 290.642 150.194 290.772 150.064 290.772H149.676C149.547 290.772 149.547 290.772 149.417 290.642C149.417 290.642 149.288 290.513 149.288 290.384V283.928C149.288 283.799 149.288 283.799 149.417 283.67C149.547 283.67 149.547 283.541 149.676 283.541H150.064C150.194 283.541 150.323 283.67 150.452 283.799L150.582 284.445C150.841 284.186 151.229 283.928 151.488 283.67C151.876 283.541 152.134 283.412 152.523 283.412C153.04 283.412 153.428 283.541 153.817 283.928C154.075 284.315 154.334 284.703 154.334 285.219L154.463 290.513ZM162.098 284.445C162.098 284.574 161.968 284.703 161.839 284.703H161.062C161.192 284.961 161.321 285.09 161.451 285.348C161.58 285.607 161.58 285.865 161.58 286.123C161.58 286.769 161.321 287.543 160.933 288.06C160.415 288.576 159.768 288.835 158.992 288.706C158.733 288.706 158.475 288.706 158.216 288.576L158.086 288.706C158.086 288.835 157.957 288.835 157.957 288.964C157.957 289.093 157.957 289.222 158.086 289.351C158.216 289.351 158.475 289.48 158.604 289.48H159.898C160.415 289.48 161.062 289.609 161.451 289.997C161.839 290.384 162.098 290.901 161.968 291.417C161.968 291.804 161.839 292.192 161.709 292.45C161.58 292.708 161.321 292.967 161.062 293.225C160.804 293.354 160.415 293.612 160.157 293.612C159.768 293.741 159.38 293.741 158.992 293.741C158.604 293.741 158.345 293.741 157.957 293.612C157.569 293.612 157.31 293.483 157.051 293.225C156.793 293.096 156.534 292.837 156.404 292.579C156.275 292.321 156.146 291.934 156.146 291.546C156.146 291.417 156.146 291.417 156.275 291.288C156.275 291.288 156.404 291.159 156.534 291.159H157.439C157.569 291.159 157.698 291.288 157.698 291.417C157.698 291.546 157.828 291.804 157.957 291.934C158.086 292.063 158.216 292.192 158.345 292.192C158.475 292.321 158.604 292.321 158.863 292.321H159.38C159.768 292.321 160.157 292.192 160.545 292.063C160.804 291.934 161.062 291.675 161.062 291.288C161.062 291.03 160.933 290.772 160.804 290.642C160.545 290.513 160.286 290.384 159.898 290.384H158.475C158.216 290.384 158.086 290.384 157.828 290.255C157.698 290.255 157.439 290.126 157.31 290.126C157.181 289.997 157.051 289.868 156.922 289.739C156.793 289.609 156.793 289.351 156.793 289.222C156.793 288.964 156.793 288.706 156.922 288.576C157.051 288.318 157.181 288.189 157.31 288.06C157.051 287.802 156.663 287.543 156.534 287.156C156.275 286.769 156.275 286.252 156.275 285.865C156.275 285.478 156.275 285.09 156.534 284.703C156.663 284.445 156.793 284.057 157.051 283.928C157.31 283.67 157.569 283.541 157.957 283.412C158.345 283.282 158.604 283.283 158.992 283.283C159.122 283.283 159.38 283.283 159.51 283.283H160.027H161.968C162.098 283.283 162.227 283.412 162.356 283.541C162.356 283.541 162.356 283.541 162.356 283.67L162.098 284.445ZM160.286 286.252C160.286 285.994 160.286 285.736 160.157 285.478C160.157 285.348 160.027 285.09 159.898 284.961C159.768 284.832 159.639 284.703 159.51 284.703C159.38 284.703 159.122 284.703 158.992 284.703C158.863 284.703 158.604 284.703 158.475 284.703C158.345 284.703 158.216 284.832 158.086 284.961C157.957 285.09 157.828 285.219 157.828 285.478C157.698 285.736 157.698 285.994 157.698 286.252C157.698 286.511 157.698 286.769 157.828 287.027C157.828 287.156 157.957 287.414 158.086 287.543C158.216 287.673 158.345 287.802 158.475 287.802C158.604 287.802 158.863 287.931 158.992 287.931C159.122 287.931 159.38 287.931 159.51 287.802C159.639 287.802 159.768 287.673 159.898 287.543C160.027 287.414 160.157 287.285 160.157 287.027C160.286 286.769 160.286 286.511 160.286 286.252ZM168.308 290.513C168.308 290.642 168.308 290.642 168.308 290.772C168.308 290.772 168.179 290.901 168.049 290.901H167.402C167.273 290.901 167.273 290.901 167.144 290.901C167.014 290.901 167.014 290.772 167.014 290.642L166.885 289.997C166.626 290.384 166.367 290.642 165.979 290.772C165.591 290.901 165.203 291.03 164.815 291.03C164.297 291.03 163.78 290.901 163.391 290.513C163.003 290.126 162.874 289.48 162.874 288.964C162.874 288.576 162.874 288.318 163.133 287.931C163.262 287.673 163.391 287.414 163.65 287.285C163.909 287.156 164.168 287.027 164.427 286.898C164.685 286.769 164.944 286.769 165.332 286.769L166.885 286.64V286.252C166.885 285.865 166.885 285.607 166.626 285.348C166.367 285.09 165.979 284.961 165.591 285.09C165.332 285.09 165.073 285.09 164.815 285.219L164.168 285.348C164.038 285.348 164.038 285.348 163.909 285.348C163.78 285.348 163.78 285.219 163.78 285.219L163.65 284.703C163.65 284.574 163.65 284.445 163.78 284.315C163.78 284.315 163.78 284.315 163.909 284.315C164.168 284.186 164.427 284.186 164.685 284.186C165.073 284.057 165.332 284.057 165.72 284.057C166.109 284.057 166.626 284.057 167.014 284.315C167.273 284.445 167.532 284.574 167.791 284.832C167.92 285.09 168.049 285.348 168.179 285.607C168.308 285.994 168.308 286.252 168.308 286.64V289.868C168.308 290.126 168.308 290.255 168.438 290.513H168.308ZM166.885 287.414H165.979C165.591 287.414 165.203 287.543 164.815 287.673C164.427 287.931 164.297 288.318 164.427 288.706C164.427 288.964 164.556 289.222 164.685 289.48C164.815 289.609 165.073 289.739 165.332 289.739C165.591 289.739 165.72 289.739 165.979 289.609C166.109 289.48 166.367 289.351 166.497 289.222C166.626 289.093 166.756 288.964 166.756 288.706C166.885 288.576 166.885 288.447 166.885 288.318V287.414ZM179.306 287.285C179.306 288.189 179.048 289.222 178.53 289.997C178.012 290.642 177.236 291.03 176.46 291.03C175.683 291.03 174.907 290.642 174.39 289.997C173.354 288.318 173.354 286.252 174.39 284.703C174.907 284.057 175.683 283.67 176.46 283.67C177.236 283.67 178.012 284.057 178.53 284.703C179.048 285.348 179.306 286.381 179.306 287.285ZM178.012 287.285C178.012 286.64 177.883 285.994 177.624 285.348C177.366 284.961 176.977 284.703 176.589 284.703C176.201 284.703 175.683 284.961 175.554 285.348C175.037 286.64 175.037 287.931 175.554 289.222C175.813 289.609 176.201 289.868 176.589 289.868C176.977 289.868 177.495 289.609 177.624 289.222C177.883 288.576 178.012 287.931 178.012 287.285ZM189.916 281.862C189.916 281.991 189.916 281.991 189.787 282.12C189.787 282.12 189.658 282.25 189.528 282.25H187.329V290.513C187.329 290.642 187.199 290.772 186.94 290.901H186.293C186.164 290.901 186.164 290.901 186.035 290.772C185.905 290.772 185.905 290.642 185.905 290.513V282.25H183.706C183.576 282.25 183.576 282.25 183.447 282.12C183.317 282.12 183.317 281.991 183.317 281.862V281.217C183.317 281.087 183.317 281.087 183.447 280.958C183.576 280.958 183.576 280.829 183.706 280.829H189.399C189.528 280.829 189.528 280.829 189.658 280.958C189.658 280.958 189.787 281.087 189.787 281.217V281.862H189.916ZM194.963 287.285C194.963 287.414 194.963 287.414 194.833 287.543C194.833 287.673 194.704 287.673 194.574 287.673H190.951C190.951 288.189 191.081 288.706 191.34 289.222C191.728 289.609 192.245 289.868 192.763 289.739C193.022 289.739 193.41 289.739 193.669 289.609L194.186 289.48C194.316 289.48 194.316 289.48 194.445 289.48L194.574 289.609L194.704 290.126C194.704 290.255 194.704 290.513 194.574 290.513C194.445 290.642 194.186 290.642 194.057 290.772C193.669 290.901 193.151 290.901 192.763 290.901C191.857 290.901 191.081 290.642 190.434 289.997C189.787 289.222 189.528 288.189 189.658 287.285C189.658 286.381 189.916 285.478 190.434 284.703C190.951 284.057 191.598 283.67 192.504 283.67C192.892 283.67 193.151 283.67 193.539 283.799C193.927 283.928 194.186 284.186 194.445 284.445C194.704 284.832 194.833 285.219 194.963 285.607C194.833 286.123 194.833 286.769 194.963 287.285ZM193.669 286.64C193.669 286.381 193.669 286.123 193.539 285.994C193.539 285.736 193.41 285.607 193.281 285.348C193.151 285.219 193.022 285.09 192.892 284.961C192.763 284.832 192.504 284.832 192.375 284.832C192.245 284.832 192.116 284.832 191.987 284.961C191.857 284.961 191.728 285.09 191.598 285.219C191.469 285.348 191.34 285.607 191.21 285.736C191.081 285.994 191.081 286.381 190.951 286.769L193.669 286.64ZM205.573 281.862C205.573 281.991 205.443 282.12 205.184 282.25H202.985V290.513C202.985 290.642 202.985 290.642 202.855 290.772C202.855 290.772 202.726 290.901 202.597 290.901H201.82C201.691 290.901 201.691 290.901 201.561 290.772C201.432 290.772 201.432 290.642 201.432 290.513V282.25H199.232C199.103 282.25 199.103 282.25 198.974 282.12C198.844 282.12 198.844 281.991 198.844 281.862V281.217C198.844 281.087 198.844 281.087 198.974 280.958C198.974 280.958 199.103 280.829 199.232 280.829H204.926C205.055 280.829 205.055 280.829 205.184 280.958C205.314 280.958 205.314 281.087 205.314 281.217L205.573 281.862ZM210.231 290.513C210.231 290.642 210.231 290.642 210.231 290.772C210.231 290.772 210.101 290.901 209.972 290.901H209.325C209.195 290.901 209.195 290.901 209.066 290.901C208.937 290.901 208.937 290.772 208.937 290.642L208.807 289.997C208.549 290.384 208.29 290.642 207.902 290.772C207.513 290.901 207.125 291.03 206.737 291.03C206.22 291.03 205.702 290.901 205.314 290.513C204.926 290.126 204.796 289.48 204.796 288.964C204.796 288.576 204.796 288.318 205.055 287.931C205.184 287.673 205.314 287.414 205.573 287.285C205.831 287.156 206.09 287.027 206.349 286.898C206.608 286.769 206.866 286.769 207.255 286.769L208.807 286.64V286.252C208.807 285.865 208.807 285.607 208.549 285.348C208.29 285.09 207.902 284.961 207.513 285.09C207.255 285.09 206.996 285.09 206.737 285.219L206.09 285.348C205.961 285.348 205.961 285.348 205.831 285.348C205.702 285.348 205.702 285.219 205.702 285.219L205.573 284.703C205.573 284.574 205.573 284.445 205.702 284.315C205.702 284.315 205.702 284.315 205.831 284.315C206.09 284.186 206.349 284.186 206.608 284.186C206.996 284.057 207.255 284.057 207.643 284.057C208.031 284.057 208.549 284.057 208.937 284.315C209.195 284.445 209.454 284.574 209.713 284.832C209.972 285.09 210.101 285.348 210.101 285.607C210.231 285.994 210.231 286.252 210.231 286.64V289.222C210.231 289.351 210.231 289.609 210.231 289.739C210.231 289.997 210.231 290.126 210.36 290.384L210.231 290.513ZM208.678 287.414H207.772C207.384 287.414 206.996 287.543 206.608 287.673C206.22 287.931 206.09 288.318 206.219 288.706C206.219 288.964 206.349 289.222 206.478 289.48C206.608 289.609 206.866 289.739 207.125 289.739C207.384 289.739 207.513 289.739 207.772 289.609C207.902 289.48 208.16 289.351 208.29 289.222C208.419 289.093 208.549 288.964 208.678 288.706C208.678 288.576 208.807 288.447 208.807 288.318V287.414H208.678ZM217.347 290.513C217.347 290.642 217.347 290.642 217.218 290.772C217.218 290.772 217.088 290.901 216.959 290.901H216.571C216.441 290.901 216.312 290.772 216.312 290.642L216.183 289.868L215.794 290.255C215.665 290.384 215.536 290.513 215.406 290.642C215.277 290.772 215.018 290.772 214.889 290.901C214.63 291.03 214.371 291.03 214.112 291.03C213.595 291.03 213.207 290.901 212.818 290.513C212.43 290.126 212.301 289.609 212.301 289.093V284.057C212.301 283.928 212.301 283.928 212.43 283.799C212.56 283.799 212.56 283.67 212.689 283.67H213.336C213.465 283.67 213.465 283.67 213.595 283.799C213.724 283.799 213.724 283.928 213.724 284.057V288.835C213.724 289.093 213.724 289.351 213.983 289.48C214.112 289.609 214.371 289.739 214.63 289.739C215.018 289.739 215.536 289.609 215.794 289.222C216.183 288.706 216.312 288.189 216.183 287.673V284.057C216.183 283.928 216.183 283.928 216.312 283.799C216.441 283.799 216.441 283.67 216.571 283.67H217.218C217.347 283.67 217.347 283.67 217.476 283.799C217.606 283.799 217.606 283.928 217.606 284.057L217.347 290.513ZM221.229 281.217C221.229 281.733 220.841 282.12 220.323 282.12C220.064 282.12 219.805 281.991 219.676 281.862C219.288 281.475 219.288 280.958 219.676 280.571C219.805 280.442 220.064 280.313 220.323 280.313C220.582 280.313 220.841 280.442 220.97 280.571C221.099 280.829 221.229 280.958 221.229 281.217ZM220.97 290.513C220.97 290.642 220.97 290.642 220.841 290.772C220.841 290.772 220.711 290.901 220.582 290.901H219.935C219.805 290.901 219.805 290.901 219.676 290.772C219.676 290.772 219.547 290.642 219.547 290.513V284.057C219.547 283.928 219.547 283.928 219.676 283.799C219.676 283.799 219.805 283.67 219.935 283.67H220.582C220.711 283.67 220.711 283.67 220.841 283.799C220.841 283.799 220.97 283.928 220.97 284.057V290.513ZM228.345 290.513C228.345 290.642 228.345 290.642 228.216 290.772C228.216 290.772 228.086 290.901 227.957 290.901H227.31C227.181 290.901 227.181 290.901 227.051 290.772C227.051 290.772 226.922 290.642 226.922 290.513V285.736C226.922 285.478 226.922 285.219 226.663 284.961C226.534 284.832 226.275 284.703 226.016 284.703C225.757 284.703 225.628 284.703 225.369 284.832C225.24 284.961 224.981 285.09 224.852 285.219C224.722 285.348 224.593 285.607 224.464 285.736C224.334 285.994 224.334 286.123 224.334 286.381V290.384C224.334 290.513 224.334 290.513 224.205 290.642C224.075 290.642 224.075 290.772 223.946 290.772H223.299C223.17 290.772 223.17 290.772 223.04 290.642C222.911 290.642 222.911 290.513 222.911 290.384V280.571C222.911 280.442 222.911 280.442 223.04 280.313C223.17 280.313 223.17 280.184 223.299 280.184H223.946C224.075 280.184 224.075 280.184 224.205 280.313C224.334 280.313 224.334 280.442 224.334 280.571V284.445C224.852 283.799 225.499 283.541 226.275 283.541C226.793 283.541 227.181 283.67 227.569 284.057C227.828 284.445 228.086 284.832 228.086 285.348L228.345 290.513ZM235.85 290.513C235.85 290.642 235.85 290.642 235.72 290.772C235.72 290.772 235.591 290.901 235.462 290.901H235.073C234.944 290.901 234.815 290.772 234.815 290.642L234.685 289.868L234.297 290.255C234.168 290.384 234.038 290.513 233.909 290.642C233.78 290.772 233.521 290.772 233.391 290.901C233.133 291.03 232.874 291.03 232.615 291.03C231.709 291.03 230.933 290.384 230.804 289.48C230.804 289.351 230.804 289.222 230.804 289.222V284.186C230.804 284.057 230.804 284.057 230.933 283.928C231.062 283.928 231.062 283.799 231.192 283.799H231.839C231.968 283.799 231.968 283.799 232.098 283.928C232.227 283.928 232.227 284.057 232.227 284.186V288.964C232.227 289.222 232.227 289.48 232.486 289.609C232.615 289.739 232.874 289.868 233.133 289.868C233.521 289.868 234.038 289.739 234.297 289.351C234.685 288.835 234.815 288.318 234.815 287.802V284.186C234.815 284.057 234.815 284.057 234.944 283.928C235.073 283.928 235.073 283.799 235.203 283.799H235.85C235.979 283.799 235.979 283.799 236.109 283.928C236.238 283.928 236.238 284.057 236.238 284.186L235.85 290.513ZM246.848 287.285C246.848 288.189 246.589 289.222 246.072 289.997C245.037 291.159 243.354 291.288 242.19 290.255C242.061 290.126 241.931 290.126 241.931 289.997C240.896 288.318 240.896 286.252 241.931 284.703C242.966 283.541 244.648 283.412 245.813 284.445C245.942 284.574 246.072 284.574 246.072 284.703C246.719 285.348 246.977 286.381 246.848 287.285ZM245.554 287.285C245.554 286.64 245.425 285.994 245.166 285.348C244.907 284.961 244.519 284.703 244.001 284.703C243.613 284.703 243.096 284.961 242.837 285.348C242.319 286.64 242.319 287.931 242.837 289.222C243.096 289.609 243.484 289.868 244.001 289.868C244.39 289.868 244.907 289.609 245.166 289.222C245.425 288.576 245.554 287.931 245.554 287.285ZM257.458 281.862C257.458 281.991 257.458 281.991 257.329 282.12C257.329 282.12 257.199 282.25 257.07 282.25H254.87V290.513C254.87 290.642 254.87 290.642 254.741 290.772C254.741 290.772 254.611 290.901 254.482 290.901H253.706C253.576 290.901 253.576 290.901 253.447 290.772C253.317 290.772 253.317 290.642 253.317 290.513V282.25H251.247C251.118 282.25 251.118 282.25 250.988 282.12C250.859 282.12 250.859 281.991 250.859 281.862V281.217C250.859 281.087 250.859 281.087 250.988 280.958C251.118 280.958 251.118 280.829 251.247 280.829H256.94C257.07 280.829 257.07 280.829 257.199 280.958C257.329 280.958 257.329 281.087 257.329 281.217V281.862H257.458ZM262.504 287.285C262.504 287.414 262.504 287.414 262.375 287.543C262.375 287.543 262.245 287.673 262.116 287.673H258.493C258.493 288.189 258.622 288.706 258.881 289.222C259.269 289.609 259.787 289.868 260.305 289.739C260.563 289.739 260.951 289.739 261.21 289.609L261.728 289.48C261.857 289.48 261.857 289.48 261.987 289.48L262.116 289.609L262.245 290.126C262.245 290.255 262.245 290.513 262.116 290.513C261.598 290.772 260.951 290.901 260.305 290.901C259.399 290.901 258.622 290.642 257.976 289.997C257.329 289.222 257.07 288.189 257.199 287.285C257.199 286.381 257.458 285.478 257.976 284.703C258.493 284.057 259.14 283.67 260.046 283.67C260.434 283.67 260.822 283.67 261.081 283.799C261.469 283.928 261.728 284.186 261.857 284.445C262.116 284.832 262.375 285.219 262.375 285.607C262.375 286.123 262.504 286.769 262.504 287.285ZM261.081 286.64C261.081 286.381 261.081 286.123 260.951 285.994C260.951 285.736 260.822 285.607 260.693 285.348C260.563 285.219 260.434 284.961 260.305 284.961C260.175 284.832 259.916 284.832 259.787 284.832C259.658 284.832 259.528 284.832 259.269 284.961C259.14 284.961 259.011 285.09 258.881 285.219C258.752 285.348 258.622 285.607 258.493 285.736C258.364 285.994 258.364 286.381 258.364 286.769L261.081 286.64ZM276.09 290.513C276.09 290.642 275.961 290.642 275.961 290.772C275.831 290.772 275.831 290.901 275.702 290.901H274.408C274.279 290.901 274.279 290.901 274.149 290.772C274.02 290.772 274.02 290.642 274.02 290.513L272.726 283.541C272.726 283.412 272.726 283.283 272.597 283.024C272.467 282.766 272.597 282.637 272.597 282.508C272.597 282.379 272.597 282.12 272.467 281.991C272.467 281.862 272.467 281.862 272.467 281.733V281.991C272.467 282.12 272.467 282.25 272.467 282.508C272.467 282.766 272.467 282.895 272.338 283.024C272.208 283.153 272.338 283.412 272.208 283.541L270.785 290.513C270.785 290.642 270.526 290.901 270.397 290.772H269.103C268.974 290.772 268.715 290.642 268.715 290.513L267.033 281.217C267.033 281.087 267.033 281.087 267.033 280.958C267.033 280.958 267.162 280.829 267.292 280.829H268.068C268.197 280.829 268.456 280.958 268.456 281.087L269.491 287.802C269.491 287.931 269.491 288.189 269.621 288.447C269.75 288.706 269.621 288.835 269.621 289.093C269.621 289.351 269.621 289.48 269.621 289.609C269.621 289.739 269.621 289.739 269.621 289.868C269.621 289.997 269.621 289.739 269.621 289.609C269.621 289.48 269.621 289.222 269.75 289.093C269.879 288.964 269.879 288.706 269.879 288.447C269.879 288.189 269.879 288.06 270.009 287.802L271.432 281.087C271.432 280.958 271.561 280.7 271.82 280.7H272.985C273.114 280.7 273.373 280.829 273.373 280.958L274.667 287.673C274.667 287.802 274.796 288.06 274.796 288.318C274.796 288.576 274.796 288.706 274.926 288.964C274.926 289.222 274.926 289.351 274.926 289.48C274.926 289.609 274.926 289.609 274.926 289.739C274.926 289.868 274.926 289.609 274.926 289.48C274.926 289.351 274.926 289.093 274.926 288.964C274.926 288.706 274.926 288.576 275.055 288.318C275.055 288.06 275.055 287.931 275.184 287.673L276.349 280.958C276.349 280.829 276.349 280.829 276.478 280.7C276.478 280.7 276.608 280.571 276.737 280.571H277.513C277.643 280.571 277.643 280.571 277.772 280.7C277.772 280.829 277.772 280.829 277.772 280.958L276.09 290.513ZM283.854 290.513C283.854 290.642 283.854 290.642 283.854 290.772C283.854 290.772 283.724 290.901 283.595 290.901H282.948C282.818 290.901 282.818 290.901 282.689 290.901C282.56 290.901 282.56 290.772 282.56 290.642L282.43 289.997C282.171 290.384 281.913 290.642 281.524 290.772C281.136 290.901 280.748 291.03 280.36 291.03C279.842 291.03 279.325 290.901 278.937 290.513C278.549 290.126 278.419 289.48 278.419 288.964C278.419 288.576 278.419 288.318 278.549 287.931C278.678 287.673 278.807 287.414 279.066 287.285C279.325 287.156 279.584 287.027 279.842 286.898C280.101 286.769 280.36 286.769 280.748 286.769L282.301 286.64V286.252C282.301 285.865 282.171 285.607 282.042 285.348C281.783 285.09 281.395 284.961 281.007 285.09C280.748 285.09 280.489 285.09 280.231 285.219L279.584 285.348C279.454 285.348 279.454 285.348 279.325 285.348C279.195 285.348 279.195 285.219 279.195 285.219L279.066 284.703C279.066 284.574 279.066 284.445 279.195 284.315C279.195 284.315 279.195 284.315 279.325 284.315C279.584 284.186 279.842 284.186 280.101 284.186C280.489 284.057 280.748 284.057 281.136 284.057C281.525 284.057 282.042 284.057 282.43 284.315C282.689 284.445 282.948 284.574 283.207 284.832C283.465 285.09 283.595 285.348 283.595 285.607C283.724 285.994 283.724 286.252 283.724 286.64V289.222C283.724 289.351 283.724 289.609 283.724 289.739C283.724 289.997 283.724 290.126 283.854 290.384V290.513ZM282.43 287.414H281.524C281.136 287.414 280.748 287.543 280.36 287.673C280.101 287.931 279.842 288.318 279.972 288.706C279.972 288.964 280.101 289.222 280.231 289.48C280.36 289.609 280.619 289.739 280.878 289.739C281.136 289.739 281.266 289.739 281.524 289.609C281.654 289.48 281.913 289.351 282.042 289.222C282.171 289.093 282.301 288.964 282.43 288.706C282.56 288.576 282.56 288.447 282.56 288.318L282.43 287.414ZM290.97 290.513C290.97 290.642 290.97 290.642 290.97 290.772C290.97 290.901 290.841 290.901 290.711 290.901H289.676C289.547 290.901 289.547 290.901 289.417 290.772C289.417 290.772 289.288 290.642 289.288 290.513L287.088 286.898V290.384C287.088 290.513 287.088 290.513 286.959 290.642C286.959 290.642 286.829 290.772 286.7 290.772H286.183C286.053 290.772 286.053 290.772 285.924 290.642C285.924 290.642 285.794 290.513 285.794 290.384V280.571C285.794 280.442 285.794 280.442 285.924 280.313C286.053 280.313 286.053 280.184 286.183 280.184H286.829C286.959 280.184 286.959 280.184 287.088 280.313C287.218 280.313 287.218 280.442 287.218 280.571V286.511L289.029 283.799C289.029 283.67 289.159 283.67 289.159 283.67C289.288 283.67 289.288 283.541 289.417 283.541H290.323C290.452 283.541 290.452 283.541 290.582 283.67C290.582 283.799 290.582 283.799 290.582 283.928L288.641 286.64L290.97 290.513ZM297.051 290.513C297.051 290.642 297.051 290.642 297.051 290.772C297.051 290.772 296.922 290.901 296.793 290.901H296.146C296.016 290.901 296.016 290.901 295.887 290.901C295.757 290.901 295.757 290.772 295.757 290.642L295.628 289.997C295.369 290.384 295.11 290.642 294.722 290.772C294.334 290.901 293.946 291.03 293.558 291.03C293.04 291.03 292.523 290.901 292.134 290.513C291.746 290.126 291.617 289.48 291.617 288.964C291.617 288.576 291.617 288.318 291.746 287.931C291.876 287.673 292.005 287.414 292.264 287.285C292.523 287.156 292.781 287.027 293.04 286.898C293.299 286.769 293.558 286.769 293.946 286.769L295.499 286.64V286.252C295.499 285.865 295.369 285.607 295.24 285.348C294.981 285.09 294.593 284.961 294.205 285.09C293.946 285.09 293.687 285.09 293.428 285.219L292.781 285.348C292.652 285.348 292.652 285.348 292.523 285.348C292.393 285.348 292.393 285.219 292.393 285.219L292.264 284.703C292.264 284.574 292.264 284.445 292.393 284.315C292.393 284.315 292.393 284.315 292.523 284.315C292.781 284.186 293.04 284.186 293.299 284.186C293.687 284.057 293.946 284.057 294.334 284.057C294.722 284.057 295.24 284.057 295.628 284.315C295.887 284.445 296.146 284.574 296.404 284.832C296.663 285.09 296.793 285.348 296.793 285.607C296.922 285.994 296.922 286.252 296.922 286.64V289.222C296.922 289.351 296.922 289.609 296.922 289.739C296.922 289.997 296.922 290.126 297.051 290.384V290.513ZM295.628 287.414H294.593C294.205 287.414 293.817 287.543 293.428 287.673C293.17 287.931 292.911 288.318 293.04 288.706C293.04 288.964 293.17 289.222 293.299 289.48C293.428 289.609 293.687 289.739 293.946 289.739C294.205 289.739 294.334 289.739 294.593 289.609C294.722 289.48 294.981 289.351 295.11 289.222C295.24 289.093 295.369 288.964 295.499 288.706C295.628 288.576 295.628 288.447 295.628 288.318V287.414ZM307.532 290.513C307.532 290.642 307.532 290.642 307.532 290.772C307.532 290.772 307.403 290.901 307.273 290.901H306.626C306.497 290.901 306.497 290.901 306.367 290.901C306.238 290.901 306.238 290.772 306.238 290.642L306.109 289.997C305.85 290.384 305.591 290.642 305.203 290.772C304.815 290.901 304.427 291.03 304.038 291.03C303.521 291.03 303.003 290.901 302.615 290.513C302.227 290.126 302.098 289.48 302.098 288.964C302.098 288.576 302.098 288.318 302.227 287.931C302.356 287.673 302.486 287.414 302.744 287.285C303.003 287.156 303.262 287.027 303.521 286.898C303.78 286.769 304.038 286.769 304.427 286.769L305.979 286.64V286.252C305.979 285.865 305.979 285.607 305.72 285.348C305.462 285.09 305.073 284.961 304.685 285.09C304.427 285.09 304.168 285.09 303.909 285.219L303.262 285.348C303.133 285.348 303.133 285.348 303.003 285.348C302.874 285.348 302.874 285.219 302.874 285.219L302.744 284.703C302.744 284.574 302.744 284.445 302.874 284.315C302.874 284.315 302.874 284.315 303.003 284.315C303.262 284.186 303.521 284.186 303.78 284.186C304.168 284.057 304.427 284.057 304.815 284.057C305.203 284.057 305.72 284.057 306.109 284.315C306.367 284.445 306.626 284.574 306.885 284.832C307.144 285.09 307.273 285.348 307.273 285.607C307.403 285.994 307.402 286.252 307.402 286.64V289.222C307.402 289.351 307.402 289.609 307.402 289.739C307.402 289.997 307.403 290.126 307.532 290.384V290.513ZM306.109 287.414H305.203C304.815 287.414 304.427 287.543 304.038 287.673C303.65 287.931 303.521 288.318 303.65 288.706C303.65 288.964 303.78 289.222 303.909 289.48C304.038 289.609 304.297 289.739 304.556 289.739C304.815 289.739 304.944 289.739 305.203 289.609C305.332 289.48 305.591 289.351 305.72 289.222C305.85 289.093 305.979 288.964 306.109 288.706C306.109 288.576 306.238 288.447 306.238 288.318V287.414H306.109ZM322.024 290.513C322.024 290.642 321.894 290.772 321.765 290.772H320.859C320.73 290.772 320.6 290.642 320.6 290.513L320.212 283.799C320.212 283.67 320.212 283.412 320.212 283.283V281.862C320.212 281.991 320.212 281.991 320.212 282.12C320.212 282.25 320.212 282.508 320.083 282.637C319.953 282.766 319.953 283.024 319.953 283.283L319.824 283.799L318.401 289.48C318.401 289.739 318.271 289.868 318.013 289.868H316.977C316.848 289.868 316.589 289.739 316.589 289.48L315.166 283.799L315.037 283.283L314.907 282.637C314.907 282.508 314.778 282.25 314.778 282.12C314.778 282.25 314.778 282.508 314.778 282.637C314.778 282.766 314.778 283.024 314.778 283.283C314.778 283.541 314.778 283.67 314.778 283.799L314.39 290.513C314.39 290.642 314.26 290.772 314.131 290.772H313.225C313.096 290.772 313.096 290.772 313.096 290.642C313.096 290.513 313.096 290.513 313.096 290.384L313.872 281.087C313.872 280.958 313.872 280.958 314.001 280.829C314.131 280.829 314.131 280.7 314.26 280.7H315.554C315.683 280.7 315.683 280.7 315.813 280.829L315.942 280.958L317.366 286.898C317.366 287.027 317.366 287.156 317.495 287.285C317.495 287.414 317.495 287.673 317.624 287.802C317.624 287.931 317.624 288.189 317.624 288.318C317.624 288.189 317.624 288.06 317.754 287.802C317.883 287.543 317.754 287.414 317.754 287.285C317.754 287.156 317.883 286.898 317.883 286.898L319.306 280.958C319.306 280.829 319.306 280.829 319.436 280.829C319.436 280.829 319.565 280.7 319.695 280.7H320.988C321.118 280.7 321.377 280.829 321.377 280.958L322.024 290.513ZM328.881 290.513C328.881 290.642 328.881 290.642 328.881 290.772C328.881 290.772 328.752 290.901 328.622 290.901H327.976C327.846 290.901 327.846 290.901 327.717 290.901C327.587 290.901 327.587 290.772 327.587 290.642L327.458 289.997C327.199 290.384 326.94 290.642 326.552 290.772C326.164 290.901 325.776 291.03 325.388 291.03C324.87 291.03 324.353 290.901 323.964 290.513C323.576 290.126 323.447 289.48 323.447 288.964C323.447 288.576 323.447 288.318 323.576 287.931C323.706 287.673 323.835 287.414 324.094 287.285C324.353 287.156 324.611 287.027 324.87 286.898C325.129 286.769 325.388 286.769 325.776 286.769L327.329 286.64V286.252C327.329 285.865 327.329 285.607 327.07 285.348C326.811 285.09 326.423 284.961 326.035 285.09C325.776 285.09 325.517 285.09 325.258 285.219L324.611 285.348C324.482 285.348 324.482 285.348 324.353 285.348C324.223 285.348 324.223 285.219 324.223 285.219L324.094 284.703C324.094 284.574 324.094 284.445 324.223 284.315C324.223 284.315 324.223 284.315 324.353 284.315C324.611 284.186 324.87 284.186 325.129 284.186C325.517 284.057 325.776 284.057 326.164 284.057C326.552 284.057 327.07 284.057 327.458 284.315C327.717 284.445 327.976 284.574 328.234 284.832C328.364 285.09 328.493 285.348 328.622 285.607C328.752 285.994 328.752 286.252 328.752 286.64V289.868C328.752 290.126 328.752 290.255 328.881 290.513ZM327.329 287.414H326.423C326.035 287.414 325.646 287.543 325.258 287.673C324.87 287.931 324.741 288.318 324.87 288.706C324.87 288.964 325 289.222 325.129 289.48C325.258 289.609 325.517 289.739 325.776 289.739C326.035 289.739 326.164 289.739 326.423 289.609C326.552 289.48 326.811 289.351 326.94 289.222C327.07 289.093 327.199 288.964 327.329 288.706C327.329 288.576 327.458 288.447 327.458 288.318V287.414H327.329ZM335.998 290.513C335.998 290.642 335.998 290.642 335.868 290.772C335.868 290.772 335.739 290.901 335.61 290.901H335.092C334.963 290.901 334.833 290.772 334.704 290.642L334.574 289.868L334.186 290.255C334.057 290.384 333.927 290.513 333.798 290.642C333.669 290.772 333.41 290.772 333.281 290.901C333.022 291.03 332.763 291.03 332.504 291.03C331.598 291.159 330.822 290.384 330.693 289.48C330.693 289.351 330.693 289.222 330.693 289.093V284.057C330.693 283.928 330.693 283.928 330.822 283.799C330.952 283.799 330.951 283.67 331.081 283.67H331.728C331.857 283.67 331.857 283.67 331.987 283.799C332.116 283.799 332.116 283.928 332.116 284.057V288.835C332.116 289.093 332.116 289.351 332.375 289.48C332.504 289.609 332.763 289.739 333.022 289.739C333.41 289.739 333.927 289.609 334.186 289.222C334.574 288.706 334.704 288.189 334.704 287.673V284.057C334.704 283.928 334.704 283.928 334.833 283.799C334.833 283.799 334.963 283.67 335.092 283.67H335.739C335.868 283.67 335.868 283.67 335.998 283.799C336.127 283.799 336.127 283.928 336.127 284.057L335.998 290.513ZM339.879 281.217C339.879 281.475 339.75 281.733 339.621 281.862C339.491 281.991 339.232 282.12 338.974 282.12C338.715 282.12 338.456 281.991 338.327 281.862C337.939 281.475 337.939 280.958 338.327 280.571C338.456 280.442 338.715 280.313 338.974 280.313C339.491 280.313 339.879 280.7 339.879 281.217ZM339.621 290.513C339.621 290.642 339.621 290.642 339.491 290.772C339.491 290.772 339.362 290.901 339.232 290.901H338.586C338.456 290.901 338.456 290.901 338.327 290.772C338.327 290.772 338.197 290.642 338.197 290.513V284.057C338.197 283.928 338.197 283.928 338.327 283.799C338.327 283.799 338.456 283.67 338.586 283.67H339.232C339.362 283.67 339.362 283.67 339.491 283.799C339.621 283.799 339.621 283.928 339.621 284.057V290.513ZM324.482 282.637C324.353 282.637 324.353 282.637 324.223 282.508C324.223 282.508 324.094 282.379 324.094 282.25V281.604C324.094 281.475 324.094 281.475 324.223 281.346C324.223 281.346 324.353 281.217 324.482 281.217H328.493C328.622 281.217 328.622 281.217 328.752 281.346C328.752 281.346 328.881 281.475 328.881 281.604V282.25C328.881 282.379 328.881 282.379 328.752 282.508C328.752 282.508 328.622 282.637 328.493 282.637H324.482Z" fill="white"/>
<path d="M247.108 143.316C254.483 150.16 262.506 152.613 269.105 152.613C278.809 152.613 287.478 149.772 293.43 147.706C293.559 147.706 293.559 147.706 293.559 147.835C293.559 147.965 293.43 147.964 293.43 147.964C285.149 151.063 277.256 153.775 266.258 153.775C255.519 153.775 246.979 150.805 240.639 144.607C241.027 142.412 241.803 140.217 242.709 137.893C243.873 140.088 245.426 141.767 247.108 143.316ZM262.506 144.349C266.646 146.802 271.304 147.706 275.833 147.706C281.008 147.706 285.278 146.802 289.807 145.382C289.936 145.382 289.936 145.382 289.936 145.511C289.936 145.64 289.807 145.64 289.807 145.64C285.149 147.19 279.585 148.352 273.892 148.352C268.069 148.352 262.247 147.319 258.106 144.866L257.718 144.607C253.06 141.638 248.661 137.377 245.297 132.212C246.591 130.146 248.143 128.08 249.825 126.272C252.543 135.569 257.201 141.25 262.506 144.349ZM300.417 137.506C295.112 141.121 288.642 143.574 281.008 143.833C266.646 144.349 257.589 135.698 254.483 122.011C256.036 120.591 257.848 119.3 259.53 118.138C261.471 131.824 268.458 143.445 281.267 143.445C292.136 143.445 303.393 136.473 309.992 126.918L309.604 127.951C307.145 131.954 304.04 134.923 300.417 137.506ZM300.546 134.794C303.652 132.083 306.886 129.113 308.698 124.723C312.45 115.813 308.18 108.583 297.829 108.583C291.36 108.583 284.373 111.682 278.938 116.846H278.809C278.809 116.846 278.679 116.846 278.809 116.717C284.502 110.39 293.042 105.871 300.417 105.871C310.38 105.871 314.65 113.747 310.121 123.432C308.18 127.693 304.687 131.566 300.676 134.665C300.805 134.923 300.676 134.923 300.546 134.794ZM122.894 255.651H115.389C113.19 255.651 111.249 253.844 111.249 251.778V188.121C111.249 177.662 107.755 173.401 99.0861 173.401C86.2764 173.401 76.184 184.247 76.184 197.676V251.649C76.184 253.844 74.2432 255.522 72.0435 255.522H64.5389C62.3393 255.522 60.3984 253.714 60.3984 251.649V165.008C60.3984 162.684 62.3393 161.135 64.5389 161.135H68.9382C71.6554 161.135 72.8199 161.91 73.4668 164.234L75.6665 173.789C84.2062 163.975 92.6166 160.102 102.838 160.102C117.589 160.102 127.034 169.915 127.034 184.635V251.778C127.034 253.973 125.093 255.651 122.894 255.651ZM248.143 255.651H240.639C238.439 255.651 236.498 253.844 236.498 251.778V183.085C236.498 177.017 233.522 173.918 227.441 173.918C215.796 173.918 205.703 184.118 205.703 197.676V251.778C205.703 253.973 203.763 255.651 201.563 255.651H194.058C191.859 255.651 189.918 253.844 189.918 251.778V183.085C189.918 177.017 186.812 173.918 180.602 173.918C168.957 173.918 159.123 184.118 159.123 197.676V251.778C159.123 253.973 157.182 255.651 154.983 255.651H147.478C145.278 255.651 143.337 253.844 143.337 251.778V165.008C143.337 162.684 145.278 161.135 147.478 161.135H151.877C154.594 161.135 155.759 161.91 156.406 164.234L158.605 173.66C164.169 167.204 173.227 160.102 183.707 160.102C194.188 160.102 202.21 165.654 204.021 174.563C212.044 165.008 220.583 160.102 230.805 160.102C239.474 160.102 252.284 163.588 252.284 180.374V251.778C252.284 253.973 250.343 255.651 248.143 255.651ZM280.491 255.651H273.374C271.175 255.651 269.234 253.844 269.234 251.778V165.008C269.234 162.813 271.175 161.135 273.374 161.135H280.491C282.691 161.135 284.631 162.943 284.631 165.008V251.778C284.631 253.973 282.691 255.651 280.491 255.651ZM337.293 255.264C334.576 256.039 330.565 256.684 326.424 256.684C312.968 256.684 306.757 250.616 306.757 238.091V173.66H295.888C293.559 173.66 291.877 171.723 291.877 169.528V165.267C291.877 163.072 293.43 161.135 295.888 161.135H306.757V141.25C306.757 139.055 307.922 137.506 309.733 136.989L316.979 134.407C319.308 133.632 322.154 133.374 322.154 136.602V161.135H333.153C335.352 161.135 337.034 163.072 337.034 165.267V169.528C337.034 171.723 335.223 173.66 333.153 173.66H322.154V236.025C322.154 241.319 324.354 243.643 329.271 243.643C330.824 243.643 333.411 243.256 335.352 242.868C337.293 242.481 339.105 243.901 339.493 245.967L340.269 250.099C340.657 252.552 340.14 254.489 337.293 255.264Z" fill="white"/>
</g>
<defs>
<clipPath id="clip0_4574_2060">
<rect width="280" height="188" fill="white" transform="translate(60.3984 106)"/>
</clipPath>
</defs>
</svg>
