<svg width="400" height="400" viewBox="0 0 400 400" fill="none" xmlns="http://www.w3.org/2000/svg">
<rect width="400" height="400" fill="#F78200"/>
<path fill-rule="evenodd" clip-rule="evenodd" d="M338.04 292.411L338.012 292.414L338.253 333.548L298.733 296.557L59.7383 321.768V144.065C59.7383 144.065 59.7353 112.706 77.8887 98.6256C96.0419 84.5461 115.917 84.1678 115.917 84.1678C115.917 84.1678 128.348 83.5819 138.389 92.2435C142.723 95.9822 144.601 97.9767 145.338 99.0393C145.301 99.7759 145.303 100.219 145.303 100.219C145.303 100.219 146.31 100.438 145.338 99.0393C145.53 95.3056 146.77 83.8789 154.81 82.6771C164.436 81.2373 187.654 80.0828 187.654 80.0828L199.754 95.3457C199.754 95.3457 210.556 76.3519 215.31 75.4244C220.065 74.4961 244.696 72.324 244.696 72.324C244.696 72.324 254.437 72.823 253.34 87.0815C253.236 88.4275 253.111 89.4134 253.001 90.0888C252.726 91.7728 252.542 91.5231 253.001 90.0888C254.306 86.0043 260.824 72.3108 285.318 66.298C321.862 57.3276 336.149 89.9933 338.04 99.9086C339.93 109.825 338.04 292.411 338.04 292.411Z" fill="white"/>
<path fill-rule="evenodd" clip-rule="evenodd" d="M141.504 98.2617H151.491V107.67H141.504V98.2617Z" fill="white"/>
<path d="M107.839 233.486C100.87 234.221 94.5146 233.105 88.7719 230.138C83.0292 227.171 78.4158 222.915 74.9315 217.371C71.4471 211.827 69.7051 205.481 69.7051 198.335L69.8986 136.534C69.8986 129.388 71.6085 122.711 75.0283 116.503C78.4481 110.296 83.0616 105.132 88.8688 101.011C94.6758 96.8904 100.999 94.4694 107.839 93.7478C114.807 93.0128 121.131 94.0996 126.809 97.0088C132.487 99.9179 137.036 104.115 140.456 109.601C143.875 115.088 145.585 121.404 145.585 128.55L145.779 190.31C145.779 197.456 144.069 204.166 140.649 210.438C137.229 216.711 132.648 221.937 126.905 226.115C121.163 230.294 114.807 232.751 107.839 233.486ZM107.839 209.904C111.71 209.496 115.098 207.547 118.001 204.057C120.905 200.568 122.357 196.809 122.357 192.781L122.163 131.02C122.163 126.733 120.808 123.238 118.098 120.535C115.388 117.833 111.968 116.699 107.839 117.135C103.838 117.557 100.418 119.379 97.5795 122.602C94.7403 125.825 93.3208 129.646 93.3208 134.063V195.844C93.3208 200.132 94.7403 203.653 97.5795 206.407C100.418 209.16 103.838 210.326 107.839 209.904Z" fill="#F78200"/>
<path d="M157.393 226.311C156.877 226.365 156.619 226.068 156.619 225.418L157.006 91.4854C157.006 90.9657 157.264 90.6787 157.781 90.6241L181.396 88.133C181.912 88.0784 182.364 88.2908 182.751 88.7695L200.366 112.637L217.981 85.0533C218.368 84.4927 218.82 84.1852 219.336 84.1306L243.146 81.6191C243.662 81.5647 243.92 81.7973 243.92 82.3169L244.307 216.168C244.307 216.817 244.049 217.169 243.533 217.224L221.659 219.531C221.143 219.586 220.885 219.288 220.885 218.639L220.691 119.263L200.366 151.031L180.235 123.531L180.041 222.947C180.041 223.597 179.783 223.949 179.267 224.003L157.393 226.311Z" fill="#F78200"/>
<path d="M292.118 214.047C285.149 214.782 278.826 213.695 273.148 210.786C267.47 207.877 262.92 203.647 259.501 198.096C256.081 192.545 254.371 186.131 254.371 178.856V117.074C254.371 110.058 256.081 103.414 259.501 97.1413C262.92 90.8688 267.502 85.6755 273.244 81.5617C278.987 77.4478 285.278 75.0302 292.118 74.3087C299.215 73.56 305.635 74.6043 311.378 77.4416C317.12 80.2789 321.67 84.4439 325.025 89.9369C328.38 95.4296 330.057 101.814 330.057 109.09V118.055C330.057 118.575 329.735 118.869 329.09 118.937L307.41 121.224C306.894 121.278 306.635 121.046 306.635 120.526V113.12C306.635 108.183 305.248 104.236 302.474 101.281C299.699 98.3253 296.247 97.0653 292.118 97.501C288.375 97.8958 285.052 99.8054 282.149 103.23C279.245 106.655 277.793 110.446 277.793 114.603V176.385C277.793 180.672 279.213 184.193 282.052 186.947C284.891 189.701 288.246 190.874 292.118 190.465C296.247 190.03 299.699 188.171 302.474 184.89C305.248 181.609 306.635 177.76 306.635 173.342V163.792L293.085 165.222C292.44 165.29 292.118 164.999 292.118 164.349V142.521C292.118 141.872 292.44 141.513 293.085 141.445L329.283 137.626C329.799 137.572 330.057 137.869 330.057 138.519V170.871C330.057 178.147 328.348 184.922 324.928 191.194C321.508 197.467 316.959 202.656 311.281 206.763C305.603 210.87 299.215 213.299 292.118 214.047Z" fill="#F78200"/>
<path d="M102.711 246.406V288.905C102.711 290.701 102.393 292.39 101.755 293.972C101.118 295.553 100.213 296.996 99.0406 298.3C97.868 299.604 96.517 300.671 94.9877 301.499C93.4583 302.328 91.8271 302.833 90.0938 303.016C88.3606 303.199 86.7419 303.036 85.2379 302.528C83.7342 302.019 82.396 301.236 81.2235 300.18C80.0509 299.123 79.1333 297.872 78.4706 296.428C77.8079 294.984 77.4766 293.363 77.4766 291.567V249.068L85.2763 248.245V289.974C85.2763 291.925 85.7351 293.313 86.6526 294.141C87.5702 294.967 88.7173 295.308 90.0938 295.163C91.4702 295.018 92.6172 294.435 93.5348 293.415C94.4524 292.394 94.9114 290.908 94.9114 288.958V247.229L102.711 246.406Z" fill="#F78200"/>
<path d="M123.051 299.079V244.262L134.444 243.06C136.943 242.797 139.071 242.957 140.83 243.542C142.588 244.126 144.029 245.001 145.15 246.166C146.272 247.33 147.075 248.721 147.559 250.338C148.043 251.955 148.285 253.662 148.285 255.459V257.46C148.285 258.949 148.171 260.218 147.941 261.269C147.712 262.32 147.368 263.254 146.909 264.073C146.042 265.601 144.717 266.973 142.933 268.188C144.768 268.867 146.119 270.007 146.985 271.61C147.852 273.212 148.285 275.476 148.285 278.402V281.481C148.285 286.306 147.126 290.124 144.806 292.935C142.486 295.746 138.778 297.42 133.68 297.958L123.051 299.079ZM130.851 272.85V290.404L134.215 290.049C135.795 289.882 137.032 289.521 137.924 288.964C138.816 288.409 139.492 287.696 139.95 286.826C140.409 285.956 140.69 284.952 140.791 283.812C140.893 282.672 140.944 281.434 140.944 280.1C140.944 278.714 140.868 277.516 140.715 276.506C140.562 275.495 140.256 274.655 139.797 273.985C139.288 273.32 138.599 272.866 137.733 272.624C136.866 272.382 135.719 272.336 134.292 272.487L130.851 272.85ZM130.851 250.831V265.921L134.368 265.55C136.968 265.275 138.714 264.437 139.606 263.034C140.498 261.631 140.944 259.672 140.944 257.157C140.944 254.693 140.447 252.898 139.453 251.771C138.459 250.644 136.662 250.218 134.062 250.492L130.851 250.831Z" fill="#F78200"/>
<path d="M193.861 236.791V279.29C193.861 281.086 193.543 282.775 192.906 284.356C192.268 285.938 191.363 287.381 190.191 288.685C189.018 289.989 187.667 291.055 186.138 291.884C184.609 292.713 182.977 293.218 181.244 293.401C179.511 293.584 177.892 293.421 176.388 292.913C174.885 292.404 173.546 291.621 172.374 290.564C171.201 289.507 170.284 288.257 169.621 286.813C168.958 285.369 168.627 283.748 168.627 281.952V239.453L176.427 238.63V280.359C176.427 282.309 176.885 283.698 177.803 284.525C178.721 285.352 179.868 285.693 181.244 285.548C182.621 285.403 183.768 284.82 184.685 283.799C185.603 282.779 186.062 281.293 186.062 279.343V237.614L193.861 236.791Z" fill="#F78200"/>
<path d="M213.896 289.494V234.676L221.39 233.886L233.166 265.672L233.319 265.656V232.627L241.119 231.805V286.622L233.778 287.396L221.849 255.703L221.696 255.719V288.671L213.896 289.494Z" fill="#F78200"/>
<path d="M266.277 283.969V236.543L257.254 237.495V230.103L283.1 227.377V234.768L274.077 235.72V283.146L266.277 283.969Z" fill="#F78200"/>
<path d="M324.774 222.98V265.479C324.774 267.275 324.455 268.965 323.818 270.546C323.181 272.127 322.276 273.57 321.103 274.874C319.931 276.178 318.58 277.245 317.05 278.073C315.521 278.902 313.89 279.408 312.156 279.591C310.423 279.773 308.804 279.61 307.301 279.102C305.797 278.593 304.458 277.811 303.286 276.754C302.113 275.697 301.196 274.446 300.533 273.002C299.87 271.558 299.539 269.938 299.539 268.141V225.642L307.339 224.82V266.548C307.339 268.499 307.798 269.888 308.715 270.715C309.633 271.542 310.78 271.883 312.156 271.738C313.533 271.592 314.68 271.009 315.597 269.989C316.515 268.968 316.974 267.482 316.974 265.532V223.803L324.774 222.98Z" fill="#F78200"/>
</svg>
