<svg width="400" height="400" viewBox="0 0 400 400" fill="none" xmlns="http://www.w3.org/2000/svg">
<rect width="400" height="400" fill="#F23C2C"/>
<path d="M153.609 199.872V102.708C153.609 97.5014 156.407 96.4617 159.841 100.35L192.571 137.642C196.001 141.546 196.372 148.211 193.386 152.475L159.024 201.585C156.038 205.839 153.609 205.074 153.609 199.872ZM332.764 197.88L266.915 238.456C262.25 241.338 258.087 239.211 257.69 233.717L248.305 103.564C247.916 98.0659 245.168 97.3702 242.21 102.016L162.711 226.986C159.749 231.633 153.568 232.965 148.984 229.948L104.315 200.718C99.7099 197.693 92.9056 198.546 89.1802 202.603L58.2237 236.269C54.5043 240.328 55.5591 241.797 60.5771 239.545L94.4956 224.336C99.5156 222.082 106.262 223.879 109.54 228.316L160.223 297.296C163.473 301.743 170.132 303.252 174.978 300.663L197.998 288.382C202.853 285.794 210.8 285.77 215.667 288.325L239.159 300.701C244.02 303.275 250.86 301.902 254.383 297.654L334.873 200.331C338.393 196.093 337.445 194.985 332.764 197.88Z" fill="white"/>
</svg>
