<svg width="400" height="400" viewBox="0 0 400 400" fill="none" xmlns="http://www.w3.org/2000/svg">
<rect width="400" height="400" fill="#128F4D"/>
<path d="M273.131 264.768C229.944 307.895 176.773 303.166 142.469 288.391C132.556 297.07 119.739 317.23 119.739 317.23C115.528 324.355 94.2403 316.484 96.1365 307.753C108.335 278.285 149.624 197.718 235.353 160.014C237.648 158.509 239.403 157.818 241.538 156.976C242.975 156.41 244.584 155.776 246.645 154.781C173.112 163.231 134.767 195.358 99.1565 251.949C98.3189 253.28 96.2951 253.071 95.7415 251.599C62.1392 162.283 131.791 110.019 196.237 100.677L305.989 81.0325C307.052 80.8422 308.074 81.5055 308.296 82.561C320.299 139.458 309.596 228.354 273.131 264.768Z" fill="white"/>
</svg>
