<svg width="400" height="400" viewBox="0 0 400 400" fill="none" xmlns="http://www.w3.org/2000/svg">
<rect width="400" height="400" fill="#38BDF8"/>
<path d="M223.4 96C232.591 96.0002 241.685 97.8745 250.127 101.508C258.569 105.142 266.181 110.46 272.498 117.135C278.815 123.811 283.705 131.704 286.868 140.333C290.032 148.963 291.402 158.146 290.896 167.323C291.111 168.915 290.969 170.535 290.48 172.066C289.027 183.507 284.675 194.388 277.837 203.676C270.999 212.964 261.901 220.351 251.407 225.137L256.94 241.725C257.876 241.642 258.829 241.6 259.8 241.6C265.971 241.6 272.003 243.43 277.134 246.858C282.265 250.286 286.264 255.159 288.625 260.86C290.986 266.561 291.604 272.835 290.4 278.887C289.197 284.939 286.225 290.498 281.862 294.862C277.498 299.225 271.939 302.197 265.887 303.4C259.835 304.604 253.561 303.986 247.86 301.625C242.159 299.264 237.286 295.265 233.858 290.134C230.43 285.003 228.6 278.971 228.6 272.8L228.652 270.97C229.105 263.236 232.42 255.948 237.95 250.523L231.356 230.732C228.742 231.044 226.09 231.2 223.4 231.2H195.58C191.787 231.2 188.057 230.912 184.39 230.337L177.65 250.523C181.322 254.125 184.046 258.579 185.58 263.488C187.114 268.397 187.411 273.609 186.443 278.661C185.476 283.712 183.276 288.446 180.037 292.442C176.798 296.437 172.622 299.57 167.88 301.561C163.138 303.552 157.977 304.34 152.856 303.855C147.736 303.37 142.815 301.626 138.532 298.78C134.248 295.933 130.735 292.072 128.304 287.539C125.873 283.006 124.601 277.943 124.6 272.8L124.642 270.97C124.886 266.792 125.969 262.706 127.825 258.955C129.681 255.205 132.272 251.866 135.445 249.137C138.618 246.409 142.308 244.346 146.294 243.073C150.281 241.799 154.482 241.341 158.65 241.725L164.474 224.232C155.578 220.031 147.627 214.072 141.099 206.713C134.571 199.354 129.602 190.748 126.493 181.415L111.912 137.6H93.4C90.8527 137.6 88.3941 136.664 86.4905 134.972C84.587 133.279 83.3708 130.947 83.0728 128.417L83 127.2C83 124.442 84.0957 121.796 86.0461 119.846C87.9965 117.896 90.6417 116.8 93.4 116.8H119.4C121.584 116.799 123.712 117.486 125.483 118.763C127.255 120.04 128.58 121.842 129.27 123.914L140.751 158.4H207.8V106.4C207.8 103.642 208.896 100.996 210.846 99.0461C212.796 97.0957 215.442 96 218.2 96H223.4ZM155.8 262.4C153.042 262.4 150.396 263.496 148.446 265.446C146.496 267.396 145.4 270.042 145.4 272.8C145.4 275.558 146.496 278.204 148.446 280.154C150.396 282.104 153.042 283.2 155.8 283.2C158.558 283.2 161.204 282.104 163.154 280.154C165.104 278.204 166.2 275.558 166.2 272.8C166.2 270.042 165.104 267.396 163.154 265.446C161.204 263.496 158.558 262.4 155.8 262.4ZM259.8 262.4C257.042 262.4 254.396 263.496 252.446 265.446C250.496 267.396 249.4 270.042 249.4 272.8C249.4 275.558 250.496 278.204 252.446 280.154C254.396 282.104 257.042 283.2 259.8 283.2C262.558 283.2 265.204 282.104 267.154 280.154C269.104 278.204 270.2 275.558 270.2 272.8C270.2 270.042 269.104 267.396 267.154 265.446C265.204 263.496 262.558 262.4 259.8 262.4Z" fill="white"/>
</svg>
