<svg width="400" height="400" viewBox="0 0 400 400" fill="none" xmlns="http://www.w3.org/2000/svg">
<rect width="400" height="400" fill="#00A2C7"/>
<path d="M118.402 243.755C139.107 243.755 156.542 261.183 156.542 281.877C156.542 302.572 139.107 319.999 118.402 319.999C97.6976 319.999 80.2626 302.572 80.2626 281.877C80.2627 261.183 97.6977 243.755 118.402 243.755ZM263.52 248.296C282.025 238.238 305.184 245.079 315.247 263.574C325.31 282.07 318.467 305.218 299.962 315.277C281.457 325.335 258.298 318.494 248.235 299.998C238.172 281.502 245.016 258.354 263.52 248.296ZM164.971 266.301C173.501 247.051 196.03 238.358 215.289 246.884C234.548 255.411 243.246 277.928 234.716 297.178C226.185 316.428 203.657 325.121 184.397 316.595C165.138 308.068 156.44 285.551 164.971 266.301ZM118.402 254.648C103.146 254.648 90.0695 266.629 91.1591 281.877C91.1591 297.126 103.146 309.107 118.402 309.107C133.658 309.107 145.645 297.126 145.645 281.877C145.645 274.253 143.466 267.718 138.017 262.272C132.569 257.915 126.03 254.648 118.402 254.648ZM200.129 162.069C220.833 162.069 238.269 179.496 238.269 200.191C238.269 220.885 220.833 238.312 200.129 238.312C179.424 238.312 161.989 220.885 161.989 200.191C161.989 179.496 179.424 162.069 200.129 162.069ZM263.574 166.605C282.079 156.546 305.237 163.386 315.301 181.882C325.364 200.378 318.521 223.526 300.017 233.584C281.512 243.643 258.352 236.803 248.289 218.307C238.226 199.811 245.069 176.663 263.574 166.605ZM83.2773 184.447C91.8079 165.197 114.336 156.504 133.596 165.03C152.855 173.557 161.552 196.074 153.021 215.324C144.491 234.575 121.963 243.268 102.703 234.741C83.4438 226.215 74.7467 203.698 83.2773 184.447ZM200.129 172.96C184.873 172.96 171.796 184.942 172.886 200.191C172.886 207.815 175.065 214.35 180.514 219.796C185.962 224.153 192.501 227.42 200.129 227.42C215.385 227.42 227.372 215.439 227.372 200.191C227.372 192.566 225.192 186.031 219.744 180.585C214.295 176.228 207.757 172.96 200.129 172.96ZM281.86 80.3791C302.565 80.3791 320.001 97.8065 320.001 118.501C320.001 139.196 302.565 156.622 281.86 156.622C261.156 156.622 243.721 139.196 243.721 118.501C243.721 97.8066 261.156 80.3792 281.86 80.3791ZM165.17 102.791C173.7 83.541 196.229 74.8478 215.488 83.3742C234.748 91.9008 243.446 114.418 234.915 133.668C226.384 152.918 203.856 161.612 184.597 153.085C165.337 144.559 156.64 122.041 165.17 102.791ZM83.373 102.693C91.9036 83.4424 114.432 74.7492 133.691 83.2756C152.951 91.8021 161.649 114.319 153.118 133.57C144.587 152.82 122.059 161.513 102.8 152.987C83.5403 144.46 74.8425 121.943 83.373 102.693ZM281.86 90.1819C266.604 90.1819 254.617 102.163 254.617 117.411C254.617 132.66 266.604 144.642 281.86 144.642C297.116 144.642 309.103 132.66 309.103 117.411C309.103 102.163 297.116 90.1819 281.86 90.1819Z" fill="white"/>
</svg>
