<svg width="400" height="400" viewBox="0 0 400 400" fill="none" xmlns="http://www.w3.org/2000/svg">
<rect width="400" height="400" fill="#18445F"/>
<g clip-path="url(#clip0_4574_1846)">
<path fill-rule="evenodd" clip-rule="evenodd" d="M260.563 139.444C274.483 153.163 292.875 160.733 312.441 160.731L334.01 160.733L329.442 149.491H312.441C295.878 149.491 280.308 143.09 268.512 131.495C256.912 119.699 250.514 104.127 250.514 87.5631V70.0841L239.272 66.4749V87.5631C239.272 107.13 246.842 125.526 260.563 139.444ZM312.41 130.809H321.097L313.642 119.567H312.41C303.845 119.567 295.796 116.287 289.65 110.354C283.717 104.206 280.435 96.1565 280.435 87.5913V86.3593L269.193 78.9043V87.5913C269.193 99.1581 273.642 110.032 281.7 118.303C289.969 126.359 300.843 130.809 312.41 130.809ZM139.437 139.442C153.157 125.524 160.729 107.13 160.728 87.5631L160.729 66.4749L149.485 70.0841V87.5631C149.485 104.124 143.087 119.697 131.489 131.491C119.691 143.087 104.122 149.488 87.5583 149.488L70.5567 149.491L65.9899 160.733L87.5569 160.731C107.126 160.731 125.519 153.163 139.437 139.442ZM118.303 118.303C126.362 110.029 130.812 99.1567 130.809 87.5913V78.9015L119.566 86.3593L119.569 87.5913C119.569 96.1565 116.29 104.204 110.357 110.352C104.209 116.287 96.1593 119.567 87.5926 119.567H86.3634L78.9056 130.806L87.5912 130.809C99.1581 130.806 110.033 126.357 118.303 118.303ZM276.781 215.744C268.369 213.426 260.229 210.288 252.454 206.371C242.977 211.719 234.147 218.344 226.216 226.216C218.342 234.149 211.716 242.983 206.364 252.462C210.274 260.24 213.423 268.376 215.741 276.784C220.809 262.939 228.738 250.196 239.417 239.417C250.194 228.742 262.935 220.811 276.781 215.744ZM199.997 241.292C205.184 233.072 211.25 225.33 218.268 218.267C225.311 211.272 233.016 205.187 241.21 199.999C233.016 194.813 225.311 188.729 218.268 181.733C211.253 174.67 205.184 166.928 199.998 158.708C194.811 166.928 188.745 174.67 181.728 181.733C174.685 188.729 166.979 194.813 158.785 199.999C166.979 205.187 174.685 211.27 181.728 218.267C188.742 225.33 194.811 233.072 199.997 241.292ZM193.64 252.462C188.29 242.983 181.662 234.149 173.789 226.216C165.859 218.344 157.027 211.719 147.553 206.371C139.774 210.288 131.636 213.426 123.225 215.742C137.067 220.811 149.811 228.739 160.589 239.417C171.266 250.194 179.194 262.939 184.262 276.784C186.581 268.376 189.729 260.24 193.64 252.462ZM147.553 193.629C157.03 188.28 165.859 181.656 173.789 173.783C181.662 165.851 188.29 157.017 193.64 147.538C189.731 139.759 186.582 131.623 184.265 123.215C179.197 137.06 171.269 149.804 160.589 160.583C149.811 171.257 137.069 179.186 123.225 184.255C131.636 186.573 139.774 189.709 147.553 193.629ZM206.369 147.538C211.719 157.017 218.345 165.851 226.219 173.783C234.15 181.656 242.979 188.28 252.456 193.629C260.232 189.711 268.372 186.573 276.784 184.258C262.941 179.189 250.197 171.257 239.42 160.583C228.741 149.806 220.815 137.06 215.746 123.215C213.428 131.623 210.28 139.759 206.369 147.538ZM312.462 209.342C312.465 209.342 340.004 209.342 340.004 209.342L339.047 220.584H312.472C287.906 220.584 264.819 230.103 247.368 247.365C230.106 264.814 220.586 287.906 220.586 312.47V339.042L209.345 340L209.342 312.496C209.342 296.076 206.124 280.158 200.002 265.444C193.881 280.158 190.664 296.076 190.661 312.496V340L179.42 339.042L179.417 312.468C179.417 287.903 169.9 264.814 152.635 247.365C135.191 230.108 112.111 220.59 87.5562 220.581C87.5394 220.581 60.9576 220.584 60.9576 220.584L60 209.342L87.5072 209.339C103.925 209.339 119.844 206.121 134.56 199.999C119.856 193.882 103.947 190.662 87.5394 190.658H60L60.9576 179.416H87.5324C112.098 179.416 135.187 169.897 152.637 152.635C169.9 135.186 179.42 112.094 179.42 87.5296V60.9576L190.661 60L190.664 87.5044C190.664 103.924 193.881 119.842 200.003 134.556C206.125 119.842 209.345 103.921 209.345 87.5044V60L220.586 60.9576L220.587 87.5324C220.587 112.097 230.106 135.186 247.369 152.635C264.814 169.892 287.895 179.41 312.45 179.419C312.468 179.419 339.047 179.416 339.047 179.416L340.004 190.658L312.497 190.661C296.079 190.658 280.16 193.876 265.444 199.999C280.149 206.118 296.058 209.338 312.462 209.342ZM139.437 260.556C125.517 246.834 107.125 239.267 87.5569 239.267H65.9899L70.5567 250.509H87.5569C104.12 250.509 119.691 256.91 131.487 268.505C143.087 280.301 149.485 295.874 149.485 312.434V329.437L160.728 334.004V312.437C160.728 292.868 153.157 274.474 139.437 260.556ZM87.5926 269.191H78.9056L86.362 280.433H87.5926C96.1578 280.433 104.208 283.713 110.352 289.646C116.286 295.792 119.567 303.841 119.567 312.406V313.641L130.811 321.096V312.409C130.811 300.842 126.36 289.968 118.304 281.697C110.033 273.642 99.1594 269.191 87.5926 269.191ZM260.56 260.558C246.84 274.474 239.269 292.87 239.272 312.437V334.004L250.514 329.437L250.513 312.437C250.513 295.874 256.912 280.303 268.509 268.509C280.306 256.913 295.876 250.512 312.44 250.512L329.442 250.509L334.01 239.267H312.441C292.872 239.267 274.481 246.837 260.56 260.558ZM312.41 269.191L321.096 269.194L313.642 280.433H312.408C303.843 280.433 295.796 283.713 289.647 289.649C283.714 295.796 280.432 303.844 280.432 312.409L280.435 313.641L269.193 321.099V312.409C269.19 300.844 273.642 289.968 281.7 281.697C289.968 273.643 300.841 269.191 312.41 269.191Z" fill="#FFFFFE"/>
</g>
<defs>
<clipPath id="clip0_4574_1846">
<rect width="280" height="280" fill="white" transform="translate(60 60)"/>
</clipPath>
</defs>
</svg>
