<svg width="400" height="400" viewBox="0 0 400 400" fill="none" xmlns="http://www.w3.org/2000/svg">
<rect width="400" height="400" fill="#004B34"/>
<path d="M119.295 254.674C129.925 254.511 134.668 246.659 145.297 246.43C156.712 246.169 161.945 254.74 173.327 254.74C184.742 254.74 189.943 246.43 201.357 246.43C212.772 246.43 217.973 254.74 229.387 254.74C240.802 254.74 246.003 246.169 257.417 246.43C268.047 246.692 272.724 254.543 283.354 254.674C283.387 254.674 283.42 254.641 283.452 254.641C258.17 282.023 216.501 304.007 201.227 310.746C189.027 305.839 143.073 283.168 116.155 254.053C117.202 254.314 118.216 254.674 119.295 254.674ZM289.34 200.533L261.277 228.896L233.181 200.533H289.34ZM203.254 168.408H259.412L231.35 196.771L203.254 168.408ZM229.453 200.533L201.39 228.896L173.295 200.533H229.453ZM173.295 136.283H229.453L201.39 164.646L173.295 136.283ZM169.533 200.533L141.471 228.896L113.375 200.533H169.533ZM143.335 168.408H199.493L171.43 196.771L143.335 168.408ZM303.829 89.3383V118.552H96.2039V89.3383H303.829ZM79.0327 72L79 212.997C79 276.592 189.125 325.598 199.297 328.28L202.044 329L204.661 327.953C205.806 327.495 321 277.541 321 212.997V72H79.0327Z" fill="white"/>
</svg>
