<svg width="400" height="400" viewBox="0 0 400 400" fill="none" xmlns="http://www.w3.org/2000/svg">
<rect width="400" height="400" fill="#004B34"/>
<path d="M119.295 258.674C129.925 258.511 134.668 250.659 145.297 250.43C156.712 250.169 161.945 258.74 173.327 258.74C184.742 258.74 189.943 250.43 201.357 250.43C212.772 250.43 217.973 258.74 229.387 258.74C240.802 258.74 246.003 250.169 257.417 250.43C268.047 250.692 272.724 258.543 283.354 258.674C283.387 258.674 283.42 258.641 283.452 258.641C258.17 286.023 216.501 308.007 201.227 314.746C189.027 309.839 143.073 287.168 116.155 258.053C117.202 258.314 118.216 258.674 119.295 258.674ZM289.34 204.533L261.277 232.896L233.181 204.533H289.34ZM203.254 172.408H259.412L231.35 200.771L203.254 172.408ZM229.453 204.533L201.39 232.896L173.295 204.533H229.453ZM173.295 140.283H229.453L201.39 168.646L173.295 140.283ZM169.533 204.533L141.471 232.896L113.375 204.533H169.533ZM143.335 172.408H199.493L171.43 200.771L143.335 172.408ZM303.829 93.3383V122.552H96.2039V93.3383H303.829ZM79.0327 76L79 216.997C79 280.592 189.125 329.598 199.297 332.28L202.044 333L204.661 331.953C205.806 331.495 321 281.541 321 216.997V76H79.0327Z" fill="white"/>
</svg>
