<svg width="400" height="400" viewBox="0 0 400 400" fill="none" xmlns="http://www.w3.org/2000/svg">
<rect width="400" height="400" fill="#830F5F"/>
<path d="M308.76 226.875L262.634 273L216.509 226.875L262.634 180.75L308.76 226.875ZM205.064 226.815L158.938 272.94L112.813 226.815L158.938 180.69L205.064 226.815ZM256.936 175.188L210.811 221.312L164.686 175.188L210.811 129.062L256.936 175.188ZM153.255 175.125L107.129 221.25L61.0039 175.125L107.129 129L153.255 175.125ZM291.812 146.126C304.263 133.675 324.022 133.676 336.473 146.126L324.022 158.577C318.609 153.164 309.948 153.164 304.534 158.577C299.121 163.991 299.121 172.652 304.534 178.065C309.948 183.479 318.609 183.479 324.022 178.065L336.473 190.787C324.022 203.238 304.263 203.238 291.812 190.787C279.362 178.336 279.362 158.577 291.812 146.126Z" fill="white"/>
</svg>
