<svg width="400" height="400" viewBox="0 0 400 400" fill="none" xmlns="http://www.w3.org/2000/svg">
<rect width="400" height="400" fill="#1AB4D7"/>
<path d="M156.444 167.465C169.615 158.099 187.62 157.621 201.256 166.277C210.584 172.18 216.71 181.37 219.073 192.56C220.24 198.894 216.017 204.434 208.169 204.599C208.169 204.599 154.226 204.607 150.925 204.607C150.936 204.871 150.963 205.158 151 205.454C151.285 207.039 151.694 208.579 152.225 210.062C155.261 218.01 163.797 229.146 179.749 229.323C184.622 229.296 189.207 228.067 193.229 225.918C196.391 224.152 199.03 221.875 201.156 219.525C201.862 218.683 202.503 217.84 203.078 217.021C205.753 213.596 209.152 214.226 211.177 215.777C213.577 217.617 213.982 221.47 211.798 224.179C211.734 224.255 211.67 224.319 211.606 224.392C208.459 228.339 205.209 231.636 201.319 234.137C197.571 236.538 193.503 238.244 189.3 239.267C184.408 240.533 179.684 240.814 174.83 240.227C158.474 238.224 144.756 226.144 140.699 210.187C139.889 206.978 139.5 203.718 139.5 200.489C139.5 187.61 145.701 175.108 156.444 167.465ZM299.777 160C321.951 160 340.001 178.043 340.001 200.217C340.001 222.388 321.951 240.427 299.777 240.427C277.603 240.427 259.562 222.388 259.562 200.217C259.563 178.043 277.603 160 299.777 160ZM134.554 160.196C137.58 160.196 140.041 162.654 140.041 165.681C140.041 167.133 139.475 168.502 138.46 169.536L107.851 200.221L138.442 230.886C139.472 231.92 140.038 233.292 140.038 234.752C140.038 237.778 137.577 240.236 134.554 240.236C133.062 240.236 131.664 239.64 130.58 238.52L100.026 208.002L69.3555 238.631C68.3212 239.666 66.9442 240.232 65.4834 240.232C62.4608 240.232 60.0001 237.778 60 234.752C60 233.27 60.586 231.883 61.6611 230.824L92.25 200.179L61.6455 169.578C60.5888 168.535 60.0001 167.151 60 165.677C60 162.653 62.4607 160.197 65.4834 160.196C66.9417 160.196 68.3175 160.76 69.3555 161.783L100.073 192.396C100.073 192.396 130.652 161.835 130.655 161.829C131.697 160.774 133.079 160.196 134.554 160.196ZM256.707 160.688C259.739 160.688 262.207 163.148 262.207 166.172C262.207 169.193 259.895 171.429 256.642 171.541C256.637 171.541 255.441 171.52 254.342 171.656C242.452 173.142 241.183 178.748 241.183 192.629C241.183 192.717 241.18 234.166 241.18 234.275C241.172 237.298 238.713 239.749 235.697 239.749C232.68 239.749 230.22 237.298 230.212 234.282C230.212 234.197 230.194 166.561 230.194 166.55C230.202 163.529 232.617 161.113 235.632 161.113C238.251 161.113 240.451 162.964 240.988 165.425C245.069 162.28 249.954 160.683 255.02 160.683L256.707 160.688ZM299.777 171.354C283.862 171.355 270.916 184.303 270.916 200.217C270.916 216.127 283.862 229.07 299.777 229.07C315.685 229.07 328.635 216.127 328.635 200.217C328.635 184.303 315.685 171.354 299.777 171.354ZM299.785 190.244C305.274 190.244 309.745 194.714 309.745 200.21C309.745 205.705 305.274 210.176 299.785 210.176C294.283 210.176 289.814 205.705 289.814 200.21C289.815 194.713 294.283 190.244 299.785 190.244ZM179.578 171.233C166.002 171.233 154.603 180.548 151.419 193.135C151.412 193.289 151.4 193.446 151.4 193.596H207.843C204.822 180.777 193.318 171.233 179.578 171.233Z" fill="white"/>
</svg>
