<svg width="24" height="24" viewBox="0 0 24 24" fill="currentColor" preserveAspectRatio="none" xmlns="http://www.w3.org/2000/svg">
    <path fill-rule="evenodd" clip-rule="evenodd" d="M10.0641 5.84999L11.9999 3.91421L13.9357 5.84999L11.9999 7.78578L10.0641 5.84999ZM13.0579 2.14382C12.4736 1.55948 11.5262 1.55948 10.9419 2.14382L8.29372 4.79195C7.70939 5.37629 7.70938 6.24369 8.29372 6.90803L10.9419 9.55616C11.5262 10.1405 12.4736 10.1405 13.0579 9.55617L15.7061 6.90803C16.2904 6.2437 16.2904 5.37629 15.7061 4.79195L13.0579 2.14382ZM3.91421 12L5.84999 10.0642L7.78578 12L5.84999 13.9358L3.91421 12ZM6.90803 8.29385C6.2437 7.70951 5.37629 7.7095 4.79195 8.29385L2.14382 10.942C1.55948 11.5263 1.55948 12.4737 2.14382 13.0581L4.79195 15.7062C5.37629 16.2905 6.24369 16.2905 6.90803 15.7062L9.55616 13.0581C10.1405 12.4737 10.1405 11.5263 9.55617 10.942L6.90803 8.29385ZM18.15 10.0642L16.2143 12L18.15 13.9358L20.0858 12L18.15 10.0642ZM17.092 8.29385C17.6763 7.7095 18.6237 7.70951 19.2081 8.29385L21.8562 10.942C22.4406 11.5263 22.4406 12.4737 21.8562 13.0581L19.2081 15.7062C18.6237 16.2905 17.6763 16.2905 17.092 15.7062L14.4439 13.0581C13.8595 12.4737 13.8595 11.5263 14.4439 10.942L17.092 8.29385ZM10.0641 18.15L11.9999 16.2142L13.9357 18.15L11.9999 20.0858L10.0641 18.15ZM13.0579 14.4438C12.4736 13.8595 11.5262 13.8595 10.9419 14.4438L8.29372 17.0919C7.70939 17.6763 7.70938 18.6237 8.29372 19.208L10.9419 21.8562C11.5262 22.4405 12.4736 22.4405 13.0579 21.8562L15.7061 19.208C16.2904 18.6237 16.2904 17.6763 15.7061 17.0919L13.0579 14.4438Z"/>
</svg>
