<svg width="24" height="24" viewBox="0 0 24 24" fill="currentColor" preserveAspectRatio="none" xmlns="http://www.w3.org/2000/svg">
    <path fill-rule="evenodd" clip-rule="evenodd" d="M13.6552 4.35084C12.6035 3.8728 11.3965 3.8728 10.3448 4.35084L4.61824 6.95379C4.14936 7.16696 4.14936 7.83307 4.61824 8.04624L10.3448 10.6492C11.3965 11.1272 12.6035 11.1272 13.6552 10.6492L19.3817 8.04624C19.8507 7.83307 19.8507 7.16696 19.3817 6.9538L13.6552 4.35084ZM9.51721 2.53011C11.0948 1.81304 12.9053 1.81304 14.4828 2.53011L20.2093 5.13306C22.2415 6.05677 22.2415 8.94247 20.2093 9.86697L14.4828 12.4699C12.9053 13.187 11.0948 13.187 9.51721 12.4699L3.79071 9.86697C1.75856 8.94246 1.75857 6.05676 3.79072 5.13306L9.51721 2.53011ZM2.59517 12.5742C2.83033 12.0745 3.42607 11.86 3.92579 12.0952L10.2968 15.0933C11.3755 15.601 12.6245 15.601 13.7024 15.0933L20.0742 12.0952C20.5739 11.86 21.1696 12.0745 21.4048 12.5742C21.64 13.0739 21.4255 13.6697 20.9258 13.9048L14.5548 16.903C12.9367 17.6644 11.0633 17.6644 9.44521 16.903L3.0742 13.9048C2.57448 13.6697 2.36001 13.0739 2.59517 12.5742ZM3.92579 16.5952C3.42607 16.36 2.83033 16.5745 2.59517 17.0742C2.36001 17.5739 2.57448 18.1697 3.0742 18.4048L9.44521 21.403C11.0633 22.1644 12.9367 22.1644 14.5548 21.403L20.9258 18.4048C21.4255 18.1697 21.64 17.5739 21.4048 17.0742C21.1696 16.5745 20.5739 16.36 20.0742 16.5952L13.7024 19.5933C12.6245 20.101 11.3755 20.101 10.2968 19.5933L3.92579 16.5952Z"/>
</svg>
