<svg width="24" height="24" viewBox="0 0 24 24" fill="none" xmlns="http://www.w3.org/2000/svg">
<path fill-rule="evenodd" clip-rule="evenodd" d="M19.9134 4.48954C19.9024 4.48982 19.8942 4.49202 19.8831 4.49924C18.7287 5.25485 17.0792 6.24507 15.2649 7.04942C13.7757 7.70968 12.1176 8.27119 10.5 8.4447V13.5553C12.1176 13.7288 13.7757 14.2903 15.2649 14.9506C17.0792 15.7549 18.7287 16.7452 19.8831 17.5008C19.8942 17.508 19.9024 17.5102 19.9134 17.5105C19.9278 17.5108 19.9483 17.5071 19.969 17.4964C19.9881 17.4865 19.9972 17.4761 19.9999 17.4725L20 17.4691V4.53087L19.9999 4.52756C19.9972 4.52388 19.9881 4.51347 19.969 4.50361C19.9483 4.4929 19.9278 4.48918 19.9134 4.48954ZM9.49658 15.5C9.49772 15.5 9.49886 15.5 9.5 15.5C11.0133 15.5 12.7579 16.0268 14.4543 16.7789C16.1348 17.524 17.6853 18.4525 18.7878 19.1742C20.1029 20.035 22 19.1459 22 17.4691V4.53087C22 2.85408 20.1029 1.96503 18.7878 2.82585C17.6853 3.54748 16.1348 4.476 14.4543 5.22106C12.7591 5.97266 11.0157 6.49927 9.50318 6.5C9.50212 6.5 9.50106 6.5 9.5 6.5H6.5C4.01472 6.5 2 8.51472 2 11C2 13.358 3.81361 15.2924 6.12201 15.4843C6.14828 15.6241 6.17894 15.7692 6.21464 15.9191C6.56599 17.3948 7.40026 19.3145 9.29284 21.2071C9.68336 21.5976 10.3165 21.5976 10.7071 21.2071C11.0976 20.8166 11.0976 20.1834 10.7071 19.7929C9.1201 18.2059 8.451 16.6454 8.1709 15.5H9.49658ZM8.5 13.5V8.5H6.5C5.11929 8.5 4 9.61929 4 11C4 12.3807 5.11929 13.5 6.5 13.5H8.5Z" fill="black"/>
</svg>
