<svg width="200" height="40" viewBox="0 0 200 40" fill="currentColor" preserveAspectRatio="none" xmlns="http://www.w3.org/2000/svg">
<path fill-rule="evenodd" clip-rule="evenodd" d="M0.0261403 0.000144121C6.47285 -0.0183963 11.6412 1.75221 15.4302 5.13583C20.0192 9.22399 22.8241 12.793 22.8425 30.0078L22.8701 39.9918H14.7864V26.8188C10.9515 25.3634 7.30972 23.9729 4.60597 20.7839C0.00774778 15.3794 -0.0934134 6.32241 0.0261403 0.000144121ZM24.8565 30.0078C24.7186 25.0297 25.8865 20.2741 28.7466 16.1859C31.3032 12.5056 36.4257 9.6226 42.5689 10.1788C42.5689 13.0155 42.4309 19.6251 37.7591 24.937C34.43 28.7285 29.7031 30.0078 24.8565 30.0078ZM72.0304 18.1235V33.6789H77.1252V10.2068H69.998L63.9191 26.0681L57.5184 10.2068H50.7498V33.6789H55.6791V18.3182L61.758 33.6789H65.9608L72.0304 18.1235ZM86.993 34.1795C91.8855 34.1795 95.6653 30.5363 95.6653 25.4377C95.6653 20.3391 91.8855 16.733 86.993 16.733C82.1281 16.733 78.3208 20.3391 78.3208 25.4377C78.3208 30.5363 82.1281 34.1795 86.993 34.1795ZM86.993 21.3681C88.8967 21.3681 90.6716 22.6566 90.6716 25.4377C90.6716 28.2188 88.8967 29.5444 86.993 29.5444C85.1169 29.5444 83.3144 28.1817 83.3144 25.4377C83.3144 22.6566 85.1169 21.3681 86.993 21.3681ZM101.845 33.6789H96.8608V17.2243H101.689V19.1154C102.572 17.558 104.577 16.7979 106.25 16.7979C110.352 16.7979 112.191 19.7458 112.191 23.3519V33.6789H107.198V24.214C107.198 22.5918 106.342 21.3681 104.54 21.3681C102.894 21.3681 101.845 22.5918 101.845 24.2511V33.6789ZM121.903 34.1702C126.041 34.1702 128.634 31.7878 129.425 28.9418L125.25 27.7553C124.79 29.0438 123.77 29.9059 121.967 29.9059C120.027 29.9059 118.353 28.5803 118.252 26.7263H129.619C129.655 26.6243 129.72 25.8641 129.72 25.1689C129.72 19.8663 126.602 16.7237 121.544 16.7237C117.304 16.7237 113.396 20.1073 113.396 25.4006C113.396 30.9257 117.406 34.1702 121.903 34.1702ZM121.608 20.7006C123.972 20.7006 124.827 22.221 124.892 23.4817H118.353C118.454 22.258 119.502 20.7006 121.608 20.7006ZM166.156 22.1931C165.595 22.0634 165.071 22.0263 164.583 22.0263C162.579 22.0263 160.776 23.2221 160.776 26.4945V33.6789H155.782V17.2243H160.611V19.4399C161.466 17.5859 163.535 17.0575 164.85 17.0575C165.347 17.0575 165.834 17.1223 166.165 17.2243V22.1931H166.156ZM174.663 34.1702C178.801 34.1702 181.394 31.7878 182.185 28.9418L178.01 27.7553C177.55 29.0438 176.53 29.9059 174.727 29.9059C172.787 29.9059 171.113 28.5803 171.012 26.7263H182.378C182.415 26.6243 182.48 25.8641 182.48 25.1689C182.48 19.8663 179.362 16.7237 174.304 16.7237C170.064 16.7237 166.156 20.1073 166.156 25.4006C166.156 30.9257 170.166 34.1702 174.663 34.1702ZM174.368 20.7006C176.732 20.7006 177.587 22.221 177.652 23.4817H171.113C171.214 22.258 172.262 20.7006 174.368 20.7006ZM199.705 28.9418C198.914 31.7878 196.32 34.1702 192.182 34.1702C187.685 34.1702 183.675 30.9257 183.675 25.4006C183.675 20.1073 187.584 16.7237 191.823 16.7237C196.881 16.7237 199.999 19.8663 199.999 25.1689C199.999 25.8641 199.934 26.6243 199.898 26.7263H188.531C188.632 28.5803 190.306 29.9059 192.246 29.9059C194.049 29.9059 195.07 29.0438 195.529 27.7553L199.705 28.9418ZM195.171 23.4817C195.106 22.221 194.251 20.7006 191.888 20.7006C189.782 20.7006 188.733 22.258 188.632 23.4817H195.171ZM154.578 17.2243V21.6277H151.386V26.4574C151.386 29.1551 152.499 29.8132 154.44 30.527L152.692 34.5503C149.115 33.855 146.457 30.9627 146.457 27.0044V21.6277H144.967L136.856 40.0012H131.605L135.32 31.4633L128.46 17.2243H134.042L138.015 26.031L141.629 17.2243H142.871C145.363 17.2243 146.926 15.3332 146.926 12.4224H151.396V17.2243H154.578Z"/>
</svg>
