<svg width="200" height="40" viewBox="0 0 200 40" fill="currentColor" preserveAspectRatio="none" xmlns="http://www.w3.org/2000/svg">
<path fill-rule="evenodd" clip-rule="evenodd" d="M19.1679 0.923047V19.9748C19.1679 20.9949 19.6448 21.1449 20.2312 20.3108L26.9791 10.6814C27.5654 9.84537 27.4926 8.53845 26.8191 7.77294L20.3916 0.460779C19.7172 -0.301619 19.1679 -0.0977709 19.1679 0.923047ZM41.4183 27.5403L54.3492 19.5843C55.2684 19.0167 55.4545 19.2339 54.7634 20.0649L38.9573 39.1478C38.2655 39.9808 36.9222 40.2501 35.9676 39.7453L31.3544 37.3186C30.3986 36.8177 28.8381 36.8224 27.8847 37.3299L23.3641 39.7379C22.4126 40.2454 21.1048 39.9496 20.4667 39.0776L10.5138 25.5521C9.87022 24.6821 8.54532 24.3298 7.55953 24.7718L0.898822 27.7539C-0.0865803 28.1955 -0.29371 27.9075 0.436679 27.1116L6.51573 20.5104C7.24728 19.7148 8.58348 19.5476 9.4879 20.1409L18.2596 25.8721C19.1597 26.4638 20.3736 26.2026 20.9553 25.2913L36.5668 0.787406C37.1477 -0.123496 37.6873 0.0129284 37.7636 1.09104L39.6067 26.6111C39.6846 27.6884 40.5022 28.1055 41.4183 27.5403ZM79.598 31.8759C84.7619 31.7857 88.9631 27.4129 88.9631 22.1274C88.9631 17.4603 85.372 12.4056 79.5751 12.3781C74.3863 12.3961 70.1632 16.7698 70.1623 22.1265C70.1531 26.7794 73.6562 31.6983 79.598 31.8759ZM79.576 15.6082C81.224 15.6082 82.7814 16.3082 83.9631 17.5819C85.1027 18.8147 85.7568 20.471 85.7568 22.1284C85.7605 23.7145 85.1128 25.3871 84.0245 26.6056C82.8363 27.9382 81.2982 28.6457 79.5751 28.6495H79.554C75.8173 28.6495 73.4739 25.3149 73.3677 22.0999C73.3649 20.529 74.0162 18.864 75.1101 17.6455C76.3065 16.312 77.851 15.6082 79.576 15.6082ZM198.66 12.5186C199.013 12.5186 199.361 12.6687 199.608 12.927C199.857 13.1892 200 13.5444 200 13.9015V30.3791C200 30.7428 199.861 31.0885 199.607 31.3535C199.347 31.6166 199.013 31.7591 198.66 31.7591H198.189C197.829 31.7591 197.485 31.609 197.244 31.3488C197.003 31.1123 196.856 30.7533 196.856 30.3791V13.9015C196.856 13.5339 197.002 13.1759 197.255 12.9194C197.485 12.6696 197.83 12.5186 198.189 12.5186H198.66ZM144.12 21.5472C144.338 21.776 144.473 22.0819 144.5 22.401L144.51 22.4219L144.506 22.5435C144.286 27.7767 140.288 31.8759 135.402 31.8759C129.646 31.6983 126.241 26.7794 126.245 22.1274C126.252 16.7698 130.354 12.3961 135.388 12.3781C138.429 12.3952 141.156 13.9537 142.877 16.653C143.082 17.0557 143.101 17.503 142.952 17.8905C142.792 18.2828 142.484 18.5696 142.101 18.6893L141.654 18.827C141.069 19.0084 140.411 18.7292 140.094 18.1584C139.968 17.9789 139.804 17.7737 139.627 17.579C138.487 16.3063 136.982 15.6082 135.389 15.6082C133.722 15.6082 132.231 16.3101 131.076 17.6407C130.014 18.8555 129.382 20.5233 129.384 22.0999C129.484 25.3158 131.75 28.6495 135.367 28.6495H135.388C137.492 28.6438 138.889 27.5383 139.69 26.6113C140.245 25.9693 140.683 25.2038 140.974 24.3689H136.414C136.065 24.3689 135.722 24.2227 135.475 23.9691C135.223 23.7031 135.082 23.3479 135.082 22.9898V22.5216C135.082 22.155 135.225 21.7969 135.476 21.5424C135.716 21.2888 136.059 21.1406 136.414 21.1406H143.171C143.521 21.1406 143.865 21.2869 144.115 21.5424L144.12 21.5472ZM110.083 31.023C110.313 30.5776 110.282 30.0201 109.986 29.5746L106.379 24.897C108.705 23.9786 110.251 21.5766 110.24 18.8754C110.233 15.8314 107.918 12.5281 104.187 12.4949H95.6148C95.2649 12.4949 94.9213 12.643 94.6731 12.9014C94.423 13.1607 94.2801 13.5149 94.2801 13.8739V30.3791C94.2801 30.7466 94.4248 31.1028 94.6731 31.3545C94.9213 31.6147 95.2658 31.7629 95.6148 31.7629H96.0847C96.4411 31.7629 96.7764 31.6176 97.0246 31.3583C97.2802 31.0981 97.4204 30.7504 97.4204 30.3791V25.275H102.779L107.236 31.1455C107.478 31.5321 107.892 31.7629 108.343 31.7629H108.907C109.408 31.7629 109.86 31.477 110.083 31.023ZM104.107 22.0477H97.4204V15.725H103.945C104.766 15.725 105.703 16.1173 106.218 16.6767C106.769 17.2779 107.095 18.0995 107.092 18.8783C107.095 19.6846 106.806 20.5176 106.321 21.1055C105.846 21.6716 104.977 22.041 104.107 22.0477ZM165.077 31.7629C165.539 31.7629 165.959 31.5226 166.204 31.1218C166.446 30.7276 166.477 30.2366 166.286 29.7968L158.647 13.3003C158.427 12.8112 157.953 12.4949 157.434 12.4949H157.014C156.496 12.4949 156.019 12.8102 155.801 13.2927L148.132 29.8006C147.941 30.2318 147.974 30.7276 148.219 31.1218C148.467 31.5235 148.887 31.7629 149.344 31.7629H149.862C150.39 31.7629 150.853 31.4523 151.066 30.9651L152.899 27.0511H161.523L163.346 30.9508C163.557 31.4447 164.032 31.7629 164.558 31.7629H165.077ZM154.41 23.8228L157.217 17.8212L160.018 23.8228H154.41ZM189.247 12.4949C189.597 12.4949 189.94 12.643 190.188 12.8995C190.436 13.1559 190.579 13.5121 190.579 13.8739V30.3791C190.579 30.7457 190.44 31.0933 190.186 31.3554C189.944 31.6138 189.601 31.7629 189.247 31.7629H188.772C188.423 31.7629 188.09 31.6195 187.833 31.3592C187.577 31.0933 187.44 30.7466 187.44 30.3791V19.6827L182.465 27.8593C182.233 28.2554 181.801 28.5061 181.34 28.5061H180.963C180.5 28.5061 180.078 28.2639 179.833 27.8574L174.863 19.6837V30.3791C174.863 30.7438 174.725 31.0904 174.476 31.3526C174.217 31.6185 173.881 31.7629 173.528 31.7629H173.056C172.707 31.7629 172.364 31.6147 172.116 31.3535C171.867 31.099 171.722 30.7419 171.722 30.3791V13.8739C171.722 13.5083 171.868 13.1512 172.122 12.8957C172.364 12.643 172.707 12.4949 173.056 12.4949H173.434C173.895 12.4949 174.318 12.7371 174.565 13.1407L181.151 23.9729L187.738 13.1417C187.989 12.7352 188.412 12.4949 188.869 12.4949H189.247ZM118.852 12.5186C119.208 12.5186 119.552 12.6677 119.799 12.9261C120.045 13.1816 120.188 13.5377 120.188 13.9015V30.3791C120.188 30.7438 120.05 31.0895 119.799 31.3526C119.539 31.6195 119.205 31.7629 118.852 31.7629H118.38C118.03 31.7629 117.684 31.6147 117.436 31.3545C117.187 31.0895 117.047 30.7352 117.047 30.3791V13.9015C117.047 13.5406 117.188 13.1854 117.435 12.9261C117.681 12.6677 118.027 12.5186 118.38 12.5186H118.852Z"/>
</svg>
