<svg width="24" height="24" viewBox="0 0 24 24" fill="currentColor" preserveAspectRatio="none" xmlns="http://www.w3.org/2000/svg">
<path fill-rule="evenodd" clip-rule="evenodd" d="M8.01844 8.03323C8.01026 5.82411 9.79449 4.02663 12.0036 4.01846C14.2127 4.01029 16.0102 5.79451 16.0184 8.00364C16.0261 10.1014 14.4176 11.828 12.3638 12.0037C12.2439 12.0012 12.1226 12 11.9999 12C11.8874 12 11.776 12.001 11.6658 12.0031C9.62819 11.8252 8.02615 10.1185 8.01844 8.03323ZM8.06253 12.5297C6.81504 11.435 6.02507 9.83083 6.01845 8.04063C6.00619 4.72694 8.68253 2.03073 11.9962 2.01847C15.3099 2.00622 18.0061 4.68255 18.0184 7.99624C18.0251 9.80694 17.229 11.4333 15.9648 12.5381C17.0844 12.8801 18.015 13.369 18.7845 13.9577C20.3199 15.1321 21.1246 16.6351 21.5426 17.9317C21.9044 19.0541 21.5866 20.1154 20.8984 20.861C20.2304 21.5848 19.2345 22 18.1885 22L11.9999 22L5.81135 22C4.76544 22 3.76945 21.5848 3.10148 20.861C2.41334 20.1154 2.09546 19.0542 2.45731 17.9317C2.87529 16.6351 3.68 15.1321 5.21536 13.9577C5.99115 13.3642 6.9307 12.8721 8.06253 12.5297ZM11.6105 14.0048C9.12539 14.0672 7.50277 14.726 6.43049 15.5462C5.2976 16.4128 4.68845 17.5291 4.36085 18.5453C4.2382 18.9258 4.3319 19.2453 4.57124 19.5046C4.83076 19.7859 5.27816 20 5.81135 20L11.9999 20L18.1885 20C18.7217 20 19.1691 19.7858 19.4286 19.5046C19.668 19.2453 19.7617 18.9258 19.639 18.5453C19.3114 17.5291 18.7023 16.4128 17.5694 15.5462C16.5009 14.7288 14.8858 14.0718 12.4155 14.0055C12.2915 14.0136 12.1665 14.0179 12.0406 14.0184C11.896 14.0189 11.7526 14.0143 11.6105 14.0048Z" />
</svg>
