<svg width="24" height="24" viewBox="0 0 24 24" ="currentColor" preserveAspectRatio="none" xmlns="http://www.w3.org/2000/svg">
<path fill-rule="evenodd" clip-rule="evenodd" d="M5.21472 4.98745C5.78649 2.85359 7.97984 1.58726 10.1137 2.15902L18.807 4.4884C20.9409 5.06016 22.2072 7.25351 21.6355 9.38738L19.7349 16.4803C19.3917 17.7612 18.5537 18.8533 17.4053 19.5163L14.1513 21.395C13.0029 22.0581 11.6381 22.2377 10.3572 21.8945L5.19614 20.5116C3.06228 19.9398 1.79595 17.7465 2.36771 15.6126L5.21472 4.98745ZM9.59607 4.09088C8.52913 3.80499 7.43246 4.43816 7.14658 5.50509L4.29957 16.1303C4.01368 17.1972 4.64685 18.2939 5.71378 18.5798L9.09452 19.4856L10.0004 16.1049C10.5722 13.971 12.7655 12.7047 14.8994 13.2765L18.2801 14.1823L19.7036 8.86974C19.9895 7.80281 19.3563 6.70613 18.2894 6.42025L9.59607 4.09088ZM17.7585 16.1131L14.3817 15.2083C13.3148 14.9224 12.2181 15.5556 11.9322 16.6225L11.0274 19.9993C11.7508 20.1531 12.5077 20.0346 13.1513 19.663L16.4053 17.7843C17.0489 17.4127 17.53 16.8165 17.7585 16.1131Z"/>
</svg>
