<svg width="216" height="40" viewBox="0 0 216 40" fill="currentColor" preserveAspectRatio="none" xmlns="http://www.w3.org/2000/svg">
<path fill-rule="evenodd" clip-rule="evenodd" d="M19.8382 40C30.7945 40 39.6764 31.0457 39.6764 20C39.6764 8.9543 30.7945 0 19.8382 0C8.88186 0 0 8.9543 0 20C0 31.0457 8.88186 40 19.8382 40ZM25.482 25.0198C22.1493 28.3796 18.0462 28.0112 15.3991 26.8601C14.6342 27.5362 13.6451 29.1068 13.6451 29.1068C13.3202 29.662 11.6774 29.0487 11.8238 28.3685C12.7651 26.0728 15.9512 19.7961 22.5667 16.8587C22.7439 16.7416 22.8792 16.6877 23.044 16.6221L23.0447 16.6218L23.0447 16.6218C23.1554 16.5778 23.2794 16.5285 23.4381 16.4511C17.7637 17.1094 14.8048 19.6123 12.0568 24.0211C11.9922 24.1248 11.836 24.1085 11.7933 23.9938C9.20027 17.0355 14.5751 12.9639 19.5483 12.2361L28.0175 10.7057C28.0996 10.6908 28.1784 10.7425 28.1956 10.8247C29.1218 15.2573 28.2959 22.1829 25.482 25.0198ZM81.9855 12.4967C82.4799 12.9436 83.1107 13.167 83.8779 13.167C84.628 13.167 85.2418 12.9436 85.7191 12.4967C86.2135 12.0327 86.4607 11.4655 86.4607 10.7952C86.4607 10.1077 86.2135 9.54047 85.7191 9.09355C85.2418 8.62949 84.628 8.39746 83.8779 8.39746C83.1107 8.39746 82.4799 8.62949 81.9855 9.09355C81.5082 9.54047 81.2695 10.1077 81.2695 10.7952C81.2695 11.4655 81.5082 12.0327 81.9855 12.4967ZM86.0516 29.0483V14.6623H81.6787V29.0483H86.0516ZM58.5498 29.0496L54.8162 22.2176H53.7678V29.0496H49.3948V10.9512H56.7342C58.1492 10.9512 59.3511 11.2004 60.3399 11.6988C61.3458 12.1972 62.0959 12.8847 62.5903 13.7613C63.0847 14.6207 63.3319 15.5832 63.3319 16.6488C63.3319 17.852 62.991 18.9262 62.309 19.8715C61.6441 20.8168 60.6553 21.4871 59.3426 21.8824L63.4854 29.0496H58.5498ZM53.7678 19.098H56.4785C57.2797 19.098 57.8764 18.9004 58.2685 18.5051C58.6777 18.1098 58.8823 17.5512 58.8823 16.8293C58.8823 16.1418 58.6777 15.6004 58.2685 15.2051C57.8764 14.8098 57.2797 14.6121 56.4785 14.6121H53.7678V19.098ZM64.1509 21.829C64.1509 20.3509 64.4237 19.0533 64.9692 17.9361C65.5318 16.8188 66.2905 15.9595 67.2452 15.3579C68.1999 14.7564 69.2654 14.4556 70.4418 14.4556C71.4476 14.4556 72.3256 14.6618 73.0758 15.0743C73.8429 15.4869 74.4311 16.0283 74.8403 16.6986V14.6619H79.2132V29.0478H74.8403V27.0111C74.4141 27.6814 73.8174 28.2228 73.0502 28.6353C72.3 29.0478 71.4221 29.254 70.4162 29.254C69.2569 29.254 68.1999 28.9533 67.2452 28.3517C66.2905 27.7329 65.5318 26.865 64.9692 25.7478C64.4237 24.6134 64.1509 23.3072 64.1509 21.829ZM74.8403 21.8548C74.8403 20.7548 74.5334 19.8869 73.9196 19.2509C73.323 18.615 72.5899 18.297 71.7204 18.297C70.8509 18.297 70.1093 18.615 69.4956 19.2509C68.8989 19.8697 68.6005 20.729 68.6005 21.829C68.6005 22.929 68.8989 23.8056 69.4956 24.4587C70.1093 25.0947 70.8509 25.4126 71.7204 25.4126C72.5899 25.4126 73.323 25.0947 73.9196 24.4587C74.5334 23.8228 74.8403 22.9548 74.8403 21.8548ZM97.0908 14.5078C98.7615 14.5078 100.091 15.0578 101.08 16.1578C102.086 17.2406 102.589 18.7359 102.589 20.6437V29.0484H98.2416V21.2367C98.2416 20.2742 97.9943 19.5265 97.4999 18.9937C97.0055 18.4609 96.3407 18.1945 95.5053 18.1945C94.6699 18.1945 94.005 18.4609 93.5106 18.9937C93.0162 19.5265 92.769 20.2742 92.769 21.2367V29.0484H88.3961V14.6625H92.769V16.5703C93.2123 15.9344 93.809 15.4359 94.5591 15.075C95.3092 14.6969 96.1531 14.5078 97.0908 14.5078ZM108.615 18.3229H110.968V14.662H108.615V14.5331C108.615 13.7768 108.786 13.2526 109.127 12.9604C109.468 12.6683 110.056 12.5479 110.891 12.5995V8.86119C110.738 8.84404 110.499 8.83545 110.175 8.83545C108.232 8.83545 106.757 9.29951 105.751 10.2276C104.745 11.1386 104.243 12.4792 104.243 14.2495V14.662H102.657V18.3229H104.243V29.0479H108.615V18.3229ZM118.575 29.254C117.177 29.254 115.916 28.9533 114.791 28.3517C113.683 27.7501 112.805 26.8908 112.157 25.7736C111.526 24.6564 111.21 23.3501 111.21 21.8548C111.21 20.3767 111.534 19.079 112.182 17.9619C112.83 16.8274 113.717 15.9595 114.842 15.3579C115.967 14.7564 117.229 14.4556 118.627 14.4556C120.025 14.4556 121.286 14.7564 122.411 15.3579C123.537 15.9595 124.423 16.8274 125.071 17.9619C125.719 19.079 126.043 20.3767 126.043 21.8548C126.043 23.3329 125.71 24.6392 125.045 25.7736C124.397 26.8908 123.502 27.7501 122.36 28.3517C121.235 28.9533 119.973 29.254 118.575 29.254ZM118.575 25.4384C119.411 25.4384 120.118 25.129 120.698 24.5103C121.295 23.8915 121.593 23.0064 121.593 21.8548C121.593 20.7033 121.303 19.8181 120.724 19.1994C120.161 18.5806 119.462 18.2712 118.627 18.2712C117.774 18.2712 117.067 18.5806 116.504 19.1994C115.941 19.8009 115.66 20.6861 115.66 21.8548C115.66 23.0064 115.933 23.8915 116.478 24.5103C117.041 25.129 117.74 25.4384 118.575 25.4384ZM133.178 15.2039C132.41 15.6508 131.771 16.2695 131.26 17.0602V14.6625H126.887V29.0484H131.26V22.3711C131.26 21.1852 131.532 20.3602 132.078 19.8961C132.623 19.4148 133.442 19.1742 134.533 19.1742H135.735V14.5078C134.797 14.5078 133.945 14.7398 133.178 15.2039ZM151.192 21.6228C151.192 22.0353 151.166 22.465 151.115 22.9119H141.218C141.286 23.8056 141.568 24.4931 142.062 24.9744C142.574 25.4384 143.196 25.6704 143.929 25.6704C145.02 25.6704 145.779 25.2064 146.205 24.2783H150.859C150.62 25.2236 150.186 26.0744 149.555 26.8306C148.941 27.5869 148.165 28.1798 147.228 28.6095C146.29 29.0392 145.242 29.254 144.082 29.254C142.684 29.254 141.44 28.9533 140.349 28.3517C139.258 27.7501 138.405 26.8908 137.791 25.7736C137.178 24.6564 136.871 23.3501 136.871 21.8548C136.871 20.3595 137.169 19.0533 137.766 17.9361C138.38 16.8188 139.232 15.9595 140.323 15.3579C141.414 14.7564 142.667 14.4556 144.082 14.4556C145.463 14.4556 146.691 14.7478 147.765 15.3322C148.839 15.9165 149.674 16.7501 150.271 17.8329C150.885 18.9158 151.192 20.179 151.192 21.6228ZM146.716 20.4626C146.716 19.7064 146.461 19.1048 145.949 18.6579C145.438 18.2111 144.798 17.9876 144.031 17.9876C143.298 17.9876 142.676 18.2025 142.164 18.6322C141.67 19.0619 141.363 19.672 141.244 20.4626H146.716ZM155.806 28.6095C156.778 29.0392 157.886 29.254 159.131 29.254C160.29 29.254 161.305 29.065 162.174 28.6869C163.061 28.3087 163.734 27.7931 164.194 27.1399C164.672 26.4696 164.91 25.7134 164.91 24.8712C164.893 23.8743 164.629 23.0837 164.118 22.4994C163.623 21.8978 163.043 21.4681 162.379 21.2103C161.714 20.9353 160.853 20.6603 159.796 20.3853C158.875 20.179 158.193 19.9728 157.75 19.7665C157.324 19.5603 157.111 19.2509 157.111 18.8384C157.111 18.4947 157.247 18.2283 157.52 18.0392C157.793 17.8329 158.185 17.7298 158.696 17.7298C159.293 17.7298 159.77 17.8759 160.128 18.1681C160.503 18.4603 160.725 18.8556 160.793 19.354H164.834C164.68 17.8759 164.083 16.69 163.043 15.7962C162.021 14.9025 160.614 14.4556 158.824 14.4556C157.614 14.4556 156.565 14.6532 155.679 15.0485C154.809 15.4438 154.144 15.9853 153.684 16.6728C153.241 17.3431 153.019 18.0908 153.019 18.9158C153.019 19.8954 153.266 20.6775 153.761 21.2619C154.255 21.829 154.843 22.2501 155.525 22.5251C156.207 22.7829 157.059 23.0322 158.082 23.2728C159.037 23.5134 159.728 23.7369 160.154 23.9431C160.58 24.1321 160.793 24.4329 160.793 24.8454C160.793 25.1892 160.64 25.4728 160.333 25.6962C160.043 25.9025 159.625 26.0056 159.08 26.0056C158.483 26.0056 157.98 25.8509 157.571 25.5415C157.162 25.2322 156.932 24.8283 156.88 24.3298H152.559C152.627 25.2579 152.942 26.1001 153.505 26.8564C154.067 27.5954 154.835 28.1798 155.806 28.6095ZM174.394 25.3102V29.0484H172.169C170.584 29.0484 169.348 28.6617 168.461 27.8883C167.575 27.0977 167.132 25.8172 167.132 24.0469V18.3234H165.393V14.6625H167.132V11.1562H171.505V14.6625H174.369V18.3234H171.505V24.0984C171.505 24.5281 171.607 24.8375 171.811 25.0266C172.016 25.2156 172.357 25.3102 172.834 25.3102H174.394ZM190.849 29.0228L193.15 32.1424H198.444L194.506 27.3729C195.614 26.5307 196.475 25.4736 197.089 24.2018C197.719 22.9127 198.035 21.4947 198.035 19.9478C198.035 18.1775 197.626 16.5877 196.807 15.1783C196.006 13.7689 194.898 12.6689 193.483 11.8783C192.085 11.0877 190.542 10.6924 188.854 10.6924C187.166 10.6924 185.615 11.0877 184.2 11.8783C182.802 12.6689 181.685 13.7689 180.85 15.1783C180.032 16.5877 179.623 18.1775 179.623 19.9478C179.623 21.7182 180.032 23.3166 180.85 24.7432C181.685 26.1525 182.802 27.2525 184.2 28.0432C185.615 28.8338 187.166 29.2291 188.854 29.2291C189.502 29.2291 190.167 29.1603 190.849 29.0228ZM185.376 23.7893C184.524 22.8267 184.098 21.5463 184.098 19.9478C184.098 18.3322 184.524 17.0518 185.376 16.1064C186.246 15.1611 187.405 14.6885 188.854 14.6885C190.286 14.6885 191.429 15.1697 192.281 16.1322C193.15 17.0775 193.585 18.3494 193.585 19.9478C193.585 21.5291 193.15 22.801 192.281 23.7635C191.429 24.726 190.286 25.2072 188.854 25.2072C187.405 25.2072 186.246 24.7346 185.376 23.7893ZM203.597 25.8527L202.523 29.0496H197.946L204.441 10.9512H209.505L216 29.0496H211.371L210.297 25.8527H203.597ZM209.172 22.4496L206.947 15.8238L204.748 22.4496H209.172Z"/>
</svg>
