<svg width="24" height="24" viewBox="0 0 24 24" fill="none" xmlns="http://www.w3.org/2000/svg">
<path fill-rule="evenodd" clip-rule="evenodd" d="M8.04329 2.40099C6.89479 1.44391 5.00763 1.39786 4.00051 2.80377C2.19607 5.32272 2.03986 7.89126 2.8694 10.3029C3.67642 12.6491 5.4009 14.8151 7.2929 16.7071C9.1849 18.5991 11.3509 20.3235 13.6971 21.1306C16.1087 21.9601 18.6772 21.8039 21.1962 19.9994C22.6021 18.9923 22.556 17.1052 21.599 15.9567L19.1703 13.0422C18.0409 11.687 15.9917 11.5941 14.7443 12.8415L13.7874 13.7983C13.2444 13.515 12.433 13.0188 11.7071 12.2929C10.9812 11.5669 10.4849 10.7556 10.2017 10.2125L11.1585 9.25568C12.4059 8.00827 12.3129 5.95904 10.9577 4.82969L8.04329 2.40099Z" fill="black"/>
</svg>
