<svg width="24" height="24" viewBox="0 0 24 24" fill="none" xmlns="http://www.w3.org/2000/svg">
<path fill-rule="evenodd" clip-rule="evenodd" d="M9.41271 4.92563C7.12541 7.21294 6.24909 10.3751 6.7811 13.3329C5.01248 12.4537 2.90091 12.502 1.17 13.4758C0.721907 13.7279 0.537987 14.2787 0.74471 14.7494C1.03665 15.4142 1.45449 16.036 1.99643 16.5779C3.08496 17.6665 4.48814 18.2488 5.91173 18.3263C5.99069 19.7476 6.57296 21.148 7.65974 22.2348C8.20106 22.7761 8.82203 23.1936 9.48596 23.4855C9.95689 23.6925 10.5081 23.5085 10.7601 23.06C11.7323 21.3305 11.7808 19.2212 10.9035 17.4539C13.8618 17.9866 17.0248 17.1104 19.3126 14.8226C22.2495 11.8857 22.8602 7.50645 21.1502 3.96948C20.965 3.58638 20.6558 3.27692 20.2729 3.0914C16.7347 1.37726 12.3515 1.9868 9.41271 4.92563ZM17.1937 5.63172C17.7795 6.21751 17.7795 7.16726 17.1937 7.75304C16.6079 8.33883 15.6582 8.33883 15.0724 7.75304C14.4866 7.16726 14.4866 6.21751 15.0724 5.63172C15.6582 5.04594 16.6079 5.04594 17.1937 5.63172ZM11.8064 7.2758C11.7299 6.78466 11.2698 6.44849 10.7787 6.52495C10.2875 6.60141 9.95137 7.06154 10.0278 7.55268C10.2707 9.11311 11.2496 10.605 12.433 11.7543C13.6205 12.9075 15.1262 13.8258 16.5794 14.1516C17.0644 14.2603 17.5457 13.9553 17.6544 13.4703C17.7632 12.9852 17.4582 12.5039 16.9731 12.3952C15.9236 12.1599 14.7022 11.4489 13.687 10.463C12.6677 9.47308 11.9683 8.31594 11.8064 7.2758Z" fill="black"/>
</svg>
