<svg width="24" height="24" viewBox="0 0 24 24" fill="none" xmlns="http://www.w3.org/2000/svg">
<path fill-rule="evenodd" clip-rule="evenodd" d="M11.4999 2.7287C11.4999 1.79774 12.3609 1.00262 13.3481 1.34316C14.9325 1.88966 17.7499 3.34159 17.7499 6.75003C17.7499 9.24277 16.243 10.689 14.8135 11.5H21.2712C22.2022 11.5 22.9973 12.361 22.6568 13.3482C22.1103 14.9326 20.6583 17.75 17.2499 17.75C14.7572 17.75 13.3109 16.2431 12.4999 14.8136V21.2714C12.4999 22.2023 11.639 22.9974 10.6517 22.6569C9.06736 22.1104 6.24993 20.6585 6.24993 17.25C6.24993 14.7572 7.75694 13.311 9.18642 12.5H2.72858C1.79762 12.5 1.0025 11.639 1.34303 10.6518C1.88954 9.06743 3.34147 6.25 6.74991 6.25C9.2427 6.25 10.689 7.75701 11.4999 9.18649V2.7287Z" fill="black"/>
</svg>
