<svg width="24" height="24" viewBox="0 0 24 24" fill="none" xmlns="http://www.w3.org/2000/svg">
<path fill-rule="evenodd" clip-rule="evenodd" d="M6.96771 5.70223C5.78525 7.05605 5.06519 9.15105 5.06519 12.0662C5.06519 14.5687 5.67051 16.6486 6.79386 18.08C7.89078 19.4777 9.55759 20.3574 11.9391 20.3574C16.3679 20.3574 18.0661 17.9019 18.0661 15.9949C18.0661 15.0446 17.7191 14.1695 16.9798 13.5203C16.8711 13.4247 16.7517 13.3323 16.621 13.244C16.4942 14.0673 16.2583 14.8502 15.8648 15.5195C15.1565 16.7243 13.9772 17.484 12.327 17.484C10.8201 17.484 9.72817 17.0118 9.01434 16.276C8.32214 15.5625 8.07184 14.6881 8.07184 14.0237C8.07184 13.3882 8.28118 12.4393 9.08179 11.6499C9.89073 10.8524 11.1663 10.3521 13.0311 10.3521C13.6039 10.3521 14.144 10.3898 14.6509 10.463C14.532 9.85334 14.3092 9.41984 14.0423 9.12317C13.6555 8.69317 13.0594 8.42059 12.1735 8.42059C11.197 8.42059 10.4801 8.95073 10.1854 9.22814C9.7832 9.60667 9.15033 9.58752 8.7718 9.18535C8.39327 8.78319 8.41243 8.15032 8.81459 7.77179C9.29023 7.32409 10.4757 6.42059 12.1735 6.42059C13.4932 6.42059 14.6823 6.84405 15.5292 7.78562C16.2729 8.6123 16.6565 9.73162 16.7305 11.0348C17.3288 11.2948 17.8524 11.6248 18.2995 12.0175C19.517 13.0866 20.0661 14.5329 20.0661 15.9949C20.0661 19.2712 17.1876 22.3574 11.9391 22.3574C9.00078 22.3574 6.73061 21.2389 5.22052 19.3147C3.73688 17.4242 3.06519 14.8584 3.06519 12.0662C3.06519 8.84692 3.85955 6.22054 5.46138 4.38657C7.08038 2.53295 9.40646 1.62341 12.1735 1.62341C15.0028 1.62341 17.0004 2.56398 18.3722 3.83159C19.7221 5.07889 20.4047 6.58436 20.7357 7.64709C20.9 8.17439 20.6057 8.73499 20.0784 8.89923C19.5511 9.06348 18.9905 8.76916 18.8262 8.24186C18.561 7.39021 18.0264 6.23515 17.0149 5.30051C16.0254 4.38619 14.5174 3.62341 12.1735 3.62341C9.86107 3.62341 8.133 4.36807 6.96771 5.70223ZM14.6992 12.4979C14.211 12.4047 13.6572 12.3521 13.0311 12.3521C11.5156 12.3521 10.8115 12.7531 10.4859 13.0741C10.152 13.4034 10.0718 13.7903 10.0718 14.0237C10.0718 14.2281 10.1593 14.5839 10.4498 14.8833C10.7187 15.1605 11.2543 15.484 12.327 15.484C13.2562 15.484 13.7854 15.1101 14.1407 14.5059C14.4322 14.01 14.6192 13.3269 14.6992 12.4979Z" fill="black"/>
</svg>
