<svg width="24" height="24" viewBox="0 0 24 24" fill="none" xmlns="http://www.w3.org/2000/svg">
<path fill-rule="evenodd" clip-rule="evenodd" d="M7.22311 10H11.9999H16.7767L13.6415 15.4868C13.5879 15.5762 13.5479 15.6746 13.5243 15.7793C13.5065 15.8578 13.4985 15.9373 13.4999 16.0163C13.5087 18.7702 15.7439 21 18.4999 21C21.2539 21 23.4878 18.7734 23.4998 16.0223C23.5023 15.9172 23.4882 15.811 23.4565 15.7076C23.4331 15.631 23.4007 15.5583 23.3607 15.4908L19.3765 8.51847C19.3118 8.40094 19.2242 8.29782 19.1196 8.21515C18.9493 8.08043 18.734 8.00001 18.4999 8M18.4999 8C18.4999 8 18.4999 8 18.4999 8H12.9999V4C12.9999 3.44772 12.5522 3 11.9999 3C11.4476 3 10.9999 3.44772 10.9999 4V8H5.49993H5.49988C5.12047 8 4.79041 8.2113 4.62096 8.52264L0.641451 15.4868C0.58789 15.5762 0.547896 15.6746 0.524317 15.7793C0.50653 15.8578 0.498546 15.9373 0.499904 16.0163C0.508671 18.7702 2.74388 21 5.49988 21C8.25388 21 10.4878 18.7734 10.4998 16.0223C10.5023 15.9172 10.4882 15.811 10.4565 15.7076C10.4331 15.631 10.4008 15.5583 10.3607 15.4908L7.22311 10M7.77675 15L5.49993 11.0156L3.22311 15H7.77675ZM16.2231 15L18.4999 11.0156L20.7767 15H16.2231Z" fill="black"/>
</svg>
