<svg width="24" height="24" viewBox="0 0 24 24" fill="none" xmlns="http://www.w3.org/2000/svg">
<path fill-rule="evenodd" clip-rule="evenodd" d="M9.9999 2.25001C11.2375 1.53548 12.7623 1.53548 13.9999 2.25001L19.4436 5.39296C20.6813 6.10749 21.4436 7.428 21.4436 8.85706V15.143C21.4436 16.572 20.6813 17.8925 19.4436 18.6071L13.9999 21.75C12.7623 22.4645 11.2375 22.4645 9.9999 21.75L4.55615 18.6071C3.31855 17.8925 2.55615 16.572 2.55615 15.143V8.85706C2.55615 7.428 3.31855 6.10749 4.55615 5.39296L9.9999 2.25001ZM6.00041 7.38139C5.52212 7.10525 4.91053 7.26913 4.63439 7.74742C4.35824 8.22571 4.52212 8.8373 5.00041 9.11345L11.0001 12.5773L11.0004 19.5C11.0004 20.0523 11.4482 20.5 12.0005 20.5C12.5527 20.4999 13.0004 20.0522 13.0004 19.4999L13.0001 12.5773L18.9996 9.11345C19.4779 8.8373 19.6418 8.22571 19.3657 7.74742C19.0895 7.26913 18.4779 7.10525 17.9996 7.38139L12 10.8453L6.00041 7.38139Z" fill="black"/>
</svg>
