<svg width="30" height="30" viewBox="0 0 30 30" fill="none" xmlns="http://www.w3.org/2000/svg">
<path d="M8.9875 4.10412C10.0491 3.91992 11.1378 3.98068 12.1732 4.28192C13.2087 4.58316 14.1646 5.1172 14.9704 5.84467L15.0148 5.88498L15.0556 5.84834C15.8247 5.16103 16.7289 4.64863 17.7078 4.34533C18.6868 4.04203 19.718 3.9548 20.7326 4.08946L21.0277 4.13343C22.3067 4.35831 23.5022 4.93123 24.4875 5.7915C25.4729 6.65178 26.2114 7.7674 26.6249 9.02022C27.0385 10.273 27.1116 11.6164 26.8366 12.9081C26.5616 14.1998 25.9486 15.3917 25.0627 16.3576L24.8468 16.5836L24.7892 16.6337L15.8532 25.6467C15.647 25.8545 15.3738 25.9792 15.0842 25.9976C14.7947 26.016 14.5083 25.9269 14.2783 25.7468L14.1656 25.6467L5.17801 16.5811C4.2259 15.6378 3.54878 14.4445 3.22164 13.1333C2.8945 11.8222 2.9301 10.4445 3.3245 9.15272C3.71891 7.86095 4.45673 6.70554 5.45624 5.81447C6.45575 4.92339 7.67796 4.33142 8.9875 4.10412Z" fill="black"/>
</svg>
