<svg width="24" height="24" viewBox="0 0 24 24" fill="none" xmlns="http://www.w3.org/2000/svg">
<path fill-rule="evenodd" clip-rule="evenodd" d="M8 2.5C8 1.94772 8.44772 1.5 9 1.5C11.2091 1.5 13 3.29086 13 5.5V6.35889C13.0611 6.32521 13.1198 6.28841 13.1756 6.24848C14.4327 5.34887 15.9362 4.9022 17.4626 5.22665C19.2973 5.61662 20.6382 7.00251 21.3843 8.73814C22.1315 10.4766 22.3287 12.6473 21.8602 14.8513C21.3918 17.0553 20.3288 18.9581 18.939 20.2423C17.5514 21.5245 15.7628 22.2451 13.9281 21.8552C13.696 21.8058 13.4702 21.74 13.2513 21.6586C12.4651 21.3662 11.4315 21.3782 10.6294 21.6822C10.4101 21.7653 10.1836 21.8322 9.95051 21.8817C8.13942 22.2667 6.37912 21.5279 5.01931 20.2424C3.65584 18.9534 2.61022 17.0503 2.14283 14.8514C1.67543 12.6525 1.85661 10.4886 2.57791 8.75647C3.29727 7.02897 4.60493 5.63814 6.41601 5.25318C7.8929 4.93926 9.34582 5.37535 10.564 6.24558C10.6956 6.33963 10.8429 6.41644 11 6.47603V5.5C11 4.39543 10.1046 3.5 9 3.5C8.44772 3.5 8 3.05228 8 2.5ZM16.5072 9.21268C16.8294 9.25465 17.1552 9.41529 17.4542 9.73748C17.7592 10.0662 18.0248 10.554 18.19 11.1901C18.3288 11.7246 18.8747 12.0454 19.4093 11.9066C19.9438 11.7677 20.2646 11.2219 20.1258 10.6873C19.8953 9.80002 19.4944 8.99592 18.9203 8.37716C18.3401 7.75186 17.601 7.33826 16.7655 7.22944C16.2179 7.1581 15.7161 7.54424 15.6448 8.0919C15.5734 8.63956 15.9596 9.14135 16.5072 9.21268Z" fill="black"/>
</svg>
