<svg width="24" height="24" viewBox="0 0 24 24" fill="none" xmlns="http://www.w3.org/2000/svg">
<path fill-rule="evenodd" clip-rule="evenodd" d="M4.29289 9.24277C3.90237 9.6333 3.90237 10.2665 4.2929 10.657C4.68343 11.0475 5.31659 11.0475 5.70711 10.657L10.9497 5.41429L10.9497 15.3138C10.9497 15.8661 11.3975 16.3138 11.9498 16.3138C12.502 16.3138 12.9497 15.8661 12.9497 15.3138L12.9497 5.41429L18.1923 10.6569C18.5828 11.0474 19.216 11.0474 19.6065 10.6569C19.9971 10.2664 19.9971 9.63322 19.6065 9.2427L12.6568 2.29295C12.4693 2.10542 12.2149 2.00006 11.9497 2.00006C11.6845 2.00006 11.4301 2.10542 11.2426 2.29296L4.29289 9.24277ZM4 14C4 13.4477 3.55228 13 3 13C2.44772 13 2 13.4477 2 14V18C2 20.2091 3.79086 22 6 22H18C20.2091 22 22 20.2091 22 18V14C22 13.4477 21.5523 13 21 13C20.4477 13 20 13.4477 20 14V18C20 19.1046 19.1046 20 18 20H6C4.89543 20 4 19.1046 4 18V14Z" fill="black"/>
</svg>
