<svg width="24" height="24" viewBox="0 0 24 24" fill="none" xmlns="http://www.w3.org/2000/svg">
<path fill-rule="evenodd" clip-rule="evenodd" d="M3.45593 14.8357C3.59367 15.251 3.76085 15.6528 3.95497 16.0388C4.2901 16.067 4.83581 16.05 5.61172 15.907C7.4626 15.5658 9.97801 14.6289 12.6339 13.0956C15.2897 11.5622 17.3588 9.85225 18.5797 8.41993C19.0897 7.82167 19.377 7.35877 19.5206 7.05436C19.2801 6.68941 19.0138 6.343 18.7242 6.01774C19.2977 5.94672 19.8031 5.93189 20.2302 5.96916C21.1074 6.04571 21.4301 6.31343 21.5353 6.49574C21.6244 6.65007 21.692 6.96519 21.4744 7.56387C21.2591 8.15631 20.8076 8.89043 20.1024 9.71774C18.6981 11.3652 16.4343 13.2116 13.6345 14.828C10.8347 16.4445 8.10382 17.4818 5.97491 17.8743C4.90584 18.0713 4.04435 18.0952 3.4236 17.9855C2.79633 17.8746 2.55724 17.6585 2.46814 17.5042C2.36321 17.3224 2.29266 16.9112 2.66161 16.1172C2.84223 15.7285 3.10751 15.2977 3.45593 14.8357ZM3.00471 12.2916C2.04709 13.297 1.29492 14.3123 0.847866 15.2744C0.369444 16.3039 0.149264 17.4878 0.736088 18.5042C1.23594 19.37 2.13993 19.7896 3.07548 19.955C4.01756 20.1215 5.13863 20.0621 6.33747 19.8411C6.63385 19.7865 6.9384 19.7213 7.25013 19.6459C8.62878 20.5042 10.2565 21 12.0001 21C16.9706 21 21.0001 16.9706 21.0001 12C21.0001 11.9035 20.9986 11.8074 20.9955 11.7117C21.2181 11.4782 21.428 11.2457 21.6245 11.0152C22.4153 10.0874 23.0273 9.14624 23.3541 8.24711C23.6787 7.35422 23.7672 6.36151 23.2674 5.49574C22.6789 4.47641 21.5388 4.07576 20.4041 3.97673C19.3493 3.88469 18.0971 4.02863 16.7509 4.35461C15.372 3.496 13.744 3 12.0001 3C7.02951 3 3.00008 7.02944 3.00008 12C3.00008 12.0976 3.00163 12.1948 3.00471 12.2916Z" fill="black"/>
</svg>
