<svg width="24" height="24" viewBox="0 0 24 24" fill="none" xmlns="http://www.w3.org/2000/svg">
<path fill-rule="evenodd" clip-rule="evenodd" d="M10.1864 2.39942C11.188 1.39779 12.812 1.39779 13.8136 2.39942C15.0127 3.59848 16.7863 4.01717 18.395 3.48093L18.5911 3.41557C19.7762 3.02054 21 3.90264 21 5.15184V12.566C21 15.6691 19.4014 18.5534 16.77 20.198L13.59 22.1855C12.6172 22.7935 11.3828 22.7935 10.41 22.1855L7.23001 20.198C4.59858 18.5534 3 15.6691 3 12.566V5.15184C3 3.90264 4.22384 3.02054 5.40894 3.41557L5.60502 3.48093C7.21372 4.01717 8.98733 3.59848 10.1864 2.39942ZM9.75 9.5C9.75 8.25736 10.7574 7.25 12 7.25C13.2426 7.25 14.25 8.25736 14.25 9.5V10.2677C15.0981 10.389 15.75 11.1184 15.75 12V14C15.75 14.9665 14.9665 15.75 14 15.75H10C9.0335 15.75 8.25 14.9665 8.25 14V12C8.25 11.1184 8.90193 10.389 9.75 10.2677V9.5ZM12.75 9.5V10.25H11.25V9.5C11.25 9.08579 11.5858 8.75 12 8.75C12.4142 8.75 12.75 9.08579 12.75 9.5Z" fill="black"/>
</svg>
