<svg width="24" height="24" viewBox="0 0 24 24" fill="none" xmlns="http://www.w3.org/2000/svg">
<path fill-rule="evenodd" clip-rule="evenodd" d="M9.57367 4.01866C9.72305 3.64694 9.63617 3.22195 9.35289 2.93867C9.06962 2.6554 8.64462 2.56852 8.2729 2.71791C4.5977 4.19487 2 7.79285 2 12C2 17.5228 6.47715 22 12 22C16.2071 22 19.8051 19.4022 21.2821 15.727C21.4315 15.3553 21.3446 14.9303 21.0613 14.647C20.778 14.3637 20.353 14.2768 19.9813 14.4262C19.0613 14.796 18.0557 14.9999 17 14.9999C12.5817 14.9999 9 11.4182 9 6.99991C9 5.94425 9.20395 4.93868 9.57367 4.01866Z" fill="black"/>
</svg>
