<svg width="24" height="24" viewBox="0 0 24 24" fill="none" xmlns="http://www.w3.org/2000/svg">
<path fill-rule="evenodd" clip-rule="evenodd" d="M11.1213 2.46447C12.0589 1.52678 13.3307 1 14.6568 1H20.9999C22.1045 1 22.9999 1.89543 22.9999 3V9.34315C22.9999 10.6692 22.4732 11.941 21.5355 12.8787L12.6213 21.7929C11.4497 22.9645 9.5502 22.9645 8.37862 21.7929L2.20705 15.6213C1.03548 14.4497 1.03548 12.5503 2.20705 11.3787L11.1213 2.46447ZM17.9999 7.5C17.9999 8.32843 17.3284 9 16.4999 9C15.6715 9 14.9999 8.32843 14.9999 7.5C14.9999 6.67157 15.6715 6 16.4999 6C17.3284 6 17.9999 6.67157 17.9999 7.5Z" fill="black"/>
</svg>
