<svg width="24" height="24" viewBox="0 0 24 24" fill="none" xmlns="http://www.w3.org/2000/svg">
<path fill-rule="evenodd" clip-rule="evenodd" d="M17.8287 6.77169C17.8168 3.56198 15.2052 0.969612 11.9955 0.981486C8.78574 0.993359 6.19338 3.60497 6.20525 6.81469C6.21415 9.21973 7.68267 11.2782 9.76874 12.1541C7.83975 12.4364 6.35183 13.0883 5.21536 13.9576C3.68 15.1321 2.87529 16.6351 2.45731 17.9317C2.09546 19.0541 2.41334 20.1154 3.10148 20.861C3.76945 21.5848 4.76544 22 5.81135 21.9999L13.5417 21.9999C13.3862 21.0754 13.6652 20.092 14.3786 19.3786L14.7573 18.9999L14.3786 18.6213C13.207 17.4497 13.207 15.5502 14.3786 14.3786C15.5502 13.207 17.4497 13.207 18.6213 14.3786L18.9999 14.7573L19.3361 14.4211C19.1636 14.262 18.98 14.1072 18.7845 13.9576C17.653 13.0921 16.1731 12.4421 14.2564 12.1578C16.3617 11.278 17.8376 9.19535 17.8287 6.77169ZM22.207 22.207C21.8165 22.5976 21.1834 22.5976 20.7928 22.207L18.9999 20.4142L17.207 22.207C16.8165 22.5976 16.1834 22.5976 15.7928 22.207C15.4023 21.8165 15.4023 21.1834 15.7928 20.7928L17.5857 18.9999L15.7928 17.207C15.4023 16.8165 15.4023 16.1834 15.7928 15.7928C16.1834 15.4023 16.8165 15.4023 17.207 15.7928L18.9999 17.5857L20.7928 15.7928C21.1834 15.4023 21.8165 15.4023 22.207 15.7928C22.5976 16.1834 22.5976 16.8165 22.207 17.207L20.4142 18.9999L22.207 20.7928C22.5976 21.1834 22.5976 21.8165 22.207 22.207Z" fill="black"/>
</svg>
