<svg width="24" height="24" viewBox="0 0 24 24" fill="none" xmlns="http://www.w3.org/2000/svg">
<path fill-rule="evenodd" clip-rule="evenodd" d="M21 4.83164C21 3.24931 19.2495 2.29363 17.9185 3.14928L6.76774 10.3176C6.40348 10.5518 6.14757 10.8747 6 11.2335L6 4C6 3.44772 5.55229 3 5 3C4.44772 3 4 3.44772 4 4V20C4 20.5523 4.44772 21 5 21C5.55228 21 6 20.5523 6 20L6 12.7664C6.14757 13.1253 6.40348 13.4482 6.76774 13.6823L17.9185 20.8507C19.2495 21.7063 21 20.7506 21 19.1683V4.83164Z" fill="black"/>
</svg>
