<svg width="24" height="24" viewBox="0 0 24 24" fill="none" xmlns="http://www.w3.org/2000/svg">
<g clip-path="url(#clip0_895_53412)">
<path fill-rule="evenodd" clip-rule="evenodd" d="M11.6667 2.99999C8.53712 2.99999 6.00006 5.53705 6.00006 8.66667L6.00005 17.25C6.00004 19.3211 7.67898 21 9.75006 21C11.8211 21 13.5001 19.3211 13.5001 17.25L13.5001 9.00005C13.5001 8.17162 12.8285 7.50005 12.0001 7.50005C11.1716 7.50005 10.5001 8.17162 10.5001 9.00005L10.5001 16C10.5001 16.5523 10.0524 17 9.50009 17C8.94781 17.0001 8.50009 16.5523 8.50009 16.0001L8.50007 9.00006C8.50007 7.06706 10.0671 5.50005 12.0001 5.50005C13.9331 5.50005 15.5001 7.06705 15.5001 9.00004L15.5001 17.25C15.5001 20.4257 12.9257 23 9.75006 23C6.57441 23 4.00004 20.4257 4.00005 17.25L4.00006 8.66666C4.00006 4.43247 7.43256 0.99999 11.6667 0.99999L12.0001 0.99999C16.4184 0.99999 20.0001 4.58172 20.0001 9.00001L20.0001 16C20.0001 16.5523 19.5524 17 19.0001 17C18.4478 17 18.0001 16.5523 18.0001 16L18.0001 9.00001C18.0001 5.68629 15.3138 2.99999 12.0001 2.99999L11.6667 2.99999Z" fill="black"/>
</g>
<defs>
<clipPath id="clip0_895_53412">
<rect width="24" height="24" fill="white"/>
</clipPath>
</defs>
</svg>
