<svg width="24" height="24" viewBox="0 0 24 24" fill="none" xmlns="http://www.w3.org/2000/svg">
<path fill-rule="evenodd" clip-rule="evenodd" d="M9.83219 1.94528C9.52584 1.48576 8.90497 1.36158 8.44544 1.66793C7.98591 1.97429 7.86174 2.59516 8.16809 3.05468L8.78371 3.97811C8.29692 4.51142 8.00003 5.22104 8.00003 6C8.00003 6.17036 8.01423 6.3374 8.04151 6.5H15.9586C15.9858 6.3374 16 6.17036 16 6C16 5.22104 15.7031 4.51142 15.2164 3.97811L15.832 3.05468C16.1383 2.59516 16.0142 1.97429 15.5546 1.66793C15.0951 1.36158 14.4742 1.48576 14.1679 1.94528L13.4431 3.03249C13.2985 3.01109 13.1506 3 13 3H11C10.8495 3 10.7016 3.01109 10.557 3.03249L9.83219 1.94528ZM3.00003 14.5C2.44775 14.5 2.00003 14.9477 2.00003 15.5C2.00003 16.0523 2.44775 16.5 3.00003 16.5H5.16112C5.32487 17.25 5.60885 17.9551 5.99185 18.594L4.29293 20.2929C3.9024 20.6834 3.9024 21.3166 4.29293 21.7071C4.68345 22.0976 5.31662 22.0976 5.70714 21.7071L7.2617 20.1525C8.50837 21.2996 10.1724 22 12 22C13.8277 22 15.4917 21.2996 16.7384 20.1525L18.2929 21.7071C18.6835 22.0976 19.3166 22.0976 19.7071 21.7071C20.0977 21.3166 20.0977 20.6834 19.7071 20.2929L18.0082 18.594C18.3912 17.9551 18.6752 17.25 18.8389 16.5H21C21.5523 16.5 22 16.0523 22 15.5C22 14.9477 21.5523 14.5 21 14.5H19V11.5C19 11.4489 18.9988 11.3982 18.9962 11.3478L21.1644 10.9864C21.7092 10.8956 22.0772 10.3804 21.9864 9.8356C21.8956 9.29083 21.3804 8.92281 20.8356 9.01361L18.194 9.45388C17.6464 8.86696 16.8661 8.5 16 8.5H13V18.3751C13 18.9273 12.5523 19.3751 12 19.3751C11.4478 19.3751 11 18.9273 11 18.3751V8.5H8.00003C7.134 8.5 6.35368 8.86696 5.80607 9.45388L3.16443 9.01361C2.61966 8.92281 2.10444 9.29083 2.01364 9.8356C1.92285 10.3804 2.29086 10.8956 2.83564 10.9864L5.00383 11.3478C5.00131 11.3982 5.00003 11.4489 5.00003 11.5V14.5H3.00003Z" fill="black"/>
</svg>
