<svg width="24" height="24" viewBox="0 0 24 24" fill="none" xmlns="http://www.w3.org/2000/svg">
<path fill-rule="evenodd" clip-rule="evenodd" d="M13 4.82572C13 2.87239 10.6818 1.84691 9.2365 3.16085L1.34476 10.3352L2.01744 11.0751L1.34476 10.3352C0.36278 11.2279 0.362782 12.7722 1.34476 13.6649L2.01744 12.925L1.34476 13.6649L6.09183 17.9804C6.2355 18.3325 6.53241 18.5795 6.87126 18.689L9.2365 20.8392C10.6818 22.1531 13 21.1277 13 19.1743V17H13C16.0965 17 18.8283 18.5629 20.4492 20.9475C20.9941 21.7492 22.4228 21.7164 22.7011 20.5471C22.8035 20.117 22.8803 19.6791 22.9304 19.2355C23.2411 16.487 22.5049 13.7224 20.8685 11.4924C19.2322 9.26233 16.8157 7.73064 14.1006 7.20244C13.7351 7.13134 13.3678 7.07912 13 7.04554V4.82572Z" fill="black"/>
</svg>
