<svg width="24" height="24" viewBox="0 0 24 24" fill="none" xmlns="http://www.w3.org/2000/svg">
<path fill-rule="evenodd" clip-rule="evenodd" d="M17.8287 6.77169C17.8168 3.56198 15.2052 0.969612 11.9955 0.981486C8.78574 0.993359 6.19338 3.60497 6.20525 6.81469C6.21415 9.21973 7.68267 11.2782 9.76874 12.1541C7.83975 12.4364 6.35183 13.0883 5.21536 13.9576C3.68 15.1321 2.87529 16.6351 2.45731 17.9317C2.09546 19.0541 2.41334 20.1154 3.10148 20.861C3.76945 21.5848 4.76544 22 5.81135 21.9999L13.0218 21.9999C12.3749 20.9896 11.9999 19.7886 11.9999 18.4999C11.9999 15.8228 13.6185 13.5236 15.9304 12.5276C15.4133 12.3716 14.8562 12.2468 14.2564 12.1578C16.3617 11.278 17.8376 9.19535 17.8287 6.77169ZM18.4999 15.9999C17.1192 15.9999 15.9999 17.1192 15.9999 18.4999C15.9999 18.8224 16.061 19.1305 16.1721 19.4135L19.4135 16.1721C19.1305 16.061 18.8224 15.9999 18.4999 15.9999ZM18.4999 20.9999C18.1775 20.9999 17.8693 20.9389 17.5863 20.8277L20.8277 17.5863C20.9389 17.8693 20.9999 18.1775 20.9999 18.4999C20.9999 19.8807 19.8807 20.9999 18.4999 20.9999ZM13.9999 18.4999C13.9999 16.0147 16.0147 13.9999 18.4999 13.9999C20.9852 13.9999 22.9999 16.0147 22.9999 18.4999C22.9999 20.9852 20.9852 22.9999 18.4999 22.9999C16.0147 22.9999 13.9999 20.9852 13.9999 18.4999Z" fill="black"/>
</svg>
