<svg width="24" height="24" viewBox="0 0 24 24" fill="none" xmlns="http://www.w3.org/2000/svg">
<path fill-rule="evenodd" clip-rule="evenodd" d="M13.8136 2.39942C12.812 1.39779 11.188 1.39779 10.1864 2.39942C8.98733 3.59848 7.21372 4.01717 5.60502 3.48093L5.40894 3.41557C4.22384 3.02054 3 3.90264 3 5.15184V12.566C3 15.6691 4.59858 18.5534 7.23001 20.198L10.41 22.1855C11.3828 22.7935 12.6172 22.7935 13.59 22.1855L16.77 20.198C19.4014 18.5534 21 15.6691 21 12.566V5.15184C21 3.90264 19.7762 3.02054 18.5911 3.41557L18.395 3.48093C16.7863 4.01717 15.0127 3.59848 13.8136 2.39942Z" fill="black"/>
</svg>
