<svg width="24" height="24" viewBox="0 0 24 24" fill="none" xmlns="http://www.w3.org/2000/svg">
<path fill-rule="evenodd" clip-rule="evenodd" d="M3.51461 20.4854C0.780938 17.7517 0.780938 13.3196 3.51461 10.5859C4.56667 9.53386 5.87302 8.88555 7.23637 8.64369C7.87866 8.52975 8.5295 7.87891 8.64345 7.23662C8.88531 5.87327 9.53362 4.56691 10.5857 3.51485C13.3193 0.781182 17.7515 0.781182 20.4852 3.51485C23.2188 6.24852 23.2188 10.6807 20.4852 13.4143C19.4331 14.4664 18.1268 15.1147 16.7634 15.3566C16.1211 15.4705 15.4703 16.1214 15.3563 16.7637C15.1145 18.127 14.4662 19.4334 13.4141 20.4854C10.6804 23.2191 6.24828 23.2191 3.51461 20.4854ZM19 8.5C19 9.32843 18.3284 10 17.5 10C16.6716 10 16 9.32843 16 8.5C16 7.67157 16.6716 7 17.5 7C18.3284 7 19 7.67157 19 8.5ZM11.1211 18C11.1211 18.8284 10.4495 19.5 9.62109 19.5C8.79267 19.5 8.12109 18.8284 8.12109 18C8.12109 17.1716 8.79267 16.5 9.62109 16.5C10.4495 16.5 11.1211 17.1716 11.1211 18ZM12 15C12.8284 15 13.5 14.3284 13.5 13.5C13.5 12.6716 12.8284 12 12 12C11.1716 12 10.5 12.6716 10.5 13.5C10.5 14.3284 11.1716 15 12 15ZM8.5 14C8.5 14.8284 7.82843 15.5 7 15.5C6.17157 15.5 5.5 14.8284 5.5 14C5.5 13.1716 6.17157 12.5 7 12.5C7.82843 12.5 8.5 13.1716 8.5 14Z" fill="black"/>
</svg>
