<svg width="24" height="24" viewBox="0 0 24 24" fill="none" xmlns="http://www.w3.org/2000/svg">
<path fill-rule="evenodd" clip-rule="evenodd" d="M22.9999 6.92066C22.9999 5.30261 21.1785 4.3543 19.8529 5.28219L12.5967 10.3615C12.3397 10.5415 12.1407 10.7668 11.9999 11.0169V6.92066C11.9999 5.30261 10.1785 4.3543 8.85293 5.28219L9.4264 6.10142L8.85293 5.28219L1.59673 10.3615C0.459298 11.1577 0.45929 12.8423 1.59673 13.6385L8.85293 18.7178C10.1785 19.6457 11.9999 18.6974 11.9999 17.0793V12.9831C12.1407 13.2332 12.3397 13.4585 12.5967 13.6385L19.8529 18.7178C21.1785 19.6457 22.9999 18.6974 22.9999 17.0793V6.92066Z" fill="black"/>
</svg>
