<svg width="24" height="24" viewBox="0 0 24 24" fill="none" xmlns="http://www.w3.org/2000/svg">
<path fill-rule="evenodd" clip-rule="evenodd" d="M12.9999 2.5C12.9999 1.94772 12.5522 1.5 11.9999 1.5C11.4477 1.5 10.9999 1.94772 10.9999 2.5V3V4.08579L9.70705 2.79289C9.31653 2.40237 8.68336 2.40237 8.29284 2.79289C7.90231 3.18342 7.90231 3.81658 8.29284 4.20711L10.9999 6.91421V10.2675L8.09535 8.59051L7.1046 4.89299C6.96166 4.35953 6.41332 4.04294 5.87986 4.18589C5.34639 4.32883 5.02981 4.87717 5.17275 5.41063L5.64586 7.1763L4.27245 6.38336C3.79416 6.10722 3.18257 6.27109 2.90643 6.74939C2.63029 7.22768 2.79416 7.83927 3.27245 8.11541L4.64644 8.90868L2.87986 9.38204C2.34639 9.52498 2.02981 10.0733 2.17275 10.6068C2.31569 11.1402 2.86403 11.4568 3.39749 11.3139L7.09593 10.3229L10.0003 11.9997L7.09543 13.6769L3.3975 12.686C2.86403 12.5431 2.31569 12.8596 2.17275 13.3931C2.02981 13.9266 2.34639 14.4749 2.87986 14.6179L4.64594 15.0911L3.70562 15.634L3.69721 15.6389L3.2727 15.884C2.79441 16.1601 2.63053 16.7717 2.90667 17.25C3.18281 17.7283 3.79441 17.8922 4.2727 17.616L5.64598 16.8232L5.17275 18.5893C5.02981 19.1227 5.34639 19.6711 5.87986 19.814C6.41332 19.957 6.96166 19.6404 7.1046 19.1069L8.09547 15.4089L10.9999 13.732V17.0858L8.29284 19.7929C7.90231 20.1834 7.90231 20.8166 8.29284 21.2071C8.68336 21.5976 9.31653 21.5976 9.70705 21.2071L10.9999 19.9142V21V21.5C10.9999 22.0523 11.4477 22.5 11.9999 22.5C12.5522 22.5 12.9999 22.0523 12.9999 21.5V21V19.9142L14.2928 21.2071C14.6834 21.5976 15.3165 21.5976 15.7071 21.2071C16.0976 20.8166 16.0976 20.1834 15.7071 19.7929L12.9999 17.0858V13.7316L15.9042 15.4084L16.8953 19.107C17.0382 19.6405 17.5866 19.9571 18.12 19.8141C18.6535 19.6712 18.9701 19.1228 18.8271 18.5894L18.3537 16.8226L19.7269 17.6154C20.2052 17.8916 20.8168 17.7277 21.093 17.2494C21.3691 16.7711 21.2052 16.1595 20.7269 15.8834L19.3546 15.091L21.12 14.618C21.6535 14.475 21.9701 13.9267 21.8271 13.3932C21.6842 12.8598 21.1359 12.5432 20.6024 12.6861L16.9051 13.6768L14.0003 11.9998L16.9044 10.3231L20.6024 11.314C21.1359 11.4569 21.6842 11.1404 21.8271 10.6069C21.9701 10.0734 21.6535 9.52508 21.12 9.38214L19.3539 8.9089L20.7272 8.11602C21.2055 7.83988 21.3693 7.22829 21.0932 6.75C20.8171 6.27171 20.2055 6.10783 19.7272 6.38397L19.3025 6.62915L19.2941 6.63397L18.3539 7.17676L18.8271 5.41073C18.9701 4.87727 18.6535 4.32893 18.12 4.18599C17.5866 4.04305 17.0382 4.35963 16.8953 4.8931L15.9044 8.59098L12.9999 10.2679V6.91421L15.7071 4.20711C16.0976 3.81658 16.0976 3.18342 15.7071 2.79289C15.3165 2.40237 14.6834 2.40237 14.2928 2.79289L12.9999 4.08579V3V2.5Z" fill="black"/>
</svg>
