<svg width="24" height="24" viewBox="0 0 24 24" fill="none" xmlns="http://www.w3.org/2000/svg">
<path fill-rule="evenodd" clip-rule="evenodd" d="M9.14618 0.381394C8.09405 -0.0394575 6.97313 0.813509 7.09827 1.93976L7.90701 9.21845L5.04525 9.85439L4.9524 9.66868C4.44104 8.64598 3.39576 7.99995 2.25234 7.99995C1.56069 7.99995 1 8.56065 1 9.2523V14.7476C1 15.4393 1.56069 16 2.25234 16C3.39576 16 4.44104 15.3539 4.9524 14.3312L5.04525 14.1455L7.90701 14.7815L7.09827 22.0602C6.97313 23.1864 8.09405 24.0394 9.14618 23.6185L9.71789 23.3898C10.657 23.0142 11.4601 22.3625 12.0212 21.521L16.0352 15.5H19.5C21.433 15.5 23 13.933 23 12C23 10.067 21.433 8.49996 19.5 8.49996H16.0352L12.0212 2.47896C11.4601 1.63737 10.657 0.985727 9.71789 0.610077L9.14618 0.381394Z" fill="black"/>
</svg>
