<svg width="24" height="24" viewBox="0 0 24 24" fill="none" xmlns="http://www.w3.org/2000/svg">
<path fill-rule="evenodd" clip-rule="evenodd" d="M8.41408 2.33789C8.14887 2.33789 7.89451 2.44325 7.70697 2.63078L2.63286 7.7049C2.44532 7.89244 2.33997 8.14679 2.33997 8.41201V15.5879C2.33997 15.8531 2.44532 16.1075 2.63286 16.295L7.70697 21.3691C7.89451 21.5567 8.14887 21.662 8.41408 21.662H15.59C15.8552 21.662 16.1095 21.5566 16.2971 21.3691L21.3712 16.295C21.5587 16.1075 21.6641 15.8531 21.6641 15.5879V8.41201C21.6641 8.14679 21.5587 7.89244 21.3712 7.7049L16.2971 2.63078C16.1095 2.44325 15.8552 2.33789 15.59 2.33789H8.41408Z" fill="black"/>
</svg>
