<svg width="24" height="24" viewBox="0 0 24 24" fill="none" xmlns="http://www.w3.org/2000/svg">
<g clip-path="url(#clip0_1172_6855)">
<path fill-rule="evenodd" clip-rule="evenodd" d="M19.6697 3.72196C14.6477 0.822468 8.22596 2.54316 5.32646 7.56523C5.29599 7.61802 5.26601 7.67097 5.23655 7.72408C5.14189 7.8739 5.05191 8.02741 4.96686 8.18446C4.44661 7.26429 4.11558 6.22383 4.02562 5.11524C3.98943 4.66932 3.66147 4.3017 3.22256 4.21506C2.78365 4.12841 2.3406 4.34383 2.13768 4.74255C1.41034 6.17168 1.00073 7.78906 1.00073 9.49921C1.00073 15.2982 5.70174 19.9992 11.5007 19.9992C11.5755 19.9992 11.6502 19.9984 11.7246 19.9969C11.8903 20.0027 12.0555 20.0033 12.2199 19.9989C11.6831 20.9099 10.9473 21.7172 10.0319 22.3496C9.66382 22.6039 9.50943 23.0718 9.65385 23.4952C9.79827 23.9186 10.2064 24.1946 10.6531 24.171C12.2544 24.0863 13.8599 23.6324 15.341 22.7773C20.363 19.8778 22.0837 13.4561 19.1842 8.43401C19.1244 8.33042 19.0631 8.2282 19.0003 8.12737C18.9417 8.02157 18.8808 7.9171 18.8176 7.81403C19.8771 7.8225 20.9464 8.05603 21.9539 8.53358C22.3582 8.72519 22.8405 8.62499 23.135 8.2882C23.4295 7.95142 23.4645 7.46001 23.2206 7.08492C22.3467 5.74045 21.1508 4.57704 19.6697 3.72196ZM11.9996 8.99965C13.6565 8.99965 14.9996 10.3428 14.9996 11.9996C14.9996 13.6565 13.6565 14.9996 11.9996 14.9996C10.3428 14.9996 8.99964 13.6565 8.99964 11.9996C8.99964 10.3428 10.3428 8.99965 11.9996 8.99965Z" fill="black"/>
</g>
<defs>
<clipPath id="clip0_1172_6855">
<rect width="24" height="24" fill="white"/>
</clipPath>
</defs>
</svg>
