<svg width="24" height="24" viewBox="0 0 24 24" fill="none" xmlns="http://www.w3.org/2000/svg">
<path fill-rule="evenodd" clip-rule="evenodd" d="M13.2021 2.2879C12.5382 1.62401 11.4618 1.624 10.7979 2.2879L8.43786 4.64795C7.77397 5.31184 7.77397 6.38822 8.43786 7.05211L10.7979 9.41216C11.4618 10.0761 12.5382 10.0761 13.2021 9.41216L15.5621 7.05211C16.226 6.38822 16.226 5.31184 15.5621 4.64795L13.2021 2.2879ZM7.05217 8.43792C6.38828 7.77403 5.3119 7.77403 4.64801 8.43792L2.28796 10.798C1.62407 11.4619 1.62407 12.5382 2.28796 13.2021L4.64801 15.5622C5.3119 16.2261 6.38828 16.2261 7.05217 15.5622L9.41222 13.2021C10.0761 12.5382 10.0761 11.4619 9.41222 10.798L7.05217 8.43792ZM19.3522 8.43792C18.6883 7.77403 17.612 7.77403 16.9481 8.43792L14.588 10.798C13.9241 11.4619 13.9241 12.5382 14.588 13.2021L16.9481 15.5622C17.6119 16.2261 18.6883 16.2261 19.3522 15.5622L21.7123 13.2021C22.3762 12.5382 22.3762 11.4619 21.7123 10.798L19.3522 8.43792ZM13.2021 14.5879C12.5382 13.924 11.4618 13.924 10.7979 14.5879L8.43786 16.9479C7.77397 17.6118 7.77397 18.6882 8.43786 19.3521L10.7979 21.7122C11.4618 22.376 12.5382 22.376 13.2021 21.7122L15.5621 19.3521C16.226 18.6882 16.226 17.6118 15.5621 16.9479L13.2021 14.5879Z" fill="black"/>
</svg>
