<svg width="24" height="24" viewBox="0 0 24 24" fill="none" xmlns="http://www.w3.org/2000/svg">
<path fill-rule="evenodd" clip-rule="evenodd" d="M6.55843 2.81957C6.25687 2.35689 5.63733 2.22626 5.17464 2.52782C3.799 3.4244 2.61349 4.58322 1.68583 5.93809C1.37382 6.3938 1.4903 7.01615 1.94601 7.32817C2.40171 7.64018 3.02407 7.5237 3.33608 7.06799C4.11532 5.9299 5.11115 4.95649 6.26668 4.20337C6.72937 3.90181 6.85999 3.28226 6.55843 2.81957ZM18.8251 2.52782C18.3625 2.22626 17.7429 2.35689 17.4413 2.81957C17.1398 3.28226 17.2704 3.90181 17.7331 4.20337C18.8886 4.95649 19.8845 5.9299 20.6637 7.06799C20.9757 7.5237 21.5981 7.64018 22.0538 7.32817C22.5095 7.01615 22.626 6.3938 22.3139 5.93809C21.3863 4.58322 20.2008 3.4244 18.8251 2.52782ZM3.49995 13C3.49995 8.30558 7.30553 4.5 12 4.5C16.6944 4.5 20.5 8.30558 20.5 13C20.5 14.9872 19.818 16.8151 18.6754 18.2626C18.6861 18.2724 18.6967 18.2825 18.7071 18.2929L20.2071 19.7929C20.5976 20.1834 20.5976 20.8166 20.2071 21.2071C19.8165 21.5976 19.1834 21.5976 18.7928 21.2071L17.2928 19.7071C17.2825 19.6967 17.2723 19.6862 17.2625 19.6754C15.8151 20.8181 13.9872 21.5 12 21.5C10.0127 21.5 8.1848 20.8181 6.73739 19.6754C6.72755 19.6862 6.71745 19.6967 6.70706 19.7071L5.20706 21.2071C4.81653 21.5976 4.18337 21.5976 3.79284 21.2071C3.40232 20.8166 3.40232 20.1834 3.79284 19.7929L5.29284 18.2929C5.30323 18.2825 5.31379 18.2724 5.32452 18.2626C4.18189 16.8152 3.49995 14.9872 3.49995 13ZM13 9C13 8.44772 12.5523 8 12 8C11.4477 8 11 8.44772 11 9V13C11 13.5523 11.4477 14 12 14H15C15.5523 14 16 13.5523 16 13C16 12.4477 15.5523 12 15 12H13V9Z" fill="black"/>
</svg>
