<svg width="24" height="24" viewBox="0 0 24 24" fill="none" xmlns="http://www.w3.org/2000/svg">
<path fill-rule="evenodd" clip-rule="evenodd" d="M11.4453 2.16795C11.7812 1.94402 12.2188 1.94402 12.5547 2.16795L21.5547 8.16795C21.9213 8.41239 22.0847 8.86803 21.957 9.28978C21.8293 9.71154 21.4406 10 21 10H19V16H19.5C20.0523 16 20.5 16.4477 20.5 17C20.5 17.5523 20.0523 18 19.5 18H19H4.99997H4.49997C3.94768 18 3.49997 17.5523 3.49997 17C3.49997 16.4477 3.94768 16 4.49997 16H4.99997V10H2.99996C2.55929 10 2.17056 9.71154 2.04286 9.28978C1.91517 8.86803 2.0786 8.41239 2.44526 8.16795L11.4453 2.16795ZM2.99997 20C2.44768 20 1.99997 20.4477 1.99997 21C1.99997 21.5523 2.44768 22 2.99997 22H21C21.5523 22 22 21.5523 22 21C22 20.4477 21.5523 20 21 20H2.99997ZM13.5 6.5C13.5 7.32843 12.8284 8 12 8C11.1715 8 10.5 7.32843 10.5 6.5C10.5 5.67157 11.1715 5 12 5C12.8284 5 13.5 5.67157 13.5 6.5ZM7.99997 10C8.55225 10 8.99997 10.4477 8.99997 11V15C8.99997 15.5523 8.55225 16 7.99997 16C7.44769 16 6.99997 15.5523 6.99997 15V11C6.99997 10.4477 7.44768 10 7.99997 10ZM12 10C12.5523 10 13 10.4477 13 11V15C13 15.5523 12.5523 16 12 16C11.4477 16 11 15.5523 11 15V11C11 10.4477 11.4477 10 12 10ZM17 11C17 10.4477 16.5523 10 16 10C15.4477 10 15 10.4477 15 11V15C15 15.5523 15.4477 16 16 16C16.5523 16 17 15.5523 17 15V11Z" fill="black"/>
</svg>
