<svg width="24" height="24" viewBox="0 0 24 24" fill="none" xmlns="http://www.w3.org/2000/svg">
<path fill-rule="evenodd" clip-rule="evenodd" d="M13.9231 3.21793C12.6923 2.70511 11.3077 2.70511 10.077 3.21793L1.38772 6.83844C-0.0892007 7.45383 -0.0892022 9.54613 1.38772 10.1615L10.077 13.782C11.3077 14.2949 12.6923 14.2949 13.9231 13.782L21.5 10.625V20C21.5 20.5523 21.9477 21 22.5 21C23.0523 21 23.5 20.5523 23.5 20V8.5C23.5 8.40323 23.4863 8.30967 23.4606 8.22117C23.3719 7.58669 22.9783 6.99094 22.28 6.69998L13.9231 3.21793ZM4.50003 13.625L9.30773 15.6282C11.0308 16.3462 12.9693 16.3462 14.6923 15.6282L19.5 13.625V16C19.5 17.4536 18.2655 18.4523 17.0153 19.0293C15.6802 19.6455 13.906 20 12 20C10.0941 20 8.3199 19.6455 6.98478 19.0293C5.7346 18.4523 4.50003 17.4536 4.50003 16V13.625Z" fill="black"/>
</svg>
