<svg width="24" height="24" viewBox="0 0 24 24" fill="none" xmlns="http://www.w3.org/2000/svg">
<path fill-rule="evenodd" clip-rule="evenodd" d="M2.05005 12C2.05005 6.50475 6.50482 2.04999 12 2.04999C17.4953 2.04999 21.9501 6.50475 21.9501 12C21.9501 17.4952 17.4953 21.95 12 21.95C6.50482 21.95 2.05005 17.4952 2.05005 12ZM13.7161 6.40001C13.7161 5.87534 13.2907 5.45001 12.7661 5.45001C12.2414 5.45001 11.8161 5.87534 11.8161 6.40001V6.74231H11.5622V6.40001C11.5622 5.87534 11.1369 5.45001 10.6122 5.45001C10.0875 5.45001 9.66222 5.87534 9.66222 6.40001V6.74231H9.539C8.71694 6.74231 8.05054 7.40872 8.05054 8.23077V12V15.6713C8.05054 16.5474 8.76078 17.2577 9.6369 17.2577H9.66222V17.58C9.66222 18.1047 10.0875 18.53 10.6122 18.53C11.1369 18.53 11.5622 18.1047 11.5622 17.58V17.2577H11.8161V17.58C11.8161 18.1047 12.2414 18.53 12.7661 18.53C13.2907 18.53 13.7161 18.1047 13.7161 17.58V17.2577H13.8467C15.5609 17.2577 16.9505 15.868 16.9505 14.1538C16.9505 13.011 16.3329 12.0124 15.4132 11.4737C15.7052 11.0005 15.8736 10.443 15.8736 9.84615C15.8736 8.46194 14.9675 7.28936 13.7161 6.8892V6.40001ZM12.7698 12.95H9.95054V15.3577H13.8467C14.5116 15.3577 15.0505 14.8187 15.0505 14.1538C15.0505 13.489 14.5116 12.95 13.8467 12.95H12.776L12.7698 12.95ZM13.9736 9.84615C13.9736 10.5097 13.4368 11.0478 12.7738 11.05H9.95054V8.64231H12.7698C13.4346 8.64231 13.9736 9.18129 13.9736 9.84615Z" fill="black"/>
</svg>
