<svg width="24" height="24" viewBox="0 0 24 24" fill="none" xmlns="http://www.w3.org/2000/svg">
<path fill-rule="evenodd" clip-rule="evenodd" d="M3 4.83164C3 3.24931 4.75049 2.29363 6.08152 3.14928L17.2323 10.3176C17.5965 10.5518 17.8524 10.8747 18 11.2335V4C18 3.44772 18.4477 3 19 3C19.5523 3 20 3.44772 20 4V20C20 20.5523 19.5523 21 19 21C18.4477 21 18 20.5523 18 20V12.7664C17.8524 13.1253 17.5965 13.4482 17.2323 13.6823L6.08152 20.8507C4.75049 21.7063 3 20.7506 3 19.1683V4.83164Z" fill="black"/>
</svg>
