<svg width="24" height="24" viewBox="0 0 24 24" fill="currentColor" preserveAspectRatio="none" xmlns="http://www.w3.org/2000/svg">
<path fill-rule="evenodd" clip-rule="evenodd" d="M10.9899 1.85852C10.9195 1.36587 10.4976 0.999939 9.99991 0.999939C9.50226 0.999939 9.08034 1.36587 9.00996 1.85852L8.85849 2.91882C8.41851 5.99867 5.99864 8.41854 2.91879 8.85852L1.85849 9.00999C1.36584 9.08037 0.999908 9.50229 0.999908 9.99994C0.999908 10.4976 1.36584 10.9195 1.85849 10.9899L2.91879 11.1414C5.99864 11.5813 8.41851 14.0012 8.85849 17.0811L9.00996 18.1414C9.08034 18.634 9.50226 18.9999 9.99991 18.9999C10.4976 18.9999 10.9195 18.634 10.9899 18.1414L11.1413 17.0811C11.5813 14.0012 14.0012 11.5813 17.081 11.1414L18.1413 10.9899C18.634 10.9195 18.9999 10.4976 18.9999 9.99994C18.9999 9.50229 18.634 9.08037 18.1413 9.00999L17.081 8.85852C14.0012 8.41854 11.5813 5.99867 11.1413 2.91882L10.9899 1.85852ZM5.91265 9.99994C7.68531 9.12467 9.12464 7.68534 9.99991 5.91268C10.8752 7.68535 12.3145 9.12467 14.0872 9.99994C12.3145 10.8752 10.8752 12.3145 9.99991 14.0872C9.12464 12.3145 7.68531 10.8752 5.91265 9.99994ZM18.9999 13.7499C19.3665 13.7499 19.6794 14.015 19.7397 14.3766L19.8874 15.2629C20.0455 16.2113 20.7886 16.9544 21.7369 17.1124L22.6232 17.2601C22.9848 17.3204 23.2499 17.6333 23.2499 17.9999C23.2499 18.3666 22.9848 18.6795 22.6232 18.7397L21.7369 18.8875C20.7886 19.0455 20.0455 19.7886 19.8874 20.7369L19.7397 21.6232C19.6794 21.9849 19.3665 22.2499 18.9999 22.2499C18.6333 22.2499 18.3204 21.9849 18.2601 21.6232L18.1124 20.7369C17.9543 19.7886 17.2112 19.0455 16.2629 18.8875L15.3766 18.7397C15.015 18.6795 14.7499 18.3666 14.7499 17.9999C14.7499 17.6333 15.015 17.3204 15.3766 17.2601L16.2629 17.1124C17.2112 16.9544 17.9543 16.2113 18.1124 15.2629L18.2601 14.3766C18.3204 14.015 18.6333 13.7499 18.9999 13.7499Z" />
</svg>
