<svg width="24" height="24" viewBox="0 0 24 24" fill="none" xmlns="http://www.w3.org/2000/svg">
<path fill-rule="evenodd" clip-rule="evenodd" d="M10.5 12C10.5 12.8284 11.1716 13.5 12 13.5C12.8284 13.5 13.5 12.8284 13.5 12C13.5 11.1716 12.8284 10.5 12 10.5C11.1716 10.5 10.5 11.1716 10.5 12ZM8.64494 11H3C2.44772 11 2 11.4477 2 12C2 12.5523 2.44772 13 3 13L8.64494 13C9.07521 14.4457 10.4145 15.5 12 15.5C13.5855 15.5 14.9248 14.4457 15.3551 13H21C21.5523 13 22 12.5523 22 12C22 11.4477 21.5523 11 21 11H15.3551C14.9248 9.55426 13.5855 8.5 12 8.5C10.4145 8.5 9.07521 9.55426 8.64494 11Z" fill="black"/>
</svg>
