<svg width="24" height="24" viewBox="0 0 24 24" fill="none" xmlns="http://www.w3.org/2000/svg">
<path fill-rule="evenodd" clip-rule="evenodd" d="M7 4.5C5.61929 4.5 4.5 5.61929 4.5 7C4.5 8.38071 5.61929 9.5 7 9.5C8.38071 9.5 9.5 8.38071 9.5 7C9.5 5.61929 8.38071 4.5 7 4.5ZM2.5 7C2.5 4.51472 4.51472 2.5 7 2.5C9.48528 2.5 11.5 4.51472 11.5 7C11.5 9.48528 9.48528 11.5 7 11.5C4.51472 11.5 2.5 9.48528 2.5 7ZM17 14.5C15.6193 14.5 14.5 15.6193 14.5 17C14.5 18.3807 15.6193 19.5 17 19.5C18.3807 19.5 19.5 18.3807 19.5 17C19.5 15.6193 18.3807 14.5 17 14.5ZM12.5 17C12.5 14.5147 14.5147 12.5 17 12.5C19.4853 12.5 21.5 14.5147 21.5 17C21.5 19.4853 19.4853 21.5 17 21.5C14.5147 21.5 12.5 19.4853 12.5 17ZM20.2071 5.20711C20.5976 4.81658 20.5976 4.18342 20.2071 3.79289C19.8166 3.40237 19.1834 3.40237 18.7929 3.79289L3.79289 18.7929C3.40237 19.1834 3.40237 19.8166 3.79289 20.2071C4.18342 20.5976 4.81658 20.5976 5.20711 20.2071L20.2071 5.20711Z" fill="black"/>
</svg>
