<svg width="24" height="24" viewBox="0 0 24 24" fill="none" xmlns="http://www.w3.org/2000/svg">
<path fill-rule="evenodd" clip-rule="evenodd" d="M11.5 2C9.567 2 8 3.567 8 5.5V8H5.5C3.567 8 2 9.567 2 11.5V18.5C2 20.433 3.567 22 5.5 22H12.5C14.433 22 16 20.433 16 18.5V16H18.5C20.433 16 22 14.433 22 12.5V5.5C22 3.567 20.433 2 18.5 2H11.5ZM16.4141 14H18.5C19.3284 14 20 13.3284 20 12.5V10.4141L16.4141 14ZM16 11.5857V11.5C16 10.8972 15.8476 10.33 15.5793 9.83485L19.9977 5.41643C19.9992 5.44409 20 5.47196 20 5.5V7.58571L16 11.5857ZM14.165 8.42066C13.6699 8.15236 13.1027 8 12.5 8H12.4141L16.4141 4H18.5C18.528 4 18.5558 4.00077 18.5834 4.00228L14.165 8.42066ZM13.5857 4H11.5C10.6716 4 10 4.67157 10 5.5V7.58571L13.5857 4ZM10 10H12.5C13.3284 10 14 10.6716 14 11.5V14H11.5C10.6716 14 10 13.3284 10 12.5V10ZM4 13.5859L7.58586 10H5.5C4.67157 10 4 10.6716 4 11.5V13.5859ZM4 16.4143L8 12.4143V12.5C8 13.1028 8.15238 13.67 8.42072 14.1651L4.00229 18.5836C4.00077 18.5559 4 18.528 4 18.5V16.4143ZM5.41657 19.9977L9.83495 15.5793C10.3301 15.8476 10.8973 16 11.5 16H11.5859L7.58586 20H5.5C5.472 20 5.44419 19.9992 5.41657 19.9977ZM10.4143 20L14 16.4143V18.5C14 19.3284 13.3284 20 12.5 20H10.4143Z" fill="black"/>
</svg>
