<svg width="24" height="24" viewBox="0 0 24 24" fill="none" xmlns="http://www.w3.org/2000/svg">
<path fill-rule="evenodd" clip-rule="evenodd" d="M4 12C4 7.58172 7.58172 4 12 4C16.4183 4 20 7.58172 20 12C20 16.4183 16.4183 20 12 20C7.58172 20 4 16.4183 4 12ZM12 2C6.47715 2 2 6.47715 2 12C2 17.5228 6.47715 22 12 22C17.5228 22 22 17.5228 22 12C22 6.47715 17.5228 2 12 2ZM11 12C11 11.4477 11.4477 11 12 11C12.5523 11 13 11.4477 13 12C13 12.5523 12.5523 13 12 13C11.4477 13 11 12.5523 11 12ZM12 9C10.3431 9 9 10.3431 9 12C9 13.6569 10.3431 15 12 15C13.6569 15 15 13.6569 15 12C15 10.3431 13.6569 9 12 9ZM14.3 6.90491C14.6136 6.4503 15.2364 6.336 15.691 6.64961C16.3427 7.09916 16.9067 7.66399 17.3554 8.31626C17.6684 8.77129 17.5533 9.3939 17.0982 9.7069C16.6432 10.0199 16.0206 9.90476 15.7076 9.44973C15.397 8.99815 15.0065 8.60712 14.5553 8.29589C14.1007 7.98228 13.9864 7.35952 14.3 6.90491ZM8.30902 17.3504C8.76363 17.664 9.38639 17.5497 9.7 17.0951C10.0136 16.6405 9.89931 16.0177 9.4447 15.7041C8.99354 15.3929 8.60303 15.0019 8.29241 14.5503C7.97941 14.0952 7.3568 13.9801 6.90178 14.2931C6.44675 14.6061 6.33161 15.2287 6.6446 15.6837C7.09328 16.336 7.65735 16.9008 8.30902 17.3504Z" fill="black"/>
</svg>
