<svg width="24" height="24" viewBox="0 0 24 24" fill="none" xmlns="http://www.w3.org/2000/svg">
<path fill-rule="evenodd" clip-rule="evenodd" d="M9 1.5C8.44772 1.5 8 1.94772 8 2.5C8 3.05228 8.44772 3.5 9 3.5C10.1046 3.5 11 4.39543 11 5.5V6.08434C10.9713 6.06826 10.9431 6.05141 10.9155 6.03379C9.66659 5.23784 8.20756 4.87251 6.73384 5.18576C4.86177 5.58368 3.46985 6.96316 2.68263 8.71041C1.89511 10.4583 1.67297 12.6395 2.14313 14.8514C2.61329 17.0634 3.70339 18.9656 5.13377 20.2421C6.5636 21.5181 8.39627 22.2122 10.2683 21.8143C10.5197 21.7608 10.7641 21.6891 11.0006 21.6003C11.625 21.3659 12.3784 21.3659 13.0029 21.6003C13.2393 21.6891 13.4836 21.7608 13.735 21.8142C16.5398 22.4104 19.2 20.5897 20.6992 17.9432C20.8616 17.6565 20.8724 17.3083 20.728 17.0122C20.5837 16.716 20.3028 16.51 19.9769 16.4613C18.2923 16.2095 17 14.7548 17 13C17 11.1725 18.4013 9.67119 20.1873 9.51368C20.528 9.48363 20.8297 9.28155 20.9872 8.97794C21.1446 8.67432 21.136 8.31129 20.9643 8.0155C20.1456 6.60509 18.8829 5.52862 17.2695 5.18569C15.7957 4.87243 14.3367 5.23779 13.0878 6.03377C13.0591 6.05206 13.0298 6.06951 13 6.08613V5.5C13 3.29086 11.2091 1.5 9 1.5ZM14.1627 7.72034C15.0515 7.15384 15.9811 6.95651 16.8537 7.14198C17.4052 7.25923 17.9168 7.52626 18.3654 7.92972C16.3878 8.76321 15 10.7192 15 13C15 15.2326 16.3296 17.1535 18.2403 18.0155C17.0347 19.4968 15.4924 20.1431 14.1508 19.8579C13.9978 19.8254 13.8495 19.7818 13.7058 19.7279C12.6281 19.3233 11.3752 19.3233 10.2976 19.7279C10.1539 19.7819 10.0055 19.8254 9.85251 19.858C8.75339 20.0916 7.54708 19.7152 6.46543 18.7499C5.38434 17.7851 4.49046 16.2753 4.09942 14.4356C3.70838 12.5959 3.91088 10.8531 4.5061 9.53197C5.10162 8.2102 6.05054 7.37568 7.14966 7.14205C8.02221 6.95658 8.95173 7.1539 9.84054 7.72037C11.1259 8.53958 12.8773 8.53958 14.1627 7.72034Z" fill="black"/>
</svg>
