<svg width="24" height="24" viewBox="0 0 24 24" fill="none" xmlns="http://www.w3.org/2000/svg">
<path fill-rule="evenodd" clip-rule="evenodd" d="M6.5 3C4.91449 3 3.57521 4.05426 3.14494 5.5H2C1.44772 5.5 1 5.94772 1 6.5C1 7.05228 1.44772 7.5 2 7.5H3V12V17C3 18.3062 3.83481 19.4175 5 19.8293V20.5C5 21.3284 5.67157 22 6.5 22C7.32843 22 8 21.3284 8 20.5V20H16V20.5C16 21.3284 16.6716 22 17.5 22C18.3284 22 19 21.3284 19 20.5V19.8293C20.1652 19.4175 21 18.3062 21 17V12V7.5H21.5C22.0523 7.5 22.5 7.05228 22.5 6.5C22.5 5.94772 22.0523 5.5 21.5 5.5H20.8551C20.4248 4.05426 19.0855 3 17.5 3H6.5ZM19 6.5C19 5.67157 18.3284 5 17.5 5H6.5C5.72335 5 5.08456 5.59025 5.00774 6.34663C5.00262 6.39706 5 6.44822 5 6.5V11H19V6.5ZM18 18C18.5523 18 19 17.5523 19 17V13H5V17C5 17.5523 5.44772 18 6 18H18ZM9 15.5C9 16.3284 8.32843 17 7.5 17C6.67157 17 6 16.3284 6 15.5C6 14.6716 6.67157 14 7.5 14C8.32843 14 9 14.6716 9 15.5ZM16.5 17C17.3284 17 18 16.3284 18 15.5C18 14.6716 17.3284 14 16.5 14C15.6716 14 15 14.6716 15 15.5C15 16.3284 15.6716 17 16.5 17Z" fill="black"/>
</svg>
