<svg width="24" height="24" viewBox="0 0 24 24" fill="none" xmlns="http://www.w3.org/2000/svg">
<path fill-rule="evenodd" clip-rule="evenodd" d="M6.5 2.5C4.29086 2.5 2.5 4.29086 2.5 6.5V12V17.5C2.5 19.7091 4.29086 21.5 6.5 21.5H17.5C19.7091 21.5 21.5 19.7091 21.5 17.5V12V6.5C21.5 4.29086 19.7091 2.5 17.5 2.5H6.5ZM19.5 11V6.5C19.5 5.39543 18.6046 4.5 17.5 4.5H6.5C5.39543 4.5 4.5 5.39543 4.5 6.5V11H7.5C7.79192 11 8.06927 11.1276 8.25926 11.3492L10.2137 13.6294L12.5809 8.10608C12.7169 7.78857 13.0072 7.56377 13.3487 7.51151C13.6902 7.45925 14.0344 7.58693 14.2593 7.84921L16.9599 11H19.5ZM4.5 13H7.04007L9.74074 16.1508C9.96556 16.4131 10.3098 16.5408 10.6513 16.4885C10.9928 16.4362 11.2831 16.2114 11.4191 15.8939L13.7863 10.3706L15.7407 12.6508C15.9307 12.8724 16.2081 13 16.5 13H19.5V17.5C19.5 18.6046 18.6046 19.5 17.5 19.5H6.5C5.39543 19.5 4.5 18.6046 4.5 17.5V13Z" fill="black"/>
</svg>
