<svg width="24" height="24" viewBox="0 0 24 24" fill="none" xmlns="http://www.w3.org/2000/svg">
<path fill-rule="evenodd" clip-rule="evenodd" d="M10 2C8.34315 2 7 3.34315 7 5C7 5.35064 7.06015 5.68722 7.17071 6H4C2.34315 6 1 7.34315 1 9V11C1 11.8885 1.38625 12.6868 2 13.2361V19C2 20.6569 3.34315 22 5 22H12H19C20.6569 22 22 20.6569 22 19V13.2361C22.6137 12.6868 23 11.8885 23 11V9C23 7.34315 21.6569 6 20 6H16.8293C16.9398 5.68722 17 5.35064 17 5C17 3.34315 15.6569 2 14 2C13.2316 2 12.5308 2.28885 12 2.7639C11.4692 2.28885 10.7684 2 10 2ZM13 20H19C19.5523 20 20 19.5523 20 19V14H13V20ZM11 14V20H5C4.44772 20 4 19.5523 4 19L4 14H11ZM13 12H20C20.5523 12 21 11.5523 21 11V9C21 8.44772 20.5523 8 20 8H14H13V12ZM11 8V12H4C3.44772 12 3 11.5523 3 11V9C3 8.44772 3.44772 8 4 8H10H11ZM11 5V6H10C9.44772 6 9 5.55228 9 5C9 4.44772 9.44772 4 10 4C10.5523 4 11 4.44772 11 5ZM15 5C15 5.55228 14.5523 6 14 6H13V5C13 4.44772 13.4477 4 14 4C14.5523 4 15 4.44772 15 5Z" fill="black"/>
</svg>
