<svg width="24" height="24" viewBox="0 0 24 24" fill="none" xmlns="http://www.w3.org/2000/svg">
<path fill-rule="evenodd" clip-rule="evenodd" d="M10.2721 4.60563C9.75647 3.83225 8.77603 3.51601 7.90572 3.84238L6.4758 4.3786C5.10084 4.89421 3.85983 5.84656 3.13879 7.22635C2.58545 8.28524 1.91927 9.74198 1.53262 11.252C1.12582 12.8408 0.993916 14.2921 0.96298 15.3457C0.947475 15.8738 0.957237 16.3054 0.971252 16.6087C0.978263 16.7605 0.986352 16.8804 0.992918 16.9646C0.996201 17.0067 0.999105 17.0398 1.00131 17.0636L1.00404 17.0921L1.00494 17.1009L1.00526 17.104L1.00544 17.1057C1.02452 17.2846 1.09156 17.4555 1.19941 17.5995L1.99984 17.0001C1.19941 17.5995 1.19971 17.5999 1.20002 17.6003L1.20066 17.6012L1.20205 17.603L1.20526 17.6072L1.21345 17.6179C1.21968 17.626 1.22748 17.6359 1.23686 17.6476C1.25562 17.6711 1.28073 17.7016 1.31231 17.7384C1.37547 17.812 1.46469 17.9106 1.58109 18.0271C1.81376 18.26 2.15608 18.5654 2.61683 18.8846C3.54137 19.5251 4.93536 20.2156 6.85664 20.49C7.2179 20.5416 7.57858 20.3924 7.7977 20.1005L9.16383 18.2812C11.0781 18.7397 12.9213 18.7397 14.8356 18.2812L16.1977 20.0996C16.4217 20.3987 16.7938 20.5479 17.1624 20.4865C18.836 20.2075 20.2143 19.5144 21.1645 18.9039C21.6421 18.597 22.0192 18.3061 22.2801 18.0888C22.4107 17.98 22.5129 17.8892 22.5845 17.8234C22.6203 17.7905 22.6485 17.7638 22.669 17.7442L22.6937 17.7202L22.7017 17.7124L22.7045 17.7096L22.7062 17.708C22.8676 17.5467 22.9696 17.3337 22.9941 17.1068L22.9943 17.1056L22.9946 17.1026L22.9955 17.0937L22.9983 17.0652C23.0005 17.0414 23.0035 17.0082 23.0068 16.9661C23.0135 16.8819 23.0218 16.7619 23.029 16.6101C23.0434 16.3066 23.0537 15.8749 23.0387 15.3467C23.0087 14.2927 22.8777 12.841 22.4702 11.2517C22.0577 9.64281 21.3915 8.18616 20.8393 7.14442C20.1303 5.80712 18.9176 4.90122 17.5946 4.40511L16.094 3.84238C15.2237 3.51601 14.2432 3.83225 13.7276 4.60564L13.5197 4.91746C12.4438 4.77764 11.5554 4.77762 10.4799 4.91742L10.2721 4.60563ZM22.9941 17.1068L21.9998 17.0001C22.994 17.1078 22.9941 17.1071 22.9941 17.1068ZM21.9998 17.0001L22.7062 17.708C22.7064 17.7077 22.7066 17.7075 21.9998 17.0001ZM16.8545 17.6405L17.4178 18.3925C18.4904 18.1261 19.4031 17.6584 20.0834 17.2213C20.4812 16.9657 20.7921 16.7253 21.0003 16.5519L21.0307 16.5264L21.0313 16.5151C21.0436 16.256 21.0529 15.8753 21.0395 15.4035C21.0126 14.4574 20.8945 13.1592 20.5328 11.7484C20.173 10.345 19.5812 9.04143 19.0722 8.08115C18.637 7.26017 17.8566 6.63937 16.8923 6.27777L15.3917 5.71504L14.8319 6.55478C14.6136 6.88219 14.2236 7.05115 13.8355 6.98648C12.4438 6.75461 11.5549 6.75462 10.1643 6.98647C9.77612 7.05118 9.38609 6.88222 9.1678 6.55478L8.60796 5.71504L7.17805 6.25125C6.17812 6.62623 5.36504 7.28447 4.91136 8.15263C4.39213 9.14624 3.80274 10.4491 3.47012 11.7481C3.10877 13.1594 2.98991 14.458 2.96212 15.4044C2.94826 15.8764 2.95715 16.2573 2.96912 16.5164L2.97277 16.5902L2.99604 16.6137C3.15358 16.7714 3.40449 16.9972 3.75573 17.2406C4.36722 17.6642 5.28876 18.145 6.56605 18.41L7.14414 17.6401C6.96572 17.5702 6.78633 17.4966 6.60585 17.4192C6.09822 17.2017 5.86307 16.6138 6.08062 16.1062C6.29818 15.5986 6.88606 15.3634 7.39369 15.581C10.6421 16.9732 13.3574 16.9732 16.6058 15.581C17.1135 15.3634 17.7014 15.5986 17.9189 16.1062C18.1365 16.6138 17.9013 17.2017 17.3937 17.4192C17.2129 17.4967 17.0332 17.5705 16.8545 17.6405ZM1.99984 17.0001L1.00544 17.1057C1.00546 17.1059 1.00548 17.1061 1.99984 17.0001ZM15.5 14.0001C16.3284 14.0001 17 13.3285 17 12.5001C17 11.6717 16.3284 11.0001 15.5 11.0001C14.6716 11.0001 14 11.6717 14 12.5001C14 13.3285 14.6716 14.0001 15.5 14.0001ZM10 12.5001C10 13.3285 9.32843 14.0001 8.5 14.0001C7.67157 14.0001 7 13.3285 7 12.5001C7 11.6717 7.67157 11.0001 8.5 11.0001C9.32843 11.0001 10 11.6717 10 12.5001Z" fill="black"/>
</svg>
