<svg width="24" height="24" viewBox="0 0 24 24" fill="none" xmlns="http://www.w3.org/2000/svg">
<path fill-rule="evenodd" clip-rule="evenodd" d="M19.25 0.5C19.6166 0.5 19.9295 0.765059 19.9898 1.1267L20.1375 2.013C20.2956 2.96131 21.0387 3.70444 21.987 3.86249L22.8733 4.0102C23.2349 4.07048 23.5 4.38337 23.5 4.75C23.5 5.11663 23.2349 5.42952 22.8733 5.4898L21.987 5.63751C21.0387 5.79556 20.2956 6.53868 20.1375 7.487L19.9898 8.3733C19.9295 8.73494 19.6166 9 19.25 9C18.8834 9 18.5705 8.73494 18.5102 8.3733L18.3625 7.487C18.2044 6.53868 17.4613 5.79556 16.513 5.63751L15.6267 5.4898C15.2651 5.42952 15 5.11663 15 4.75C15 4.38337 15.2651 4.07048 15.6267 4.0102L16.513 3.86249C17.4613 3.70444 18.2044 2.96131 18.3625 2.013L18.5102 1.1267C18.5705 0.765059 18.8834 0.5 19.25 0.5ZM13.483 5.66661C13.5843 6.20953 13.2263 6.73175 12.6834 6.83303L10.9516 7.15609C10.7543 7.19288 10.6113 7.36502 10.6113 7.56565V18C10.6113 18.0227 10.6106 18.0453 10.6091 18.0676C10.6103 18.1097 10.6109 18.1518 10.6109 18.1941C10.6109 20.572 8.6833 22.4996 6.30545 22.4996C3.9276 22.4996 2 20.572 2 18.1941C2 15.8163 3.9276 13.8887 6.30545 13.8887C7.15374 13.8887 7.94472 14.134 8.61133 14.5576V7.56565C8.61133 6.40189 9.44077 5.40341 10.5848 5.19L12.3166 4.86694C12.8595 4.76567 13.3818 5.12369 13.483 5.66661ZM20 10.7C20.5523 10.7 21 11.1477 21 11.7V16C21 16.0344 20.9983 16.0685 20.9949 16.102C20.998 16.1694 20.9996 16.2372 20.9996 16.3053C20.9996 18.6832 19.072 20.6108 16.6941 20.6108C14.3163 20.6108 12.3887 18.6832 12.3887 16.3053C12.3887 13.9275 14.3163 11.9998 16.6941 11.9998C17.5424 11.9998 18.3334 12.2451 19 12.6687V11.7C19 11.1477 19.4477 10.7 20 10.7ZM14.3887 16.3053C14.3887 15.032 15.4209 13.9998 16.6941 13.9998C17.9674 13.9998 18.9996 15.032 18.9996 16.3053C18.9996 17.5786 17.9674 18.6108 16.6941 18.6108C15.4209 18.6108 14.3887 17.5786 14.3887 16.3053ZM4 18.1941C4 16.9208 5.0322 15.8887 6.30545 15.8887C7.5787 15.8887 8.6109 16.9208 8.6109 18.1941C8.6109 19.4674 7.5787 20.4996 6.30545 20.4996C5.0322 20.4996 4 19.4674 4 18.1941Z" fill="black"/>
</svg>
