<svg width="24" height="24" viewBox="0 0 24 24" fill="none" xmlns="http://www.w3.org/2000/svg">
<path fill-rule="evenodd" clip-rule="evenodd" d="M6.5 4C5.67157 4 5 4.67157 5 5.5C5 6.32843 5.67157 7 6.5 7C7.32843 7 8 6.32843 8 5.5C8 4.67157 7.32843 4 6.5 4ZM10 5.5C10 7.08551 8.94574 8.42479 7.5 8.85506V8.89872C7.5 9.73973 8.02613 10.4909 8.81651 10.7783L10.367 11.3421C11.0108 11.5762 11.5669 11.9642 12 12.4555C12.4331 11.9642 12.9892 11.5762 13.633 11.3421L15.1835 10.7783C15.9739 10.4909 16.5 9.73973 16.5 8.89872V8.85506C15.0543 8.42479 14 7.08551 14 5.5C14 3.567 15.567 2 17.5 2C19.433 2 21 3.567 21 5.5C21 7.08551 19.9457 8.42479 18.5 8.85506V8.89872C18.5 10.5807 17.4477 12.0831 15.867 12.6579L14.3165 13.2217C13.5261 13.5091 13 14.2603 13 15.1013V15.1449C14.4457 15.5752 15.5 16.9145 15.5 18.5C15.5 20.433 13.933 22 12 22C10.067 22 8.5 20.433 8.5 18.5C8.5 16.9145 9.55426 15.5752 11 15.1449V15.1013C11 14.2603 10.4739 13.5091 9.68349 13.2217L8.13303 12.6579C6.55227 12.0831 5.5 10.5807 5.5 8.89872V8.85506C4.05426 8.42479 3 7.08551 3 5.5C3 3.567 4.567 2 6.5 2C8.433 2 10 3.567 10 5.5ZM17.5 7C18.3284 7 19 6.32843 19 5.5C19 4.67157 18.3284 4 17.5 4C16.6716 4 16 4.67157 16 5.5C16 6.32843 16.6716 7 17.5 7ZM10.5 18.5C10.5 17.6716 11.1716 17 12 17C12.8284 17 13.5 17.6716 13.5 18.5C13.5 19.3284 12.8284 20 12 20C11.1716 20 10.5 19.3284 10.5 18.5Z" fill="black"/>
</svg>
