<svg width="24" height="24" viewBox="0 0 24 24" fill="none" xmlns="http://www.w3.org/2000/svg">
<path fill-rule="evenodd" clip-rule="evenodd" d="M3.61732 3.07615C3.99099 2.92137 4.42111 3.00692 4.70711 3.29292L12 10.5858L19.2929 3.29292C19.5789 3.00692 20.009 2.92137 20.3827 3.07615C20.7564 3.23093 21 3.59557 21 4.00003V20C21 20.4045 20.7564 20.7691 20.3827 20.9239C20.009 21.0787 19.5789 20.9931 19.2929 20.7071L16 17.4142L12.7071 20.7071C12.3166 21.0977 11.6834 21.0977 11.2929 20.7071L8 17.4142L4.70711 20.7071C4.42111 20.9931 3.99099 21.0787 3.61732 20.9239C3.24364 20.7691 3 20.4045 3 20V4.00003C3 3.59557 3.24364 3.23093 3.61732 3.07615ZM9.41421 16L12 18.5858L19 11.5858V6.41424L9.41421 16ZM19 14.4142L17.4142 16L19 17.5858V14.4142ZM10.5858 12L5 6.41424V17.5858L10.5858 12Z" fill="black"/>
</svg>
