<svg width="24" height="24" viewBox="0 0 24 24" fill="none" xmlns="http://www.w3.org/2000/svg">
<path fill-rule="evenodd" clip-rule="evenodd" d="M12 3.5C11.1716 3.5 10.5 4.17157 10.5 5C10.5 5.82843 11.1716 6.5 12 6.5C12.8284 6.5 13.5 5.82843 13.5 5C13.5 4.17157 12.8284 3.5 12 3.5ZM15.5 5C15.5 6.58551 14.4457 7.92479 13 8.35506V11H16.3603H16.3604C17.7904 11 19.0217 12.0094 19.3021 13.4117L19.9223 16.5126C19.974 16.7709 20 17.0337 20 17.2971V19C20 20.6569 18.6569 22 17 22H7C5.34315 22 4 20.6569 4 19V17.2971C4 17.0337 4.02602 16.7709 4.07768 16.5126L4.49274 14.4373L4.49775 14.4117L4.69775 13.4117C4.96726 12.0641 6.11478 11.0794 7.47298 11.0046C7.52815 11.0015 7.58367 11 7.6395 11H7.63961H11V8.35506C9.55426 7.92479 8.5 6.58551 8.5 5C8.5 3.067 10.067 1.5 12 1.5C13.933 1.5 15.5 3.067 15.5 5ZM11 14V13H7.63961C7.16293 13 6.75251 13.3365 6.65903 13.8039L6.45607 14.8187C6.34271 15.4318 6.81348 16 7.4395 16H16.5603C17.1913 16 17.6646 15.4227 17.5409 14.8039L17.3409 13.8039C17.2474 13.3365 16.837 13 16.3603 13H13V14C13 14.5523 12.5523 15 12 15C11.4477 15 11 14.5523 11 14ZM18 17.6336C17.5754 17.8664 17.0861 18 16.5603 18H7.4395C6.91376 18 6.42452 17.8664 6 17.6337V19C6 19.5523 6.44772 20 7 20H17C17.5523 20 18 19.5523 18 19V17.6336Z" fill="black"/>
</svg>
