<svg width="24" height="24" viewBox="0 0 24 24" fill="none" xmlns="http://www.w3.org/2000/svg">
<path fill-rule="evenodd" clip-rule="evenodd" d="M12 4C7.58172 4 4 7.58172 4 12C4 16.4183 7.58172 20 12 20C16.4183 20 20 16.4183 20 12C20 7.58172 16.4183 4 12 4ZM2 12C2 6.47715 6.47715 2 12 2C17.5228 2 22 6.47715 22 12C22 17.5228 17.5228 22 12 22C6.47715 22 2 17.5228 2 12ZM6 9.5C6 8.94772 6.44772 8.5 7 8.5H10.25C10.8023 8.5 11.25 8.94772 11.25 9.5C11.25 10.0523 10.8023 10.5 10.25 10.5H8V11H9.5C10.0523 11 10.5 11.4477 10.5 12C10.5 12.5523 10.0523 13 9.5 13H8V13.5H10.25C10.8023 13.5 11.25 13.9477 11.25 14.5C11.25 15.0523 10.8023 15.5 10.25 15.5H7C6.44772 15.5 6 15.0523 6 14.5V9.5ZM14 9.5C14 8.94772 13.5523 8.5 13 8.5C12.4477 8.5 12 8.94772 12 9.5V12.5C12 14.1569 13.3431 15.5 15 15.5C16.6569 15.5 18 14.1569 18 12.5V9.5C18 8.94772 17.5523 8.5 17 8.5C16.4477 8.5 16 8.94772 16 9.5V12.5C16 13.0523 15.5523 13.5 15 13.5C14.4477 13.5 14 13.0523 14 12.5V9.5Z" fill="black"/>
</svg>
