<svg width="24" height="24" viewBox="0 0 24 24" fill="none" xmlns="http://www.w3.org/2000/svg">
<path fill-rule="evenodd" clip-rule="evenodd" d="M7 3C4.79086 3 3 4.79086 3 7V17C3 17.8822 3.28559 18.6977 3.76936 19.3591C3.74828 19.4067 3.7276 19.4546 3.70732 19.5026L3.97269 19.6146C4.70617 20.4631 5.79038 21 7 21H17C18.2962 21 19.4483 20.3835 20.1793 19.4277L20.2477 19.3978C20.242 19.3849 20.2364 19.372 20.2306 19.3591C20.7144 18.6977 21 17.8822 21 17V7C21 4.79086 19.2091 3 17 3H7ZM18.9756 17.3131C18.9917 17.2111 19 17.1065 19 17V7C19 5.89543 18.1046 5 17 5H7C5.89543 5 5 5.89543 5 7V17C5 17.1065 5.00833 17.2111 5.02437 17.3131C5.58699 16.623 6.25189 16.0165 7.00013 15.5166C8.46397 14.5386 10.1825 14.0113 11.943 14.0002C13.7034 13.989 15.4285 14.4944 16.9046 15.4538C17.6914 15.9652 18.389 16.5935 18.9756 17.3131ZM6.33576 18.8871C6.54359 18.9602 6.76715 19 7 19H17C17.2329 19 17.4564 18.9602 17.6642 18.8871C17.163 18.1967 16.5372 17.6003 15.8147 17.1308C14.6666 16.3846 13.3249 15.9915 11.9556 16.0001C10.5864 16.0088 9.24976 16.4189 8.11122 17.1796C7.41961 17.6417 6.81955 18.2208 6.33576 18.8871ZM12 8C11.1716 8 10.5 8.67157 10.5 9.5C10.5 10.3284 11.1716 11 12 11C12.8284 11 13.5 10.3284 13.5 9.5C13.5 8.67157 12.8284 8 12 8ZM8.5 9.5C8.5 7.567 10.067 6 12 6C13.933 6 15.5 7.567 15.5 9.5C15.5 11.433 13.933 13 12 13C10.067 13 8.5 11.433 8.5 9.5Z" fill="black"/>
</svg>
