<svg width="24" height="24" viewBox="0 0 24 24" fill="none" xmlns="http://www.w3.org/2000/svg">
<path fill-rule="evenodd" clip-rule="evenodd" d="M17.6569 6.34315C16.4768 5.16309 15.0198 4.42876 13.4951 4.14015C13.4325 5.1383 13.2205 6.12369 12.864 7.06288C12.368 8.36984 11.6035 9.5583 10.6198 10.5515C9.63615 11.5448 8.45515 12.3208 7.15305 12.8294C6.18723 13.2066 5.17069 13.4306 4.14017 13.4952C4.42879 15.0199 5.16311 16.4768 6.34315 17.6569C7.5232 18.8369 8.98018 19.5712 10.5049 19.8598C10.5695 18.8293 10.7934 17.8127 11.1707 16.8469C11.6793 15.5448 12.4553 14.3638 13.4485 13.3801C14.4418 12.3964 15.6302 11.6319 16.9372 11.1359C17.8764 10.7795 18.8617 10.5674 19.8598 10.5049C19.5712 8.98017 18.8369 7.52319 17.6569 6.34315ZM19.9844 12.501C19.1861 12.5511 18.398 12.7207 17.6468 13.0058C16.6013 13.4026 15.6505 14.0142 14.8559 14.8012C14.0613 15.5881 13.4405 16.5329 13.0336 17.5746C12.7319 18.3471 12.5527 19.1601 12.501 19.9844C14.3783 19.8673 16.2222 19.0915 17.6569 17.6569C19.0915 16.2222 19.8673 14.3783 19.9844 12.501ZM6.34315 6.34315C7.77775 4.90854 9.62165 4.1327 11.499 4.01561C11.4489 4.81395 11.2792 5.60207 10.9942 6.35326C10.5974 7.39883 9.98574 8.34959 9.1988 9.14418C8.41185 9.93878 7.46705 10.5596 6.42537 10.9664C5.65288 11.2682 4.83984 11.4473 4.0156 11.4991C4.13267 9.62171 4.90852 7.77777 6.34315 6.34315ZM4.92893 4.92893C8.83417 1.02369 15.1658 1.02369 19.0711 4.92893C22.9763 8.83417 22.9763 15.1658 19.0711 19.0711C15.1658 22.9763 8.83417 22.9763 4.92893 19.0711C1.02369 15.1658 1.02369 8.83417 4.92893 4.92893Z" fill="black"/>
</svg>
