<svg width="24" height="24" viewBox="0 0 24 24" fill="none" xmlns="http://www.w3.org/2000/svg">
<path fill-rule="evenodd" clip-rule="evenodd" d="M12 1C9.29508 1 6.97794 2.65152 5.99848 5C3.79004 5.00082 2 6.79137 2 9C2 11.1784 3.74143 12.9501 5.90813 12.999L11.1237 22.4819C11.2995 22.8014 11.6353 22.9999 11.9999 22.9999C12.3646 22.9999 12.7004 22.8014 12.8762 22.4819L18.0917 12.999C20.2585 12.9502 22 11.1785 22 9C22 6.79137 20.21 5.00082 18.0015 5C17.0221 2.65152 14.7049 1 12 1ZM11.8162 13.9974C10.3664 13.9571 9.03452 13.4414 7.97234 12.602L9.7653 15.8619L11.8162 13.9974ZM7.65163 6.33641C8.16433 4.41446 9.91826 3 12 3C14.0817 3 15.8357 4.41446 16.3484 6.33641C16.4876 6.85833 17.0162 7.17535 17.5422 7.05242C17.6882 7.01828 17.8413 7 18 7C19.1046 7 20 7.89543 20 9C20 10.1046 19.1046 11 18 11C17.4934 11 17.033 10.813 16.6802 10.5028C16.2743 10.1458 15.6582 10.1761 15.2892 10.5711C14.4665 11.4517 13.2981 12 12 12C10.7019 12 9.53347 11.4517 8.71085 10.5711C8.34184 10.1761 7.72573 10.1458 7.31978 10.5028C6.96698 10.813 6.50656 11 6 11C4.89543 11 4 10.1046 4 9C4 7.89543 4.89543 7 6 7C6.15865 7 6.31177 7.01828 6.45784 7.05242C6.98384 7.17535 7.5124 6.85833 7.65163 6.33641ZM11.9999 19.9249L10.7564 17.6639L15.7307 13.1418L11.9999 19.9249Z" fill="black"/>
</svg>
