<svg width="24" height="24" viewBox="0 0 24 24" fill="none" xmlns="http://www.w3.org/2000/svg">
<path fill-rule="evenodd" clip-rule="evenodd" d="M5 3C3.34315 3 2 4.34315 2 6V10C2 10.7684 2.28885 11.4692 2.7639 12C2.28885 12.5308 2 13.2316 2 14V18C2 19.6569 3.34315 21 5 21H19C20.6569 21 22 19.6569 22 18V14C22 13.2316 21.7111 12.5308 21.2361 12C21.7111 11.4692 22 10.7684 22 10V6C22 4.34315 20.6569 3 19 3H5ZM5 11H19C19.5523 11 20 10.5523 20 10V6C20 5.44772 19.5523 5 19 5H5C4.44772 5 4 5.44772 4 6V10C4 10.5523 4.44772 11 5 11ZM5 13C4.44772 13 4 13.4477 4 14V18C4 18.5523 4.44772 19 5 19H19C19.5523 19 20 18.5523 20 18V14C20 13.4477 19.5523 13 19 13H5ZM5.5 8C5.5 8.82843 6.17157 9.5 7 9.5C7.82843 9.5 8.5 8.82843 8.5 8C8.5 7.17157 7.82843 6.5 7 6.5C6.17157 6.5 5.5 7.17157 5.5 8ZM10 8C10 7.44772 10.4477 7 11 7H17C17.5523 7 18 7.44772 18 8C18 8.55228 17.5523 9 17 9H11C10.4477 9 10 8.55228 10 8ZM11 15C10.4477 15 10 15.4477 10 16C10 16.5523 10.4477 17 11 17H17C17.5523 17 18 16.5523 18 16C18 15.4477 17.5523 15 17 15H11ZM7 17.5C6.17157 17.5 5.5 16.8284 5.5 16C5.5 15.1716 6.17157 14.5 7 14.5C7.82843 14.5 8.5 15.1716 8.5 16C8.5 16.8284 7.82843 17.5 7 17.5Z" fill="black"/>
</svg>
