<svg width="24" height="24" viewBox="0 0 24 24" fill="none" xmlns="http://www.w3.org/2000/svg">
<path fill-rule="evenodd" clip-rule="evenodd" d="M14 5.99997C14 4.35188 12.1185 3.41111 10.8 4.39997L6.71175 7.46616L5.39801 7.33478C3.04327 7.09931 1 8.94844 1 11.3149V12.685C1 15.0515 3.04327 16.9006 5.39802 16.6652L6.71175 16.5338L10.8 19.6C12.1185 20.5888 14 19.6481 14 18V5.99997ZM7.6 9.29997L12 5.99997V18L7.6 14.7C7.39951 14.5496 7.14987 14.48 6.9005 14.5049L5.19901 14.6751C4.02164 14.7928 3 13.8683 3 12.685V11.3149C3 10.1317 4.02164 9.20712 5.19901 9.32486L6.9005 9.49501C7.14987 9.51994 7.39951 9.45034 7.6 9.29997ZM20.15 10.4275V8.47096L21.4775 9.62147L20.15 10.4275ZM18.35 7.59498V10.3739L16.4671 9.23069C16.0422 8.97272 15.4886 9.10804 15.2307 9.53291C14.9727 9.95779 15.108 10.5113 15.5329 10.7693L17.5599 12L15.5329 13.2307C15.108 13.4886 14.9727 14.0422 15.2307 14.4671C15.4886 14.892 16.0422 15.0273 16.4671 14.7693L18.35 13.6261V16.405C18.35 17.6047 19.7603 18.2487 20.6669 17.463L23.0711 15.3794C23.7884 14.7576 23.6922 13.6174 22.8807 13.1247L21.0283 12L22.8807 10.8753C23.6922 10.3826 23.7884 9.24234 23.0711 8.62063L20.6669 6.53701C19.7603 5.75129 18.35 6.39528 18.35 7.59498ZM20.15 15.529V13.5725L21.4775 14.3785L20.15 15.529Z" fill="black"/>
</svg>
