<svg width="24" height="24" viewBox="0 0 24 24" fill="none" xmlns="http://www.w3.org/2000/svg">
<path fill-rule="evenodd" clip-rule="evenodd" d="M11.9999 1.5C10.0051 1.5 8.3145 2.7973 7.72401 4.59451C5.87193 4.20657 3.9024 5.02198 2.90472 6.75C1.90704 8.47803 2.18566 10.5914 3.44768 12.0014C2.18778 13.4114 1.91018 15.5231 2.9072 17.25C3.90446 18.9773 5.87277 19.7927 7.72417 19.406C8.3148 21.2029 10.0052 22.5 11.9999 22.5C13.9945 22.5 15.6849 21.2031 16.2756 19.4062C18.1266 19.7924 20.0942 18.9769 21.0913 17.25C22.0883 15.5231 21.8107 13.4114 20.5508 12.0014C21.8128 10.5914 22.0914 8.47803 21.0937 6.75C20.0963 5.02237 18.1274 4.20695 16.2757 4.59425C15.6852 2.79718 13.9947 1.5 11.9999 1.5ZM9.52287 5.65891C9.68854 4.43992 10.7353 3.5 11.9999 3.5C13.2644 3.5 14.3111 4.43976 14.4769 5.65859C14.5905 6.49359 15.4737 7.00344 16.2536 6.68424C17.3921 6.21827 18.7294 6.65483 19.3617 7.75C19.9941 8.84538 19.7033 10.2221 18.7301 10.975C18.0636 11.4906 18.0632 12.5102 18.7292 13.0263C19.7011 13.7794 19.9913 15.1552 19.3592 16.25C18.7272 17.3447 17.3908 17.7814 16.2526 17.3164C15.4729 16.9979 14.5906 17.5075 14.4768 18.342C14.3108 19.5605 13.2642 20.5 11.9999 20.5C10.7355 20.5 9.68886 19.5604 9.52295 18.3417C9.4093 17.5069 8.52647 16.9971 7.74669 17.316C6.60835 17.7816 5.27143 17.345 4.63925 16.25C4.0072 15.1552 4.29732 13.7794 5.26923 13.0263C5.93523 12.5102 5.93482 11.4906 5.26838 10.975C4.29517 10.2221 4.00436 8.84538 4.63677 7.75C5.26923 6.65456 6.60704 6.21806 7.74571 6.68457C8.52574 7.00415 9.40935 6.49418 9.52287 5.65891ZM10 12C10 10.8954 10.8954 10 12 10C13.1046 10 14 10.8954 14 12C14 13.1046 13.1046 14 12 14C10.8954 14 10 13.1046 10 12ZM12 8C9.79086 8 8 9.79086 8 12C8 14.2091 9.79086 16 12 16C14.2091 16 16 14.2091 16 12C16 9.79086 14.2091 8 12 8Z" fill="black"/>
</svg>
