<svg width="24" height="24" viewBox="0 0 24 24" fill="none" xmlns="http://www.w3.org/2000/svg">
<path fill-rule="evenodd" clip-rule="evenodd" d="M6.70711 0.792893C6.31658 0.402369 5.68342 0.402369 5.29289 0.792893L2.79289 3.29289C2.40237 3.68342 2.40237 4.31658 2.79289 4.70711L7.29289 9.20711C7.68342 9.59763 8.31658 9.59763 8.70711 9.20711L9.25128 8.66293C9.26462 8.67797 9.27849 8.6927 9.29289 8.70711L10.5858 10L9.29289 11.2929C9.27849 11.3073 9.26462 11.322 9.25128 11.3371L8.70711 10.7929C8.31658 10.4024 7.68342 10.4024 7.29289 10.7929L2.79289 15.2929C2.40237 15.6834 2.40237 16.3166 2.79289 16.7071L5.29289 19.2071C5.68342 19.5976 6.31658 19.5976 6.70711 19.2071L8.3333 17.5809L7.2484 21.0526C6.94656 22.0185 7.66816 23 8.68012 23H15.3199C16.3319 23 17.0535 22.0185 16.7517 21.0526L15.6668 17.581L17.2929 19.2071C17.6834 19.5976 18.3166 19.5976 18.7071 19.2071L21.2071 16.7071C21.5976 16.3166 21.5976 15.6834 21.2071 15.2929L16.7071 10.7929C16.3166 10.4024 15.6834 10.4024 15.2929 10.7929L14.7487 11.3371C14.7354 11.322 14.7215 11.3073 14.7071 11.2929L13.4142 10L14.7071 8.70711C14.7215 8.6927 14.7354 8.67797 14.7487 8.66293L15.2929 9.20711C15.6834 9.59763 16.3166 9.59763 16.7071 9.20711L21.2071 4.70711C21.5976 4.31658 21.5976 3.68342 21.2071 3.29289L18.7071 0.792893C18.3166 0.402369 17.6834 0.402369 17.2929 0.792893L12.7929 5.29289C12.4024 5.68342 12.4024 6.31658 12.7929 6.70711L13.3371 7.25128C13.322 7.26462 13.3073 7.27849 13.2929 7.29289L12 8.58579L10.7071 7.29289C10.6927 7.27849 10.678 7.26462 10.6629 7.25128L11.2071 6.70711C11.5976 6.31658 11.5976 5.68342 11.2071 5.29289L6.70711 0.792893ZM11.4806 14.1964C11.5497 13.8538 11.433 13.5086 11.1914 13.2772L10.6629 12.7487C10.678 12.7354 10.6927 12.7215 10.7071 12.7071L12 11.4142L13.2929 12.7071C13.3073 12.7215 13.322 12.7354 13.3371 12.7487L12.8073 13.2785C12.7759 13.3087 12.7466 13.3408 12.7196 13.3745C12.6233 13.4944 12.5586 13.6314 12.5257 13.7742C12.496 13.9019 12.4911 14.0367 12.5147 14.1715C12.5234 14.2216 12.5359 14.2711 12.5522 14.3196L14.6398 21H9.36022L11.4486 14.3172C11.4618 14.2775 11.4725 14.2372 11.4806 14.1964ZM8 7.08579L4.91421 4L6 2.91421L9.08579 6L8 7.08579ZM18 17.0858L14.9142 14L16 12.9142L19.0858 16L18 17.0858ZM19.0858 4L16 7.08579L14.9142 6L18 2.91421L19.0858 4ZM6 17.0858L9.08579 14L8 12.9142L4.91421 16L6 17.0858Z" fill="black"/>
</svg>
