<svg width="24" height="24" viewBox="0 0 24 24" fill="none" xmlns="http://www.w3.org/2000/svg">
<path fill-rule="evenodd" clip-rule="evenodd" d="M18.7766 10.1071C20.1653 9.21878 21.0859 7.66294 21.0859 5.89209V3.89209C21.0859 3.33981 20.6382 2.89209 20.0859 2.89209H18.0859C16.3151 2.89209 14.7593 3.81265 13.871 5.20132C13.7607 5.06505 13.6422 4.93322 13.5155 4.80651L12.1013 3.39229C11.7108 3.00177 11.0776 3.00177 10.6871 3.39229L9.27286 4.80651C8.5502 5.52917 8.09499 6.418 7.90724 7.35001C7.51671 7.07169 6.97103 7.10772 6.62066 7.45809L5.20645 8.8723C3.25383 10.8249 3.25383 13.9907 5.20645 15.9434L5.9134 16.6503L3.20613 19.3576C2.81561 19.7481 2.81561 20.3813 3.20613 20.7718C3.59666 21.1623 4.22982 21.1623 4.62035 20.7718L7.32756 18.0646L8.03478 18.7718C9.98741 20.7244 13.1532 20.7244 15.1059 18.7718L16.5201 17.3576C16.8703 17.0074 16.9064 16.4621 16.6285 16.0716C17.5606 15.8839 18.4495 15.4286 19.1723 14.7059L20.5865 13.2917C20.977 12.9012 20.977 12.268 20.5865 11.8775L19.1723 10.4633C19.0453 10.3363 18.9132 10.2176 18.7766 10.1071ZM12.1454 10.4183C13.2727 9.24358 13.258 7.37739 12.1013 6.22072L11.3942 5.51361L10.6871 6.22072C9.5155 7.39229 9.5155 9.29179 10.6871 10.4634L11.3937 11.17L12.1454 10.4183ZM8.06076 14.503C9.20639 13.3294 9.19776 11.4494 8.03488 10.2865L7.32777 9.57941L6.62066 10.2865C5.44909 11.4581 5.44909 13.3576 6.62066 14.5292L7.32762 15.2361L8.06076 14.503ZM9.449 17.3576L8.74192 16.6505L9.44909 15.9434L9.45838 15.9341C10.6307 14.7718 12.5232 14.7749 13.6916 15.9434L14.3987 16.6505L13.6916 17.3576C12.5201 18.5292 10.6206 18.5292 9.449 17.3576ZM13.5154 13.2917L12.8084 12.5847L13.5155 11.8776L13.5314 11.8616C14.7042 10.7059 16.5918 10.7112 17.758 11.8775L18.4652 12.5846L17.758 13.2917C16.5865 14.4633 14.687 14.4633 13.5154 13.2917ZM16.0859 8.89209C17.7428 8.89209 19.0859 7.54894 19.0859 5.89209V4.89209H18.0859C16.4291 4.89209 15.0859 6.23524 15.0859 7.89209V8.89209H16.0859Z" fill="black"/>
</svg>
