<svg width="24" height="24" viewBox="0 0 24 24" fill="none" xmlns="http://www.w3.org/2000/svg">
<path fill-rule="evenodd" clip-rule="evenodd" d="M4 14C2.89543 14 2 13.1046 2 12V4C2 2.89543 2.89543 2 4 2H7C7.65421 2 8.23506 2.31411 8.59995 2.79974C9.26849 2.29757 10.0995 2 11 2H17.4963C19.4294 2 21.0859 3.3825 21.4318 5.28446L22.5552 11.4633C22.89 13.3049 21.4753 15 19.6036 15H16V18.3515C16 19.8142 14.8142 21 13.3515 21C12.0833 21 11.0418 20.1167 10.7021 18.9804C10.2876 17.5937 9.47403 15.4185 8.12124 13.6564C7.80144 13.8733 7.41552 14 7 14H4ZM7 12V6V4H4V12H7ZM9 11.5976C11.0331 13.7962 12.1251 16.7576 12.6183 18.4075C12.7288 18.777 13.048 19 13.3515 19C13.7096 19 14 18.7096 14 18.3515V14C14 13.4477 14.4477 13 15 13H19.6036C20.2275 13 20.6991 12.435 20.5874 11.8211L19.464 5.64223C19.2911 4.69125 18.4628 4 17.4963 4H11C9.89543 4 9 4.89543 9 6V11.5976Z" fill="black"/>
</svg>
