<svg width="24" height="24" viewBox="0 0 24 24" fill="none" xmlns="http://www.w3.org/2000/svg">
<path fill-rule="evenodd" clip-rule="evenodd" d="M5.5 2.5C3.84315 2.5 2.5 3.84315 2.5 5.5V18.5C2.5 20.1569 3.84315 21.5 5.5 21.5H18.5C20.1569 21.5 21.5 20.1569 21.5 18.5V5.5C21.5 3.84315 20.1569 2.5 18.5 2.5H5.5ZM4.5 5.5C4.5 4.94772 4.94772 4.5 5.5 4.5H18.5C19.0523 4.5 19.5 4.94772 19.5 5.5V18.5C19.5 19.0523 19.0523 19.5 18.5 19.5H5.5C4.94772 19.5 4.5 19.0523 4.5 18.5V5.5ZM11.784 5.77457C11.8765 5.60228 12.1235 5.60228 12.216 5.77457L12.605 6.49982L13.415 6.64571C13.6074 6.68036 13.6837 6.91534 13.5484 7.05648L12.9789 7.65059L13.0905 8.466C13.117 8.65972 12.9171 8.80494 12.741 8.71988L12 8.36181L11.259 8.71988C11.0829 8.80494 10.883 8.65972 10.9095 8.466L11.0211 7.65059L10.4516 7.05648C10.3163 6.91534 10.3926 6.68036 10.585 6.64571L11.395 6.49982L11.784 5.77457ZM12.216 15.284L12.605 16.0092L13.415 16.1551C13.6074 16.1898 13.6837 16.4247 13.5484 16.5659L12.9789 17.16L13.0905 17.9754C13.117 18.1691 12.9171 18.3143 12.741 18.2293L12 17.8712L11.259 18.2293C11.0829 18.3143 10.883 18.1691 10.9095 17.9754L11.0211 17.16L10.4516 16.5659C10.3163 16.4247 10.3926 16.1898 10.585 16.1551L11.395 16.0092L11.784 15.284C11.8765 15.1117 12.1235 15.1117 12.216 15.284ZM15.578 7.16718C15.4856 6.99488 15.2385 6.99488 15.1461 7.16718L14.7571 7.89242L13.9471 8.03831C13.7547 8.07297 13.6783 8.30794 13.8136 8.44909L14.3832 9.0432L14.2716 9.85861C14.2451 10.0523 14.445 10.1975 14.621 10.1125L15.3621 9.75442L16.1031 10.1125C16.2791 10.1975 16.479 10.0523 16.4525 9.85861L16.341 9.0432L16.9105 8.44909C17.0458 8.30794 16.9695 8.07297 16.777 8.03831L15.9671 7.89242L15.578 7.16718ZM8.42199 13.8913C8.51441 13.7191 8.76148 13.7191 8.8539 13.8913L9.24294 14.6166L10.0529 14.7625C10.2453 14.7971 10.3217 15.0321 10.1864 15.1733L9.61685 15.7674L9.7284 16.5828C9.7549 16.7765 9.55502 16.9217 9.37897 16.8367L8.63795 16.4786L7.89692 16.8367C7.72087 16.9217 7.52099 16.7765 7.54749 16.5828L7.65904 15.7674L7.08951 15.1733C6.9542 15.0321 7.03055 14.7971 7.22298 14.7625L8.03295 14.6166L8.42199 13.8913ZM8.8539 7.16719C8.76148 6.9949 8.51441 6.9949 8.42199 7.16719L8.03295 7.89244L7.22298 8.03833C7.03055 8.07298 6.9542 8.30796 7.08951 8.4491L7.65904 9.04321L7.54749 9.85862C7.52099 10.0523 7.72087 10.1976 7.89692 10.1125L8.63795 9.75443L9.37897 10.1125C9.55502 10.1976 9.7549 10.0523 9.7284 9.85862L9.61685 9.04321L10.1864 8.4491C10.3217 8.30796 10.2453 8.07298 10.0529 8.03833L9.24294 7.89244L8.8539 7.16719ZM15.578 13.8914L15.9671 14.6166L16.777 14.7625C16.9695 14.7971 17.0458 15.0321 16.9105 15.1733L16.341 15.7674L16.4525 16.5828C16.479 16.7765 16.2791 16.9217 16.1031 16.8367L15.3621 16.4786L14.621 16.8367C14.445 16.9217 14.2451 16.7765 14.2716 16.5828L14.3832 15.7674L13.8136 15.1733C13.6783 15.0321 13.7547 14.7971 13.9471 14.7625L14.7571 14.6166L15.1461 13.8914C15.2385 13.7191 15.4856 13.7191 15.578 13.8914ZM16.9706 10.5293C16.8782 10.357 16.6311 10.357 16.5387 10.5293L16.1496 11.2545L15.3397 11.4004C15.1473 11.4351 15.0709 11.67 15.2062 11.8112L15.7757 12.4053L15.6642 13.2207C15.6377 13.4144 15.8376 13.5596 16.0136 13.4746L16.7546 13.1165L17.4957 13.4746C17.6717 13.5596 17.8716 13.4144 17.8451 13.2207L17.7336 12.4053L18.3031 11.8112C18.4384 11.67 18.362 11.4351 18.1696 11.4004L17.3596 11.2545L16.9706 10.5293ZM7.02929 10.5293C7.12171 10.357 7.36878 10.357 7.4612 10.5293L7.85024 11.2545L8.66021 11.4004C8.85264 11.4351 8.92899 11.67 8.79368 11.8112L8.22415 12.4053L8.3357 13.2207C8.3622 13.4144 8.16232 13.5596 7.98627 13.4746L7.24524 13.1165L6.50422 13.4746C6.32817 13.5596 6.12829 13.4144 6.15479 13.2207L6.26634 12.4053L5.69681 11.8112C5.5615 11.67 5.63785 11.4351 5.83028 11.4004L6.64025 11.2545L7.02929 10.5293Z" fill="black"/>
</svg>
