<svg width="24" height="24" viewBox="0 0 24 24" fill="none" xmlns="http://www.w3.org/2000/svg">
<path fill-rule="evenodd" clip-rule="evenodd" d="M5.5 3C4.11929 3 3 4.11929 3 5.5V18.5C3 19.8807 4.11929 21 5.5 21H8C9.38071 21 10.5 19.8807 10.5 18.5V5.5C10.5 4.11929 9.38071 3 8 3H5.5ZM5 5.5C5 5.22386 5.22386 5 5.5 5H8C8.27614 5 8.5 5.22386 8.5 5.5V18.5C8.5 18.7761 8.27614 19 8 19H5.5C5.22386 19 5 18.7761 5 18.5V5.5ZM16 3C14.6193 3 13.5 4.11929 13.5 5.5V18.5C13.5 19.8807 14.6193 21 16 21H18.5C19.8807 21 21 19.8807 21 18.5V5.5C21 4.11929 19.8807 3 18.5 3H16ZM15.5 5.5C15.5 5.22386 15.7239 5 16 5H18.5C18.7761 5 19 5.22386 19 5.5V18.5C19 18.7761 18.7761 19 18.5 19H16C15.7239 19 15.5 18.7761 15.5 18.5V5.5Z" fill="black"/>
</svg>
