<svg width="24" height="24" viewBox="0 0 24 24" fill="none" xmlns="http://www.w3.org/2000/svg">
<path fill-rule="evenodd" clip-rule="evenodd" d="M7.71575 3C5.95973 3 4.40906 4.14529 3.89264 5.82366L3.37684 7.5H2C1.44772 7.5 1 7.94772 1 8.5C1 9.05229 1.44772 9.5 2 9.5H2.76145L2.63117 9.92341C1.93577 10.5631 1.5 11.4807 1.5 12.5V15V19C1.5 20.3807 2.61929 21.5 4 21.5H5C6.38071 21.5 7.5 20.3807 7.5 19V18H16.5V19C16.5 20.3807 17.6193 21.5 19 21.5H20C21.3807 21.5 22.5 20.3807 22.5 19V15V12.5C22.5 11.4807 22.0643 10.5632 21.3689 9.92349L21.2386 9.5H22C22.5523 9.5 23 9.05229 23 8.5C23 7.94772 22.5523 7.5 22 7.5H20.6232L20.1074 5.82366C19.591 4.14529 18.0403 3 16.2843 3H7.71575ZM20.5 15V12.5C20.5 11.6716 19.8284 11 19 11H5C4.17157 11 3.5 11.6716 3.5 12.5V15C3.5 15.5523 3.94772 16 4.5 16H19.5C20.0523 16 20.5 15.5523 20.5 15ZM20.5 17.8293V19C20.5 19.2761 20.2761 19.5 20 19.5H19C18.7239 19.5 18.5 19.2761 18.5 19V18H19.5C19.8506 18 20.1872 17.9398 20.5 17.8293ZM3.5 19V17.8293C3.81278 17.9398 4.14936 18 4.5 18H5.5V19C5.5 19.2761 5.27614 19.5 5 19.5H4C3.72386 19.5 3.5 19.2761 3.5 19ZM18.9922 9L18.1959 6.41183C17.9377 5.57264 17.1623 5 16.2843 5H7.71575C6.83774 5 6.06241 5.57265 5.8042 6.41183L5.00783 9H18.9922ZM9 13.5C9 12.9477 9.44771 12.5 10 12.5H14C14.5523 12.5 15 12.9477 15 13.5C15 14.0523 14.5523 14.5 14 14.5H10C9.44771 14.5 9 14.0523 9 13.5ZM7.5 13.5C7.5 14.3284 6.82843 15 6 15C5.17157 15 4.5 14.3284 4.5 13.5C4.5 12.6716 5.17157 12 6 12C6.82843 12 7.5 12.6716 7.5 13.5ZM18 15C18.8284 15 19.5 14.3284 19.5 13.5C19.5 12.6716 18.8284 12 18 12C17.1716 12 16.5 12.6716 16.5 13.5C16.5 14.3284 17.1716 15 18 15Z" fill="black"/>
</svg>
