<svg width="24" height="24" viewBox="0 0 24 24" fill="none" xmlns="http://www.w3.org/2000/svg">
<path fill-rule="evenodd" clip-rule="evenodd" d="M12.0002 4C11.4479 4 11.0002 3.55228 11.0002 3V2C11.0002 1.44772 11.4479 1 12.0002 1C12.5525 1 13.0002 1.44772 13.0002 2V3C13.0002 3.55228 12.5525 4 12.0002 4ZM15.5002 11C14.9479 11 14.5002 10.5523 14.5002 10C14.5002 9.67169 14.4355 9.34661 14.3099 9.04329C14.1842 8.73998 14.0001 8.46438 13.768 8.23223C13.5358 8.00009 13.2602 7.81594 12.9569 7.6903C12.6536 7.56466 12.3285 7.5 12.0002 7.5C11.6719 7.5 11.3468 7.56466 11.0435 7.6903C10.7402 7.81594 10.4646 8.00009 10.2324 8.23223C10.0003 8.46438 9.81612 8.73998 9.69048 9.04329C9.56485 9.3466 9.50018 9.67169 9.50018 10C9.50018 10.5523 9.05247 11 8.50018 11C7.9479 11 7.50018 10.5523 7.50018 10C7.50018 9.40905 7.61658 8.82389 7.84273 8.27792C8.06887 7.73196 8.40034 7.23588 8.8182 6.81802C9.23607 6.40015 9.73214 6.06869 10.2781 5.84254C10.8241 5.61639 11.4092 5.5 12.0002 5.5C12.5911 5.5 13.1763 5.61639 13.7223 5.84254C14.2682 6.06869 14.7643 6.40016 15.1822 6.81802C15.6 7.23588 15.9315 7.73196 16.1576 8.27792C16.3838 8.82389 16.5002 9.40905 16.5002 10C16.5002 10.5523 16.0525 11 15.5002 11ZM17.5623 5.63398C17.084 5.91012 16.9201 6.52171 17.1963 7C17.4724 7.47829 18.084 7.64217 18.5623 7.36603L19.4283 6.86603C19.9066 6.58989 20.0705 5.9783 19.7944 5.5C19.5182 5.02171 18.9066 4.85783 18.4283 5.13398L17.5623 5.63398ZM18.0002 10C18.0002 9.44771 18.4479 9 19.0002 9H20.0002C20.5525 9 21.0002 9.44772 21.0002 10C21.0002 10.5523 20.5525 11 20.0002 11H19.0002C18.4479 11 18.0002 10.5523 18.0002 10ZM7.63416 4.43781C7.9103 4.9161 8.52189 5.07998 9.00019 4.80383C9.47848 4.52769 9.64235 3.9161 9.36621 3.43781L8.86621 2.57178C8.59007 2.09349 7.97848 1.92961 7.50019 2.20576C7.02189 2.4819 6.85802 3.09349 7.13416 3.57178L7.63416 4.43781ZM15.0002 4.80383C14.5219 4.52769 14.358 3.9161 14.6342 3.43781L15.1342 2.57178C15.4103 2.09349 16.0219 1.92961 16.5002 2.20576C16.9785 2.4819 17.1424 3.09349 16.8662 3.57178L16.3662 4.43781C16.0901 4.9161 15.4785 5.07998 15.0002 4.80383ZM5.43805 7.36605C5.91634 7.6422 6.52793 7.47832 6.80408 7.00003C7.08022 6.52174 6.91634 5.91015 6.43805 5.634L5.57203 5.134C5.09373 4.85786 4.48214 5.02174 4.206 5.50003C3.92986 5.97832 4.09373 6.58991 4.57203 6.86605L5.43805 7.36605ZM6.00018 10C6.00018 10.5523 5.55247 11 5.00018 11H4.00018C3.4479 11 3.00018 10.5523 3.00018 10C3.00018 9.44775 3.4479 9.00003 4.00018 9.00003H5.00018C5.55247 9.00003 6.00018 9.44775 6.00018 10ZM6.65958 13C5.85952 13 5.13645 13.4768 4.82129 14.2122L2.37973 19.9091C1.95553 20.8989 2.68158 22 3.75845 22H20.2419C21.3188 22 22.0448 20.8989 21.6206 19.9091L19.1791 14.2122C18.8639 13.4768 18.1408 13 17.3408 13H6.65958ZM6.65958 15H11.0002V16.5H6.01672L6.65958 15ZM13.0002 16.5V15H17.3408L17.9836 16.5H13.0002ZM13.0002 18.5H18.8408L19.4836 20H13.0002V18.5ZM11.0002 18.5V20H4.51672L5.15958 18.5H11.0002Z" fill="black"/>
</svg>
