<svg width="24" height="24" viewBox="0 0 24 24" fill="none" xmlns="http://www.w3.org/2000/svg">
<path fill-rule="evenodd" clip-rule="evenodd" d="M19.209 2.1789C20.4164 2.00134 21.5 2.93721 21.5 4.15762V11.9998V19.842C21.5 21.0624 20.4164 21.9983 19.209 21.8207L4.20901 19.6148C3.22739 19.4705 2.5 18.6283 2.5 17.6361V11.9998V6.3635C2.5 5.37133 3.22739 4.52914 4.20901 4.38479L19.209 2.1789ZM4.5 12.9998V17.6361L10 18.4449V12.9998H4.5ZM10 10.9998H4.5V6.3635L10 5.55468V10.9998ZM12 12.9998V18.7391L19.5 19.842V12.9998H12ZM19.5 10.9998L12 10.9998V5.26056L19.5 4.15762V10.9998Z" fill="black"/>
</svg>
