<svg width="24" height="24" viewBox="0 0 24 24" fill="none" xmlns="http://www.w3.org/2000/svg">
<path fill-rule="evenodd" clip-rule="evenodd" d="M15.4183 3.5C14.6372 2.71895 13.3709 2.71895 12.5898 3.5L8.25406 7.83579L7.34505 6.92678C5.92763 5.50936 3.50406 6.51323 3.50406 8.51777V18.5C3.50406 19.6046 4.39949 20.5 5.50406 20.5L15.4863 20.5C17.4908 20.5 18.4947 18.0764 17.0773 16.659L16.1683 15.75L20.5041 11.4142C21.2851 10.6332 21.2851 9.36684 20.5041 8.58579L15.4183 3.5ZM8.96116 9.95711L14.0041 4.91422L19.0898 10L14.0469 15.0429C13.8594 15.2304 13.7541 15.4848 13.7541 15.75C13.7541 16.0152 13.8594 16.2696 14.0469 16.4571L15.6631 18.0732C15.8206 18.2307 15.709 18.5 15.4863 18.5L5.50406 18.5V8.51777C5.50406 8.29504 5.77334 8.1835 5.93083 8.34099L7.54695 9.95711C7.93747 10.3476 8.57064 10.3476 8.96116 9.95711Z" fill="black"/>
</svg>
