<svg width="24" height="24" viewBox="0 0 24 24" fill="none" xmlns="http://www.w3.org/2000/svg">
<path fill-rule="evenodd" clip-rule="evenodd" d="M17.5 5C17.7761 5 18 4.77614 18 4.5C18 4.22386 17.7761 4 17.5 4C17.2239 4 17 4.22386 17 4.5C17 4.77614 17.2239 5 17.5 5ZM17.5 7C18.8807 7 20 5.88071 20 4.5C20 3.11929 18.8807 2 17.5 2C16.4721 2 15.5891 2.62035 15.2049 3.50708C14.2883 3.55195 13.5309 3.80802 12.9208 4.21497C12.2532 4.66032 11.8206 5.24691 11.5427 5.80299C11.3231 6.24245 11.1941 6.67424 11.1175 7.03061C9.11644 7.17002 7.26998 7.77965 5.76677 8.73658C5.37339 8.58379 4.94584 8.5 4.5 8.5C2.567 8.5 1 10.067 1 12C1 12.9652 1.39125 13.8388 2.02142 14.471C2.00721 14.646 2 14.8224 2 15C2 19.6376 6.7256 23 12 23C17.2744 23 22 19.6376 22 15C22 14.8224 21.9928 14.646 21.9786 14.471C22.6087 13.8388 23 12.9652 23 12C23 10.067 21.433 8.5 19.5 8.5C19.0542 8.5 18.6266 8.58379 18.2332 8.73658C16.8054 7.82764 15.0679 7.23204 13.1824 7.05512C13.223 6.93692 13.2722 6.81614 13.3318 6.69701C13.4911 6.37809 13.7145 6.08968 14.0306 5.87878C14.2962 5.70163 14.6706 5.54992 15.2125 5.51016C15.6006 6.38768 16.4788 7 17.5 7ZM6.43465 10.7005C7.86093 9.6604 9.81581 9 12 9C14.1842 9 16.1391 9.6604 17.5653 10.7005C17.8984 10.9434 18.3463 10.957 18.6935 10.7349C18.9258 10.5863 19.2013 10.5 19.5 10.5C20.3284 10.5 21 11.1716 21 12C21 12.5113 20.7451 12.9633 20.3509 13.2356C20.0302 13.4571 19.8675 13.8447 19.9339 14.2287C19.9775 14.4809 20 14.7383 20 15C20 18.0944 16.6667 21 12 21C7.33328 21 4 18.0944 4 15C4 14.7383 4.02252 14.4809 4.06612 14.2287C4.1325 13.8447 3.96975 13.4571 3.64912 13.2356C3.25491 12.9633 3 12.5113 3 12C3 11.1716 3.67157 10.5 4.5 10.5C4.7987 10.5 5.07419 10.5863 5.30653 10.7349C5.65373 10.957 6.10164 10.9434 6.43465 10.7005ZM8.5 15C9.32843 15 10 14.3284 10 13.5C10 12.6716 9.32843 12 8.5 12C7.67157 12 7 12.6716 7 13.5C7 14.3284 7.67157 15 8.5 15ZM17 13.5C17 14.3284 16.3284 15 15.5 15C14.6716 15 14 14.3284 14 13.5C14 12.6716 14.6716 12 15.5 12C16.3284 12 17 12.6716 17 13.5ZM15.7532 18.4088C16.2193 18.1126 16.3572 17.4947 16.0611 17.0285C15.765 16.5623 15.147 16.4244 14.6808 16.7205C13.8826 17.2276 12.9569 17.4978 12.0112 17.5C11.0656 17.5021 10.1387 17.236 9.33815 16.7326C8.87064 16.4386 8.25329 16.5792 7.95928 17.0467C7.66526 17.5143 7.80592 18.1316 8.27344 18.4256C9.39417 19.1304 10.6918 19.503 12.0157 19.5C13.3397 19.497 14.6356 19.1186 15.7532 18.4088Z" fill="black"/>
</svg>
