<svg width="24" height="24" viewBox="0 0 24 24" fill="none" xmlns="http://www.w3.org/2000/svg">
<path fill-rule="evenodd" clip-rule="evenodd" d="M5 3C3.34315 3 2 4.34315 2 6V8.5V18C2 19.6569 3.34315 21 5 21H19C20.6569 21 22 19.6569 22 18V8.5V6C22 4.34315 20.6569 3 19 3H5ZM4 6C4 5.44772 4.44772 5 5 5H19C19.5523 5 20 5.44772 20 6V7.5H4V6ZM4 9.5H20V18C20 18.5523 19.5523 19 19 19H5C4.44772 19 4 18.5523 4 18V9.5ZM10.7071 11.5429C10.3166 11.1524 9.68342 11.1524 9.29289 11.5429C8.90237 11.9334 8.90237 12.5666 9.29289 12.9571L10.5858 14.25L9.29289 15.5429C8.90237 15.9334 8.90237 16.5666 9.29289 16.9571C9.68342 17.3476 10.3166 17.3476 10.7071 16.9571L12 15.6642L13.2929 16.9571C13.6834 17.3476 14.3166 17.3476 14.7071 16.9571C15.0976 16.5666 15.0976 15.9334 14.7071 15.5429L13.4142 14.25L14.7071 12.9571C15.0976 12.5666 15.0976 11.9334 14.7071 11.5429C14.3166 11.1524 13.6834 11.1524 13.2929 11.5429L12 12.8358L10.7071 11.5429Z" fill="black"/>
</svg>
