<svg width="24" height="24" viewBox="0 0 24 24" fill="none" xmlns="http://www.w3.org/2000/svg">
<path fill-rule="evenodd" clip-rule="evenodd" d="M8.58173 3.5C9.36278 2.71895 10.6291 2.71895 11.4102 3.5L15.7459 7.83579L16.655 6.92678C18.0724 5.50936 20.4959 6.51323 20.4959 8.51777V18.5C20.4959 19.6046 19.6005 20.5 18.4959 20.5L8.51371 20.5C6.50918 20.5 5.50529 18.0764 6.92272 16.659L7.83173 15.75L3.49594 11.4142C2.71489 10.6332 2.71489 9.36684 3.49594 8.58579L8.58173 3.5ZM15.0388 9.95711L9.99594 4.91422L4.91016 10L9.95305 15.0429C10.1406 15.2304 10.2459 15.4848 10.2459 15.75C10.2459 16.0152 10.1406 16.2696 9.95305 16.4571L8.33693 18.0732C8.17944 18.2307 8.29098 18.5 8.51371 18.5L18.4959 18.5V8.51777C18.4959 8.29504 18.2267 8.1835 18.0692 8.34099L16.453 9.95711C16.0625 10.3476 15.4294 10.3476 15.0388 9.95711Z" fill="black"/>
</svg>
