<svg width="24" height="24" viewBox="0 0 24 24" fill="none" xmlns="http://www.w3.org/2000/svg">
<path fill-rule="evenodd" clip-rule="evenodd" d="M1 7.5C1 5.29086 2.79086 3.5 5 3.5H19C21.2091 3.5 23 5.29086 23 7.5V16.5C23 18.7091 21.2091 20.5 19 20.5H5C2.79086 20.5 1 18.7091 1 16.5V7.5ZM5 5.5C3.89543 5.5 3 6.39543 3 7.5V16.5C3 17.6046 3.89543 18.5 5 18.5H19C20.1046 18.5 21 17.6046 21 16.5V7.5C21 6.39543 20.1046 5.5 19 5.5H5ZM6.5 8.5C7.05228 8.5 7.5 8.94772 7.5 9.5V11H9.5V9.5C9.5 8.94772 9.94772 8.5 10.5 8.5C11.0523 8.5 11.5 8.94772 11.5 9.5V12V14.5C11.5 15.0523 11.0523 15.5 10.5 15.5C9.94772 15.5 9.5 15.0523 9.5 14.5V13H7.5V14.5C7.5 15.0523 7.05228 15.5 6.5 15.5C5.94772 15.5 5.5 15.0523 5.5 14.5V12V9.5C5.5 8.94772 5.94772 8.5 6.5 8.5ZM13.5 8.5C12.9477 8.5 12.5 8.94772 12.5 9.5V14.5C12.5 15.0523 12.9477 15.5 13.5 15.5H15.25C17.0449 15.5 18.5 14.0449 18.5 12.25V11.75C18.5 9.95507 17.0449 8.5 15.25 8.5H13.5ZM15.25 13.5H14.5V10.5H15.25C15.9404 10.5 16.5 11.0596 16.5 11.75V12.25C16.5 12.9404 15.9404 13.5 15.25 13.5Z" fill="black"/>
</svg>
