<svg width="24" height="24" viewBox="0 0 24 24" fill="none" xmlns="http://www.w3.org/2000/svg">
<path fill-rule="evenodd" clip-rule="evenodd" d="M12.5433 0.690301C12.8466 0.564664 13.1717 0.5 13.5 0.5C14.0523 0.5 14.5 0.947715 14.5 1.5C14.5 2.05228 14.0523 2.5 13.5 2.5C13.4343 2.5 13.3693 2.51293 13.3087 2.53806C13.248 2.56319 13.1929 2.60002 13.1464 2.64645C13.1 2.69288 13.0632 2.748 13.0381 2.80866C13.0129 2.86932 13 2.93434 13 3V3.5H14.5C18.366 3.5 21.5 6.63401 21.5 10.5V11C21.5 12.1046 20.6046 13 19.5 13V15.7918C19.5 18.4432 18.002 20.867 15.6305 22.0528L13.7889 22.9736C12.6627 23.5367 11.3373 23.5367 10.2111 22.9736L8.3695 22.0528C5.99801 20.867 4.5 18.4432 4.5 15.7918V13C3.39543 13 2.5 12.1046 2.5 11V10.5C2.5 6.63401 5.63401 3.5 9.5 3.5H11V3C11 2.6717 11.0647 2.34661 11.1903 2.04329C11.3159 1.73998 11.5001 1.46438 11.7322 1.23223C11.9644 1.00009 12.24 0.815938 12.5433 0.690301ZM5.5 11H18.5H19.5V10.5C19.5 7.73858 17.2614 5.5 14.5 5.5H12H9.5C6.73858 5.5 4.5 7.73858 4.5 10.5V11H5.5ZM6.5 13V15.7918C6.5 17.6857 7.57001 19.417 9.26393 20.2639L11.1056 21.1848C11.6686 21.4663 12.3314 21.4663 12.8944 21.1848L14.7361 20.2639C16.43 19.417 17.5 17.6857 17.5 15.7918V13H6.5Z" fill="black"/>
</svg>
