<svg width="24" height="24" viewBox="0 0 24 24" fill="none" xmlns="http://www.w3.org/2000/svg">
<path fill-rule="evenodd" clip-rule="evenodd" d="M19.767 4.1636L4.13208 9.61763C4.05467 9.64464 4.02117 9.68096 4.00232 9.71043C3.97908 9.74674 3.9624 9.79976 3.96457 9.86236C3.96674 9.92496 3.98706 9.9767 4.01276 10.0113C4.03361 10.0394 4.06954 10.0733 4.14864 10.0949L11.2631 12.0352C11.6347 12.1365 11.915 12.4422 11.9839 12.8211L13.2009 19.5146C13.2162 19.5986 13.248 19.6371 13.274 19.6595C13.3067 19.6877 13.3579 19.7123 13.4223 19.7186C13.4867 19.725 13.5417 19.7109 13.5793 19.6896C13.6092 19.6727 13.6479 19.6412 13.6793 19.5618L19.767 4.1636ZM19.6238 2.09534C21.0382 1.60194 22.3784 2.99801 21.8277 4.39109L15.5393 20.2971C14.7072 22.4018 11.638 22.099 11.2331 19.8723L10.1289 13.7989L3.6224 12.0244C1.49021 11.4429 1.38661 8.45716 3.47334 7.72923L19.6238 2.09534Z" fill="black"/>
</svg>
