<svg width="24" height="24" viewBox="0 0 24 24" fill="none" xmlns="http://www.w3.org/2000/svg">
<path fill-rule="evenodd" clip-rule="evenodd" d="M4 3C3.44772 3 3 3.44772 3 4C3 4.55228 3.44772 5 4 5H12C15.866 5 19 8.13401 19 12C19 15.866 15.866 19 12 19H4C3.44772 19 3 19.4477 3 20C3 20.5523 3.44772 21 4 21H12C16.9706 21 21 16.9706 21 12C21 7.02944 16.9706 3 12 3H4ZM4 11C3.44772 11 3 11.4477 3 12C3 12.5523 3.44772 13 4 13H12C12.5523 13 13 12.5523 13 12C13 11.4477 12.5523 11 12 11H4Z" fill="black"/>
</svg>
