<svg width="24" height="24" viewBox="0 0 24 24" fill="none" xmlns="http://www.w3.org/2000/svg">
<path fill-rule="evenodd" clip-rule="evenodd" d="M3.17198 7.48188C1.46659 5.54394 2.84264 2.5 5.42412 2.5H18.5759C21.1573 2.5 22.5334 5.54393 20.828 7.48188L15 14.1046V19.5C15 20.1295 14.7036 20.7223 14.2 21.1L12.2 22.6C10.8815 23.5889 8.99999 22.6481 8.99999 21V14.1046L3.17198 7.48188ZM5.42412 4.5C4.56363 4.5 4.10494 5.51465 4.67341 6.16063L10.5014 12.7834C10.8227 13.1485 11 13.6182 11 14.1046V21L13 19.5V14.1046C13 13.6182 13.1772 13.1485 13.4986 12.7834L19.3266 6.16063C19.895 5.51465 19.4363 4.5 18.5759 4.5H5.42412Z" fill="black"/>
</svg>
