<svg width="24" height="24" viewBox="0 0 24 24" fill="none" xmlns="http://www.w3.org/2000/svg">
<path fill-rule="evenodd" clip-rule="evenodd" d="M8.0187 8.03335C8.01053 5.82423 9.79475 4.02676 12.0039 4.01858C14.213 4.01041 16.0105 5.79464 16.0186 8.00376C16.0264 10.1015 14.4179 11.8281 12.3641 12.0038C12.2442 12.0013 12.1229 12.0001 12.0002 12.0001C11.8876 12.0001 11.7763 12.0012 11.6661 12.0032C9.62845 11.8253 8.02642 10.1186 8.0187 8.03335ZM8.06279 12.5299C6.81531 11.4351 6.02534 9.83095 6.01872 8.04075C6.00646 4.72707 8.68279 2.03085 11.9965 2.0186C15.3102 2.00634 18.0064 4.68267 18.0186 7.99636C18.0262 10.0372 17.0139 11.8439 15.461 12.9335C15.5028 13.0777 15.5127 13.2335 15.4839 13.3912C15.3847 13.9345 14.8638 14.2945 14.3205 14.1953C13.7507 14.0912 13.118 14.0245 12.4156 14.0056C12.2917 14.0137 12.1667 14.0181 12.0409 14.0185C11.8963 14.0191 11.7528 14.0145 11.6107 14.0049C9.12563 14.0673 7.50301 14.7261 6.43074 15.5463C5.29785 16.4129 4.68869 17.5292 4.36109 18.5454C4.23844 18.9259 4.33214 19.2454 4.57149 19.5048C4.83101 19.786 5.27841 20.0001 5.81159 20.0001H12.5002C13.0525 20.0001 13.5002 20.4478 13.5002 21.0001C13.5002 21.5524 13.0525 22.0001 12.5002 22.0001H5.81159C4.76568 22.0001 3.7697 21.585 3.10173 20.8612C2.41359 20.1155 2.0957 19.0543 2.45756 17.9318C2.87554 16.6352 3.68024 15.1322 5.2156 13.9578C5.99139 13.3643 6.93095 12.8722 8.06279 12.5299ZM22.2073 15.793C22.5978 16.1835 22.5978 16.8167 22.2073 17.2072L20.4144 19.0001L22.2073 20.793C22.5978 21.1835 22.5978 21.8167 22.2073 22.2072C21.8168 22.5977 21.1836 22.5977 20.7931 22.2072L19.0002 20.4143L17.2073 22.2072C16.8168 22.5977 16.1836 22.5977 15.7931 22.2072C15.4026 21.8167 15.4026 21.1835 15.7931 20.793L17.586 19.0001L15.7931 17.2072C15.4026 16.8167 15.4026 16.1835 15.7931 15.793C16.1836 15.4025 16.8168 15.4025 17.2073 15.793L19.0002 17.5859L20.7931 15.793C21.1836 15.4025 21.8168 15.4025 22.2073 15.793Z" fill="black"/>
</svg>
