<svg width="24" height="24" viewBox="0 0 24 24" fill="none" xmlns="http://www.w3.org/2000/svg">
<path fill-rule="evenodd" clip-rule="evenodd" d="M12 0.5C11.0156 0.5 10.1774 0.663039 9.45861 1.01245C8.73276 1.3653 8.19369 1.87664 7.76485 2.47211C7.34624 3.05338 7.02622 3.72461 6.73606 4.40629C6.60374 4.71716 6.47223 5.04353 6.33961 5.37265L6.29797 5.47597C6.14977 5.84356 5.99776 6.2184 5.8315 6.60457C5.58155 7.18517 5.29379 7.72908 4.99 8.27871C4.91698 8.41081 4.84207 8.54492 4.76633 8.6805L4.76631 8.68053C4.53443 9.09562 4.29481 9.52456 4.07829 9.9522C3.49024 11.1136 3 12.3988 3 14C3 18.4686 6.36759 23 12 23C17.6324 23 21 18.4686 21 14C21 12.3988 20.5098 11.1136 19.9217 9.9522C19.7052 9.52456 19.4656 9.09563 19.2337 8.68054L19.2337 8.68052C19.1579 8.54493 19.083 8.41082 19.01 8.27871C18.7062 7.72908 18.4185 7.18517 18.1685 6.60457C18.0022 6.2184 17.8502 5.84356 17.702 5.47597L17.6604 5.37279C17.5278 5.04362 17.3963 4.7172 17.2639 4.40629C16.9738 3.72461 16.6538 3.05338 16.2351 2.47211C15.8063 1.87664 15.2672 1.3653 14.5414 1.01245C13.8226 0.663039 12.9844 0.5 12 0.5ZM7.6685 7.39543C7.84479 6.98594 8.00438 6.59215 8.15288 6.22383L8.19383 6.12224C8.3279 5.78955 8.45202 5.48153 8.57629 5.18959C8.85209 4.54164 9.10268 4.03679 9.38779 3.6409C9.66268 3.25919 9.96045 2.99229 10.333 2.81118C10.7126 2.62663 11.2344 2.5 12 2.5C12.7656 2.5 13.2874 2.62663 13.667 2.81118C14.0396 2.99229 14.3373 3.25919 14.6122 3.6409C14.8973 4.03679 15.1479 4.54164 15.4237 5.18959C15.548 5.48155 15.6721 5.78958 15.8062 6.1223L15.8471 6.22383C15.9956 6.59215 16.1552 6.98594 16.3315 7.39543C16.6209 8.06772 16.9466 8.67999 17.2596 9.24621C17.3428 9.39672 17.4241 9.54227 17.5035 9.68448C17.7298 10.0896 17.9409 10.4676 18.1374 10.8556C18.6546 11.8772 19 12.8391 19 14C19 17.5314 16.3676 21 12 21C7.63241 21 5 17.5314 5 14C5 12.8391 5.34537 11.8772 5.86262 10.8556C6.05908 10.4676 6.2702 10.0896 6.49651 9.68446C6.57593 9.54226 6.65722 9.39671 6.74041 9.24621C7.05337 8.67999 7.37906 8.06772 7.6685 7.39543ZM9 14C9 12.3431 10.3431 11 12 11C13.6569 11 15 12.3431 15 14C15 15.6569 13.6569 17 12 17C10.3431 17 9 15.6569 9 14ZM12 9C9.23858 9 7 11.2386 7 14C7 16.7614 9.23858 19 12 19C14.7614 19 17 16.7614 17 14C17 11.2386 14.7614 9 12 9Z" fill="black"/>
</svg>
