<svg width="24" height="24" viewBox="0 0 24 24" fill="none" xmlns="http://www.w3.org/2000/svg">
<path fill-rule="evenodd" clip-rule="evenodd" d="M7.09403 5.6798L9.11223 7.69799C9.44948 7.22353 9.71691 6.70107 9.90474 6.14644C10.1177 5.51765 10.2243 4.85954 10.2217 4.19907C9.10788 4.45186 8.03762 4.94544 7.09403 5.6798ZM7.69802 9.11222L5.67981 7.09401C4.94544 8.03762 4.45185 9.1079 4.19906 10.2218C4.87911 10.2244 5.55636 10.1113 6.20146 9.88584C6.73584 9.69906 7.23943 9.4382 7.69802 9.11222ZM9.12721 10.5414L10.5858 12L5.67982 16.906C4.60707 15.5276 4.04812 13.8789 4.00297 12.2188C4.97288 12.2454 5.94163 12.0953 6.86135 11.7738C7.68049 11.4875 8.44536 11.0707 9.12721 10.5414ZM12 10.5858L10.5414 9.12718C11.0867 8.42474 11.5124 7.63446 11.7991 6.78797C12.1032 5.88978 12.2446 4.94672 12.2188 4.00297C13.8789 4.04811 15.5276 4.60706 16.906 5.67982L12 10.5858ZM12 13.4142L7.09404 18.3202C8.47243 19.3929 10.1211 19.9519 11.7812 19.997C11.7557 19.0683 11.8923 18.1397 12.187 17.2536C12.4737 16.3913 12.9044 15.5867 13.4586 14.8728L12 13.4142ZM14.8728 13.4586L13.4142 12L18.3202 7.09404C19.3929 8.47243 19.9519 10.1211 19.997 11.7812C19.0802 11.7561 18.1635 11.8888 17.2873 12.1758C16.4125 12.4624 15.5961 12.8971 14.8728 13.4586ZM14.8878 16.302C14.5442 16.7853 14.2731 17.3185 14.0848 17.8847C13.8787 18.5044 13.7758 19.1517 13.7782 19.8009C14.8921 19.5481 15.9624 19.0546 16.906 18.3202L14.8878 16.302ZM18.3202 16.906L16.302 14.8878C16.7926 14.539 17.3345 14.265 17.91 14.0764C18.5221 13.8759 19.1606 13.7758 19.8009 13.7782C19.5481 14.8921 19.0546 15.9624 18.3202 16.906ZM19.076 19.0661C22.974 15.1628 22.9747 8.84016 19.0781 4.936L19.0711 4.92892L19.0641 4.92192C15.1582 1.02369 8.83184 1.02603 4.92893 4.92893C1.02369 8.83417 1.02369 15.1658 4.92893 19.0711C8.83253 22.9747 15.1605 22.9763 19.0661 19.076C19.0678 19.0744 19.0694 19.0727 19.0711 19.0711C19.0727 19.0694 19.0744 19.0678 19.076 19.0661Z" fill="black"/>
</svg>
