<svg width="24" height="24" viewBox="0 0 24 24" fill="none" xmlns="http://www.w3.org/2000/svg">
<path fill-rule="evenodd" clip-rule="evenodd" d="M8.57441 5.12861C8.42255 4.74895 8.05484 4.5 7.64593 4.5H7V7.70491C7 9.77696 5.84036 11.6728 4 12.6177V15H7.5H11V11.7703C11 11.3887 10.9272 11.0105 10.7854 10.6562L8.57441 5.12861ZM6.5 2.5H7.64593H8.17157C8.97521 2.5 9.68572 2.82549 10.2311 3.23328C10.7784 3.64261 11.4488 4 12 4C12.5512 4 13.2216 3.64261 13.7689 3.23328C14.3143 2.82549 15.0248 2.5 15.8284 2.5H16.3541H17.5H18C18.5523 2.5 19 2.94772 19 3.5V7.70491C19 9.03916 19.7538 10.2589 20.9472 10.8556C21.5924 11.1782 22 11.8376 22 12.559V18C22 19.6569 20.6569 21 19 21H17.5V22C17.5 22.5523 17.0523 23 16.5 23C15.9477 23 15.5 22.5523 15.5 22V21H14C13.2316 21 12.5308 20.7111 12 20.2361C11.4692 20.7111 10.7684 21 10 21H8.5V22C8.5 22.5523 8.05228 23 7.5 23C6.94772 23 6.5 22.5523 6.5 22V21H5C3.34315 21 2 19.6569 2 18V12.559C2 11.8376 2.40757 11.1782 3.05279 10.8556C4.24617 10.2589 5 9.03916 5 7.70491V3.5C5 2.94772 5.44772 2.5 6 2.5H6.5ZM17 4.5H16.3541C15.9452 4.5 15.5775 4.74895 15.4256 5.12861L13.2146 10.6562C13.0728 11.0105 13 11.3887 13 11.7703V15H16.5H20V12.6177C18.1596 11.6728 17 9.77696 17 7.70491V4.5ZM12.9785 5.86122C12.6665 5.9472 12.3377 6 12 6C11.6623 6 11.3335 5.9472 11.0215 5.86122L12 8.30742L12.9785 5.86122ZM4 17H6.5V19H5C4.44772 19 4 18.5523 4 18V17ZM11 17H8.5V19H10C10.5523 19 11 18.5523 11 18V17ZM13 18V17H15.5V19H14C13.4477 19 13 18.5523 13 18ZM17.5 17H20V18C20 18.5523 19.5523 19 19 19H17.5V17Z" fill="black"/>
</svg>
