<svg width="24" height="24" viewBox="0 0 24 24" fill="none" xmlns="http://www.w3.org/2000/svg">
<g clip-path="url(#clip0_895_52710)">
<path fill-rule="evenodd" clip-rule="evenodd" d="M23.7071 1.70711C24.0976 1.31658 24.0976 0.683417 23.7071 0.292893C23.3166 -0.0976311 22.6834 -0.0976311 22.2929 0.292893L12.7964 9.78943C12.794 9.79172 12.7917 9.79402 12.7895 9.79633L9.79636 12.7894C9.79404 12.7917 9.79174 12.794 9.78945 12.7963L0.292893 22.2929C-0.0976311 22.6834 -0.0976311 23.3166 0.292893 23.7071C0.683417 24.0976 1.31658 24.0976 1.70711 23.7071L10.7627 14.6515L9.47945 21.3885C9.17344 22.995 11.2939 23.862 12.201 22.5012L19.8321 11.0547C20.0366 10.7478 20.0557 10.3533 19.8817 10.0281C19.7077 9.70297 19.3688 9.49998 19 9.49998H15.9142L23.7071 1.70711ZM13.9142 11.5L12.6629 12.7513C12.7013 12.7853 12.7373 12.8224 12.7704 12.8625C12.9604 13.092 13.0381 13.3944 12.9823 13.6871L11.9059 19.3383L17.1315 11.5H13.9142ZM10.7796 6.31287L11.0941 4.66162L5.68657 12.7729C5.87956 12.9552 6 13.2135 6 13.5C6 14.0523 5.55229 14.5 5 14.5H4C3.63121 14.5 3.29235 14.297 3.11833 13.9718C2.94431 13.6467 2.96338 13.2521 3.16795 12.9453L10.799 1.49875C11.7061 0.137992 13.8266 1.0049 13.5206 2.61147L12.7442 6.68709C12.6409 7.22962 12.1173 7.58566 11.5748 7.48232C11.0323 7.37898 10.6762 6.8554 10.7796 6.31287Z" fill="black"/>
</g>
<defs>
<clipPath id="clip0_895_52710">
<rect width="24" height="24" fill="white"/>
</clipPath>
</defs>
</svg>
