<svg width="24" height="24" viewBox="0 0 24 24" fill="none" xmlns="http://www.w3.org/2000/svg">
<g clip-path="url(#clip0_895_52571)">
<path fill-rule="evenodd" clip-rule="evenodd" d="M23.7071 0.292893C24.0976 0.683417 24.0976 1.31658 23.7071 1.70711L21.0436 4.37063C21.5084 4.8577 21.9333 5.38185 22.3142 5.9381C22.6262 6.3938 22.5097 7.01616 22.054 7.32817C21.5983 7.64019 20.9759 7.5237 20.6639 7.068C20.3528 6.61366 20.0067 6.18481 19.6289 5.7853L18.2139 7.2003C18.7686 7.79457 19.2364 8.46673 19.6018 9.19709C20.1301 10.2531 20.4325 11.4077 20.4899 12.5871C20.5473 13.7665 20.3583 14.945 19.9349 16.0473C19.628 16.8465 19.2028 17.5929 18.6751 18.2623C18.686 18.2722 18.6966 18.2824 18.7071 18.2929L20.2071 19.7929C20.5976 20.1834 20.5976 20.8166 20.2071 21.2071C19.8166 21.5976 19.1834 21.5976 18.7929 21.2071L17.2929 19.7071C17.2824 19.6966 17.2722 19.686 17.2623 19.6752C16.6084 20.1906 15.8809 20.6084 15.1022 20.9137C14.0029 21.3446 12.8258 21.5418 11.646 21.4926C10.4662 21.4435 9.30956 21.149 8.24987 20.628C7.49928 20.259 6.80897 19.7821 6.20024 19.214L1.70711 23.7071C1.31658 24.0976 0.683417 24.0976 0.292893 23.7071C-0.0976311 23.3166 -0.0976311 22.6834 0.292893 22.2929L22.2929 0.292893C22.6834 -0.0976311 23.3166 -0.0976311 23.7071 0.292893ZM13.4142 12L16.7986 8.61561C17.2023 9.05747 17.544 9.55405 17.8131 10.0919C18.2171 10.8995 18.4484 11.7823 18.4923 12.6843C18.5361 13.5862 18.3916 14.4873 18.0679 15.3303C17.7442 16.1732 17.2483 16.9395 16.6121 17.5802C15.9758 18.2209 15.213 18.7221 14.3723 19.0516C13.5316 19.3812 12.6315 19.532 11.7293 19.4944C10.8271 19.4568 9.94259 19.2316 9.13224 18.8332C8.57898 18.5612 8.06856 18.2126 7.61555 17.7987L11.5309 13.8834C11.6708 13.9578 11.8305 14 12 14H14C14.5523 14 15 13.5523 15 13C15 12.4477 14.5523 12 14 12H13.4142ZM5.17481 2.52782C5.6375 2.22626 6.25704 2.35689 6.5586 2.81957C6.86016 3.28226 6.72954 3.90181 6.26685 4.20337C5.11132 4.95649 4.11549 5.9299 3.33626 7.06799C3.02424 7.5237 2.40188 7.64018 1.94618 7.32817C1.49048 7.01615 1.37399 6.3938 1.68601 5.93809C2.61366 4.58322 3.79918 3.4244 5.17481 2.52782ZM9.21171 4.97034C10.4283 4.54789 11.7249 4.4074 13.0038 4.55948C13.5522 4.62469 13.9439 5.12215 13.8787 5.67057C13.8135 6.21899 13.316 6.6107 12.7676 6.54548C11.7897 6.42919 10.7981 6.53662 9.86778 6.85967C8.93746 7.18272 8.09271 7.71295 7.39733 8.41029C6.70195 9.10764 6.17411 9.95388 5.85368 10.8851C5.53326 11.8163 5.42862 12.8082 5.54767 13.7858C5.61444 14.334 5.22413 14.8326 4.6759 14.8993C4.12766 14.9661 3.62911 14.5758 3.56234 14.0276C3.40666 12.7492 3.54349 11.4521 3.96251 10.2344C4.38153 9.01662 5.07177 7.90999 5.98112 6.99808C6.89047 6.08616 7.99514 5.39279 9.21171 4.97034Z" fill="black"/>
</g>
<defs>
<clipPath id="clip0_895_52571">
<rect width="24" height="24" fill="white"/>
</clipPath>
</defs>
</svg>
