<svg width="24" height="24" viewBox="0 0 24 24" fill="none" xmlns="http://www.w3.org/2000/svg">
<path fill-rule="evenodd" clip-rule="evenodd" d="M9.67332 2.52437C10.8738 1.04946 13.1262 1.04946 14.3267 2.52437L20.4979 10.1062C21.3957 11.2091 21.3957 12.7908 20.4979 13.8938L14.3267 21.4756C13.1262 22.9505 10.8738 22.9505 9.67331 21.4756L3.50209 13.8938C2.60434 12.7908 2.60434 11.2091 3.50209 10.1062L9.67332 2.52437ZM12.7756 3.78692C12.3754 3.29528 11.6246 3.29528 11.2244 3.78691L5.05321 11.3687C4.75396 11.7364 4.75396 12.2636 5.05321 12.6312L11.2244 20.213C11.6246 20.7047 12.3754 20.7047 12.7756 20.213L18.9468 12.6312C19.246 12.2636 19.246 11.7364 18.9468 11.3687L12.7756 3.78692Z" fill="black"/>
</svg>
