<svg width="24" height="24" viewBox="0 0 24 24" fill="none" xmlns="http://www.w3.org/2000/svg">
<path fill-rule="evenodd" clip-rule="evenodd" d="M3 7C3 5.34315 4.34315 4 6 4H18C19.6569 4 21 5.34315 21 7V17.5925C21 20.1699 17.9642 21.5475 16.0245 19.8502L12 16.3288L7.97551 19.8502C6.03576 21.5475 3 20.1699 3 17.5925V7ZM6 6C5.44772 6 5 6.44772 5 7V17.5925C5 18.4516 6.01192 18.9108 6.6585 18.345L10.683 14.8236C11.437 14.1638 12.563 14.1638 13.317 14.8236L17.3415 18.345C17.9881 18.9108 19 18.4516 19 17.5925V7C19 6.44772 18.5523 6 18 6H6Z" fill="black"/>
</svg>
