<svg width="24" height="24" viewBox="0 0 24 24" fill="none" xmlns="http://www.w3.org/2000/svg">
<path fill-rule="evenodd" clip-rule="evenodd" d="M4 12C4 7.58172 7.58172 4 12 4C16.4183 4 20 7.58172 20 12C20 16.4183 16.4183 20 12 20C7.58172 20 4 16.4183 4 12ZM12 2C6.47715 2 2 6.47715 2 12C2 17.5228 6.47715 22 12 22C17.5228 22 22 17.5228 22 12C22 6.47715 17.5228 2 12 2ZM8.05481 7.41793C7.59528 7.11158 6.97441 7.23576 6.66806 7.69528C6.3617 8.15481 6.48588 8.77568 6.94541 9.08203L9.82233 11H8.50011C7.94782 11 7.50011 11.4477 7.50011 12C7.50011 12.5523 7.94782 13 8.50011 13H11.0001V13.75H8.50011C7.94782 13.75 7.50011 14.1977 7.50011 14.75C7.50011 15.3023 7.94782 15.75 8.50011 15.75H11.0001V16.75C11.0001 17.3023 11.4478 17.75 12.0001 17.75C12.5524 17.75 13.0001 17.3023 13.0001 16.75V15.75H15.5001C16.0524 15.75 16.5001 15.3023 16.5001 14.75C16.5001 14.1977 16.0524 13.75 15.5001 13.75L13.0001 13.75V13L15.5001 13C16.0524 13 16.5001 12.5523 16.5001 12C16.5001 11.4477 16.0524 11 15.5001 11H14.1779L17.0548 9.08203C17.5143 8.77568 17.6385 8.15481 17.3322 7.69528C17.0258 7.23576 16.4049 7.11158 15.9454 7.41793L12.0001 10.0481L8.05481 7.41793Z" fill="black"/>
</svg>
