<svg width="24" height="24" viewBox="0 0 24 24" fill="none" xmlns="http://www.w3.org/2000/svg">
<path fill-rule="evenodd" clip-rule="evenodd" d="M19 17C18.1716 17 17.5 17.6716 17.5 18.5C17.5 19.3284 18.1716 20 19 20C19.8284 20 20.5 19.3284 20.5 18.5C20.5 17.6716 19.8284 17 19 17ZM18 8.5V15.1449C16.5543 15.5752 15.5 16.9145 15.5 18.5C15.5 20.433 17.067 22 19 22C20.933 22 22.5 20.433 22.5 18.5C22.5 16.9145 21.4457 15.5752 20 15.1449V8.5C20 6.29086 18.2091 4.5 16 4.5L13.9142 4.5L15.2071 3.20711C15.5976 2.81658 15.5976 2.18342 15.2071 1.79289C14.8166 1.40237 14.1834 1.40237 13.7929 1.79289L10.7929 4.79289C10.4024 5.18342 10.4024 5.81658 10.7929 6.20711L13.7929 9.20711C14.1834 9.59763 14.8166 9.59763 15.2071 9.20711C15.5976 8.81658 15.5976 8.18342 15.2071 7.79289L13.9142 6.5H16C17.1046 6.5 18 7.39543 18 8.5ZM3.5 5.5C3.5 4.67157 4.17157 4 5 4C5.82843 4 6.5 4.67157 6.5 5.5C6.5 6.32843 5.82843 7 5 7C4.17157 7 3.5 6.32843 3.5 5.5ZM8.5 5.5C8.5 7.08551 7.44574 8.42479 6 8.85506V15.5C6 16.6046 6.89543 17.5 8 17.5H10.0858L8.79289 16.2071C8.40237 15.8166 8.40237 15.1834 8.79289 14.7929C9.18342 14.4024 9.81658 14.4024 10.2071 14.7929L13.2071 17.7929C13.5976 18.1834 13.5976 18.8166 13.2071 19.2071L10.2071 22.2071C9.81658 22.5976 9.18342 22.5976 8.79289 22.2071C8.40237 21.8166 8.40237 21.1834 8.79289 20.7929L10.0858 19.5H8C5.79086 19.5 4 17.7091 4 15.5V8.85506C2.55426 8.42479 1.5 7.08551 1.5 5.5C1.5 3.567 3.067 2 5 2C6.933 2 8.5 3.567 8.5 5.5Z" fill="black"/>
</svg>
