<svg width="24" height="24" viewBox="0 0 24 24" fill="none" xmlns="http://www.w3.org/2000/svg">
<path fill-rule="evenodd" clip-rule="evenodd" d="M17.3032 2.45412C16.1317 1.28255 14.2322 1.28255 13.0606 2.45412L11.2938 4.22091L11.2929 4.22179L11.292 4.22268L4.22247 11.2922C4.22227 11.2924 4.22208 11.2926 4.22188 11.2928C4.22169 11.293 4.22149 11.2932 4.2213 11.2934L2.454 13.0607C1.28242 14.2323 1.28242 16.1318 2.454 17.3034L6.69664 21.546C7.86821 22.7176 9.76771 22.7176 10.9393 21.546L21.5459 10.9394C22.7175 9.76783 22.7175 7.86833 21.5459 6.69676L17.3032 2.45412ZM4.92899 13.4142L3.86821 14.4749C3.47769 14.8655 3.47769 15.4986 3.86821 15.8891L8.11085 20.1318C8.50138 20.5223 9.13454 20.5223 9.52507 20.1318L20.1317 9.52519C20.5222 9.13466 20.5222 8.5015 20.1317 8.11097L15.889 3.86833C15.4985 3.47781 14.8653 3.47781 14.4748 3.86833L13.4142 4.9289L15.8891 7.40377C16.2796 7.7943 16.2796 8.42746 15.8891 8.81798C15.4986 9.20851 14.8654 9.20851 14.4749 8.81798L12 6.34311L9.87726 8.46588L11.9987 10.5873C12.3892 10.9779 12.3892 11.611 11.9987 12.0015C11.6082 12.3921 10.975 12.3921 10.5845 12.0015L8.46305 9.8801L6.3432 11.9999L8.81808 14.4748C9.2086 14.8653 9.2086 15.4985 8.81808 15.889C8.42755 16.2796 7.79439 16.2796 7.40386 15.889L4.92899 13.4142Z" fill="black"/>
</svg>
