<svg width="24" height="24" viewBox="0 0 24 24" fill="none" xmlns="http://www.w3.org/2000/svg">
<path fill-rule="evenodd" clip-rule="evenodd" d="M10.799 1.49875C11.7061 0.137985 13.8266 1.00491 13.5206 2.61147L12.2085 9.49998H19C19.3688 9.49998 19.7077 9.70297 19.8817 10.0281C20.0557 10.3533 20.0366 10.7478 19.8321 11.0547L12.201 22.5012C11.2939 23.862 9.17344 22.9951 9.47945 21.3885L10.7915 14.5H4C3.63121 14.5 3.29235 14.297 3.11833 13.9718C2.94431 13.6467 2.96338 13.2521 3.16795 12.9453L10.799 1.49875ZM11.0941 4.66162L5.86852 12.5H12C12.298 12.5 12.5805 12.6329 12.7704 12.8625C12.9604 13.092 13.0381 13.3944 12.9823 13.6871L11.9059 19.3383L17.1315 11.5H11C10.702 11.5 10.4196 11.3671 10.2296 11.1375C10.0396 10.9079 9.96191 10.6056 10.0177 10.3129L11.0941 4.66162Z" fill="black"/>
</svg>
