<svg width="24" height="24" viewBox="0 0 24 24" fill="none" xmlns="http://www.w3.org/2000/svg">
<path fill-rule="evenodd" clip-rule="evenodd" d="M19 13.5C19 11.2496 18.0813 8.56418 16.6675 6.44011C15.218 4.26223 13.4791 3 12 3C10.5209 3 8.78202 4.26223 7.33247 6.44011C5.91873 8.56418 5 11.2496 5 13.5C5 17.9612 8.09422 21 12 21C15.9058 21 19 17.9612 19 13.5ZM12 1C14.5209 1 16.782 3.00249 18.3325 5.33197C19.9187 7.71525 21 10.7798 21 13.5C21 18.98 17.0942 23 12 23C6.90578 23 3 18.98 3 13.5C3 10.7798 4.08127 7.71525 5.66753 5.33197C7.21798 3.00249 9.47911 1 12 1ZM9 14C9 12.3431 10.3431 11 12 11C13.6569 11 15 12.3431 15 14C15 15.6569 13.6569 17 12 17C10.3431 17 9 15.6569 9 14ZM12 9C9.23858 9 7 11.2386 7 14C7 16.7614 9.23858 19 12 19C14.7614 19 17 16.7614 17 14C17 11.2386 14.7614 9 12 9Z" fill="black"/>
</svg>
