<svg width="24" height="24" viewBox="0 0 24 24" fill="none" xmlns="http://www.w3.org/2000/svg">
<path fill-rule="evenodd" clip-rule="evenodd" d="M9.14742 7.25811C7.68381 5.92756 5.43321 5.98112 4.03455 7.37978C2.58744 8.82689 2.58744 11.1731 4.03455 12.6202L10.7072 19.2929C11.4213 20.0069 12.579 20.0069 13.293 19.2929L19.9657 12.6202C21.4128 11.1731 21.4128 8.82689 19.9657 7.37978C18.567 5.98112 16.3164 5.92756 14.8528 7.25811L12.6728 9.23995C12.2914 9.58669 11.7089 9.58669 11.3274 9.23995L9.14742 7.25811ZM2.62034 5.96556C4.77389 3.81201 8.23921 3.72955 10.4928 5.77823L12.0001 7.14855L13.5075 5.77823C15.761 3.72955 19.2263 3.81201 21.3799 5.96556C23.608 8.19372 23.608 11.8063 21.3799 14.0345L14.7072 20.7071C13.2121 22.2022 10.7881 22.2022 9.293 20.7071L2.62034 14.0345C0.392179 11.8063 0.392178 8.19373 2.62034 5.96556Z" fill="black"/>
</svg>
