<svg width="24" height="24" viewBox="0 0 24 24" fill="none" xmlns="http://www.w3.org/2000/svg">
<path fill-rule="evenodd" clip-rule="evenodd" d="M6.5 2.5C4.29086 2.5 2.5 4.29086 2.5 6.5V17.5C2.5 19.7091 4.29086 21.5 6.5 21.5H17.5C19.7091 21.5 21.5 19.7091 21.5 17.5V6.5C21.5 4.29086 19.7091 2.5 17.5 2.5H6.5ZM4.5 6.5C4.5 5.39543 5.39543 4.5 6.5 4.5H17.5C18.6046 4.5 19.5 5.39543 19.5 6.5V17.5C19.5 18.6046 18.6046 19.5 17.5 19.5H6.5C5.39543 19.5 4.5 18.6046 4.5 17.5V6.5ZM9.63188 7.28929C10.1539 6.89777 10.9485 6.5 11.9997 6.5C13.0568 6.5 13.9231 6.90634 14.515 7.57224C15.0906 8.21974 15.3569 9.05479 15.3569 9.85714C15.3569 10.5309 15.1831 11.0856 14.855 11.5407C14.5465 11.9687 14.1491 12.2372 13.8625 12.4196L13.7668 12.4804C13.1942 12.8441 13.0459 12.9382 12.9699 13.2425C12.8359 13.7783 12.293 14.1041 11.7572 13.9701C11.2214 13.8362 10.8956 13.2933 11.0296 12.7575C11.3115 11.6298 12.1668 11.1109 12.6463 10.8199C12.6987 10.7881 12.7466 10.7591 12.7888 10.7322C13.0424 10.5709 13.1606 10.4711 13.2326 10.3711C13.2851 10.2983 13.3569 10.1656 13.3569 9.85714C13.3569 9.48093 13.2303 9.13741 13.0202 8.90097C12.8264 8.68294 12.5141 8.5 11.9997 8.5C11.4795 8.5 11.0956 8.69152 10.8319 8.88929C10.6985 8.98929 10.5998 9.08855 10.5373 9.15878C10.5065 9.19351 10.4856 9.2199 10.4749 9.23397L10.4677 9.24356C10.159 9.69464 9.54397 9.81468 9.08789 9.51062C8.62836 9.20427 8.50419 8.5834 8.81054 8.12387L9.64259 8.67857C8.81054 8.12387 8.8108 8.12349 8.81105 8.12311L8.81158 8.12231L8.8127 8.12064L8.81518 8.11697L8.82111 8.10829L8.83684 8.08581C8.84906 8.06864 8.86477 8.04712 8.88399 8.02189C8.92238 7.97151 8.97516 7.90582 9.0425 7.83006C9.17651 7.6793 9.37236 7.48392 9.63188 7.28929ZM13.5 16.5C13.5 17.3284 12.8284 18 12 18C11.1716 18 10.5 17.3284 10.5 16.5C10.5 15.6716 11.1716 15 12 15C12.8284 15 13.5 15.6716 13.5 16.5Z" fill="black"/>
</svg>
