<svg width="24" height="24" viewBox="0 0 24 24" fill="none" xmlns="http://www.w3.org/2000/svg">
<path fill-rule="evenodd" clip-rule="evenodd" d="M7.99999 5.5C6.74604 5.5 5.67152 6.39677 5.4472 7.6305L4.67345 11.8861C5.23164 11.6379 5.84971 11.5 6.49999 11.5C8.23065 11.5 9.73312 12.477 10.486 13.9095C10.9304 13.6492 11.4478 13.5 12 13.5C12.5522 13.5 13.0696 13.6492 13.514 13.9095C14.2669 12.477 15.7693 11.5 17.5 11.5C18.1503 11.5 18.7683 11.6379 19.3265 11.8861L18.5528 7.6305C18.3285 6.39677 17.2539 5.5 16 5.5C15.4477 5.5 15 5.05228 15 4.5C15 3.94772 15.4477 3.5 16 3.5C18.2205 3.5 20.1233 5.08802 20.5205 7.27273L21.9839 15.3211C22.0048 15.4364 22.0051 15.5507 21.9874 15.6602C21.9957 15.7724 22 15.8857 22 16C22 18.4853 19.9853 20.5 17.5 20.5C15.1837 20.5 13.2762 18.75 13.0275 16.5H13C13 15.9477 12.5523 15.5 12 15.5C11.4477 15.5 11 15.9477 11 16.5H10.9725C10.7238 18.75 8.81627 20.5 6.49999 20.5C4.01471 20.5 1.99999 18.4853 1.99999 16C1.99999 15.8857 2.00425 15.7724 2.01263 15.6602C1.99487 15.5507 1.99515 15.4364 2.01612 15.3211L3.47946 7.27273C3.87668 5.08802 5.77946 3.5 7.99999 3.5C8.55228 3.5 8.99999 3.94772 8.99999 4.5C8.99999 5.05228 8.55228 5.5 7.99999 5.5ZM6.49999 13.5C5.11928 13.5 3.99999 14.6193 3.99999 16C3.99999 17.3807 5.11928 18.5 6.49999 18.5C7.8807 18.5 8.99999 17.3807 8.99999 16C8.99999 14.6193 7.8807 13.5 6.49999 13.5ZM15 16C15 14.6193 16.1193 13.5 17.5 13.5C18.8807 13.5 20 14.6193 20 16C20 17.3807 18.8807 18.5 17.5 18.5C16.1193 18.5 15 17.3807 15 16Z" fill="black"/>
</svg>
