<svg width="24" height="24" viewBox="0 0 24 24" fill="none" xmlns="http://www.w3.org/2000/svg">
<path fill-rule="evenodd" clip-rule="evenodd" d="M14.0292 2.20807C11.6051 1.70573 9.08085 2.1204 6.94487 3.37184C4.80889 4.62328 3.21302 6.62253 2.46607 8.98274C1.71911 11.3429 1.87417 13.8963 2.90124 16.1488C3.9283 18.4013 5.75436 20.1927 8.02608 21.1765C8.53289 21.396 9.12165 21.1631 9.34112 20.6563C9.5606 20.1495 9.32767 19.5607 8.82087 19.3412C7.00349 18.5542 5.54264 17.121 4.72099 15.3191C3.89934 13.5171 3.77529 11.4744 4.37285 9.5862C4.97042 7.69803 6.24711 6.09863 7.95589 5.09748C9.66468 4.09632 11.6841 3.76459 13.6233 4.16646C15.5626 4.56833 17.2839 5.67524 18.4541 7.27301C19.6243 8.87077 20.1603 10.8458 19.9583 12.816C19.7563 14.7861 18.8307 16.6113 17.3606 17.9383C16.4458 18.7642 15.3605 19.3606 14.1938 19.6934C13.8965 19.7782 13.6326 19.7025 13.4119 19.5002C13.1756 19.2836 13 18.9214 13 18.5V16.9725C15.25 16.7238 17 14.8163 17 12.5V11.5C17 10.3954 16.1046 9.5 15 9.5V7.5C15 6.94772 14.5523 6.5 14 6.5C13.4477 6.5 13 6.94772 13 7.5V9.5H11V7.5C11 6.94772 10.5523 6.5 10 6.5C9.44772 6.5 9 6.94772 9 7.5V9.5C7.89543 9.5 7 10.3954 7 11.5V12.5C7 14.8163 8.75003 16.7238 11 16.9725V18.5C11 19.4594 11.3945 20.364 12.0603 20.9744C12.7417 21.599 13.7118 21.9105 14.7423 21.6167C16.2005 21.2008 17.5572 20.4553 18.7008 19.4229C20.5384 17.7641 21.6954 15.4826 21.9479 13.0199C22.2003 10.5573 21.5304 8.08846 20.0676 6.09125C18.6049 4.09405 16.4533 2.71041 14.0292 2.20807ZM9 12.5V11.5H15V12.5C15 13.8807 13.8807 15 12.5 15H11.5C10.1193 15 9 13.8807 9 12.5Z" fill="black"/>
</svg>
