<svg width="24" height="24" viewBox="0 0 24 24" fill="none" xmlns="http://www.w3.org/2000/svg">
<path fill-rule="evenodd" clip-rule="evenodd" d="M11 21C11 21.5523 11.4477 22 12 22H18C19.6569 22 21 20.6569 21 19V11C21 10.7578 20.9121 10.5238 20.7526 10.3415L13.7526 2.3415C13.5627 2.12448 13.2884 2 13 2H6C4.34315 2 3 3.34315 3 5V11C3 11.5523 3.44772 12 4 12C4.55228 12 5 11.5523 5 11V5C5 4.44772 5.44772 4 6 4H12V9C12 10.6569 13.3431 12 15 12H19V19C19 19.5523 18.5523 20 18 20H12C11.4477 20 11 20.4477 11 21ZM17.7962 10H15C14.4477 10 14 9.55228 14 9V5.66145L17.7962 10ZM1 19C1 18.4477 1.44772 18 2 18H4V16C4 15.4477 4.44772 15 5 15C5.55228 15 6 15.4477 6 16V18H8C8.55228 18 9 18.4477 9 19C9 19.5523 8.55228 20 8 20H6V22C6 22.5523 5.55228 23 5 23C4.44771 23 4 22.5523 4 22V20H2C1.44772 20 1 19.5523 1 19Z" fill="black"/>
</svg>
