<svg width="24" height="24" viewBox="0 0 24 24" fill="none" xmlns="http://www.w3.org/2000/svg">
<path fill-rule="evenodd" clip-rule="evenodd" d="M10.5857 2.49997C11.3667 1.71892 12.633 1.71892 13.4141 2.49997L20.5731 9.65898C21.9905 11.0764 20.9866 13.5 18.9821 13.5H17.5V20C17.5 21.1045 16.6045 22 15.5 22H8.49997C7.3954 22 6.49997 21.1045 6.49997 20V13.5H5.01763C3.0131 13.5 2.00922 11.0764 3.42664 9.65898L10.5857 2.49997ZM19.1589 11.0732L11.9999 3.91418L4.84086 11.0732C4.68337 11.2307 4.79491 11.5 5.01763 11.5H7.49997C8.05225 11.5 8.49997 11.9477 8.49997 12.5V20H15.5V12.5C15.5 11.9477 15.9477 11.5 16.5 11.5H18.9821C19.2048 11.5 19.3164 11.2307 19.1589 11.0732Z" fill="black"/>
</svg>
