<svg width="24" height="24" viewBox="0 0 24 24" fill="none" xmlns="http://www.w3.org/2000/svg">
<path fill-rule="evenodd" clip-rule="evenodd" d="M18.5 16C17.9477 16 17.5 15.5523 17.5 15C17.5 14.4477 17.9477 14 18.5 14H18.6667C18.8508 14 19 13.8508 19 13.6667V9.50002L16 9.50004C14.8954 9.50004 14 8.60461 14 7.50004V4.00001L10.8333 4C10.6492 4 10.5 4.14924 10.5 4.33333V5.00002C10.5 5.5523 10.0523 6.00002 9.5 6.00002C8.94772 6.00002 8.5 5.5523 8.5 5.00002V4.33333C8.5 3.04467 9.54467 1.99999 10.8333 2L15 2.00002C15.2817 2.00002 15.5504 2.11887 15.7399 2.32734L20.7399 7.82735C20.9073 8.01142 21 8.25125 21 8.50002V13.6667C21 14.9553 19.9553 16 18.6667 16H18.5ZM16 7.50004L17.7395 7.50003L16 5.58663V7.50004ZM5.5 22C4.11929 22 3 20.8807 3 19.5V10.5C3 9.11928 4.11929 8 5.5 8H9.5C9.78175 8 10.0504 8.11885 10.2399 8.32732L15.2399 13.8273C15.4073 14.0114 15.5 14.2513 15.5 14.5V19.5C15.5 20.8807 14.3807 22 13 22H5.5ZM5 19.5C5 19.7762 5.22386 20 5.5 20H13C13.2761 20 13.5 19.7762 13.5 19.5V15.5H10.5C9.39543 15.5 8.5 14.6046 8.5 13.5V10H5.5C5.22386 10 5 10.2239 5 10.5V19.5ZM10.5 13.5L12.2395 13.5L10.5 11.5866V13.5Z" fill="black"/>
</svg>
