<svg width="24" height="24" viewBox="0 0 24 24" fill="none" xmlns="http://www.w3.org/2000/svg">
<g clip-path="url(#clip0_1172_6621)">
<path fill-rule="evenodd" clip-rule="evenodd" d="M5.32697 7.56607C8.22647 2.544 14.6482 0.823309 19.6702 3.7228C21.1513 4.57788 22.3472 5.74129 23.2212 7.08576C23.465 7.46085 23.43 7.95226 23.1355 8.28904C22.841 8.62583 22.3587 8.72603 21.9544 8.53442C20.9469 8.05684 19.8775 7.82331 18.8179 7.81487C18.8861 7.92605 18.9516 8.03886 19.0143 8.1532C19.0716 8.24576 19.1276 8.33947 19.1824 8.43434L18.3164 8.93434L19.1824 8.43434C22.0819 13.4564 20.3612 19.8781 15.3392 22.7776C13.8581 23.6327 12.2526 24.0866 10.6513 24.1713C10.2045 24.1949 9.79645 23.919 9.65203 23.4955C9.50761 23.0721 9.662 22.6043 10.0301 22.35C10.9456 21.7174 11.6815 20.91 12.2183 19.9988C12.0586 20.0031 11.8981 20.0026 11.7371 19.9972C11.659 19.9989 11.5807 19.9998 11.5022 19.9998C5.70321 19.9998 1.0022 15.2988 1.0022 9.4998C1.0022 7.78966 1.4118 6.17227 2.13914 4.74314C2.34207 4.34443 2.78512 4.12901 3.22403 4.21565C3.66294 4.3023 3.9909 4.66992 4.02709 5.11583C4.11699 6.22366 4.44762 7.26346 4.96725 8.18316C5.05526 8.02072 5.14854 7.86206 5.24682 7.70736C5.27314 7.66014 5.29986 7.61304 5.32697 7.56607ZM6.2043 10.4471L6.19334 10.4885C6.09979 10.8422 5.82053 11.1166 5.46523 11.2039C5.10993 11.2912 4.73531 11.1775 4.48847 10.9075C3.9131 10.278 3.42113 9.57041 3.03035 8.80236C3.01171 9.03231 3.0022 9.2649 3.0022 9.4998C3.0022 14.1942 6.80778 17.9998 11.5022 17.9998C11.5745 17.9998 11.6465 17.9989 11.7183 17.9971C11.7391 17.9966 11.7599 17.9967 11.7808 17.9975C12.4018 18.0209 13.0131 17.9464 13.596 17.7849C13.9494 17.687 14.3281 17.7904 14.5827 18.0543C14.8374 18.3182 14.9271 18.7004 14.8165 19.05C14.559 19.8647 14.1917 20.6461 13.7211 21.3699C13.9295 21.2711 14.1357 21.163 14.3392 21.0456C18.4046 18.6983 19.7976 13.4998 17.4504 9.43435C17.4018 9.35028 17.3521 9.26739 17.3012 9.18569C17.2908 9.16899 17.2809 9.152 17.2715 9.13472C16.9906 8.61806 16.6346 8.14304 16.214 7.72731C15.9535 7.46988 15.8546 7.09068 15.9562 6.73883C16.0577 6.38699 16.3434 6.11879 16.701 6.0397C17.536 5.85502 18.3972 5.78223 19.2602 5.82795C19.0703 5.69684 18.8737 5.5723 18.6702 5.45485C14.6048 3.10764 9.40623 4.50058 7.05902 8.56607C7.03261 8.61182 7.00668 8.6577 6.98122 8.70371C6.97078 8.72258 6.95973 8.7411 6.94809 8.75926C6.62349 9.26558 6.36964 9.83065 6.20473 10.4454C6.20459 10.446 6.20444 10.4465 6.2043 10.4471ZM13.4992 11.9996C13.4992 11.1711 12.8276 10.4996 11.9992 10.4996C11.1708 10.4996 10.4992 11.1711 10.4992 11.9996C10.4992 12.828 11.1708 13.4996 11.9992 13.4996C12.8277 13.4996 13.4992 12.828 13.4992 11.9996ZM11.9992 8.49955C13.9322 8.49955 15.4992 10.0666 15.4992 11.9996C15.4992 13.9325 13.9322 15.4996 11.9992 15.4996C10.0662 15.4996 8.49922 13.9325 8.49922 11.9996C8.49922 10.0666 10.0662 8.49955 11.9992 8.49955Z" fill="black"/>
</g>
<defs>
<clipPath id="clip0_1172_6621">
<rect width="24" height="24" fill="white"/>
</clipPath>
</defs>
</svg>
