<svg width="24" height="24" viewBox="0 0 24 24" fill="none" xmlns="http://www.w3.org/2000/svg">
<path fill-rule="evenodd" clip-rule="evenodd" d="M5.17476 2.52782C5.63745 2.22626 6.25699 2.35689 6.55855 2.81957C6.86011 3.28226 6.72949 3.90181 6.2668 4.20337C5.11127 4.95649 4.11544 5.9299 3.33621 7.06799C3.02419 7.5237 2.40183 7.64018 1.94613 7.32817C1.49043 7.01615 1.37394 6.3938 1.68596 5.93809C2.61361 4.58322 3.79913 3.4244 5.17476 2.52782ZM17.4415 2.81957C17.743 2.35689 18.3626 2.22626 18.8253 2.52782C20.2009 3.4244 21.3864 4.58322 22.3141 5.93809C22.6261 6.3938 22.5096 7.01615 22.0539 7.32817C21.5982 7.64018 20.9758 7.5237 20.6638 7.06799C19.8846 5.9299 18.8888 4.95649 17.7332 4.20337C17.2705 3.90181 17.1399 3.28226 17.4415 2.81957ZM12 6.49997C8.41017 6.49997 5.50002 9.41012 5.50002 13C5.50002 16.5898 8.41017 19.5 12 19.5C15.5899 19.5 18.5 16.5898 18.5 13C18.5 9.41012 15.5899 6.49997 12 6.49997ZM3.50002 13C3.50002 8.30555 7.3056 4.49997 12 4.49997C16.6944 4.49997 20.5 8.30555 20.5 13C20.5 14.9872 19.8181 16.8151 18.6755 18.2625C18.6862 18.2724 18.6967 18.2825 18.7071 18.2929L20.2071 19.7929C20.5976 20.1834 20.5976 20.8166 20.2071 21.2071C19.8166 21.5976 19.1834 21.5976 18.7929 21.2071L17.2929 19.7071C17.2825 19.6967 17.2724 19.6861 17.2626 19.6754C15.8152 20.818 13.9872 21.5 12 21.5C10.0128 21.5 8.18487 20.818 6.73746 19.6754C6.72762 19.6861 6.71751 19.6967 6.70712 19.7071L5.20712 21.2071C4.8166 21.5976 4.18343 21.5976 3.79291 21.2071C3.40239 20.8166 3.40239 20.1834 3.79291 19.7929L5.29291 18.2929C5.3033 18.2825 5.31386 18.2724 5.32458 18.2625C4.18196 16.8151 3.50002 14.9872 3.50002 13ZM12 8.99997C12.5523 8.99997 13 9.44769 13 9.99997V12H15C15.5523 12 16 12.4477 16 13C16 13.5523 15.5523 14 15 14H13V16C13 16.5523 12.5523 17 12 17C11.4477 17 11 16.5523 11 16V14H9.00002C8.44773 14 8.00002 13.5523 8.00002 13C8.00002 12.4477 8.44773 12 9.00002 12H11V9.99997C11 9.44769 11.4477 8.99997 12 8.99997Z" fill="black"/>
</svg>
