<svg width="24" height="24" viewBox="0 0 24 24" fill="none" xmlns="http://www.w3.org/2000/svg">
<path fill-rule="evenodd" clip-rule="evenodd" d="M20.5 2.5C13.9475 2.5 9.40874 5.13718 6.53022 8.75207C3.68014 12.3312 2.5 16.811 2.5 20.5C2.5 21.0523 2.94772 21.5 3.5 21.5C4.05228 21.5 4.5 21.0523 4.5 20.5C4.5 17.189 5.56986 13.1688 8.09478 9.99793C10.5913 6.86282 14.5525 4.5 20.5 4.5C21.0523 4.5 21.5 4.05228 21.5 3.5C21.5 2.94772 21.0523 2.5 20.5 2.5ZM12.6357 8.70251C14.6184 7.36353 17.1915 6.5 20.5001 6.5C21.0523 6.5 21.5001 6.94771 21.5001 7.49999C21.5001 8.05227 21.0523 8.49999 20.5001 8.49999C17.5585 8.49999 15.3816 9.26145 13.755 10.36C10.5927 12.4955 8.93621 16.3518 8.54021 20.0479C8.52254 20.2128 8.51211 20.3403 8.50619 20.4243C8.4653 21.0042 8.10445 21.5239 7.46157 21.4992C6.90969 21.4779 6.47951 21.0134 6.50074 20.4615L6.53795 20.3901C6.51593 20.3832 6.50656 20.3486 6.51114 20.2836C6.51865 20.1771 6.53117 20.0253 6.55159 19.8348C6.59239 19.454 6.66492 18.9163 6.79262 18.2738C7.04711 16.9931 7.52538 15.2717 8.42501 13.5391C9.32596 11.804 10.6612 10.0359 12.6357 8.70251ZM14.7422 12.0742C16.1898 11.1091 18.0751 10.5 20.5001 10.5C21.0523 10.5 21.5001 10.9477 21.5001 11.5C21.5001 12.0523 21.0523 12.5 20.5001 12.5C18.425 12.5 16.9352 13.0159 15.8516 13.7383C14.7617 14.4649 14.0226 15.4408 13.5194 16.4472C13.0143 17.4575 12.7567 18.4799 12.627 19.2582C12.5626 19.6449 12.5307 19.965 12.515 20.1845C12.5072 20.2941 12.5034 20.3781 12.5016 20.4322C12.5007 20.4593 12.5003 20.4788 12.5001 20.4903L12.5 20.5014L12.5 20.5015C12.4992 21.0531 12.0518 21.5 11.5 21.5C10.9477 21.5 10.5 21.0523 10.5 20.5H11.5C10.5 20.5 10.5 20.4995 10.5 20.4989L10.5 20.4976L10.5 20.4944L10.5001 20.4855L10.5004 20.4581C10.5008 20.4355 10.5015 20.4045 10.5028 20.3656C10.5053 20.2879 10.5104 20.1785 10.5201 20.042C10.5396 19.7694 10.5781 19.3863 10.6542 18.9293C10.8058 18.0201 11.1107 16.7925 11.7306 15.5528C12.3524 14.3092 13.3008 13.0351 14.7422 12.0742Z" fill="black"/>
</svg>
