<svg width="24" height="24" viewBox="0 0 24 24" fill="none" xmlns="http://www.w3.org/2000/svg">
<path fill-rule="evenodd" clip-rule="evenodd" d="M7 7C7 4.23858 9.23858 2 12 2C14.7614 2 17 4.23858 17 7C17 7.34262 16.9654 7.67742 16.8996 8.00099C16.933 8.00033 16.9665 8 17 8C19.7614 8 22 10.2386 22 13C22 15.7614 19.7614 18 17 18C16.4343 18 15.8905 17.9059 15.3834 17.7327L15.8658 20.2137C16.0459 21.1397 15.3367 22 14.3934 22H9.60659C8.66329 22 7.95412 21.1396 8.13416 20.2137L8.61658 17.7327C8.1095 17.9059 7.56567 18 7 18C4.23858 18 2 15.7614 2 13C2 10.2386 4.23858 8 7 8C7.03354 8 7.06701 8.00033 7.1004 8.00099C7.03457 7.67742 7 7.34262 7 7ZM12 4C10.3431 4 9 5.34315 9 7C9 7.69127 9.23258 8.32539 9.62434 8.83233C9.91109 9.20337 9.90149 9.72383 9.60126 10.0841C9.30103 10.4443 8.79082 10.5475 8.37418 10.3323C7.96357 10.1202 7.49729 10 7 10C5.34315 10 4 11.3431 4 13C4 14.6569 5.34315 16 7 16C7.91759 16 8.73825 15.5893 9.29009 14.938C9.58422 14.5909 10.0756 14.4861 10.4857 14.683C10.8959 14.8799 11.1215 15.3288 11.0346 15.7754L10.2132 20H13.7868L12.9654 15.7754C12.8785 15.3288 13.1041 14.8799 13.5143 14.683C13.9244 14.4861 14.4158 14.5909 14.7099 14.938C15.2618 15.5893 16.0824 16 17 16C18.6569 16 20 14.6569 20 13C20 11.3431 18.6569 10 17 10C16.5027 10 16.0364 10.1202 15.6258 10.3323C15.2092 10.5475 14.699 10.4443 14.3987 10.0841C14.0985 9.72384 14.0889 9.20337 14.3757 8.83233C14.7674 8.3254 15 7.69127 15 7C15 5.34315 13.6569 4 12 4Z" fill="black"/>
</svg>
