<svg width="24" height="24" viewBox="0 0 24 24" fill="none" xmlns="http://www.w3.org/2000/svg">
<path fill-rule="evenodd" clip-rule="evenodd" d="M10.1119 1.65537C7.97805 1.0836 5.7847 2.34993 5.21293 4.4838L2.36592 15.109C1.79415 17.2428 3.06048 19.4362 5.19435 20.008L13.8877 22.3373C16.0215 22.9091 18.2149 21.6428 18.7867 19.5089L21.6337 8.88372C22.2054 6.74986 20.9391 4.55651 18.8052 3.98474L10.1119 1.65537ZM7.14478 5.00144C7.43067 3.9345 8.52734 3.30134 9.59427 3.58722L18.2876 5.91659C19.3545 6.20248 19.9877 7.29915 19.7018 8.36608L16.8548 18.9913C16.5689 20.0582 15.4723 20.6914 14.4053 20.4055L5.71199 18.0761C4.64505 17.7902 4.01189 16.6936 4.29777 15.6266L7.14478 5.00144ZM9.68923 5.16554C9.15576 5.02259 8.60743 5.33918 8.46449 5.87264C8.32154 6.40611 8.63813 6.95445 9.17159 7.09739L16.899 9.16794C17.4325 9.31088 17.9808 8.9943 18.1237 8.46083C18.2667 7.92737 17.9501 7.37903 17.4166 7.23609L9.68923 5.16554ZM6.65247 12.6341C6.79542 12.1007 7.34375 11.7841 7.87722 11.927L11.7409 12.9623C12.2744 13.1052 12.591 13.6536 12.448 14.187C12.3051 14.7205 11.7567 15.0371 11.2233 14.8941L7.35958 13.8589C6.82611 13.7159 6.50953 13.1676 6.65247 12.6341ZM8.78347 8.54627C8.25 8.40333 7.70167 8.71991 7.55872 9.25338C7.41578 9.78685 7.73236 10.3352 8.26583 10.4781L15.9932 12.5487C16.5267 12.6916 17.075 12.375 17.218 11.8416C17.3609 11.3081 17.0443 10.7598 16.5109 10.6168L8.78347 8.54627Z" fill="black"/>
</svg>
