<svg width="24" height="24" viewBox="0 0 24 24" fill="none" xmlns="http://www.w3.org/2000/svg">
<path fill-rule="evenodd" clip-rule="evenodd" d="M6.5 4C5.67157 4 5 4.67157 5 5.5C5 6.32843 5.67157 7 6.5 7C7.32843 7 8 6.32843 8 5.5C8 4.67157 7.32843 4 6.5 4ZM7.5 8.85506C8.94574 8.42479 10 7.08551 10 5.5C10 3.567 8.433 2 6.5 2C4.567 2 3 3.567 3 5.5C3 7.08551 4.05426 8.42479 5.5 8.85506V15.1449C4.05426 15.5752 3 16.9145 3 18.5C3 20.433 4.567 22 6.5 22C8.433 22 10 20.433 10 18.5C10 16.9562 9.00046 15.6458 7.61323 15.1808C7.96972 13.9221 9.12717 13 10.5 13H13.5C15.9623 13 18.0088 11.2202 18.4234 8.87691C19.9083 8.47182 21 7.1134 21 5.5C21 3.567 19.433 2 17.5 2C15.567 2 14 3.567 14 5.5C14 7.04382 14.9995 8.35418 16.3868 8.81924C16.0303 10.0779 14.8728 11 13.5 11H10.5C9.37439 11 8.33566 11.3719 7.5 11.9996V8.85506ZM17.5 7C18.3284 7 19 6.32843 19 5.5C19 4.67157 18.3284 4 17.5 4C16.6716 4 16 4.67157 16 5.5C16 6.32843 16.6716 7 17.5 7ZM5 18.5C5 17.6716 5.67157 17 6.5 17C7.32843 17 8 17.6716 8 18.5C8 19.3284 7.32843 20 6.5 20C5.67157 20 5 19.3284 5 18.5Z" fill="black"/>
</svg>
