<svg width="24" height="24" viewBox="0 0 24 24" fill="none" xmlns="http://www.w3.org/2000/svg">
<path fill-rule="evenodd" clip-rule="evenodd" d="M12 1.5C7.58172 1.5 4 5.08172 4 9.5V10.5C4 12.433 5.567 14 7.5 14C9.433 14 11 12.433 11 10.5V9.5C11 8.94772 11.4477 8.5 12 8.5C12.5523 8.5 13 8.94772 13 9.5V15.9823C12.9998 15.9946 12.9998 16.007 13 16.0194V19C13 20.933 14.567 22.5 16.5 22.5C18.433 22.5 20 20.933 20 19V12.4991V9.50029C20 5.08206 16.4183 1.5 12 1.5ZM18 11.9792V9.50029C18 8.23757 17.6099 7.06592 16.9437 6.09929L14.9407 8.90354C14.9796 9.09631 15 9.29577 15 9.5V14.0792L18 11.9792ZM12 3.5C13.3173 3.5 14.5355 3.92458 15.5252 4.64436L13.7813 7.08582C13.2831 6.71766 12.667 6.5 12 6.5C11.8977 6.5 11.7967 6.50512 11.6971 6.5151L7.69964 5.31587C8.78967 4.19575 10.3136 3.5 12 3.5ZM6.52119 7.0504C6.18626 7.79837 6 8.62743 6 9.5V10.5C6 11.3284 6.67157 12 7.5 12C8.32843 12 9 11.3284 9 10.5V9.5C9 8.92335 9.1627 8.3847 9.44469 7.92745L6.52119 7.0504ZM15 16.5206L18 14.4206V19C18 19.8284 17.3284 20.5 16.5 20.5C15.6716 20.5 15 19.8284 15 19V16.5206Z" fill="black"/>
</svg>
