<svg width="24" height="24" viewBox="0 0 24 24" fill="none" xmlns="http://www.w3.org/2000/svg">
<path fill-rule="evenodd" clip-rule="evenodd" d="M8.13309 6.8712C8.38718 6.20517 8.58919 5.48158 8.73816 4.86119C8.11778 5.01017 7.39419 5.21219 6.72816 5.46627C5.97448 5.75381 5.41352 6.06452 5.12234 6.35571C4.48974 6.9883 4.50469 7.96039 5.07183 8.52753C5.63897 9.09467 6.61107 9.10962 7.24366 8.47703C7.53484 8.18584 7.84555 7.62488 8.13309 6.8712ZM10.7248 5.15058C11.0459 3.76824 9.83112 2.55346 8.44878 2.87453C7.7482 3.03725 6.85807 3.27611 6.01528 3.59764C5.20086 3.90834 4.30932 4.34029 3.70812 4.94149C2.3323 6.31731 2.27213 8.55627 3.65761 9.94175C5.0431 11.3272 7.28205 11.2671 8.65787 9.89124C9.25907 9.29004 9.69102 8.3985 10.0017 7.58408C10.3232 6.74129 10.5621 5.85116 10.7248 5.15058ZM9.54715 15.3565C9.80124 14.6905 10.0032 13.9669 10.1522 13.3465C9.53184 13.4955 8.80825 13.6975 8.14223 13.9516C7.38854 14.2392 6.82758 14.5499 6.5364 14.8411C5.90381 15.4736 5.91875 16.4457 6.48589 17.0129C7.05303 17.58 8.02513 17.595 8.65772 16.9624C8.9489 16.6712 9.25962 16.1102 9.54715 15.3565ZM12.1389 13.6359C12.46 12.2536 11.2452 11.0388 9.86284 11.3599C9.16226 11.5226 8.27214 11.7615 7.42934 12.083C6.61492 12.3937 5.72338 12.8256 5.12218 13.4268C3.74636 14.8027 3.6862 17.0416 5.07168 18.4271C6.45716 19.8126 8.69611 19.7524 10.0719 18.3766C10.6731 17.7754 11.1051 16.8839 11.4158 16.0694C11.7373 15.2266 11.9762 14.3365 12.1389 13.6359ZM18.6366 14.7606C18.4876 15.381 18.2856 16.1046 18.0315 16.7706C17.744 17.5243 17.4333 18.0853 17.1421 18.3764C16.5095 19.009 15.5374 18.9941 14.9703 18.4269C14.4031 17.8598 14.3882 16.8877 15.0208 16.2551C15.312 15.9639 15.8729 15.6532 16.6266 15.3657C17.2926 15.1116 18.0162 14.9096 18.6366 14.7606ZM18.3472 12.7739C19.7296 12.4529 20.9443 13.6677 20.6233 15.05C20.4605 15.7506 20.2217 16.6407 19.9002 17.4835C19.5895 18.2979 19.1575 19.1895 18.5563 19.7907C17.1805 21.1665 14.9415 21.2266 13.5561 19.8412C12.1706 18.4557 12.2307 16.2167 13.6066 14.8409C14.2078 14.2397 15.0993 13.8078 15.9137 13.4971C16.7565 13.1755 17.6466 12.9367 18.3472 12.7739ZM17.3245 7.57823C17.5786 6.9122 17.7806 6.18861 17.9296 5.56823C17.3092 5.7172 16.5856 5.91922 15.9196 6.17331C15.1659 6.46084 14.6049 6.77155 14.3137 7.06274C13.6812 7.69533 13.6961 8.66742 14.2632 9.23456C14.8304 9.80171 15.8025 9.81665 16.4351 9.18406C16.7262 8.89287 17.037 8.33191 17.3245 7.57823ZM19.9162 5.85761C20.2373 4.47527 19.0225 3.2605 17.6402 3.58156C16.9396 3.74428 16.0495 3.98314 15.2067 4.30467C14.3923 4.61537 13.5007 5.04733 12.8995 5.64852C11.5237 7.02434 11.4635 9.2633 12.849 10.6488C14.2345 12.0343 16.4735 11.9741 17.8493 10.5983C18.4505 9.99707 18.8824 9.10553 19.1931 8.29112C19.5147 7.44832 19.7535 6.5582 19.9162 5.85761Z" fill="black"/>
</svg>
