<svg width="24" height="24" viewBox="0 0 24 24" fill="none" xmlns="http://www.w3.org/2000/svg">
<path fill-rule="evenodd" clip-rule="evenodd" d="M3 19C3 20.6569 4.34315 22 6 22H18C19.6569 22 21 20.6569 21 19V11C21 10.7578 20.9121 10.5238 20.7526 10.3415L13.7526 2.3415C13.5627 2.12448 13.2884 2 13 2H6C4.34315 2 3 3.34315 3 5V19ZM6 20C5.44772 20 5 19.5523 5 19V5C5 4.44772 5.44772 4 6 4H12V9C12 10.6569 13.3431 12 15 12H19V19C19 19.5523 18.5523 20 18 20H6ZM17.7962 10H15C14.4477 10 14 9.55228 14 9V5.66145L17.7962 10Z" fill="black"/>
</svg>
