<svg width="24" height="24" viewBox="0 0 24 24" fill="none" xmlns="http://www.w3.org/2000/svg">
<path fill-rule="evenodd" clip-rule="evenodd" d="M12 1C8.68629 1 6 3.68629 6 7V9.79032C6 10.2371 5.78966 10.6578 5.43226 10.9258L5.1027 11.173C3.77902 12.1657 3 13.7238 3 15.3784C3 16.8263 4.17374 18 5.62162 18H18.3784C19.8263 18 21 16.8263 21 15.3784C21 13.7238 20.221 12.1657 18.8973 11.173L18.5677 10.9258C18.2103 10.6578 18 10.2371 18 9.79032V7C18 3.68629 15.3137 1 12 1ZM8 7C8 4.79086 9.79086 3 12 3C14.2091 3 16 4.79086 16 7V9.79032C16 10.8666 16.5067 11.88 17.3677 12.5258L17.6973 12.773C18.5174 13.388 19 14.3533 19 15.3784C19 15.7217 18.7217 16 18.3784 16H5.62162C5.27831 16 5 15.7217 5 15.3784C5 14.3533 5.48263 13.388 6.3027 12.773L6.63226 12.5258C7.49327 11.88 8 10.8666 8 9.79032V7ZM9.87874 20.1213C9.48821 19.7307 8.85505 19.7307 8.46452 20.1213C8.074 20.5118 8.074 21.145 8.46452 21.5355C8.92882 21.9998 9.48001 22.3681 10.0866 22.6193C10.6933 22.8706 11.3434 22.9999 12.0001 22.9999C12.6567 22.9999 13.3068 22.8706 13.9135 22.6193C14.5201 22.3681 15.0713 21.9998 15.5356 21.5355C15.9261 21.145 15.9261 20.5118 15.5356 20.1213C15.1451 19.7307 14.5119 19.7307 14.1214 20.1213C13.8428 20.3998 13.5121 20.6208 13.1481 20.7716C12.7841 20.9223 12.394 20.9999 12.0001 20.9999C11.6061 20.9999 11.216 20.9223 10.852 20.7716C10.488 20.6208 10.1573 20.3998 9.87874 20.1213ZM12 7.5C12.5523 7.5 13 7.94772 13 8.5V10H14.5C15.0523 10 15.5 10.4477 15.5 11C15.5 11.5523 15.0523 12 14.5 12H13V13.5C13 14.0523 12.5523 14.5 12 14.5C11.4477 14.5 11 14.0523 11 13.5V12H9.5C8.94772 12 8.5 11.5523 8.5 11C8.5 10.4477 8.94772 10 9.5 10H11V8.5C11 7.94772 11.4477 7.5 12 7.5Z" fill="black"/>
</svg>
