<svg width="24" height="24" viewBox="0 0 24 24" fill="none" xmlns="http://www.w3.org/2000/svg">
<path fill-rule="evenodd" clip-rule="evenodd" d="M6 4C4.34315 4 3 5.34315 3 7V12.1707C1.83481 12.5825 1 13.6938 1 15V18V20C1 20.5523 1.44772 21 2 21C2.55228 21 3 20.5523 3 20V19H21V20C21 20.5523 21.4477 21 22 21C22.5523 21 23 20.5523 23 20V18V15C23 13.6938 22.1652 12.5825 21 12.1707V7C21 5.34315 19.6569 4 18 4H6ZM19 12V7C19 6.44772 18.5523 6 18 6H6C5.44772 6 5 6.44772 5 7V12H7V10C7 8.89543 7.89543 8 9 8H11C11.3643 8 11.7058 8.09739 12 8.26757C12.2942 8.09739 12.6357 8 13 8H15C16.1046 8 17 8.89543 17 10V12H19ZM15 14H13H11H9H4C3.44772 14 3 14.4477 3 15V17H21V15C21 14.4477 20.5523 14 20 14H15ZM11 12V10H9V12H11ZM15 12V10H13V12H15Z" fill="black"/>
</svg>
