<svg width="24" height="24" viewBox="0 0 24 24" fill="none" xmlns="http://www.w3.org/2000/svg">
<path fill-rule="evenodd" clip-rule="evenodd" d="M4 5C3.44772 5 3 5.44772 3 6V18C3 18.5523 3.44772 19 4 19H14.5C15.0523 19 15.5 19.4477 15.5 20C15.5 20.5523 15.0523 21 14.5 21H4C2.34315 21 1 19.6569 1 18V6C1 4.34315 2.34315 3 4 3H9.46482C10.1335 3 10.758 3.3342 11.1289 3.8906L12.5352 6H20C21.6569 6 23 7.34315 23 9V12C23 12.5523 22.5523 13 22 13C21.4477 13 21 12.5523 21 12V9C21 8.44772 20.5523 8 20 8H12.5352C11.8665 8 11.242 7.6658 10.8711 7.1094L9.46482 5H4ZM19.5 22C19.5 22.5523 19.0523 23 18.5 23C17.9477 23 17.5 22.5523 17.5 22C17.5 21.4477 17.9477 21 18.5 21C19.0523 21 19.5 21.4477 19.5 22ZM18.5 14C17.6079 14 16.923 14.2893 16.4592 14.5874C16.2293 14.7352 16.0536 14.885 15.9309 15.0034C15.8693 15.0628 15.8203 15.1149 15.7838 15.1559C15.7656 15.1765 15.7504 15.1943 15.7382 15.209L15.7222 15.2286L15.7159 15.2366L15.7131 15.24L15.7118 15.2417L15.7112 15.2424C15.7109 15.2428 15.7106 15.2432 16.5 15.8571L15.7106 15.2432C15.3716 15.6791 15.4501 16.3074 15.8861 16.6465C16.3172 16.9818 16.9363 16.9087 17.2779 16.4855L17.2787 16.4847C17.2838 16.4788 17.2974 16.464 17.3191 16.4431C17.3631 16.4007 17.4373 16.3362 17.5408 16.2697C17.7437 16.1393 18.0588 16 18.5 16C18.9446 16 19.1838 16.1379 19.3059 16.2556C19.4349 16.38 19.5 16.5447 19.5 16.7143C19.5 16.848 19.4708 16.8685 19.4691 16.8697L19.4691 16.8697C19.4377 16.907 19.3658 16.9666 19.1461 17.0864C19.1158 17.103 19.0788 17.1218 19.0365 17.1434C18.6497 17.3409 17.8185 17.7652 17.54 18.72C17.3854 19.2502 17.6898 19.8054 18.22 19.96C18.7502 20.1146 19.3054 19.8102 19.46 19.28C19.4844 19.1964 19.4952 19.1742 20.1039 18.8422C20.3425 18.712 20.7081 18.5037 20.9997 18.1571C21.3224 17.7734 21.5 17.2914 21.5 16.7143C21.5 16.0267 21.2318 15.3343 20.6941 14.8159C20.1495 14.2907 19.3888 14 18.5 14Z" fill="black"/>
</svg>
