<svg width="24" height="24" viewBox="0 0 24 24" fill="none" xmlns="http://www.w3.org/2000/svg">
<path fill-rule="evenodd" clip-rule="evenodd" d="M15.7797 1.80639C16.0831 1.49133 16.556 1.41 16.9472 1.60561L20.3944 3.32921C21.072 3.668 21.5 4.36052 21.5 5.11807V18.882C21.5 19.6395 21.072 20.3321 20.3944 20.6709L16.9472 22.3945C16.556 22.5901 16.0831 22.5087 15.7797 22.1937L7.35185 13.4417L4.22032 16.6937C3.83723 17.0915 3.20418 17.1034 2.80636 16.7204C2.40854 16.3373 2.39659 15.7042 2.77968 15.3064L5.96358 12L2.77968 8.69367C2.39659 8.29585 2.40854 7.6628 2.80636 7.27971C3.20418 6.89662 3.83723 6.90857 4.22032 7.30639L7.35185 10.5584L15.7797 1.80639ZM8.74012 12L15.5 19.0199V4.98016L8.74012 12ZM17.5 4.11807V19.882L19.5 18.882V5.11807L17.5 4.11807Z" fill="black"/>
</svg>
