<svg width="24" height="24" viewBox="0 0 24 24" fill="none" xmlns="http://www.w3.org/2000/svg">
<path fill-rule="evenodd" clip-rule="evenodd" d="M5 3C3.34315 3 2 4.34315 2 6V14.05C2 15.6792 3.32076 17 4.95 17H5C5.55228 17 6 16.5523 6 16C6 15.4477 5.55228 15 5 15H4.95C4.42533 15 4 14.5747 4 14.05V6C4 5.44772 4.44772 5 5 5H19C19.5523 5 20 5.44772 20 6V14C20 14.5523 19.5523 15 19 15C18.4477 15 18 15.4477 18 16C18 16.5523 18.4477 17 19 17C20.6569 17 22 15.6569 22 14V6C22 4.34315 20.6569 3 19 3H5ZM13.7483 13.0878C12.9863 11.7162 11.0137 11.7162 10.2517 13.0878L6.9512 19.0287C6.21061 20.3618 7.17455 22 8.69951 22H15.3005C16.8255 22 17.7894 20.3618 17.0488 19.0287L13.7483 13.0878ZM12 14.0591L15.3005 20H8.69951L12 14.0591Z" fill="black"/>
</svg>
