<svg width="24" height="24" viewBox="0 0 24 24" fill="none" xmlns="http://www.w3.org/2000/svg">
<path fill-rule="evenodd" clip-rule="evenodd" d="M1.51373 7.1657C1.50461 7.27593 1.49996 7.38742 1.49996 7.5V16.5C1.49996 18.7091 3.29082 20.5 5.49996 20.5H18.5C20.7091 20.5 22.5 18.7091 22.5 16.5V7.5C22.5 7.38742 22.4953 7.27593 22.4862 7.1657C22.5214 6.95717 22.491 6.73585 22.3849 6.53425C22.3835 6.53156 22.382 6.52887 22.3806 6.52619C21.9457 4.78769 20.3732 3.5 18.5 3.5H5.49996C3.6267 3.5 2.0542 4.78769 1.61933 6.52619C1.61789 6.52887 1.61646 6.53156 1.61504 6.53425C1.50894 6.73585 1.47853 6.95717 1.51373 7.1657ZM3.49996 8.65636V16.5C3.49996 17.6046 4.39539 18.5 5.49996 18.5H18.5C19.6045 18.5 20.5 17.6046 20.5 16.5V8.65636L12.9315 12.6398C12.3484 12.9467 11.6515 12.9467 11.0685 12.6398L3.49996 8.65636ZM20.2486 6.52856C19.907 5.91504 19.252 5.5 18.5 5.5H5.49996C4.74795 5.5 4.09287 5.91504 3.75131 6.52856L12 10.87L20.2486 6.52856Z" fill="black"/>
</svg>
