<svg width="24" height="24" viewBox="0 0 24 24" fill="none" xmlns="http://www.w3.org/2000/svg">
<path fill-rule="evenodd" clip-rule="evenodd" d="M5.5 2.5C3.84315 2.5 2.5 3.84315 2.5 5.5V18.5C2.5 20.1569 3.84315 21.5 5.5 21.5H18.5C20.1569 21.5 21.5 20.1569 21.5 18.5V5.5C21.5 3.84315 20.1569 2.5 18.5 2.5H5.5ZM4.5 5.5C4.5 4.94772 4.94772 4.5 5.5 4.5H18.5C19.0523 4.5 19.5 4.94772 19.5 5.5V18.5C19.5 19.0523 19.0523 19.5 18.5 19.5H5.5C4.94772 19.5 4.5 19.0523 4.5 18.5V5.5ZM9 8C8.44772 8 8 8.44772 8 9V15C8 15.5523 8.44772 16 9 16H15C15.5523 16 16 15.5523 16 15V9C16 8.44772 15.5523 8 15 8H9ZM10 14V10H14V14H10Z" fill="black"/>
</svg>
