<svg width="24" height="24" viewBox="0 0 24 24" fill="none" xmlns="http://www.w3.org/2000/svg">
<path fill-rule="evenodd" clip-rule="evenodd" d="M9 2C8.55352 2 8.16113 2.29598 8.03848 2.72528L8.03666 2.73166L8.032 2.74811L8.01451 2.81033C7.99934 2.86456 7.97731 2.94391 7.94941 3.04605C7.89361 3.25032 7.81426 3.5459 7.71922 3.91418C7.52925 4.65033 7.276 5.67913 7.02259 6.85117C6.98673 7.017 6.95078 7.18609 6.91494 7.35799C6.67733 6.45521 6.44361 5.68331 6.26492 5.12491C6.16883 4.82461 6.08845 4.58545 6.03168 4.4202C6.00329 4.33756 5.98078 4.27335 5.96514 4.22917L5.94695 4.17811L5.94195 4.16421L5.93979 4.15826C5.79609 3.76307 5.42051 3.5 5 3.5C4.57949 3.5 4.20391 3.76307 4.06021 4.15826L4.05805 4.16421L4.05305 4.17811L4.03486 4.22917C4.01922 4.27335 3.99671 4.33756 3.96832 4.4202C3.91155 4.58545 3.83117 4.82461 3.73508 5.12491C3.54303 5.72506 3.28741 6.57182 3.03172 7.56262C2.52427 9.529 2 12.1246 2 14.5V17V21C2 21.5523 2.44772 22 3 22H7.4762C7.49195 22.0004 7.50766 22.0004 7.52334 22H16.4767C16.4924 22.0004 16.5081 22.0004 16.5238 22H21C21.5523 22 22 21.5523 22 21V17.9991V17V14.5C22 12.1246 21.4757 9.529 20.9683 7.56262C20.7126 6.57182 20.457 5.72506 20.2649 5.12491C20.1688 4.82461 20.0885 4.58545 20.0317 4.4202C20.0033 4.33756 19.9808 4.27335 19.9651 4.22917L19.947 4.17811L19.9419 4.16421L19.9398 4.15826C19.7961 3.76307 19.4205 3.5 19 3.5C18.5795 3.5 18.2039 3.76307 18.0602 4.15826L18.0581 4.16421L18.053 4.17811L18.0349 4.22917C18.0192 4.27335 17.9967 4.33756 17.9683 4.4202C17.9115 4.58545 17.8312 4.82461 17.7351 5.12491C17.5564 5.68329 17.3227 6.45514 17.0851 7.35787C17.0493 7.18602 17.0133 7.01696 16.9775 6.85117C16.7241 5.67913 16.4708 4.65033 16.2808 3.91418C16.1858 3.5459 16.1064 3.25032 16.0506 3.04605C16.0227 2.94391 16.0007 2.86456 15.9855 2.81033L15.9681 2.74811L15.9634 2.73166L15.9616 2.72528C15.8389 2.29598 15.4465 2 15.0001 2C14.5536 2 14.1612 2.29598 14.0385 2.72528L14.0335 2.74281L14.0202 2.7902C14.0086 2.8315 13.9918 2.89196 13.9703 2.97006C13.9273 3.12624 13.8659 3.35308 13.791 3.63838C13.6414 4.20875 13.438 5.01405 13.2219 5.95659C12.8854 7.42476 12.5139 9.24512 12.27 11.0371C12.0935 10.9876 11.9066 10.9876 11.7301 11.0371C11.4858 9.24224 11.1134 7.41886 10.7765 5.94935C10.5608 5.00872 10.3577 4.20524 10.2084 3.63619C10.1338 3.35155 10.0724 3.12526 10.0296 2.96946C10.0082 2.89155 9.99137 2.83124 9.97981 2.79004L9.96649 2.74276L9.96152 2.72528C9.83887 2.29598 9.44648 2 9 2ZM9.84218 12.0548C9.65502 10.4147 9.3275 8.67343 9 7.16977L8.97741 7.27383C8.58667 9.08103 8.20696 11.1877 8.06184 13.0439L9.84218 12.0548ZM5.99674 14.1912C5.95414 12.145 5.50055 9.87909 5.03172 8.06238L5 7.94022L4.96828 8.06238C4.47573 9.971 4 12.3754 4 14.5V15.3005L5.99674 14.1912ZM14.1579 12.0549L15.9382 13.0439C15.7931 11.1877 15.4134 9.08104 15.0226 7.27383L15.0001 7.16977C14.6725 8.67351 14.345 10.4148 14.1579 12.0549ZM18.0033 14.1912L20 15.3005V14.5C20 12.3754 19.5243 9.971 19.0317 8.06238L19 7.94022L18.9683 8.06238C18.4994 9.87909 18.0459 12.145 18.0033 14.1912ZM20 17.5884L15.1941 14.9185L17.1825 20H20V18V17.5884ZM4 17.5884L8.80594 14.9184L6.8175 20H4V17.5884ZM15.0349 20H8.96517L11.0688 14.6241C11.4004 13.7766 12.5996 13.7766 12.9313 14.6241L15.0349 20Z" fill="black"/>
</svg>
