<svg width="24" height="24" viewBox="0 0 24 24" fill="none" xmlns="http://www.w3.org/2000/svg">
<g clip-path="url(#clip0_895_52985)">
<path fill-rule="evenodd" clip-rule="evenodd" d="M8.2733 2.87597C8.33585 2.37554 8.76126 2 9.26558 2H14.7344C15.2388 2 15.6642 2.37554 15.7267 2.87597L15.8672 4H8.1328L8.2733 2.87597ZM6.10466 4.10059L6.28874 2.6279C6.47641 1.12661 7.75261 0 9.26558 0H14.7344C16.2474 0 17.5236 1.12661 17.7113 2.6279L17.8954 4.10059C19.6734 4.50719 21 6.09868 21 8V9.5H21.5C22.0523 9.5 22.5 9.94772 22.5 10.5V13.5C22.5 14.0523 22.0523 14.5 21.5 14.5H21V16C21 17.9013 19.6734 19.4928 17.8954 19.8994L17.7113 21.3721C17.5236 22.8734 16.2474 24 14.7344 24H9.26558C7.75261 24 6.47641 22.8734 6.28874 21.3721L6.10466 19.8994C4.32658 19.4928 3 17.9013 3 16V8C3 6.09867 4.32658 4.50717 6.10466 4.10059ZM8.13279 20H15.8672L15.7267 21.1241C15.6642 21.6245 15.2388 22 14.7344 22H9.26558C8.76126 22 8.33585 21.6245 8.2733 21.1241L8.13279 20ZM7 6C5.89543 6 5 6.89543 5 8V16C5 17.1046 5.89543 18 7 18H17C18.1046 18 19 17.1046 19 16V8C19 6.89543 18.1046 6 17 6H7ZM12 7.5C12.5523 7.5 13 7.94772 13 8.5V11.323L14.8714 12.0715C15.3842 12.2766 15.6336 12.8586 15.4285 13.3714C15.2234 13.8842 14.6414 14.1336 14.1286 13.9285L11.6286 12.9285C11.249 12.7766 11 12.4089 11 12V8.5C11 7.94772 11.4477 7.5 12 7.5Z" fill="black"/>
</g>
<defs>
<clipPath id="clip0_895_52985">
<rect width="24" height="24" fill="white"/>
</clipPath>
</defs>
</svg>
