<svg width="24" height="24" viewBox="0 0 24 24" fill="none" xmlns="http://www.w3.org/2000/svg">
<path fill-rule="evenodd" clip-rule="evenodd" d="M16.9315 3.68211C17.0823 3.13926 17.6382 2.81545 18.1848 2.9521C18.76 3.09589 19.0985 3.69097 18.9281 4.25884L16.8327 11.2438C16.7244 11.2106 16.6143 11.1808 16.5025 11.1547L14.9561 10.7928C14.9601 10.7797 14.9638 10.7665 14.9673 10.7532L16.9315 3.68211ZM12.9102 10.314L11.0774 3.716C10.9214 3.15429 10.3462 2.81924 9.78059 2.96063C9.19943 3.10592 8.84906 3.69812 9.00152 4.27743L10.6598 10.5791C11.2985 10.2388 12.0614 10.1154 12.8375 10.297L12.9102 10.314ZM8.17264 8.98646L7.06737 4.78642C6.63135 3.12956 7.6334 1.43587 9.29552 1.02034C10.9131 0.615959 12.5582 1.57422 13.0045 3.18071L13.9998 6.76385L15.0045 3.14682C15.4455 1.55919 17.0713 0.612174 18.6699 1.01181C20.352 1.43235 21.342 3.17274 20.8438 4.83354L18.6243 12.2319C19.9336 13.3599 20.6171 15.1338 20.2776 16.9446L19.8735 19.0994C19.5817 20.6557 18.8265 22.0875 17.7068 23.2072C17.3163 23.5977 16.6831 23.5977 16.2926 23.2072C15.9021 22.8167 15.9021 22.1835 16.2926 21.793C17.1273 20.9583 17.6903 19.891 17.9078 18.7308L18.3118 16.576C18.6076 14.9986 17.6095 13.4677 16.0468 13.1021L12.3818 12.2444C11.6756 12.0792 10.9997 12.6151 10.9997 13.3404C10.9997 13.3713 11.001 13.402 11.0035 13.4323C11.0178 13.6104 11.0737 13.7767 11.1614 13.9217C11.3113 14.1701 11.5556 14.3583 11.8523 14.4324L13.5434 14.8552L14.4501 16.8929L14.4525 16.8917L14.4535 16.8912C14.449 16.8937 14.438 16.8997 14.4215 16.9095C14.3884 16.929 14.334 16.9627 14.2652 17.0114C14.1267 17.1095 13.937 17.2634 13.7471 17.4769C13.3749 17.8956 12.9997 18.5429 12.9997 19.5001C12.9997 20.0524 12.552 20.5001 11.9997 20.5001C11.4474 20.5001 10.9997 20.0524 10.9997 19.5001C10.9997 18.2049 11.44 17.2198 11.9528 16.5191L11.3673 16.3727C11.2111 16.3337 11.0602 16.2833 10.9153 16.2225C10.5593 16.7159 10.0409 17.0988 9.40685 17.28C8.73606 17.4716 8.04938 17.4031 7.45809 17.1314C7.11 17.776 6.5125 18.2855 5.75151 18.5029L5.71407 18.5134L5.79006 19.1593C5.89515 20.0526 6.29824 20.8844 6.93424 21.5204L7.20683 21.793C7.59735 22.1835 7.59735 22.8167 7.20683 23.2072C6.81631 23.5977 6.18314 23.5977 5.79262 23.2072L5.52002 22.9346C4.56603 21.9806 3.9614 20.7329 3.80376 19.393L3.6743 18.2926C3.02242 17.953 2.50349 17.3605 2.27589 16.6019L1.82185 15.0884C1.37017 13.5828 2.23672 11.9986 3.74812 11.5667C4.10468 11.4649 4.46501 11.4364 4.81285 11.4725C4.9226 10.3612 5.69238 9.36834 6.84263 9.0397C7.28989 8.91191 7.74423 8.8998 8.17264 8.98646ZM9.39562 14.8632C9.30731 15.0942 9.11539 15.2832 8.85741 15.3569C8.44459 15.4749 8.011 15.2527 7.86558 14.8488L6.84853 12.0236C6.68859 11.5793 6.93804 11.0925 7.39207 10.9627C7.80488 10.8448 8.23847 11.0669 8.3839 11.4709L9.00318 13.1911C9.00089 13.2406 8.99972 13.2903 8.99972 13.3404C8.99972 13.8882 9.1421 14.4091 9.39562 14.8632ZM13.5472 14.8562L13.5434 14.8552L13.1103 13.8818L13.1115 13.8797L13.5472 14.8562ZM13.5472 14.8562L14.2423 15.0299C14.6482 15.1314 14.9481 15.475 14.9938 15.8909C15.0391 16.3039 14.8243 16.7016 14.455 16.8904L13.5472 14.8562ZM5.30809 14.0425C5.17919 13.6128 4.7289 13.3666 4.29756 13.4898C3.85812 13.6153 3.60618 14.076 3.7375 14.5137L4.19154 16.0272C4.32044 16.4568 4.77073 16.7031 5.20207 16.5799C5.64151 16.4543 5.89345 15.9937 5.76213 15.556L5.30809 14.0425Z" fill="black"/>
</svg>
