<svg width="24" height="24" viewBox="0 0 24 24" fill="none" xmlns="http://www.w3.org/2000/svg">
<path fill-rule="evenodd" clip-rule="evenodd" d="M2.5 5.5C2.5 3.84315 3.84315 2.5 5.5 2.5H12H18.5C20.1569 2.5 21.5 3.84315 21.5 5.5V5.99902V6.00098V12V18.5C21.5 20.1569 20.1569 21.5 18.5 21.5H12H6.00098H5.99902H5.5C3.84315 21.5 2.5 20.1569 2.5 18.5V12V5.5ZM11 19.5H8.41421L11 16.9142V19.5ZM13 14.5007V14.4993V13H14.4993H14.5007H19.5V18.5C19.5 19.0523 19.0523 19.5 18.5 19.5H13V14.5007ZM5.58579 19.5L11 14.0858V13H9.91421L4.5 18.4142V18.5C4.5 19.0523 4.94772 19.5 5.5 19.5H5.58579ZM4.5 15.5858V13H7.08579L4.5 15.5858ZM9.49931 11H4.5V5.5C4.5 4.94772 4.94772 4.5 5.5 4.5H11V9.49931V9.50069V11H9.50069C9.50023 11 9.49977 11 9.49931 11ZM19.5 5.5V5.58579L14.0858 11H13V9.91421L18.4142 4.5H18.5C19.0523 4.5 19.5 4.94772 19.5 5.5ZM15.5858 4.5L13 7.08579V4.5H15.5858ZM19.5 8.41421L16.9142 11H19.5V8.41421Z" fill="black"/>
</svg>
