<svg width="24" height="24" viewBox="0 0 24 24" fill="none" xmlns="http://www.w3.org/2000/svg">
<path fill-rule="evenodd" clip-rule="evenodd" d="M19.7929 5.20706C17.6982 3.1123 14.3019 3.1123 12.2071 5.20705L3.70713 13.7071C2.4408 14.9734 2.4408 17.0265 3.70713 18.2928C4.97346 19.5592 7.02659 19.5592 8.29292 18.2928L16.7929 9.79284C17.2308 9.35494 17.2308 8.64496 16.7929 8.20706C16.355 7.76915 15.645 7.76915 15.2071 8.20705L8.70713 14.7071C8.31661 15.0976 7.68344 15.0976 7.29292 14.7071C6.9024 14.3165 6.9024 13.6834 7.29292 13.2928L13.7929 6.79284C15.0119 5.57389 16.9882 5.57389 18.2071 6.79284C19.4261 8.01179 19.4261 9.9881 18.2071 11.2071L9.70713 19.7071C7.65976 21.7544 4.3403 21.7544 2.29292 19.7071C0.245541 17.6597 0.24554 14.3402 2.29292 12.2928L10.7929 3.79284C13.6687 0.917032 18.3313 0.917037 21.2071 3.79284C24.0829 6.66865 24.0829 11.3313 21.2071 14.2071L14.7071 20.7071C14.3166 21.0976 13.6834 21.0976 13.2929 20.7071C12.9024 20.3165 12.9024 19.6834 13.2929 19.2928L19.7929 12.7928C21.8877 10.6981 21.8877 7.30181 19.7929 5.20706Z" fill="black"/>
</svg>
