<svg width="24" height="24" viewBox="0 0 24 24" fill="none" xmlns="http://www.w3.org/2000/svg">
<path fill-rule="evenodd" clip-rule="evenodd" d="M10.8 4.39997C12.1185 3.41111 14 4.35188 14 5.99997V18C14 19.6481 12.1185 20.5888 10.8 19.6L6.71175 16.5338L5.39802 16.6652C3.04327 16.9006 1 15.0515 1 12.685V11.3149C1 8.94844 3.04327 7.09931 5.39801 7.33478L6.71175 7.46616L10.8 4.39997ZM12 5.99997L7.6 9.29997C7.39951 9.45034 7.14987 9.51994 6.9005 9.49501L5.19901 9.32486C4.02164 9.20712 3 10.1317 3 11.3149V12.685C3 13.8683 4.02164 14.7928 5.19901 14.6751L6.9005 14.5049C7.14987 14.48 7.39951 14.5496 7.6 14.7L12 18V5.99997ZM22.0424 8.46588C22.6759 9.549 23.0066 10.7825 22.9999 12.0372C22.9932 13.292 22.6494 14.5219 22.0044 15.5982C21.3594 16.6745 20.4369 17.5577 19.3336 18.1552C18.8479 18.4182 18.241 18.2378 17.978 17.7521C17.715 17.2665 17.8955 16.6596 18.3811 16.3966C19.1692 15.9698 19.8281 15.3389 20.2888 14.5701C20.7496 13.8013 20.9952 12.9228 20.9999 12.0266C21.0047 11.1303 20.7685 10.2493 20.316 9.47562C19.8635 8.70196 19.2113 8.06416 18.4278 7.62896C17.945 7.36079 17.771 6.752 18.0392 6.26919C18.3074 5.78639 18.9162 5.61239 19.399 5.88056C20.4959 6.48984 21.4089 7.38276 22.0424 8.46588ZM19 12.0159C19.0028 11.4782 18.8611 10.9495 18.5896 10.4853C18.3181 10.0211 17.9268 9.63844 17.4567 9.37732C16.9739 9.10915 16.3651 9.28315 16.0969 9.76596C15.8288 10.2488 16.0028 10.8576 16.4856 11.1257C16.6423 11.2128 16.7727 11.3403 16.8632 11.4951C16.9537 11.6498 17.0009 11.826 17 12.0053C16.999 12.1845 16.9499 12.3602 16.8578 12.514C16.7656 12.6677 16.6338 12.7939 16.4762 12.8792C15.9906 13.1423 15.8101 13.7492 16.0731 14.2348C16.3361 14.7204 16.943 14.9009 17.4287 14.6379C17.9015 14.3818 18.2969 14.0033 18.5733 13.542C18.8497 13.0808 18.9971 12.5537 19 12.0159Z" fill="black"/>
</svg>
