<svg width="24" height="24" viewBox="0 0 24 24" fill="none" xmlns="http://www.w3.org/2000/svg">
<path fill-rule="evenodd" clip-rule="evenodd" d="M10 4.5C10.5523 4.5 11 4.94772 11 5.5V6.5V6.53132C10.3895 7.09893 10 7.90996 10 8.82922C10 8.88645 10.0015 8.94339 10.0046 8.99999L10 9C9.44772 9 9 8.55228 9 8V7.5V5.5C9 4.94772 9.44772 4.5 10 4.5ZM13.8229 5.76452C13.5449 5.70257 13.269 5.67937 13 5.69091V5.5V4.5C13 3.94772 13.4477 3.5 14 3.5C14.5523 3.5 15 3.94772 15 4.5V5.5V6.02685L13.8229 5.76452ZM10 2.5C10.5347 2.5 11.0366 2.63986 11.4714 2.88499C12.0044 2.0521 12.9377 1.5 14 1.5C15.0623 1.5 15.9956 2.0521 16.5286 2.88499C16.9634 2.63986 17.4653 2.5 18 2.5C19.6569 2.5 21 3.84315 21 5.5V8.63693C21.7589 9.67587 22.1171 11.0037 21.9018 12.3668L21.4968 14.9319C21.1277 17.2697 19.7171 19.3134 17.6622 20.4877L17.5 20.5803V22C17.5 22.5523 17.0523 23 16.5 23C15.9477 23 15.5 22.5523 15.5 22V20C15.5 19.6412 15.6923 19.3098 16.0039 19.1318L16.6699 18.7512C18.1979 17.878 19.2468 16.3583 19.5213 14.62L19.9263 12.0549C20.0609 11.2025 19.8218 10.3732 19.3263 9.73904C19.2639 9.68213 19.2088 9.61743 19.1624 9.54647C18.762 9.1143 18.2311 8.79602 17.6156 8.65885L13.3879 7.71663C13.2899 7.69479 13.1925 7.68621 13.0976 7.68957C12.5293 7.5748 11.9639 7.92323 11.8162 8.4912C11.6642 9.07577 12.012 9.67282 12.5938 9.82994C12.6774 9.87552 12.7677 9.91115 12.8634 9.93508L15.2425 10.5299C15.6485 10.6314 15.9484 10.9749 15.994 11.3909C16.0394 11.8039 15.8246 12.2015 15.4552 12.3904L15.4552 12.3904L15.4538 12.3911C15.4492 12.3936 15.4382 12.3997 15.4218 12.4094C15.3887 12.4289 15.3343 12.4627 15.2655 12.5113C15.127 12.6095 14.9372 12.7633 14.7474 12.9769C14.3752 13.3956 14 14.0428 14 15C14 15.5523 13.5523 16 13 16C12.4477 16 12 15.5523 12 15C12 13.7048 12.4403 12.7198 12.9531 12.0191L12.3784 11.8754C11.74 11.7158 11.1887 11.3671 10.778 10.8981C10.5299 10.9646 10.2691 11 10 11C9.54999 11 9.12313 10.9009 8.74003 10.7234C8.27184 11.7704 7.22112 12.5 6 12.5C5.64936 12.5 5.31278 12.4398 5 12.3293V14.0538C5 16.1352 6.11526 18.057 7.9224 19.0896L7.99614 19.1318C8.30771 19.3098 8.5 19.6411 8.5 20V22C8.5 22.5523 8.05228 23 7.5 23C6.94772 23 6.5 22.5523 6.5 22V20.5616C4.3241 19.1243 3 16.6838 3 14.0538V9.50001V9.5V7.5C3 5.84315 4.34315 4.5 6 4.5C6.39025 4.5 6.76309 4.57451 7.10508 4.71009C7.45179 3.43647 8.61653 2.5 10 2.5ZM17 6.47258V5.5C17 4.94772 17.4477 4.5 18 4.5C18.5523 4.5 19 4.94772 19 5.5V7.01987C18.7001 6.8864 18.3828 6.78075 18.0507 6.70674L17 6.47258ZM6 6.5C6.55228 6.5 7 6.94772 7 7.5V8V9.5C7 10.0523 6.55228 10.5 6 10.5C5.44772 10.5 5 10.0523 5 9.5V7.5C5 6.94772 5.44772 6.5 6 6.5Z" fill="black"/>
</svg>
