<svg width="24" height="24" viewBox="0 0 24 24" fill="none" xmlns="http://www.w3.org/2000/svg">
<path fill-rule="evenodd" clip-rule="evenodd" d="M4 5C4 2.79086 5.79086 1 8 1H16C18.2091 1 20 2.79086 20 5V19C20 21.2091 18.2091 23 16 23H8C5.79086 23 4 21.2091 4 19V5ZM8 3C6.89543 3 6 3.89543 6 5V19C6 20.1046 6.89543 21 8 21H16C17.1046 21 18 20.1046 18 19V5C18 3.89543 17.1046 3 16 3H8ZM9 5.5C9 4.94772 9.44772 4.5 10 4.5L14 4.5C14.5523 4.5 15 4.94772 15 5.5C15 6.05229 14.5523 6.5 14 6.5L10 6.5C9.44772 6.5 9 6.05228 9 5.5ZM13.5 17.5C13.5 18.3284 12.8284 19 12 19C11.1716 19 10.5 18.3284 10.5 17.5C10.5 16.6716 11.1716 16 12 16C12.8284 16 13.5 16.6716 13.5 17.5Z" fill="black"/>
</svg>
