<svg width="24" height="24" viewBox="0 0 24 24" fill="none" xmlns="http://www.w3.org/2000/svg">
<path fill-rule="evenodd" clip-rule="evenodd" d="M12 1C12.5523 1 13 1.44772 13 2V3V4C13 4.55228 12.5523 5 12 5C11.4477 5 11 4.55228 11 4V3V2C11 1.44772 11.4477 1 12 1ZM12 19C12.5523 19 13 19.4477 13 20V21V22C13 22.5523 12.5523 23 12 23C11.4477 23 11 22.5523 11 22V21V20C11 19.4477 11.4477 19 12 19ZM13 14C13 13.4477 12.5523 13 12 13C11.4477 13 11 13.4477 11 14V16C11 16.5523 11.4477 17 12 17C12.5523 17 13 16.5523 13 16V14ZM12 7C12.5523 7 13 7.44772 13 8V10C13 10.5523 12.5523 11 12 11C11.4477 11 11 10.5523 11 10V8C11 7.44772 11.4477 7 12 7ZM4.70711 15.7071C4.31658 16.0976 3.68342 16.0976 3.29289 15.7071C2.90237 15.3166 2.90237 14.6834 3.29289 14.2929L5.58579 12L3.29289 9.70711C2.90237 9.31658 2.90237 8.68342 3.29289 8.29289C3.68342 7.90237 4.31658 7.90237 4.70711 8.29289L7.70711 11.2929C8.09763 11.6834 8.09763 12.3166 7.70711 12.7071L4.70711 15.7071ZM20.7071 15.7071C20.3166 16.0976 19.6834 16.0976 19.2929 15.7071L16.2929 12.7071C15.9024 12.3166 15.9024 11.6834 16.2929 11.2929L19.2929 8.29289C19.6834 7.90237 20.3166 7.90237 20.7071 8.29289C21.0976 8.68342 21.0976 9.31658 20.7071 9.70711L18.4142 12L20.7071 14.2929C21.0976 14.6834 21.0976 15.3166 20.7071 15.7071Z" fill="black"/>
</svg>
