<svg width="24" height="24" viewBox="0 0 24 24" fill="none" xmlns="http://www.w3.org/2000/svg">
<path fill-rule="evenodd" clip-rule="evenodd" d="M19 13.5C19 11.2496 18.0813 8.56418 16.6675 6.44011C15.218 4.26223 13.4791 3 12 3C10.5209 3 8.78202 4.26223 7.33247 6.44011C5.91873 8.56418 5 11.2496 5 13.5C5 17.9612 8.09422 21 12 21C15.9058 21 19 17.9612 19 13.5ZM12 1C14.5209 1 16.782 3.00249 18.3325 5.33197C19.9187 7.71525 21 10.7798 21 13.5C21 18.98 17.0942 23 12 23C6.90578 23 3 18.98 3 13.5C3 10.7798 4.08127 7.71525 5.66753 5.33197C7.21798 3.00249 9.47911 1 12 1ZM12.3393 8.25087C11.9246 7.8861 11.8841 7.25423 12.2489 6.83954C12.6137 6.42486 13.2455 6.38439 13.6602 6.74916C14.285 7.29877 14.755 7.81949 15.1322 8.41C15.5072 8.99707 15.7651 9.61362 16.0044 10.3195C16.1817 10.8425 15.9015 11.4103 15.3784 11.5876C14.8554 11.7649 14.2876 11.4847 14.1103 10.9617C13.8968 10.332 13.7002 9.88343 13.4467 9.48666C13.1955 9.09333 12.863 8.71152 12.3393 8.25087Z" fill="black"/>
</svg>
