<svg width="24" height="24" viewBox="0 0 24 24" fill="none" xmlns="http://www.w3.org/2000/svg">
<g clip-path="url(#clip0_895_53036)">
<path fill-rule="evenodd" clip-rule="evenodd" d="M23.7071 1.70711C24.0976 1.31658 24.0976 0.683417 23.7071 0.292893C23.3166 -0.0976311 22.6834 -0.0976311 22.2929 0.292893L0.292893 22.2929C-0.0976311 22.6834 -0.0976311 23.3166 0.292893 23.7071C0.683417 24.0976 1.31658 24.0976 1.70711 23.7071L5.41756 19.9967C5.44475 19.9989 5.47224 20 5.5 20H13C15.2091 20 17 18.2091 17 16V14.2732L19.6486 16.7011C20.9314 17.877 23 16.967 23 15.2268V8.77324C23 7.03302 20.9314 6.12303 19.6486 7.29893L17 9.72676V8.5C17 8.47224 16.9989 8.44475 16.9967 8.41756L23.7071 1.70711ZM15 10.4142L7.41421 18H13C14.1046 18 15 17.1046 15 16V10.4142ZM3 8C3 6.89543 3.89543 6 5 6H13C13.5523 6 14 5.55228 14 5C14 4.44772 13.5523 4 13 4H5C2.79086 4 1 5.79086 1 8V16.5C1 17.0523 1.44772 17.5 2 17.5C2.55228 17.5 3 17.0523 3 16.5V8ZM21 8.77324L17.4799 12L21 15.2268L21 8.77324Z" fill="black"/>
</g>
<defs>
<clipPath id="clip0_895_53036">
<rect width="24" height="24" fill="white"/>
</clipPath>
</defs>
</svg>
