<svg width="24" height="24" viewBox="0 0 24 24" fill="none" xmlns="http://www.w3.org/2000/svg">
<path fill-rule="evenodd" clip-rule="evenodd" d="M8.60608 2.08086C8.91669 1.94774 9.27352 1.9805 9.5547 2.16795L15.104 5.86747L21.6061 3.08086C21.915 2.94845 22.2699 2.98012 22.5505 3.16516C22.8311 3.35021 23 3.66386 23 4V18C23 18.4 22.7616 18.7616 22.3939 18.9191L15.3939 21.9191C15.0833 22.0523 14.7265 22.0195 14.4453 21.8321L8.89602 18.1325L2.39392 20.9191C2.08495 21.0516 1.73014 21.0199 1.44951 20.8348C1.16888 20.6498 1 20.3361 1 20V6C1 5.59998 1.2384 5.23844 1.60608 5.08086L8.60608 2.08086ZM10 16.4648L14 19.1315V7.53519L10 4.86852V16.4648ZM8 4.51654V16.3406L3 18.4835V6.6594L8 4.51654ZM16 7.6594V19.4835L21 17.3406V5.51654L16 7.6594Z" fill="black"/>
</svg>
