<svg width="24" height="24" viewBox="0 0 24 24" fill="none" xmlns="http://www.w3.org/2000/svg">
<path fill-rule="evenodd" clip-rule="evenodd" d="M1 5.5C1 3.84315 2.34315 2.5 4 2.5H20C21.6569 2.5 23 3.84315 23 5.5V13.5C23 15.1569 21.6569 16.5 20 16.5H4C2.34315 16.5 1 15.1569 1 13.5V5.5ZM4 4.5C3.44772 4.5 3 4.94772 3 5.5V13.5C3 14.0523 3.44772 14.5 4 14.5H20C20.5523 14.5 21 14.0523 21 13.5V5.5C21 4.94772 20.5523 4.5 20 4.5H4ZM18 9C18.8284 9 19.5 8.32843 19.5 7.5C19.5 6.67157 18.8284 6 18 6C17.1716 6 16.5 6.67157 16.5 7.5C16.5 8.32843 17.1716 9 18 9ZM7.5 7.5C7.5 8.32843 6.82843 9 6 9C5.17157 9 4.5 8.32843 4.5 7.5C4.5 6.67157 5.17157 6 6 6C6.82843 6 7.5 6.67157 7.5 7.5ZM10 9C10.8284 9 11.5 8.32843 11.5 7.5C11.5 6.67157 10.8284 6 10 6C9.17157 6 8.5 6.67157 8.5 7.5C8.5 8.32843 9.17157 9 10 9ZM15.5 7.5C15.5 8.32843 14.8284 9 14 9C13.1716 9 12.5 8.32843 12.5 7.5C12.5 6.67157 13.1716 6 14 6C14.8284 6 15.5 6.67157 15.5 7.5ZM18 13C18.8284 13 19.5 12.3284 19.5 11.5C19.5 10.6716 18.8284 10 18 10C17.1716 10 16.5 10.6716 16.5 11.5C16.5 12.3284 17.1716 13 18 13ZM7.5 11.5C7.5 12.3284 6.82843 13 6 13C5.17157 13 4.5 12.3284 4.5 11.5C4.5 10.6716 5.17157 10 6 10C6.82843 10 7.5 10.6716 7.5 11.5ZM8.5 11.5C8.5 10.9477 8.94772 10.5 9.5 10.5H14.5C15.0523 10.5 15.5 10.9477 15.5 11.5C15.5 12.0523 15.0523 12.5 14.5 12.5H9.5C8.94772 12.5 8.5 12.0523 8.5 11.5ZM12 20.5858L10.2071 18.7929C9.81658 18.4024 9.18342 18.4024 8.79289 18.7929C8.40237 19.1834 8.40237 19.8166 8.79289 20.2071L10.5858 22C11.3668 22.781 12.6332 22.781 13.4142 22L15.2071 20.2071C15.5976 19.8166 15.5976 19.1834 15.2071 18.7929C14.8166 18.4024 14.1834 18.4024 13.7929 18.7929L12 20.5858Z" fill="black"/>
</svg>
