<svg width="24" height="24" viewBox="0 0 24 24" fill="none" xmlns="http://www.w3.org/2000/svg">
<path fill-rule="evenodd" clip-rule="evenodd" d="M16.9582 2.54761C15.6054 1.19474 13.4711 1.0994 12.0082 2.26174C10.5453 1.09983 8.41134 1.19518 7.05861 2.5479C5.70588 3.90064 5.61054 6.03457 6.77248 7.49749C5.6104 8.96041 5.70582 11.0945 7.0586 12.4472C8.12425 13.5129 9.67472 13.7983 11 13.3034L11 14.9989H8.19823C6.95042 14.9989 6.00728 16.129 6.2305 17.3567L6.71756 20.0355C6.97692 21.462 8.21932 22.4989 9.66917 22.4989H14.3309C15.7807 22.4989 17.0231 21.462 17.2825 20.0355L17.7695 17.3567C17.9928 16.129 17.0496 14.9989 15.8018 14.9989H13L13 13.2932C14.3295 13.7982 15.8899 13.5153 16.9607 12.4445C18.3135 11.0916 18.4088 8.95748 17.2466 7.49456C18.4063 6.03171 18.3101 3.89953 16.9582 2.54761ZM8.19823 16.9989H11.9477C11.9651 16.9998 11.9825 17.0002 12 17.0002C12.0176 17.0002 12.035 16.9998 12.0523 16.9989H15.8018L15.3147 19.6778C15.2283 20.1533 14.8142 20.4989 14.3309 20.4989H9.66917C9.18589 20.4989 8.77176 20.1533 8.6853 19.6778L8.19823 16.9989ZM13.1021 3.96176C13.7764 3.28748 14.8697 3.28747 15.544 3.96183C16.2184 4.63618 16.2184 5.72947 15.5441 6.40375C15.4487 6.49911 15.346 6.58027 15.2381 6.64785C14.9461 6.8308 14.7688 7.1512 14.769 7.4958C14.7691 7.8404 14.9467 8.16063 15.2389 8.34328C15.3474 8.41105 15.4506 8.49252 15.5464 8.58832C16.2208 9.26268 16.2208 10.356 15.5465 11.0302C14.8722 11.7045 13.7789 11.7045 13.1046 11.0302C13.0085 10.9341 12.9268 10.8305 12.8589 10.7217C12.6761 10.4288 12.3552 10.2509 12.0099 10.2511C11.6647 10.2514 11.3439 10.4297 11.1615 10.7228C11.0934 10.8323 11.0114 10.9365 10.9147 11.0331C10.2405 11.7074 9.14717 11.7074 8.47281 11.033C7.79845 10.3587 7.79847 9.26538 8.47275 8.5911C8.56871 8.49515 8.67216 8.41356 8.78079 8.34572C9.07334 8.16303 9.25109 7.84248 9.2511 7.49757C9.25111 7.15267 9.07339 6.8321 8.78086 6.64938C8.67225 6.58155 8.56883 6.49998 8.47289 6.40404C7.79853 5.72968 7.79855 4.6364 8.47283 3.96211C9.14711 3.28783 10.2404 3.28782 10.9148 3.96218C11.0107 4.05813 11.0923 4.16157 11.1601 4.2702C11.3429 4.56277 11.6635 4.74051 12.0084 4.74047C12.3533 4.74044 12.6739 4.56263 12.8566 4.27003C12.9244 4.16132 13.0061 4.05779 13.1021 3.96176ZM12 9.00022C12.8284 9.00022 13.5 8.32865 13.5 7.50022C13.5 6.67179 12.8284 6.00022 12 6.00022C11.1716 6.00022 10.5 6.67179 10.5 7.50022C10.5 8.32865 11.1716 9.00022 12 9.00022Z" fill="black"/>
</svg>
