<svg width="24" height="24" viewBox="0 0 24 24" fill="none" xmlns="http://www.w3.org/2000/svg">
<path fill-rule="evenodd" clip-rule="evenodd" d="M5.5 2.5C3.84315 2.5 2.5 3.84315 2.5 5.5V18.5C2.5 20.1569 3.84315 21.5 5.5 21.5H18.5C20.1569 21.5 21.5 20.1569 21.5 18.5V5.5C21.5 3.84315 20.1569 2.5 18.5 2.5H5.5ZM4.5 5.5C4.5 4.94772 4.94772 4.5 5.5 4.5H18.5C19.0523 4.5 19.5 4.94772 19.5 5.5V18.5C19.5 19.0523 19.0523 19.5 18.5 19.5H5.5C4.94772 19.5 4.5 19.0523 4.5 18.5V5.5ZM9 11C9 10.4477 8.55228 10 8 10C7.44772 10 7 10.4477 7 11V16C7 16.5523 7.44772 17 8 17C8.55228 17 9 16.5523 9 16V11ZM11.5 10C11.808 10 12.0834 10.1392 12.2669 10.3582C12.345 10.3181 12.4249 10.2811 12.5063 10.2474C12.9006 10.0841 13.3232 10 13.75 10C14.1768 10 14.5994 10.0841 14.9937 10.2474C15.388 10.4107 15.7463 10.6501 16.0481 10.9519C16.3499 11.2537 16.5893 11.612 16.7526 12.0063C16.9159 12.4006 17 12.8232 17 13.25C17 13.2923 16.9974 13.3341 16.9923 13.375C16.9974 13.4159 17 13.4577 17 13.5V16C17 16.5523 16.5523 17 16 17C15.4477 17 15 16.5523 15 16V13.5C15 13.4577 15.0026 13.4159 15.0077 13.375C15.0026 13.3341 15 13.2923 15 13.25C15 13.0858 14.9677 12.9233 14.9049 12.7716C14.842 12.62 14.75 12.4822 14.6339 12.3661C14.5178 12.25 14.38 12.158 14.2284 12.0951C14.0767 12.0323 13.9142 12 13.75 12C13.5858 12 13.4233 12.0323 13.2716 12.0951C13.12 12.158 12.9822 12.25 12.8661 12.3661C12.75 12.4822 12.658 12.62 12.5951 12.7716C12.5323 12.9233 12.5 13.0858 12.5 13.25V16C12.5 16.5523 12.0523 17 11.5 17C10.9477 17 10.5 16.5523 10.5 16V13.25V11C10.5 10.4477 10.9477 10 11.5 10ZM8 9.125C8.62132 9.125 9.125 8.62132 9.125 8C9.125 7.37868 8.62132 6.875 8 6.875C7.37868 6.875 6.875 7.37868 6.875 8C6.875 8.62132 7.37868 9.125 8 9.125Z" fill="black"/>
</svg>
