<svg width="24" height="24" viewBox="0 0 24 24" fill="none" xmlns="http://www.w3.org/2000/svg">
<path fill-rule="evenodd" clip-rule="evenodd" d="M4 5C4 3.34315 5.34315 2 7 2H10H14H17C18.6569 2 20 3.34315 20 5V14V16V19C20 20.6569 18.6569 22 17 22H7C5.34315 22 4 20.6569 4 19V16V14V5ZM14 4H10V6H14V4ZM8 4H7C6.44772 4 6 4.44772 6 5V10.5351C6.58835 10.1948 7.27143 10 8 10H16C16.7286 10 17.4117 10.1948 18 10.5351V5C18 4.44772 17.5523 4 17 4H16V6C16 7.10457 15.1046 8 14 8H10C8.89543 8 8 7.10457 8 6V4ZM6 16V14C6 12.8954 6.89543 12 8 12H16C17.1046 12 18 12.8954 18 14V16V19C18 19.5523 17.5523 20 17 20H7C6.44772 20 6 19.5523 6 19V16Z" fill="black"/>
</svg>
