<svg width="24" height="24" viewBox="0 0 24 24" fill="none" xmlns="http://www.w3.org/2000/svg">
<path fill-rule="evenodd" clip-rule="evenodd" d="M10.5 1.71131C11.4282 1.17541 12.5718 1.17541 13.5 1.71131L20.1602 5.55661C21.0884 6.09251 21.6602 7.08289 21.6602 8.15469V15.8453C21.6602 16.9171 21.0884 17.9075 20.1602 18.4434L13.5 22.2887C12.5718 22.8246 11.4282 22.8246 10.5 22.2887L3.83972 18.4434C2.91152 17.9075 2.33972 16.9171 2.33972 15.8453V8.15469C2.33972 7.08289 2.91152 6.09251 3.83972 5.55661L10.5 1.71131ZM12.5 3.44336C12.1906 3.26473 11.8094 3.26473 11.5 3.44336L4.83972 7.28866C4.53032 7.46729 4.33972 7.79742 4.33972 8.15469V15.8453C4.33972 16.2026 4.53032 16.5327 4.83972 16.7113L11.5 20.5566C11.8094 20.7352 12.1906 20.7352 12.5 20.5566L19.1602 16.7113C19.4696 16.5327 19.6602 16.2026 19.6602 15.8453V8.15469C19.6602 7.79742 19.4696 7.46729 19.1602 7.28866L12.5 3.44336Z" fill="black"/>
</svg>
