<svg width="24" height="24" viewBox="0 0 24 24" fill="none" xmlns="http://www.w3.org/2000/svg">
<path fill-rule="evenodd" clip-rule="evenodd" d="M9.74254 1.02985C10.2783 1.1638 10.6041 1.70673 10.4701 2.24253C10.2075 3.29324 9.79282 3.84064 9.50591 4.21942C9.45884 4.28157 9.4152 4.33918 9.37623 4.39373C9.25967 4.55692 9.18128 4.69247 9.12127 4.89094C9.05669 5.10458 9 5.43804 9 5.99999C9 6.55228 8.55228 6.99999 8 6.99999C7.44772 6.99999 7 6.55228 7 5.99999C7 5.31194 7.06831 4.77041 7.20685 4.31217C7.34997 3.83877 7.55283 3.50557 7.74877 3.23125C7.80939 3.14638 7.86668 3.06995 7.92098 2.9975C8.1789 2.6534 8.36942 2.39922 8.52986 1.75746C8.66381 1.22166 9.20674 0.895901 9.74254 1.02985ZM14.4701 2.24253C14.6041 1.70673 14.2783 1.1638 13.7425 1.02985C13.2067 0.895901 12.6638 1.22166 12.5299 1.75746C12.3694 2.39922 12.1789 2.6534 11.921 2.9975L11.921 2.99753C11.8667 3.06996 11.8094 3.14639 11.7488 3.23125C11.5528 3.50557 11.35 3.83877 11.2069 4.31217C11.0683 4.77041 11 5.31194 11 5.99999C11 6.55228 11.4477 6.99999 12 6.99999C12.5523 6.99999 13 6.55228 13 5.99999C13 5.43804 13.0567 5.10458 13.1213 4.89094C13.1813 4.69247 13.2597 4.55692 13.3762 4.39373C13.4151 4.33926 13.4587 4.28174 13.5057 4.21969L13.5058 4.21962L13.5059 4.21943L13.5059 4.21942C13.7928 3.84064 14.2075 3.29324 14.4701 2.24253ZM13 11L4 11V14C4 17.3137 6.68629 20 10 20C13.3137 20 16 17.3137 16 14V11L13 11ZM18 11V14C18 14.1679 17.9948 14.3346 17.9846 14.5H18.75C19.7165 14.5 20.5 13.7165 20.5 12.75C20.5 11.7835 19.7165 11 18.75 11L18 11ZM17.6016 16.5C16.5518 19.6939 13.5452 22 10 22C5.58172 22 2 18.4183 2 14V11C2 9.89543 2.89543 9 4 9H12.9986C12.9991 9 12.9995 9 13 9L16 9L18.75 9C20.8211 9 22.5 10.6789 22.5 12.75C22.5 14.8211 20.8211 16.5 18.75 16.5H17.6016Z" fill="black"/>
</svg>
