<svg width="24" height="24" viewBox="0 0 24 24" fill="none" xmlns="http://www.w3.org/2000/svg">
<g clip-path="url(#clip0_895_52929)">
<path fill-rule="evenodd" clip-rule="evenodd" d="M22.348 15.8954C21.7322 16.582 20.8227 17.0104 19.8494 17.0527L17.0268 17.1754C15.4466 17.2441 14.1281 15.9816 14.1281 14.4L14.1281 13.1889C13.6132 13.033 12.8387 12.8566 11.985 12.8566C11.1313 12.8566 10.3568 13.033 9.84188 13.1889L9.84188 14.4C9.84187 15.9816 8.5233 17.2441 6.94319 17.1754L4.12044 17.0527C3.14715 17.0103 2.23766 16.5819 1.6219 15.8954C0.994054 15.1953 0.666942 14.2119 0.941645 13.1595C1.56305 10.7789 3.03136 9.22058 5.028 8.2909C6.97322 7.38517 9.39405 7.08475 11.985 7.08488C14.576 7.08501 16.9968 7.38549 18.9419 8.29117C20.9385 9.22079 22.4068 10.779 23.0282 13.1596C23.303 14.212 22.9758 15.1954 22.348 15.8954ZM20.8591 14.5601C21.0921 14.3003 21.179 13.9939 21.0931 13.6647C20.6349 11.9096 19.6012 10.8043 18.0977 10.1043C16.5429 9.38031 14.4656 9.08501 11.9849 9.08488C9.50435 9.08476 7.42708 9.38002 5.87221 10.104C4.36875 10.804 3.33497 11.9094 2.87681 13.6647C2.79087 13.9939 2.87781 14.3002 3.11081 14.56C3.35589 14.8333 3.75405 15.0348 4.20731 15.0545L7.03007 15.1773C7.4726 15.1965 7.84187 14.8429 7.84188 14.4L7.84188 13.0618C7.84189 12.3263 8.28336 11.5913 9.07271 11.3343C9.6964 11.1312 10.761 10.8566 11.985 10.8566C13.209 10.8566 14.2736 11.1312 14.8973 11.3343C15.6866 11.5913 16.1281 12.3263 16.1281 13.0618L16.1281 14.4C16.1281 14.843 16.4974 15.1965 16.9399 15.1773L19.7626 15.0546C20.2158 15.0349 20.614 14.8333 20.8591 14.5601Z" fill="black"/>
</g>
<defs>
<clipPath id="clip0_895_52929">
<rect width="24" height="24" fill="white"/>
</clipPath>
</defs>
</svg>
