<svg width="24" height="24" viewBox="0 0 24 24" fill="none" xmlns="http://www.w3.org/2000/svg">
<g clip-path="url(#clip0_933_5261)">
<path fill-rule="evenodd" clip-rule="evenodd" d="M15.0588 3.69825C15.5837 3.66781 16 3.23249 16 2.69995C16 2.14767 15.5523 1.69995 15 1.69995C15 3.36935 15.0009 1.69995 14.9985 1.69995L14.997 1.69996L14.9939 1.69997L14.9874 1.70003L14.9731 1.70028C14.963 1.70053 14.9518 1.70092 14.9395 1.70152C14.915 1.70273 14.886 1.70479 14.8532 1.70819C14.7875 1.71498 14.7055 1.7272 14.6111 1.749C14.4219 1.79266 14.181 1.87518 13.923 2.02996C13.5565 2.24987 13.198 2.58978 12.9062 3.08924C12.6202 2.99876 12.3158 2.94995 12 2.94995C11.6841 2.94995 11.3797 2.99876 11.0938 3.08924C10.8019 2.58978 10.4435 2.24987 10.0769 2.02996C9.81898 1.87518 9.57806 1.79266 9.38887 1.749C9.2944 1.7272 9.21242 1.71498 9.14679 1.70819C9.11392 1.70479 9.08498 1.70273 9.06042 1.70152C9.04813 1.70092 9.03691 1.70053 9.02682 1.70028L9.01253 1.70003L9.00602 1.69997L9.00293 1.69996L9.00142 1.69995C8.99905 1.69995 8.99995 3.36935 8.99995 1.69995C8.44766 1.69995 7.99995 2.14767 7.99995 2.69995C7.99995 3.23249 8.41622 3.66781 8.94113 3.69825C8.95665 3.70202 8.9958 3.71365 9.04795 3.74494C9.12621 3.7919 9.31228 3.92923 9.47884 4.32329C9.20356 4.74905 9.03321 5.24899 9.00435 5.78652L6.38595 4.40327C6.31447 4.36551 6.23962 4.33701 6.16309 4.31774C5.64738 4.11248 5.08555 4 4.49963 4C2.01435 4 -0.000366211 6.01472 -0.000366211 8.5C-0.000366211 10.9853 2.01435 13 4.49963 13C5.1273 13 5.72732 12.8709 6.27262 12.637C6.30735 12.6238 6.34153 12.6087 6.37501 12.5915C6.52306 12.5236 6.66672 12.4479 6.80546 12.365L7.32007 12.094C7.11166 12.816 6.99997 13.5945 6.99997 14.3999C6.99997 16.1071 7.5018 17.6933 8.36281 18.8772C9.07669 19.8587 10.0751 20.6041 11.2533 20.8294C11.2511 20.8526 11.25 20.8761 11.25 20.8999V22.3999C11.25 22.8141 11.5858 23.1499 12 23.1499C12.4142 23.1499 12.75 22.8141 12.75 22.3999V20.8999C12.75 20.8761 12.7489 20.8526 12.7467 20.8294C13.9248 20.6041 14.9233 19.8587 15.6371 18.8772C16.4981 17.6933 17 16.1071 17 14.3999C17 13.5945 16.8883 12.816 16.6799 12.094L17.1945 12.365C17.3332 12.4479 17.4769 12.5236 17.6249 12.5915C17.6584 12.6087 17.6926 12.6238 17.7273 12.637C18.2726 12.8709 18.8726 13 19.5003 13C21.9856 13 24.0003 10.9853 24.0003 8.5C24.0003 6.01472 21.9856 4 19.5003 4C18.9144 4 18.3526 4.11248 17.8369 4.31774C17.7603 4.33701 17.6855 4.36551 17.614 4.40327L14.9956 5.78652C14.9667 5.24899 14.7964 4.74905 14.5211 4.32329C14.6877 3.92923 14.8737 3.7919 14.952 3.74494C15.0041 3.71365 15.0433 3.70202 15.0588 3.69825ZM11 5.94995C11 5.39767 11.4477 4.94995 12 4.94995C12.5523 4.94995 13 5.39767 13 5.94995C13 6.50224 12.5523 6.94995 12 6.94995C11.4477 6.94995 11 6.50224 11 5.94995ZM4.49963 6C4.86235 6 5.2045 6.07662 5.51295 6.21361C5.53718 6.22437 5.56169 6.23411 5.58645 6.24284L9.85628 8.4985L5.84832 10.6086C5.83024 10.6182 5.81246 10.6282 5.795 10.6388C5.70819 10.6916 5.61801 10.7391 5.52489 10.781L5.51893 10.7838L5.51295 10.7864C5.2045 10.9234 4.86235 11 4.49963 11C3.11892 11 1.99963 9.88071 1.99963 8.5C1.99963 7.11929 3.11892 6 4.49963 6ZM19.5003 6C19.1376 6 18.7954 6.07662 18.487 6.21361C18.4628 6.22437 18.4383 6.23411 18.4135 6.24284L14.1437 8.4985L18.1516 10.6086C18.1697 10.6182 18.1875 10.6282 18.2049 10.6388C18.2918 10.6916 18.3819 10.7391 18.4751 10.781L18.481 10.7838L18.487 10.7864C18.7954 10.9234 19.1376 11 19.5003 11C20.881 11 22.0003 9.88071 22.0003 8.5C22.0003 7.11929 20.881 6 19.5003 6ZM9.98028 11.099C9.88916 11.2243 9.80269 11.3582 9.72164 11.5L14.2783 11.5C14.1973 11.3582 14.1108 11.2243 14.0197 11.099C13.4323 10.2913 12.7058 9.8999 12 9.8999C11.2942 9.8999 10.5677 10.2913 9.98028 11.099ZM8.99997 14.3999C8.99997 14.0901 9.02132 13.7893 9.06147 13.5L14.9385 13.5C14.9786 13.7893 15 14.0901 15 14.3999C15 14.7097 14.9786 15.0105 14.9385 15.2998L9.06147 15.2998C9.02132 15.0105 8.99997 14.7097 8.99997 14.3999ZM9.72164 17.2998C9.80269 17.4416 9.88916 17.5755 9.98028 17.7008C10.5677 18.5085 11.2942 18.8999 12 18.8999C12.7058 18.8999 13.4323 18.5085 14.0197 17.7008C14.1108 17.5755 14.1973 17.4416 14.2783 17.2998L9.72164 17.2998Z" fill="black"/>
</g>
<defs>
<clipPath id="clip0_933_5261">
<rect width="24" height="24" fill="white"/>
</clipPath>
</defs>
</svg>
