<svg width="24" height="24" viewBox="0 0 24 24" fill="none" xmlns="http://www.w3.org/2000/svg">
<path fill-rule="evenodd" clip-rule="evenodd" d="M8.44541 1.66793C8.90493 1.36158 9.5258 1.48576 9.83216 1.94528L10.557 3.03249C10.7015 3.01109 10.8495 3 11 3H13C13.1505 3 13.2985 3.01109 13.443 3.03249L14.1678 1.94528C14.4742 1.48576 15.0951 1.36158 15.5546 1.66793C16.0141 1.97429 16.1383 2.59516 15.8319 3.05468L15.2163 3.97811C15.7031 4.51142 16 5.22104 16 6C16 6.38071 15.9291 6.74486 15.7997 7.07996C17.0804 7.33983 18.1389 8.21153 18.6569 9.37668L20.8355 9.01358C21.3803 8.92278 21.8955 9.2908 21.9863 9.83557C22.0771 10.3803 21.7091 10.8956 21.1643 10.9864L19 11.3471V14.5H21C21.5523 14.5 22 14.9477 22 15.5C22 16.0523 21.5523 16.5 21 16.5H18.8389C18.6752 17.25 18.3912 17.9551 18.0082 18.594L19.7071 20.2929C20.0976 20.6834 20.0976 21.3166 19.7071 21.7071C19.3166 22.0976 18.6834 22.0976 18.2929 21.7071L16.7383 20.1525C15.4917 21.2996 13.8276 22 12 22C10.1724 22 8.50834 21.2996 7.26167 20.1525L5.70711 21.7071C5.31658 22.0976 4.68342 22.0976 4.29289 21.7071C3.90237 21.3166 3.90237 20.6834 4.29289 20.2929L5.99182 18.594C5.60881 17.9551 5.32483 17.25 5.16109 16.5H3C2.44772 16.5 2 16.0523 2 15.5C2 14.9477 2.44772 14.5 3 14.5H5V11.3471L2.83551 10.9864C2.29074 10.8956 1.92272 10.3803 2.01352 9.83557C2.10431 9.2908 2.61954 8.92278 3.16431 9.01358L5.3431 9.37671C5.86109 8.21154 6.9196 7.33983 8.20027 7.07996C8.07092 6.74486 8 6.38071 8 6C8 5.22104 8.29688 4.51142 8.78368 3.97811L8.16806 3.05468C7.8617 2.59516 7.98588 1.97429 8.44541 1.66793ZM13 19.9C15.2822 19.4367 17 17.419 17 15V11C17 9.89543 16.1046 9 15 9H13L13 19.9ZM11 9H9C7.89543 9 7 9.89543 7 11V15C7 17.419 8.71776 19.4367 11 19.9L11 9ZM12 7H13C13.5523 7 14 6.55228 14 6C14 5.44772 13.5523 5 13 5H11C10.4477 5 10 5.44772 10 6C10 6.55228 10.4477 7 11 7H12Z" fill="black"/>
</svg>
