<svg width="24" height="24" viewBox="0 0 24 24" fill="none" xmlns="http://www.w3.org/2000/svg">
<g clip-path="url(#clip0_895_52779)">
<path fill-rule="evenodd" clip-rule="evenodd" d="M15.8946 4.0196C16.2457 3.66855 16.8117 3.65879 17.1747 3.99753C17.5064 4.3071 17.5306 4.75178 17.3198 5.04056C16.9678 5.52295 16.5791 6.00277 16.2344 6.32448C15.8844 6.65112 15.3599 7.02035 14.8353 7.35297C14.3228 7.67796 13.6772 7.67796 13.1647 7.35297C12.6402 7.02035 12.1157 6.65112 11.7657 6.32448C11.421 6.00277 11.0322 5.52295 10.6802 5.04056C10.4695 4.75178 10.4937 4.3071 10.8254 3.99753C11.1883 3.65879 11.7544 3.66855 12.1054 4.0196L13.1699 5.08406C13.6284 5.54253 14.3717 5.54253 14.8302 5.08406L15.8946 4.0196ZM18.5393 2.53542C17.3885 1.46132 15.5935 1.49226 14.4804 2.60538L14 3.08576L13.5197 2.60538C12.4065 1.49226 10.6116 1.46132 9.46074 2.53542C8.46097 3.46855 8.20178 5.03703 9.06463 6.21948C9.43886 6.73232 9.91614 7.33401 10.401 7.78659C10.8903 8.24319 11.5418 8.69203 12.0937 9.04201C13.26 9.78161 14.74 9.78161 15.9064 9.04201C16.4583 8.69203 17.1098 8.24319 17.599 7.78659C18.0839 7.33401 18.5612 6.73232 18.9354 6.21948C19.7983 5.03703 19.5391 3.46855 18.5393 2.53542ZM20.5717 12.4469C20.7378 12.3431 20.9535 12.3677 21.092 12.5062C21.2773 12.6915 21.2499 12.9993 21.0348 13.1489L13.0569 18.6987C11.9895 19.4413 10.6277 19.6187 9.40566 19.1743L6.7895 18.223C6.22303 18.017 5.59387 18.0775 5.07702 18.3876L0.485533 21.1425C0.0119531 21.4266 -0.141612 22.0409 0.142536 22.5145C0.426684 22.988 1.04094 23.1416 1.51452 22.8575L6.10601 20.1026L8.72218 21.0539C10.5552 21.7205 12.5979 21.4544 14.199 20.3406L22.1769 14.7907C23.4149 13.9295 23.5726 12.1583 22.5063 11.092C21.7092 10.2949 20.4675 10.1535 19.5117 10.7509L13.867 14.2789C13.6184 13.6939 13.1765 13.19 12.582 12.8699L9.16243 11.0286C7.78992 10.2895 6.1131 10.4152 4.86603 11.3505L0.400029 14.7C-0.0417987 15.0313 -0.131342 15.6581 0.200029 16.1C0.5314 16.5418 1.1582 16.6313 1.60003 16.3L6.06603 12.9505C6.68956 12.4828 7.52798 12.42 8.21423 12.7895L11.6338 14.6308C12.0104 14.8336 12.1866 15.2779 12.0513 15.6837C11.9499 15.9882 11.6207 16.1528 11.3163 16.0513L8.31626 15.0513C7.79231 14.8766 7.22599 15.1598 7.05135 15.6837C6.8767 16.2077 7.15986 16.774 7.6838 16.9486L10.6838 17.9486C11.9084 18.3568 13.2226 17.7962 13.7948 16.6825L20.5717 12.4469Z" fill="black"/>
</g>
<defs>
<clipPath id="clip0_895_52779">
<rect width="24" height="24" fill="white"/>
</clipPath>
</defs>
</svg>
