<svg width="24" height="24" viewBox="0 0 24 24" fill="none" xmlns="http://www.w3.org/2000/svg">
<path fill-rule="evenodd" clip-rule="evenodd" d="M4 12C4 7.58172 7.58172 4 12 4C16.4183 4 20 7.58172 20 12C20 16.4183 16.4183 20 12 20C10.4964 20 9.0925 19.5861 7.89263 18.8667C7.67936 18.7388 7.4261 18.695 7.18226 18.7437L4.77476 19.2252L5.25626 16.8177C5.30502 16.5739 5.26119 16.3206 5.13332 16.1074C4.41386 14.9075 4 13.5036 4 12ZM12 2C6.47715 2 2 6.47715 2 12C2 13.7349 2.44263 15.3691 3.22159 16.793L2.51942 20.3039C2.45385 20.6317 2.55647 20.9707 2.79289 21.2071C3.02932 21.4435 3.36826 21.5462 3.69612 21.4806L7.20695 20.7784C8.63089 21.5574 10.2651 22 12 22C17.5228 22 22 17.5228 22 12C22 6.47715 17.5228 2 12 2ZM9 11.5C9.82843 11.5 10.5 10.8284 10.5 10C10.5 9.17157 9.82843 8.5 9 8.5C8.17157 8.5 7.5 9.17157 7.5 10C7.5 10.8284 8.17157 11.5 9 11.5ZM16.5 10C16.5 10.8284 15.8284 11.5 15 11.5C14.1716 11.5 13.5 10.8284 13.5 10C13.5 9.17157 14.1716 8.5 15 8.5C15.8284 8.5 16.5 9.17157 16.5 10ZM8.44719 15.8944C10.7086 14.7637 13.2914 14.7637 15.5528 15.8944C16.0467 16.1414 16.6474 15.9412 16.8944 15.4472C17.1414 14.9532 16.9412 14.3525 16.4472 14.1056C13.6227 12.6933 10.3772 12.6933 7.55276 14.1056C7.05878 14.3525 6.85856 14.9532 7.10555 15.4472C7.35254 15.9412 7.95321 16.1414 8.44719 15.8944Z" fill="black"/>
</svg>
