<svg width="24" height="24" viewBox="0 0 24 24" fill="none" xmlns="http://www.w3.org/2000/svg">
<path fill-rule="evenodd" clip-rule="evenodd" d="M6.5 2.5C4.29086 2.5 2.5 4.29086 2.5 6.5V17.5C2.5 19.7091 4.29086 21.5 6.5 21.5H17.5C19.7091 21.5 21.5 19.7091 21.5 17.5V6.5C21.5 4.29086 19.7091 2.5 17.5 2.5H6.5ZM4.5 6.5C4.5 5.39543 5.39543 4.5 6.5 4.5H11V7.17071C10.6872 7.06015 10.3506 7 10 7C8.34315 7 7 8.34315 7 10C7 10.3506 7.06015 10.6872 7.17071 11H4.5V6.5ZM14 11C14.5523 11 15 10.5523 15 10C15 9.44772 14.5523 9 14 9C13.4477 9 13 9.44772 13 10V11H14ZM13 7.17071C13.3128 7.06015 13.6494 7 14 7C15.6569 7 17 8.34315 17 10C17 10.3506 16.9398 10.6872 16.8293 11H19.5V6.5C19.5 5.39543 18.6046 4.5 17.5 4.5H13V7.17071ZM11 10C11 9.44772 10.5523 9 10 9C9.44772 9 9 9.44772 9 10C9 10.5523 9.44772 11 10 11H11V10ZM14.4142 13H19.5V17.5C19.5 18.6046 18.6046 19.5 17.5 19.5H13V14.4142L15.2929 16.7071C15.6834 17.0976 16.3166 17.0976 16.7071 16.7071C17.0976 16.3166 17.0976 15.6834 16.7071 15.2929L14.4142 13ZM9.58576 13H4.5V17.5C4.5 18.6046 5.39543 19.5 6.5 19.5H11V14.4142L8.70711 16.7071C8.31658 17.0976 7.68342 17.0976 7.29289 16.7071C6.90237 16.3166 6.90237 15.6834 7.29289 15.2929L9.58576 13Z" fill="black"/>
</svg>
