<svg width="24" height="24" viewBox="0 0 24 24" fill="none" xmlns="http://www.w3.org/2000/svg">
<path fill-rule="evenodd" clip-rule="evenodd" d="M13 3V2C12.4477 2 12 2.44772 12 3V12.9996C11.1643 12.3719 10.1256 12 9 12C6.23858 12 4 14.2386 4 17C4 19.7614 6.23858 22 9 22C11.4576 22 13.501 20.227 13.921 17.8903C13.9719 17.7704 14 17.6385 14 17.5V17V4.12979C14.2278 4.177 14.4848 4.24123 14.7614 4.32858C15.8162 4.6617 17.1339 5.32275 18.2318 6.64018C18.5853 7.06446 19.2159 7.12179 19.6402 6.76822C20.0645 6.41466 20.1218 5.78409 19.7682 5.35982C18.3661 3.67725 16.6838 2.8383 15.3636 2.42142C14.7035 2.21296 14.1282 2.10799 13.7126 2.05493C13.5043 2.02834 13.3349 2.01463 13.2134 2.00755C13.1526 2.00401 13.1037 2.00212 13.0678 2.00112C13.0499 2.00062 13.0351 2.00034 13.0238 2.00018L13.0093 2.00003L13.004 2.00001L13.0018 2H13.0009C13.0004 2 13 2 13 3ZM12 17C12 15.3431 10.6569 14 9 14C7.34315 14 6 15.3431 6 17C6 18.6569 7.34315 20 9 20C10.6569 20 12 18.6569 12 17Z" fill="black"/>
</svg>
