<svg width="24" height="24" viewBox="0 0 24 24" fill="none" xmlns="http://www.w3.org/2000/svg">
<path fill-rule="evenodd" clip-rule="evenodd" d="M4.92894 11.9999C2.97632 13.9525 2.97632 17.1183 4.92894 19.071C6.88156 21.0236 10.0474 21.0236 12 19.071C12.7531 18.3179 13.2146 17.3871 13.3872 16.4141C13.6477 14.9454 14.9455 13.6476 16.4142 13.3871C17.3872 13.2145 18.318 12.753 19.0711 11.9999C21.0237 10.0473 21.0237 6.88144 19.0711 4.92882C17.1185 2.9762 13.9526 2.9762 12 4.92882C11.2469 5.6819 10.7854 6.61271 10.6128 7.58572C10.3523 9.05438 9.0545 10.3522 7.58584 10.6127C6.61283 10.7853 5.68202 11.2468 4.92894 11.9999ZM3.51473 20.4852C0.78106 17.7515 0.78106 13.3193 3.51473 10.5857C4.56679 9.53361 5.87315 8.88531 7.23649 8.64345C7.87878 8.5295 8.52962 7.87866 8.64357 7.23637C8.88543 5.87302 9.53374 4.56667 10.5858 3.51461C13.3195 0.780938 17.7516 0.780938 20.4853 3.51461C23.219 6.24828 23.219 10.6804 20.4853 13.4141C19.4332 14.4662 18.1269 15.1145 16.7635 15.3563C16.1212 15.4703 15.4704 16.1211 15.3565 16.7634C15.1146 18.1268 14.4663 19.4331 13.4142 20.4852C10.6806 23.2188 6.2484 23.2188 3.51473 20.4852ZM11.1213 17.4999C11.1213 18.3283 10.4497 18.9999 9.62129 18.9999C8.79286 18.9999 8.12129 18.3283 8.12129 17.4999C8.12129 16.6715 8.79286 15.9999 9.62129 15.9999C10.4497 15.9999 11.1213 16.6715 11.1213 17.4999ZM17.4999 9.9999C18.3284 9.9999 18.9999 9.32833 18.9999 8.4999C18.9999 7.67147 18.3284 6.9999 17.4999 6.9999C16.6715 6.9999 15.9999 7.67147 15.9999 8.4999C15.9999 9.32833 16.6715 9.9999 17.4999 9.9999ZM12.9999 13.4999C12.9999 14.3283 12.3284 14.9999 11.4999 14.9999C10.6715 14.9999 9.99995 14.3283 9.99995 13.4999C9.99995 12.6715 10.6715 11.9999 11.4999 11.9999C12.3284 11.9999 12.9999 12.6715 12.9999 13.4999ZM7.49995 15.4999C8.32838 15.4999 8.99995 14.8283 8.99995 13.9999C8.99995 13.1715 8.32838 12.4999 7.49995 12.4999C6.67152 12.4999 5.99995 13.1715 5.99995 13.9999C5.99995 14.8283 6.67152 15.4999 7.49995 15.4999Z" fill="black"/>
</svg>
