<svg width="24" height="24" viewBox="0 0 24 24" fill="none" xmlns="http://www.w3.org/2000/svg">
<path fill-rule="evenodd" clip-rule="evenodd" d="M7.09417 5.68029C8.44888 4.62714 10.1512 4 12 4C13.8485 4 15.5506 4.62696 16.9053 5.67985L14.757 7.82813C13.9666 7.30477 13.0189 7 12 7C10.9808 7 10.0329 7.30493 9.24241 7.82853L7.09417 5.68029ZM4.91205 4.94586C3.11233 6.75415 2 9.24718 2 12C2 17.5228 6.47715 22 12 22C17.5228 22 22 17.5228 22 12C22 6.47715 17.5228 2 12 2C9.24699 2 6.75381 3.11248 4.94549 4.91242C4.93981 4.91784 4.93417 4.92334 4.92859 4.92892C4.923 4.93452 4.91748 4.94016 4.91205 4.94586ZM5.68 7.09454L7.82826 9.24281C7.30483 10.0332 7 10.981 7 12C7 13.0192 7.30492 13.9671 7.82852 14.7576L5.68028 16.9058C4.62713 15.5511 4 13.8488 4 12C4 10.1514 4.62702 8.4492 5.68 7.09454ZM16.1713 9.2422L18.3196 7.09397C19.3728 8.44872 20 10.1511 20 12C20 13.849 19.3727 15.5516 18.3193 16.9064L16.1711 14.7582C16.6949 13.9676 17 13.0194 17 12C17 10.9807 16.695 10.0327 16.1713 9.2422ZM14.1474 14.0949C14.1381 14.1035 14.129 14.1123 14.12 14.1213C14.1111 14.1302 14.1024 14.1392 14.094 14.1483C13.5534 14.6753 12.8146 15 12 15C11.1781 15 10.4334 14.6695 9.89158 14.1341L9.87898 14.1213L9.86608 14.1086C9.3306 13.5668 9 12.822 9 12C9 10.3431 10.3431 9 12 9C12.8186 9 13.5606 9.32784 14.1018 9.85938C14.108 9.86588 14.1143 9.87231 14.1206 9.87868C14.1271 9.8851 14.1336 9.89143 14.1401 9.89764C14.672 10.439 15 11.1812 15 12C15 12.8151 14.675 13.5542 14.1474 14.0949ZM14.7566 16.1721L16.9049 18.3204C15.5503 19.3731 13.8484 20 12 20C10.1514 20 8.44918 19.373 7.09453 18.32L9.24279 16.1717C10.0332 16.6952 10.981 17 12 17C13.0187 17 13.9663 16.6953 14.7566 16.1721Z" fill="black"/>
</svg>
