<svg width="24" height="24" viewBox="0 0 24 24" fill="none" xmlns="http://www.w3.org/2000/svg">
<path fill-rule="evenodd" clip-rule="evenodd" d="M3.29599 4.65337C2.36081 3.32854 3.30828 1.5 4.92992 1.5H8.98184C9.63169 1.5 10.241 1.81573 10.6158 2.34663L12 4.30761L13.3842 2.34663C13.759 1.81573 14.3683 1.5 15.0182 1.5H19.0701C20.6917 1.5 21.6392 3.32854 20.704 4.65337L16.9961 9.90625C18.5327 11.2797 19.5 13.2769 19.5 15.5C19.5 19.6421 16.1421 23 12 23C7.85786 23 4.5 19.6421 4.5 15.5C4.5 13.2769 5.46726 11.2797 7.0039 9.90625L3.29599 4.65337ZM15.0682 8.65429C15.1601 8.69551 15.2509 8.73851 15.3407 8.78327L19.0701 3.5H15.0182L13.224 6.04167L15.0682 8.65429ZM12 8C12.0533 8 12.1065 8.00056 12.1595 8.00166L8.98184 3.5H4.92992L8.65929 8.78327C9.66525 8.28197 10.7997 8 12 8ZM12 10C8.96243 10 6.5 12.4624 6.5 15.5C6.5 18.5376 8.96243 21 12 21C15.0376 21 17.5 18.5376 17.5 15.5C17.5 12.4624 15.0376 10 12 10ZM12 11.5C12.3897 11.5 12.7438 11.7263 12.9075 12.08L13.5213 13.4061L14.9722 13.5801C15.3591 13.6264 15.6838 13.8933 15.8042 14.2639C15.9246 14.6345 15.8188 15.0413 15.5331 15.3063L14.4615 16.2998L14.7444 17.7334C14.8199 18.1157 14.6664 18.507 14.3511 18.7361C14.0359 18.9651 13.6163 18.9902 13.276 18.8003L12 18.0882L10.7239 18.8003C10.3837 18.9902 9.9641 18.9651 9.64885 18.7361C9.33361 18.507 9.18011 18.1157 9.25556 17.7334L9.53849 16.2998L8.46692 15.3063C8.18118 15.0413 8.07535 14.6345 8.19577 14.2639C8.31618 13.8933 8.6409 13.6264 9.0278 13.5801L10.4787 13.4061L11.0925 12.08C11.2561 11.7263 11.6103 11.5 12 11.5Z" fill="black"/>
</svg>
