<svg width="24" height="24" viewBox="0 0 24 24" fill="none" xmlns="http://www.w3.org/2000/svg">
<path fill-rule="evenodd" clip-rule="evenodd" d="M19 2C19 1.44772 18.5523 1 18 1C17.4477 1 17 1.44772 17 2V6C17 6.55228 17.4477 7 18 7H22C22.5523 7 23 6.55228 23 6C23 5.44772 22.5523 5 22 5H20.4142L22.7071 2.70711C23.0976 2.31658 23.0976 1.68342 22.7071 1.29289C22.3166 0.902369 21.6834 0.902369 21.2929 1.29289L19 3.58579V2ZM5.88063 3.63107C6.06938 3.39233 6.43064 3.29901 6.76847 3.47142C7.49665 3.84304 8.32535 4.31765 8.85543 4.76454C9.29892 5.13844 9.80679 5.7242 10.2527 6.2947C10.4999 6.61096 10.4848 7.10105 10.1378 7.44796L8.7515 8.83432C8.20049 9.38532 7.98314 10.2635 8.37944 11.0424C8.71054 11.6932 9.33183 12.746 10.2929 13.7071C11.254 14.6682 12.3068 15.2895 12.9576 15.6206C13.7365 16.0169 14.6147 15.7995 15.1657 15.2485L16.3858 14.0284C16.7653 13.649 17.3348 13.6554 17.6767 13.9863C18.2285 14.5203 18.8125 15.1205 19.2216 15.6278C19.5768 16.0682 19.988 16.6715 20.3471 17.2282C20.5925 17.6085 20.4912 18.0285 20.2323 18.2254C18.237 19.7426 16.3174 19.8898 14.4424 19.2713C12.4956 18.6291 10.5562 17.142 8.70714 15.2929C6.83693 13.4227 5.33807 11.4611 4.70789 9.49349C4.10213 7.60211 4.27856 5.65749 5.88063 3.63107ZM7.67761 1.69C6.55804 1.11863 5.13772 1.34591 4.31172 2.39071C2.28078 4.9596 2.00223 7.60263 2.8032 10.1035C3.57975 12.5282 5.34932 14.7635 7.29292 16.7071C9.2157 18.6299 11.423 20.3812 13.8158 21.1706C16.2806 21.9837 18.8938 21.7557 21.4428 19.8174C22.6329 18.9125 22.7692 17.293 22.0277 16.1438C21.6586 15.5718 21.2015 14.8969 20.7784 14.3722C20.2904 13.7672 19.6354 13.0986 19.0677 12.5492C17.8979 11.417 16.0798 11.506 14.9716 12.6142L13.7875 13.7983C13.2444 13.5151 12.4331 13.0188 11.7071 12.2929C10.9812 11.5669 10.485 10.7556 10.2017 10.2126L11.5521 8.86217C12.5495 7.86471 12.7521 6.24469 11.8285 5.06301C11.3622 4.46647 10.7515 3.74711 10.1446 3.23546C9.42887 2.63206 8.4264 2.07214 7.67761 1.69Z" fill="black"/>
</svg>
