<svg width="24" height="24" viewBox="0 0 24 24" fill="none" xmlns="http://www.w3.org/2000/svg">
<path fill-rule="evenodd" clip-rule="evenodd" d="M22.5 11.1339C22.8094 11.3125 23 11.6426 23 11.9999C23 12.3572 22.8094 12.6873 22.5 12.8659L15.75 16.763C15.4406 16.9417 15.0594 16.9417 14.75 16.763C14.4406 16.5844 14.25 16.2543 14.25 15.897V12.9999H3C2.44772 12.9999 2 12.5522 2 11.9999C2 11.4476 2.44772 10.9999 3 10.9999H14.25V8.10278C14.25 7.74552 14.4406 7.41539 14.75 7.23676C15.0594 7.05812 15.4406 7.05812 15.75 7.23676L22.5 11.1339ZM16.25 9.83483V14.165L20 11.9999L16.25 9.83483Z" fill="black"/>
</svg>
