<svg width="24" height="24" viewBox="0 0 24 24" fill="none" xmlns="http://www.w3.org/2000/svg">
<g clip-path="url(#clip0_895_52720)">
<path fill-rule="evenodd" clip-rule="evenodd" d="M23.7071 1.70711C24.0976 1.31658 24.0976 0.683417 23.7071 0.292893C23.3166 -0.0976311 22.6834 -0.0976311 22.2929 0.292893L0.292893 22.2929C-0.0976311 22.6834 -0.0976311 23.3166 0.292893 23.7071C0.683417 24.0976 1.31658 24.0976 1.70711 23.7071L5 20.4142V20.5H18.5C20.7091 20.5 22.5 18.7091 22.5 16.5V10C22.5 8.07486 21.14 6.46736 19.3283 6.08587L23.7071 1.70711ZM17.4142 8L15.7307 9.68356C15.8619 9.87807 15.978 10.083 16.0777 10.2967C16.334 10.8458 16.4768 11.4411 16.4974 12.0467C16.5181 12.6524 16.4162 13.256 16.1978 13.8213C15.9795 14.3867 15.6492 14.902 15.2268 15.3366C14.8044 15.7711 14.2986 16.1159 13.7396 16.3502C13.1807 16.5844 12.5803 16.7034 11.9742 16.6999C11.3682 16.6965 10.7692 16.5706 10.213 16.33C9.9574 16.2194 9.7133 16.0856 9.48359 15.9306L6.91421 18.5H18.5C19.6046 18.5 20.5 17.6046 20.5 16.5V10C20.5 8.89543 19.6046 8 18.5 8H17.4142ZM10.9469 14.4674C10.9669 14.4766 10.987 14.4857 11.0072 14.4944C11.3162 14.6281 11.649 14.698 11.9857 14.7C12.3224 14.7019 12.656 14.6358 12.9665 14.5057C13.277 14.3755 13.558 14.184 13.7927 13.9426C14.0274 13.7011 14.2108 13.4148 14.3321 13.1007C14.4535 12.7867 14.5101 12.4513 14.4986 12.1149C14.4872 11.7799 14.4085 11.4507 14.2674 11.1468L10.9469 14.4674ZM8.49284 5.68377C8.62895 5.27543 9.01109 5 9.44152 5H15C15.5523 5 16 4.55228 16 4C16 3.44772 15.5523 3 15 3H9.44152C8.15023 3 7.00381 3.82629 6.59547 5.05132L6.27924 6H5.5C3.29086 6 1.5 7.79086 1.5 10V16.5C1.5 17.0523 1.94772 17.5 2.5 17.5C3.05228 17.5 3.5 17.0523 3.5 16.5V10C3.5 8.89543 4.39543 8 5.5 8H6.27924C7.1401 8 7.90438 7.44914 8.17661 6.63246L8.49284 5.68377ZM11.9098 8.31345C12.038 8.85064 11.7065 9.39009 11.1694 9.51836C10.7649 9.61494 10.3908 9.81091 10.0812 10.0885C9.77153 10.3661 9.53601 10.7166 9.39598 11.1082C9.21001 11.6282 8.63768 11.899 8.11765 11.7131C7.59761 11.5271 7.3268 10.9548 7.51277 10.4347C7.76484 9.72986 8.18876 9.09902 8.74615 8.59933C9.30353 8.09964 9.97676 7.7469 10.7049 7.57304C11.2421 7.44478 11.7815 7.77627 11.9098 8.31345Z" fill="black"/>
</g>
<defs>
<clipPath id="clip0_895_52720">
<rect width="24" height="24" fill="white"/>
</clipPath>
</defs>
</svg>
