<svg width="24" height="24" viewBox="0 0 24 24" fill="none" xmlns="http://www.w3.org/2000/svg">
<path fill-rule="evenodd" clip-rule="evenodd" d="M2 7C2 4.79086 3.79086 3 6 3H18C20.2091 3 22 4.79086 22 7V17C22 19.2091 20.2091 21 18 21H6C3.79086 21 2 19.2091 2 17V7ZM6 5C4.89543 5 4 5.89543 4 7V17C4 18.1046 4.89543 19 6 19H18C19.1046 19 20 18.1046 20 17V7C20 5.89543 19.1046 5 18 5H6ZM13.2929 8.29289C13.6834 7.90237 14.3166 7.90237 14.7071 8.29289L17.7071 11.2929C18.0976 11.6834 18.0976 12.3166 17.7071 12.7071L14.7071 15.7071C14.3166 16.0976 13.6834 16.0976 13.2929 15.7071C12.9024 15.3166 12.9024 14.6834 13.2929 14.2929L15.5858 12L13.2929 9.70711C12.9024 9.31658 12.9024 8.68342 13.2929 8.29289ZM9.29289 8.29289C9.68342 7.90237 10.3166 7.90237 10.7071 8.29289C11.0976 8.68342 11.0976 9.31658 10.7071 9.70711L8.41421 12L10.7071 14.2929C11.0976 14.6834 11.0976 15.3166 10.7071 15.7071C10.3166 16.0976 9.68342 16.0976 9.29289 15.7071L6.29289 12.7071C5.90237 12.3166 5.90237 11.6834 6.29289 11.2929L9.29289 8.29289Z" fill="black"/>
</svg>
