<svg width="24" height="24" viewBox="0 0 24 24" fill="none" xmlns="http://www.w3.org/2000/svg">
<path fill-rule="evenodd" clip-rule="evenodd" d="M9.44152 5C9.01109 5 8.62895 5.27543 8.49284 5.68377L8.17661 6.63246C7.90438 7.44914 7.1401 8 6.27924 8H5C3.89543 8 3 8.89543 3 10V17C3 18.1046 3.89543 19 5 19H19C20.1046 19 21 18.1046 21 17V10C21 8.89543 20.1046 8 19 8H17.7208C16.8599 8 16.0956 7.44914 15.8234 6.63246L15.5072 5.68377C15.3711 5.27543 14.9889 5 14.5585 5H9.44152ZM6.59547 5.05132C7.00381 3.82629 8.15023 3 9.44152 3H14.5585C15.8498 3 16.9962 3.82629 17.4045 5.05132L17.7208 6H19C21.2091 6 23 7.79086 23 10V17C23 19.2091 21.2091 21 19 21H5C2.79086 21 1 19.2091 1 17V10C1 7.79086 2.79086 6 5 6H6.27924L6.59547 5.05132ZM8.60828 11.7191C9.03346 12.0265 9.62734 11.9311 9.93476 11.5059C10.1946 11.1465 10.5436 10.8612 10.9474 10.6779C11.3513 10.4947 11.7959 10.4199 12.2374 10.461C12.662 10.5005 13.0697 10.6458 13.4232 10.8833H13.1659C12.6412 10.8833 12.2159 11.3087 12.2159 11.8333C12.2159 12.358 12.6412 12.7833 13.1659 12.7833H15.4992C16.0239 12.7833 16.4492 12.358 16.4492 11.8333V9.5C16.4492 8.97533 16.0239 8.55 15.4992 8.55C15.0225 8.55 14.6277 8.90119 14.5596 9.35899L14.5561 9.3565C13.9225 8.91221 13.184 8.64082 12.4134 8.56913C11.6429 8.49745 10.867 8.62794 10.1623 8.94772C9.45761 9.2675 8.84849 9.76553 8.39507 10.3926C8.08765 10.8178 8.18311 11.4117 8.60828 11.7191ZM14.0622 14.4975C14.3704 14.0728 14.9644 13.9783 15.3891 14.2864C15.8137 14.5946 15.9082 15.1886 15.6001 15.6133C15.146 16.2391 14.5367 16.7359 13.8322 17.0545C13.1277 17.3732 12.3523 17.5028 11.5824 17.4305C10.8126 17.3583 10.0748 17.0867 9.4419 16.6425C9.44137 16.6421 9.44085 16.6417 9.44033 16.6414C9.37206 17.099 8.97742 17.45 8.50078 17.45C7.97611 17.45 7.55078 17.0247 7.55078 16.5V14.1667C7.55078 13.642 7.97611 13.2167 8.50078 13.2167H10.8341C11.3588 13.2167 11.7841 13.642 11.7841 14.1667C11.7841 14.6913 11.3588 15.1167 10.8341 15.1167H10.5762C10.9292 15.3538 11.3361 15.4991 11.76 15.5388C12.2011 15.5802 12.6454 15.506 13.0492 15.3234C13.4529 15.1408 13.802 14.8561 14.0622 14.4975Z" fill="black"/>
</svg>
