<svg width="24" height="24" viewBox="0 0 24 24" fill="none" xmlns="http://www.w3.org/2000/svg">
<path fill-rule="evenodd" clip-rule="evenodd" d="M7 2C5.067 2 3.5 3.567 3.5 5.5V16C3.5 17.6569 4.84315 19 6.5 19H6.58579L4.79289 20.7929C4.40237 21.1834 4.40237 21.8166 4.79289 22.2071C5.18342 22.5976 5.81658 22.5976 6.20711 22.2071L9.41421 19H14.5858L17.7929 22.2071C18.1834 22.5976 18.8166 22.5976 19.2071 22.2071C19.5976 21.8166 19.5976 21.1834 19.2071 20.7929L17.4142 19H17.5C19.1569 19 20.5 17.6569 20.5 16V5.5C20.5 3.567 18.933 2 17 2H7ZM15.001 17H14.999H9.00098H8.99902H6.5C5.94772 17 5.5 16.5523 5.5 16V12H18.5V16C18.5 16.5523 18.0523 17 17.5 17H15.001ZM18.5 10H13V4H17C17.8284 4 18.5 4.67157 18.5 5.5V10ZM11 4H7C6.17157 4 5.5 4.67157 5.5 5.5V10H11V4ZM9.5 14.5C9.5 15.3284 8.82843 16 8 16C7.17157 16 6.5 15.3284 6.5 14.5C6.5 13.6716 7.17157 13 8 13C8.82843 13 9.5 13.6716 9.5 14.5ZM16 16C16.8284 16 17.5 15.3284 17.5 14.5C17.5 13.6716 16.8284 13 16 13C15.1716 13 14.5 13.6716 14.5 14.5C14.5 15.3284 15.1716 16 16 16Z" fill="black"/>
</svg>
