<svg width="24" height="24" viewBox="0 0 24 24" fill="none" xmlns="http://www.w3.org/2000/svg">
<path fill-rule="evenodd" clip-rule="evenodd" d="M12.7072 4.70711C13.0977 4.31658 13.0977 3.68342 12.7072 3.29289C12.3166 2.90237 11.6835 2.90237 11.293 3.29289L3.29387 11.292C3.11443 11.471 3.00263 11.7177 3.00011 11.9906C3.00008 11.9937 3.00006 11.9968 3.00006 12C3.00006 12.0031 3.00008 12.0063 3.00011 12.0094C3.00256 12.2742 3.10788 12.5144 3.27805 12.6919C3.28296 12.697 3.28793 12.7021 3.29295 12.7071L11.293 20.7071C11.6835 21.0976 12.3166 21.0976 12.7072 20.7071C13.0977 20.3166 13.0977 19.6834 12.7072 19.2929L6.41427 13L20.0001 13C20.5523 13 21.0001 12.5523 21.0001 12C21.0001 11.4477 20.5523 11 20.0001 11L6.41428 11L12.7072 4.70711Z" fill="black"/>
</svg>
