<svg width="24" height="24" viewBox="0 0 24 24" fill="none" xmlns="http://www.w3.org/2000/svg">
<path fill-rule="evenodd" clip-rule="evenodd" d="M8.29289 3.29289C7.90237 3.68342 7.90237 4.31658 8.29289 4.70711L11.2929 7.70711C11.6834 8.09763 12.3166 8.09763 12.7071 7.70711L15.7071 4.70711C16.0976 4.31658 16.0976 3.68342 15.7071 3.29289C15.3166 2.90237 14.6834 2.90237 14.2929 3.29289L12 5.58579L9.70711 3.29289C9.31658 2.90237 8.68342 2.90237 8.29289 3.29289ZM4 13C4.55228 13 5 12.5523 5 12C5 11.4477 4.55228 11 4 11H3H2C1.44772 11 1 11.4477 1 12C1 12.5523 1.44772 13 2 13H3H4ZM22 11H21H20C19.4477 11 19 11.4477 19 12C19 12.5523 19.4477 13 20 13H21H22C22.5523 13 23 12.5523 23 12C23 11.4477 22.5523 11 22 11ZM17 12C17 12.5523 16.5523 13 16 13H14C13.4477 13 13 12.5523 13 12C13 11.4477 13.4477 11 14 11L16 11C16.5523 11 17 11.4477 17 12ZM11 12C11 12.5523 10.5523 13 10 13H8C7.44772 13 7 12.5523 7 12C7 11.4477 7.44772 11 8 11H10C10.5178 11 10.9436 11.3935 10.9948 11.8978C10.9983 11.9314 11 11.9655 11 12ZM8.29289 19.2929C7.90237 19.6834 7.90237 20.3166 8.29289 20.7071C8.68342 21.0976 9.31658 21.0976 9.70711 20.7071L12 18.4142L14.2929 20.7071C14.6834 21.0976 15.3166 21.0976 15.7071 20.7071C16.0976 20.3166 16.0976 19.6834 15.7071 19.2929L12.7071 16.2929C12.3166 15.9024 11.6834 15.9024 11.2929 16.2929L8.29289 19.2929Z" fill="black"/>
</svg>
