<svg width="24" height="24" viewBox="0 0 24 24" fill="none" xmlns="http://www.w3.org/2000/svg">
<path fill-rule="evenodd" clip-rule="evenodd" d="M9 4C4.58172 4 1 7.58172 1 12C1 16.4183 4.58172 20 9 20H15C19.4183 20 23 16.4183 23 12C23 7.58172 19.4183 4 15 4H9ZM3 12C3 8.68629 5.68629 6 9 6H15C18.3137 6 21 8.68629 21 12C21 15.3137 18.3137 18 15 18H9C5.68629 18 3 15.3137 3 12ZM15 7.5C12.5147 7.5 10.5 9.51472 10.5 12C10.5 14.4853 12.5147 16.5 15 16.5C17.4853 16.5 19.5 14.4853 19.5 12C19.5 9.51472 17.4853 7.5 15 7.5ZM12.5 12C12.5 10.6193 13.6193 9.5 15 9.5C16.3807 9.5 17.5 10.6193 17.5 12C17.5 13.3807 16.3807 14.5 15 14.5C13.6193 14.5 12.5 13.3807 12.5 12Z" fill="black"/>
</svg>
