<svg width="24" height="24" viewBox="0 0 24 24" fill="none" xmlns="http://www.w3.org/2000/svg">
<g clip-path="url(#clip0_1172_6638)">
<path fill-rule="evenodd" clip-rule="evenodd" d="M15.798 3.76129C14.3769 0.634903 9.93611 0.634912 8.51503 3.76129L5.80825 9.71621C5.7777 9.65604 5.74812 9.59527 5.71954 9.53393C5.01978 8.03209 3.23504 7.38188 1.73321 8.08164C0.231371 8.7814 -0.41884 10.5661 0.280917 12.068C0.947378 13.4983 1.88452 14.7732 3.03016 15.828L1.9254 18.2585C1.23979 19.7668 1.90674 21.5454 3.41509 22.231C4.92343 22.9166 6.70198 22.2497 7.38759 20.7413L8.33252 18.6625C9.98666 19.0632 11.7179 19.1101 13.4108 18.7866C14.2076 18.6343 14.9821 18.4026 15.7237 18.0975L16.9254 20.7413C17.611 22.2497 19.3896 22.9166 20.8979 22.231C22.4063 21.5454 23.0732 19.7668 22.3876 18.2585L20.6231 14.3766C22.1155 12.4617 22.9955 10.1341 23.1377 7.69962C23.2344 6.04559 21.9718 4.62641 20.3178 4.52979C18.8259 4.44265 17.5251 5.46121 17.2135 6.87545L15.798 3.76129ZM18.6021 9.93039L19.6618 12.2618C20.5308 10.8575 21.0431 9.25193 21.141 7.58623L21.1411 7.58363L21.1411 7.583C21.1733 7.03165 20.7525 6.55859 20.2012 6.52639C19.6498 6.49418 19.1768 6.91503 19.1445 7.46638C19.0949 8.31708 18.91 9.1482 18.6021 9.93039ZM17.5002 17.187C17.5037 17.1849 17.5072 17.1827 17.5107 17.1805L16.6729 15.3418C16.67 15.3437 16.6671 15.3457 16.6641 15.3476L15.8237 13.4986C15.826 13.4969 15.8284 13.4952 15.8307 13.4935L14.9796 11.6256C14.9778 11.627 14.9761 11.6285 14.9743 11.6299L13.0604 7.41933L13.0599 7.41819C12.7043 6.63831 11.5964 6.63811 11.2404 7.41758L11.2396 7.41933L8.90305 12.56C8.74109 12.4943 8.58158 12.4213 8.425 12.3412C7.97637 12.1116 7.56147 11.8281 7.18843 11.4989L9.41891 6.59174L9.42033 6.58862L10.3293 4.58891C11.0398 3.02571 13.2602 3.0257 13.9707 4.5889L14.8801 6.58951L14.8811 6.59172L20.5604 19.0861C20.7603 19.526 20.6151 20.0349 20.2389 20.3084C20.1851 20.3474 20.1266 20.3817 20.0638 20.4102C19.561 20.6388 18.9682 20.4165 18.7396 19.9137L17.5002 17.187ZM4.8226 11.8846L4.81849 11.8937C4.85682 11.9407 4.92039 12.0169 5.00712 12.115C5.69408 12.9411 6.54499 13.6258 7.51394 14.1217C7.69805 14.2159 7.88519 14.3026 8.07492 14.3819L8.07329 14.3855C8.20902 14.4798 8.55356 14.5874 8.93453 14.6846C9.2581 14.7783 9.58688 14.8513 9.91888 14.9033C9.95846 14.911 9.99612 14.9182 10.0315 14.9248L10.0334 14.9204C10.9005 15.0436 11.7879 15.0243 12.6599 14.8577C13.143 14.7653 13.6137 14.6292 14.0668 14.4524L14.8954 16.2753C14.2979 16.516 13.6753 16.6998 13.0354 16.8221C11.1097 17.1901 9.12436 16.983 7.32431 16.2358C7.29715 16.2221 7.27226 16.2092 7.24982 16.1971L7.24701 16.2033C7.02938 16.1108 6.81453 16.0104 6.60289 15.9021C6.35514 15.7753 6.11357 15.6387 5.87866 15.4927C5.74665 15.4106 5.61674 15.3256 5.48902 15.2377L5.49225 15.2306C4.91308 14.8668 4.0177 13.9904 3.91254 13.8868L3.91094 13.8903C3.16984 13.1108 2.55428 12.2116 2.09379 11.2233C1.86054 10.7227 2.07728 10.1278 2.57789 9.89451C3.0785 9.66126 3.67341 9.878 3.90667 10.3786C4.15711 10.9161 4.4649 11.4207 4.8226 11.8846ZM4.65063 17.0822L3.73978 19.0861C3.6788 19.2202 3.64992 19.3608 3.6499 19.4991V19.4993C3.6499 19.6201 3.67193 19.7393 3.71382 19.851C3.80368 20.0906 3.98496 20.296 4.23635 20.4103C4.73913 20.6388 5.33198 20.4165 5.56052 19.9137L6.41921 18.0245C6.17362 17.9189 5.93102 17.8049 5.69183 17.6825C5.33367 17.4993 4.98626 17.2988 4.65063 17.0822ZM13.2376 12.628L12.1565 10.2497L10.9088 12.9947C11.3669 13.0138 11.8285 12.9804 12.2845 12.8932C12.6106 12.8309 12.9293 12.7419 13.2376 12.628Z" fill="black"/>
</g>
<defs>
<clipPath id="clip0_1172_6638">
<rect width="24" height="24" fill="white"/>
</clipPath>
</defs>
</svg>
