<svg width="24" height="24" viewBox="0 0 24 24" fill="none" xmlns="http://www.w3.org/2000/svg">
<path fill-rule="evenodd" clip-rule="evenodd" d="M4 5C3.44772 5 3 5.44772 3 6V18C3 18.5523 3.44772 19 4 19H11C11.5523 19 12 19.4477 12 20C12 20.5523 11.5523 21 11 21H4C2.34315 21 1 19.6569 1 18V6C1 4.34315 2.34315 3 4 3H9.46482C10.1335 3 10.758 3.3342 11.1289 3.8906L12.5352 6H20C21.6569 6 23 7.34315 23 9V11.5C23 12.0523 22.5523 12.5 22 12.5C21.4477 12.5 21 12.0523 21 11.5V9C21 8.44772 20.5523 8 20 8H12.5352C11.8665 8 11.242 7.6658 10.8711 7.1094L9.46482 5H4ZM21.4637 15.1137C20.6721 14.4203 19.6351 14 18.5 14C16.0147 14 14 16.0147 14 18.5C14 19.6351 14.4203 20.6721 15.1137 21.4637C15.1596 21.5513 15.2193 21.6335 15.2929 21.7071C15.3665 21.7807 15.4487 21.8404 15.5363 21.8863C16.3279 22.5797 17.3649 23 18.5 23C20.9853 23 23 20.9853 23 18.5C23 17.3649 22.5797 16.3279 21.8863 15.5363C21.8404 15.4487 21.7807 15.3665 21.7071 15.2929C21.6335 15.2193 21.5513 15.1596 21.4637 15.1137ZM17.5864 20.8278C17.8694 20.939 18.1776 21 18.5 21C19.8807 21 21 19.8807 21 18.5C21 18.1776 20.939 17.8694 20.8278 17.5864L17.5864 20.8278ZM16.1722 19.4136C16.061 19.1306 16 18.8224 16 18.5C16 17.1193 17.1193 16 18.5 16C18.8224 16 19.1306 16.061 19.4136 16.1722L16.1722 19.4136Z" fill="black"/>
</svg>
