<svg width="24" height="24" viewBox="0 0 24 24" fill="none" xmlns="http://www.w3.org/2000/svg">
<path fill-rule="evenodd" clip-rule="evenodd" d="M7.5 1C6.94772 1 6.5 1.44772 6.5 2C6.5 2.55228 6.94772 3 7.5 3H9.38197L10.382 5H5.5C4.39543 5 3.5 5.89543 3.5 7V8.5C3.5 9.37089 4.05664 10.1118 4.83355 10.3863L5.82478 20.2985C5.97814 21.8321 7.26863 23 8.80989 23H15.1899C16.7312 23 18.0217 21.8321 18.175 20.2985L19.1663 10.3863C19.9433 10.1119 20.5 9.37096 20.5 8.5V7C20.5 5.89543 19.6046 5 18.5 5H12.618L11.1708 2.10557C10.832 1.428 10.1395 1 9.38197 1H7.5ZM5.5 7H11.9799C11.9938 7.00029 12.0077 7.00029 12.0217 7H18.5V8.5H5.5V7ZM7.81485 20.0995L6.8549 10.5H17.1449L16.185 20.0995C16.1339 20.6107 15.7037 21 15.1899 21H8.80989C8.29614 21 7.86597 20.6107 7.81485 20.0995ZM10.5 15.5C10.5 14.6716 11.1716 14 12 14C12.8284 14 13.5 14.6716 13.5 15.5C13.5 16.3284 12.8284 17 12 17C11.1716 17 10.5 16.3284 10.5 15.5ZM12 12C10.067 12 8.5 13.567 8.5 15.5C8.5 17.433 10.067 19 12 19C13.933 19 15.5 17.433 15.5 15.5C15.5 13.567 13.933 12 12 12Z" fill="black"/>
</svg>
