<svg width="24" height="24" viewBox="0 0 24 24" fill="none" xmlns="http://www.w3.org/2000/svg">
<path fill-rule="evenodd" clip-rule="evenodd" d="M6.34315 6.34314C3.21895 9.46734 3.21895 14.5327 6.34314 17.6569C9.46734 20.781 14.5327 20.781 17.6569 17.6569C20.781 14.5327 20.781 9.46734 17.6569 6.34315C14.5327 3.21895 9.46734 3.21895 6.34315 6.34314ZM4.92893 19.0711C1.02369 15.1658 1.02369 8.83417 4.92893 4.92893C8.83418 1.02369 15.1658 1.02369 19.0711 4.92893C22.9763 8.83418 22.9763 15.1658 19.0711 19.0711C15.1658 22.9763 8.83417 22.9763 4.92893 19.0711ZM9.17036 8.17157C9.72265 8.17157 10.1704 8.61929 10.1704 9.17157L10.1704 12.4135L14.1194 8.46446C14.5099 8.07394 15.143 8.07394 15.5336 8.46446C15.9241 8.85499 15.9241 9.48815 15.5336 9.87868L11.5838 13.8284L14.8272 13.8284C15.3795 13.8284 15.8272 14.2761 15.8272 14.8284C15.8272 15.3807 15.3795 15.8284 14.8272 15.8284L9.17036 15.8284C9.16916 15.8284 9.16795 15.8284 9.16675 15.8284C8.91178 15.8277 8.65704 15.7301 8.4625 15.5355C8.25732 15.3304 8.15994 15.0582 8.17036 14.7894L8.17036 9.17157C8.17036 8.61929 8.61808 8.17157 9.17036 8.17157Z" fill="black"/>
</svg>
