<svg width="24" height="24" viewBox="0 0 24 24" fill="none" xmlns="http://www.w3.org/2000/svg">
<path fill-rule="evenodd" clip-rule="evenodd" d="M22 4.5C22 5.05228 21.5523 5.5 21 5.5L3 5.5C2.44772 5.5 2 5.05228 2 4.5C2 3.94772 2.44772 3.5 3 3.5H21C21.5523 3.5 22 3.94772 22 4.5ZM22 9.5C22 10.0523 21.5523 10.5 21 10.5L11 10.5C10.4477 10.5 10 10.0523 10 9.5C10 8.94771 10.4477 8.5 11 8.5L21 8.5C21.5523 8.5 22 8.94772 22 9.5ZM21 15.5C21.5523 15.5 22 15.0523 22 14.5C22 13.9477 21.5523 13.5 21 13.5H11C10.4477 13.5 10 13.9477 10 14.5C10 15.0523 10.4477 15.5 11 15.5L21 15.5ZM3.29289 8.29289C3.68342 7.90237 4.31658 7.90237 4.70711 8.29289L7.70711 11.2929C8.09763 11.6834 8.09763 12.3166 7.70711 12.7071L4.70711 15.7071C4.31658 16.0976 3.68342 16.0976 3.29289 15.7071C2.90237 15.3166 2.90237 14.6834 3.29289 14.2929L5.58579 12L3.29289 9.70711C2.90237 9.31658 2.90237 8.68342 3.29289 8.29289ZM21 20.5C21.5523 20.5 22 20.0523 22 19.5C22 18.9477 21.5523 18.5 21 18.5L3 18.5C2.44772 18.5 2 18.9477 2 19.5C2 20.0523 2.44772 20.5 3 20.5H21Z" fill="black"/>
</svg>
