<svg width="24" height="24" viewBox="0 0 24 24" fill="none" xmlns="http://www.w3.org/2000/svg">
<path fill-rule="evenodd" clip-rule="evenodd" d="M3.5 12C3.5 7.30558 7.30558 3.5 12 3.5C16.6944 3.5 20.5 7.30558 20.5 12C20.5 16.6944 16.6944 20.5 12 20.5C10.4796 20.5 9.05527 20.1017 7.82246 19.4045C7.56971 19.2615 7.2673 19.2355 6.99385 19.3332L4.09832 20.3673L5.03131 17.5683C5.12875 17.276 5.08599 16.9551 4.91544 16.6986C4.02109 15.3531 3.5 13.7389 3.5 12ZM12 1.5C6.20101 1.5 1.5 6.20101 1.5 12C1.5 13.9669 2.04173 15.8099 2.98428 17.3849L2.20096 19.7349C1.67356 21.317 3.20041 22.8117 4.771 22.2508L7.24884 21.3658C8.67639 22.0913 10.2917 22.5 12 22.5C17.799 22.5 22.5 17.799 22.5 12C22.5 6.20101 17.799 1.5 12 1.5ZM9.37647 12.7449C9.6144 13.1187 9.88962 13.4753 10.2072 13.7929C10.5247 14.1104 10.8814 14.3856 11.2551 14.6236C11.5439 14.7789 11.7101 14.7898 11.7621 14.7884C11.7799 14.7879 11.7928 14.7861 11.8015 14.7843L12.793 13.7929C13.0294 13.5565 13.3683 13.4538 13.6962 13.5194L15.5543 13.891C16.5241 14.085 17.0441 15.1481 16.6017 16.0327L16.5222 16.1918C15.9663 17.3036 14.7067 18.0436 13.3648 17.6788C12.5096 17.4463 11.3437 17.0399 10.2346 16.3444C9.78123 16.0886 9.3013 15.7154 8.79295 15.2071C8.2846 14.6987 7.91143 14.2188 7.65567 13.7655C6.96011 12.6563 6.5537 11.4905 6.32123 10.6353C5.95645 9.2934 6.69648 8.03374 7.80825 7.47786L7.96733 7.39832C8.85197 6.956 9.91505 7.47593 10.109 8.44578L10.4806 10.3039C10.5462 10.6317 10.4436 10.9707 10.2072 11.2071L9.21575 12.1985C9.21391 12.2073 9.2121 12.2202 9.21163 12.2379C9.21028 12.2899 9.22117 12.4561 9.37647 12.7449ZM11.8161 14.7799C11.8162 14.78 11.8155 14.7803 11.8141 14.7808L11.8161 14.7799ZM9.21921 12.186L9.22013 12.1839C9.22011 12.1839 9.22001 12.1841 9.21984 12.1844L9.21921 12.186Z" fill="black"/>
</svg>
