<svg width="24" height="24" viewBox="0 0 24 24" fill="none" xmlns="http://www.w3.org/2000/svg">
<path fill-rule="evenodd" clip-rule="evenodd" d="M9 6C9 4.34315 10.3431 3 12 3C13.6569 3 15 4.34315 15 6H9ZM7 8V9C7 9.55228 7.44772 10 8 10C8.55228 10 9 9.55228 9 9V8H15V9C15 9.55228 15.4477 10 16 10C16.5523 10 17 9.55228 17 9V8H19.395L18.2751 19.199C18.1729 20.2214 17.3125 21 16.285 21H7.71497C6.68746 21 5.82713 20.2214 5.72489 19.199L4.60499 8H7ZM7 6C7 3.23858 9.23858 1 12 1C14.7614 1 17 3.23858 17 6H19.395C20.5783 6 21.5028 7.02164 21.3851 8.19901L20.2652 19.398C20.0607 21.4428 18.34 23 16.285 23H7.71497C5.65996 23 3.9393 21.4428 3.73482 19.398L2.61492 8.19901C2.49718 7.02164 3.42175 6 4.60499 6H7Z" fill="black"/>
</svg>
