<svg width="24" height="24" viewBox="0 0 24 24" fill="none" xmlns="http://www.w3.org/2000/svg">
<path fill-rule="evenodd" clip-rule="evenodd" d="M8.0185 8.03323C8.01032 5.82411 9.79455 4.02663 12.0037 4.01846C14.2128 4.01029 16.0103 5.79451 16.0184 8.00364C16.0264 10.165 14.3186 11.9324 12.1758 12.0154C12.1188 12.0053 12.06 12 12 12C11.8875 12 11.7761 12.001 11.6659 12.0031C9.62825 11.8252 8.02621 10.1185 8.0185 8.03323ZM8.06259 12.5297C6.8151 11.435 6.02513 9.83083 6.01851 8.04063C6.00625 4.72694 8.68259 2.03073 11.9963 2.01847C15.31 2.00622 18.0062 4.68255 18.0184 7.99624C18.0307 11.3099 15.3544 14.0061 12.0407 14.0184C11.8961 14.0189 11.7526 14.0143 11.6105 14.0048C9.12545 14.0672 7.50283 14.726 6.43055 15.5462C5.29766 16.4128 4.68851 17.5291 4.36091 18.5453C4.23826 18.9258 4.33196 19.2453 4.57131 19.5046C4.83082 19.7859 5.27822 20 5.81141 20H14.5C15.0523 20 15.5 20.4477 15.5 21C15.5 21.5523 15.0523 22 14.5 22H5.81141C4.7655 22 3.76951 21.5848 3.10155 20.861C2.4134 20.1154 2.09552 19.0542 2.45737 17.9317C2.87536 16.6351 3.68006 15.1321 5.21542 13.9577C5.99121 13.3642 6.93076 12.8721 8.06259 12.5297ZM19.5 22C19.5 22.5523 19.0523 23 18.5 23C17.9477 23 17.5 22.5523 17.5 22C17.5 21.4477 17.9477 21 18.5 21C19.0523 21 19.5 21.4477 19.5 22ZM18.5 14C17.6079 14 16.923 14.2892 16.4593 14.5874C16.2293 14.7352 16.0536 14.885 15.9309 15.0033C15.8693 15.0627 15.8203 15.1149 15.7838 15.1559C15.7656 15.1765 15.7504 15.1943 15.7382 15.209L15.7222 15.2286L15.7159 15.2365L15.7131 15.24L15.7119 15.2416L15.7112 15.2424C15.7109 15.2428 15.7107 15.2432 16.5 15.8571L15.7107 15.2432C15.3716 15.6791 15.4501 16.3074 15.8861 16.6465C16.3172 16.9818 16.9363 16.9087 17.2779 16.4855L17.2787 16.4847C17.2839 16.4788 17.2974 16.464 17.3191 16.443C17.3631 16.4007 17.4373 16.3362 17.5408 16.2697C17.7437 16.1393 18.0588 16 18.5 16C18.9446 16 19.1838 16.1379 19.3059 16.2555C19.4349 16.38 19.5 16.5447 19.5 16.7143C19.5 16.848 19.4708 16.8685 19.4692 16.8696L19.4691 16.8697C19.4377 16.907 19.3658 16.9666 19.1462 17.0864C19.1158 17.1029 19.0788 17.1218 19.0365 17.1434C18.6497 17.3408 17.8185 17.7651 17.54 18.72C17.3854 19.2502 17.6898 19.8053 18.22 19.96C18.7502 20.1146 19.3054 19.8102 19.46 19.28C19.4844 19.1964 19.4952 19.1741 20.1039 18.8422C20.3425 18.712 20.7081 18.5037 20.9997 18.157C21.3224 17.7733 21.5 17.2914 21.5 16.7143C21.5 16.0267 21.2318 15.3343 20.6941 14.8158C20.1495 14.2907 19.3888 14 18.5 14Z" fill="black"/>
</svg>
