<svg width="24" height="24" viewBox="0 0 24 24" fill="none" xmlns="http://www.w3.org/2000/svg">
<path fill-rule="evenodd" clip-rule="evenodd" d="M18.3285 2.94453C18.8502 2.76309 19.126 2.19314 18.9445 1.67151C18.7631 1.14988 18.1931 0.874095 17.6715 1.05553L6.33116 5H5.5C3.29086 5 1.5 6.79086 1.5 9V17C1.5 19.2091 3.29086 21 5.5 21H18.5C20.7091 21 22.5 19.2091 22.5 17V9C22.5 6.79086 20.7091 5 18.5 5H12.4191L18.3285 2.94453ZM6.47557 7C6.49181 7.0004 6.50809 7.0004 6.52441 7H18.5C19.6046 7 20.5 7.89543 20.5 9V17C20.5 18.1046 19.6046 19 18.5 19H5.5C4.39543 19 3.5 18.1046 3.5 17V9C3.5 7.89543 4.39543 7 5.5 7H6.47557ZM14.5 11C13.3954 11 12.5 11.8954 12.5 13C12.5 14.1046 13.3954 15 14.5 15C15.6046 15 16.5 14.1046 16.5 13C16.5 11.8954 15.6046 11 14.5 11ZM10.5 13C10.5 10.7909 12.2909 9 14.5 9C16.7091 9 18.5 10.7909 18.5 13C18.5 15.2091 16.7091 17 14.5 17C12.2909 17 10.5 15.2091 10.5 13ZM6 10C5.44772 10 5 10.4477 5 11C5 11.5523 5.44772 12 6 12H8C8.55228 12 9 11.5523 9 11C9 10.4477 8.55228 10 8 10H6ZM5 15C5 14.4477 5.44772 14 6 14H8C8.55228 14 9 14.4477 9 15C9 15.5523 8.55228 16 8 16H6C5.44772 16 5 15.5523 5 15Z" fill="black"/>
</svg>
