<svg width="24" height="24" viewBox="0 0 24 24" fill="none" xmlns="http://www.w3.org/2000/svg">
<path fill-rule="evenodd" clip-rule="evenodd" d="M2.54766 6.53259C2.90026 4.49121 4.67112 3 6.74272 3C9.00755 3 10.8593 4.76857 10.9923 7H13.0076C13.1406 4.76857 14.9924 3 17.2572 3C19.3288 3 21.0997 4.49121 21.4523 6.53258L22.8854 14.8298L22.8632 14.8336C22.9527 15.2078 23 15.5984 23 16C23 18.7614 20.7614 21 18 21C15.2386 21 13 18.7614 13 16V15C13 14.7348 12.8946 14.4804 12.7071 14.2929C12.5196 14.1054 12.2652 14 12 14C11.7348 14 11.4804 14.1054 11.2929 14.2929C11.1054 14.4804 11 14.7348 11 15C11 15.0045 11 15.009 10.9999 15.0135V15.9697L11 16C11 18.7614 8.76142 21 6 21C3.23858 21 1 18.7614 1 16C1 15.5984 1.04735 15.2078 1.13677 14.8336L1.1145 14.8298L2.54766 6.53259ZM10.9999 12.1716C11.3181 12.0591 11.656 12 12 12C12.3439 12 12.6818 12.0591 13 12.1716V9H10.9999V12.1716ZM8.99991 16V15.9766C8.98731 14.3305 7.64903 13 6 13C4.34315 13 3 14.3431 3 16C3 17.6569 4.34315 19 6 19C7.65685 19 9 17.6569 9 16H8.99991ZM8.99991 7.25719V11.9996C8.16427 11.3719 7.12557 11 6 11C5.17466 11 4.39603 11.2 3.70992 11.5541L4.51847 6.873C4.70542 5.79065 5.64435 5 6.74272 5C7.98933 5 8.99991 6.01058 8.99991 7.25719ZM15 16C15 14.3431 16.3431 13 18 13C19.6569 13 21 14.3431 21 16C21 17.6569 19.6569 19 18 19C16.3431 19 15 17.6569 15 16ZM15 11.9996V7.25719C15 6.01058 16.0106 5 17.2572 5C18.3556 5 19.2945 5.79065 19.4814 6.873L20.29 11.5541C19.6039 11.2 18.8253 11 18 11C16.8744 11 15.8357 11.3719 15 11.9996Z" fill="black"/>
</svg>
