<svg width="24" height="24" viewBox="0 0 24 24" fill="none" xmlns="http://www.w3.org/2000/svg">
<path fill-rule="evenodd" clip-rule="evenodd" d="M15 12C15 10.6193 16.1193 9.5 17.5 9.5C18.8807 9.5 20 10.6193 20 12C20 13.3807 18.8807 14.5 17.5 14.5C16.1193 14.5 15 13.3807 15 12ZM13.1115 13C13.5662 15.004 15.3584 16.5 17.5 16.5C19.9853 16.5 22 14.4853 22 12C22 9.51472 19.9853 7.5 17.5 7.5C15.3584 7.5 13.5662 8.99601 13.1115 11H3C2.44772 11 2 11.4477 2 12C2 12.5523 2.44772 13 3 13H13.1115Z" fill="black"/>
</svg>
