<svg width="24" height="24" viewBox="0 0 24 24" fill="none" xmlns="http://www.w3.org/2000/svg">
<path fill-rule="evenodd" clip-rule="evenodd" d="M6 3C3.79086 3 2 4.79086 2 7V17C2 19.2091 3.79086 21 6 21H15C15.2919 21 15.5693 20.8724 15.7593 20.6508L21.7593 13.6508C21.9146 13.4695 22 13.2387 22 13V7C22 4.79086 20.2091 3 18 3H6ZM4 7C4 5.89543 4.89543 5 6 5H18C19.1046 5 20 5.89543 20 7V12H18C15.7909 12 14 13.7909 14 16V19H6C4.89543 19 4 18.1046 4 17V7ZM18 14H18.8258L16 17.2967V16C16 14.8954 16.8954 14 18 14ZM6.11001 12.6437C6.00473 12.1015 6.3589 11.5767 6.90106 11.4714C7.44322 11.3661 7.96807 11.7203 8.07334 12.2624C8.24233 13.1328 8.69569 13.9223 9.36218 14.507C10.0287 15.0916 10.8705 15.4383 11.7554 15.4925C12.3067 15.5263 12.7262 16.0005 12.6924 16.5518C12.6587 17.103 12.1844 17.5225 11.6332 17.4888C10.3058 17.4075 9.043 16.8875 8.04326 16.0105C7.04353 15.1335 6.3635 13.9492 6.11001 12.6437ZM10.5 9C10.5 9.82843 9.82843 10.5 9 10.5C8.17157 10.5 7.5 9.82843 7.5 9C7.5 8.17157 8.17157 7.5 9 7.5C9.82843 7.5 10.5 8.17157 10.5 9ZM15 10.5C15.8284 10.5 16.5 9.82843 16.5 9C16.5 8.17157 15.8284 7.5 15 7.5C14.1716 7.5 13.5 8.17157 13.5 9C13.5 9.82843 14.1716 10.5 15 10.5Z" fill="black"/>
</svg>
