<svg width="24" height="24" viewBox="0 0 24 24" fill="none" xmlns="http://www.w3.org/2000/svg">
<path fill-rule="evenodd" clip-rule="evenodd" d="M2.66136 7.59453C3.25388 4.63193 5.85672 2.5 8.87728 2.5H15.1229C18.1434 2.5 20.7463 4.63193 21.3388 7.59453C21.5359 8.5803 20.782 9.5 19.7767 9.5H4.22347C3.21819 9.5 2.46421 8.5803 2.66136 7.59453ZM4.74942 7.5H19.2507C18.6781 5.73011 17.0212 4.5 15.1229 4.5H8.87728C6.97895 4.5 5.32204 5.73011 4.74942 7.5ZM3 16.6642L2.20711 17.4571C1.81658 17.8476 1.18342 17.8476 0.792893 17.4571C0.402369 17.0665 0.402369 16.4334 0.792893 16.0428L1.71272 15.123C2.66933 14.1664 4.14785 13.9684 5.32246 14.6396L6.31592 15.2073C6.67209 15.4108 7.11643 15.3762 7.43675 15.1199L7.62592 14.9686C8.72194 14.0918 10.2794 14.0929 11.3747 14.9691C11.7399 15.2613 12.2601 15.2613 12.6253 14.9691C13.7206 14.0929 15.2781 14.0918 16.3741 14.9686L16.5632 15.1199C16.8836 15.3762 17.3279 15.4108 17.6841 15.2073L18.6775 14.6396C19.8521 13.9684 21.3307 14.1664 22.2873 15.123L23.2071 16.0428C23.5976 16.4334 23.5976 17.0665 23.2071 17.4571C22.8166 17.8476 22.1834 17.8476 21.7929 17.4571L21 16.6642V17.5C21 19.7091 19.2091 21.5 17 21.5H7C4.79086 21.5 3 19.7091 3 17.5V16.6642ZM19 16.7588V17.5C19 18.6046 18.1046 19.5 17 19.5H7C5.89543 19.5 5 18.6046 5 17.5V16.7588L5.32364 16.9438C6.39215 17.5544 7.72517 17.4504 8.68615 16.6817L8.87531 16.5303C9.24016 16.2385 9.75972 16.2383 10.1253 16.5308C11.221 17.4073 12.779 17.4073 13.8747 16.5308C14.2403 16.2383 14.7598 16.2385 15.1247 16.5303L15.3139 16.6817C16.2748 17.4504 17.6079 17.5544 18.6764 16.9438L19 16.7588ZM1 12C1 11.4477 1.44772 11 2 11H22C22.5523 11 23 11.4477 23 12C23 12.5523 22.5523 13 22 13H2C1.44772 13 1 12.5523 1 12ZM8.5 7C9.05229 7 9.5 6.55228 9.5 6C9.5 5.44772 9.05229 5 8.5 5C7.94772 5 7.5 5.44772 7.5 6C7.5 6.55228 7.94772 7 8.5 7ZM16.5 6C16.5 6.55228 16.0523 7 15.5 7C14.9477 7 14.5 6.55228 14.5 6C14.5 5.44772 14.9477 5 15.5 5C16.0523 5 16.5 5.44772 16.5 6ZM12 7C12.5523 7 13 6.55228 13 6C13 5.44772 12.5523 5 12 5C11.4477 5 11 5.44772 11 6C11 6.55228 11.4477 7 12 7Z" fill="black"/>
</svg>
