<svg width="24" height="24" viewBox="0 0 24 24" fill="none" xmlns="http://www.w3.org/2000/svg">
<path fill-rule="evenodd" clip-rule="evenodd" d="M10.8 4.39997C12.1185 3.41111 14 4.35188 14 5.99997V18C14 19.6481 12.1185 20.5888 10.8 19.6L6.71175 16.5338L5.39802 16.6652C3.04327 16.9006 1 15.0515 1 12.685V11.3149C1 8.94844 3.04327 7.09931 5.39801 7.33478L6.71175 7.46616L10.8 4.39997ZM12 5.99997L7.6 9.29997C7.39951 9.45034 7.14987 9.51994 6.9005 9.49501L5.19901 9.32486C4.02164 9.20712 3 10.1317 3 11.3149V12.685C3 13.8683 4.02164 14.7928 5.19901 14.6751L6.9005 14.5049C7.14987 14.48 7.39951 14.5496 7.6 14.7L12 18V5.99997ZM22.7071 8.79286C23.0976 9.18339 23.0976 9.81655 22.7071 10.2071L20.9142 12L22.7071 13.7928C23.0976 14.1834 23.0976 14.8165 22.7071 15.207C22.3166 15.5976 21.6834 15.5976 21.2929 15.207L19.5 13.4142L17.7071 15.2071C17.3166 15.5976 16.6834 15.5976 16.2929 15.2071C15.9024 14.8166 15.9024 14.1834 16.2929 13.7929L18.0858 12L16.2929 10.207C15.9024 9.81652 15.9024 9.18336 16.2929 8.79283C16.6834 8.40231 17.3166 8.40231 17.7071 8.79283L19.5 10.5857L21.2929 8.79286C21.6834 8.40234 22.3166 8.40234 22.7071 8.79286Z" fill="black"/>
</svg>
