<svg width="24" height="24" viewBox="0 0 24 24" fill="none" xmlns="http://www.w3.org/2000/svg">
<path fill-rule="evenodd" clip-rule="evenodd" d="M20 5C20 3.34315 18.6569 2 17 2H7C5.34315 2 4 3.34315 4 5V19C4 20.6569 5.34314 22 7 22H17C18.6569 22 20 20.6569 20 19L20 5ZM17 4C17.5523 4 18 4.44772 18 5L18 19C18 19.5523 17.5523 20 17 20H7C6.44771 20 6 19.5523 6 19L6 5C6 4.44772 6.44771 4 7 4L17 4ZM12.7756 7.36877C12.5857 7.13546 12.3008 7.00004 12 7.00004C11.6992 7.00004 11.4143 7.13546 11.2244 7.36877L7.96863 11.3688C7.66937 11.7364 7.66937 12.2637 7.96863 12.6313L11.2244 16.6313C11.4143 16.8646 11.6992 17 12 17C12.3008 17 12.5857 16.8646 12.7756 16.6313L16.0314 12.6313C16.3306 12.2637 16.3306 11.7364 16.0314 11.3688L12.7756 7.36877ZM10.0336 12L12 9.58414L13.9664 12L12 14.4159L10.0336 12ZM6.725 6.20004L7.6 5.03337C7.8 4.76671 8.2 4.76671 8.4 5.03337L9.275 6.20004C9.40833 6.37782 9.40833 6.62226 9.275 6.80004L8.4 7.96671C8.2 8.23337 7.8 8.23337 7.6 7.96671L6.725 6.80004C6.59167 6.62226 6.59167 6.37782 6.725 6.20004ZM15.6 16.0334L14.725 17.2C14.5917 17.3778 14.5917 17.6223 14.725 17.8L15.6 18.9667C15.8 19.2334 16.2 19.2334 16.4 18.9667L17.275 17.8C17.4083 17.6223 17.4083 17.3778 17.275 17.2L16.4 16.0334C16.2 15.7667 15.8 15.7667 15.6 16.0334Z" fill="black"/>
</svg>
