<svg width="24" height="24" viewBox="0 0 24 24" fill="none" xmlns="http://www.w3.org/2000/svg">
<path fill-rule="evenodd" clip-rule="evenodd" d="M5.5 10.5C5.5 6.91015 8.41015 4 12 4C15.5899 4 18.5 6.91015 18.5 10.5C18.5 13.7498 16.1151 16.4425 13 16.9235V14.9599L16.1508 12.2593C16.5701 11.8998 16.6187 11.2685 16.2593 10.8492C15.8999 10.4299 15.2686 10.3813 14.8492 10.7407L13 12.3258V7.5C13 6.94772 12.5523 6.5 12 6.5C11.4477 6.5 11 6.94772 11 7.5V9.36496L9.64021 8.23178C9.21593 7.87821 8.58537 7.93554 8.2318 8.35982C7.87824 8.78409 7.93556 9.41466 8.35984 9.76822L11 11.9684V16.9236C7.88492 16.4426 5.5 13.7498 5.5 10.5ZM11 18.9418C6.77684 18.4469 3.5 14.8561 3.5 10.5C3.5 5.80558 7.30558 2 12 2C16.6944 2 20.5 5.80558 20.5 10.5C20.5 14.8561 17.2232 18.4469 13 18.9418V22C13 22.5523 12.5523 23 12 23C11.4477 23 11 22.5523 11 22V18.9418Z" fill="black"/>
</svg>
