<svg width="24" height="24" viewBox="0 0 24 24" fill="none" xmlns="http://www.w3.org/2000/svg">
<path fill-rule="evenodd" clip-rule="evenodd" d="M7.49613 2.63623C7.86725 2.41975 8.33517 2.46451 8.65851 2.74743L12 5.67124L15.3415 2.74743C15.6648 2.46451 16.1327 2.41975 16.5039 2.63623L22.5039 6.13623C22.7907 6.30353 22.9757 6.60228 22.9978 6.93358C23.0198 7.26487 22.876 7.58552 22.6139 7.78936L19.1474 10.4856L22.1 12.7C22.3722 12.9041 22.5219 13.2327 22.4974 13.572C22.4729 13.9114 22.2775 14.215 21.9788 14.3779L18.5 16.2754V17.5C18.5 17.8419 18.3253 18.1601 18.0369 18.3437L12.8053 21.6728C12.314 21.9855 11.686 21.9855 11.1947 21.6728L5.96312 18.3437C5.67468 18.1601 5.5 17.8419 5.5 17.5V16.2754L2.02115 14.3779C1.72247 14.215 1.5271 13.9114 1.5026 13.572C1.4781 13.2327 1.62782 12.9041 1.90001 12.7L4.8526 10.4856L1.38606 7.78936C1.12397 7.58552 0.980156 7.26487 1.00221 6.93358C1.02427 6.60228 1.20933 6.30353 1.49613 6.13623L7.49613 2.63623ZM8.29348 17.456L12 19.8147L15.7065 17.456C15.6244 17.4308 15.5448 17.3948 15.47 17.348L12 15.1793L8.53 17.348C8.45518 17.3948 8.37562 17.4308 8.29348 17.456ZM12 8.18532L15.6374 10.5L12 12.8147L8.36264 10.5L12 8.18532ZM3.78132 7.11862L6.55767 9.278L10.3366 6.87326L7.8827 4.72614L3.78132 7.11862ZM20.2187 7.11862L17.4423 9.278L13.6634 6.87326L16.1173 4.72614L20.2187 7.11862ZM4.34421 13.3668L6.54667 11.715L10.1254 13.9924L7.96569 15.3422L4.34421 13.3668ZM17.4533 11.715L19.6558 13.3668L16.0343 15.3422L13.8746 13.9924L17.4533 11.715Z" fill="black"/>
</svg>
