<svg width="24" height="24" viewBox="0 0 24 24" fill="none" xmlns="http://www.w3.org/2000/svg">
<path fill-rule="evenodd" clip-rule="evenodd" d="M7.28259 4.55273C6.92898 4.55273 6.59671 4.72193 6.38873 5.00791L3.84896 8.50009H6.53937C6.56908 8.45826 6.60055 8.41738 6.63375 8.37753L9.82108 4.55273H7.28259ZM14.1789 4.55273L17.3662 8.37753C17.3994 8.41738 17.4309 8.45826 17.4606 8.50009H20.1511L17.6113 5.00791C17.4033 4.72193 17.0711 4.55273 16.7174 4.55273H14.1789ZM14.865 8.50009L12 5.06213L9.13503 8.50009H14.865ZM8.553 10.5001H15.447L12 18.0835L8.553 10.5001ZM6.35609 10.5001H4.25361L8.92827 16.1589L6.35609 10.5001ZM15.0717 16.159L17.6439 10.5001H19.7464L15.0717 16.159ZM4.77126 3.83157C5.3556 3.0281 6.28911 2.55273 7.28259 2.55273H16.7174C17.7109 2.55273 18.6444 3.0281 19.2288 3.83157L21.8485 7.43367C22.6821 8.57989 22.6338 10.1451 21.7312 11.2378L13.9883 20.6108C12.9568 21.8594 11.0432 21.8594 10.0117 20.6108L2.26885 11.2378C1.3662 10.1451 1.31793 8.57989 2.15155 7.43367L4.77126 3.83157Z" fill="black"/>
</svg>
