<svg width="24" height="24" viewBox="0 0 24 24" fill="none" xmlns="http://www.w3.org/2000/svg">
<path fill-rule="evenodd" clip-rule="evenodd" d="M9 1C8.44772 1 8 1.44772 8 2C8 2.55228 8.44772 3 9 3H11V5.05493C6.50005 5.55237 3 9.36745 3 14C3 18.9706 7.02944 23 12 23C16.9706 23 21 18.9706 21 14C21 11.875 20.2635 9.92198 19.0319 8.38231L20.7071 6.70711C21.0976 6.31658 21.0976 5.68342 20.7071 5.29289C20.3166 4.90237 19.6834 4.90237 19.2929 5.29289L17.6177 6.9681C16.3229 5.93238 14.7359 5.24682 13 5.05493V3H15C15.5523 3 16 2.55228 16 2C16 1.44772 15.5523 1 15 1H9ZM12 7C8.13401 7 5 10.134 5 14C5 17.866 8.13401 21 12 21C15.866 21 19 17.866 19 14C19 10.134 15.866 7 12 7ZM12 9C12.5523 9 13 9.44771 13 10V14C13 14.5523 12.5523 15 12 15C11.4477 15 11 14.5523 11 14V10C11 9.44771 11.4477 9 12 9Z" fill="black"/>
</svg>
