<svg width="24" height="24" viewBox="0 0 24 24" fill="none" xmlns="http://www.w3.org/2000/svg">
<g clip-path="url(#clip0_1172_6649)">
<path fill-rule="evenodd" clip-rule="evenodd" d="M12.0001 4.00022C9.43839 4.00022 7.15794 5.20424 5.69372 7.07724L7.4012 10.0347C8.1646 8.25084 9.93554 7.00085 11.9985 7.00022L12.0001 7.00022L18.2454 7.00022C16.7793 5.17129 14.5264 4.00022 12.0001 4.00022ZM4.00006 12.0002C4.00006 10.9733 4.19356 9.99154 4.54608 9.08946L7.62087 14.4152C8.47264 15.9564 10.1145 17.0002 12.0001 17.0002C12.2023 17.0002 12.4018 16.9882 12.5978 16.9649L10.8895 19.9237C6.99684 19.3831 4.00006 16.0416 4.00006 12.0002ZM13.2069 19.9098L16.2856 14.5774C16.7392 13.8248 17.0001 12.943 17.0001 12.0002C17.0001 10.8746 16.6281 9.83588 16.0004 9.00022L19.4185 9.00022C19.7936 9.92665 20.0001 10.9393 20.0001 12.0002C20.0001 16.0083 17.0526 19.3279 13.2069 19.9098ZM14.6132 13.4749C14.8595 13.0394 15.0001 12.5362 15.0001 12.0002C15.0001 10.3434 13.6569 9.00022 12.0001 9.00022C10.3432 9.00022 9.00006 10.3434 9.00006 12.0002C9.00006 12.5254 9.13501 13.0191 9.37213 13.4484L9.40203 13.5002C9.40671 13.5083 9.41126 13.5165 9.41569 13.5246C9.93779 14.4079 10.8997 15.0002 12.0001 15.0002C13.0909 15.0002 14.0458 14.418 14.5709 13.5473L14.5981 13.5002C14.603 13.4917 14.6081 13.4832 14.6132 13.4749ZM2.00006 12.0002C2.00006 6.47737 6.47722 2.00022 12.0001 2.00022C17.5229 2.00022 22.0001 6.47737 22.0001 12.0002C22.0001 17.5231 17.5229 22.0002 12.0001 22.0002C6.47721 22.0002 2.00006 17.5231 2.00006 12.0002Z" fill="black"/>
</g>
<defs>
<clipPath id="clip0_1172_6649">
<rect width="24" height="24" fill="white"/>
</clipPath>
</defs>
</svg>
