<svg width="24" height="24" viewBox="0 0 24 24" fill="none" xmlns="http://www.w3.org/2000/svg">
<path fill-rule="evenodd" clip-rule="evenodd" d="M5.13872 5.06861L19.6554 9.67148C19.7356 9.6969 19.7699 9.73296 19.7892 9.76169C19.8132 9.79756 19.8311 9.85099 19.8298 9.91488C19.8285 9.97878 19.8084 10.0314 19.7829 10.0663C19.7626 10.0942 19.7268 10.1288 19.6457 10.151L12.7369 12.0352C12.3654 12.1365 12.085 12.4422 12.0161 12.8211L10.8391 19.2945C10.8235 19.3805 10.791 19.4189 10.7652 19.4408C10.7322 19.4688 10.6801 19.4933 10.6145 19.4989C10.5489 19.5045 10.4934 19.4893 10.4562 19.4673C10.427 19.4501 10.3884 19.4178 10.3584 19.3357L5.13872 5.06861ZM5.25797 3.00829C3.87234 2.56895 2.58615 3.9126 3.08558 5.27772L8.48014 20.0229C9.26821 22.1769 12.3966 21.909 12.8069 19.6523L13.6425 15.0566L19.2929 20.7071C19.6834 21.0976 20.3166 21.0976 20.7071 20.7071C21.0976 20.3165 21.0976 19.6834 20.7071 19.2928L14.9256 13.5113L20.1719 12.0805C22.3362 11.4902 22.3983 8.44304 20.2599 7.76501L5.25797 3.00829Z" fill="black"/>
</svg>
