<svg width="24" height="24" viewBox="0 0 24 24" fill="none" xmlns="http://www.w3.org/2000/svg">
<path fill-rule="evenodd" clip-rule="evenodd" d="M12 22C11.4477 22 11 21.5523 11 21C11 20.4477 11.4477 20 12 20H18C18.5523 20 19 19.5523 19 19V12H15C13.3431 12 12 10.6569 12 9V4H6C5.44772 4 5 4.44772 5 5V14C5 14.5523 4.55228 15 4 15C3.44772 15 3 14.5523 3 14V5C3 3.34315 4.34315 2 6 2H13C13.2884 2 13.5627 2.12448 13.7526 2.3415L20.7526 10.3415C20.9121 10.5238 21 10.7578 21 11V19C21 20.6569 19.6569 22 18 22H12ZM15 10H17.7962L14 5.66145V9C14 9.55228 14.4477 10 15 10ZM2 18C1.44772 18 1 18.4477 1 19C1 19.5523 1.44772 20 2 20H8C8.55228 20 9 19.5523 9 19C9 18.4477 8.55228 18 8 18H2Z" fill="black"/>
</svg>
