<svg width="24" height="24" viewBox="0 0 24 24" fill="none" xmlns="http://www.w3.org/2000/svg">
<path fill-rule="evenodd" clip-rule="evenodd" d="M11 4C11 4.82843 10.3284 5.5 9.5 5.5C8.67157 5.5 8 4.82843 8 4C8 3.17157 8.67157 2.5 9.5 2.5C10.3284 2.5 11 3.17157 11 4ZM12 8.5C12.8284 8.5 13.5 7.82843 13.5 7C13.5 6.17157 12.8284 5.5 12 5.5C11.1716 5.5 10.5 6.17157 10.5 7C10.5 7.82843 11.1716 8.5 12 8.5ZM8.27149 18.2546C5.53419 17.4824 3.52495 14.9765 3.50023 12H20.4998C20.4751 14.9765 18.4658 17.4824 15.7285 18.2546C15.2976 18.3761 15 18.7693 15 19.217V20H9V19.217C9 18.7693 8.7024 18.3761 8.27149 18.2546ZM3.44444 10C2.37056 10 1.5 10.8706 1.5 11.9444C1.5 15.5941 3.78452 18.708 7 19.9379V20C7 21.1046 7.89543 22 9 22H15C16.1046 22 17 21.1046 17 20V19.9379C20.2155 18.708 22.5 15.5941 22.5 11.9444C22.5 10.8706 21.6294 10 20.5556 10H3.44444ZM18.5 7C18.5 7.82843 17.8284 8.5 17 8.5C16.1716 8.5 15.5 7.82843 15.5 7C15.5 6.17157 16.1716 5.5 17 5.5C17.8284 5.5 18.5 6.17157 18.5 7ZM7 8.5C7.82843 8.5 8.5 7.82843 8.5 7C8.5 6.17157 7.82843 5.5 7 5.5C6.17157 5.5 5.5 6.17157 5.5 7C5.5 7.82843 6.17157 8.5 7 8.5ZM14.5 5.5C15.3284 5.5 16 4.82843 16 4C16 3.17157 15.3284 2.5 14.5 2.5C13.6716 2.5 13 3.17157 13 4C13 4.82843 13.6716 5.5 14.5 5.5Z" fill="black"/>
</svg>
