<svg width="24" height="24" viewBox="0 0 24 24" fill="none" xmlns="http://www.w3.org/2000/svg">
<path fill-rule="evenodd" clip-rule="evenodd" d="M5.44432 4.40831C5.31077 4.24508 5.4269 4 5.63781 4H18.3622C18.5731 4 18.6892 4.24508 18.5557 4.40831L17.2534 6H6.74662L5.44432 4.40831ZM8.38298 8L12 12.4208L15.617 8H8.38298ZM3.89641 5.67478L11 14.357V20H9.00001C8.44772 20 8.00001 20.4477 8.00001 21C8.00001 21.5523 8.44772 22 9.00001 22H15C15.5523 22 16 21.5523 16 21C16 20.4477 15.5523 20 15 20H13V14.357L20.1036 5.67479C21.3056 4.20569 20.2604 2 18.3622 2H5.63781C3.73965 2 2.69442 4.20569 3.89641 5.67478Z" fill="black"/>
</svg>
