<svg width="24" height="24" viewBox="0 0 24 24" fill="none" xmlns="http://www.w3.org/2000/svg">
<path fill-rule="evenodd" clip-rule="evenodd" d="M14 5.99997C14 4.35188 12.1185 3.41111 10.8 4.39997L6.71175 7.46616L5.39801 7.33478C3.04327 7.09931 1 8.94844 1 11.3149V12.685C1 15.0515 3.04327 16.9006 5.39802 16.6652L6.71175 16.5338L10.8 19.6C12.1185 20.5888 14 19.6481 14 18V5.99997ZM7.6 9.29997L12 5.99997V18L7.6 14.7C7.39951 14.5496 7.14987 14.48 6.9005 14.5049L5.19901 14.6751C4.02164 14.7928 3 13.8683 3 12.685V11.3149C3 10.1317 4.02164 9.20712 5.19901 9.32486L6.9005 9.49501C7.14987 9.51994 7.39951 9.45034 7.6 9.29997ZM16.5 10.9999C15.9477 10.9999 15.5 11.4477 15.5 11.9999C15.5 12.5522 15.9477 12.9999 16.5 12.9999H22.5C23.0523 12.9999 23.5 12.5522 23.5 11.9999C23.5 11.4477 23.0523 10.9999 22.5 10.9999H16.5Z" fill="black"/>
</svg>
