<svg width="24" height="24" viewBox="0 0 24 24" fill="none" xmlns="http://www.w3.org/2000/svg">
<path fill-rule="evenodd" clip-rule="evenodd" d="M3 6C3 5.44772 3.44772 5 4 5H9.46482L10.8711 7.1094C11.242 7.6658 11.8665 8 12.5352 8H20C20.5523 8 21 8.44772 21 9V15C21 15.5523 21.4477 16 22 16C22.5523 16 23 15.5523 23 15V9C23 7.34315 21.6569 6 20 6H12.5352L11.1289 3.8906C10.758 3.3342 10.1335 3 9.46482 3H4C2.34315 3 1 4.34315 1 6V18C1 19.6569 2.34315 21 4 21H12C12.5523 21 13 20.5523 13 20C13 19.4477 12.5523 19 12 19H4C3.44772 19 3 18.5523 3 18V6ZM16 18C15.4477 18 15 18.4477 15 19C15 19.5523 15.4477 20 16 20H19H22C22.5523 20 23 19.5523 23 19C23 18.4477 22.5523 18 22 18H19H16Z" fill="black"/>
</svg>
