<svg width="24" height="24" viewBox="0 0 24 24" fill="none" xmlns="http://www.w3.org/2000/svg">
<path fill-rule="evenodd" clip-rule="evenodd" d="M12.6117 4.03275C12.2703 3.67626 11.7297 3.67626 11.3883 4.03275C10.2653 5.20557 8.63731 7.01114 7.29659 8.91109C6.62623 9.86106 6.04231 10.8142 5.62917 11.7077C5.21056 12.613 5 13.3878 5 14C5 17.866 8.13401 21 12 21C15.866 21 19 17.866 19 14C19 13.3878 18.7894 12.613 18.3708 11.7077C17.9577 10.8142 17.3738 9.86106 16.7034 8.91109C15.3627 7.01114 13.7347 5.20557 12.6117 4.03275ZM9.94377 2.64954C11.0726 1.47066 12.9274 1.47066 14.0562 2.64954C15.2092 3.85361 16.9142 5.74097 18.3375 7.75796C19.0492 8.76646 19.705 9.82777 20.1862 10.8683C20.6618 11.897 21 12.9757 21 14C21 18.9705 16.9706 23 12 23C7.02944 23 3 18.9705 3 14C3 12.9757 3.3382 11.897 3.81385 10.8683C4.29498 9.82777 4.95082 8.76646 5.66248 7.75796C7.08579 5.74097 8.79082 3.85361 9.94377 2.64954Z" fill="black"/>
</svg>
