<svg width="24" height="24" viewBox="0 0 24 24" fill="none" xmlns="http://www.w3.org/2000/svg">
<path fill-rule="evenodd" clip-rule="evenodd" d="M18 5C19.6569 5 21 6.34315 21 8C22.1046 8 23 8.89543 23 10V14C23 15.1046 22.1046 16 21 16C21 17.6569 19.6569 19 18 19H4C2.34315 19 1 17.6569 1 16V8C1 6.34315 2.34315 5 4 5H18ZM19 8C19 7.44772 18.5523 7 18 7H4C3.44772 7 3 7.44772 3 8V16C3 16.5523 3.44772 17 4 17H18C18.5523 17 19 16.5523 19 16V15C19 14.4477 19.4477 14 20 14H21V10H20C19.4477 10 19 9.55228 19 9V8ZM5 9H9V15H5V9Z" fill="black"/>
</svg>
