<svg width="24" height="24" viewBox="0 0 24 24" fill="none" xmlns="http://www.w3.org/2000/svg">
<path fill-rule="evenodd" clip-rule="evenodd" d="M12 4C7.58172 4 4 7.58172 4 12C4 13.7686 4.57393 15.4032 5.54571 16.7277C6.29713 15.9544 7.18319 15.3207 8.16297 14.8589C9.4198 14.2666 10.7967 13.9732 12.1858 14.0019C13.5749 14.0306 14.9386 14.3805 16.1699 15.0243C17.0194 15.4684 17.79 16.0441 18.4543 16.7277C19.4261 15.4032 20 13.7686 20 12C20 7.58172 16.4183 4 12 4ZM12 20C10.072 20 8.30325 19.318 6.92193 18.182C7.51859 17.5531 8.2282 17.0392 9.01564 16.668C9.99317 16.2073 11.0641 15.9792 12.1445 16.0015C13.225 16.0238 14.2855 16.296 15.2432 16.7967C15.9289 17.1551 16.5484 17.6238 17.0781 18.182C15.6967 19.318 13.928 20 12 20ZM2 12C2 6.47715 6.47715 2 12 2C17.5228 2 22 6.47715 22 12C22 17.5228 17.5228 22 12 22C6.47715 22 2 17.5228 2 12ZM10.5 9.5C10.5 8.67157 11.1716 8 12 8C12.8284 8 13.5 8.67157 13.5 9.5C13.5 10.3284 12.8284 11 12 11C11.1716 11 10.5 10.3284 10.5 9.5ZM12 6C10.067 6 8.5 7.567 8.5 9.5C8.5 11.433 10.067 13 12 13C13.933 13 15.5 11.433 15.5 9.5C15.5 7.567 13.933 6 12 6Z" fill="black"/>
</svg>
