<svg width="24" height="24" viewBox="0 0 24 24" fill="none" xmlns="http://www.w3.org/2000/svg">
<path fill-rule="evenodd" clip-rule="evenodd" d="M4.26745 7.51453C4.18378 7.5827 4.10198 7.65223 4.02206 7.72309C4.06318 7.47429 4.10654 7.22638 4.15216 6.98118C4.38682 5.71994 4.67075 4.58893 4.99133 3.79415C5.15355 3.39198 5.30175 3.136 5.41639 2.99729C5.42366 2.9885 5.43039 2.98064 5.43657 2.97364C5.84768 3.02542 6.40043 3.34026 6.99819 4.03644C7.40289 4.50776 7.76852 5.08804 8.0585 5.70271C6.57175 6.0726 5.29696 6.67567 4.26745 7.51453ZM8.51559 2.73355C9.15922 3.48316 9.70296 4.40671 10.0894 5.35489C10.6997 5.29249 11.3366 5.26135 11.9986 5.26135C12.663 5.26135 13.3011 5.29767 13.9115 5.36861C14.2965 4.42336 14.8374 3.50085 15.4771 2.75038C16.2728 1.81703 17.3848 0.965881 18.6833 0.965881C19.3511 0.965881 19.8297 1.36558 20.1252 1.72309C20.4282 2.08963 20.6678 2.56074 20.8635 3.046C21.2588 4.02609 21.5715 5.31127 21.8141 6.61537C22.3004 9.22959 22.5469 12.1553 22.5469 13.4204C22.5469 13.4666 22.5437 13.512 22.5377 13.5565C22.5419 13.6697 22.544 13.7834 22.544 13.8977C22.544 15.1643 22.3515 16.3975 21.8929 17.5194L22.7846 17.8166C23.2561 17.9738 23.511 18.4835 23.3538 18.955C23.1966 19.4266 22.6869 19.6814 22.2154 19.5243L20.991 19.1161C20.975 19.1374 20.9589 19.1586 20.9426 19.1798L22.1832 20.4204C22.5347 20.7719 22.5347 21.3417 22.1832 21.6932C21.8318 22.0447 21.2619 22.0447 20.9105 21.6932L19.6708 20.4536C17.9292 21.8081 15.4022 22.5341 11.9986 22.5341C8.73536 22.5341 6.25976 21.9599 4.51515 20.7519L3.57387 21.6932C3.2224 22.0447 2.65255 22.0447 2.30108 21.6932C1.94961 21.3417 1.94961 20.7719 2.30108 20.4204L3.18132 19.5402C3.07718 19.4156 2.97845 19.288 2.88494 19.1575L1.78458 19.5243C1.31303 19.6814 0.803344 19.4266 0.646161 18.955C0.488978 18.4835 0.743822 17.9738 1.21537 17.8166L2.03368 17.5438C1.62322 16.4425 1.4531 15.2104 1.4531 13.8977C1.4531 13.7747 1.45513 13.6526 1.4592 13.5315C1.45517 13.495 1.4531 13.458 1.4531 13.4204C1.4531 12.1553 1.69952 9.22958 2.1859 6.61536C2.42853 5.31126 2.74121 4.02608 3.13654 3.04599C3.33228 2.56073 3.57187 2.08962 3.87484 1.72309C4.17035 1.36557 4.64891 0.965881 5.31678 0.965881C6.60967 0.965881 7.71918 1.80603 8.51559 2.73355ZM9.66015 7.42334C9.60237 7.43761 9.54439 7.4465 9.48676 7.45033C7.7893 7.72646 6.47876 8.29258 5.5308 9.065C4.18841 10.1588 3.4531 11.7632 3.4531 13.8977C3.4531 16.1267 4.00746 17.7039 5.2018 18.755C6.42688 19.833 8.52069 20.5341 11.9986 20.5341C15.4399 20.5341 17.5408 19.7298 18.7789 18.5908C20.0021 17.4654 20.544 15.8637 20.544 13.8977C20.544 12.0249 19.8239 10.4007 18.4495 9.22998C17.4994 8.42064 16.1976 7.79619 14.5301 7.48321C14.4473 7.47951 14.3637 7.46539 14.2808 7.43997L14.2755 7.43834C13.5782 7.32324 12.8195 7.26135 11.9986 7.26135C11.1517 7.26135 10.3728 7.31732 9.66015 7.42334ZM5.48769 2.92353C5.48855 2.92287 5.48898 2.92247 5.48898 2.92239C5.48898 2.92222 5.48706 2.92344 5.48323 2.92659C5.48525 2.9253 5.48673 2.92426 5.48769 2.92353ZM20.0141 7.9456C19.9625 7.62222 19.907 7.29942 19.8478 6.98117C19.6132 5.71993 19.3293 4.58892 19.0087 3.79415C18.8465 3.39198 18.6983 3.13599 18.5836 2.99729C18.5764 2.98854 18.5697 2.98072 18.5636 2.97374C18.1534 3.02609 17.5994 3.3438 16.9991 4.04789C16.5876 4.53061 16.2168 5.1256 15.9249 5.75337C17.4325 6.16628 18.7159 6.82964 19.7465 7.7075C19.8379 7.78536 19.9271 7.86475 20.0141 7.9456ZM18.5111 2.92239C18.5111 2.92256 18.513 2.92413 18.5168 2.92659C18.513 2.92344 18.5111 2.92221 18.5111 2.92239ZM8.99998 13.4205C8.99998 14.249 8.3284 14.9205 7.49998 14.9205C6.67155 14.9205 5.99998 14.249 5.99998 13.4205C5.99998 12.5921 6.67155 11.9205 7.49998 11.9205C8.3284 11.9205 8.99998 12.5921 8.99998 13.4205ZM18 13.4205C18 14.249 17.3284 14.9205 16.5 14.9205C15.6715 14.9205 15 14.249 15 13.4205C15 12.5921 15.6715 11.9205 16.5 11.9205C17.3284 11.9205 18 12.5921 18 13.4205ZM13.1825 16.7248C13.3791 16.4711 13.4961 16.1526 13.4961 15.8068C13.4961 14.9784 12.8245 14.3068 11.9961 14.3068C11.1676 14.3068 10.4961 14.9784 10.4961 15.8068C10.4961 16.156 10.6154 16.4772 10.8154 16.7321C10.7953 16.7856 10.7742 16.8392 10.7519 16.8925C10.6219 17.2046 10.4763 17.4554 10.3301 17.6149C10.2047 17.7517 10.1315 17.7683 10.0999 17.7702L10.1064 17.7746L10.1001 17.7768L9.76863 17.5523C9.41681 17.2053 8.85029 17.2068 8.5003 17.5568C8.14883 17.9083 8.14914 18.4784 8.50062 18.8299L8.50164 18.8309L8.50317 18.8324L8.50679 18.836L8.51629 18.8453C8.5236 18.8524 8.5329 18.8612 8.54405 18.8716C8.56629 18.8924 8.59627 18.9196 8.63301 18.9511C8.70555 19.0133 8.80922 19.0963 8.93576 19.1807C9.15956 19.3299 9.58208 19.5704 10.0912 19.5704C10.782 19.5704 11.3037 19.2166 11.657 18.8312C11.7852 18.6913 11.8991 18.5395 12.0003 18.3832C12.1015 18.5395 12.2155 18.6913 12.3436 18.8312C12.6969 19.2166 13.2187 19.5704 13.9094 19.5704C14.4186 19.5704 14.8411 19.3299 15.0649 19.1807C15.1914 19.0963 15.2951 19.0133 15.3676 18.9511C15.4044 18.9196 15.4344 18.8924 15.4566 18.8716C15.4678 18.8612 15.4771 18.8524 15.4844 18.8453L15.4939 18.836L15.4975 18.8324L15.499 18.8309L15.5004 18.8296C15.8518 18.4781 15.8518 17.9083 15.5004 17.5568C15.1504 17.2068 14.5838 17.2053 14.232 17.5524L14.2284 17.5557C14.2227 17.5611 14.2117 17.5712 14.1962 17.5844C14.1644 17.6117 14.1189 17.648 14.0664 17.683C13.9568 17.756 13.9007 17.7702 13.9007 17.7702C13.8692 17.7683 13.796 17.7517 13.6705 17.6149C13.5243 17.4554 13.3787 17.2046 13.2487 16.8925C13.2255 16.8367 13.2034 16.7806 13.1825 16.7248Z" fill="black"/>
</svg>
