<svg width="24" height="24" viewBox="0 0 24 24" fill="none" xmlns="http://www.w3.org/2000/svg">
<path fill-rule="evenodd" clip-rule="evenodd" d="M9.8658 2.98743C11.0403 1.7986 12.9597 1.79863 14.1342 2.98748L20.4531 9.38389C20.5234 9.45109 20.5918 9.52033 20.6582 9.5915L20.8614 9.79724C20.9425 9.87937 21.0073 9.97314 21.0547 10.0739C21.6492 10.8965 22 11.9085 22 13C22 15.7615 19.7614 18 17 18C16.4343 18 15.8905 17.9059 15.3834 17.7327L15.8658 20.2137C16.0459 21.1397 15.3367 22 14.3934 22H9.60659C8.66329 22 7.95412 21.1397 8.13416 20.2137L8.61658 17.7327C8.1095 17.9059 7.56567 18 7 18C4.23858 18 2 15.7615 2 13C2 11.9091 2.35041 10.8978 2.94418 10.0754C2.99168 9.97409 3.05667 9.87978 3.13822 9.79723L3.34841 9.58447C3.41055 9.51806 3.47448 9.45335 3.54012 9.39041L9.8658 2.98743ZM4.71358 11.0484C4.69626 11.0748 4.67758 11.1005 4.65756 11.1255C4.2457 11.6393 4 12.2896 4 13C4 14.6569 5.34315 16 7 16C7.91759 16 8.73825 15.5893 9.29009 14.9381C9.58422 14.591 10.0756 14.4862 10.4857 14.683C10.8959 14.8799 11.1215 15.3288 11.0346 15.7754L10.2132 20H13.7868L12.9654 15.7754C12.8785 15.3288 13.1041 14.8799 13.5143 14.683C13.9244 14.4862 14.4158 14.591 14.7099 14.9381C15.2618 15.5893 16.0824 16 17 16C18.6569 16 20 14.6569 20 13C20 12.2896 19.7543 11.6393 19.3424 11.1255C19.3227 11.1009 19.3043 11.0755 19.2872 11.0495L19.2246 10.9862C19.217 10.9785 19.2095 10.9707 19.2022 10.9627C19.1577 10.9147 19.1117 10.8681 19.0642 10.8231C19.0564 10.8156 19.0486 10.8081 19.041 10.8004L12.7114 4.39304C12.3199 3.99676 11.6801 3.99675 11.2886 4.39303L4.95284 10.8062C4.94573 10.8134 4.93852 10.8205 4.93119 10.8275C4.8869 10.8696 4.8439 10.9132 4.80224 10.958C4.79536 10.9654 4.78836 10.9727 4.78125 10.9799L4.71358 11.0484Z" fill="black"/>
</svg>
