<svg width="24" height="24" viewBox="0 0 24 24" fill="none" xmlns="http://www.w3.org/2000/svg">
<path fill-rule="evenodd" clip-rule="evenodd" d="M6.23607 4C5.09975 4 4.06096 4.64201 3.55279 5.65836L1.73901 9.28591C1.25302 10.2579 1 11.3297 1 12.4164V17C1 18.6569 2.34315 20 4 20H20C21.6569 20 23 18.6569 23 17V12.4164C23 11.3297 22.747 10.2579 22.261 9.28591L20.4472 5.65836C19.939 4.64201 18.9002 4 17.7639 4H6.23607ZM5.34164 6.55279C5.51103 6.214 5.8573 6 6.23607 6H17.7639C18.1427 6 18.489 6.214 18.6584 6.55279L20.382 10H16C14.8954 10 14 10.8954 14 12C14 12.5523 13.5523 13 13 13H11C10.4477 13 10 12.5523 10 12C10 10.8954 9.10457 10 8 10H3.61803L5.34164 6.55279ZM3.01737 12C3.00582 12.1382 3 12.2771 3 12.4164V17C3 17.5523 3.44772 18 4 18H20C20.5523 18 21 17.5523 21 17V12.4164C21 12.2771 20.9942 12.1382 20.9826 12H16C16 13.6569 14.6569 15 13 15H11C9.34315 15 8 13.6569 8 12H3.01737Z" fill="black"/>
</svg>
