<svg width="24" height="24" viewBox="0 0 24 24" fill="none" xmlns="http://www.w3.org/2000/svg">
<path fill-rule="evenodd" clip-rule="evenodd" d="M4 12C4 7.58172 7.58172 4 12 4C16.4183 4 20 7.58172 20 12C20 16.4183 16.4183 20 12 20C10.9173 20 9.88719 19.7855 8.94803 19.3975C8.68808 19.2901 8.39493 19.2972 8.14045 19.4169L6.10348 20.3755L6.25079 18.0186C6.26735 17.7537 6.17791 17.493 6.00217 17.2941C4.75546 15.8829 4 14.0309 4 12ZM12 2C6.47715 2 2 6.47715 2 12C2 14.3848 2.83596 16.5765 4.22961 18.295L4.10738 20.2508C4.01252 21.7685 5.57913 22.8327 6.95508 22.1852L8.60507 21.4087C9.66614 21.7916 10.8097 22 12 22C17.5228 22 22 17.5228 22 12C22 6.47715 17.5228 2 12 2ZM17.2593 10.6508C17.6187 10.2315 17.5701 9.60015 17.1508 9.24073C16.7315 8.88131 16.1002 8.92987 15.7408 9.3492L13.4435 12.0293L11.2071 9.79288C11.0102 9.59592 10.74 9.49003 10.4616 9.50072C10.1833 9.51141 9.92204 9.63771 9.74076 9.8492L6.74076 13.3492C6.38134 13.7685 6.4299 14.3998 6.84923 14.7592C7.26855 15.1187 7.89985 15.0701 8.25927 14.6508L10.5565 11.9707L12.7929 14.2071C12.9899 14.4041 13.2601 14.5099 13.5384 14.4993C13.8167 14.4886 14.078 14.3623 14.2593 14.1508L17.2593 10.6508Z" fill="black"/>
</svg>
