<svg width="24" height="24" viewBox="0 0 24 24" fill="none" xmlns="http://www.w3.org/2000/svg">
<path fill-rule="evenodd" clip-rule="evenodd" d="M9.99999 3.18998C9.99999 1.47613 12.0147 0.556144 13.3099 1.6786L18.1182 5.84583C19.143 6.734 19.0055 8.36298 17.8463 9.06678L13.0151 12L17.8463 14.9332C19.0055 15.637 19.143 17.266 18.1182 18.1542L13.3099 22.3214C12.0147 23.4439 9.99999 22.5239 9.99999 20.8101V13.8306L5.01897 16.8548C4.54689 17.1414 3.93183 16.9911 3.64521 16.519C3.35858 16.0469 3.50893 15.4318 3.98102 15.1452L9.16137 12L3.98102 8.8548C3.50893 8.56818 3.35858 7.95312 3.64521 7.48103C3.93183 7.00895 4.54689 6.8586 5.01897 7.14523L9.99999 10.1694V3.18998ZM12 13.7235L16.8083 16.6428L12 20.8101V13.7235ZM12 10.2766V3.18998L16.8083 7.35721L12 10.2766Z" fill="black"/>
</svg>
