<svg width="24" height="24" viewBox="0 0 24 24" fill="none" xmlns="http://www.w3.org/2000/svg">
<path fill-rule="evenodd" clip-rule="evenodd" d="M4 1.5C4.55228 1.5 5 1.94772 5 2.5V21.5C5 22.0523 4.55228 22.5 4 22.5C3.44772 22.5 3 22.0523 3 21.5V2.5C3 1.94772 3.44772 1.5 4 1.5ZM7 15.2C7 13.985 7.98497 13 9.2 13H18.8C20.015 13 21 13.985 21 15.2V18.3C21 19.515 20.015 20.5 18.8 20.5H9.2C7.98497 20.5 7 19.515 7 18.3V15.2ZM9.2 15C9.08954 15 9 15.0895 9 15.2V18.3C9 18.4105 9.08954 18.5 9.2 18.5H18.8C18.9105 18.5 19 18.4105 19 18.3V15.2C19 15.0895 18.9105 15 18.8 15H9.2ZM9.2 3.5C7.98497 3.5 7 4.48497 7 5.7V8.8C7 10.015 7.98497 11 9.2 11H15.8C17.015 11 18 10.015 18 8.8V5.7C18 4.48497 17.015 3.5 15.8 3.5H9.2ZM9 5.7C9 5.58954 9.08954 5.5 9.2 5.5H15.8C15.9105 5.5 16 5.58954 16 5.7V8.8C16 8.91046 15.9105 9 15.8 9H9.2C9.08954 9 9 8.91046 9 8.8V5.7Z" fill="black"/>
</svg>
