<svg width="24" height="24" viewBox="0 0 24 24" fill="none" xmlns="http://www.w3.org/2000/svg">
<path fill-rule="evenodd" clip-rule="evenodd" d="M4 12C4 7.58172 7.58172 4 12 4C16.4183 4 20 7.58172 20 12C20 16.4183 16.4183 20 12 20C10.7641 20 9.59635 19.7205 8.55398 19.2221C8.24866 19.0761 7.89023 19.0944 7.60142 19.2708C6.84419 19.7333 5.95465 20 4.99976 20C4.65659 20 4.3219 19.9656 3.99877 19.9C4.66665 19.2187 5.19646 18.4011 5.54285 17.4921C5.66057 17.1831 5.618 16.836 5.42911 16.5647C4.52812 15.2704 4 13.6984 4 12ZM12 2C6.47715 2 2 6.47715 2 12C2 13.9162 2.53989 15.7088 3.47584 17.2311C3.03713 18.1091 2.3468 18.8413 1.49903 19.3317C1.19004 19.5104 0.999756 19.8403 0.999756 20.1973C0.999756 20.5543 1.19004 20.8842 1.49903 21.0629C2.52966 21.6591 3.72641 22 4.99976 22C6.14041 22 7.2194 21.7265 8.17256 21.2411C9.35258 21.7303 10.6459 22 12 22C17.5229 22 22 17.5228 22 12C22 6.47715 17.5229 2 12 2ZM8 13.5C8.82843 13.5 9.5 12.8284 9.5 12C9.5 11.1716 8.82843 10.5 8 10.5C7.17157 10.5 6.5 11.1716 6.5 12C6.5 12.8284 7.17157 13.5 8 13.5ZM17.5 12C17.5 12.8284 16.8284 13.5 16 13.5C15.1716 13.5 14.5 12.8284 14.5 12C14.5 11.1716 15.1716 10.5 16 10.5C16.8284 10.5 17.5 11.1716 17.5 12ZM12 13.5C12.8284 13.5 13.5 12.8284 13.5 12C13.5 11.1716 12.8284 10.5 12 10.5C11.1716 10.5 10.5 11.1716 10.5 12C10.5 12.8284 11.1716 13.5 12 13.5Z" fill="black"/>
</svg>
