<svg width="24" height="24" viewBox="0 0 24 24" fill="none" xmlns="http://www.w3.org/2000/svg">
<path fill-rule="evenodd" clip-rule="evenodd" d="M7.41463 3.09716C10.122 1.80124 13.7808 1.67859 16.5742 2.59572C18.9472 3.37484 21.0961 5.57323 21.0999 8.40614C21.1042 11.5453 19.0585 13.9199 16.1495 14.6504C14.701 15.0141 13.8493 15.3026 13.163 16.2364C12.9111 16.5792 12.6812 17.0456 12.4167 17.6348C12.3691 17.7409 12.3202 17.8513 12.27 17.9648C12.0574 18.4452 11.8206 18.9803 11.5532 19.471C10.888 20.692 9.82382 22.0249 7.85833 21.9996C7.85831 21.9996 7.85835 21.9996 7.85833 21.9996C6.57302 21.9831 5.59145 21.3745 4.88967 20.5088C4.21266 19.6737 3.78447 18.5925 3.50368 17.5227C2.94073 15.3778 2.88734 12.9434 2.90186 11.644C2.93817 8.40016 3.91774 4.77128 7.41463 3.09716ZM8.27815 4.90114C5.82477 6.07571 4.93509 8.68687 4.90174 11.6664C4.88767 12.9253 4.94583 15.1391 5.43816 17.0149C5.68499 17.9554 6.02037 18.7277 6.4433 19.2494C6.84146 19.7405 7.29619 19.9922 7.88401 19.9998C8.70212 20.0103 9.23709 19.5417 9.79697 18.5141C10.021 18.1028 10.2156 17.6639 10.4254 17.1904C10.4797 17.0679 10.535 16.9431 10.5921 16.8159C10.8546 16.2311 11.1594 15.5854 11.5515 15.052C12.6979 13.4921 14.2061 13.0763 15.6624 12.7106C17.746 12.1874 19.1029 10.5647 19.0999 8.40885C19.0975 6.64509 17.7175 5.07614 15.9503 4.49592C13.6024 3.72505 10.4802 3.84709 8.27815 4.90114Z" fill="black"/>
</svg>
