<svg width="24" height="24" viewBox="0 0 24 24" fill="none" xmlns="http://www.w3.org/2000/svg">
<path fill-rule="evenodd" clip-rule="evenodd" d="M4.94979 11.6673C2.99717 13.6199 2.99717 16.7857 4.94979 18.7383C6.90241 20.691 10.0682 20.691 12.0209 18.7383C13.4394 17.3198 13.8288 15.2595 13.1834 13.4875C13.0586 13.1447 13.1303 12.7612 13.3704 12.4867L15.2475 10.3415C15.4374 10.1245 15.7117 10 16.0001 10L17.5001 10V8.13173C17.5001 7.57944 17.9478 7.13173 18.5001 7.13173L19.799 7.13173L19.799 4.57407L16.9242 4.50974L11.4717 10.3257C11.189 10.6273 10.7497 10.7238 10.3666 10.5685C8.55904 9.8359 6.41294 10.2041 4.94979 11.6673ZM3.53557 20.1525C0.801903 17.4189 0.801904 12.9867 3.53557 10.253C5.41015 8.37847 8.08196 7.79056 10.4561 8.48481L15.7706 2.81606C15.9649 2.60873 16.2383 2.49389 16.5225 2.50025L20.8214 2.59644C21.3648 2.6086 21.799 3.05263 21.799 3.59619V8.13173C21.799 8.39694 21.6937 8.6513 21.5061 8.83884C21.3186 9.02637 21.0642 9.13173 20.799 9.13173H19.5001V11C19.5001 11.5523 19.0524 12 18.5001 12H16.4539L15.2452 13.3813C15.8724 15.7172 15.2705 18.3171 13.4351 20.1525C10.7014 22.8862 6.26924 22.8862 3.53557 20.1525ZM8.1317 15.5567C8.71748 16.1425 8.71748 17.0922 8.1317 17.678C7.54591 18.2638 6.59616 18.2638 6.01038 17.678C5.42459 17.0922 5.42459 16.1425 6.01038 15.5567C6.59616 14.9709 7.54591 14.9709 8.1317 15.5567Z" fill="black"/>
</svg>
