<svg width="24" height="24" viewBox="0 0 24 24" fill="none" xmlns="http://www.w3.org/2000/svg">
<path fill-rule="evenodd" clip-rule="evenodd" d="M18 2C18 1.44771 18.4477 1 19 1C20.6569 1 22 2.34315 22 4C22 5.65685 20.6569 7 19 7L16.6573 7C18.6963 8.64995 20 11.1727 20 14C20 18.9706 15.9706 23 11 23C6.02944 23 2 18.9706 2 14C2 9.02944 6.02944 5 11 5C11.2533 5 11.5041 5.01046 11.7521 5.03098C11.8313 5.01075 11.9144 5 12 5L19 5C19.5523 5 20 4.55228 20 4C20 3.44771 19.5523 3 19 3C18.4477 3 18 2.55228 18 2ZM11 7C7.13401 7 4 10.134 4 14C4 17.866 7.13401 21 11 21C14.866 21 18 17.866 18 14C18 10.134 14.866 7 11 7ZM11 15C11.5523 15 12 14.5523 12 14C12 13.4477 11.5523 13 11 13C10.4477 13 10 13.4477 10 14C10 14.5523 10.4477 15 11 15ZM12.5 10C12.5 10.8284 11.8284 11.5 11 11.5C10.1716 11.5 9.5 10.8284 9.5 10C9.5 9.17157 10.1716 8.5 11 8.5C11.8284 8.5 12.5 9.17157 12.5 10ZM11 19.5C11.8284 19.5 12.5 18.8284 12.5 18C12.5 17.1716 11.8284 16.5 11 16.5C10.1716 16.5 9.5 17.1716 9.5 18C9.5 18.8284 10.1716 19.5 11 19.5ZM15 15.5C14.1716 15.5 13.5 14.8284 13.5 14C13.5 13.1716 14.1716 12.5 15 12.5C15.8284 12.5 16.5 13.1716 16.5 14C16.5 14.8284 15.8284 15.5 15 15.5ZM5.5 14C5.5 14.8284 6.17157 15.5 7 15.5C7.82843 15.5 8.5 14.8284 8.5 14C8.5 13.1716 7.82843 12.5 7 12.5C6.17157 12.5 5.5 13.1716 5.5 14Z" fill="black"/>
</svg>
