<svg width="24" height="24" viewBox="0 0 24 24" fill="none" xmlns="http://www.w3.org/2000/svg">
<path fill-rule="evenodd" clip-rule="evenodd" d="M4 3C3.44772 3 3 3.44772 3 4C3 4.55228 3.44772 5 4 5H20C20.5523 5 21 4.55228 21 4C21 3.44772 20.5523 3 20 3H4ZM3 7.5C3 6.94772 3.44772 6.5 4 6.5H20C20.5523 6.5 21 6.94772 21 7.5C21 8.05228 20.5523 8.5 20 8.5H4C3.44772 8.5 3 8.05228 3 7.5ZM3 11C3 10.4477 3.44772 10 4 10H20C20.5523 10 21 10.4477 21 11V19.099C21 20.7093 19.1939 21.6594 17.8669 20.7471L12 16.7135L6.13306 20.7471C4.80605 21.6594 3 20.7093 3 19.099V11ZM5 12V19.099L11.4335 14.676C11.7747 14.4413 12.2253 14.4413 12.5665 14.676L19 19.099V12H5Z" fill="black"/>
</svg>
