<svg width="24" height="24" viewBox="0 0 24 24" fill="none" xmlns="http://www.w3.org/2000/svg">
<path fill-rule="evenodd" clip-rule="evenodd" d="M7.25 7.75C4.90279 7.75 3 9.65279 3 12C3 14.3472 4.90279 16.25 7.25 16.25C9.59721 16.25 11.5 14.3472 11.5 12C11.5 9.65279 9.59721 7.75 7.25 7.75ZM1 12C1 8.54822 3.79822 5.75 7.25 5.75C10.7018 5.75 13.5 8.54822 13.5 12C13.5 15.4518 10.7018 18.25 7.25 18.25C3.79822 18.25 1 15.4518 1 12ZM16.9612 8.60392C16.6869 9.42706 16.5 10.6278 16.5 12C16.5 13.3722 16.6869 14.5729 16.9612 15.3961C17.0597 15.6913 17.1603 15.9105 17.25 16.0631C17.3397 15.9105 17.4403 15.6913 17.5388 15.3961C17.8131 14.5729 18 13.3722 18 12C18 10.6278 17.8131 9.42706 17.5388 8.60392C17.4403 8.30866 17.3397 8.08949 17.25 7.93687C17.1603 8.08949 17.0597 8.30866 16.9612 8.60392ZM17.4257 7.70487C17.4257 7.70508 17.4236 7.70688 17.4193 7.70966C17.4235 7.70605 17.4257 7.70466 17.4257 7.70487ZM17.0807 7.70966C17.0764 7.70688 17.0743 7.70508 17.0743 7.70487C17.0743 7.70466 17.0765 7.70605 17.0807 7.70966ZM17.0758 16.2938C17.0768 16.293 17.0785 16.2918 17.0807 16.2903L17.076 16.2941C17.0749 16.2949 17.0743 16.2952 17.0743 16.2951C17.0743 16.295 17.0748 16.2946 17.0758 16.2938ZM17.4193 16.2903C17.4236 16.2931 17.4257 16.2949 17.4257 16.2951C17.4257 16.2953 17.4235 16.2939 17.4193 16.2903ZM15.7834 6.5436C16.0826 6.16396 16.5706 5.75 17.25 5.75C17.9294 5.75 18.4174 6.16396 18.7166 6.5436C19.0247 6.93451 19.2584 7.4382 19.4361 7.97146C19.7951 9.04845 20 10.4727 20 12C20 13.5273 19.7951 14.9516 19.4361 16.0285C19.2584 16.5618 19.0247 17.0655 18.7166 17.4564C18.4174 17.836 17.9294 18.25 17.25 18.25C16.5706 18.25 16.0826 17.836 15.7834 17.4564C15.4753 17.0655 15.2416 16.5618 15.0639 16.0285C14.7049 14.9516 14.5 13.5273 14.5 12C14.5 10.4727 14.7049 9.04845 15.0639 7.97146C15.2416 7.4382 15.4753 6.93451 15.7834 6.5436ZM23 6.75C23 6.19772 22.5523 5.75 22 5.75C21.4477 5.75 21 6.19772 21 6.75V17.25C21 17.8023 21.4477 18.25 22 18.25C22.5523 18.25 23 17.8023 23 17.25V6.75Z" fill="black"/>
</svg>
