<svg width="24" height="24" viewBox="0 0 24 24" fill="none" xmlns="http://www.w3.org/2000/svg">
<path fill-rule="evenodd" clip-rule="evenodd" d="M11.2085 4.03866C11.4689 4.01309 11.7329 4 12 4C12.2671 4 12.5312 4.01309 12.7915 4.03866L12 4.69826L11.2085 4.03866ZM8.82419 4.65515C7.73518 5.12666 6.77167 5.83328 5.99766 6.711L7.04935 9.33968L8.4722 9.80199L11 7.96542V6.46835L8.82419 4.65515ZM4.6728 8.78373C4.4615 9.26441 4.29612 9.76983 4.1822 10.2944L5.05689 9.74375L4.6728 8.78373ZM4.03476 12.7507C4.14698 13.9566 4.52686 15.0848 5.11442 16.0754L7.94035 15.8874L8.86055 14.6209L7.91976 11.7254L6.43132 11.2418L4.03476 12.7507ZM6.68085 17.9756C7.0749 18.3266 7.5039 18.6392 7.96197 18.9076L7.70894 17.9072L6.68085 17.9756ZM10.2529 19.8087C10.8152 19.9339 11.3999 20 12 20C12.6006 20 13.1858 19.9338 13.7486 19.8083L14.443 17.063L13.4987 15.7633L13.5016 15.7613H10.4833L10.4969 15.7712L9.55838 17.063L10.2529 19.8087ZM16.0396 18.9067C16.4971 18.6385 16.9256 18.3262 17.3192 17.9755L16.2924 17.9072L16.0396 18.9067ZM18.8856 16.0753C19.4734 15.0843 19.8534 13.9556 19.9654 12.7491L17.5712 11.2417L16.098 11.7204L16.0902 11.6963L15.1402 14.62L16.061 15.8874L18.8856 16.0753ZM19.8174 10.2925C19.7037 9.76966 19.5389 9.26589 19.3285 8.78669L18.9456 9.74366L19.8174 10.2925ZM18.004 6.71294C17.2298 5.83433 16.2656 5.12702 15.1758 4.65516L13 6.46835V7.96511L15.5288 9.80239L16.9532 9.33959L18.004 6.71294ZM12 2C6.47715 2 2 6.47715 2 12C2 17.5228 6.47715 22 12 22C17.5228 22 22 17.5228 22 12C22 6.47715 17.5228 2 12 2ZM9.8708 11.258L10.6842 13.7613H13.3163L14.1297 11.258L12.0002 9.71086L9.8708 11.258Z" fill="black"/>
</svg>
