<svg width="24" height="24" viewBox="0 0 24 24" fill="none" xmlns="http://www.w3.org/2000/svg">
<path fill-rule="evenodd" clip-rule="evenodd" d="M8 2.5C8 1.94772 8.44772 1.5 9 1.5C11.2091 1.5 13 3.29086 13 5.5V6.08517C13.0292 6.06884 13.0579 6.05171 13.0861 6.03377C14.335 5.23779 15.794 4.87243 17.2678 5.18569C19.1398 5.58361 20.5318 6.96309 21.319 8.71034C22.1065 10.4583 22.3286 12.6394 21.8585 14.8514C21.3883 17.0633 20.2982 18.9655 18.8678 20.242C17.438 21.518 15.6053 22.2121 13.7333 21.8142C13.4819 21.7608 13.2376 21.6891 13.0012 21.6003C12.3767 21.3659 11.6233 21.3659 10.9989 21.6003C10.7623 21.6891 10.518 21.7608 10.2666 21.8143C8.39456 22.2122 6.56189 21.5181 5.13206 20.2421C3.70168 18.9656 2.61158 17.0634 2.14142 14.8514C1.67126 12.6395 1.8934 10.4583 2.68092 8.71041C3.46814 6.96316 4.86006 5.58368 6.73213 5.18576C8.20585 4.87251 9.66488 5.23784 10.9137 6.03379C10.9419 6.05176 10.9707 6.06893 11 6.08529V5.5C11 4.39543 10.1046 3.5 9 3.5C8.44772 3.5 8 3.05228 8 2.5ZM16.8519 7.14198C15.9794 6.95651 15.0498 7.15384 14.161 7.72034C12.8756 8.53958 11.1242 8.53958 9.83883 7.72037C8.95002 7.1539 8.0205 6.95658 7.14795 7.14205C6.04883 7.37568 5.09991 8.2102 4.50439 9.53197C3.90917 10.8531 3.70667 12.5959 4.09771 14.4356C4.48875 16.2753 5.38263 17.7851 6.46373 18.7499C7.54537 19.7152 8.75168 20.0916 9.8508 19.858C10.0038 19.8254 10.1522 19.7819 10.2959 19.7279C11.3735 19.3233 12.6264 19.3233 13.7041 19.7279C13.8478 19.7818 13.9961 19.8254 14.1491 19.8579C15.2482 20.0915 16.4545 19.7151 17.5362 18.7498C18.6173 17.785 19.5111 16.2752 19.9022 14.4355C20.2932 12.5958 20.0907 10.853 19.4955 9.5319C18.9 8.21013 17.9511 7.37561 16.8519 7.14198ZM18.2093 10.6959C17.9202 9.88871 17.3259 9.09524 16.3484 8.94881C15.8022 8.86699 15.2931 9.24343 15.2113 9.78963C15.1296 10.3351 15.5049 10.8435 16.0498 10.9264C16.0573 10.9297 16.0756 10.9406 16.1048 10.9705C16.1623 11.0295 16.2481 11.1516 16.3264 11.3702C16.4859 11.8156 16.5494 12.4836 16.4446 13.2518C16.3699 13.799 16.753 14.3031 17.3002 14.3778C17.8474 14.4525 18.3515 14.0694 18.4262 13.5222C18.5614 12.5317 18.5056 11.5234 18.2093 10.6959ZM16.0496 10.9263C16.0473 10.9252 16.0461 10.925 16.0461 10.9251C16.0461 10.9252 16.0464 10.9254 16.047 10.9256C16.0475 10.9258 16.0484 10.926 16.0496 10.9263Z" fill="black"/>
</svg>
