<svg width="24" height="24" viewBox="0 0 24 24" fill="none" xmlns="http://www.w3.org/2000/svg">
<g clip-path="url(#clip0_895_53056)">
<path fill-rule="evenodd" clip-rule="evenodd" d="M23.7234 1.69048C24.1047 1.29098 24.09 0.657985 23.6905 0.276646C23.291 -0.104693 22.658 -0.0899723 22.2766 0.309526L16.7204 6.13037C16.4931 6.22815 16.3015 6.40995 16.1964 6.65538C16.1905 6.6691 16.185 6.68288 16.1798 6.69671L1.27665 22.3095C0.895307 22.709 0.910028 23.342 1.30953 23.7234C1.70902 24.1047 2.34202 24.09 2.72336 23.6905L10.8606 15.1657C11.7261 14.9085 12.6541 14.9515 13.4932 15.2891C14.3577 15.637 15.0736 16.2757 15.5173 17.0951C15.7803 17.5807 16.3872 17.7612 16.8729 17.4982C17.3585 17.2352 17.539 16.6283 17.276 16.1426C16.6103 14.9136 15.5365 13.9555 14.2398 13.4337C13.7957 13.255 13.335 13.1314 12.8677 13.0631L14.4653 11.3894C16.1043 11.9202 17.5334 12.9682 18.5334 14.3832C18.8521 14.8343 19.4761 14.9415 19.9272 14.6228C20.3782 14.3041 20.4855 13.6801 20.1667 13.229C19.0999 11.7193 17.6421 10.5438 15.9641 9.81925L17.4201 8.29385C19.036 9.11187 20.4488 10.2867 21.5496 11.7333C21.884 12.1728 22.5114 12.258 22.9509 11.9235C23.3904 11.5891 23.4756 10.9617 23.1412 10.5222C21.9788 8.99461 20.5181 7.72675 18.8535 6.79225L23.7234 1.69048ZM5.9288 6.38492C7.88716 5.44242 10.038 4.96882 12.2112 5.00159C12.7634 5.00992 13.2043 5.46434 13.196 6.01656C13.1876 6.56878 12.7332 7.00969 12.181 7.00136C10.3183 6.97327 8.47471 7.37922 6.79611 8.18707C5.11752 8.99492 3.65006 10.1825 2.50994 11.6557C2.17193 12.0925 1.54385 12.1725 1.10708 11.8345C0.67031 11.4965 0.590252 10.8684 0.928264 10.4317C2.25841 8.71289 3.97044 7.32741 5.9288 6.38492ZM9.52031 10.2908C9.72928 10.802 9.48425 11.3858 8.97303 11.5948C7.56496 12.1704 6.35017 13.1355 5.4711 14.3769C5.15194 14.8276 4.52782 14.9343 4.0771 14.6151C3.62637 14.296 3.51971 13.6718 3.83887 13.2211C4.93771 11.6693 6.4562 10.463 8.21628 9.74349C8.72751 9.53452 9.31134 9.77955 9.52031 10.2908ZM11.2346 17.6522C11.4773 17.5517 11.7374 17.5 12 17.5C12.2627 17.5 12.5227 17.5517 12.7654 17.6522C13.008 17.7528 13.2285 17.9001 13.4142 18.0858C13.8048 18.4763 13.8048 19.1095 13.4142 19.5C13.0237 19.8905 12.3905 19.8905 12 19.5C11.6095 19.8905 10.9763 19.8905 10.5858 19.5C10.1953 19.1095 10.1953 18.4763 10.5858 18.0858C10.7715 17.9001 10.992 17.7528 11.2346 17.6522Z" fill="black"/>
</g>
<defs>
<clipPath id="clip0_895_53056">
<rect width="24" height="24" fill="white"/>
</clipPath>
</defs>
</svg>
