<svg width="24" height="24" viewBox="0 0 24 24" fill="none" xmlns="http://www.w3.org/2000/svg">
<path fill-rule="evenodd" clip-rule="evenodd" d="M4.99991 12.5C4.99991 13.0523 4.55219 13.5 3.99991 13.5C3.44762 13.5 2.99991 13.0523 2.99991 12.5V5C2.99991 3.34315 4.34305 2 5.99991 2H12.9999C13.2651 2 13.5195 2.10536 13.707 2.29289L20.707 9.29289C20.8946 9.48043 20.9999 9.73478 20.9999 10V12.5C20.9999 13.0523 20.5522 13.5 19.9999 13.5C19.4476 13.5 18.9999 13.0523 18.9999 12.5V11H14.9999C13.3431 11 11.9999 9.65685 11.9999 8V4H5.99991C5.44762 4 4.99991 4.44771 4.99991 5V12.5ZM14.9999 9H17.5857L13.9999 5.41421V8C13.9999 8.55228 14.4476 9 14.9999 9ZM10.4 18.5001C10.4 17.6163 11.1164 16.8999 12.0002 16.8999C12.884 16.8999 13.6004 17.6163 13.6004 18.5001C13.6004 19.3838 12.884 20.1003 12.0002 20.1003C11.1164 20.1003 10.4 19.3838 10.4 18.5001ZM12.0002 15.0999C10.1223 15.0999 8.60001 16.6222 8.60001 18.5001C8.60001 20.3779 10.1223 21.9003 12.0002 21.9003C13.8781 21.9003 15.4004 20.3779 15.4004 18.5001C15.4004 16.6222 13.8781 15.0999 12.0002 15.0999ZM18.3206 15.311C18.9643 15.0729 19.6649 15.0352 20.3304 15.2028C20.9959 15.3703 21.5951 15.7353 22.0493 16.2498C22.3782 16.6225 22.3428 17.1912 21.9702 17.5202C21.5975 17.8491 21.0288 17.8137 20.6999 17.4411C20.4861 17.1989 20.2041 17.0271 19.8909 16.9483C19.5777 16.8694 19.248 16.8872 18.9451 16.9992C18.6422 17.1113 18.3802 17.3124 18.1937 17.576C18.0072 17.8397 17.9049 18.1537 17.9002 18.4766C17.8954 18.7996 17.9885 19.1164 18.1672 19.3854C18.3459 19.6544 18.6018 19.8631 18.9014 19.984C19.2009 20.1048 19.5299 20.1323 19.8453 20.0626C20.1607 19.993 20.4476 19.8295 20.6683 19.5937C21.008 19.2309 21.5776 19.2122 21.9404 19.5519C22.3033 19.8916 22.322 20.4611 21.9823 20.824C21.5132 21.3249 20.9036 21.6723 20.2335 21.8203C19.5633 21.9683 18.8641 21.91 18.2277 21.6532C17.5913 21.3964 17.0475 20.953 16.6678 20.3813C16.2881 19.8096 16.0903 19.1365 16.1004 18.4503C16.1104 17.7641 16.3279 17.097 16.7242 16.5367C17.1204 15.9764 17.677 15.5491 18.3206 15.311ZM3.00001 15.0999C2.50295 15.0999 2.10001 15.5028 2.10001 15.9999V21.0003C2.10001 21.4973 2.50295 21.9003 3.00001 21.9003H4.75014C6.48994 21.9003 7.90032 20.4899 7.90032 18.7501V18.25C7.90032 16.5102 6.48994 15.0999 4.75014 15.0999H3.00001ZM3.90001 20.1003V16.8999H4.75014C5.49583 16.8999 6.10032 17.5044 6.10032 18.25V18.7501C6.10032 19.4958 5.49583 20.1003 4.75014 20.1003H3.90001Z" fill="black"/>
</svg>
