<svg width="24" height="24" viewBox="0 0 24 24" fill="none" xmlns="http://www.w3.org/2000/svg">
<path fill-rule="evenodd" clip-rule="evenodd" d="M13.3688 2.00403C13.1055 1.54322 12.528 1.36839 12.0533 1.60574L12.5005 2.50017C12.0533 1.60574 12.0528 1.606 12.0523 1.60627L12.0512 1.60681L12.0489 1.60795L12.0441 1.61038L12.0334 1.61595C12.0257 1.61998 12.017 1.62463 12.0074 1.62993C11.9881 1.64053 11.965 1.65376 11.9386 1.66979C11.8859 1.7018 11.8195 1.74531 11.7443 1.80173C11.5943 1.91422 11.4054 2.0808 11.2197 2.31297C10.838 2.79 10.5005 3.50725 10.5005 4.50016C10.5005 5.1112 10.6455 5.65644 10.76 6.08694L10.7838 6.17655C10.907 6.64352 11.0007 7.0349 11.0005 7.49991C11.0004 7.85545 10.9007 8.20387 10.7486 8.52569C10.5261 8.15732 10.2882 7.84603 10.0656 7.59166C9.80846 7.29777 9.5678 7.07513 9.38686 6.92275C9.29617 6.84638 9.2198 6.7871 9.16298 6.74481C9.13454 6.72365 9.11092 6.70669 9.09277 6.69392L9.06969 6.6779L9.06136 6.67223L9.05802 6.66998L9.05588 6.66854C8.70476 6.43447 8.24386 6.44556 7.90489 6.69691L8.50053 7.50016C7.90489 6.69691 7.90445 6.69725 7.90399 6.69758L7.90307 6.69827L7.90114 6.69971L7.89701 6.70282L7.88762 6.70998L7.86453 6.72812C7.84729 6.74191 7.8264 6.75916 7.80242 6.77996C7.75451 6.82151 7.69396 6.87746 7.62529 6.94852C7.4881 7.09048 7.31702 7.29429 7.1497 7.56553C6.81083 8.11487 6.50095 8.91975 6.50053 9.99978C6.4992 13.4816 8.88005 16.0002 12.0002 16.0002C13.2198 16.0002 14.2184 15.709 15.0172 15.2055C15.8122 14.7044 16.3526 14.0289 16.7163 13.3442C17.4279 12.0043 17.5005 10.559 17.5005 10.0002C17.5005 8.21892 16.8847 7.01865 16.0675 5.86098C15.8096 5.49557 15.5444 5.14817 15.272 4.79139L15.272 4.79138C14.672 4.00544 14.0373 3.17395 13.3688 2.00403ZM8.50053 7.50016L9.05588 6.66854C9.05555 6.66833 9.05523 6.66811 8.50053 7.50016ZM12.5005 4.50016C12.5005 4.46181 12.5015 4.42475 12.5032 4.38892C12.9519 5.05025 13.3876 5.62194 13.7692 6.12262L13.7692 6.12264C14.0173 6.44819 14.2425 6.74372 14.4336 7.01435C15.1164 7.98168 15.5005 8.78141 15.5005 10.0002C15.5005 10.4414 15.4333 11.4961 14.9499 12.4061C14.7161 12.8465 14.3952 13.2334 13.9507 13.5136C13.51 13.7913 12.891 14.0002 12.0002 14.0002C10.121 14.0002 8.49957 12.5187 8.50053 10.0005C8.50069 9.59489 8.56863 9.2727 8.65762 9.02341C8.99303 9.4327 9.34628 10.0063 9.53039 10.7427C9.61454 11.0793 9.86713 11.3482 10.1978 11.4532C10.5285 11.5583 10.8899 11.4844 11.1529 11.2581L10.5005 10.5002C11.1529 11.2581 11.1537 11.2574 11.1539 11.2572L11.1551 11.2562L11.1579 11.2538L11.1651 11.2475L11.1858 11.229C11.2023 11.2142 11.2242 11.1942 11.2507 11.1692C11.3036 11.1194 11.3752 11.0495 11.4592 10.9612C11.6264 10.7856 11.8477 10.532 12.07 10.2141C12.5039 9.5933 13.0002 8.64243 13.0005 7.50042C13.0007 6.75524 12.8444 6.14663 12.7175 5.66614L12.7153 5.65784C12.5836 5.15852 12.5005 4.84401 12.5005 4.50016ZM20.9543 16.2019C20.7895 15.6747 20.2286 15.381 19.7015 15.5457L11.9998 17.9525L4.2981 15.5457C3.77095 15.381 3.21008 15.6747 3.04534 16.2019C2.88061 16.729 3.1744 17.2899 3.70155 17.4546L8.64719 19.0002L3.7015 20.5457C3.17436 20.7104 2.88057 21.2713 3.0453 21.7984C3.21003 22.3256 3.77091 22.6194 4.29805 22.4546L11.9998 20.0478L19.7015 22.4546C20.2287 22.6194 20.7896 22.3256 20.9543 21.7984C21.119 21.2713 20.8252 20.7104 20.2981 20.5457L15.3524 19.0002L20.2981 17.4546C20.8252 17.2899 21.119 16.729 20.9543 16.2019Z" fill="black"/>
</svg>
