<svg width="24" height="24" viewBox="0 0 24 24" fill="none" xmlns="http://www.w3.org/2000/svg">
<path fill-rule="evenodd" clip-rule="evenodd" d="M12 2C12.5523 2 13 2.44772 13 3V10.2686L19.2956 6.63391C19.7739 6.35777 20.3855 6.52164 20.6616 6.99994C20.9377 7.47823 20.7739 8.08982 20.2956 8.36596L14.0007 12.0003L20.2943 15.634C20.7726 15.9101 20.9365 16.5217 20.6603 17C20.3842 17.4783 19.7726 17.6422 19.2943 17.366L13 13.732V21C13 21.5523 12.5523 22 12 22C11.4478 22 11 21.5523 11 21V13.7327L4.70712 17.366C4.22883 17.6421 3.61724 17.4782 3.3411 16.9999C3.06496 16.5216 3.22883 15.9101 3.70712 15.6339L10.0007 12.0003L3.70586 8.36603C3.22756 8.08989 3.06369 7.47829 3.33983 7C3.61597 6.52171 4.22756 6.35783 4.70586 6.63398L11 10.2679V3C11 2.44772 11.4478 2 12 2Z" fill="black"/>
</svg>
