<svg width="24" height="24" viewBox="0 0 24 24" fill="none" xmlns="http://www.w3.org/2000/svg">
<path fill-rule="evenodd" clip-rule="evenodd" d="M5.44723 2.39441L5.4484 2.39382C5.45567 2.39016 5.45889 2.38854 5.47723 2.39047C5.50689 2.3936 5.57804 2.40941 5.69407 2.47523C5.93793 2.61358 6.24872 2.89747 6.58428 3.33091C7.09031 3.98453 7.53546 4.8241 7.81524 5.56707C6.90509 5.86258 6.0968 6.2843 5.40983 6.85678C5.08945 7.12376 4.80266 7.4173 4.5485 7.73667C4.45368 6.83747 4.45752 5.8902 4.55617 5.01873C4.64326 4.24949 4.79921 3.58662 4.99713 3.09821C5.21095 2.57056 5.40374 2.41616 5.44723 2.39441ZM3.23111 10.6398C3.15366 10.5467 3.09192 10.438 3.05133 10.3162C2.49529 8.6481 2.36901 6.55912 2.56887 4.79375C2.66929 3.90673 2.85708 3.05398 3.14354 2.34708C3.41409 1.67941 3.8463 0.958814 4.55279 0.60556C5.3244 0.21975 6.09596 0.403804 6.68094 0.73567C7.24958 1.05827 7.75129 1.57125 8.16573 2.10656C8.85169 2.99259 9.43983 4.12567 9.78466 5.13456C10.4847 5.04235 11.2252 5 12 5C12.9907 5 13.9195 5.08581 14.777 5.26139L15.6661 3.77956C16.2038 2.88342 17.3408 2.55233 18.2755 3.0197L21.2361 4.49999C22.93 5.34695 24 7.07827 24 8.97213V11.5585C24 12.8498 23.1737 13.9962 21.9487 14.4045L20.8564 14.7686C20.4901 16.998 19.4682 18.8407 18.3151 20.1585C17.5938 20.9829 16.8005 21.626 16.0477 22.035C15.6715 22.2393 15.2838 22.3969 14.9031 22.4806C14.8533 22.4916 14.8023 22.5015 14.7505 22.5102C14.7039 22.6063 14.6484 22.7053 14.5821 22.8047C14.1239 23.4919 13.2913 24 12 24C10.7087 24 9.8761 23.4919 9.41796 22.8047C9.34781 22.6995 9.28967 22.5947 9.24145 22.4934C9.17689 22.4806 9.11402 22.4657 9.05322 22.4495C8.67028 22.3471 8.28351 22.1662 7.9121 21.9416C7.16806 21.4915 6.38413 20.8037 5.67181 19.9557C4.25151 18.2649 3.00002 15.7951 3.00002 13C3.00002 12.1518 3.07565 11.3641 3.23111 10.6398ZM20.9936 12.6147L21.3162 12.5072C21.7246 12.371 22 11.9889 22 11.5585V8.97213C22 7.83581 21.358 6.79702 20.3417 6.28885L17.3811 4.80855L16.7397 5.87758C17.4374 6.1871 18.0637 6.58066 18.6105 7.06165C20.1406 8.4076 20.9163 10.3212 20.9936 12.6147ZM11 21.4211C11.1002 21.369 11.1972 21.3116 11.291 21.249C11.5672 21.0649 11.8033 20.8439 12 20.5998C12.1967 20.8439 12.4328 21.0649 12.709 21.249C12.8028 21.3116 12.8998 21.369 13 21.4211V21.4751C12.999 21.4834 12.9969 21.4982 12.9926 21.5174C12.981 21.5696 12.9584 21.6347 12.918 21.6953C12.8761 21.7581 12.7087 22 12 22C11.2913 22 11.1239 21.7581 11.0821 21.6953C11.0417 21.6347 11.019 21.5696 11.0075 21.5174C11.0032 21.4982 11.001 21.4834 11 21.4751V21.4211ZM8.94173 20.2269C8.4213 19.911 7.80127 19.3813 7.20322 18.6693C5.99852 17.2351 5.00002 15.2049 5.00002 13C5.00002 10.6866 5.64108 9.26749 6.6902 8.39322C7.77789 7.48682 9.49736 7 12 7C14.4545 7 16.184 7.59091 17.2895 8.56335C18.3745 9.51771 19 10.9647 19 13C19 15.4704 17.9894 17.4935 16.8099 18.8415C16.2833 19.4433 15.7394 19.8914 15.2644 20.179C14.448 20.3954 13.8937 20.236 13.541 20.001C13.3136 19.8493 13.1329 19.6429 13.002 19.414L13.62 18.59C14.1886 17.8319 13.6477 16.75 12.7 16.75H11.3C10.3524 16.75 9.81143 17.8319 10.38 18.59L10.998 19.414C10.8671 19.6429 10.6864 19.8493 10.459 20.001C10.1369 20.2157 9.64644 20.3672 8.94173 20.2269ZM10 14C10 14.8284 9.32844 15.5 8.50002 15.5C7.67159 15.5 7.00002 14.8284 7.00002 14C7.00002 13.1716 7.67159 12.5 8.50002 12.5C9.32844 12.5 10 13.1716 10 14ZM15.5 15.5C16.3284 15.5 17 14.8284 17 14C17 13.1716 16.3284 12.5 15.5 12.5C14.6716 12.5 14 13.1716 14 14C14 14.8284 14.6716 15.5 15.5 15.5Z" fill="black"/>
</svg>
