<svg width="24" height="24" viewBox="0 0 24 24" fill="none" xmlns="http://www.w3.org/2000/svg">
<path fill-rule="evenodd" clip-rule="evenodd" d="M12 4C7.58172 4 4 7.58172 4 12C4 16.4183 7.58172 20 12 20C16.4183 20 20 16.4183 20 12C20 7.58172 16.4183 4 12 4ZM2 12C2 6.47715 6.47715 2 12 2C17.5228 2 22 6.47715 22 12C22 17.5228 17.5228 22 12 22C6.47715 22 2 17.5228 2 12ZM8 8.23078C8 7.38111 8.68879 6.69232 9.53846 6.69232H9.61178V6.40002C9.61178 5.84774 10.0595 5.40002 10.6118 5.40002C11.1641 5.40002 11.6118 5.84774 11.6118 6.40002V6.69232H11.7656V6.40002C11.7656 5.84774 12.2133 5.40002 12.7656 5.40002C13.3179 5.40002 13.7656 5.84774 13.7656 6.40002V6.85295C15.0192 7.27003 15.9231 8.45254 15.9231 9.84617C15.9231 10.4345 15.762 10.9852 15.4815 11.4566C16.3919 12.0097 17 13.0108 17 14.1538C17 15.8957 15.588 17.3077 13.8462 17.3077H13.7656V17.58C13.7656 18.1323 13.3179 18.58 12.7656 18.58C12.2133 18.58 11.7656 18.1323 11.7656 17.58V17.3077H11.6118V17.58C11.6118 18.1323 11.1641 18.58 10.6118 18.58C10.0595 18.58 9.61178 18.1323 9.61178 17.58V17.3075C8.71938 17.2944 8 16.5669 8 15.6713V12V12V8.23078ZM12.774 11H10V8.69232H12.7692C13.4065 8.69232 13.9231 9.20891 13.9231 9.84617C13.9231 10.4818 13.409 10.9974 12.774 11ZM10 13V15.3077H13.8462C14.4834 15.3077 15 14.7911 15 14.1538C15 13.5166 14.4834 13 13.8462 13H12.7771L12.7692 13H10Z" fill="black"/>
</svg>
