<svg width="24" height="24" viewBox="0 0 24 24" fill="none" xmlns="http://www.w3.org/2000/svg">
<path fill-rule="evenodd" clip-rule="evenodd" d="M9.50003 2C8.39546 2 7.50003 2.89543 7.50003 4V10.7871C7.50003 10.9451 7.43048 11.095 7.3099 11.1971L5.28671 12.909C2.73765 15.0659 2.64769 18.966 5.0946 21.2382C7.28885 23.2757 10.7017 23.2125 12.8191 21.0952L15.864 18.0503C17.5518 16.3624 18.5 14.0732 18.5 11.6863V4C18.5 2.89543 17.6046 2 16.5 2H9.50003ZM9.50003 4H16.5V6L9.50003 6V4ZM9.50003 8V10.7871C9.50003 11.5334 9.17147 12.2418 8.60179 12.7239L6.57859 14.4358C4.94532 15.8178 4.88768 18.3167 6.4555 19.7726C7.86144 21.0781 10.0482 21.0376 11.4049 19.681L14.4498 16.636C15.7625 15.3233 16.5 13.5428 16.5 11.6863V8L9.50003 8Z" fill="black"/>
</svg>
