<svg width="24" height="24" viewBox="0 0 24 24" fill="none" xmlns="http://www.w3.org/2000/svg">
<path fill-rule="evenodd" clip-rule="evenodd" d="M8.49284 5.68377C8.62895 5.27543 9.01109 5 9.44152 5H14.5585C14.9889 5 15.3711 5.27543 15.5072 5.68377L15.8234 6.63246C16.0956 7.44914 16.8599 8 17.7208 8H18.5C19.6046 8 20.5 8.89543 20.5 10V16.5C20.5 17.6046 19.6046 18.5 18.5 18.5H5.5C4.39543 18.5 3.5 17.6046 3.5 16.5V10C3.5 8.89543 4.39543 8 5.5 8H6.27924C7.1401 8 7.90438 7.44914 8.17661 6.63246L8.49284 5.68377ZM9.44152 3C8.15023 3 7.00381 3.82629 6.59547 5.05132L6.27924 6H5.5C3.29086 6 1.5 7.79086 1.5 10V16.5C1.5 18.7091 3.29086 20.5 5.5 20.5H18.5C20.7091 20.5 22.5 18.7091 22.5 16.5V10C22.5 7.79086 20.7091 6 18.5 6H17.7208L17.4045 5.05132C16.9962 3.82629 15.8498 3 14.5585 3H9.44152ZM9.5 12.2C9.5 10.8193 10.6193 9.70001 12 9.70001C13.3807 9.70001 14.5 10.8193 14.5 12.2C14.5 13.5807 13.3807 14.7 12 14.7C10.6193 14.7 9.5 13.5807 9.5 12.2ZM12 7.70001C9.51472 7.70001 7.5 9.71473 7.5 12.2C7.5 14.6853 9.51472 16.7 12 16.7C14.4853 16.7 16.5 14.6853 16.5 12.2C16.5 9.71473 14.4853 7.70001 12 7.70001Z" fill="black"/>
</svg>
