<svg width="24" height="24" viewBox="0 0 24 24" fill="none" xmlns="http://www.w3.org/2000/svg">
<path fill-rule="evenodd" clip-rule="evenodd" d="M13.8787 2.70705C15.0503 1.53547 16.9498 1.53548 18.1213 2.70705L21.2929 5.87862C22.4645 7.0502 22.4645 8.94969 21.2929 10.1213L10.4714 20.9427L3.14143 21.9899C2.82984 22.0344 2.51547 21.9296 2.2929 21.707C2.07034 21.4845 1.96555 21.1701 2.01006 20.8585L3.0572 13.5285L13.8787 2.70705ZM16.7071 4.12126C16.3166 3.73074 15.6834 3.73074 15.2929 4.12126L14.4142 4.99994L19 9.58573L19.8787 8.70705C20.2692 8.31652 20.2692 7.68336 19.8787 7.29284L16.7071 4.12126ZM17.5858 10.9999L13 6.41416L5.41422 13.9999L10 18.5857L17.5858 10.9999ZM7.87869 19.2928L4.70712 16.1213L4.17852 19.8214L7.87869 19.2928Z" fill="black"/>
</svg>
