<svg width="24" height="24" viewBox="0 0 24 24" fill="none" xmlns="http://www.w3.org/2000/svg">
<path fill-rule="evenodd" clip-rule="evenodd" d="M2.5 6.5C2.5 4.29086 4.29086 2.5 6.5 2.5H17.5C19.7091 2.5 21.5 4.29086 21.5 6.5V17.5C21.5 19.7091 19.7091 21.5 17.5 21.5H6.5C4.29086 21.5 2.5 19.7091 2.5 17.5V6.5ZM6.5 4.5C5.39543 4.5 4.5 5.39543 4.5 6.5V17.5C4.5 18.6046 5.39543 19.5 6.5 19.5H17.5C18.6046 19.5 19.5 18.6046 19.5 17.5V6.5C19.5 5.39543 18.6046 4.5 17.5 4.5H6.5ZM12.7071 7.29289C13.0976 7.68342 13.0976 8.31658 12.7071 8.70711L10.4142 11L16 11C16.5523 11 17 11.4477 17 12C17 12.5523 16.5523 13 16 13L10.4142 13L12.7071 15.2929C13.0976 15.6834 13.0976 16.3166 12.7071 16.7071C12.3166 17.0976 11.6834 17.0976 11.2929 16.7071L7.29289 12.7071C7.19702 12.6112 7.12468 12.5007 7.07588 12.3828C7.02699 12.2649 7 12.1356 7 12C7 11.8644 7.02699 11.7351 7.07588 11.6172C7.12357 11.502 7.19374 11.3938 7.2864 11.2995C7.28887 11.2969 7.29136 11.2944 7.29385 11.2919L11.2929 7.29289C11.6834 6.90237 12.3166 6.90237 12.7071 7.29289Z" fill="black"/>
</svg>
