<svg width="24" height="24" viewBox="0 0 24 24" fill="none" xmlns="http://www.w3.org/2000/svg">
<path fill-rule="evenodd" clip-rule="evenodd" d="M9.39394 2.43995C10.8322 1.00171 13.164 1.00171 14.6023 2.43995L21.5582 9.39583C22.9964 10.8341 22.9964 13.1659 21.5582 14.6042L14.6023 21.56C13.164 22.9983 10.8322 22.9983 9.39394 21.56L2.43806 14.6042C0.999815 13.1659 0.999815 10.8341 2.43806 9.39583L9.39394 2.43995ZM13.1881 3.85416C12.5309 3.19697 11.4653 3.19697 10.8082 3.85416L3.85227 10.81C3.19508 11.4672 3.19508 12.5328 3.85227 13.1899L10.8082 20.1458C11.4653 20.803 12.5309 20.803 13.1881 20.1458L20.1439 13.1899C20.8011 12.5328 20.8011 11.4672 20.1439 10.81L13.1881 3.85416ZM11.9981 7C12.5504 7 12.9981 7.44771 12.9981 8V11C12.9981 11.5523 12.5504 12 11.9981 12C11.4458 12 10.9981 11.5523 10.9981 11V8C10.9981 7.44771 11.4458 7 11.9981 7ZM11.9981 16.5C12.8265 16.5 13.4981 15.8284 13.4981 15C13.4981 14.1716 12.8265 13.5 11.9981 13.5C11.1697 13.5 10.4981 14.1716 10.4981 15C10.4981 15.8284 11.1697 16.5 11.9981 16.5Z" fill="black"/>
</svg>
