<svg width="24" height="24" viewBox="0 0 24 24" fill="none" xmlns="http://www.w3.org/2000/svg">
<path fill-rule="evenodd" clip-rule="evenodd" d="M18 2C19.1046 2 20 2.89543 20 4L20 16C20 17.1046 19.1046 18 18 18L7 18C6.44772 18 6 18.4477 6 19C6 19.5523 6.44771 20 7 20L18.5 20C19.0523 20 19.5 20.4477 19.5 21C19.5 21.5523 19.0523 22 18.5 22L7 22C5.34315 22 4 20.6569 4 19L4 5C4 3.34314 5.34315 2 7 2L18 2ZM6 16.1707C6.31278 16.0602 6.64936 16 7 16L18 16L18 4L7 4C6.44772 4 6 4.44771 6 5L6 16.1707Z" fill="black"/>
</svg>
