<svg width="24" height="24" viewBox="0 0 24 24" fill="none" xmlns="http://www.w3.org/2000/svg">
<path fill-rule="evenodd" clip-rule="evenodd" d="M4.50024 2.5C3.67182 2.5 3.00024 3.17157 3.00024 4V20C3.00024 20.8284 3.67182 21.5 4.50024 21.5H10.0002C10.8287 21.5 11.5002 20.8284 11.5002 20V11.7856L13.8435 20.5307C14.0579 21.3309 14.8804 21.8058 15.6806 21.5913L20.9932 20.1678C21.7934 19.9534 22.2683 19.1309 22.0539 18.3307L18.4304 4.80776C18.216 4.00757 17.3935 3.53269 16.5933 3.7471L11.5002 5.11178V4C11.5002 3.17157 10.8287 2.5 10.0002 2.5H4.50024ZM5.00024 6.5V4.5H9.50024V6.5H5.00024ZM5.00024 8.5H9.50024V15.5H5.00024V8.5ZM5.00024 17.5H9.50024V19.5H5.00024V17.5ZM14.6106 15.6664L12.2813 6.97305L16.6279 5.80837L18.9573 14.5017L14.6106 15.6664ZM15.1283 17.5982L19.475 16.4335L19.9926 18.3654L15.6459 19.5301L15.1283 17.5982ZM14.2478 8.51667C13.7143 8.65962 13.3978 9.20795 13.5407 9.74142C13.6836 10.2749 14.232 10.5915 14.7654 10.4485L16.2143 10.0603C16.7478 9.91736 17.0644 9.36902 16.9214 8.83555C16.7785 8.30209 16.2302 7.9855 15.6967 8.12845L14.2478 8.51667Z" fill="black"/>
</svg>
