<svg width="24" height="24" viewBox="0 0 24 24" fill="none" xmlns="http://www.w3.org/2000/svg">
<path fill-rule="evenodd" clip-rule="evenodd" d="M3 18.1668V5.26717C4.30231 4.93674 6.84891 4.37907 8.59901 4.49775C9.75303 4.576 10.5923 4.95398 11.5827 5.4088L11.6178 5.42494C12.5967 5.87454 13.7263 6.39336 15.2657 6.49775C17.1239 6.62376 19.5345 6.13974 20.9412 5.80652C20.9505 5.80433 20.9572 5.80465 20.9638 5.80614C20.9717 5.80793 20.9805 5.8119 20.9883 5.81795C20.9961 5.82394 20.9992 5.82904 20.9998 5.83023C20.9998 5.83027 20.9998 5.8303 20.9999 5.83033C20.9999 5.83052 20.9999 5.83078 20.9999 5.83114C21 5.83166 21 5.83237 21 5.8333V18.7329C19.6977 19.0633 17.1511 19.621 15.401 19.5023C14.247 19.4241 13.4077 19.0461 12.4173 18.5913L12.3822 18.5751C11.4033 18.1255 10.2737 17.6067 8.73432 17.5023C6.87607 17.3763 4.46549 17.8603 3.05878 18.1936C3.04955 18.1957 3.04276 18.1954 3.03621 18.1939C3.02835 18.1922 3.0195 18.1882 3.01166 18.1821C3.00388 18.1761 3.00081 18.171 3.0002 18.1699C3.0001 18.1697 3.00006 18.1696 3.00006 18.1696C3.00006 18.1696 3.00012 18.1697 3.00017 18.1699C3.00023 18.1701 3.0002 18.1701 3.00016 18.1698C3.0001 18.1694 3 18.1684 3 18.1668ZM20.9999 5.83033C20.9999 5.83048 20.9999 5.83053 20.9999 5.83051C20.9999 5.83049 20.9999 5.83036 20.9998 5.83016C20.9998 5.82992 20.9998 5.82996 20.9999 5.83033ZM8.73432 2.50233C6.61001 2.35828 3.74606 3.01317 2.47581 3.33682C1.58507 3.56377 1 4.36621 1 5.25008V18.1668C1 19.506 2.26968 20.4358 3.51978 20.1397C4.92771 19.8062 7.07363 19.3943 8.59901 19.4977C9.75303 19.576 10.5923 19.954 11.5827 20.4088L11.6178 20.4249L11.6178 20.425C12.5967 20.8745 13.7263 21.3934 15.2657 21.4978C17.39 21.6418 20.2539 20.9869 21.5242 20.6633C22.4149 20.4363 23 19.6339 23 18.75V5.8333C23 4.49405 21.7303 3.56425 20.4802 3.86038C19.0723 4.19389 16.9264 4.60577 15.401 4.50233C14.247 4.42408 13.4077 4.0461 12.4173 3.59128L12.3822 3.57514C11.4033 3.12555 10.2737 2.60672 8.73432 2.50233ZM11.8146 6.64095C11.8939 6.49302 12.106 6.49302 12.1854 6.64095L12.5194 7.26362L13.2148 7.38888C13.38 7.41863 13.4456 7.62038 13.3294 7.74156L12.8404 8.25165L12.9362 8.95173C12.959 9.11805 12.7874 9.24274 12.6362 9.1697L12 8.86228L11.3638 9.1697C11.2126 9.24274 11.041 9.11805 11.0637 8.95173L11.1595 8.25165L10.6705 7.74156C10.5544 7.62038 10.6199 7.41863 10.7851 7.38888L11.4805 7.26362L11.8146 6.64095ZM11.4805 15.4281L11.8146 14.8055C11.8939 14.6575 12.106 14.6575 12.1854 14.8055L12.5194 15.4281L13.2148 15.5534C13.38 15.5831 13.4456 15.7849 13.3294 15.9061L12.8404 16.4161L12.9362 17.1162C12.959 17.2826 12.7874 17.4072 12.6362 17.3342L12 17.0268L11.3638 17.3342C11.2126 17.4072 11.041 17.2826 11.0637 17.1162L11.1595 16.4161L10.6705 15.9061C10.5544 15.7849 10.6199 15.5831 10.7851 15.5534L11.4805 15.4281ZM15.072 7.8366C14.9926 7.68867 14.7805 7.68867 14.7012 7.8366L14.3671 8.45928L13.6717 8.58453C13.5065 8.61429 13.441 8.81603 13.5571 8.93721L14.0461 9.4473L13.9503 10.1474C13.9276 10.3137 14.0992 10.4384 14.2503 10.3654L14.8866 10.0579L15.5228 10.3654C15.6739 10.4384 15.8456 10.3137 15.8228 10.1474L15.727 9.4473L16.216 8.93721C16.3322 8.81603 16.2666 8.61429 16.1014 8.58453L15.406 8.45928L15.072 7.8366ZM8.59395 14.2325L8.92797 13.6098C9.00732 13.4619 9.21944 13.4619 9.2988 13.6098L9.63282 14.2325L10.3282 14.3577C10.4934 14.3875 10.559 14.5892 10.4428 14.7104L9.95384 15.2205L10.0496 15.9206C10.0724 16.0869 9.90075 16.2116 9.74961 16.1385L9.11338 15.8311L8.47716 16.1385C8.32601 16.2116 8.15439 16.0869 8.17715 15.9206L8.27292 15.2205L7.78394 14.7104C7.66777 14.5892 7.73332 14.3875 7.89853 14.3577L8.59395 14.2325ZM9.2988 7.83662C9.21944 7.68869 9.00732 7.68869 8.92797 7.83662L8.59395 8.45929L7.89853 8.58454C7.73332 8.6143 7.66777 8.81604 7.78394 8.93723L8.27292 9.44731L8.17715 10.1474C8.15439 10.3137 8.32601 10.4384 8.47716 10.3654L9.11338 10.0579L9.74961 10.3654C9.90075 10.4384 10.0724 10.3137 10.0496 10.1474L9.95384 9.44731L10.4428 8.93723C10.559 8.81604 10.4934 8.6143 10.3282 8.58454L9.63282 8.45929L9.2988 7.83662ZM14.3671 14.2325L14.7012 13.6098C14.7805 13.4619 14.9926 13.4619 15.072 13.6098L15.406 14.2325L16.1014 14.3577C16.2666 14.3875 16.3322 14.5892 16.216 14.7104L15.727 15.2205L15.8228 15.9206C15.8456 16.0869 15.6739 16.2116 15.5228 16.1385L14.8866 15.8311L14.2503 16.1385C14.0992 16.2116 13.9276 16.0869 13.9503 15.9206L14.0461 15.2205L13.5571 14.7104C13.441 14.5892 13.5065 14.3875 13.6717 14.3577L14.3671 14.2325ZM16.2677 10.7232C16.1883 10.5753 15.9762 10.5753 15.8968 10.7232L15.5628 11.3459L14.8674 11.4711C14.7022 11.5009 14.6366 11.7026 14.7528 11.8238L15.2418 12.3339L15.146 13.034C15.1233 13.2003 15.2949 13.325 15.446 13.252L16.0823 12.9445L16.7185 13.252C16.8696 13.325 17.0412 13.2003 17.0185 13.034L16.9227 12.3339L17.4117 11.8238C17.5279 11.7026 17.4623 11.5009 17.2971 11.4711L16.6017 11.3459L16.2677 10.7232ZM7.73229 10.7232C7.81164 10.5753 8.02377 10.5753 8.10312 10.7232L8.43714 11.3459L9.13255 11.4711C9.29776 11.5009 9.36331 11.7026 9.24715 11.8238L8.75816 12.3339L8.85394 13.034C8.87669 13.2003 8.70508 13.325 8.55393 13.252L7.9177 12.9445L7.28148 13.252C7.13033 13.325 6.95871 13.2003 6.98147 13.034L7.07724 12.3339L6.58826 11.8238C6.47209 11.7026 6.53764 11.5009 6.70285 11.4711L7.39827 11.3459L7.73229 10.7232Z" fill="black"/>
</svg>
