<svg width="24" height="24" viewBox="0 0 24 24" fill="none" xmlns="http://www.w3.org/2000/svg">
<path fill-rule="evenodd" clip-rule="evenodd" d="M20.875 9.61852C22.7083 10.677 22.7083 13.3232 20.875 14.3817L8.125 21.7429C6.39108 22.744 4.24719 21.6147 4.01978 19.6984C4.00321 19.6162 3.99704 19.5322 4.00131 19.4487C4.00044 19.4197 4 19.3906 4 19.3613V4.63887C4 4.60959 4.00044 4.58047 4.00131 4.5515C3.99704 4.46795 4.00321 4.384 4.01977 4.30178C4.24716 2.38544 6.39107 1.25621 8.125 2.2573L20.875 9.61852ZM6 6.99226L10.7901 12.0001L6 17.0079L6 6.99226ZM12.1739 13.4468L6.12224 19.7736C6.32882 20.0863 6.76018 20.2214 7.125 20.0108L14.4225 15.7976L12.1739 13.4468ZM16.2055 14.7682L19.875 12.6496C20.375 12.3609 20.375 11.6392 19.875 11.3506L16.2055 9.23198L13.5577 12.0001L16.2055 14.7682ZM6.12223 4.22662C6.32882 3.91388 6.76018 3.77872 7.125 3.98935L14.4225 8.20257L12.1739 10.5534L6.12223 4.22662Z" fill="black"/>
</svg>
