<svg width="24" height="24" viewBox="0 0 24 24" fill="none" xmlns="http://www.w3.org/2000/svg">
<path fill-rule="evenodd" clip-rule="evenodd" d="M9.99388 3.11046C10.0549 2.56155 9.65934 2.06713 9.11043 2.00614C8.56152 1.94515 8.0671 2.34069 8.00611 2.8896L7.5494 7L3 7C2.44772 7 2 7.44771 2 8C2 8.55228 2.44772 9 3 9H7.32718L6.66051 15H3C2.44772 15 2 15.4477 2 16C2 16.5523 2.44772 17 3 17H6.43829L6.00611 20.8896C5.94512 21.4385 6.34066 21.9329 6.88956 21.9939C7.43847 22.0549 7.93289 21.6594 7.99388 21.1105L8.4506 17L14.4383 17L14.0061 20.8896C13.9451 21.4385 14.3407 21.9329 14.8896 21.9939C15.4385 22.0549 15.9329 21.6594 15.9939 21.1105L16.4506 17H21C21.5523 17 22 16.5523 22 16C22 15.4477 21.5523 15 21 15H16.6728L17.3395 9H21C21.5523 9 22 8.55228 22 8C22 7.44772 21.5523 7 21 7H17.5617L17.9939 3.11046C18.0549 2.56155 17.6593 2.06713 17.1104 2.00614C16.5615 1.94515 16.0671 2.34069 16.0061 2.8896L15.5494 7L9.56171 7L9.99388 3.11046ZM14.6605 15L15.3272 9L9.33949 9L8.67282 15L14.6605 15Z" fill="black"/>
</svg>
