<svg width="24" height="24" viewBox="0 0 24 24" fill="none" xmlns="http://www.w3.org/2000/svg">
<path fill-rule="evenodd" clip-rule="evenodd" d="M6.5 2.5C4.29086 2.5 2.5 4.29086 2.5 6.5V17.5C2.5 19.7091 4.29086 21.5 6.5 21.5H17.5C19.7091 21.5 21.5 19.7091 21.5 17.5V6.5C21.5 4.29086 19.7091 2.5 17.5 2.5H6.5ZM4.5 6.5C4.5 5.39543 5.39543 4.5 6.5 4.5H17.5C18.6046 4.5 19.5 5.39543 19.5 6.5V17.5C19.5 18.6046 18.6046 19.5 17.5 19.5H6.5C5.39543 19.5 4.5 18.6046 4.5 17.5V6.5ZM8 16.5C9.34287 16.5 10.3391 15.8939 11.0991 15.0959C11.8087 14.3509 12.3597 13.3864 12.8373 12.5503L12.8373 12.5502L12.8682 12.4961C13.3834 11.5945 13.824 10.8348 14.3491 10.2834C14.8391 9.76892 15.3429 9.5 16 9.5C16.5523 9.5 17 9.05228 17 8.5C17 7.94772 16.5523 7.5 16 7.5C14.6571 7.5 13.6609 8.10608 12.9009 8.90409C12.1913 9.64912 11.6403 10.6136 11.1627 11.4498L11.1318 11.5039C10.6166 12.4055 10.176 13.1652 9.65086 13.7166C9.16088 14.2311 8.65713 14.5 8 14.5C7.44772 14.5 7 14.9477 7 15.5C7 16.0523 7.44772 16.5 8 16.5Z" fill="black"/>
</svg>
