<svg width="24" height="24" viewBox="0 0 24 24" fill="none" xmlns="http://www.w3.org/2000/svg">
<path fill-rule="evenodd" clip-rule="evenodd" d="M12 4C7.74044 4 4.25841 7.32902 4.01374 11.5272C4.59897 11.1918 5.27709 11 6 11C8.20914 11 10 12.7909 10 15V18C10 20.2091 8.20914 22 6 22C3.79086 22 2 20.2091 2 18V17V15V12C2 6.47715 6.47715 2 12 2C17.5228 2 22 6.47715 22 12V15V17V18C22 20.2091 20.2091 22 18 22C15.7909 22 14 20.2091 14 18V15C14 12.7909 15.7909 11 18 11C18.7229 11 19.401 11.1918 19.9863 11.5272C19.7416 7.32902 16.2596 4 12 4ZM20 15C20 13.8954 19.1046 13 18 13C16.8954 13 16 13.8954 16 15V18C16 19.1046 16.8954 20 18 20C19.1046 20 20 19.1046 20 18V17V15ZM4 17V15C4 13.8954 4.89543 13 6 13C7.10457 13 8 13.8954 8 15V18C8 19.1046 7.10457 20 6 20C4.89543 20 4 19.1046 4 18V17Z" fill="black"/>
</svg>
