<svg width="24" height="24" viewBox="0 0 24 24" fill="none" xmlns="http://www.w3.org/2000/svg">
<path fill-rule="evenodd" clip-rule="evenodd" d="M13.3515 2C12.0833 2 11.0418 2.88329 10.7021 4.01964C10.2876 5.40629 9.47403 7.58154 8.12124 9.34361C7.80144 9.12672 7.41552 9 7 9H4C2.89543 9 2 9.89543 2 11V19C2 20.1046 2.89543 21 4 21H7C7.65421 21 8.23506 20.6859 8.59995 20.2003C9.26849 20.7024 10.0995 21 11 21H17.4963C19.4294 21 21.0859 19.6175 21.4318 17.7155L22.5552 11.5367C22.89 9.69514 21.4753 8 19.6036 8H16V4.64853C16 3.18579 14.8142 2 13.3515 2ZM9 17C9 18.1046 9.89543 19 11 19H17.4963C18.4628 19 19.2911 18.3088 19.464 17.3578L20.5874 11.1789C20.6991 10.565 20.2275 10 19.6036 10H15C14.4477 10 14 9.55228 14 9V4.64853C14 4.29036 13.7096 4 13.3515 4C13.048 4 12.7288 4.22301 12.6183 4.59246C12.1251 6.2424 11.0331 9.20381 9 11.4024V17ZM7 11H4V19H7V17V11Z" fill="black"/>
</svg>
