<svg width="24" height="24" viewBox="0 0 24 24" fill="none" xmlns="http://www.w3.org/2000/svg">
<path fill-rule="evenodd" clip-rule="evenodd" d="M2.5 4C2.5 2.89543 3.39543 2 4.5 2H19.5C20.6046 2 21.5 2.89543 21.5 4V14C21.5 14.2652 21.3946 14.5196 21.2071 14.7071L17.2071 18.7071C17.0196 18.8946 16.7652 19 16.5 19H12.4142L9.56066 21.8536C8.61571 22.7985 7 22.1292 7 20.7929V19H4.5C3.39543 19 2.5 18.1046 2.5 17V4ZM19.5 4H4.5V17H8C8.55228 17 9 17.4477 9 18V19.5858L11.2929 17.2929C11.4804 17.1054 11.7348 17 12 17H16.0858L19.5 13.5858V4ZM15.5 7C16.0523 7 16.5 7.44772 16.5 8V12C16.5 12.5523 16.0523 13 15.5 13C14.9477 13 14.5 12.5523 14.5 12V8C14.5 7.44772 14.9477 7 15.5 7ZM11.5 8C11.5 7.44772 11.0523 7 10.5 7C9.94772 7 9.5 7.44772 9.5 8V12C9.5 12.5523 9.94772 13 10.5 13C11.0523 13 11.5 12.5523 11.5 12V8Z" fill="black"/>
</svg>
