<svg width="24" height="24" viewBox="0 0 24 24" fill="none" xmlns="http://www.w3.org/2000/svg">
<path fill-rule="evenodd" clip-rule="evenodd" d="M22.5 4C22.5 4.55229 22.0523 5 21.5 5L2.5 5C1.94772 5 1.5 4.55228 1.5 4C1.5 3.44772 1.94772 3 2.5 3H21.5C22.0523 3 22.5 3.44772 22.5 4ZM8.8 7C10.015 7 11 7.98497 11 9.2L11 18.8C11 20.015 10.015 21 8.8 21H5.7C4.48497 21 3.5 20.015 3.5 18.8L3.5 9.2C3.5 7.98497 4.48497 7 5.7 7H8.8ZM9 9.2C9 9.08954 8.91046 9 8.8 9H5.7C5.58954 9 5.5 9.08954 5.5 9.2L5.5 18.8C5.5 18.9105 5.58954 19 5.7 19H8.8C8.91046 19 9 18.9105 9 18.8L9 9.2ZM20.5 9.2C20.5 7.98497 19.515 7 18.3 7H15.2C13.985 7 13 7.98497 13 9.2V15.8C13 17.015 13.985 18 15.2 18H18.3C19.515 18 20.5 17.015 20.5 15.8V9.2ZM18.3 9C18.4105 9 18.5 9.08954 18.5 9.2V15.8C18.5 15.9105 18.4105 16 18.3 16H15.2C15.0895 16 15 15.9105 15 15.8V9.2C15 9.08954 15.0895 9 15.2 9H18.3Z" fill="black"/>
</svg>
