<svg width="24" height="24" viewBox="0 0 24 24" fill="none" xmlns="http://www.w3.org/2000/svg">
<path fill-rule="evenodd" clip-rule="evenodd" d="M17.6569 6.34315C14.5327 3.21895 9.46734 3.21895 6.34315 6.34315C3.21895 9.46734 3.21895 14.5327 6.34315 17.6569C9.46734 20.781 14.5327 20.781 17.6569 17.6569C20.781 14.5327 20.781 9.46734 17.6569 6.34315ZM4.92893 4.92893C8.83417 1.02369 15.1658 1.02369 19.0711 4.92893C22.9763 8.83417 22.9763 15.1658 19.0711 19.0711C15.1658 22.9763 8.83417 22.9763 4.92893 19.0711C1.02369 15.1658 1.02369 8.83417 4.92893 4.92893ZM15.828 9.17157C15.828 9.72386 15.3803 10.1716 14.828 10.1716H11.5855L15.5352 14.1213C15.9258 14.5118 15.9258 15.145 15.5352 15.5355C15.1447 15.9261 14.5115 15.9261 14.121 15.5355L10.1711 11.5856L10.1711 14.8284C10.1711 15.3807 9.7234 15.8284 9.17112 15.8284C8.61883 15.8284 8.17112 15.3807 8.17112 14.8284L8.17112 9.17157C8.17112 8.61929 8.61883 8.17157 9.17112 8.17157L14.828 8.17157C15.3803 8.17157 15.828 8.61929 15.828 9.17157Z" fill="black"/>
</svg>
