<svg width="24" height="24" viewBox="0 0 24 24" fill="none" xmlns="http://www.w3.org/2000/svg">
<path fill-rule="evenodd" clip-rule="evenodd" d="M10 6C10.2565 6 10.4424 5.9034 10.5298 5.84958C10.624 5.79152 10.6891 5.73005 10.7236 5.6951C10.7924 5.62533 10.8382 5.55909 10.8574 5.53045C10.9009 5.46592 10.9365 5.40007 10.9577 5.35989C10.9994 5.28102 11.0499 5.17721 11.0982 5.07796L11.1132 5.04697C11.2273 4.81267 11.3664 4.52953 11.5275 4.25172C11.6931 3.96622 11.8549 3.73439 11.9987 3.58565L12 3.58428L12.0013 3.58565C12.1451 3.73439 12.3069 3.96622 12.4725 4.25172C12.6336 4.52953 12.7727 4.81267 12.8868 5.04697L12.9018 5.07796L12.9019 5.07803C12.9501 5.17726 13.0006 5.28103 13.0423 5.35989C13.0635 5.40007 13.0991 5.46592 13.1426 5.53045C13.1618 5.55909 13.2076 5.62533 13.2764 5.6951C13.3109 5.73005 13.376 5.79152 13.4702 5.84958C13.5576 5.9034 13.7435 6 14 6C14.1721 6 14.3011 5.95509 14.3493 5.9372C14.4103 5.91458 14.4568 5.89055 14.4826 5.87642C14.5344 5.84814 14.5731 5.82109 14.5896 5.8093C14.6261 5.7833 14.6556 5.75877 14.6692 5.74739C14.7005 5.72122 14.7338 5.69132 14.7607 5.66694C14.793 5.63768 14.8357 5.59836 14.8824 5.55538L14.9796 5.46612C15.1545 5.30588 15.3866 5.09662 15.6451 4.88199C15.7615 4.78532 15.8807 4.68976 16 4.59874V8C16 10.2091 14.2091 12 12 12C9.79086 12 8 10.2091 8 8V4.61114C8.11124 4.69753 8.22258 4.78793 8.33196 4.87955C8.5811 5.08821 8.80557 5.29077 8.98629 5.45385L8.98629 5.45386L9.00559 5.47127C9.09305 5.55019 9.18022 5.62876 9.24891 5.68728C9.28147 5.71502 9.32753 5.75345 9.3764 5.78905C9.39915 5.80562 9.44371 5.83724 9.50076 5.86897C9.52933 5.88486 9.57864 5.91072 9.64255 5.93476C9.69437 5.95425 9.8257 6 10 6ZM13 13.917C15.8377 13.441 18 10.973 18 8V3.2439C18 2.63231 17.4386 1.83456 16.5199 2.06137C16.0976 2.1656 15.6869 2.39207 15.3522 2.60848C15.0025 2.83465 14.6608 3.09975 14.3676 3.34316C14.3422 3.36427 14.317 3.38531 14.2921 3.40623C14.2631 3.35394 14.2332 3.30117 14.2025 3.24828C14.0056 2.90878 13.7486 2.51561 13.4393 2.1956C13.1553 1.90179 12.6645 1.5 12 1.5C11.3355 1.5 10.8447 1.90179 10.5607 2.1956C10.2514 2.51561 9.99438 2.90878 9.79747 3.24828C9.76447 3.30518 9.73238 3.36194 9.7013 3.41811C9.67326 3.39429 9.64485 3.37033 9.61613 3.34627C9.32683 3.10398 8.98954 2.83872 8.64365 2.61214C8.31273 2.39536 7.90467 2.16723 7.48202 2.06202C6.56125 1.83282 6 2.6334 6 3.2439V8C6 10.973 8.16229 13.441 11 13.917V16.5404C10.6256 16.2288 10.2198 15.9802 9.80142 15.783C8.13898 14.9993 6.20176 14.9997 5.06216 15H5.06215L5 15C4.44772 15 4 15.4477 4 16C4 16.9909 4.01733 18.6976 5.14969 20.1222C6.31396 21.587 8.42996 22.5 12 22.5C15.57 22.5 17.686 21.587 18.8503 20.1222C19.9827 18.6976 20 16.9909 20 16C20 15.4477 19.5523 15 19 15L18.9378 15H18.9378C17.7982 14.9997 15.861 14.9993 14.1986 15.783C13.7802 15.9802 13.3744 16.2288 13 16.5404V13.917ZM12.1245 3.47722L12.1216 3.47872C12.1235 3.47762 12.1245 3.47717 12.1245 3.47722ZM11.8784 3.47872L11.8755 3.47722C11.8755 3.47717 11.8765 3.47762 11.8784 3.47872ZM6.04001 17.0144C6.10642 17.6825 6.27874 18.3284 6.71537 18.8778C7.26677 19.5715 8.4114 20.3057 10.9304 20.4673C10.8301 19.7732 10.6292 19.2466 10.3817 18.8428C10.0263 18.2628 9.53283 17.8675 8.94858 17.592C8.05779 17.1721 7.00888 17.0498 6.04001 17.0144ZM13.0696 20.4673C15.5886 20.3057 16.7332 19.5715 17.2846 18.8778C17.7213 18.3284 17.8936 17.6825 17.96 17.0144C16.9911 17.0498 15.9422 17.1721 15.0514 17.592C14.4672 17.8675 13.9737 18.2628 13.6183 18.8428C13.3708 19.2466 13.1699 19.7732 13.0696 20.4673Z" fill="black"/>
</svg>
