<svg width="24" height="24" viewBox="0 0 24 24" fill="none" xmlns="http://www.w3.org/2000/svg">
<path fill-rule="evenodd" clip-rule="evenodd" d="M8.0465 5C7.3002 5 6.58069 5.27817 6.02848 5.78018L2.34599 9.1279L1.00064 7.64802L4.68313 4.3003C5.60349 3.46361 6.80267 3 8.0465 3H9.20489C9.75583 3 10.2022 3.29392 10.4658 3.64821C10.7177 3.98681 11.2347 4.5 12.0001 4.5C12.7655 4.5 13.2825 3.98681 13.5343 3.64821C13.7979 3.29392 14.2443 3 14.7952 3H15.9536C17.1975 3 18.3966 3.46361 19.317 4.3003L22.9995 7.64802C23.7628 8.34195 23.8731 9.50261 23.2541 10.3279L21.4191 12.7746C20.7417 13.6778 19.4514 13.8417 18.5697 13.1363L18.5001 13.0806V18.5C18.5001 20.1569 17.1569 21.5 15.5001 21.5H8.50007C6.84321 21.5 5.50007 20.1569 5.50007 18.5V13.0806L5.43041 13.1363C4.54878 13.8417 3.25845 13.6778 2.58102 12.7746L0.745989 10.3279C0.127026 9.50261 0.237319 8.34195 1.00064 7.64802L2.34599 9.1279L4.18102 11.5746L5.87537 10.2191C6.17554 9.979 6.58679 9.93218 6.93326 10.0987C7.27972 10.2652 7.50007 10.6156 7.50007 11V18.5C7.50007 19.0523 7.94778 19.5 8.50007 19.5H15.5001C16.0524 19.5 16.5001 19.0523 16.5001 18.5V11C16.5001 10.6156 16.7204 10.2652 17.0669 10.0987C17.4133 9.93218 17.8246 9.979 18.1248 10.2191L19.8191 11.5746L21.6541 9.1279L17.9717 5.78018C17.4194 5.27817 16.6999 5 15.9536 5H15.0156C14.5593 5.55738 13.5618 6.5 12.0001 6.5C10.4383 6.5 9.44081 5.55738 8.98455 5H8.0465Z" fill="black"/>
</svg>
