<svg width="24" height="24" viewBox="0 0 24 24" fill="none" xmlns="http://www.w3.org/2000/svg">
<path fill-rule="evenodd" clip-rule="evenodd" d="M10.2366 2.29512C11.2881 1.53119 12.7119 1.53118 13.7634 2.29512L21.1605 7.66949C22.212 8.43342 22.652 9.78752 22.2504 11.0236L19.4249 19.7195C19.0233 20.9556 17.8714 21.7925 16.5717 21.7925H7.42829C6.12861 21.7925 4.97674 20.9556 4.57512 19.7195L1.74964 11.0236C1.34802 9.78752 1.78799 8.43342 2.83946 7.66949L10.2366 2.29512ZM12.5878 3.91315C12.2373 3.65851 11.7627 3.65851 11.4122 3.91315L4.01503 9.28752C3.66454 9.54217 3.51788 9.99353 3.65176 10.4056L6.47723 19.1015C6.6111 19.5135 6.99506 19.7925 7.42829 19.7925H16.5717C17.0049 19.7925 17.3889 19.5135 17.5228 19.1015L20.3482 10.4056C20.4821 9.99353 20.3355 9.54217 19.985 9.28752L12.5878 3.91315Z" fill="black"/>
</svg>
