<svg width="24" height="24" viewBox="0 0 24 24" fill="none" xmlns="http://www.w3.org/2000/svg">
<path fill-rule="evenodd" clip-rule="evenodd" d="M6.08152 3.14928C4.75049 2.29363 3 3.24931 3 4.83164V19.1683C3 20.7506 4.75049 21.7063 6.08152 20.8507L17.2323 13.6823C17.5965 13.4482 17.8524 13.1253 18 12.7664V20C18 20.5523 18.4477 21 19 21C19.5523 21 20 20.5523 20 20V4C20 3.44772 19.5523 3 19 3C18.4477 3 18 3.44772 18 4V11.2335C17.8524 10.8747 17.5965 10.5518 17.2323 10.3176L6.08152 3.14928ZM5 4.83164L16.1507 12L5 19.1683V4.83164Z" fill="black"/>
</svg>
