<svg width="24" height="24" viewBox="0 0 24 24" fill="none" xmlns="http://www.w3.org/2000/svg">
<path fill-rule="evenodd" clip-rule="evenodd" d="M11.4453 2.16795C11.7812 1.94402 12.2188 1.94402 12.5547 2.16795L21.5547 8.16795C21.9213 8.41239 22.0847 8.86803 21.957 9.28978C21.8293 9.71154 21.4406 10 21 10H19V16H19.5C20.0523 16 20.5 16.4477 20.5 17C20.5 17.5523 20.0523 18 19.5 18H18H14H9.99997H5.99997H4.49997C3.94768 18 3.49997 17.5523 3.49997 17C3.49997 16.4477 3.94768 16 4.49997 16H4.99997V10H2.99996C2.55929 10 2.17056 9.71154 2.04286 9.28978C1.91517 8.86803 2.0786 8.41239 2.44526 8.16795L11.4453 2.16795ZM17 16V10H15V16H17ZM8.99997 16H6.99997V10H8.99997V16ZM11 10V16H13V10H11ZM9.99997 8H14H17.6972L12 4.20185L6.30273 8H9.99997ZM1.99997 21C1.99997 20.4477 2.44768 20 2.99997 20H21C21.5523 20 22 20.4477 22 21C22 21.5523 21.5523 22 21 22H2.99997C2.44768 22 1.99997 21.5523 1.99997 21Z" fill="black"/>
</svg>
