<svg width="24" height="24" viewBox="0 0 24 24" fill="none" xmlns="http://www.w3.org/2000/svg">
<path fill-rule="evenodd" clip-rule="evenodd" d="M5 3C3.34315 3 2 4.34315 2 6V9.00001V18C2 19.6569 3.34315 21 5 21H19C20.6569 21 22 19.6569 22 18V9.00001V6C22 4.34315 20.6569 3 19 3H5ZM20 8.00001V6C20 5.44772 19.5523 5 19 5H17.0002C17.0003 5.15054 16.9663 5.3034 16.8944 5.44722L15.618 8.00001H20ZM14.882 5H11.0002C11.0003 5.15054 10.9663 5.3034 10.8944 5.44722L9.61803 8.00001H13.382L14.882 5ZM8.88197 5H5C4.44772 5 4 5.44772 4 6V8.00001H7.38197L8.88197 5ZM4 10H20V18C20 18.5523 19.5523 19 19 19H5C4.44772 19 4 18.5523 4 18V10ZM11.5547 11.668C11.2478 11.4634 10.8533 11.4443 10.5281 11.6183C10.203 11.7923 10 12.1312 10 12.5V16.5C10 16.8688 10.203 17.2077 10.5281 17.3817C10.8533 17.5557 11.2478 17.5366 11.5547 17.3321L14.5547 15.3321C14.8329 15.1466 15 14.8344 15 14.5C15 14.1656 14.8329 13.8534 14.5547 13.668L11.5547 11.668Z" fill="black"/>
</svg>
