<svg width="24" height="24" viewBox="0 0 24 24" fill="none" xmlns="http://www.w3.org/2000/svg">
<path fill-rule="evenodd" clip-rule="evenodd" d="M2.5 6.5C2.5 4.29086 4.29086 2.5 6.5 2.5H17.5C19.7091 2.5 21.5 4.29086 21.5 6.5V17.5C21.5 19.7091 19.7091 21.5 17.5 21.5H6.5C4.29086 21.5 2.5 19.7091 2.5 17.5V6.5ZM6.5 4.5C5.39543 4.5 4.5 5.39543 4.5 6.5V17.5C4.5 18.6046 5.39543 19.5 6.5 19.5H17.5C18.6046 19.5 19.5 18.6046 19.5 17.5V6.5C19.5 5.39543 18.6046 4.5 17.5 4.5H6.5ZM14.8281 15.8284C14.2758 15.8284 13.8281 15.3807 13.8281 14.8284V11.5865L9.87913 15.5355C9.48861 15.9261 8.85544 15.9261 8.46492 15.5355C8.07439 15.145 8.0744 14.5118 8.46492 14.1213L12.4147 10.1716L9.17127 10.1716C8.61899 10.1716 8.17127 9.72386 8.17127 9.17158C8.17127 8.61929 8.61899 8.17158 9.17127 8.17158L14.8281 8.17158C15.3804 8.17158 15.8281 8.61929 15.8281 9.17158V14.8284C15.8281 15.3807 15.3804 15.8284 14.8281 15.8284Z" fill="black"/>
</svg>
