<svg width="24" height="24" viewBox="0 0 24 24" fill="none" xmlns="http://www.w3.org/2000/svg">
<path fill-rule="evenodd" clip-rule="evenodd" d="M16.6568 1.92888C17.0473 1.53836 17.6805 1.53836 18.071 1.92888C18.9996 2.85747 19.7362 3.95986 20.2387 5.17311C20.7413 6.38637 20.9999 7.68673 20.9999 8.99995C20.9999 10.3132 20.7413 11.6135 20.2387 12.8268C19.7362 14.04 18.9996 15.1424 18.071 16.071C17.1424 16.9996 16.04 17.7362 14.8268 18.2387C13.9223 18.6134 12.9693 18.8525 11.9988 18.9499C11.9996 18.9665 12 18.9832 12 19V21H14C14.5523 21 15 21.4477 15 22C15 22.5523 14.5523 23 14 23H8C7.44772 23 7 22.5523 7 22C7 21.4477 7.44772 21 8 21H10V19C10 18.9832 10.0004 18.9665 10.0012 18.95C9.03062 18.8525 8.07766 18.6134 7.17311 18.2387C5.95986 17.7362 4.85747 16.9996 3.92888 16.071C3.53836 15.6805 3.53836 15.0473 3.92888 14.6568C4.3194 14.2663 4.95257 14.2663 5.34309 14.6568C6.08596 15.3997 6.96788 15.9889 7.93848 16.391C8.90908 16.793 9.94937 16.9999 10.9999 16.9999C12.0505 16.9999 13.0908 16.793 14.0614 16.391C15.032 15.9889 15.9139 15.3997 16.6568 14.6568C17.3997 13.9139 17.9889 13.032 18.391 12.0614C18.793 11.0908 18.9999 10.0505 18.9999 8.99995C18.9999 7.94937 18.793 6.90908 18.391 5.93848C17.9889 4.96788 17.3997 4.08596 16.6568 3.34309C16.2663 2.95257 16.2663 2.3194 16.6568 1.92888ZM11 4.5C8.51472 4.5 6.5 6.51472 6.5 9C6.5 11.4853 8.51472 13.5 11 13.5C13.4853 13.5 15.5 11.4853 15.5 9C15.5 6.51472 13.4853 4.5 11 4.5ZM4.5 9C4.5 5.41015 7.41015 2.5 11 2.5C14.5899 2.5 17.5 5.41015 17.5 9C17.5 12.5899 14.5899 15.5 11 15.5C7.41015 15.5 4.5 12.5899 4.5 9Z" fill="black"/>
</svg>
