<svg width="24" height="24" viewBox="0 0 24 24" fill="none" xmlns="http://www.w3.org/2000/svg">
<path fill-rule="evenodd" clip-rule="evenodd" d="M9.94155 2C8.65025 2 7.50384 2.82629 7.0955 4.05132L7.05134 4.18377C6.8767 4.70772 7.15986 5.27404 7.6838 5.44868C8.20774 5.62333 8.77406 5.34017 8.94871 4.81623L8.99286 4.68377C9.12898 4.27543 9.51112 4 9.94155 4H19C19.5523 4 20 4.44772 20 5V14.0585C20 14.4889 19.7246 14.8711 19.3163 15.0072L19.1838 15.0513C18.6599 15.226 18.3767 15.7923 18.5513 16.3162C18.726 16.8402 19.2923 17.1233 19.8163 16.9487L19.9487 16.9045C21.1737 16.4962 22 15.3498 22 14.0585V5C22 3.34315 20.6569 2 19 2H9.94155ZM5 7C3.34315 7 2 8.34315 2 10V19C2 20.6569 3.34315 22 5 22H14C15.6569 22 17 20.6569 17 19V10C17 8.34315 15.6569 7 14 7H5ZM4 10C4 9.44772 4.44772 9 5 9H14C14.5523 9 15 9.44772 15 10V19C15 19.5523 14.5523 20 14 20H5C4.44772 20 4 19.5523 4 19V10Z" fill="black"/>
</svg>
