<svg width="24" height="24" viewBox="0 0 24 24" fill="none" xmlns="http://www.w3.org/2000/svg">
<path fill-rule="evenodd" clip-rule="evenodd" d="M19.25 1.5C19.6166 1.5 19.9295 1.76506 19.9898 2.1267L20.1375 3.013C20.2956 3.96131 21.0387 4.70444 21.987 4.86249L22.8733 5.0102C23.2349 5.07048 23.5 5.38337 23.5 5.75C23.5 6.11663 23.2349 6.42952 22.8733 6.4898L21.987 6.63751C21.0387 6.79556 20.2956 7.53868 20.1375 8.487L19.9898 9.3733C19.9295 9.73494 19.6166 10 19.25 10C18.8834 10 18.5705 9.73494 18.5102 9.3733L18.3625 8.487C18.2044 7.53868 17.4613 6.79556 16.513 6.63751L15.6267 6.4898C15.2651 6.42952 15 6.11663 15 5.75C15 5.38337 15.2651 5.07048 15.6267 5.0102L16.513 4.86249C17.4613 4.70444 18.2044 3.96131 18.3625 3.013L18.5102 2.1267C18.5705 1.76506 18.8834 1.5 19.25 1.5ZM4 8C4 6.89543 4.89543 6 6 6H12C12.5523 6 13 5.55228 13 5C13 4.44772 12.5523 4 12 4H6C3.79086 4 2 5.79086 2 8V16.9934V17.0066V18C2 20.2091 3.79086 22 6 22H18C20.2091 22 22 20.2091 22 18V16.0012V15.9999V13C22 12.4477 21.5523 12 21 12C20.4477 12 20 12.4477 20 13V13.8439L16.3101 10.7217C15.2437 9.81938 13.6449 9.96593 12.7603 11.0471L9.8191 14.6419L8.11522 13.4248C7.12076 12.7145 5.75851 12.8273 4.89436 13.6914L4 14.5858V8ZM4 17.4142V18C4 19.1046 4.89543 20 6 20H18C19.1046 20 20 19.1046 20 18V16.4638L15.0182 12.2485C14.8049 12.068 14.4852 12.0973 14.3082 12.3135L10.7739 16.6332C10.4403 17.041 9.84748 17.12 9.41874 16.8137L6.95274 15.0523C6.75385 14.9102 6.4814 14.9328 6.30857 15.1056L4 17.4142ZM8.5 11.5C7.67157 11.5 7 10.8284 7 10C7 9.17157 7.67157 8.5 8.5 8.5C9.32843 8.5 10 9.17157 10 10C10 10.8284 9.32843 11.5 8.5 11.5Z" fill="black"/>
</svg>
