<svg width="24" height="24" viewBox="0 0 24 24" fill="none" xmlns="http://www.w3.org/2000/svg">
<g clip-path="url(#clip0_895_52768)">
<path fill-rule="evenodd" clip-rule="evenodd" d="M9.39583 2.43998C10.8341 1.00174 13.1659 1.00174 14.6042 2.43998L21.56 9.39586C22.9983 10.8341 22.9983 13.166 21.56 14.6042L14.6042 21.5601C13.1659 22.9983 10.8341 22.9983 9.39583 21.5601L2.43995 14.6042C1.00171 13.166 1.00171 10.8341 2.43995 9.39586L9.39583 2.43998ZM13.19 3.85419C12.5328 3.197 11.4672 3.197 10.81 3.8542L3.85417 10.8101C3.19697 11.4673 3.19697 12.5328 3.85417 13.19L10.81 20.1459C11.4672 20.8031 12.5328 20.8031 13.19 20.1459L20.1458 13.19C20.803 12.5328 20.803 11.4673 20.1458 10.8101L13.19 3.85419Z" fill="black"/>
</g>
<defs>
<clipPath id="clip0_895_52768">
<rect width="24" height="24" fill="white"/>
</clipPath>
</defs>
</svg>
