<svg width="24" height="24" viewBox="0 0 24 24" fill="none" xmlns="http://www.w3.org/2000/svg">
<g clip-path="url(#clip0_895_52906)">
<path fill-rule="evenodd" clip-rule="evenodd" d="M7.70683 2.63079C7.89436 2.44325 8.14872 2.3379 8.41393 2.3379L15.5898 2.3379C15.855 2.3379 16.1094 2.44325 16.2969 2.63079L21.371 7.70491C21.5586 7.89244 21.6639 8.1468 21.6639 8.41201L21.6639 15.5879C21.6639 15.8531 21.5586 16.1075 21.371 16.295L16.2969 21.3691C16.1094 21.5567 15.855 21.662 15.5898 21.662L8.41393 21.662C8.14872 21.662 7.89436 21.5567 7.70683 21.3691L2.63271 16.295C2.44517 16.1075 2.33982 15.8531 2.33982 15.5879L2.33982 8.41201C2.33982 8.1468 2.44517 7.89244 2.63271 7.70491L7.70683 2.63079ZM4.33982 8.82623L4.33982 15.1737L8.82815 19.662L15.1756 19.662L19.6639 15.1737L19.6639 8.82623L15.1756 4.3379L8.82815 4.3379L4.33982 8.82623Z" fill="black"/>
</g>
<defs>
<clipPath id="clip0_895_52906">
<rect width="24" height="24" fill="white"/>
</clipPath>
</defs>
</svg>
