<svg width="24" height="24" viewBox="0 0 24 24" fill="none" xmlns="http://www.w3.org/2000/svg">
<path fill-rule="evenodd" clip-rule="evenodd" d="M4.07631 2.54069C2.89554 2.45063 2 3.41633 2 4.50002V16.5C2 17.6273 2.90135 18.4437 3.8953 18.547C6.15595 18.7818 8.17166 19.8562 9.5552 20.8112C10.2647 21.3009 11.1213 21.2671 11.7621 20.9659C11.8516 20.9237 11.9401 20.8748 12.0262 20.8192C12.0791 20.8748 12.1484 20.9237 12.2379 20.9658C12.8788 21.2671 13.7354 21.3009 14.4448 20.8111C15.8283 19.8561 17.8441 18.7817 20.1047 18.5469C21.0948 18.4441 22 17.634 22 16.5031V4.49565C22 3.41466 21.0997 2.43281 19.8981 2.55762C16.3134 2.92995 13.3829 5.01536 12.0737 6.09779C10.8896 4.93608 8.22537 2.85716 4.07631 2.54069ZM4 16.5V4.54092C7.97485 4.86995 10.3105 7.10133 11 7.86524V19.0858L11 19.0866C10.9994 19.0877 10.9983 19.0895 10.9965 19.0921C10.9869 19.1054 10.9607 19.1326 10.9111 19.1559C10.8618 19.1791 10.8098 19.1886 10.7673 19.1869C10.7281 19.1852 10.7054 19.1749 10.6914 19.1652C9.17356 18.1175 6.83369 16.8414 4.10192 16.5577C4.06249 16.5536 4.03017 16.5353 4.01169 16.5162C4.00339 16.5076 4.00056 16.5017 4.00003 16.5004C3.99987 16.5001 4 16.5008 4 16.5ZM13 7.93673C13.9276 7.11531 16.6768 4.94266 20 4.55841V16.5029C20 16.5029 19.9964 16.5095 19.9898 16.5163C19.9721 16.5345 19.9396 16.5533 19.8981 16.5576C17.1663 16.8414 14.8264 18.1175 13.3087 19.1652C13.2946 19.1749 13.2719 19.1852 13.2327 19.1868C13.1902 19.1886 13.1382 19.1791 13.0889 19.1559C13.0393 19.1326 13.0131 19.1054 13.0035 19.092C13.0017 19.0895 13 19.0858 13 19.0858V7.93673Z" fill="black"/>
</svg>
