<svg width="24" height="24" viewBox="0 0 24 24" fill="none" xmlns="http://www.w3.org/2000/svg">
<path fill-rule="evenodd" clip-rule="evenodd" d="M4 12C4 7.58172 7.58172 4 12 4C16.4183 4 20 7.58172 20 12C20 16.4183 16.4183 20 12 20C7.58172 20 4 16.4183 4 12ZM12 2C6.47715 2 2 6.47715 2 12C2 17.5228 6.47715 22 12 22C17.5228 22 22 17.5228 22 12C22 6.47715 17.5228 2 12 2ZM11 16.896C10.2196 16.7297 9.60101 16.3883 9.14998 16.05C8.8369 15.8152 8.60086 15.5796 8.44007 15.3987C8.35934 15.3079 8.29651 15.2297 8.25143 15.1705C8.22886 15.1409 8.21063 15.1159 8.19675 15.0964L8.17913 15.0712L8.17273 15.0618L8.17013 15.058L8.16898 15.0563L8.16845 15.0555C8.16819 15.0551 8.16793 15.0547 8.99998 14.5L8.16793 15.0547C7.86158 14.5952 7.98576 13.9743 8.44528 13.6679C8.90218 13.3634 9.51857 13.4844 9.82674 13.9374C9.82855 13.94 9.83374 13.9472 9.84229 13.9584C9.85971 13.9813 9.89063 14.0202 9.93489 14.07C10.0241 14.1704 10.1631 14.3098 10.35 14.45C10.7208 14.7281 11.2655 15 12 15C12.3744 15 12.9659 14.899 13.4278 14.6681C13.8877 14.4381 14 14.2097 14 14C14 13.8016 13.9538 13.7082 13.9185 13.6569C13.8766 13.5961 13.7933 13.5147 13.6153 13.4257C13.2154 13.2258 12.6324 13.1192 11.8356 12.9864L11.7595 12.9737C11.0672 12.8587 10.1896 12.7128 9.49027 12.3632C9.10577 12.1709 8.72038 11.893 8.43415 11.4773C8.14134 11.052 7.99998 10.5516 7.99998 10C7.99998 8.70973 8.88774 7.93809 9.67777 7.54307C10.1046 7.32967 10.5667 7.18814 11 7.10322V6.5C11 5.94772 11.4477 5.5 12 5.5C12.5523 5.5 13 5.94772 13 6.5V7.104C13.7803 7.27026 14.399 7.61173 14.85 7.95C15.1631 8.18481 15.3991 8.42037 15.5599 8.60126C15.6406 8.69209 15.7035 8.77033 15.7485 8.8295C15.7711 8.85913 15.7893 8.8841 15.8032 8.90363L15.8208 8.92879L15.8272 8.93816L15.8298 8.94201L15.831 8.94373L15.8315 8.94453C15.8318 8.94492 15.832 8.9453 15.0105 9.493L15.832 8.9453C16.1384 9.40483 16.0142 10.0257 15.5547 10.3321C15.0978 10.6366 14.4814 10.5156 14.1732 10.0626C14.1714 10.06 14.1662 10.0528 14.1577 10.0416C14.1403 10.0187 14.1093 9.97978 14.0651 9.92999C13.9759 9.82963 13.8369 9.69019 13.65 9.55C13.2792 9.27188 12.7345 9 12 9C11.6256 9 11.0341 9.101 10.5722 9.33193C10.1122 9.56191 9.99998 9.79027 9.99998 10C9.99998 10.1984 10.0461 10.2918 10.0814 10.3431C10.1233 10.4039 10.2067 10.4853 10.3847 10.5743C10.7845 10.7742 11.3675 10.8808 12.1644 11.0136L12.2405 11.0263C12.9327 11.1413 13.8104 11.2872 14.5097 11.6368C14.8942 11.8291 15.2796 12.107 15.5658 12.5227C15.8586 12.948 16 13.4484 16 14C16 15.2903 15.1122 16.0619 14.3222 16.4569C13.8954 16.6703 13.4333 16.8119 13 16.8968V17.5C13 18.0523 12.5523 18.5 12 18.5C11.4477 18.5 11 18.0523 11 17.5V16.896ZM14.1679 10.0547L14.1684 10.0554C14.1682 10.0551 14.1679 10.0547 14.9999 9.50006L14.1679 10.0547ZM14.1733 10.0626C14.1742 10.0639 14.1742 10.0639 14.1733 10.0627L14.1733 10.0626Z" fill="black"/>
</svg>
