<svg width="30" height="30" viewBox="0 0 30 30" fill="none" xmlns="http://www.w3.org/2000/svg">
<path d="M8.02584 4.34346C8.97737 4.03622 9.98185 3.93357 10.9752 4.04172C11.9684 4.14989 12.9276 4.4666 13.7925 4.97081C14.2311 5.2265 14.64 5.5279 15.0141 5.86839C15.388 5.53183 15.7966 5.23464 16.2339 4.98227C17.0983 4.48334 18.0559 4.17132 19.0464 4.06655C20.037 3.96179 21.0382 4.06701 21.9862 4.37497C22.934 4.68293 23.8078 5.18677 24.5529 5.85312C25.2978 6.51946 25.898 7.33428 26.3179 8.24507C26.7379 9.15593 26.9691 10.1446 26.9971 11.1488C27.025 12.153 26.8498 13.1528 26.4815 14.086C26.1131 15.0194 25.5587 15.8673 24.8523 16.5754L24.7796 16.6403L15.8809 25.6362C15.6508 25.8688 15.3368 26 15.0094 26C14.6821 25.9999 14.3688 25.8687 14.1388 25.6362L5.16355 16.5639V16.563C4.45562 15.8576 3.89894 15.0127 3.52768 14.0813C3.15508 13.1463 2.97648 12.1438 3.00248 11.1364C3.02849 10.129 3.2583 9.13716 3.67883 8.22311C4.09941 7.30899 4.70184 6.49166 5.44959 5.82351C6.19743 5.1553 7.07436 4.65069 8.02584 4.34346ZM10.7092 6.47187C10.0599 6.4012 9.40317 6.46821 8.77968 6.66953C8.15607 6.8709 7.57773 7.20203 7.08258 7.64446C6.58743 8.08692 6.18558 8.63092 5.90399 9.24292C5.62236 9.85505 5.46804 10.5214 5.45054 11.1995C5.43305 11.8774 5.55282 12.5512 5.80259 13.178C6.02117 13.7264 6.33454 14.2281 6.72575 14.659L6.89795 14.8394L6.9056 14.8471L15.0094 23.038L23.1131 14.8471C23.129 14.8311 23.1464 14.8162 23.1629 14.8012C23.6091 14.3413 23.9641 13.7948 24.2028 13.1904C24.4497 12.5647 24.5679 11.8924 24.5491 11.2166C24.5302 10.5408 24.3749 9.87674 24.0937 9.26679C23.8125 8.65687 23.4115 8.11445 22.918 7.67311C22.4246 7.23194 21.8488 6.90094 21.2276 6.69913C20.6065 6.49741 19.952 6.42829 19.3047 6.4967C18.6572 6.56519 18.0284 6.76981 17.4593 7.09827C16.8903 7.42676 16.3923 7.87325 15.9966 8.41027C15.7652 8.72441 15.3971 8.9088 15.0065 8.90776C14.6646 8.90681 14.3415 8.76343 14.112 8.51626L14.0192 8.40454C13.6252 7.86347 13.1271 7.41313 12.5575 7.08108C11.988 6.74915 11.3585 6.54257 10.7092 6.47187Z" fill="white"/>
</svg>
