<svg width="24" height="24" viewBox="0 0 24 24" fill="none" xmlns="http://www.w3.org/2000/svg">
<path fill-rule="evenodd" clip-rule="evenodd" d="M4 13.5C4.55228 13.5 5 13.0523 5 12.5V5C5 4.44771 5.44772 4 6 4H12V8C12 9.65685 13.3431 11 15 11H19V12.5C19 13.0523 19.4477 13.5 20 13.5C20.5523 13.5 21 13.0523 21 12.5V10C21 9.73478 20.8946 9.48043 20.7071 9.29289L13.7071 2.29289C13.5196 2.10536 13.2652 2 13 2H6C4.34315 2 3 3.34315 3 5V12.5C3 13.0523 3.44772 13.5 4 13.5ZM17.5858 9H15C14.4477 9 14 8.55228 14 8V5.41421L17.5858 9ZM18.0157 16.9C17.661 16.8958 17.3149 17.0096 17.032 17.2236C16.749 17.4375 16.5452 17.7395 16.4525 18.0819C16.3598 18.4243 16.3836 18.7878 16.52 19.1153C16.6564 19.4427 16.8978 19.7155 17.2062 19.8908C17.5146 20.0661 17.8725 20.134 18.2237 20.0837C18.5577 20.0359 18.8675 19.8838 19.1094 19.6499H18.3746C17.8776 19.6499 17.4746 19.2469 17.4746 18.7499C17.4746 18.2528 17.8776 17.8499 18.3746 17.8499H20.4983C20.9953 17.8499 21.3983 18.2528 21.3983 18.7499C21.3983 18.8442 21.3837 18.9352 21.3568 19.0206C21.2493 19.7145 20.9293 20.3594 20.4391 20.8655C19.9146 21.4069 19.225 21.7587 18.4788 21.8655C17.7326 21.9724 16.972 21.8282 16.3167 21.4557C15.6614 21.0832 15.1484 20.5034 14.8585 19.8076C14.5685 19.1117 14.5181 18.3393 14.715 17.6116C14.9119 16.884 15.3451 16.2424 15.9464 15.7878C16.5477 15.3332 17.283 15.0913 18.0368 15.1001C18.7906 15.1089 19.52 15.368 20.1105 15.8366C20.4998 16.1456 20.565 16.7117 20.256 17.1011C19.947 17.4904 19.3809 17.5555 18.9915 17.2466C18.7137 17.026 18.3704 16.9041 18.0157 16.9ZM9.1634 15.1642C9.62491 14.9796 10.1487 15.2041 10.3333 15.6656L11.4977 18.5765L12.662 15.6656C12.8466 15.2041 13.3704 14.9796 13.8319 15.1642C14.2934 15.3488 14.5179 15.8726 14.3333 16.3341L12.3333 21.3341C12.1966 21.6758 11.8657 21.8999 11.4977 21.8999C11.1296 21.8999 10.7987 21.6758 10.662 21.3341L8.66202 16.3341C8.47742 15.8726 8.70189 15.3488 9.1634 15.1642ZM4.39825 17.1757C4.39823 17.1752 4.39824 17.1751 4.3983 17.175C4.39832 17.175 4.39836 17.1751 4.39842 17.1751C4.39862 17.1753 4.39905 17.1756 4.39987 17.1746C4.41408 17.1573 4.46242 17.1115 4.57671 17.059C4.81621 16.9492 5.14776 16.8999 5.37339 16.8999C5.72503 16.8999 6.10335 16.956 6.40834 17.018C6.55742 17.0483 6.68176 17.0785 6.76736 17.1008C6.81002 17.1119 6.84268 17.1209 6.86355 17.1267L6.88569 17.1331L6.88972 17.1343C7.36528 17.277 7.86672 17.0076 8.01009 16.532C8.15357 16.0561 7.88409 15.554 7.4082 15.4106L7.15215 16.2598C7.40819 15.4106 7.40725 15.4103 7.40713 15.4102L7.40573 15.4098L7.40192 15.4087L7.39039 15.4053L7.3522 15.3943C7.32026 15.3853 7.27553 15.373 7.21987 15.3586C7.10883 15.3297 6.95283 15.2919 6.76711 15.2541C6.40248 15.1799 5.89329 15.0999 5.37339 15.0999C4.97402 15.0999 4.36807 15.1744 3.82632 15.4229C3.27889 15.674 2.59839 16.215 2.59839 17.1852C2.59839 17.579 2.6999 17.9447 2.91041 18.2609C3.11514 18.5683 3.38783 18.7764 3.651 18.9209C4.12006 19.1786 4.7009 19.3036 5.12624 19.3952L5.18336 19.4075C5.69154 19.5172 6.01643 19.5954 6.22913 19.7122C6.31707 19.7605 6.33765 19.7916 6.33821 19.7924C6.33849 19.7928 6.33954 19.7942 6.34124 19.8001C6.34327 19.8072 6.34828 19.8282 6.3484 19.8689C6.33078 19.8851 6.2862 19.919 6.1947 19.9577C5.95758 20.058 5.62242 20.0999 5.37339 20.0999C5.05625 20.0999 4.71524 20.0398 4.43708 19.9716C4.30183 19.9384 4.18962 19.9054 4.11297 19.8813C4.0748 19.8693 4.0459 19.8596 4.02786 19.8534L4.00928 19.847L4.00776 19.8464L4.00668 19.846C3.54052 19.676 3.02451 19.9155 2.85349 20.3815C2.68224 20.8481 2.92197 21.3653 3.3886 21.5366L3.38954 21.5369L3.39108 21.5375L3.39508 21.5389L3.40678 21.5431L3.44438 21.5562C3.47554 21.5669 3.51879 21.5813 3.57243 21.5982C3.67938 21.6319 3.82936 21.6759 4.0085 21.7198C4.3591 21.8058 4.8556 21.8999 5.37339 21.8999C5.74937 21.8999 6.35171 21.8457 6.89584 21.6156C7.45018 21.3811 8.1484 20.8545 8.1484 19.8703C8.1484 19.4765 8.04689 19.1108 7.83638 18.7947C7.63165 18.4872 7.35896 18.2792 7.09579 18.1346C6.62672 17.8769 6.04589 17.7519 5.62055 17.6604L5.56342 17.6481C5.05524 17.5383 4.73035 17.4601 4.51766 17.3433C4.42972 17.295 4.40914 17.264 4.40858 17.2631C4.40829 17.2627 4.40724 17.2613 4.40555 17.2554C4.40349 17.2482 4.39839 17.2268 4.39839 17.1852C4.39839 17.1793 4.39827 17.1767 4.39825 17.1757ZM3.69839 20.6916L3.3886 21.5366C3.38846 21.5365 3.38832 21.5365 3.69839 20.6916Z" fill="black"/>
</svg>
