<svg width="24" height="24" viewBox="0 0 24 24" fill="none" xmlns="http://www.w3.org/2000/svg">
<path fill-rule="evenodd" clip-rule="evenodd" d="M8.58652 4.83635L2.95165 14.4961C2.77002 14.8075 2.77002 15.1925 2.95165 15.5039L4.964 18.9536L10.9083 9.12269L8.58652 4.83635ZM6.66849 20H17.9021C18.244 20 18.5622 19.8253 18.7458 19.5369L20.6784 16.5H15.5208C15.5075 16.5003 15.4941 16.5003 15.4808 16.5H8.78477L6.66849 20ZM20.7939 14.5L15.2003 4.5114C15.0234 4.19559 14.6897 4 14.3278 4H10.4081L16.0956 14.5H20.7939ZM9.64876 2C8.58176 2 7.59506 2.56673 7.05743 3.48839L1.22409 13.4884C0.679208 14.4225 0.679209 15.5775 1.22409 16.5116L3.55743 20.5116C4.09506 21.4333 5.08176 22 6.14876 22H17.9021C18.9278 22 19.8824 21.476 20.4331 20.6106L22.7021 17.0451C23.2948 16.1137 23.328 14.932 22.7886 13.9687L16.9453 3.53419C16.4147 2.58677 15.4136 2 14.3278 2H9.64876ZM12.0127 11.1615L13.821 14.5H9.99407L12.0127 11.1615Z" fill="black"/>
</svg>
