<svg width="24" height="24" viewBox="0 0 24 24" fill="none" xmlns="http://www.w3.org/2000/svg">
<path fill-rule="evenodd" clip-rule="evenodd" d="M4.25 3C3.55964 3 3 3.55964 3 4.25V6.41667C3 7.10702 3.55964 7.66667 4.25 7.66667H6.41667C7.10702 7.66667 7.66667 7.10702 7.66667 6.41667V4.25C7.66667 3.55964 7.10702 3 6.41667 3H4.25ZM10.9167 3C10.2263 3 9.66667 3.55964 9.66667 4.25V6.41667C9.66667 7.10702 10.2263 7.66667 10.9167 7.66667H13.0833C13.7737 7.66667 14.3333 7.10702 14.3333 6.41667V4.25C14.3333 3.55964 13.7737 3 13.0833 3H10.9167ZM16.3333 4.25C16.3333 3.55964 16.893 3 17.5833 3H19.75C20.4404 3 21 3.55964 21 4.25V6.41667C21 7.10702 20.4404 7.66667 19.75 7.66667H17.5833C16.893 7.66667 16.3333 7.10702 16.3333 6.41667V4.25ZM4.25 9.66667C3.55964 9.66667 3 10.2263 3 10.9167V13.0833C3 13.7737 3.55964 14.3333 4.25 14.3333H6.41667C7.10702 14.3333 7.66667 13.7737 7.66667 13.0833V10.9167C7.66667 10.2263 7.10702 9.66667 6.41667 9.66667H4.25ZM9.66667 10.9167C9.66667 10.2263 10.2263 9.66667 10.9167 9.66667H13.0833C13.7737 9.66667 14.3333 10.2263 14.3333 10.9167V13.0833C14.3333 13.7737 13.7737 14.3333 13.0833 14.3333H10.9167C10.2263 14.3333 9.66667 13.7737 9.66667 13.0833V10.9167ZM17.5833 9.66667C16.893 9.66667 16.3333 10.2263 16.3333 10.9167V13.0833C16.3333 13.7737 16.893 14.3333 17.5833 14.3333H19.75C20.4404 14.3333 21 13.7737 21 13.0833V10.9167C21 10.2263 20.4404 9.66667 19.75 9.66667H17.5833ZM3 17.5833C3 16.893 3.55964 16.3333 4.25 16.3333H6.41667C7.10702 16.3333 7.66667 16.893 7.66667 17.5833V19.75C7.66667 20.4404 7.10702 21 6.41667 21H4.25C3.55964 21 3 20.4404 3 19.75V17.5833ZM9.66667 17.5833C9.66667 16.893 10.2263 16.3333 10.9167 16.3333H13.0833C13.7737 16.3333 14.3333 16.893 14.3333 17.5833V19.75C14.3333 20.4404 13.7737 21 13.0833 21H10.9167C10.2263 21 9.66667 20.4404 9.66667 19.75V17.5833ZM17.5833 16.3333C16.893 16.3333 16.3333 16.893 16.3333 17.5833V19.75C16.3333 20.4404 16.893 21 17.5833 21H19.75C20.4404 21 21 20.4404 21 19.75V17.5833C21 16.893 20.4404 16.3333 19.75 16.3333H17.5833Z" fill="black"/>
</svg>
