<svg width="24" height="24" viewBox="0 0 24 24" fill="none" xmlns="http://www.w3.org/2000/svg">
<path fill-rule="evenodd" clip-rule="evenodd" d="M17.5 2C19.1569 2 20.5 3.34315 20.5 5V19C20.5 20.6569 19.1569 22 17.5 22H6.5C4.84315 22 3.5 20.6569 3.5 19V5C3.5 3.34315 4.84315 2 6.5 2H17.5ZM18.5 5C18.5 4.44772 18.0523 4 17.5 4H6.5C5.94772 4 5.5 4.44772 5.5 5L5.5 19C5.5 19.5523 5.94772 20 6.5 20H17.5C18.0523 20 18.5 19.5523 18.5 19L18.5 5ZM13 15C13 14.4477 13.4477 14 14 14H15.5C16.0523 14 16.5 14.4477 16.5 15C16.5 15.5523 16.0523 16 15.5 16H14C13.4477 16 13 15.5523 13 15ZM14 8C13.4477 8 13 8.44772 13 9C13 9.55228 13.4477 10 14 10H15.5C16.0523 10 16.5 9.55228 16.5 9C16.5 8.44772 16.0523 8 15.5 8H14ZM7 7.5C7 6.94772 7.44772 6.5 8 6.5H11C11.5523 6.5 12 6.94772 12 7.5V10.5C12 11.0523 11.5523 11.5 11 11.5H8C7.44772 11.5 7 11.0523 7 10.5V7.5ZM9 8.5V9.5H10V8.5H9ZM8 12.5C7.44772 12.5 7 12.9477 7 13.5V16.5C7 17.0523 7.44772 17.5 8 17.5H11C11.5523 17.5 12 17.0523 12 16.5V13.5C12 12.9477 11.5523 12.5 11 12.5H8ZM9 15.5V14.5H10V15.5H9Z" fill="black"/>
</svg>
