<svg width="24" height="24" viewBox="0 0 24 24" fill="none" xmlns="http://www.w3.org/2000/svg">
<path fill-rule="evenodd" clip-rule="evenodd" d="M6.34314 17.6569C9.46734 20.781 14.5327 20.781 17.6569 17.6569C20.781 14.5327 20.781 9.46734 17.6569 6.34315C14.5327 3.21895 9.46734 3.21895 6.34315 6.34314C3.21895 9.46734 3.21895 14.5327 6.34314 17.6569ZM19.0711 19.0711C15.1658 22.9763 8.83417 22.9763 4.92893 19.0711C1.02369 15.1658 1.02369 8.83417 4.92893 4.92893C8.83418 1.02369 15.1658 1.02369 19.0711 4.92893C22.9763 8.83418 22.9763 15.1658 19.0711 19.0711ZM8.17203 14.8284C8.17203 14.2761 8.61974 13.8284 9.17203 13.8284L12.4145 13.8284L8.46477 9.87868C8.07424 9.48815 8.07424 8.85499 8.46477 8.46447C8.85529 8.07394 9.48846 8.07394 9.87898 8.46447L13.8289 12.4144L13.8289 9.17157C13.8289 8.61929 14.2766 8.17157 14.8289 8.17157C15.3812 8.17157 15.8289 8.61929 15.8289 9.17157L15.8289 14.8284C15.8289 15.2072 15.6183 15.5368 15.3078 15.7065C15.1664 15.7838 15.0042 15.8279 14.8318 15.8284C14.8308 15.8284 14.8299 15.8284 14.8289 15.8284H14.8277L9.17203 15.8284C8.61974 15.8284 8.17203 15.3807 8.17203 14.8284Z" fill="black"/>
</svg>
