<svg width="24" height="24" viewBox="0 0 24 24" fill="none" xmlns="http://www.w3.org/2000/svg">
<path fill-rule="evenodd" clip-rule="evenodd" d="M5.14136 4.10777C4.95439 3.17292 4.13356 2.5 3.1802 2.5H2C1.44772 2.5 1 2.94772 1 3.5C1 4.05228 1.44772 4.5 2 4.5L3.1802 4.5L3.51467 6.17236L4.75557 14.445C4.97585 15.9136 6.23739 17 7.72237 17H17.581C18.8559 17 19.9915 16.1943 20.4126 14.9911L22.5126 8.99105C23.1953 7.04052 21.7476 5 19.681 5H5.3198L5.14136 4.10777ZM5.66119 7H19.681C20.3699 7 20.8525 7.68017 20.6249 8.33035L18.5249 14.3304C18.3845 14.7314 18.006 15 17.581 15H7.72237C7.22738 15 6.80687 14.6379 6.73344 14.1483L5.66119 7ZM10 21C10 22.1046 9.10457 23 8 23C6.89543 23 6 22.1046 6 21C6 19.8954 6.89543 19 8 19C9.10457 19 10 19.8954 10 21ZM17 23C18.1046 23 19 22.1046 19 21C19 19.8954 18.1046 19 17 19C15.8954 19 15 19.8954 15 21C15 22.1046 15.8954 23 17 23Z" fill="black"/>
</svg>
