<svg width="24" height="24" viewBox="0 0 24 24" fill="none" xmlns="http://www.w3.org/2000/svg">
<path fill-rule="evenodd" clip-rule="evenodd" d="M8.59883 4C7.86153 4 7.18403 4.40565 6.83587 5.05556L0.407295 17.0556C-0.306454 18.3879 0.658784 20 2.17026 20H21.8299C23.3414 20 24.3066 18.3879 23.5929 17.0556L17.1643 5.05556C16.8161 4.40565 16.1386 4 15.4013 4H8.59883ZM9.67006 6L15.4013 6L21.8299 18H16.0986L9.67006 6ZM6.98219 9.01772L2.82397 16.7797C3.87165 16.4164 4.81928 15.5958 5.56456 14.2622C6.28482 12.9733 6.79998 11.2204 6.98219 9.01772ZM4.83415 18H7V15.755C6.39434 16.6947 5.66384 17.4533 4.83415 18ZM13.8297 18H9V8.98453L13.8297 18Z" fill="black"/>
</svg>
