<svg width="24" height="24" viewBox="0 0 24 24" fill="none" xmlns="http://www.w3.org/2000/svg">
<path fill-rule="evenodd" clip-rule="evenodd" d="M21.4572 10.5429C22.2382 11.3239 22.2382 12.5902 21.4572 13.3713L14.2982 20.5303C12.8807 21.9477 10.4572 20.9438 10.4572 18.9393L10.4572 17.4572L3.95718 17.4572C2.85261 17.4572 1.95718 16.5617 1.95718 15.4572L1.95718 8.45718C1.95718 7.35261 2.85262 6.45718 3.95718 6.45718L10.4572 6.45718L10.4572 4.97485C10.4572 2.97032 12.8807 1.96643 14.2982 3.38386L21.4572 10.5429ZM12.884 19.1161L20.043 11.9571L12.884 4.79807C12.7265 4.64058 12.4572 4.75212 12.4572 4.97485L12.4572 7.45718C12.4572 7.7224 12.3518 7.97675 12.1643 8.16429C11.9768 8.35182 11.7224 8.45718 11.4572 8.45718L3.95718 8.45718L3.95718 15.4572L11.4572 15.4572C11.7224 15.4572 11.9768 15.5625 12.1643 15.7501C12.3518 15.9376 12.4572 16.192 12.4572 16.4572L12.4572 18.9393C12.4572 19.162 12.7265 19.2736 12.884 19.1161Z" fill="black"/>
</svg>
