<svg width="24" height="24" viewBox="0 0 24 24" fill="none" xmlns="http://www.w3.org/2000/svg">
<path fill-rule="evenodd" clip-rule="evenodd" d="M19.25 0.5C19.6166 0.5 19.9295 0.765059 19.9898 1.1267L20.1375 2.013C20.2956 2.96131 21.0387 3.70444 21.987 3.86249L22.8733 4.0102C23.2349 4.07048 23.5 4.38337 23.5 4.75C23.5 5.11663 23.2349 5.42952 22.8733 5.4898L21.987 5.63751C21.0387 5.79556 20.2956 6.53868 20.1375 7.487L19.9898 8.3733C19.9295 8.73494 19.6166 9 19.25 9C18.8834 9 18.5705 8.73494 18.5102 8.3733L18.3625 7.487C18.2044 6.53868 17.4613 5.79556 16.513 5.63751L15.6267 5.4898C15.2651 5.42952 15 5.11663 15 4.75C15 4.38337 15.2651 4.07048 15.6267 4.0102L16.513 3.86249C17.4613 3.70444 18.2044 2.96131 18.3625 2.013L18.5102 1.1267C18.5705 0.765059 18.8834 0.5 19.25 0.5ZM4 8C4 6.89543 4.89543 6 6 6H12C12.5523 6 13 5.55228 13 5C13 4.44772 12.5523 4 12 4H6C3.79086 4 2 5.79086 2 8V18C2 20.2091 3.79086 22 6 22H18C20.2091 22 22 20.2091 22 18V12C22 11.4477 21.5523 11 21 11C20.4477 11 20 11.4477 20 12V18C20 19.1046 19.1046 20 18 20H6C4.89543 20 4 19.1046 4 18V8ZM15.5 13.866C15.8094 13.6874 16 13.3573 16 13C16 12.6427 15.8094 12.3126 15.5 12.134L11 9.53589C10.6906 9.35726 10.3094 9.35726 10 9.53589C9.6906 9.71452 9.5 10.0447 9.5 10.4019L9.5 15.5981C9.5 15.9553 9.6906 16.2855 10 16.4641C10.3094 16.6427 10.6906 16.6427 11 16.4641L15.5 13.866Z" fill="black"/>
</svg>
