<svg width="24" height="24" viewBox="0 0 24 24" fill="none" xmlns="http://www.w3.org/2000/svg">
<path fill-rule="evenodd" clip-rule="evenodd" d="M4 12C4 7.58172 7.58172 4 12 4C16.4183 4 20 7.58172 20 12C20 16.4183 16.4183 20 12 20C7.58172 20 4 16.4183 4 12ZM12 2C6.47715 2 2 6.47715 2 12C2 17.5228 6.47715 22 12 22C17.5228 22 22 17.5228 22 12C22 6.47715 17.5228 2 12 2ZM17 13L17.9906 13.1367C18.0302 12.85 17.9436 12.5602 17.7532 12.3422C17.5628 12.1242 17.2873 11.9994 16.9978 12L6.99781 12.0219C6.70857 12.0226 6.43377 12.1484 6.24433 12.367C6.05489 12.5856 5.96937 12.8755 6.00985 13.1619L7.00001 13.0219C6.00985 13.1619 6.00991 13.1623 6.00999 13.1628L6.01014 13.1639L6.0105 13.1664L6.01142 13.1727L6.01408 13.19C6.01623 13.2037 6.01915 13.2215 6.02295 13.2433C6.03055 13.2869 6.04168 13.3464 6.05718 13.4194C6.0881 13.5653 6.13674 13.7669 6.20999 14.0059C6.35544 14.4806 6.60359 15.1215 7.01653 15.7702C7.86206 17.0984 9.40223 18.4444 12.0058 18.4444C14.6121 18.4444 16.1498 17.09 16.9914 15.7558C17.4025 15.1042 17.6488 14.4604 17.7929 13.9838C17.8655 13.7438 17.9135 13.5414 17.9441 13.395C17.9593 13.3217 17.9703 13.2621 17.9778 13.2184C17.9815 13.1965 17.9844 13.1786 17.9865 13.1649L17.9891 13.1475L17.99 13.1413L17.9903 13.1388L17.9905 13.1377C17.9905 13.1372 17.9906 13.1367 17 13ZM8.70367 14.6962C8.55807 14.4674 8.43977 14.2368 8.3443 14.019L15.6598 14.0029C15.5645 14.2234 15.4461 14.457 15.2999 14.6887C14.7397 15.5767 13.7802 16.4444 12.0058 16.4444C10.2286 16.4444 9.26584 15.5792 8.70367 14.6962ZM13.5279 10.3815C13.0411 10.1208 12.8578 9.5147 13.1185 9.02785C13.1184 9.02818 13.1185 9.02785 14.0001 9.49999L13.1185 9.02785L13.12 9.02507L13.1217 9.02191L13.1258 9.01445L13.1367 8.99507C13.1451 8.98026 13.1559 8.96165 13.1691 8.93978C13.1955 8.89617 13.2318 8.83889 13.278 8.77246C13.3693 8.64126 13.5055 8.46553 13.687 8.28697C14.0391 7.94078 14.6517 7.49999 15.4983 7.49999C16.3445 7.49999 16.9576 7.94033 17.3101 8.28578C17.492 8.46406 17.6286 8.63953 17.7202 8.77055C17.7666 8.83688 17.8031 8.89408 17.8295 8.93762C17.8428 8.95944 17.8537 8.97802 17.8621 8.9928L17.873 9.01212L17.8771 9.01957L17.8788 9.02272L17.8796 9.02415C17.8798 9.02448 17.8803 9.02548 17.0001 9.49999L17.8803 9.02548C18.1424 9.51163 17.9607 10.1182 17.4746 10.3802C16.9914 10.6407 16.3894 10.4629 16.1248 9.98357L16.1205 9.97642C16.1137 9.96527 16.1005 9.94434 16.0814 9.91693C16.0418 9.86044 15.9834 9.78592 15.9103 9.7142C15.7525 9.55964 15.6148 9.49999 15.4983 9.49999C15.3823 9.49999 15.2457 9.5592 15.0893 9.71301C15.0167 9.78445 14.9587 9.85871 14.9195 9.91502C14.9005 9.94234 14.8875 9.96318 14.8808 9.97426L14.8766 9.98128C14.6132 10.4613 14.0117 10.6406 13.5279 10.3815ZM6.10998 9.04412C5.85822 9.53569 6.05262 10.1383 6.54418 10.39L9.06206 9.96793L9.11655 9.96843L9.1132 9.96263C9.11266 9.96171 9.11208 9.96072 9.11144 9.95965L9.11191 9.95957L9.11255 9.9608L9.1137 9.96301L9.11551 9.96645L9.11655 9.96844C9.3727 10.4518 9.97086 10.6401 10.4583 10.3888C10.9492 10.1357 11.1419 9.53256 10.8888 9.04168L10 9.49997C10.8888 9.04168 10.8887 9.04134 10.8885 9.041L10.8881 9.04028L10.8873 9.03878L10.8856 9.03549L10.8815 9.02776L10.8708 9.00784C10.8624 8.99265 10.8518 8.97365 10.8387 8.95138C10.8127 8.90696 10.7768 8.84879 10.731 8.78143C10.6405 8.64837 10.5052 8.47045 10.323 8.28982C9.96625 7.93613 9.35228 7.49997 8.4983 7.49997C7.64387 7.49997 7.03043 7.93656 6.67411 8.29103C6.49225 8.47195 6.35734 8.65014 6.2672 8.78339C6.22156 8.85086 6.18583 8.90912 6.15991 8.95361C6.14691 8.97592 6.13627 8.99496 6.12798 9.01018L6.11725 9.03015L6.11319 9.03791L6.11148 9.04121L6.1107 9.04272L6.11033 9.04343C6.11016 9.04378 6.10998 9.04412 7.00004 9.49997L6.10998 9.04412ZM7.88993 9.95715L9.06206 9.96793L9.11144 9.95965C9.10497 9.94874 9.09346 9.93005 9.07713 9.90602C9.04011 9.85158 8.98488 9.7795 8.91491 9.71013C8.76733 9.56381 8.63044 9.49997 8.4983 9.49997C8.36663 9.49997 8.23094 9.56338 8.08464 9.70892C8.01521 9.77799 7.96044 9.8498 7.92374 9.90406C7.90769 9.92778 7.89636 9.94627 7.88993 9.95715ZM7.88993 9.95715L7.88942 9.95714L7.88878 9.95837L7.88763 9.96059L7.88581 9.96406L7.88408 9.96731C7.88393 9.96758 7.88416 9.96716 7.88476 9.9661L7.88476 9.96609L7.88802 9.9604C7.8886 9.95941 7.88924 9.95832 7.88993 9.95715ZM9.11723 9.96965L9.11655 9.96844L9.11723 9.96965Z" fill="black"/>
</svg>
