<svg width="24" height="24" viewBox="0 0 24 24" fill="none" xmlns="http://www.w3.org/2000/svg">
<path fill-rule="evenodd" clip-rule="evenodd" d="M8.5 4.5C7.94772 4.5 7.5 4.94772 7.5 5.5C7.5 6.05228 7.94772 6.5 8.5 6.5C9.05228 6.5 9.5 6.05228 9.5 5.5C9.5 4.94772 9.05228 4.5 8.5 4.5ZM5.5 5.5C5.5 3.84315 6.84315 2.5 8.5 2.5C10.1569 2.5 11.5 3.84315 11.5 5.5C11.5 7.15685 10.1569 8.5 8.5 8.5C6.84315 8.5 5.5 7.15685 5.5 5.5ZM3.5 9.5C2.94772 9.5 2.5 9.94772 2.5 10.5C2.5 11.0523 2.94772 11.5 3.5 11.5C4.05228 11.5 4.5 11.0523 4.5 10.5C4.5 9.94772 4.05228 9.5 3.5 9.5ZM0.5 10.5C0.5 8.84315 1.84315 7.5 3.5 7.5C5.15685 7.5 6.5 8.84315 6.5 10.5C6.5 12.1569 5.15685 13.5 3.5 13.5C1.84315 13.5 0.5 12.1569 0.5 10.5ZM14.5 5.5C14.5 4.94772 14.9477 4.5 15.5 4.5C16.0523 4.5 16.5 4.94772 16.5 5.5C16.5 6.05228 16.0523 6.5 15.5 6.5C14.9477 6.5 14.5 6.05228 14.5 5.5ZM15.5 2.5C13.8431 2.5 12.5 3.84315 12.5 5.5C12.5 7.15685 13.8431 8.5 15.5 8.5C17.1569 8.5 18.5 7.15685 18.5 5.5C18.5 3.84315 17.1569 2.5 15.5 2.5ZM20.5 9.5C19.9477 9.5 19.5 9.94772 19.5 10.5C19.5 11.0523 19.9477 11.5 20.5 11.5C21.0523 11.5 21.5 11.0523 21.5 10.5C21.5 9.94772 21.0523 9.5 20.5 9.5ZM17.5 10.5C17.5 8.84315 18.8431 7.5 20.5 7.5C22.1569 7.5 23.5 8.84315 23.5 10.5C23.5 12.1569 22.1569 13.5 20.5 13.5C18.8431 13.5 17.5 12.1569 17.5 10.5ZM9.53747 19.7321C8.58088 20.2844 7.3577 19.9566 6.80542 19C6.25313 18.0434 6.58088 16.8203 7.53747 16.268L8.4035 15.768C9.08919 15.3721 9.99998 14.5696 9.99998 13.3601V13C9.99998 11.8954 10.8954 11 12 11C13.1045 11 14 11.8954 14 13V13.3557C14 14.5677 14.9136 15.3715 15.6003 15.768L16.4663 16.268C17.4229 16.8202 17.7507 18.0434 17.1984 19C16.6461 19.9566 15.4229 20.2843 14.4663 19.7321L13.6003 19.2321C13.1094 18.9486 12.5275 18.8365 12.0019 18.8365C11.4763 18.8365 10.8944 18.9486 10.4035 19.2321L9.53747 19.7321ZM5.07337 20C6.17794 21.9132 8.6243 22.5687 10.5375 21.4641L11.4035 20.9641C11.5166 20.8988 11.7311 20.8365 12.0019 20.8365C12.2727 20.8365 12.4872 20.8988 12.6003 20.9641L13.4663 21.4641C15.3795 22.5687 17.8258 21.9132 18.9304 20C20.035 18.0868 19.3795 15.6405 17.4663 14.5359L16.6003 14.0359C16.3925 13.9159 16.227 13.7759 16.1225 13.6413C16.022 13.5118 16 13.4188 16 13.3557V13C16 10.7909 14.2091 9.00001 12 9.00001C9.79084 9.00001 7.99998 10.7909 7.99998 13V13.3601C7.99998 13.4225 7.97828 13.5148 7.87849 13.6434C7.77468 13.7773 7.61018 13.9166 7.4035 14.0359L6.53747 14.5359C4.6243 15.6405 3.9688 18.0868 5.07337 20Z" fill="black"/>
</svg>
