<svg width="24" height="24" viewBox="0 0 24 24" fill="none" xmlns="http://www.w3.org/2000/svg">
<path fill-rule="evenodd" clip-rule="evenodd" d="M4 12C4 7.58172 7.58172 4 12 4C16.4183 4 20 7.58172 20 12C20 16.4183 16.4183 20 12 20C7.58172 20 4 16.4183 4 12ZM12 2C6.47715 2 2 6.47715 2 12C2 17.5228 6.47715 22 12 22C17.5228 22 22 17.5228 22 12C22 6.47715 17.5228 2 12 2ZM6.27345 9.93986C6.07045 9.42623 6.32227 8.8453 6.83589 8.6423L6.83846 8.64129L6.8418 8.63998L6.85079 8.6365L6.87792 8.62624C6.90004 8.61799 6.93018 8.60699 6.96805 8.59372C7.04378 8.56719 7.15054 8.53156 7.28602 8.49065C7.55681 8.40889 7.94334 8.30575 8.42692 8.21223C9.3929 8.02542 10.7546 7.87535 12.3587 8.01569C13.9628 8.15603 15.2778 8.54029 16.1967 8.892C16.6567 9.06807 17.0194 9.23676 17.2719 9.36431C17.3982 9.42812 17.4972 9.48175 17.5671 9.52102C17.6021 9.54066 17.6299 9.55673 17.6503 9.5687L17.6752 9.58352L17.6834 9.5885L17.6865 9.59037L17.6878 9.59115C17.6887 9.59171 17.3336 10.1702 17.304 10.2183L17.6889 9.59181C18.1594 9.88091 18.3065 10.4968 18.0174 10.9673C17.7289 11.437 17.1148 11.5845 16.6446 11.2975L16.6436 11.2969L16.6363 11.2926C16.6273 11.2873 16.6112 11.278 16.5882 11.2651C16.5423 11.2393 16.4691 11.1995 16.3701 11.1495C16.172 11.0494 15.8716 10.9091 15.4817 10.7598C14.7008 10.4609 13.5689 10.1292 12.1844 10.0081C10.7999 9.88695 9.6276 10.0171 8.80667 10.1759C8.39679 10.2551 8.07665 10.3411 7.86413 10.4053C7.75795 10.4373 7.6789 10.4639 7.62923 10.4813C7.6044 10.49 7.58695 10.4964 7.57714 10.5L7.56822 10.5034C7.05528 10.7044 6.47608 10.4526 6.27345 9.93986ZM15.4902 13.8384C13.1219 12.6354 10.9776 12.3345 8.27948 13.2016C7.75368 13.3706 7.19045 13.0813 7.02146 12.5555C6.85247 12.0297 7.14172 11.4665 7.66752 11.2975C10.9226 10.2514 13.6116 10.6409 16.3959 12.0552C16.8883 12.3054 17.0847 12.9073 16.8346 13.3997C16.5845 13.8921 15.9826 14.0885 15.4902 13.8384ZM7.80842 15.3442C7.60542 14.8306 7.85724 14.2496 8.37086 14.0466L8.37261 14.0459L8.37494 14.045L8.38131 14.0425L8.40085 14.035C8.41684 14.029 8.43871 14.0208 8.46606 14.0108C8.52072 13.9909 8.5975 13.9638 8.69315 13.9324C8.88393 13.8697 9.15261 13.7886 9.47268 13.7121C10.1005 13.5622 10.9816 13.4162 11.8794 13.4948C12.7772 13.5733 13.6196 13.87 14.2119 14.1268C14.5139 14.2576 14.7644 14.3841 14.9414 14.479C15.0302 14.5266 15.1011 14.5666 15.1515 14.5957C15.1808 14.6126 15.2101 14.6298 15.239 14.6475C15.7096 14.9366 15.8568 15.5524 15.5677 16.023C15.2788 16.4932 14.6637 16.6405 14.1933 16.3523L14.1869 16.3485C14.1799 16.3443 14.1679 16.3372 14.1511 16.3275C14.1175 16.3081 14.065 16.2785 13.9965 16.2417C13.8588 16.1679 13.6587 16.0667 13.4166 15.9618C12.9208 15.7469 12.3015 15.5393 11.7051 15.4871C11.1087 15.435 10.4629 15.5319 9.93737 15.6574C9.68076 15.7187 9.46613 15.7836 9.31778 15.8323C9.24387 15.8566 9.18713 15.8767 9.15066 15.89C9.13244 15.8966 9.11934 15.9016 9.11175 15.9044L9.10563 15.9068C8.59209 16.1095 8.01137 15.8577 7.80842 15.3442Z" fill="black"/>
</svg>
