<svg width="24" height="24" viewBox="0 0 24 24" fill="none" xmlns="http://www.w3.org/2000/svg">
<path fill-rule="evenodd" clip-rule="evenodd" d="M6.76847 3.47142C6.43064 3.29901 6.06938 3.39233 5.88063 3.63107C4.27856 5.65749 4.10213 7.60211 4.70789 9.49349C5.33807 11.4611 6.83693 13.4227 8.70714 15.2929C10.5562 17.142 12.4956 18.6291 14.4424 19.2713C16.3174 19.8898 18.237 19.7426 20.2323 18.2254C20.4912 18.0285 20.5925 17.6085 20.3471 17.2282C19.988 16.6715 19.5768 16.0682 19.2216 15.6278C18.8125 15.1205 18.2285 14.5203 17.6767 13.9863C17.3348 13.6554 16.7653 13.649 16.3858 14.0284L15.1657 15.2485C14.6147 15.7995 13.7365 16.0169 12.9576 15.6206C12.3068 15.2895 11.254 14.6682 10.2929 13.7071C9.33183 12.746 8.71054 11.6932 8.37944 11.0424C7.98314 10.2635 8.20049 9.38532 8.7515 8.83432L10.1378 7.44796C10.4848 7.10105 10.4999 6.61096 10.2527 6.2947C9.80679 5.7242 9.29892 5.13844 8.85543 4.76454C8.32535 4.31765 7.49665 3.84304 6.76847 3.47142ZM4.31172 2.39071C5.13772 1.34591 6.55804 1.11863 7.67761 1.69C8.4264 2.07214 9.42887 2.63206 10.1446 3.23546C10.7515 3.74711 11.3622 4.46647 11.8285 5.06301C12.7521 6.24469 12.5495 7.86471 11.5521 8.86217L10.2017 10.2126C10.485 10.7556 10.9812 11.5669 11.7071 12.2929C12.4331 13.0188 13.2444 13.5151 13.7875 13.7983L14.9716 12.6142C16.0798 11.506 17.8979 11.417 19.0677 12.5492C19.6354 13.0986 20.2904 13.7672 20.7784 14.3722C21.2015 14.8969 21.6586 15.5718 22.0277 16.1438C22.7692 17.293 22.6329 18.9125 21.4428 19.8174C18.8938 21.7557 16.2806 21.9837 13.8158 21.1706C11.423 20.3812 9.2157 18.6299 7.29292 16.7071C5.34932 14.7635 3.57975 12.5282 2.8032 10.1035C2.00223 7.60263 2.28078 4.9596 4.31172 2.39071ZM13.7514 13.8344C13.7514 13.8344 13.7514 13.8344 13.7515 13.8343C13.7514 13.8344 13.7514 13.8344 13.7514 13.8344Z" fill="black"/>
</svg>
