<svg width="24" height="24" viewBox="0 0 24 24" fill="none" xmlns="http://www.w3.org/2000/svg">
<g clip-path="url(#clip0_933_5204)">
<path fill-rule="evenodd" clip-rule="evenodd" d="M15.3153 8.68819C13.3011 6.67392 10.9306 5.23822 8.40779 4.3786C8.22614 4.31671 7.96598 4.41505 7.89186 4.7048L7.51156 6.19142C9.91638 6.96959 12.1075 8.30817 13.9011 10.1024C15.6933 11.8952 17.0305 14.0847 17.8081 16.4875L19.297 16.1066C19.5868 16.0325 19.6851 15.7722 19.6232 15.5906C18.7634 13.0697 17.3282 10.7011 15.3153 8.68819ZM6.43669 10.3932L7.01478 8.13336C9.07229 8.81954 10.9469 9.97606 12.4867 11.5164C14.0252 13.0555 15.1805 14.9286 15.8662 16.9843L14.4227 17.3535C14.3827 16.7337 14.1258 16.1253 13.6521 15.6516C12.6172 14.6167 10.9393 14.6167 9.90444 15.6516C9.09499 16.4611 8.91866 17.6639 9.37544 18.6447L4.78968 19.8178C4.42166 19.9119 4.08721 19.5775 4.18136 19.2095L4.75381 16.9717C5.8284 17.1837 6.98534 16.8736 7.81847 16.0405C9.14625 14.7127 9.14625 12.56 7.81847 11.2322C7.41795 10.8317 6.942 10.5521 6.43669 10.3932ZM5.20132 15.2224L5.98918 12.1425C6.19207 12.2205 6.38205 12.3414 6.54568 12.505C7.17052 13.1298 7.17052 14.1429 6.54568 14.7677C6.17932 15.1341 5.67864 15.2859 5.20132 15.2224ZM12.5734 17.8266L11.2256 18.1714C11.2091 18.1572 11.193 18.1422 11.1772 18.1265C10.8453 17.7945 10.8453 17.2563 11.1772 16.9244C11.5092 16.5925 12.0474 16.5925 12.3793 16.9244C12.6232 17.1683 12.6879 17.5237 12.5734 17.8266ZM9.05285 2.48549C11.8589 3.44161 14.4942 5.0386 16.7295 7.27398C18.9634 9.50784 20.5597 12.1411 21.5161 14.945C21.9887 16.3306 21.1071 17.708 19.7927 18.0442L5.28534 21.7554C3.44525 22.2261 1.77303 20.5539 2.24375 18.7138L5.95425 4.20913C6.29044 2.89494 7.66738 2.0134 9.05285 2.48549Z" fill="black"/>
</g>
<defs>
<clipPath id="clip0_933_5204">
<rect width="24" height="24" fill="white"/>
</clipPath>
</defs>
</svg>
