<svg width="24" height="24" viewBox="0 0 24 24" fill="none" xmlns="http://www.w3.org/2000/svg">
<path fill-rule="evenodd" clip-rule="evenodd" d="M17 2C18.6569 2 20 3.34315 20 5V9.99917V10V10.0008L20 19C20 20.6569 18.6569 22 17 22H7C5.34314 22 4 20.6569 4 19V10V5C4 3.34315 5.34315 2 7 2H17ZM18 5V9L6 9L6 5C6 4.44772 6.44771 4 7 4L17 4C17.5523 4 18 4.44772 18 5ZM6 19L6 11L18 11L18 19C18 19.5523 17.5523 20 17 20H7C6.44771 20 6 19.5523 6 19ZM8.9999 15.0999C9.60742 15.0999 10.0999 14.6074 10.0999 13.9999C10.0999 13.3924 9.60742 12.8999 8.9999 12.8999C8.39239 12.8999 7.8999 13.3924 7.8999 13.9999C7.8999 14.6074 8.39239 15.0999 8.9999 15.0999ZM10.0999 16.9999C10.0999 17.6074 9.60742 18.0999 8.9999 18.0999C8.39239 18.0999 7.8999 17.6074 7.8999 16.9999C7.8999 16.3924 8.39239 15.8999 8.9999 15.8999C9.60742 15.8999 10.0999 16.3924 10.0999 16.9999ZM16 14C16 13.4477 15.5523 13 15 13C14.4477 13 14 13.4477 14 14V17C14 17.5523 14.4477 18 15 18C15.5523 18 16 17.5523 16 17V14ZM13.0999 13.9999C13.0999 14.6074 12.6074 15.0999 11.9999 15.0999C11.3924 15.0999 10.8999 14.6074 10.8999 13.9999C10.8999 13.3924 11.3924 12.8999 11.9999 12.8999C12.6074 12.8999 13.0999 13.3924 13.0999 13.9999ZM11.9984 18.0999C12.606 18.0999 13.0984 17.6074 13.0984 16.9999C13.0984 16.3924 12.606 15.8999 11.9984 15.8999C11.3909 15.8999 10.8984 16.3924 10.8984 16.9999C10.8984 17.6074 11.3909 18.0999 11.9984 18.0999Z" fill="black"/>
</svg>
