<svg width="24" height="24" viewBox="0 0 24 24" fill="none" xmlns="http://www.w3.org/2000/svg">
<path fill-rule="evenodd" clip-rule="evenodd" d="M7.22318 10H12H16.7768L13.6405 15.4886C13.5513 15.6382 13.5 15.8131 13.5 16C13.5 18.7614 15.7386 21 18.5 21C21.2614 21 23.5 18.7614 23.5 16C23.5 15.8131 23.4487 15.6382 23.3595 15.4886L19.3778 8.52067C19.3459 8.46233 19.3084 8.40753 19.2659 8.35699C19.2313 8.3158 19.1936 8.27768 19.1533 8.24291C18.9781 8.09154 18.7497 8 18.5 8H13V4C13 3.44772 12.5523 3 12 3C11.4477 3 11 3.44772 11 4V8H5.5C5.25005 8 5.02153 8.0917 4.84622 8.24329C4.80608 8.27796 4.76856 8.31595 4.73411 8.35699C4.69163 8.40754 4.65405 8.46236 4.62213 8.52071L0.640468 15.4886C0.551253 15.6382 0.5 15.8131 0.5 16C0.5 18.7614 2.73858 21 5.5 21C8.26142 21 10.5 18.7614 10.5 16C10.5 15.8131 10.4487 15.6382 10.3595 15.4886L7.22318 10ZM2.67071 17C3.08254 18.1652 4.19378 19 5.5 19C6.80622 19 7.91746 18.1652 8.32929 17H2.67071ZM5.5 11.0156L7.77682 15H3.22318L5.5 11.0156ZM15.6707 17C16.0825 18.1652 17.1938 19 18.5 19C19.8062 19 20.9175 18.1652 21.3293 17H15.6707ZM18.5 11.0156L20.7768 15H16.2232L18.5 11.0156Z" fill="black"/>
</svg>
