<svg width="24" height="24" viewBox="0 0 24 24" fill="none" xmlns="http://www.w3.org/2000/svg">
<path fill-rule="evenodd" clip-rule="evenodd" d="M6 3.7266V12.6032C8.67545 11.8894 10.809 12.4971 12.6572 13.0406L12.6833 13.0483C14.6279 13.6203 16.1553 14.0695 18 13.3516V4.31328C15.3826 4.88757 13.3808 4.40916 11.5769 3.97184L11.5657 3.96912C9.70851 3.51889 8.10594 3.13039 6 3.7266ZM6 14.6911C8.35265 13.8988 10.1639 14.392 12.0928 14.9594C12.1504 14.9763 12.2081 14.9933 12.266 15.0104C14.3244 15.6176 16.6367 16.2997 19.4472 14.8944C19.786 14.725 20 14.3788 20 14V2.99999C20 2.67855 19.8455 2.3767 19.5847 2.18875C19.3239 2.0008 18.9887 1.94966 18.6838 2.05131C15.9666 2.95703 14.0782 2.5203 12.0481 2.02814C12.0181 2.02087 11.9881 2.01359 11.958 2.0063C9.9083 1.509 7.66847 0.965578 4.65826 2.0602C4.26307 2.20391 4 2.57949 4 2.99999V21C4 21.5523 4.44772 22 5 22C5.55228 22 6 21.5523 6 21V14.6911Z" fill="black"/>
</svg>
