<svg width="24" height="24" viewBox="0 0 24 24" fill="none" xmlns="http://www.w3.org/2000/svg">
<path fill-rule="evenodd" clip-rule="evenodd" d="M12 4C7.58172 4 4 7.58172 4 12C4 16.4183 7.58172 20 12 20C16.4183 20 20 16.4183 20 12C20 7.58172 16.4183 4 12 4ZM2 12C2 6.47715 6.47715 2 12 2C17.5228 2 22 6.47715 22 12C22 17.5228 17.5228 22 12 22C6.47715 22 2 17.5228 2 12ZM16.7071 12.7071C16.3166 13.0976 15.6834 13.0976 15.2929 12.7071L13 10.4142L13 16C13 16.5523 12.5523 17 12 17C11.4477 17 11 16.5523 11 16L11 10.4142L8.70711 12.7071C8.31658 13.0976 7.68342 13.0976 7.29289 12.7071C6.90237 12.3166 6.90237 11.6834 7.29289 11.2929L11.2929 7.29289C11.3888 7.19702 11.4993 7.12468 11.6172 7.07588C11.7351 7.02699 11.8644 7 12 7C12.1356 7 12.2649 7.02699 12.3828 7.07588C12.498 7.12357 12.6062 7.19374 12.7006 7.2864C12.7029 7.28875 12.7053 7.29111 12.7077 7.29349M12.7077 7.29349L16.7071 11.2929C17.0976 11.6834 17.0976 12.3166 16.7071 12.7071" fill="black"/>
</svg>
