<svg width="24" height="24" viewBox="0 0 24 24" fill="none" xmlns="http://www.w3.org/2000/svg">
<g clip-path="url(#clip0_895_52946)">
<path fill-rule="evenodd" clip-rule="evenodd" d="M12 1.50001L12.1559 0.512229C11.867 0.466648 11.5727 0.549799 11.3503 0.739789C11.128 0.929779 11 1.20757 11 1.50001V7.63332C10.0639 6.59966 8.69486 5.75 6.75001 5.75C4.05461 5.75 2.46518 7.38199 1.60146 8.874C1.17122 9.61721 0.902047 10.3512 0.740223 10.894C0.658755 11.1672 0.603057 11.3968 0.567176 11.5615C0.549209 11.6439 0.536133 11.7104 0.527229 11.7583C0.522774 11.7823 0.519357 11.8016 0.516888 11.816L0.513883 11.8339L0.512891 11.84L0.512519 11.8423L0.512364 11.8433C0.512295 11.8437 0.512228 11.8441 1.50001 12L0.512228 11.8441C0.466648 12.133 0.549799 12.4273 0.739789 12.6497C0.929779 12.872 1.20757 13 1.50001 13L7.63332 13C6.59966 13.9361 5.75 15.3052 5.75 17.25C5.75 19.9454 7.38199 21.5348 8.874 22.3986C9.61721 22.8288 10.3512 23.098 10.894 23.2598C11.1672 23.3413 11.3968 23.397 11.5615 23.4328C11.6439 23.4508 11.7104 23.4639 11.7583 23.4728C11.7823 23.4772 11.8016 23.4807 11.816 23.4831L11.8339 23.4861L11.84 23.4871L11.8423 23.4875L11.8433 23.4877C11.8437 23.4877 11.8441 23.4878 12 22.5L11.8441 23.4878C12.133 23.5334 12.4273 23.4502 12.6497 23.2602C12.872 23.0702 13 22.7924 13 22.5V16.3667C13.9361 17.4003 15.3052 18.25 17.25 18.25C19.9454 18.25 21.5348 16.618 22.3986 15.126C22.8288 14.3828 23.098 13.6488 23.2598 13.106C23.3413 12.8328 23.397 12.6032 23.4328 12.4385C23.4508 12.3561 23.4639 12.2896 23.4728 12.2417L23.4809 12.1966L23.4831 12.184L23.4861 12.1661L23.4871 12.16L23.4875 12.1577L23.4876 12.1567C23.4877 12.1563 23.4878 12.1559 22.5 12L23.4878 12.1559C23.5334 11.867 23.4502 11.5727 23.2602 11.3503C23.0702 11.128 22.7924 11 22.5 11L16.3667 11C17.4004 10.0639 18.25 8.69485 18.25 6.75001C18.25 4.05461 16.618 2.46518 15.126 1.60146C14.3828 1.17122 13.6488 0.902048 13.1061 0.740223C12.8328 0.658755 12.6032 0.603057 12.4385 0.567176C12.3561 0.549209 12.2896 0.536133 12.2417 0.527228C12.2177 0.522774 12.1984 0.519356 12.184 0.516888L12.1661 0.513882L12.16 0.512891L12.1577 0.512519L12.1567 0.512364C12.1563 0.512294 12.1559 0.512229 12 1.50001ZM12 1.50001L11.3888 8.1037L11.3857 8.09963L12 1.50001ZM14.124 10.1677C13.7384 10.3909 13.3486 10.5612 13 10.6888V2.81123C13.3486 2.93883 13.7384 3.10915 14.124 3.33235C15.257 3.98824 16.25 5.02381 16.25 6.75001C16.25 8.4762 15.257 9.51177 14.124 10.1677ZM13.8324 14.124C13.6092 13.7384 13.4388 13.3486 13.3112 13H21.1888C21.0612 13.3486 20.8909 13.7384 20.6677 14.124C20.0118 15.257 18.9762 16.25 17.25 16.25C15.5238 16.25 14.4882 15.257 13.8324 14.124ZM2.81123 11C2.93883 10.6514 3.10915 10.2616 3.33235 9.876C3.98824 8.74301 5.02381 7.75 6.75001 7.75C8.4762 7.75 9.51177 8.74301 10.1677 9.876C10.3909 10.2616 10.5612 10.6514 10.6888 11H2.81123ZM9.876 20.6677C10.2616 20.8909 10.6514 21.0612 11 21.1888V13.3112C10.6514 13.4388 10.2616 13.6092 9.876 13.8324C8.74301 14.4882 7.75 15.5238 7.75 17.25C7.75 18.9762 8.74301 20.0118 9.876 20.6677Z" fill="black"/>
</g>
<defs>
<clipPath id="clip0_895_52946">
<rect width="24" height="24" fill="white"/>
</clipPath>
</defs>
</svg>
