<svg width="24" height="24" viewBox="0 0 24 24" fill="none" xmlns="http://www.w3.org/2000/svg">
<path fill-rule="evenodd" clip-rule="evenodd" d="M11.7071 20.7071C11.3166 21.0976 10.6834 21.0976 10.2929 20.7071L2.29289 12.7071C1.90237 12.3166 1.90237 11.6834 2.29289 11.2929L10.2929 3.29289C10.6834 2.90237 11.3166 2.90237 11.7071 3.29289C12.0976 3.68342 12.0976 4.31658 11.7071 4.70711L4.41421 12L11.7071 19.2929C12.0976 19.6834 12.0976 20.3166 11.7071 20.7071ZM17.7071 20.7071C17.3166 21.0976 16.6834 21.0976 16.2929 20.7071L8.29366 12.7079C8.29123 12.7054 8.28881 12.703 8.2864 12.7005C8.19374 12.6062 8.12357 12.498 8.07588 12.3828C8.02699 12.2649 8 12.1356 8 12C8 11.8633 8.02741 11.7331 8.07705 11.6144C8.12428 11.5012 8.19323 11.395 8.28389 11.302C8.28723 11.2986 8.29059 11.2952 8.29398 11.2918L16.2929 3.29289C16.6834 2.90237 17.3166 2.90237 17.7071 3.29289C18.0976 3.68342 18.0976 4.31658 17.7071 4.70711L11.4142 11L21 11C21.5523 11 22 11.4477 22 12C22 12.5523 21.5523 13 21 13L11.4142 13L17.7071 19.2929C18.0976 19.6834 18.0976 20.3166 17.7071 20.7071Z" fill="black"/>
</svg>
