<svg width="140" height="40" viewBox="0 0 140 40" fill="currentColor" preserveAspectRatio="none" xmlns="http://www.w3.org/2000/svg">
<path fill-rule="evenodd" clip-rule="evenodd" d="M45.7324 16.5226C45.7293 16.5787 45.7262 16.6347 45.7262 16.6891H73.9517C72.4409 10.3213 66.6883 5.58069 59.8173 5.58069C53.0284 5.58069 47.328 10.2076 45.7357 16.4602C45.7347 16.481 45.7336 16.5018 45.7324 16.5226ZM70.658 3.11838C75.3227 6.05054 78.3861 10.6162 79.568 16.1747C80.1514 19.3215 78.0392 22.0732 74.1147 22.1551C74.1147 22.1551 47.1375 22.1596 45.4882 22.1596C45.4937 22.2906 45.5074 22.4328 45.5261 22.5801C45.6686 23.3676 45.873 24.1324 46.1382 24.8696C47.6566 28.8178 51.9253 34.3493 59.9025 34.4375C62.3397 34.4239 64.6322 33.8137 66.6441 32.7461C68.225 31.8688 69.5445 30.7379 70.6079 29.5705C70.961 29.1519 71.2817 28.7333 71.5691 28.3265C72.9066 26.625 74.6063 26.9375 75.6187 27.7084C76.8192 28.622 77.0218 30.536 75.9294 31.8819C75.9109 31.9039 75.8923 31.924 75.8737 31.944C75.8604 31.9583 75.8471 31.9726 75.8339 31.9876C74.2599 33.9486 72.6347 35.5867 70.6894 36.8289C68.8152 38.022 66.7811 38.8689 64.6789 39.377C62.2326 40.0063 59.8701 40.146 57.443 39.8541C49.2638 38.8595 42.4035 32.8585 40.3749 24.9311C39.9696 23.3373 39.775 21.718 39.775 20.1138C39.775 13.716 42.8762 7.50525 48.2486 3.70858C54.8349 -0.944126 63.8392 -1.18209 70.658 3.11838ZM119.884 5.64059C111.925 5.64059 105.451 12.073 105.451 19.9785C105.451 27.8823 111.925 34.3119 119.884 34.3119C127.839 34.3119 134.315 27.8823 134.315 19.9785C134.315 12.073 127.839 5.64059 119.884 5.64059ZM119.884 39.9531C108.795 39.9531 99.7733 30.9924 99.7733 19.9785C99.7733 8.96318 108.795 -3.80452e-06 119.884 -3.80452e-06C130.973 -3.80452e-06 139.999 8.96318 139.999 19.9785C139.999 30.9924 130.973 39.9531 119.884 39.9531ZM23.929 19.9811L39.2358 4.73801C39.7433 4.22421 40.0264 3.54399 40.0264 2.82255C40.0264 1.31904 38.7961 0.0980454 37.2826 0.0980454C36.5453 0.0980454 35.8542 0.385109 35.333 0.909214C35.3314 0.912247 20.0399 16.0938 20.0399 16.0938L4.67851 0.886478C4.15946 0.378132 3.47166 0.0980454 2.74236 0.0980454C1.23066 0.0980454 0 1.31844 0 2.82043C0 3.55309 0.294464 4.24059 0.822979 4.75863L16.1276 19.9599L0.830913 35.1838C0.293244 35.7098 0 36.3988 0 37.1348C0 38.638 1.23066 39.8575 2.74236 39.8575C3.47288 39.8575 4.16129 39.5759 4.67851 39.0618L20.0161 23.8463L35.2954 39.0063C35.8374 39.5628 36.5365 39.8593 37.2826 39.8593C38.7946 39.8593 40.0249 38.638 40.0249 37.1348C40.0249 36.4094 39.742 35.728 39.2272 35.2142L23.929 19.9811ZM114.942 19.9766C114.942 22.7065 117.176 24.9272 119.928 24.9272C122.673 24.9272 124.908 22.7065 124.908 19.9766C124.908 17.246 122.673 15.0256 119.928 15.0256C117.176 15.0256 114.942 17.246 114.942 19.9766ZM98.347 0.346062L97.5033 0.343639C94.9704 0.343639 92.5275 1.13723 90.487 2.69924C90.2182 1.47703 89.1185 0.557339 87.8086 0.557339C86.3009 0.557339 85.0928 1.75742 85.0892 3.25821L85.0983 36.9054C85.1023 38.4034 86.3323 39.6211 87.8409 39.6211C89.3492 39.6211 90.5789 38.4034 90.5828 36.902L90.5841 16.2133C90.5841 9.31773 91.2187 6.5329 97.1646 5.79478C97.7024 5.72834 98.2863 5.73706 98.3134 5.73747L98.3144 5.73748C99.9413 5.68201 101.097 4.57136 101.097 3.07027C101.097 1.56827 99.8632 0.346062 98.347 0.346062Z"/>
</svg>
