<svg width="24" height="24" viewBox="0 0 24 24" fill="none" xmlns="http://www.w3.org/2000/svg">
<path fill-rule="evenodd" clip-rule="evenodd" d="M16.6487 7.19487C19.2556 9.77274 21.1038 13.0176 21.9912 16.5748C22.1249 17.1107 21.7989 17.6534 21.263 17.7871C20.7272 17.9208 20.1844 17.5948 20.0507 17.0589C19.9436 16.6295 19.8209 16.2051 19.6831 15.7865C19.6908 15.8276 19.6973 15.8686 19.7027 15.9095C18.8057 13.1201 17.2355 10.5769 15.1119 8.5146C13.1171 6.57739 10.7125 5.14063 8.0955 4.29795C8.13187 4.30288 8.16832 4.30869 8.20485 4.31541C7.72614 4.15812 7.23987 4.02062 6.74721 3.90356C6.20988 3.77588 5.8778 3.23679 6.00547 2.69947C6.13315 2.16215 6.67224 1.83006 7.20956 1.95774C10.7765 2.80529 14.0418 4.617 16.6487 7.19487ZM5.60633 5.7209C8.65608 6.30813 11.4781 7.7736 13.7185 9.94936C16.0715 12.2344 17.6601 15.1837 18.2779 18.3931C18.1486 18.4515 18.0133 18.4992 17.8733 18.5351L5.28555 21.7552C3.44546 22.2259 1.77324 20.5537 2.24396 18.7136L5.46388 6.12663C5.49981 5.98617 5.54772 5.85054 5.60633 5.7209ZM10.002 13.0001C10.002 14.1047 9.10653 15.0001 8.00196 15.0001C6.89739 15.0001 6.00196 14.1047 6.00196 13.0001C6.00196 11.8955 6.89739 11.0001 8.00196 11.0001C9.10653 11.0001 10.002 11.8955 10.002 13.0001ZM15.002 15.5001C15.002 16.3285 14.3304 17.0001 13.502 17.0001C12.6735 17.0001 12.002 16.3285 12.002 15.5001C12.002 14.6717 12.6735 14.0001 13.502 14.0001C14.3304 14.0001 15.002 14.6717 15.002 15.5001Z" fill="black"/>
</svg>
