<svg width="24" height="24" viewBox="0 0 24 24" fill="none" xmlns="http://www.w3.org/2000/svg">
<path fill-rule="evenodd" clip-rule="evenodd" d="M12 1C9.23858 1 7 3.23858 7 6V10.5C7 13.2614 9.23858 15.5 12 15.5C14.7614 15.5 17 13.2614 17 10.5V6C17 3.23858 14.7614 1 12 1ZM13 18.93C15.9656 18.6291 18.8936 16.9816 19.9487 13.8162C20.1234 13.2923 19.8402 12.726 19.3163 12.5513C18.7923 12.3767 18.226 12.6598 18.0513 13.1838C17.2338 15.6365 14.7215 16.9807 12 16.9807C9.27855 16.9807 6.76629 15.6365 5.94871 13.1838C5.77406 12.6598 5.20774 12.3767 4.6838 12.5513C4.15986 12.726 3.8767 13.2923 4.05134 13.8162C5.10645 16.9815 8.03447 18.6291 11 18.93V21H9C8.44772 21 8 21.4477 8 22C8 22.5523 8.44772 23 9 23H15C15.5523 23 16 22.5523 16 22C16 21.4477 15.5523 21 15 21H13V18.93Z" fill="black"/>
</svg>
