<svg width="24" height="24" viewBox="0 0 24 24" fill="none" xmlns="http://www.w3.org/2000/svg">
<path fill-rule="evenodd" clip-rule="evenodd" d="M18.4075 2.58708C20.1438 2.43856 21.5 3.86288 21.5 5.49998V9.61417C21.5 11.2403 20.2338 12.4202 18.8525 12.7354C14.8639 13.6459 13.3689 16.8129 12.8031 18.9106C12.4353 20.2739 11.2169 21.5 9.61418 21.5H5.49999C3.86724 21.5 2.43406 20.1471 2.67364 18.3781C2.97223 16.1735 3.79701 12.5107 6.1058 9.24931C8.44294 5.94785 12.2663 3.11243 18.4075 2.58708ZM19.5215 5.47342C19.5776 6.02285 19.1777 6.51374 18.6283 6.56985C15.5563 6.88361 12.6847 8.24105 10.4925 10.4158C8.3002 12.5905 6.91975 15.4511 6.58131 18.5204C6.52078 19.0694 6.0267 19.4653 5.47774 19.4048C4.92878 19.3443 4.53283 18.8502 4.59336 18.3012C4.98193 14.7771 6.5669 11.4928 9.08395 8.99589C11.601 6.49898 14.898 4.94045 18.4251 4.5802C18.9745 4.52409 19.4654 4.92399 19.5215 5.47342ZM19.5266 9.46315C19.6036 10.01 19.2227 10.5158 18.6758 10.5928C16.6545 10.8773 14.7787 11.8053 13.3261 13.2392C11.8734 14.6732 10.9213 16.5369 10.6107 18.5542C10.5266 19.1001 10.016 19.4745 9.47011 19.3904C8.92426 19.3064 8.5499 18.7957 8.63395 18.2499C9.00999 15.8078 10.1626 13.5517 11.921 11.8159C13.6795 10.08 15.9502 8.95672 18.397 8.6123C18.9439 8.53532 19.4496 8.91626 19.5266 9.46315Z" fill="black"/>
</svg>
