<svg width="24" height="24" viewBox="0 0 24 24" fill="none" xmlns="http://www.w3.org/2000/svg">
<path fill-rule="evenodd" clip-rule="evenodd" d="M3 12.566C3 12.6468 3.00108 12.7273 3.00324 12.8077C3.00109 12.8449 3 12.8824 3 12.9201C3 15.803 4.48509 18.4824 6.92972 20.0103L7.21568 20.189L7.23001 20.198L8.41 20.9355L10.41 22.1855C11.3828 22.7935 12.6172 22.7935 13.59 22.1855L16.77 20.198C19.4014 18.5534 21 15.6691 21 12.566V11V5.15184V5.15181C21 5.07375 20.9952 4.99712 20.986 4.92214C20.9631 4.73702 20.913 4.562 20.8403 4.40041C20.4712 3.58017 19.5192 3.10614 18.5911 3.41554L18.3784 3.48641C16.7741 4.01429 15.0086 3.59436 13.8136 2.39942C12.812 1.39779 11.188 1.39779 10.1864 2.39942C8.98733 3.59848 7.21372 4.01717 5.60502 3.48093L5.40894 3.41557C4.22384 3.02054 3 3.90264 3 5.15184V12.566ZM13 18.3915V20.1958L15.71 18.502C17.6334 17.2999 18.8473 15.2462 18.9866 13H13V18.3915ZM11 11V11V4.61062V4.3443C9.31228 5.65898 7.06412 6.06525 5 5.38738V11H11Z" fill="black"/>
</svg>
