<svg width="24" height="24" viewBox="0 0 24 24" fill="none" xmlns="http://www.w3.org/2000/svg">
<path fill-rule="evenodd" clip-rule="evenodd" d="M20.6213 2.20705C19.4497 1.03547 17.5502 1.03548 16.3787 2.20705L8.57879 10.0069L7.6665 14.5684C7.45658 15.618 8.38196 16.5434 9.43154 16.3334L13.993 15.4211L21.7929 7.62126C22.9645 6.44969 22.9645 4.55019 21.7929 3.37862L20.6213 2.20705ZM17.7929 3.79283C18.1834 3.40231 18.8166 3.40231 19.2071 3.79283L20.2071 4.79283C20.5976 5.18336 20.5976 5.81652 20.2071 6.20705C19.8166 6.59757 19.1834 6.59757 18.7929 6.20705L17.7929 5.20705C17.4024 4.81652 17.4024 4.18336 17.7929 3.79283ZM7 1.99994H13.7574L7.48573 8.27157C6.99713 8.76017 6.66409 9.38247 6.52857 10.06L5.70535 14.1762C5.21554 16.6252 7.37477 18.7844 9.82379 18.2946L13.9399 17.4714C14.6175 17.3359 15.2398 17.0028 15.7284 16.5142L21.9732 10.2694C21.9907 10.3437 22 10.421 22 10.4999V16.9999C22 19.7614 19.7614 21.9999 17 21.9999H7C4.23858 21.9999 2 19.7614 2 16.9999V6.99994C2 4.23852 4.23858 1.99994 7 1.99994Z" fill="black"/>
</svg>
