<svg width="24" height="24" viewBox="0 0 24 24" fill="none" xmlns="http://www.w3.org/2000/svg">
<path fill-rule="evenodd" clip-rule="evenodd" d="M6.14254 2.48553C6.42668 2.01195 7.04094 1.85839 7.51452 2.14254L12 4.83384L16.4855 2.14254C16.9591 1.85839 17.5734 2.01195 17.8575 2.48553C18.1417 2.95911 17.9881 3.57337 17.5145 3.85752L15.6104 5H18C20.2091 5 22 6.79086 22 9V17C22 18.8638 20.7252 20.4299 19 20.874V22C19 22.5523 18.5523 23 18 23C17.4477 23 17 22.5523 17 22V21H7V22C7 22.5523 6.55228 23 6 23C5.44772 23 5 22.5523 5 22V20.874C3.27477 20.4299 2 18.8638 2 17V9C2 6.79086 3.79086 5 6 5H8.38966L6.48553 3.85752C6.01195 3.57337 5.85839 2.95911 6.14254 2.48553ZM6 7C4.89543 7 4 7.89543 4 9V17C4 18.1046 4.89543 19 6 19H18C19.1046 19 20 18.1046 20 17V9C20 7.89543 19.1046 7 18 7H6ZM6 9H18V17H6V9Z" fill="black"/>
</svg>
