<svg width="24" height="24" viewBox="0 0 24 24" fill="none" xmlns="http://www.w3.org/2000/svg">
<path fill-rule="evenodd" clip-rule="evenodd" d="M18.4068 1.49309C18.7456 1.83192 18.7904 2.3534 18.5413 2.74059C19.1375 2.96603 19.6798 3.31588 20.1316 3.76772C20.6338 4.26987 21.01 4.88374 21.2294 5.55913C21.4488 6.23452 21.5053 6.95225 21.3942 7.65366C21.3078 8.19914 20.7956 8.57131 20.2501 8.48491C19.7046 8.39852 19.3325 7.88627 19.4189 7.34079C19.4806 6.95112 19.4492 6.55238 19.3273 6.17716C19.2054 5.80194 18.9964 5.46091 18.7174 5.18194C18.6945 5.15902 18.6712 5.13658 18.6474 5.11462C18.5998 5.25622 18.5196 5.38928 18.4068 5.50209C18.0162 5.89261 17.3831 5.89261 16.9925 5.50209L15.6951 4.2047C15.5103 4.01982 15.4129 3.78058 15.4031 3.53844C15.3882 3.22064 15.5258 2.92368 15.7577 2.72796L16.9925 1.49309C17.3831 1.10256 18.0162 1.10256 18.4068 1.49309ZM3.16107 6.69636C1.59898 8.25846 1.59898 10.7911 3.16107 12.3532L11.6464 20.8385C13.2085 22.4006 15.7411 22.4006 17.3032 20.8385L20.8387 17.303C22.4008 15.7409 22.4008 13.2082 20.8387 11.6461L12.3535 3.16083C10.7914 1.59873 8.25871 1.59873 6.69661 3.16083L3.16107 6.69636ZM5.2824 8.81759C4.89188 8.42707 4.89188 7.7939 5.2824 7.40338L7.40372 5.28206C7.79424 4.89153 8.42741 4.89153 8.81793 5.28206C9.20846 5.67258 9.20846 6.30575 8.81793 6.69627L6.69661 8.81759C6.30609 9.20812 5.67292 9.20812 5.2824 8.81759ZM16.9497 14.8281C17.5354 15.4139 17.5354 16.3637 16.9497 16.9495C16.3639 17.5353 15.4141 17.5353 14.8283 16.9495C14.2425 16.3637 14.2425 15.4139 14.8283 14.8281C15.4141 14.2424 16.3639 14.2424 16.9497 14.8281ZM8.12509 21.1847L6.89949 22.4103C6.50897 22.8008 5.8758 22.8008 5.48528 22.4103C5.14492 22.0699 5.1012 21.5453 5.35412 21.1576C4.75925 20.9321 4.21814 20.5827 3.76714 20.1317C3.26499 19.6295 2.88882 19.0157 2.66937 18.3403C2.44992 17.6649 2.39344 16.9472 2.50453 16.2458C2.59093 15.7003 3.10317 15.3281 3.64865 15.4145C4.19414 15.5009 4.5663 16.0131 4.47991 16.5586C4.41819 16.9483 4.44957 17.347 4.57148 17.7223C4.6934 18.0975 4.90239 18.4385 5.18136 18.7175C5.20296 18.7391 5.22493 18.7603 5.24726 18.781C5.29519 18.6423 5.37453 18.512 5.48528 18.4013C5.8758 18.0108 6.50897 18.0108 6.89949 18.4013L8.13536 19.6372C8.31587 19.7869 8.44476 20.0004 8.48433 20.2502C8.5423 20.6162 8.39384 20.9672 8.12509 21.1847Z" fill="black"/>
</svg>
