<svg width="24" height="24" viewBox="0 0 24 24" fill="none" xmlns="http://www.w3.org/2000/svg">
<path fill-rule="evenodd" clip-rule="evenodd" d="M13.0605 2.45412C14.232 1.28255 16.1315 1.28255 17.3031 2.45412L21.5458 6.69676C22.7173 7.86833 22.7173 9.76783 21.5458 10.9394L10.9392 21.546C9.76758 22.7176 7.86809 22.7176 6.69652 21.546L2.45388 17.3034C1.2823 16.1318 1.2823 14.2323 2.45388 13.0607L13.0605 2.45412ZM14.1204 5.63689C13.7299 5.24636 13.0967 5.24636 12.7062 5.63689C12.3157 6.02741 12.3157 6.66058 12.7062 7.0511L14.474 8.81887C14.8645 9.20939 15.4977 9.20939 15.8882 8.81887C16.2787 8.42834 16.2787 7.79518 15.8882 7.40465L14.1204 5.63689ZM10.5845 9.17278C10.194 8.78225 9.56086 8.78225 9.17033 9.17278C8.77981 9.5633 8.77981 10.1965 9.17033 10.587L10.5845 12.0012C10.9751 12.3917 11.6082 12.3917 11.9988 12.0012C12.3893 11.6107 12.3893 10.9775 11.9988 10.587L10.5845 9.17278ZM5.63567 12.7074C6.02619 12.3169 6.65936 12.3169 7.04988 12.7074L8.81765 14.4752C9.20817 14.8657 9.20817 15.4989 8.81765 15.8894C8.42712 16.2799 7.79396 16.2799 7.40343 15.8894L5.63567 14.1217C5.24514 13.7311 5.24514 13.098 5.63567 12.7074Z" fill="black"/>
</svg>
