<svg width="24" height="24" viewBox="0 0 24 24" fill="none" xmlns="http://www.w3.org/2000/svg">
<path fill-rule="evenodd" clip-rule="evenodd" d="M19.7929 5.20706C17.6981 3.1123 14.3018 3.1123 12.2071 5.20705L3.70707 13.7071C2.44074 14.9734 2.44074 17.0265 3.70707 18.2928C4.9734 19.5592 7.02653 19.5592 8.29286 18.2928L16.7929 9.79284C17.2308 9.35494 17.2308 8.64496 16.7929 8.20706C16.355 7.76915 15.645 7.76915 15.2071 8.20705L8.70707 14.7071C8.31655 15.0976 7.68338 15.0976 7.29286 14.7071C6.90233 14.3165 6.90233 13.6834 7.29286 13.2928L13.7929 6.79284C15.0118 5.57389 16.9881 5.57389 18.2071 6.79284C19.426 8.01179 19.426 9.9881 18.2071 11.2071L9.70707 19.7071C7.65969 21.7544 4.34024 21.7544 2.29286 19.7071C0.24548 17.6597 0.245479 14.3402 2.29286 12.2928L10.7929 3.79284C13.6687 0.917032 18.3313 0.917037 21.2071 3.79284C24.0829 6.66865 24.0829 11.3313 21.2071 14.2071L14.7071 20.7071C14.3165 21.0976 13.6834 21.0976 13.2929 20.7071C12.9023 20.3165 12.9023 19.6834 13.2929 19.2928L19.7929 12.7928C21.8876 10.6981 21.8876 7.30181 19.7929 5.20706Z" fill="black"/>
</svg>
