<svg width="24" height="24" viewBox="0 0 24 24" fill="none" xmlns="http://www.w3.org/2000/svg">
<path fill-rule="evenodd" clip-rule="evenodd" d="M4.92893 4.92899C8.83417 1.02375 15.1658 1.02375 19.0711 4.92899C22.9763 8.83424 22.9763 15.1659 19.0711 19.0711C15.1658 22.9764 8.83417 22.9764 4.92893 19.0711C1.02369 15.1659 1.02369 8.83424 4.92893 4.92899ZM12.5561 4.03533C13.1005 4.12777 13.467 4.64411 13.3746 5.1886C13.3054 5.5958 13.2114 5.99673 13.0936 6.38933C12.9348 6.9183 12.3773 7.21842 11.8483 7.05966C11.3194 6.90091 11.0192 6.34339 11.178 5.81442C11.2723 5.50036 11.3475 5.17962 11.4028 4.85383C11.4952 4.30934 12.0116 3.94288 12.5561 4.03533ZM11.2304 8.25629C11.6661 8.59566 11.7442 9.22399 11.4049 9.6597C11.153 9.98307 10.8805 10.2919 10.5885 10.584C10.2966 10.8761 9.98792 11.1487 9.66468 11.4008C9.22915 11.7404 8.60078 11.6626 8.26118 11.2271C7.92157 10.7916 7.99934 10.1632 8.43487 9.82358C8.69345 9.62196 8.94036 9.40387 9.17397 9.17014C9.40757 8.93642 9.62554 8.68939 9.82702 8.43071C10.1664 7.995 10.7947 7.91691 11.2304 8.25629ZM7.06488 11.8456C7.22391 12.3745 6.92408 12.9322 6.39519 13.0912C6.00266 13.2092 5.60177 13.3035 5.19461 13.3728C4.65016 13.4655 4.13363 13.0993 4.04091 12.5549C3.94818 12.0105 4.31437 11.4939 4.85881 11.4012C5.18457 11.3457 5.50528 11.2703 5.81928 11.1759C6.34817 11.0169 6.90584 11.3167 7.06488 11.8456ZM19.9309 11.4469C19.8365 10.9027 19.3188 10.5382 18.7746 10.6326C18.369 10.7031 17.9697 10.7982 17.5787 10.9169C17.0502 11.0774 16.752 11.6359 16.9125 12.1644C17.073 12.6928 17.6315 12.9911 18.1599 12.8306C18.4727 12.7356 18.7922 12.6595 19.1167 12.6032C19.6609 12.5087 20.0254 11.991 19.9309 11.4469ZM15.7269 12.7807C15.3866 12.3457 14.7581 12.269 14.3231 12.6093C14.0013 12.8611 13.694 13.1333 13.4033 13.4248C13.1126 13.7164 12.8413 14.0245 12.5905 14.3471C12.2515 14.7831 12.3301 15.4113 12.7661 15.7503C13.2021 16.0893 13.8304 16.0107 14.1694 15.5747C14.37 15.3167 14.5871 15.0702 14.8196 14.8369C15.0522 14.6037 15.298 14.3859 15.5555 14.1845C15.9905 13.8442 16.0672 13.2157 15.7269 12.7807ZM12.1534 16.9378C11.6245 16.7789 11.0669 17.0788 10.9079 17.6077C10.7904 17.9991 10.6964 18.3987 10.6272 18.8045C10.5344 19.349 10.9005 19.8656 11.4449 19.9584C11.9894 20.0512 12.506 19.6851 12.5988 19.1407C12.6542 18.816 12.7293 18.4963 12.8233 18.1832C12.9823 17.6543 12.6823 17.0967 12.1534 16.9378Z" fill="black"/>
</svg>
