<svg width="24" height="24" viewBox="0 0 24 24" fill="none" xmlns="http://www.w3.org/2000/svg">
<path fill-rule="evenodd" clip-rule="evenodd" d="M10.8 4.39997C12.1185 3.41111 14 4.35188 14 5.99997V18C14 19.6481 12.1185 20.5888 10.8 19.6L6.71175 16.5338L4.29851 16.7751C2.53245 16.9517 1 15.5649 1 13.79V10.2099C1 8.43508 2.53245 7.04823 4.29851 7.22483L6.71175 7.46616L10.8 4.39997ZM19 12.0159C19.0028 11.4782 18.8611 10.9495 18.5896 10.4853C18.3181 10.0211 17.9268 9.63844 17.4567 9.37732C16.9739 9.10915 16.3651 9.28315 16.0969 9.76596C15.8288 10.2488 16.0028 10.8576 16.4856 11.1257C16.6423 11.2128 16.7727 11.3403 16.8632 11.4951C16.9537 11.6498 17.0009 11.826 17 12.0053C16.999 12.1845 16.9499 12.3602 16.8578 12.514C16.7656 12.6677 16.6338 12.7939 16.4762 12.8792C15.9906 13.1423 15.8101 13.7492 16.0731 14.2348C16.3361 14.7204 16.943 14.9009 17.4287 14.6379C17.9015 14.3818 18.2969 14.0033 18.5733 13.542C18.8497 13.0808 18.9971 12.5537 19 12.0159Z" fill="black"/>
</svg>
