<svg width="24" height="24" viewBox="0 0 24 24" fill="none" xmlns="http://www.w3.org/2000/svg">
<path fill-rule="evenodd" clip-rule="evenodd" d="M18.1213 2.70705C16.9498 1.53548 15.0503 1.53547 13.8787 2.70705L12.8879 3.69781L12.8786 3.70705L3.99997 12.5857L3.99238 12.5934L3.0572 13.5285L2.01006 20.8585C1.96555 21.1701 2.07034 21.4845 2.2929 21.707C2.51547 21.9296 2.82984 22.0344 3.14143 21.9899L10.4714 20.9427L11.4142 19.9999L20.2929 11.1213L21.2929 10.1213C22.4645 8.94969 22.4645 7.0502 21.2929 5.87862L18.1213 2.70705ZM4.17852 19.8214L4.70712 16.1213L7.87869 19.2928L4.17852 19.8214ZM16.7071 4.29289C16.3166 3.90237 15.6834 3.90237 15.2929 4.29289C14.9024 4.68342 14.9024 5.31658 15.2929 5.70711L18.2929 8.70711C18.6834 9.09763 19.3166 9.09763 19.7071 8.70711C20.0976 8.31658 20.0976 7.68342 19.7071 7.29289L16.7071 4.29289Z" fill="black"/>
</svg>
