<svg width="24" height="24" viewBox="0 0 24 24" fill="none" xmlns="http://www.w3.org/2000/svg">
<path fill-rule="evenodd" clip-rule="evenodd" d="M19.4106 4.30542C19.7175 4.24961 20 4.4854 20 4.79735V11.7578C19.285 11.2792 18.4251 11 17.5 11C15.0147 11 13 13.0147 13 15.5C13 17.9853 15.0147 20 17.5 20C19.6674 20 21.4769 18.4678 21.9043 16.4274C21.9657 16.2978 22 16.1529 22 16V15.5V4.79735C22 3.23759 20.5874 2.05866 19.0528 2.33768L11.0528 3.79222C9.86406 4.00835 9 5.04368 9 6.2519V13.7578C8.28495 13.2792 7.42507 13 6.5 13C4.01472 13 2 15.0147 2 17.5C2 19.9853 4.01472 22 6.5 22C8.66739 22 10.4769 20.4678 10.9043 18.4274C10.9657 18.2978 11 18.1529 11 18V17.5V6.2519C11 6.01025 11.1728 5.80319 11.4106 5.75996L19.4106 4.30542Z" fill="black"/>
</svg>
