<svg width="24" height="24" viewBox="0 0 24 24" fill="none" xmlns="http://www.w3.org/2000/svg">
<path fill-rule="evenodd" clip-rule="evenodd" d="M18.9445 1.67151C19.126 2.19314 18.8502 2.76309 18.3285 2.94453L12.4191 5H18.5C20.7091 5 22.5 6.79086 22.5 9V17C22.5 19.2091 20.7091 21 18.5 21H5.5C3.29086 21 1.5 19.2091 1.5 17V9C1.5 6.79086 3.29086 5 5.5 5H6.33116L17.6715 1.05553C18.1931 0.874095 18.7631 1.14988 18.9445 1.67151ZM12.5 13C12.5 11.8954 13.3954 11 14.5 11C15.6046 11 16.5 11.8954 16.5 13C16.5 14.1046 15.6046 15 14.5 15C13.3954 15 12.5 14.1046 12.5 13ZM14.5 9C12.2909 9 10.5 10.7909 10.5 13C10.5 15.2091 12.2909 17 14.5 17C16.7091 17 18.5 15.2091 18.5 13C18.5 10.7909 16.7091 9 14.5 9ZM6 10C5.44772 10 5 10.4477 5 11C5 11.5523 5.44772 12 6 12H8C8.55228 12 9 11.5523 9 11C9 10.4477 8.55228 10 8 10H6ZM5 15C5 14.4477 5.44772 14 6 14H8C8.55228 14 9 14.4477 9 15C9 15.5523 8.55228 16 8 16H6C5.44772 16 5 15.5523 5 15Z" fill="black"/>
</svg>
