<svg width="24" height="24" viewBox="0 0 24 24" fill="none" xmlns="http://www.w3.org/2000/svg">
<path fill-rule="evenodd" clip-rule="evenodd" d="M8.00005 5.5C6.7461 5.5 5.67158 6.39677 5.44726 7.6305L4.67351 11.8861C5.2317 11.6379 5.84977 11.5 6.50005 11.5C8.23071 11.5 9.73318 12.477 10.486 13.9095C10.9304 13.6492 11.4478 13.5 12.0001 13.5C12.5523 13.5 13.0697 13.6492 13.5141 13.9095C14.2669 12.477 15.7694 11.5 17.5001 11.5C18.1503 11.5 18.7684 11.6379 19.3266 11.8861L18.5528 7.6305C18.3285 6.39677 17.254 5.5 16.0001 5.5C15.4478 5.5 15.0001 5.05228 15.0001 4.5C15.0001 3.94772 15.4478 3.5 16.0001 3.5C18.2206 3.5 20.1234 5.08802 20.5206 7.27273L21.9839 15.3211C22.0049 15.4364 22.0052 15.5507 21.9874 15.6602C21.9958 15.7724 22.0001 15.8857 22.0001 16C22.0001 18.4853 19.9853 20.5 17.5001 20.5C15.1838 20.5 13.2762 18.75 13.0275 16.5H13.0001C13.0001 15.9477 12.5523 15.5 12.0001 15.5C11.4478 15.5 11.0001 15.9477 11.0001 16.5H10.9726C10.7239 18.75 8.81633 20.5 6.50005 20.5C4.01477 20.5 2.00005 18.4853 2.00005 16C2.00005 15.8857 2.00431 15.7724 2.01269 15.6602C1.99493 15.5507 1.99521 15.4364 2.01618 15.3211L3.47952 7.27273C3.87674 5.08802 5.77953 3.5 8.00005 3.5C8.55234 3.5 9.00005 3.94772 9.00005 4.5C9.00005 5.05228 8.55234 5.5 8.00005 5.5ZM6.50005 13.5C5.11934 13.5 4.00005 14.6193 4.00005 16C4.00005 17.3807 5.11934 18.5 6.50005 18.5C7.88076 18.5 9.00005 17.3807 9.00005 16C9.00005 14.6193 7.88076 13.5 6.50005 13.5ZM15.0001 16C15.0001 14.6193 16.1193 13.5 17.5001 13.5C18.8808 13.5 20.0001 14.6193 20.0001 16C20.0001 17.3807 18.8808 18.5 17.5001 18.5C16.1193 18.5 15.0001 17.3807 15.0001 16Z" fill="black"/>
</svg>
