<svg width="24" height="24" viewBox="0 0 24 24" fill="none" xmlns="http://www.w3.org/2000/svg">
<g clip-path="url(#clip0_933_5461)">
<path fill-rule="evenodd" clip-rule="evenodd" d="M8 2.69995C8 3.23249 8.41628 3.66781 8.94119 3.69825C8.9567 3.70202 8.99586 3.71365 9.048 3.74494C9.13787 3.79887 9.36991 3.97197 9.55132 4.51618C9.57027 4.57305 9.59385 4.62709 9.62148 4.67801C9.54263 4.92113 9.50003 5.18056 9.50003 5.44995C9.50003 5.67202 9.52898 5.88733 9.58332 6.09231L6.38607 4.40327C6.31459 4.36551 6.23975 4.33701 6.16322 4.31774C5.6475 4.11248 5.08567 4 4.49976 4C2.01447 4 -0.000244141 6.01472 -0.000244141 8.5C-0.000244141 10.9853 2.01447 13 4.49976 13C5.12742 13 5.72744 12.8709 6.27275 12.637C6.30747 12.6238 6.34166 12.6087 6.37513 12.5915C6.52318 12.5236 6.66684 12.4479 6.80559 12.365L8.44849 11.5H15.5517L17.1946 12.365C17.3334 12.4479 17.477 12.5236 17.6251 12.5915C17.6585 12.6087 17.6927 12.6238 17.7274 12.637C18.2727 12.8709 18.8728 13 19.5004 13C21.9857 13 24.0004 10.9853 24.0004 8.5C24.0004 6.01472 21.9857 4 19.5004 4C18.9145 4 18.3527 4.11248 17.837 4.31774C17.7604 4.33701 17.6856 4.36551 17.6141 4.40327L14.4167 6.09239C14.4711 5.88739 14.5 5.67205 14.5 5.44995C14.5 5.18056 14.4574 4.92113 14.3786 4.67801C14.4062 4.62709 14.4298 4.57305 14.4487 4.51618C14.6301 3.97197 14.8622 3.79887 14.952 3.74494C15.0042 3.71365 15.0434 3.70202 15.0589 3.69825C15.5838 3.66781 16.0001 3.23249 16.0001 2.69995C16.0001 2.14767 15.5523 1.69995 15.0001 1.69995V2.69995C15.0001 1.69995 14.9993 1.69995 14.9986 1.69995L14.9971 1.69996L14.994 1.69997L14.9875 1.70003L14.9732 1.70028C14.9631 1.70053 14.9519 1.70092 14.9396 1.70152C14.915 1.70273 14.8861 1.70479 14.8532 1.70819C14.7876 1.71498 14.7056 1.7272 14.6111 1.749C14.4219 1.79266 14.181 1.87518 13.9231 2.02996C13.5506 2.25345 13.1864 2.60088 12.892 3.11377C12.615 3.00793 12.3143 2.94995 12 2.94995C11.6858 2.94995 11.3851 3.00793 11.108 3.11377C10.8136 2.60088 10.4495 2.25345 10.077 2.02996C9.81904 1.87518 9.57812 1.79266 9.38892 1.749C9.29446 1.7272 9.21247 1.71498 9.14684 1.70819C9.11398 1.70479 9.08504 1.70273 9.06047 1.70152C9.04818 1.70092 9.03697 1.70053 9.02688 1.70028L9.01258 1.70003L9.00608 1.69997L9.00298 1.69996L9.00148 1.69995C9.00074 1.69995 9 1.69995 9 2.69995V1.69995C8.44771 1.69995 8 2.14767 8 2.69995ZM7.00073 15C7.00073 14.4906 7.05608 13.9863 7.16175 13.4993C7.17442 13.4998 7.18716 13.5 7.19995 13.5L16.8007 13.5C16.8138 13.5 16.8268 13.4997 16.8397 13.4993C16.9454 13.9863 17.0007 14.4906 17.0007 15C17.0007 15.3397 16.9761 15.6771 16.9284 16.0086C16.8853 16.0029 16.8414 16 16.7968 16L7.19995 16C7.15694 16 7.11456 16.0027 7.07298 16.008C7.02531 15.6766 7.00073 15.3395 7.00073 15ZM11.25 20.9358C9.657 20.6587 8.39461 19.5115 7.67231 18H16.3292C15.6066 19.512 14.3437 20.6594 12.75 20.936V22.3999C12.75 22.8141 12.4142 23.1499 12 23.1499C11.5858 23.1499 11.25 22.8141 11.25 22.3999V20.9358ZM4.49976 6C4.86247 6 5.20462 6.07662 5.51308 6.21361C5.5373 6.22437 5.56182 6.23411 5.58657 6.24284L9.8564 8.4985L5.84844 10.6086C5.83036 10.6182 5.81258 10.6282 5.79513 10.6388C5.70831 10.6916 5.61813 10.7391 5.52501 10.781L5.51905 10.7838L5.51308 10.7864C5.20462 10.9234 4.86247 11 4.49976 11C3.11904 11 1.99976 9.88071 1.99976 8.5C1.99976 7.11929 3.11904 6 4.49976 6ZM19.5004 6C19.1377 6 18.7956 6.07662 18.4871 6.21361C18.4629 6.22437 18.4384 6.23411 18.4136 6.24284L14.1438 8.4985L18.1518 10.6086C18.1698 10.6182 18.1876 10.6282 18.2051 10.6388C18.2919 10.6916 18.3821 10.7391 18.4752 10.781L18.4811 10.7838L18.4871 10.7864C18.7956 10.9234 19.1377 11 19.5004 11C20.8811 11 22.0004 9.88071 22.0004 8.5C22.0004 7.11929 20.8811 6 19.5004 6Z" fill="black"/>
</g>
<defs>
<clipPath id="clip0_933_5461">
<rect width="24" height="24" fill="white"/>
</clipPath>
</defs>
</svg>
