<svg width="24" height="24" viewBox="0 0 24 24" fill="none" xmlns="http://www.w3.org/2000/svg">
<path fill-rule="evenodd" clip-rule="evenodd" d="M14 5.99997C14 4.35188 12.1185 3.41111 10.8 4.39997L6.71175 7.46616L4.29851 7.22483C2.53245 7.04823 1 8.43508 1 10.2099V13.79C1 15.5649 2.53245 16.9517 4.29851 16.7751L6.71175 16.5338L10.8 19.6C12.1185 20.5888 14 19.6481 14 18V5.99997ZM22.7071 8.79286C23.0976 9.18339 23.0976 9.81655 22.7071 10.2071L20.9142 12L22.7071 13.7928C23.0976 14.1834 23.0976 14.8165 22.7071 15.207C22.3166 15.5976 21.6834 15.5976 21.2929 15.207L19.5 13.4142L17.7071 15.2071C17.3166 15.5976 16.6834 15.5976 16.2929 15.2071C15.9024 14.8166 15.9024 14.1834 16.2929 13.7929L18.0858 12L16.2929 10.207C15.9024 9.81652 15.9024 9.18336 16.2929 8.79283C16.6834 8.40231 17.3166 8.40231 17.7071 8.79283L19.5 10.5857L21.2929 8.79286C21.6834 8.40234 22.3166 8.40234 22.7071 8.79286Z" fill="black"/>
</svg>
