<svg width="24" height="24" viewBox="0 0 24 24" fill="none" xmlns="http://www.w3.org/2000/svg">
<path fill-rule="evenodd" clip-rule="evenodd" d="M10.8 4.39997C12.1185 3.41111 14 4.35188 14 5.99997V18C14 19.6481 12.1185 20.5888 10.8 19.6L6.71175 16.5338L4.29851 16.7751C2.53245 16.9517 1 15.5649 1 13.79V10.2099C1 8.43508 2.53245 7.04823 4.29851 7.22483L6.71175 7.46616L10.8 4.39997ZM20.15 10.4275V8.47096L21.4775 9.62147L20.15 10.4275ZM18.35 7.59498V10.3739L16.4671 9.23069C16.0422 8.97272 15.4886 9.10804 15.2307 9.53291C14.9727 9.95779 15.108 10.5113 15.5329 10.7693L17.5599 12L15.5329 13.2307C15.108 13.4886 14.9727 14.0422 15.2307 14.4671C15.4886 14.892 16.0422 15.0273 16.4671 14.7693L18.35 13.6261V16.405C18.35 17.6047 19.7603 18.2487 20.6669 17.463L23.0711 15.3794C23.7884 14.7576 23.6922 13.6174 22.8807 13.1247L21.0283 12L22.8807 10.8753C23.6922 10.3826 23.7884 9.24234 23.0711 8.62063L20.6669 6.53701C19.7603 5.75129 18.35 6.39528 18.35 7.59498ZM20.15 15.529V13.5725L21.4775 14.3785L20.15 15.529Z" fill="black"/>
</svg>
