<svg width="24" height="24" viewBox="0 0 24 24" fill="none" xmlns="http://www.w3.org/2000/svg">
<path fill-rule="evenodd" clip-rule="evenodd" d="M5.16865 6.06218C4.77812 5.67166 4.14496 5.67166 3.75443 6.06218L0.792893 9.02372C0.402369 9.41424 0.402369 10.0474 0.792893 10.4379L3.75443 13.3995C4.14496 13.79 4.77812 13.79 5.16865 13.3995L8.13018 10.4379C8.16722 10.4009 8.20075 10.3617 8.23076 10.3207C8.26078 10.3617 8.29431 10.4009 8.33135 10.4379L11.2929 13.3995C11.3299 13.4365 11.3691 13.47 11.4101 13.5C11.3691 13.53 11.3299 13.5635 11.2929 13.6005L8.33135 16.562C7.94082 16.9526 7.94082 17.5857 8.33135 17.9763L11.2929 20.9378C11.6834 21.3283 12.3166 21.3283 12.7071 20.9378L15.6686 17.9763C16.0592 17.5857 16.0592 16.9526 15.6686 16.562L12.7071 13.6005C12.6701 13.5635 12.6309 13.53 12.5899 13.5C12.6309 13.47 12.6701 13.4365 12.7071 13.3995L15.6686 10.4379C15.7057 10.4009 15.7392 10.3617 15.7692 10.3207C15.7992 10.3617 15.8328 10.4009 15.8698 10.4379L18.8313 13.3995C19.2219 13.79 19.855 13.79 20.2456 13.3995L23.2071 10.4379C23.5976 10.0474 23.5976 9.41424 23.2071 9.02372L20.2456 6.06218C19.855 5.67166 19.2219 5.67166 18.8313 6.06218L15.8698 9.02372C15.8328 9.06076 15.7992 9.09998 15.7692 9.14098C15.7392 9.09998 15.7057 9.06076 15.6686 9.02372L12.7071 6.06218C12.3166 5.67166 11.6834 5.67166 11.2929 6.06218L8.33135 9.02372C8.29431 9.06076 8.26078 9.09998 8.23076 9.14097C8.20075 9.09998 8.16722 9.06076 8.13018 9.02372L5.16865 6.06218Z" fill="black"/>
</svg>
