<svg width="24" height="24" viewBox="0 0 24 24" fill="none" xmlns="http://www.w3.org/2000/svg">
<path fill-rule="evenodd" clip-rule="evenodd" d="M8.00003 2C8.55231 2 9.00003 2.44772 9.00003 3L9.00003 4L11 4L13 4C13.5523 4 14 4.44772 14 5C14 5.55228 13.5523 6 13 6H11.9006C11.8878 6.07765 11.8733 6.15907 11.8569 6.24397C11.7175 6.96711 11.4405 7.95183 10.8886 9.02114C10.5188 9.73765 10.0296 10.4839 9.38569 11.2101C9.80912 11.5024 10.3178 11.799 10.9378 12.1009C11.4344 12.3427 11.6409 12.9413 11.3991 13.4378C11.1573 13.9344 10.5588 14.1409 10.0622 13.8991C9.20224 13.4803 8.49413 13.0517 7.90144 12.6051C6.72639 13.5283 5.22163 14.3534 3.2983 14.9545C2.77115 15.1192 2.21028 14.8254 2.04554 14.2983C1.88081 13.7711 2.1746 13.2103 2.70175 13.0455C4.25966 12.5587 5.47971 11.9156 6.43676 11.2071C5.82073 10.4486 5.43 9.67224 5.08769 8.90942C4.86157 8.40554 5.08674 7.81377 5.59062 7.58766C6.09449 7.36154 6.68626 7.58671 6.91238 8.09059C7.21056 8.75504 7.50213 9.32274 7.91555 9.85363C8.43579 9.26175 8.82237 8.66386 9.1114 8.10386C9.52544 7.30165 9.74731 6.56062 9.86589 6L3.00003 6C2.44775 6 2.00003 5.55228 2.00003 5C2.00003 4.44771 2.44775 4 3.00003 4L7.00003 4V3C7.00003 2.44772 7.44774 2 8.00003 2ZM16 9C16.3922 9 16.7481 9.2292 16.9104 9.5862L21.9104 20.5862C22.1389 21.089 21.9166 21.6818 21.4138 21.9104C20.9111 22.1389 20.3182 21.9166 20.0897 21.4138L18.9925 19H13.0076L11.9104 21.4138C11.6819 21.9166 11.089 22.1389 10.5862 21.9104C10.0834 21.6818 9.86113 21.089 10.0897 20.5862L15.0897 9.5862C15.2519 9.2292 15.6079 9 16 9ZM13.9167 17L18.0834 17L16 12.4166L13.9167 17Z" fill="black"/>
</svg>
