<svg width="24" height="24" viewBox="0 0 24 24" fill="none" xmlns="http://www.w3.org/2000/svg">
<path fill-rule="evenodd" clip-rule="evenodd" d="M9.51448 2.14254C9.98806 2.42668 10.1416 3.04094 9.85748 3.51452L7.76618 7.00003H16.2338L14.1425 3.51452C13.8583 3.04094 14.0119 2.42668 14.4855 2.14254C14.9591 1.85839 15.5733 2.01195 15.8575 2.48553L18.5662 7.00003H19.6688C21.5074 7.00003 22.9135 8.63893 22.6339 10.4562L21.3797 18.6083C21.0795 20.5596 19.4005 22 17.4262 22H6.57375C4.59946 22 2.92046 20.5596 2.62026 18.6083L1.3661 10.4562C1.08651 8.63892 2.49256 7.00003 4.33121 7.00003H5.4338L8.1425 2.48553C8.42664 2.01195 9.0409 1.85839 9.51448 2.14254ZM8.99998 12C8.99998 11.4477 8.55227 11 7.99998 11C7.4477 11 6.99998 11.4477 6.99998 12V17C6.99998 17.5523 7.4477 18 7.99998 18C8.55227 18 8.99998 17.5523 8.99998 17V12ZM13 12C13 11.4477 12.5523 11 12 11C11.4477 11 11 11.4477 11 12V17C11 17.5523 11.4477 18 12 18C12.5523 18 13 17.5523 13 17V12ZM16 11C16.5523 11 17 11.4477 17 12V17C17 17.5523 16.5523 18 16 18C15.4477 18 15 17.5523 15 17V12C15 11.4477 15.4477 11 16 11Z" fill="black"/>
</svg>
