<svg width="24" height="24" viewBox="0 0 24 24" fill="none" xmlns="http://www.w3.org/2000/svg">
<path fill-rule="evenodd" clip-rule="evenodd" d="M18.3124 4.42498C17.6768 5.34022 16.3232 5.34022 15.6876 4.42498L15.6752 4.40711C15.3424 3.92786 15.2841 3.2869 15.5786 2.748C15.6658 2.58857 15.7722 2.40165 15.8734 2.24786C16.0196 2.02546 16.2279 1.76187 16.3347 1.62923C16.6882 1.19008 17.3591 1.21318 17.6846 1.66704C17.7887 1.81224 17.9887 2.09402 18.1302 2.31337C18.2096 2.43643 18.2984 2.58282 18.3779 2.71666C18.6984 3.25655 18.6606 3.92362 18.3124 4.42498ZM12 6.99996C12.5523 6.99996 13 7.44768 13 7.99996V9.99996H16V7.99996C16 7.44768 16.4477 6.99996 17 6.99996C17.5523 6.99996 18 7.44768 18 7.99996V9.99996H20C21.1046 9.99996 22 10.8954 22 12V14.7819C21.4657 15.0938 20.9092 15.3884 20.3873 15.6121C19.7634 15.8795 19.2913 16 19 16C18.4822 16 17.9919 15.6464 17.5536 15.0547C17.3488 14.7783 17.1911 14.4957 17.0841 14.2791C17.0313 14.1721 16.9924 14.0845 16.9678 14.0262C16.9555 13.9971 16.9468 13.9756 16.9418 13.9629L16.9375 13.9521L16.9367 13.9499C16.8004 13.5851 16.4646 13.3325 16.0761 13.3029C15.6877 13.2732 15.3176 13.4718 15.1274 13.8115L15.1264 13.8132L15.1199 13.8244C15.1125 13.8372 15.0996 13.8588 15.0814 13.888C15.045 13.9466 14.9879 14.0349 14.9111 14.143C14.7564 14.3609 14.5284 14.6502 14.2369 14.9364C13.6377 15.5247 12.8762 16 12 16C11.1238 16 10.3623 15.5247 9.76309 14.9364C9.47156 14.6502 9.24357 14.3609 9.08887 14.143C9.01212 14.0349 8.95499 13.9466 8.9186 13.888C8.90043 13.8588 8.88755 13.8372 8.88007 13.8244L8.87328 13.8127L8.87261 13.8116C8.68246 13.4718 8.31229 13.2732 7.92388 13.3029C7.53508 13.3326 7.19907 13.5855 7.06295 13.9508L7.05823 13.9629C7.0532 13.9756 7.04453 13.9971 7.03223 14.0262C7.00755 14.0845 6.96871 14.1721 6.91587 14.2791C6.80891 14.4957 6.65121 14.7783 6.44644 15.0547C6.00814 15.6464 5.51778 16 5 16C4.70872 16 4.23662 15.8795 3.61267 15.6121C3.09083 15.3884 2.53425 15.0938 2 14.7819V12C2 10.8954 2.89543 9.99996 4 9.99996H6V7.99996C6 7.44768 6.44772 6.99996 7 6.99996C7.55228 6.99996 8 7.44768 8 7.99996V9.99996H11V7.99996C11 7.44768 11.4477 6.99996 12 6.99996ZM2 17.0619C2.27358 17.2013 2.55044 17.3328 2.82483 17.4504C3.51338 17.7455 4.29128 18 5 18C6.48222 18 7.49186 17.0035 8.05356 16.2452C8.08166 16.2073 8.10905 16.1694 8.13574 16.1316C8.2074 16.2083 8.2828 16.2859 8.36191 16.3635C9.1377 17.1252 10.3762 18 12 18C13.6238 18 14.8623 17.1252 15.6381 16.3635C15.7172 16.2859 15.7926 16.2083 15.8643 16.1316C15.891 16.1694 15.9183 16.2073 15.9464 16.2452C16.5081 17.0035 17.5178 18 19 18C19.7087 18 20.4866 17.7455 21.1752 17.4504C21.4496 17.3328 21.7264 17.2013 22 17.0619V20C22 21.1045 21.1046 22 20 22H4C2.89543 22 2 21.1045 2 20V17.0619ZM7.06246 13.9521C7.06263 13.9516 7.06279 13.9512 7.06295 13.9508L7.06296 13.9507L7.06246 13.9521ZM7.06246 13.9521C7.06236 13.9524 7.06225 13.9527 8 14.3L7.06246 13.9521ZM13.3124 4.42498C12.6768 5.34022 11.3232 5.34022 10.6876 4.42498L10.6752 4.40711C10.3424 3.92786 10.2841 3.2869 10.5786 2.748C10.6658 2.58857 10.7722 2.40165 10.8734 2.24786C11.0196 2.02546 11.2279 1.76187 11.3347 1.62923C11.6882 1.19008 12.3591 1.21318 12.6846 1.66704C12.7887 1.81224 12.9887 2.09402 13.1302 2.31337C13.2096 2.43643 13.2984 2.58282 13.3779 2.71666C13.6984 3.25655 13.6606 3.92362 13.3124 4.42498ZM8.31239 4.42498C7.67681 5.34022 6.32318 5.34022 5.6876 4.42498L5.67519 4.40711C5.34238 3.92786 5.28407 3.2869 5.57863 2.748C5.66577 2.58857 5.77223 2.40165 5.87336 2.24786C6.01961 2.02546 6.22786 1.76187 6.33466 1.62923C6.68824 1.19008 7.35912 1.21318 7.68461 1.66704C7.78874 1.81224 7.98871 2.09402 8.13023 2.31337C8.20961 2.43643 8.29839 2.58282 8.37785 2.71666C8.69837 3.25655 8.66057 3.92362 8.31239 4.42498Z" fill="black"/>
</svg>
