<svg width="24" height="24" viewBox="0 0 24 24" fill="none" xmlns="http://www.w3.org/2000/svg">
<path fill-rule="evenodd" clip-rule="evenodd" d="M9.39467 2.43995C10.8329 1.00171 13.1648 1.00171 14.603 2.43995L21.5589 9.39583C22.9971 10.8341 22.9971 13.1659 21.5589 14.6042L14.603 21.56C13.1648 22.9983 10.8329 22.9983 9.39467 21.56L2.43879 14.6042C1.00055 13.1659 1.00055 10.8341 2.43879 9.39583L9.39467 2.43995ZM12.0007 7C12.553 7 13.0007 7.44772 13.0007 8V11C13.0007 11.5523 12.553 12 12.0007 12C11.4484 12 11.0007 11.5523 11.0007 11V8C11.0007 7.44772 11.4484 7 12.0007 7ZM13.5007 15C13.5007 15.8284 12.8292 16.5 12.0007 16.5C11.1723 16.5 10.5007 15.8284 10.5007 15C10.5007 14.1716 11.1723 13.5 12.0007 13.5C12.8292 13.5 13.5007 14.1716 13.5007 15Z" fill="black"/>
</svg>
