<svg width="24" height="24" viewBox="0 0 24 24" fill="none" xmlns="http://www.w3.org/2000/svg">
<path fill-rule="evenodd" clip-rule="evenodd" d="M4.87101 4.5C4.87101 3.39543 5.76644 2.5 6.87101 2.5H13C14.1046 2.5 15 3.39543 15 4.5V11.677C15 13.826 14.1607 15.8899 12.6609 17.4289L9.92509 20.2362C7.94341 22.2697 4.69441 22.3298 2.63879 20.3712C0.426782 18.2635 0.508982 14.7094 2.81607 12.7062L4.71981 11.0533C4.81585 10.9699 4.87101 10.8489 4.87101 10.7217V4.5ZM16.5001 3.5C16.5001 2.94772 16.9478 2.5 17.5001 2.5H20.0001C21.1047 2.5 22.0001 3.39543 22.0001 4.5V11.3685C22.0001 13.7153 21.0835 15.9692 19.4456 17.6499L16.9744 20.1857C16.9456 20.2152 16.9151 20.2429 16.883 20.2686L16.2582 19.4878C16.883 20.2686 16.8832 20.2684 16.883 20.2686L16.882 20.2694L16.8809 20.2703L16.8782 20.2724L16.8711 20.278L16.85 20.2944C16.8329 20.3076 16.8098 20.3251 16.7809 20.3463C16.7233 20.3887 16.6426 20.4461 16.5413 20.5135C16.3393 20.6478 16.0515 20.824 15.6981 20.9989C15.0032 21.3428 13.9923 21.7128 12.8524 21.6916C12.3003 21.6813 11.861 21.2253 11.8713 20.6731C11.8816 20.1209 12.3376 19.6816 12.8897 19.6919C13.5896 19.705 14.2723 19.473 14.811 19.2064C15.0744 19.076 15.2884 18.9448 15.434 18.848C15.5056 18.8004 15.5597 18.7618 15.594 18.7366L18.0133 16.254C19.2872 14.9468 20.0001 13.1938 20.0001 11.3685V8.5H17.5001C16.9478 8.5 16.5001 8.05228 16.5001 7.5C16.5001 6.94772 16.9478 6.5 17.5001 6.5H20.0001V4.5H17.5001C16.9478 4.5 16.5001 4.05228 16.5001 3.5ZM8 4.5C7.44772 4.5 7 4.94772 7 5.5C7 6.05228 7.44772 6.5 8 6.5L12 6.5C12.5523 6.5 13 6.05229 13 5.5C13 4.94772 12.5523 4.5 12 4.5L8 4.5Z" fill="black"/>
</svg>
