<svg width="24" height="24" viewBox="0 0 24 24" fill="none" xmlns="http://www.w3.org/2000/svg">
<path fill-rule="evenodd" clip-rule="evenodd" d="M14.5981 3.5C13.4434 1.5 10.5566 1.5 9.40192 3.5L1.60769 17C0.452993 19 1.89637 21.5 4.20577 21.5H19.7942C22.1036 21.5 23.547 19 22.3923 17L14.5981 3.5ZM11 12C11 12.5523 11.4477 13 12 13C12.5523 13 13 12.5523 13 12V9C13 8.44772 12.5523 8 12 8C11.4477 8 11 8.44772 11 9V12ZM12 17.5C12.8284 17.5 13.5 16.8284 13.5 16C13.5 15.1716 12.8284 14.5 12 14.5C11.1716 14.5 10.5 15.1716 10.5 16C10.5 16.8284 11.1716 17.5 12 17.5Z" fill="black"/>
</svg>
