<svg width="24" height="24" viewBox="0 0 24 24" fill="none" xmlns="http://www.w3.org/2000/svg">
<path fill-rule="evenodd" clip-rule="evenodd" d="M1.45475 8.52392C1.83822 5.6479 4.29151 3.5 7.19299 3.5H16.8073C19.7087 3.5 22.162 5.6479 22.5455 8.52392L23.5161 15.8038C23.8477 18.2905 21.9132 20.5 19.4045 20.5C17.534 20.5 15.8949 19.248 15.4027 17.4434L15.0354 16.0964C14.8588 15.4491 14.2708 15 13.5998 15H10.4004C9.72941 15 9.14143 15.4491 8.96488 16.0965L8.59753 17.4434C8.10536 19.248 6.46624 20.5 4.5957 20.5C2.08704 20.5 0.152542 18.2905 0.484096 15.8038L1.45475 8.52392ZM7 7C6.44772 7 6 7.44772 6 8V9H5C4.44772 9 4 9.44771 4 10C4 10.5523 4.44772 11 5 11H6V12C6 12.5523 6.44772 13 7 13C7.55228 13 8 12.5523 8 12V11H9C9.55228 11 10 10.5523 10 10C10 9.44772 9.55228 9 9 9H8V8C8 7.44772 7.55228 7 7 7ZM17 9C16.4477 9 16 9.44772 16 10C16 10.5523 16.4477 11 17 11C17.5523 11 18 10.5523 18 10C18 9.44772 17.5523 9 17 9ZM14 10C14 8.34315 15.3431 7 17 7C18.6569 7 20 8.34315 20 10C20 11.6569 18.6569 13 17 13C15.3431 13 14 11.6569 14 10Z" fill="black"/>
</svg>
