<svg width="24" height="24" viewBox="0 0 24 24" fill="none" xmlns="http://www.w3.org/2000/svg">
<path fill-rule="evenodd" clip-rule="evenodd" d="M10.4701 2.24253C10.6041 1.70673 10.2783 1.1638 9.74254 1.02985C9.20674 0.895901 8.66381 1.22166 8.52986 1.75746C8.36942 2.39922 8.1789 2.6534 7.92098 2.9975C7.86668 3.06995 7.80939 3.14638 7.74877 3.23125C7.55283 3.50557 7.34997 3.83877 7.20685 4.31217C7.06831 4.77041 7 5.31194 7 5.99999C7 6.55228 7.44772 6.99999 8 6.99999C8.55228 6.99999 9 6.55228 9 5.99999C9 5.43804 9.05669 5.10458 9.12127 4.89094C9.18128 4.69247 9.25967 4.55692 9.37623 4.39373C9.4152 4.33918 9.45884 4.28157 9.50591 4.21942C9.79282 3.84064 10.2075 3.29324 10.4701 2.24253ZM13.7425 1.02985C14.2783 1.1638 14.6041 1.70673 14.4701 2.24253C14.2075 3.29324 13.7928 3.84064 13.5059 4.21942L13.5059 4.21943L13.5058 4.21962L13.5057 4.21969C13.4587 4.28174 13.4151 4.33926 13.3762 4.39373C13.2597 4.55692 13.1813 4.69247 13.1213 4.89094C13.0567 5.10458 13 5.43804 13 5.99999C13 6.55228 12.5523 6.99999 12 6.99999C11.4477 6.99999 11 6.55228 11 5.99999C11 5.31194 11.0683 4.77041 11.2069 4.31217C11.35 3.83877 11.5528 3.50557 11.7488 3.23125C11.8094 3.14639 11.8667 3.06996 11.921 2.99753L11.921 2.9975C12.1789 2.6534 12.3694 2.39922 12.5299 1.75746C12.6638 1.22166 13.2067 0.895901 13.7425 1.02985ZM12.9986 9C12.9991 9 12.9995 9 13 9L16 9L18.75 9C20.8211 9 22.5 10.6789 22.5 12.75C22.5 14.8211 20.8211 16.5 18.75 16.5H17.6016C16.5518 19.6939 13.5452 22 10 22C5.58172 22 2 18.4183 2 14V11C2 9.89543 2.89543 9 4 9H12.9986ZM17.9846 14.5H18.75C19.7165 14.5 20.5 13.7165 20.5 12.75C20.5 11.7835 19.7165 11 18.75 11L18 11V14C18 14.1679 17.9948 14.3346 17.9846 14.5Z" fill="black"/>
</svg>
