<svg width="24" height="24" viewBox="0 0 24 24" fill="none" xmlns="http://www.w3.org/2000/svg">
<path fill-rule="evenodd" clip-rule="evenodd" d="M14.4944 2.84468C15.534 1.59725 17.4082 1.47984 18.5953 2.58778C19.5636 3.49154 19.8119 5.00833 18.9827 6.15446C18.6003 6.68304 18.1032 7.31603 17.599 7.78666C16.8179 8.51565 15.5873 9.25279 14.9586 9.61177C14.3636 9.9515 13.6364 9.9515 13.0414 9.61177C12.4127 9.25279 11.1821 8.51565 10.401 7.78666C9.89677 7.31603 9.3997 6.68303 9.01731 6.15446C8.18814 5.00833 8.43637 3.49154 9.4047 2.58778C10.5918 1.47983 12.466 1.59725 13.5056 2.84468L14 3.438L14.4944 2.84468ZM8.30534 11.7306C7.53053 11.2325 6.53038 11.257 5.78085 11.7924L0.75 15.3859V22.6941L5.93314 19.6706L10.0913 21.2699C11.501 21.8121 13.0925 21.5654 14.2719 20.6219L22.6426 13.9253C23.3012 13.3985 23.3556 12.4161 22.7592 11.8198C22.2722 11.3328 21.5053 11.2671 20.9426 11.6643L14.0386 16.5378C13.2423 17.6174 11.8359 18.0691 10.5526 17.6413L7.76283 16.7114C7.36987 16.5804 7.1575 16.1557 7.28849 15.7627C7.41947 15.3698 7.84421 15.1574 8.23717 15.2884L11.0269 16.2183C11.6831 16.437 12.4013 16.2117 12.8162 15.6676C12.9489 15.1372 12.7305 14.5754 12.2644 14.2758L8.30534 11.7306Z" fill="black"/>
</svg>
