<svg width="24" height="24" viewBox="0 0 24 24" fill="none" xmlns="http://www.w3.org/2000/svg">
<path fill-rule="evenodd" clip-rule="evenodd" d="M14.1342 2.98748C12.9597 1.79863 11.0403 1.7986 9.8658 2.98743L3.54012 9.39041C3.47448 9.45335 3.41055 9.51806 3.34841 9.58447L3.13822 9.79723C3.05667 9.87978 2.99168 9.97409 2.94418 10.0754C2.35041 10.8978 2 11.9091 2 13C2 15.7615 4.23858 18 7 18C8.15924 18 9.22584 17.6053 10.0732 16.9441L8.1221 20.5212C7.9531 20.831 7.95994 21.207 8.1401 21.5105C8.32026 21.814 8.64706 22 9 22H15C15.3529 22 15.6797 21.814 15.8599 21.5105C16.0401 21.207 16.0469 20.831 15.8779 20.5212L13.9268 16.9441C14.7742 17.6053 15.8408 18 17 18C19.7614 18 22 15.7615 22 13C22 11.9085 21.6492 10.8965 21.0547 10.0739C21.0073 9.97314 20.9425 9.87937 20.8614 9.79724L20.6582 9.5915C20.5918 9.52033 20.5234 9.45109 20.4531 9.38389L14.1342 2.98748Z" fill="black"/>
</svg>
