<svg width="24" height="24" viewBox="0 0 24 24" fill="none" xmlns="http://www.w3.org/2000/svg">
<path fill-rule="evenodd" clip-rule="evenodd" d="M10.2071 5.2072C9.81658 5.59772 9.18342 5.59772 8.79289 5.2072C8.40237 4.81668 8.40237 4.18351 8.79289 3.79299L10.5858 2.00009C11.3668 1.21904 12.6332 1.21904 13.4142 2.00009L15.2071 3.79299C15.5976 4.18351 15.5976 4.81668 15.2071 5.2072C14.8166 5.59772 14.1834 5.59772 13.7929 5.2072L12 3.41431L10.2071 5.2072ZM4 7.50009C2.34315 7.50009 1 8.84324 1 10.5001V18.5001C1 20.1569 2.34315 21.5001 4 21.5001H20C21.6569 21.5001 23 20.1569 23 18.5001V10.5001C23 8.84324 21.6569 7.50009 20 7.50009H4ZM5.25 13.7501C6.07843 13.7501 6.75 13.0785 6.75 12.2501C6.75 11.4217 6.07843 10.7501 5.25 10.7501C4.42157 10.7501 3.75 11.4217 3.75 12.2501C3.75 13.0785 4.42157 13.7501 5.25 13.7501ZM18.75 13.7501C19.5784 13.7501 20.25 13.0785 20.25 12.2501C20.25 11.4217 19.5784 10.7501 18.75 10.7501C17.9216 10.7501 17.25 11.4217 17.25 12.2501C17.25 13.0785 17.9216 13.7501 18.75 13.7501ZM11.25 12.2501C11.25 13.0785 10.5784 13.7501 9.75 13.7501C8.92157 13.7501 8.25 13.0785 8.25 12.2501C8.25 11.4217 8.92157 10.7501 9.75 10.7501C10.5784 10.7501 11.25 11.4217 11.25 12.2501ZM14.25 13.7501C15.0784 13.7501 15.75 13.0785 15.75 12.2501C15.75 11.4217 15.0784 10.7501 14.25 10.7501C13.4216 10.7501 12.75 11.4217 12.75 12.2501C12.75 13.0785 13.4216 13.7501 14.25 13.7501ZM20.25 16.7501C20.25 17.5785 19.5784 18.2501 18.75 18.2501C17.9216 18.2501 17.25 17.5785 17.25 16.7501C17.25 15.9217 17.9216 15.2501 18.75 15.2501C19.5784 15.2501 20.25 15.9217 20.25 16.7501ZM5.25 18.2501C6.07843 18.2501 6.75 17.5785 6.75 16.7501C6.75 15.9217 6.07843 15.2501 5.25 15.2501C4.42157 15.2501 3.75 15.9217 3.75 16.7501C3.75 17.5785 4.42157 18.2501 5.25 18.2501ZM9.5 15.7501C8.94772 15.7501 8.5 16.1978 8.5 16.7501C8.5 17.3024 8.94772 17.7501 9.5 17.7501H14.5C15.0523 17.7501 15.5 17.3024 15.5 16.7501C15.5 16.1978 15.0523 15.7501 14.5 15.7501H9.5Z" fill="black"/>
</svg>
