<svg width="24" height="24" viewBox="0 0 24 24" fill="none" xmlns="http://www.w3.org/2000/svg">
<path fill-rule="evenodd" clip-rule="evenodd" d="M17.1961 1.51937C17.7377 1.62768 18.0889 2.1545 17.9806 2.69606L17.8402 3.39804C17.535 4.92394 16.1138 5.96319 14.5672 5.79134L14.1104 5.74059C13.5181 5.67478 13 6.13847 13 6.73448V7.99995L20 7.99995C21.6569 7.99995 23 9.3431 23 11V19C23 20.6568 21.6569 22 20 22H4C2.34315 22 1 20.6568 1 19V11C1 9.3431 2.34315 7.99995 4 7.99995L11 7.99995V6.73448C11 4.94644 12.5542 3.55537 14.3313 3.75283L14.788 3.80357C15.3035 3.86086 15.7773 3.51444 15.879 3.00581L16.0194 2.30383C16.1277 1.76227 16.6546 1.41106 17.1961 1.51937ZM6.75 12.75C6.75 13.5784 6.07843 14.25 5.25 14.25C4.42157 14.25 3.75 13.5784 3.75 12.75C3.75 11.9215 4.42157 11.25 5.25 11.25C6.07843 11.25 6.75 11.9215 6.75 12.75ZM20.25 12.75C20.25 13.5784 19.5784 14.25 18.75 14.25C17.9216 14.25 17.25 13.5784 17.25 12.75C17.25 11.9215 17.9216 11.25 18.75 11.25C19.5784 11.25 20.25 11.9215 20.25 12.75ZM9.75 14.25C10.5784 14.25 11.25 13.5784 11.25 12.75C11.25 11.9215 10.5784 11.25 9.75 11.25C8.92157 11.25 8.25 11.9215 8.25 12.75C8.25 13.5784 8.92157 14.25 9.75 14.25ZM15.75 12.75C15.75 13.5784 15.0784 14.25 14.25 14.25C13.4216 14.25 12.75 13.5784 12.75 12.75C12.75 11.9215 13.4216 11.25 14.25 11.25C15.0784 11.25 15.75 11.9215 15.75 12.75ZM18.75 18.75C19.5784 18.75 20.25 18.0784 20.25 17.25C20.25 16.4215 19.5784 15.75 18.75 15.75C17.9216 15.75 17.25 16.4215 17.25 17.25C17.25 18.0784 17.9216 18.75 18.75 18.75ZM6.75 17.25C6.75 18.0784 6.07843 18.75 5.25 18.75C4.42157 18.75 3.75 18.0784 3.75 17.25C3.75 16.4215 4.42157 15.75 5.25 15.75C6.07843 15.75 6.75 16.4215 6.75 17.25ZM8 17.25C8 16.6977 8.44772 16.25 9 16.25H15C15.5523 16.25 16 16.6977 16 17.25C16 17.8022 15.5523 18.25 15 18.25H9C8.44772 18.25 8 17.8022 8 17.25Z" fill="black"/>
</svg>
