<svg width="24" height="24" viewBox="0 0 24 24" fill="none" xmlns="http://www.w3.org/2000/svg">
<g clip-path="url(#clip0_895_53557)">
<path fill-rule="evenodd" clip-rule="evenodd" d="M23.7234 1.69048C24.1048 1.29098 24.09 0.657985 23.6905 0.276646C23.291 -0.104693 22.658 -0.0899723 22.2767 0.309526L16.7204 6.13037C16.4932 6.22815 16.3015 6.40995 16.1965 6.65538C16.1906 6.6691 16.1851 6.68288 16.1798 6.69671L1.27671 22.3095C0.895368 22.709 0.910089 23.342 1.30959 23.7234C1.70909 24.1047 2.34208 24.09 2.72342 23.6905L10.8607 15.1657C11.7262 14.9085 12.6541 14.9515 13.4933 15.2891C14.3577 15.637 15.0736 16.2757 15.5174 17.0951C15.7804 17.5807 16.3873 17.7612 16.8729 17.4982C17.3586 17.2352 17.539 16.6283 17.276 16.1426C16.6104 14.9136 15.5365 13.9555 14.2398 13.4337C13.7958 13.255 13.3351 13.1314 12.8678 13.0631L14.4654 11.3894C16.1044 11.9202 17.5335 12.9682 18.5335 14.3832C18.8522 14.8343 19.4762 14.9415 19.9272 14.6228C20.3783 14.3041 20.4855 13.6801 20.1668 13.229C19.0999 11.7193 17.6422 10.5438 15.9641 9.81925L17.4202 8.29385C19.036 9.11187 20.4489 10.2867 21.5496 11.7333C21.8841 12.1728 22.5115 12.258 22.951 11.9235C23.3905 11.5891 23.4757 10.9617 23.1412 10.5222C21.9788 8.99461 20.5181 7.72675 18.8535 6.79225L23.7234 1.69048ZM5.92886 6.38492C7.88722 5.44242 10.0381 4.96882 12.2112 5.00159C12.7634 5.00992 13.2043 5.46434 13.196 6.01656C13.1877 6.56878 12.7333 7.00969 12.181 7.00136C10.3184 6.97327 8.47477 7.37922 6.79618 8.18707C5.11758 8.99492 3.65013 10.1825 2.51 11.6557C2.17199 12.0925 1.54391 12.1725 1.10714 11.8345C0.670372 11.4965 0.590313 10.8684 0.928325 10.4317C2.25847 8.71289 3.9705 7.32741 5.92886 6.38492ZM9.52037 10.2908C9.72934 10.802 9.48431 11.3858 8.97309 11.5948C7.56502 12.1704 6.35023 13.1355 5.47116 14.3769C5.152 14.8276 4.52789 14.9343 4.07716 14.6151C3.62643 14.296 3.51978 13.6718 3.83894 13.2211C4.93777 11.6693 6.45626 10.463 8.21635 9.74349C8.72757 9.53452 9.3114 9.77955 9.52037 10.2908ZM11.2347 17.6522C11.4774 17.5517 11.7374 17.5 12.0001 17.5C12.2627 17.5 12.5228 17.5517 12.7654 17.6522C13.0081 17.7528 13.2286 17.9001 13.4143 18.0858C13.8048 18.4763 13.8048 19.1095 13.4143 19.5C13.0238 19.8905 12.3906 19.8905 12.0001 19.5C11.6096 19.8905 10.9764 19.8905 10.5859 19.5C10.1953 19.1095 10.1953 18.4763 10.5859 18.0858C10.7716 17.9001 10.9921 17.7528 11.2347 17.6522Z" fill="black"/>
</g>
<defs>
<clipPath id="clip0_895_53557">
<rect width="24" height="24" fill="white"/>
</clipPath>
</defs>
</svg>
