<svg width="24" height="24" viewBox="0 0 24 24" fill="none" xmlns="http://www.w3.org/2000/svg">
<path fill-rule="evenodd" clip-rule="evenodd" d="M22 14.0001C22.7145 12.7625 22.7145 11.2377 22 10.0001L18.7321 4.33984C18.0175 3.10224 16.697 2.33984 15.268 2.33984H8.73206C7.303 2.33984 5.98249 3.10224 5.26796 4.33984L2.00001 10.0001C1.28548 11.2377 1.28548 12.7625 2.00001 14.0001L5.26796 19.6604C5.98249 20.898 7.303 21.6604 8.73206 21.6604H15.268C16.697 21.6604 18.0175 20.898 18.7321 19.6604L22 14.0001ZM15.7071 8.2928C16.0976 8.68332 16.0976 9.31649 15.7071 9.70701L13.4142 12L15.7071 14.2929C16.0976 14.6834 16.0976 15.3166 15.7071 15.7071C15.3166 16.0976 14.6834 16.0976 14.2929 15.7071L11.9999 13.4142L9.70711 15.707C9.31658 16.0975 8.68342 16.0975 8.29289 15.707C7.90237 15.3165 7.90237 14.6833 8.29289 14.2928L10.5857 12L8.29287 9.70711C7.90234 9.31658 7.90234 8.68342 8.29287 8.29289C8.68339 7.90237 9.31656 7.90237 9.70708 8.29289L11.9999 10.5858L14.2929 8.2928C14.6834 7.90228 15.3166 7.90228 15.7071 8.2928Z" fill="black"/>
</svg>
