<svg width="24" height="24" viewBox="0 0 24 24" fill="none" xmlns="http://www.w3.org/2000/svg">
<path fill-rule="evenodd" clip-rule="evenodd" d="M10.8 4.39997C12.1185 3.41111 14 4.35188 14 5.99997V18C14 19.6481 12.1185 20.5888 10.8 19.6L6.71175 16.5338L4.29851 16.7751C2.53245 16.9517 1 15.5649 1 13.79V10.2099C1 8.43508 2.53245 7.04823 4.29851 7.22483L6.71175 7.46616L10.8 4.39997ZM16.5 10.9999C15.9477 10.9999 15.5 11.4477 15.5 11.9999C15.5 12.5522 15.9477 12.9999 16.5 12.9999H22.5C23.0523 12.9999 23.5 12.5522 23.5 11.9999C23.5 11.4477 23.0523 10.9999 22.5 10.9999H16.5Z" fill="black"/>
</svg>
