<svg width="24" height="24" viewBox="0 0 24 24" fill="none" xmlns="http://www.w3.org/2000/svg">
<path fill-rule="evenodd" clip-rule="evenodd" d="M5.00002 3C5.00002 2.44772 4.55231 2 4.00002 2C3.44774 2 3.00002 2.44772 3.00002 3V9C3.00002 9.55228 3.44774 10 4.00002 10H10C10.5523 10 11 9.55228 11 9C11 8.44772 10.5523 8 10 8H5.755C6.65597 6.87471 7.85055 6.00628 9.21908 5.49891C11.0466 4.82139 13.0585 4.83432 14.8772 5.53528C16.6958 6.23625 18.196 7.57702 19.096 9.30581C19.996 11.0346 20.234 13.0325 19.7651 14.9243C19.2963 16.8161 18.153 18.4717 16.5498 19.5802C14.9467 20.6887 12.994 21.1738 11.0585 20.9444C9.12304 20.715 7.33785 19.787 6.03821 18.3345C4.73857 16.882 4.01387 15.005 4.00022 13.056C3.99635 12.5038 3.54551 12.0592 2.99324 12.0631C2.44097 12.0669 1.9964 12.5178 2.00027 13.0701C2.01734 15.5063 2.9232 17.8525 4.54776 19.6681C6.17231 21.4837 8.4038 22.6438 10.8232 22.9305C13.2425 23.2172 15.6834 22.6109 17.6873 21.2253C19.6912 19.8397 21.1204 17.7702 21.7064 15.4054C22.2924 13.0406 21.995 10.5433 20.87 8.38227C19.745 6.22127 17.8698 4.54531 15.5965 3.66911C13.3232 2.7929 10.8082 2.77673 8.52385 3.62364C7.19455 4.11646 5.99654 4.88181 5.00002 5.85857V3Z" fill="black"/>
</svg>
