<svg width="24" height="24" viewBox="0 0 24 24" fill="none" xmlns="http://www.w3.org/2000/svg">
<g clip-path="url(#clip0_895_53278)">
<path fill-rule="evenodd" clip-rule="evenodd" d="M5.44717 2.39447L5.44833 2.39388C5.45561 2.39022 5.45883 2.3886 5.47717 2.39053C5.50683 2.39366 5.57798 2.40947 5.69401 2.47529C5.93786 2.61364 6.24866 2.89753 6.58422 3.33097C7.09024 3.98458 7.53539 4.82413 7.81516 5.56709C6.90504 5.8626 6.09677 6.28431 5.40982 6.85678C5.08942 7.12378 4.80261 7.41734 4.54843 7.73673C4.45362 6.83752 4.45746 5.89026 4.55611 5.01879C4.6432 4.24955 4.79915 3.58668 4.99707 3.09827C5.21089 2.57062 5.40367 2.41622 5.44717 2.39447ZM3.20353 10.7731L3.05127 10.3163C2.49523 8.64816 2.36895 6.55918 2.56881 4.79381C2.66923 3.90679 2.85702 3.05404 3.14348 2.34714C3.41403 1.67947 3.84624 0.958875 4.55273 0.605621C5.32434 0.219811 6.0959 0.403865 6.68088 0.735731C7.24952 1.05833 7.75123 1.57131 8.16567 2.10662C8.85162 2.99264 9.43975 4.1257 9.78458 5.13457C10.4847 5.04235 11.2251 5 12 5C12.9907 5 13.9195 5.08581 14.777 5.2614L15.6661 3.77965C16.2038 2.88351 17.3407 2.55242 18.2755 3.01979L21.2361 4.50008C22.93 5.34704 24 7.07836 24 8.97222V11.5586C24 12.8499 23.1737 13.9963 21.9487 14.4046L21.8824 14.4267C21.5487 14.5379 21.2072 14.5874 20.8713 14.5804C20.5563 16.5244 19.6794 18.3739 18.4264 19.8378C17.6099 20.7916 16.6175 21.599 15.4969 22.1592C14.6952 22.1637 14.1308 21.8922 13.738 21.5556C13.267 21.1518 12.9789 20.6013 12.8432 20.1156C12.87 20.0866 12.8957 20.0558 12.92 20.0233L13.62 19.09C14.1886 18.3319 13.6477 17.25 12.7 17.25H11.3C10.3524 17.25 9.81145 18.3319 10.38 19.09L11.08 20.0233C11.1194 20.0759 11.1622 20.1239 11.2078 20.1674C11.1365 20.6978 10.9623 21.227 10.5946 21.5947C10.2472 21.9421 9.5842 22.2749 8.2735 22.121C5.11656 20.5407 3 17.0085 3 13C3 12.2036 3.06669 11.4604 3.20353 10.7731ZM10.4796 23.4018C10.5317 23.4423 10.5844 23.4813 10.6375 23.5185C10.9963 23.7696 11.4629 24.0001 12.0001 24.0001C12.5373 24.0001 13.0039 23.7696 13.3626 23.5185C13.4674 23.4451 13.5703 23.3649 13.671 23.2793C13.3356 23.1243 13.0325 22.9264 12.7619 22.6944C12.5255 22.4919 12.3194 22.2677 12.1417 22.0311C12.0096 22.2504 11.8494 22.4612 11.6553 22.6553C11.3322 22.9784 10.9424 23.231 10.4796 23.4018ZM18.6105 7.06165C20.1327 8.40062 20.9082 10.3014 20.9923 12.5791C21.0784 12.574 21.165 12.5577 21.25 12.5293L21.3162 12.5072C21.7246 12.3711 22 11.989 22 11.5586V8.97222C22 7.8359 21.358 6.79711 20.3416 6.28894L17.3811 4.80864L16.7397 5.8776C17.4374 6.18712 18.0637 6.58067 18.6105 7.06165ZM7.5 16C8.32843 16 9 15.3284 9 14.5C9 13.6716 8.32843 13 7.5 13C6.67157 13 6 13.6716 6 14.5C6 15.3284 6.67157 16 7.5 16ZM16.5 16C17.3284 16 18 15.3284 18 14.5C18 13.6716 17.3284 13 16.5 13C15.6716 13 15 13.6716 15 14.5C15 15.3284 15.6716 16 16.5 16Z" fill="black"/>
</g>
<defs>
<clipPath id="clip0_895_53278">
<rect width="24" height="24" fill="white"/>
</clipPath>
</defs>
</svg>
