<svg width="24" height="24" viewBox="0 0 24 24" fill="none" xmlns="http://www.w3.org/2000/svg">
<path fill-rule="evenodd" clip-rule="evenodd" d="M5.07542 4.5756C8.98066 0.670357 15.3123 0.670357 19.2176 4.5756C23.1228 8.48084 23.1228 14.8125 19.2176 18.7177C15.3123 22.623 8.98066 22.623 5.07542 18.7177C1.17017 14.8125 1.17017 8.48084 5.07542 4.5756ZM11.7207 3.37683C12.2667 3.45996 12.6419 3.96996 12.5587 4.51596C12.2701 6.41148 11.3837 8.1653 10.0286 9.52182C8.67359 10.8783 6.92072 11.7666 5.0255 12.0573C4.4796 12.141 3.96919 11.7663 3.88547 11.2204C3.80176 10.6745 4.17644 10.1641 4.72234 10.0804C6.1964 9.85433 7.55974 9.16343 8.61368 8.10836C9.66762 7.05329 10.3571 5.68921 10.5815 4.21491C10.6647 3.66892 11.1747 3.2937 11.7207 3.37683ZM20.2695 12.1727C20.1875 11.6265 19.6782 11.2503 19.1321 11.3323C17.279 11.6106 15.5812 12.4566 14.2725 13.7634C12.9638 15.0702 12.1152 16.7667 11.8343 18.6193C11.7515 19.1653 12.127 19.6751 12.6731 19.7579C13.2191 19.8407 13.7289 19.4651 13.8117 18.9191C14.03 17.4797 14.686 16.1768 15.6856 15.1787C16.6853 14.1805 17.9892 13.5263 19.4291 13.3101C19.9753 13.2281 20.3515 12.7188 20.2695 12.1727Z" fill="black"/>
</svg>
