<svg width="24" height="24" viewBox="0 0 24 24" fill="none" xmlns="http://www.w3.org/2000/svg">
<path fill-rule="evenodd" clip-rule="evenodd" d="M5.63604 2.22185C5.24551 1.83132 4.61235 1.83132 4.22182 2.22185C3.20038 3.24329 2.39013 4.45592 1.83733 5.79051C1.28452 7.12509 1 8.55548 1 10C1 11.4446 1.28452 12.875 1.83733 14.2095C2.39013 15.5441 3.20038 16.7568 4.22182 17.7782C4.61235 18.1687 5.24551 18.1687 5.63604 17.7782C6.02656 17.3877 6.02656 16.7545 5.63604 16.364C4.80031 15.5283 4.13738 14.5361 3.68508 13.4442C3.23279 12.3522 3 11.1819 3 10C3 8.81813 3.23279 7.6478 3.68508 6.55587C4.13738 5.46394 4.80031 4.47179 5.63604 3.63606C6.02656 3.24554 6.02656 2.61237 5.63604 2.22185ZM18.364 2.22185C18.7545 1.83132 19.3876 1.83132 19.7782 2.22185C20.7996 3.24329 21.6099 4.45592 22.1627 5.79051C22.7155 7.12509 23 8.55548 23 10C23 11.4446 22.7155 12.875 22.1627 14.2095C21.6099 15.5441 20.7996 16.7568 19.7782 17.7782C19.3876 18.1687 18.7545 18.1687 18.364 17.7782C17.9734 17.3877 17.9734 16.7545 18.364 16.364C19.1997 15.5283 19.8626 14.5361 20.3149 13.4442C20.7672 12.3522 21 11.1819 21 10C21 8.81813 20.7672 7.6478 20.3149 6.55587C19.8626 5.46394 19.1997 4.47179 18.364 3.63606C17.9734 3.24554 17.9734 2.61237 18.364 2.22185ZM16.9497 5.05028C16.5592 4.65975 15.9261 4.65975 15.5355 5.05028C15.145 5.4408 15.145 6.07397 15.5355 6.46449C15.9998 6.92878 16.3681 7.47998 16.6194 8.08661C16.8707 8.69324 17 9.34342 17 10C17 10.6566 16.8707 11.3068 16.6194 11.9134C16.3681 12.5201 15.9998 13.0713 15.5355 13.5356C15.145 13.9261 15.145 14.5592 15.5355 14.9498C15.9261 15.3403 16.5592 15.3403 16.9497 14.9498C17.5998 14.2998 18.1154 13.5281 18.4672 12.6788C18.8189 11.8295 19 10.9193 19 10C19 9.08077 18.8189 8.17052 18.4672 7.32124C18.1154 6.47196 17.5998 5.70029 16.9497 5.05028ZM8.46445 5.05028C8.07393 4.65975 7.44076 4.65975 7.05024 5.05028C6.40023 5.70029 5.88461 6.47196 5.53283 7.32124C5.18105 8.17052 4.99999 9.08077 4.99999 10C4.99999 10.9193 5.18105 11.8295 5.53283 12.6788C5.88461 13.5281 6.40023 14.2998 7.05024 14.9498C7.44076 15.3403 8.07393 15.3403 8.46445 14.9498C8.85498 14.5592 8.85498 13.9261 8.46445 13.5356C8.00016 13.0713 7.63186 12.5201 7.38059 11.9134C7.12932 11.3068 6.99999 10.6566 6.99999 10C6.99999 9.34342 7.12932 8.69324 7.38059 8.08661C7.63186 7.47998 8.00016 6.92878 8.46445 6.46449C8.85498 6.07397 8.85498 5.4408 8.46445 5.05028ZM8.99999 10C8.99999 8.34315 10.3431 7 12 7C13.6568 7 15 8.34315 15 10C15 11.3062 14.1652 12.4175 13 12.8293V21C13 21.5523 12.5523 22 12 22C11.4477 22 11 21.5523 11 21V12.8293C9.8348 12.4175 8.99999 11.3062 8.99999 10Z" fill="black"/>
</svg>
