<svg width="24" height="24" viewBox="0 0 24 24" fill="none" xmlns="http://www.w3.org/2000/svg">
<path fill-rule="evenodd" clip-rule="evenodd" d="M2.26808 16.4909L3.37962 15.6648L3.37907 15.6678L2.26808 16.4909ZM3.87906 12.3499C2.75392 13.475 2.37722 15.1124 2.26808 16.4909C2.15625 17.9034 2.30989 19.256 2.42679 20.016C2.55075 20.8219 3.17044 21.4525 3.97751 21.5869C4.73362 21.7128 6.07671 21.8793 7.48907 21.7698C8.87355 21.6626 10.5088 21.2765 11.6572 20.1281C12.5014 19.2839 12.8752 18.2385 13.0048 17.2364C14.007 17.1067 15.0523 16.733 15.8965 15.8888C16.741 15.0443 17.1147 13.9986 17.2443 12.9961C18.2465 12.8667 19.2921 12.4932 20.1363 11.649C21.2845 10.5008 21.6703 8.86563 21.7773 7.48138C21.8865 6.0692 21.7199 4.72625 21.5939 3.97026C21.4595 3.16336 20.829 2.54382 20.0233 2.41979C19.2634 2.30281 17.9109 2.149 16.4986 2.2606C15.1203 2.36951 13.4831 2.74589 12.3581 3.87082C11.5165 4.71242 11.1556 5.77434 11.0355 6.78732C10.0223 6.90765 8.96015 7.26881 8.11835 8.11061C7.27681 8.95215 6.91562 10.0138 6.79518 11.0267C5.7823 11.1472 4.72059 11.5084 3.87906 12.3499ZM16.75 9.26001C17.8546 9.26001 18.75 8.36458 18.75 7.26001C18.75 6.15544 17.8546 5.26001 16.75 5.26001C15.6454 5.26001 14.75 6.15544 14.75 7.26001C14.75 8.36458 15.6454 9.26001 16.75 9.26001ZM7.26172 18.75C8.36629 18.75 9.26172 17.8546 9.26172 16.75C9.26172 15.6454 8.36629 14.75 7.26172 14.75C6.15715 14.75 5.26172 15.6454 5.26172 16.75C5.26172 17.8546 6.15715 18.75 7.26172 18.75ZM14 12.0051C14 13.1097 13.1046 14.0051 12 14.0051C10.8954 14.0051 10 13.1097 10 12.0051C10 10.9006 10.8954 10.0051 12 10.0051C13.1046 10.0051 14 10.9006 14 12.0051Z" fill="black"/>
</svg>
