<svg width="24" height="24" viewBox="0 0 24 24" fill="none" xmlns="http://www.w3.org/2000/svg">
<path fill-rule="evenodd" clip-rule="evenodd" d="M11.9999 2C6.47703 2 1.99988 6.47715 1.99988 12C1.99988 17.5228 6.47703 22 11.9999 22C17.5227 22 21.9999 17.5228 21.9999 12C21.9999 6.47715 17.5227 2 11.9999 2ZM14.2834 6.14565C14.1943 6.1161 14.099 6.1001 14 6.1001H10.5C10.0029 6.1001 9.59998 6.50304 9.59998 7.0001V10.6001H7.99998C7.50292 10.6001 7.09998 11.003 7.09998 11.5001C7.09998 11.9972 7.50292 12.4001 7.99998 12.4001H9.59998V13.6001H7.99998C7.50292 13.6001 7.09998 14.003 7.09998 14.5001C7.09998 14.9972 7.50292 15.4001 7.99998 15.4001H9.59998V17.5001C9.59998 17.9972 10.0029 18.4001 10.5 18.4001C10.997 18.4001 11.4 17.9972 11.4 17.5001V15.4001H14C14.497 15.4001 14.9 14.9972 14.9 14.5001C14.9 14.003 14.497 13.6001 14 13.6001H11.4V12.4001H13.7396C13.7431 12.4001 13.7465 12.4002 13.75 12.4002C13.7564 12.4002 13.7627 12.4001 13.7691 12.4001H14C14.0987 12.4001 14.1938 12.3842 14.2827 12.3548C14.9042 12.2482 15.4838 11.9565 15.9424 11.512C16.5301 10.9423 16.873 10.1663 16.8984 9.34828C16.9239 8.53024 16.63 7.73439 16.079 7.12926C15.6046 6.60827 14.9716 6.26388 14.2834 6.14565ZM13.7623 10.6001C14.1086 10.5969 14.4407 10.4608 14.6896 10.2195C14.9414 9.97537 15.0884 9.6428 15.0993 9.29221C15.1102 8.94162 14.9843 8.60054 14.7481 8.3412C14.512 8.08186 14.1841 7.92462 13.834 7.90278C13.8229 7.90208 13.8118 7.90119 13.8008 7.9001L11.4 7.9001V10.6001H13.7623Z" fill="black"/>
</svg>
