<svg width="24" height="24" viewBox="0 0 24 24" fill="none" xmlns="http://www.w3.org/2000/svg">
<path fill-rule="evenodd" clip-rule="evenodd" d="M8.81789 3.92804C10.0762 1.21439 13.9407 1.22781 15.1792 3.95257L21.776 18.4656C22.3474 19.7226 21.7916 21.2047 20.5346 21.7761C20.1995 21.9284 19.8483 22.0006 19.5027 22.0008C18.552 22.0013 17.643 21.4565 17.224 20.5346L12.0277 9.10292L10.8973 11.4674L10.8621 11.5448C10.7138 11.5096 10.5624 11.4815 10.4081 11.461C9.65858 11.3615 8.9462 11.0748 8.33675 10.6273C7.7273 10.1798 7.24044 9.586 6.92111 8.90065C6.86367 8.77738 6.80136 8.65793 6.73451 8.54243L7.03013 7.89207L8.10727 5.47215C8.1208 5.43928 8.13509 5.40654 8.15013 5.37396L8.17343 5.32351L8.80343 3.90814L8.81789 3.92804ZM3.01011 17.8818C4.23998 18.7848 5.60957 19.4696 7.05882 19.912L6.7758 20.5346C6.20445 21.7916 4.72233 22.3474 3.46537 21.7761C2.20842 21.2047 1.65262 19.7226 2.22396 18.4656L2.62337 17.5869C2.75037 17.6874 2.87929 17.7857 3.01011 17.8818ZM8.03915 12.7866C9.20285 13.382 10.516 13.6113 11.8067 13.4499L13.9298 18.1207C13.6756 18.1877 13.4185 18.2461 13.1589 18.2957C10.6441 18.7763 8.04077 18.404 5.76152 17.2377C3.48226 16.0714 1.65739 14.1778 0.576057 11.857C-0.00707391 10.6055 0.534769 9.11822 1.7863 8.53509C3.03783 7.95196 4.52511 8.4938 5.10824 9.74533C5.71943 11.0571 6.75088 12.1273 8.03915 12.7866ZM22.4805 7.6707C22.3847 9.31058 21.9396 10.8999 21.1869 12.3367L18.2027 5.77154C18.6906 5.27599 19.3817 4.98543 20.1305 5.02917C21.5089 5.10968 22.561 6.29233 22.4805 7.6707Z" fill="black"/>
</svg>
