<svg width="24" height="24" viewBox="0 0 24 24" fill="none" xmlns="http://www.w3.org/2000/svg">
<path fill-rule="evenodd" clip-rule="evenodd" d="M14 5.99997C14 4.35188 12.1185 3.41111 10.8 4.39997L6.71175 7.46616L4.29851 7.22483C2.53245 7.04823 1 8.43508 1 10.2099V13.79C1 15.5649 2.53245 16.9517 4.29851 16.7751L6.71175 16.5338L10.8 19.6C12.1185 20.5888 14 19.6481 14 18V5.99997ZM15.5 11.9999C15.5 11.4477 15.9477 10.9999 16.5 10.9999H18.5V8.99994C18.5 8.44765 18.9477 7.99994 19.5 7.99994C20.0523 7.99994 20.5 8.44765 20.5 8.99994V10.9999H22.5C23.0523 10.9999 23.5 11.4477 23.5 11.9999C23.5 12.5522 23.0523 12.9999 22.5 12.9999H20.5V14.9999C20.5 15.5522 20.0523 15.9999 19.5 15.9999C18.9477 15.9999 18.5 15.5522 18.5 14.9999V12.9999H16.5C15.9477 12.9999 15.5 12.5522 15.5 11.9999Z" fill="black"/>
</svg>
