<svg width="24" height="24" viewBox="0 0 24 24" fill="none" xmlns="http://www.w3.org/2000/svg">
<path fill-rule="evenodd" clip-rule="evenodd" d="M5.13158 13.5039C5.30963 13.1923 5.64097 13 5.99983 13L11.9816 13C11.9943 12.9998 12.0071 12.9998 12.0199 13L17.9998 13C18.3587 13 18.69 13.1923 18.8681 13.5039L22.8681 20.5039C23.1421 20.9834 22.9755 21.5942 22.496 21.8682C22.0164 22.1423 21.4056 21.9757 21.1316 21.4961L17.9998 16.0156L14.8681 21.4961C14.69 21.8077 14.3587 22 13.9998 22L8.01665 22C8.00482 22.0002 7.99298 22.0002 7.98113 22L1.99982 22C1.64335 22 1.31384 21.8102 1.13491 21.5019C0.955994 21.1936 0.954724 20.8134 1.13158 20.5039L3.12193 17.0208C3.12786 17.0099 3.134 16.9992 3.14032 16.9886L5.13158 13.5039ZM4.58015 18.5L3.72301 20L7.41948 20L8.27662 18.5L4.58015 18.5ZM9.41948 16.5L5.72301 16.5L6.58015 15L10.2766 15L9.41948 16.5ZM10.5801 18.5L9.72298 20L13.4195 20L14.2766 18.5L10.5801 18.5ZM15.4195 16.5L11.723 16.5L12.5801 15L16.2766 15L15.4195 16.5ZM15.4998 11C14.9475 11 14.4998 10.5523 14.4998 10C14.4998 9.67169 14.4352 9.34661 14.3095 9.04329C14.1839 8.73998 13.9997 8.46438 13.7676 8.23223C13.5354 8.00009 13.2598 7.81594 12.9565 7.6903C12.6532 7.56466 12.3281 7.5 11.9998 7.5C11.6715 7.5 11.3464 7.56466 11.0431 7.6903C10.7398 7.81594 10.4642 8.00009 10.2321 8.23223C9.99991 8.46438 9.81576 8.73998 9.69013 9.04329C9.56449 9.3466 9.49982 9.67169 9.49982 10C9.49982 10.5523 9.05211 11 8.49982 11C7.94754 11 7.49982 10.5523 7.49982 10C7.49982 9.40905 7.61622 8.82389 7.84237 8.27792C8.06851 7.73196 8.39998 7.23588 8.81784 6.81802C9.23571 6.40015 9.73178 6.06869 10.2777 5.84254C10.8237 5.61639 11.4089 5.5 11.9998 5.5C12.5908 5.5 13.1759 5.61639 13.7219 5.84254C14.2679 6.06869 14.7639 6.40016 15.1818 6.81802C15.5997 7.23588 15.9311 7.73196 16.1573 8.27792C16.3834 8.82389 16.4998 9.40905 16.4998 10C16.4998 10.5523 16.0521 11 15.4998 11ZM10.9998 3C10.9998 3.55228 11.4475 4 11.9998 4C12.5521 4 12.9998 3.55228 12.9998 3L12.9998 2C12.9998 1.44771 12.5521 1 11.9998 1C11.4475 0.999999 10.9998 1.44771 10.9998 2L10.9998 3ZM17.1959 7C16.9198 6.52171 17.0837 5.91012 17.562 5.63398L18.428 5.13398C18.9063 4.85783 19.5179 5.02171 19.794 5.5C20.0702 5.9783 19.9063 6.58989 19.428 6.86603L18.562 7.36603C18.0837 7.64217 17.4721 7.47829 17.1959 7ZM18.9998 9C18.4475 9 17.9998 9.44772 17.9998 10C17.9998 10.5523 18.4475 11 18.9998 11L19.9998 11C20.5521 11 20.9998 10.5523 20.9998 10C20.9998 9.44772 20.5521 9 19.9998 9L18.9998 9ZM8.99983 4.80383C8.52153 5.07997 7.90994 4.9161 7.6338 4.43781L7.1338 3.57178C6.85766 3.09349 7.02153 2.4819 7.49983 2.20576C7.97812 1.92961 8.58971 2.09349 8.86585 2.57178L9.36585 3.43781C9.64199 3.9161 9.47812 4.52769 8.99983 4.80383ZM14.6338 3.43781C14.3577 3.9161 14.5215 4.52769 14.9998 4.80383C15.4781 5.07998 16.0897 4.9161 16.3659 4.43781L16.8659 3.57178C17.142 3.09349 16.9781 2.4819 16.4998 2.20576C16.0215 1.92961 15.4099 2.09349 15.1338 2.57178L14.6338 3.43781ZM6.80372 7.00003C6.52758 7.47832 5.91599 7.6422 5.43769 7.36605L4.57167 6.86605C4.09338 6.58991 3.9295 5.97832 4.20564 5.50003C4.48179 5.02174 5.09338 4.85786 5.57167 5.134L6.43769 5.634C6.91599 5.91015 7.07986 6.52174 6.80372 7.00003ZM4.99989 11C5.55217 11 5.99989 10.5523 5.99989 10C5.99989 9.44775 5.55217 9.00003 4.99989 9.00003L3.99989 9.00003C3.4476 9.00003 2.99989 9.44774 2.99989 10C2.99989 10.5523 3.4476 11 3.99989 11L4.99989 11Z" fill="black"/>
</svg>
