<svg width="24" height="24" viewBox="0 0 24 24" fill="none" xmlns="http://www.w3.org/2000/svg">
<path fill-rule="evenodd" clip-rule="evenodd" d="M13.4139 21.4142C12.6328 22.1953 11.3665 22.1953 10.5854 21.4142L3.42642 14.2552C2.009 12.8378 3.01288 10.4142 5.01741 10.4142L6.49955 10.4142L6.49955 3.91421C6.49955 2.80965 7.39498 1.91421 8.49955 1.91421L15.4995 1.91421C16.6041 1.91421 17.4995 2.80965 17.4995 3.91421L17.4995 10.4142L18.9819 10.4142C20.9864 10.4142 21.9903 12.8378 20.5729 14.2552L13.4139 21.4142ZM4.84063 12.841L11.9996 20L19.1587 12.841C19.3161 12.6835 19.2046 12.4142 18.9819 12.4142L16.4995 12.4142C16.2343 12.4142 15.98 12.3089 15.7924 12.1213C15.6049 11.9338 15.4995 11.6794 15.4995 11.4142L15.4995 3.91421L8.49955 3.91421L8.49955 11.4142C8.49955 11.6794 8.39419 11.9338 8.20665 12.1213C8.01912 12.3089 7.76476 12.4142 7.49955 12.4142L5.01741 12.4142C4.79468 12.4142 4.68314 12.6835 4.84063 12.841Z" fill="black"/>
</svg>
