<svg width="24" height="24" viewBox="0 0 24 24" fill="none" xmlns="http://www.w3.org/2000/svg">
<path fill-rule="evenodd" clip-rule="evenodd" d="M12 1C9.17072 1 7.24493 2.21589 6.06081 3.87644C4.91056 5.48948 4.5 7.45834 4.5 9C4.5 11.8966 6.72546 13.9901 7.93585 14.9317C8.30613 15.2197 8.5 15.6069 8.5 15.9571V16C8.5 17.6569 9.84315 19 11.5 19H12.5C14.1569 19 15.5 17.6569 15.5 16V15.9415C15.5 15.5247 15.7919 15.0225 16.3533 14.6041C16.8397 14.2416 17.3773 13.7368 17.8321 13.0547C18.1384 12.5952 18.0142 11.9743 17.5547 11.6679C17.0952 11.3616 16.4743 11.4858 16.1679 11.9453C15.8642 12.4009 15.4996 12.746 15.1582 13.0005C14.339 13.6109 13.5 14.6366 13.5 15.9415V16C13.5 16.5523 13.0523 17 12.5 17H11.5C10.9477 17 10.5 16.5523 10.5 16V15.9571C10.5 14.8757 9.92352 13.944 9.16385 13.353C8.00829 12.4541 6.5 10.8855 6.5 9C6.5 7.76041 6.83944 6.22927 7.68919 5.03763C8.49697 3.90485 9.80304 3.01776 11.9356 3.00026L13.3678 3.19123C13.9153 3.26422 14.4182 2.8796 14.4912 2.33216C14.5642 1.78472 14.1796 1.28176 13.6322 1.20877L12.1322 1.00877L12.0664 1H12ZM18.9898 2.1267C18.9295 1.76506 18.6166 1.5 18.25 1.5C17.8834 1.5 17.5705 1.76506 17.5102 2.1267L17.3625 3.013C17.2044 3.96131 16.4613 4.70444 15.513 4.86249L14.6267 5.0102C14.2651 5.07048 14 5.38337 14 5.75C14 6.11663 14.2651 6.42952 14.6267 6.4898L15.513 6.63751C16.4613 6.79556 17.2044 7.53868 17.3625 8.487L17.5102 9.3733C17.5705 9.73494 17.8834 10 18.25 10C18.6166 10 18.9295 9.73494 18.9898 9.3733L19.1375 8.487C19.2956 7.53868 20.0387 6.79556 20.987 6.63751L21.8733 6.4898C22.2349 6.42952 22.5 6.11663 22.5 5.75C22.5 5.38337 22.2349 5.07048 21.8733 5.0102L20.987 4.86249C20.0387 4.70444 19.2956 3.96131 19.1375 3.013L18.9898 2.1267ZM9 22C9 21.4477 9.44772 21 10 21H14C14.5523 21 15 21.4477 15 22C15 22.5523 14.5523 23 14 23H10C9.44772 23 9 22.5523 9 22Z" fill="black"/>
</svg>
