<svg width="24" height="24" viewBox="0 0 24 24" fill="none" xmlns="http://www.w3.org/2000/svg">
<path fill-rule="evenodd" clip-rule="evenodd" d="M1 7.5C1 5.29086 2.79086 3.5 5 3.5H19C21.2091 3.5 23 5.29086 23 7.5V16.5C23 18.7091 21.2091 20.5 19 20.5H5C2.79086 20.5 1 18.7091 1 16.5V7.5ZM5 5.5C3.89543 5.5 3 6.39543 3 7.5V16.5C3 17.6046 3.89543 18.5 5 18.5H19C20.1046 18.5 21 17.6046 21 16.5V7.5C21 6.39543 20.1046 5.5 19 5.5H5ZM12.5 9.5C12.5 8.94772 12.9477 8.5 13.5 8.5H15.25C17.0449 8.5 18.5 9.95507 18.5 11.75V12.25C18.5 14.0449 17.0449 15.5 15.25 15.5H13.5C12.9477 15.5 12.5 15.0523 12.5 14.5V9.5ZM14.5 10.5V13.5H15.25C15.9404 13.5 16.5 12.9404 16.5 12.25V11.75C16.5 11.0596 15.9404 10.5 15.25 10.5H14.5ZM7.77735 10.7255C7.77667 10.721 7.77599 10.7149 7.77553 10.7068C7.79574 10.6898 7.83656 10.6607 7.90955 10.6273C8.13645 10.5232 8.45657 10.4749 8.67496 10.4749C9.02275 10.4749 9.42352 10.5308 9.75798 10.5941C9.92063 10.6249 10.0585 10.6556 10.1546 10.6784C10.2025 10.6898 10.2396 10.6991 10.2637 10.7052L10.2898 10.712L10.2954 10.7135C10.8148 10.854 11.3499 10.5471 11.4909 10.0277C11.632 9.50805 11.3251 8.97241 10.8054 8.83135L10.5642 9.71989C10.8054 8.83135 10.8045 8.83111 10.8044 8.83108L10.803 8.83071L10.7992 8.82968L10.7872 8.82649L10.7466 8.81596C10.7124 8.80723 10.6643 8.79522 10.6045 8.78104C10.4852 8.75275 10.3178 8.71542 10.1206 8.67811C9.73544 8.60521 9.19871 8.5249 8.67496 8.5249C8.26835 8.5249 7.65097 8.60055 7.09663 8.85479C6.53613 9.11185 5.82496 9.67327 5.82496 10.6853C5.82496 11.0923 5.93005 11.4728 6.14956 11.8025C6.3628 12.1227 6.646 12.3381 6.91646 12.4867C7.39549 12.7499 7.98616 12.8769 8.4094 12.968L8.4691 12.9808C8.98056 13.0913 9.29346 13.1675 9.49458 13.278C9.53922 13.3025 9.56225 13.3207 9.57258 13.3301L9.57306 13.3336C9.55237 13.3474 9.51869 13.3668 9.46705 13.3887C9.24272 13.4836 8.91869 13.5249 8.67496 13.5249C8.35838 13.5249 7.96714 13.464 7.62613 13.3919C7.46188 13.3571 7.32101 13.3223 7.22213 13.2965C7.17287 13.2836 7.13453 13.2731 7.10947 13.2661L7.08227 13.2583L7.07624 13.2566C6.5602 13.1041 6.01811 13.3985 5.86516 13.9145C5.71213 14.4308 6.0066 14.9734 6.52288 15.1264L6.79996 14.1916C6.52288 15.1264 6.52376 15.1267 6.52387 15.1267L6.52525 15.1271L6.52915 15.1283L6.54142 15.1318L6.5831 15.1437C6.61818 15.1535 6.66761 15.1671 6.72891 15.1831C6.85113 15.215 7.02247 15.2573 7.2226 15.2997C7.61035 15.3817 8.15661 15.4749 8.67496 15.4749C9.05623 15.4749 9.6697 15.4202 10.2266 15.1847C10.7946 14.9445 11.525 14.3975 11.525 13.3703C11.525 12.9633 11.4199 12.5828 11.2004 12.2531C10.9871 11.9329 10.7039 11.7175 10.4335 11.5689C9.95443 11.3057 9.36376 11.1787 8.94052 11.0876L8.88083 11.0748C8.36936 10.9643 8.05647 10.8881 7.85534 10.7776C7.8107 10.7531 7.78767 10.7349 7.77735 10.7255ZM10.55 9.77229C10.2945 10.7132 10.2953 10.7135 10.2954 10.7135L10.55 9.77229Z" fill="black"/>
</svg>
