<svg width="24" height="24" viewBox="0 0 24 24" fill="none" xmlns="http://www.w3.org/2000/svg">
<path fill-rule="evenodd" clip-rule="evenodd" d="M5 6C3.89543 6 3 6.89543 3 8V16C3 17.1046 3.89543 18 5 18H13C14.1046 18 15 17.1046 15 16V8C15 6.89543 14.1046 6 13 6H5ZM1 8C1 5.79086 2.79086 4 5 4H13C15.2091 4 17 5.79086 17 8V9.72677L19.6486 7.29893C20.9314 6.12303 23 7.03302 23 8.77324V15.2268C23 16.967 20.9314 17.877 19.6486 16.7011L17 14.2732V16C17 18.2091 15.2091 20 13 20H5C2.79086 20 1 18.2091 1 16V8ZM17.4799 12L21 15.2268L21 8.77324L17.4799 12Z" fill="black"/>
</svg>
