<svg width="24" height="24" viewBox="0 0 24 24" fill="none" xmlns="http://www.w3.org/2000/svg">
<g clip-path="url(#clip0_895_52708)">
<path fill-rule="evenodd" clip-rule="evenodd" d="M23.7071 1.70711C24.0976 1.31658 24.0976 0.683417 23.7071 0.292893C23.3166 -0.0976311 22.6834 -0.0976311 22.2929 0.292893L0.292893 22.2929C-0.0976311 22.6834 -0.0976311 23.3166 0.292893 23.7071C0.683417 24.0976 1.31658 24.0976 1.70711 23.7071L10.0347 15.3796L11.5039 17.3386C12.7458 18.9944 15.2519 18.9249 16.4001 17.2027L23.2531 6.92308C24.1846 5.5258 22.4672 3.88729 21.1152 4.88344L18.8943 6.51994L23.7071 1.70711ZM13.7513 11.663L11.4632 13.951L13.1039 16.1385C13.5179 16.6905 14.3532 16.6673 14.736 16.0933L20.0101 8.18206L15.0932 11.805C14.6732 12.1145 14.0908 12.0472 13.7513 11.663ZM9.44528 7.63481C9.73951 7.19347 10.3817 7.17565 10.7 7.59999C11.0314 8.04181 11.6582 8.13136 12.1 7.79999C12.5418 7.46862 12.6314 6.84181 12.3 6.39999C11.1538 4.87172 8.84085 4.93592 7.78118 6.52541L2.16793 14.9453C1.86158 15.4048 1.98576 16.0257 2.44528 16.332C2.90481 16.6384 3.52568 16.5142 3.83203 16.0547L9.44528 7.63481Z" fill="black"/>
</g>
<defs>
<clipPath id="clip0_895_52708">
<rect width="24" height="24" fill="white"/>
</clipPath>
</defs>
</svg>
