<svg width="24" height="24" viewBox="0 0 24 24" fill="none" xmlns="http://www.w3.org/2000/svg">
<path fill-rule="evenodd" clip-rule="evenodd" d="M5.39293 5.93251C4.98286 5.5225 4.31807 5.5225 3.908 5.93251L0.757562 9.08251C0.560603 9.27944 0.449951 9.54656 0.449951 9.82508C0.449951 10.1036 0.560603 10.3707 0.757562 10.5676L3.908 13.7176C4.31807 14.1277 4.98286 14.1277 5.39293 13.7176L8.3271 10.7839L11.0436 13.5L8.11083 16.4324C7.91388 16.6293 7.80322 16.8964 7.80322 17.1749C7.80322 17.4535 7.91388 17.7206 8.11083 17.9175L11.2613 21.0675C11.6713 21.4775 12.3361 21.4775 12.7462 21.0675L15.8966 17.9175C16.0936 17.7206 16.2042 17.4535 16.2042 17.1749C16.2042 16.8964 16.0936 16.6293 15.8966 16.4324L12.9639 13.5L15.6766 10.7876L18.6071 13.7176C19.0172 14.1277 19.682 14.1277 20.092 13.7176L23.2425 10.5676C23.4394 10.3707 23.5501 10.1036 23.5501 9.82508C23.5501 9.54656 23.4394 9.27944 23.2425 9.08251L20.092 5.93251C19.682 5.5225 19.0172 5.5225 18.6071 5.93251L15.6766 8.86256L12.7462 5.93251C12.3361 5.5225 11.6713 5.5225 11.2613 5.93251L8.3271 8.86628L5.39293 5.93251ZM4.65046 11.4902L2.98516 9.82508L4.65046 8.16L6.31577 9.82508L4.65046 11.4902ZM12.0037 11.4902L10.3384 9.82508L12.0037 8.16L13.669 9.82508L12.0037 11.4902ZM12.0037 18.84L10.3384 17.1749L12.0037 15.5099L13.669 17.1749L12.0037 18.84ZM17.6843 9.82508L19.3496 11.4902L21.0149 9.82508L19.3496 8.16L17.6843 9.82508Z" fill="black"/>
</svg>
