<svg width="24" height="24" viewBox="0 0 24 24" fill="none" xmlns="http://www.w3.org/2000/svg">
<path fill-rule="evenodd" clip-rule="evenodd" d="M2.5 6.5C2.5 4.29086 4.29086 2.5 6.5 2.5H17.5C19.7091 2.5 21.5 4.29086 21.5 6.5V17.5C21.5 19.7091 19.7091 21.5 17.5 21.5H6.5C4.29086 21.5 2.5 19.7091 2.5 17.5V6.5ZM6.5 4.5C5.39543 4.5 4.5 5.39543 4.5 6.5V17.5C4.5 18.6046 5.39543 19.5 6.5 19.5H17.5C18.6046 19.5 19.5 18.6046 19.5 17.5V6.5C19.5 5.39543 18.6046 4.5 17.5 4.5H6.5ZM15.828 9.17157C15.828 9.72386 15.3803 10.1716 14.828 10.1716L11.5855 10.1716L15.5352 14.1213C15.9258 14.5118 15.9258 15.145 15.5352 15.5355C15.1447 15.9261 14.5115 15.9261 14.121 15.5355L10.1711 11.5856L10.1711 14.8284C10.1711 15.3807 9.7234 15.8284 9.17112 15.8284C8.61883 15.8284 8.17112 15.3807 8.17112 14.8284L8.17112 9.17157C8.17112 8.61929 8.61883 8.17157 9.17112 8.17157L14.828 8.17157C15.3803 8.17157 15.828 8.61929 15.828 9.17157Z" fill="black"/>
</svg>
