<svg width="24" height="24" viewBox="0 0 24 24" fill="none" xmlns="http://www.w3.org/2000/svg">
<path fill-rule="evenodd" clip-rule="evenodd" d="M8.85306 5.28219C10.1786 4.3543 12 5.30261 12 6.92066V11.0169C12.1408 10.7668 12.3398 10.5415 12.5969 10.3615L19.8531 5.28219C21.1786 4.3543 23 5.30261 23 6.92066V17.0793C23 18.6974 21.1786 19.6457 19.8531 18.7178L12.5968 13.6385C12.3398 13.4585 12.1408 13.2332 12 12.9831V17.0793C12 18.6974 10.1786 19.6457 8.85305 18.7178L1.59685 13.6385C0.459413 12.8423 0.459419 11.1577 1.59685 10.3615L8.85306 5.28219ZM9.99998 6.92066L2.74378 12L9.99998 17.0793V6.92066ZM21 6.92066L13.7438 12L21 17.0793V6.92066Z" fill="black"/>
</svg>
