<svg width="24" height="24" viewBox="0 0 24 24" fill="none" xmlns="http://www.w3.org/2000/svg">
<path fill-rule="evenodd" clip-rule="evenodd" d="M9.85748 3.51452C10.1416 3.04094 9.98806 2.42668 9.51448 2.14254C9.0409 1.85839 8.42664 2.01195 8.1425 2.48553L5.4338 7.00003H4.33121C2.49256 7.00003 1.08651 8.63892 1.3661 10.4562L2.62026 18.6083C2.92046 20.5596 4.59946 22 6.57375 22H17.4262C19.4005 22 21.0795 20.5596 21.3797 18.6083L22.6339 10.4562C22.9135 8.63893 21.5074 7.00003 19.6688 7.00003H18.5662L15.8575 2.48553C15.5733 2.01195 14.9591 1.85839 14.4855 2.14254C14.0119 2.42668 13.8583 3.04094 14.1425 3.51452L16.2338 7.00003H7.76618L9.85748 3.51452ZM3.34284 10.1521C3.24965 9.54633 3.71832 9.00003 4.33121 9.00003H19.6688C20.2817 9.00003 20.7503 9.54633 20.6571 10.1521L19.403 18.3041C19.2529 19.2798 18.4134 20 17.4262 20H6.57375C5.5866 20 4.7471 19.2798 4.597 18.3041L3.34284 10.1521ZM8.99998 12C8.99998 11.4477 8.55227 11 7.99998 11C7.4477 11 6.99998 11.4477 6.99998 12V16C6.99998 16.5523 7.4477 17 7.99998 17C8.55227 17 8.99998 16.5523 8.99998 16V12ZM12 11C12.5523 11 13 11.4477 13 12V16C13 16.5523 12.5523 17 12 17C11.4477 17 11 16.5523 11 16V12C11 11.4477 11.4477 11 12 11ZM17 12C17 11.4477 16.5523 11 16 11C15.4477 11 15 11.4477 15 12V16C15 16.5523 15.4477 17 16 17C16.5523 17 17 16.5523 17 16V12Z" fill="black"/>
</svg>
