<svg width="24" height="24" viewBox="0 0 24 24" fill="none" xmlns="http://www.w3.org/2000/svg">
<path fill-rule="evenodd" clip-rule="evenodd" d="M10.002 7.25629C8.76635 8.96266 8.3372 11.0722 8.71667 13.0612C8.7829 13.4084 8.66096 13.7648 8.39592 13.9986C8.13088 14.2324 7.76211 14.3089 7.42592 14.1999C6.04187 13.7511 4.46573 14.0758 3.36717 15.1685L3.36727 15.1686C4.2918 16.0931 5.55554 16.4712 6.76092 16.3003C7.07223 16.2562 7.38616 16.361 7.60846 16.5834C7.83076 16.8057 7.93554 17.1197 7.89135 17.4309C7.72018 18.6366 8.09821 19.9007 9.02296 20.8254L9.02348 20.826C10.1163 19.7272 10.4409 18.1508 9.9918 16.7666C9.88268 16.4303 9.95924 16.0613 10.1932 15.7963C10.4271 15.5312 10.7836 15.4093 11.1309 15.4757C13.1771 15.8672 15.3513 15.4028 17.0831 14.0847C14.1133 12.6829 11.3131 10.3585 10.002 7.25629ZM9.60582 4.69849C9.52475 4.77415 9.44468 4.85149 9.36566 4.93052C7.41601 6.88016 6.49163 9.46657 6.59042 12.0182C4.92476 11.9069 3.21991 12.4873 1.94524 13.7619C1.88265 13.8245 1.82169 13.8882 1.76237 13.9529C1.13234 14.6402 1.13086 15.6906 1.75905 16.3796C1.82187 16.4485 1.88654 16.5163 1.95305 16.5828C3.03962 17.6693 4.43974 18.2516 5.86071 18.3307C5.93956 19.7521 6.52185 21.1528 7.60874 22.2397C7.67546 22.3064 7.74341 22.3712 7.81254 22.4342C8.50162 23.0623 9.55184 23.0607 10.2391 22.4307C10.3037 22.3714 10.3674 22.3105 10.43 22.2479C11.7047 20.9732 12.2851 19.2683 12.1737 17.6026C14.7267 17.7025 17.3148 16.7782 19.2655 14.8275C19.3656 14.7274 19.463 14.6256 19.5577 14.5223C19.6243 14.4651 19.6839 14.3987 19.7342 14.3242C22.2632 11.4058 22.7179 7.3145 21.1032 3.97436C20.918 3.59126 20.6088 3.2818 20.2258 3.09628C16.911 1.49034 12.8545 1.92399 9.93888 4.40183C9.80516 4.4752 9.692 4.57741 9.60582 4.69849ZM11.5532 5.66952C12.4902 8.77411 15.3587 11.218 18.5834 12.5641C20.2481 10.3143 20.4946 7.34325 19.3192 4.87951C16.8266 3.6878 13.8135 3.95245 11.5532 5.66952ZM16.7835 5.9898C17.3693 6.57559 17.3693 7.52533 16.7835 8.11112C16.1977 8.69691 15.248 8.69691 14.6622 8.11112C14.0764 7.52533 14.0764 6.57559 14.6622 5.9898C15.248 5.40401 16.1977 5.40401 16.7835 5.9898Z" fill="black"/>
</svg>
