<svg width="24" height="24" viewBox="0 0 24 24" fill="none" xmlns="http://www.w3.org/2000/svg">
<path fill-rule="evenodd" clip-rule="evenodd" d="M11.0001 2.1115C8.99608 2.56622 7.50005 4.3584 7.50005 6.5C7.50005 6.93729 7.56242 7.36001 7.67876 7.75975L11.0001 5.10271V2.1115ZM8.67067 9.52746C9.27938 10.1965 10.087 10.6813 11.0001 10.8885V7.66395L8.67067 9.52746ZM13.0001 10.8885C13.9131 10.6813 14.7207 10.1965 15.3294 9.52746L13.0001 7.66397V10.8885ZM16.3213 7.75974C16.4377 7.36 16.5 6.93728 16.5 6.5C16.5 4.35842 15.0041 2.56626 13.0001 2.11152V5.10271L16.3213 7.75974ZM12 0C8.4102 0 5.50005 2.91015 5.50005 6.5C5.50005 10.0899 8.4102 13 12 13C15.5899 13 18.5 10.0899 18.5 6.5C18.5 2.91015 15.5899 0 12 0ZM15 20.0259C15.4602 20.2764 15.9843 20.3814 16.5 20.3329V22C16.5 22.5523 16.9478 23 17.5 23C18.0523 23 18.5 22.5523 18.5 22V19.2806L20.6268 17.5792C21.4769 16.8991 22.0131 15.902 22.1116 14.8179L22.4959 10.5905C22.5459 10.0405 22.1406 9.55411 21.5906 9.50411C21.0405 9.45411 20.5541 9.85945 20.5041 10.4095L20.1198 14.6368C20.0706 15.1789 19.8025 15.6774 19.3774 16.0175L17.1286 17.8165L16.6378 18.2091C16.3718 18.4219 15.9837 18.3788 15.7709 18.1128C15.6127 17.9151 15.5957 17.6494 15.7075 17.4385C15.8196 17.3057 15.9439 17.1818 16.0795 17.0688L17.6402 15.7682C17.7993 15.6356 17.9068 15.4641 17.9604 15.2791C18.0497 14.9707 17.9892 14.625 17.7683 14.3598C17.5583 14.1079 17.2508 13.9854 16.9467 14.0014C16.7387 14.0123 16.5322 14.0881 16.3599 14.2318L14.7991 15.5324L14.5773 15.7172C14.3774 15.8839 14.2085 16.0741 14.0714 16.2806C13.3835 17.1543 13 18.2416 13 19.3735V22C13 22.5523 13.4478 23 14 23C14.5523 23 15 22.5523 15 22V20.0259ZM5.50005 19.2806V22C5.50005 22.5523 5.94776 23 6.50005 23C7.05233 23 7.50005 22.5523 7.50005 22V20.3329C8.01583 20.3814 8.53988 20.2764 9.00005 20.0259V22C9.00005 22.5523 9.44776 23 10 23C10.5523 23 11 22.5523 11 22V19.3735C11 18.2416 10.6166 17.1543 9.92869 16.2806C9.79162 16.0741 9.62274 15.8839 9.42279 15.7172L9.20097 15.5324L7.64025 14.2318C7.46448 14.0853 7.25329 14.0093 7.04108 14.0008C6.74104 13.9887 6.43892 14.1113 6.23183 14.3598C5.92246 14.7311 5.92768 15.2602 6.21805 15.6236C6.25953 15.6755 6.30683 15.724 6.35986 15.7682M6.35986 15.7682L7.9206 17.0688C8.05622 17.1818 8.1805 17.3057 8.2926 17.4385C8.40436 17.6494 8.38736 17.9151 8.22919 18.1128C8.0164 18.3788 7.62826 18.4219 7.36226 18.2091L4.62265 16.0175C4.19762 15.6774 3.92954 15.1789 3.88026 14.6368L3.49596 10.4095C3.44596 9.85945 2.95955 9.45411 2.40953 9.50411C1.85951 9.55411 1.45417 10.0405 1.50417 10.5905L1.88847 14.8179C1.98703 15.902 2.5232 16.8991 3.37327 17.5792L5.50005 19.2806" fill="black"/>
</svg>
