<svg width="24" height="24" viewBox="0 0 24 24" fill="none" xmlns="http://www.w3.org/2000/svg">
<g clip-path="url(#clip0_895_52791)">
<path fill-rule="evenodd" clip-rule="evenodd" d="M23.7071 1.70711C24.0976 1.31658 24.0976 0.683417 23.7071 0.292893C23.3166 -0.0976311 22.6834 -0.0976311 22.2929 0.292893L0.292893 22.2929C-0.0976311 22.6834 -0.0976311 23.3166 0.292893 23.7071C0.683417 24.0976 1.31658 24.0976 1.70711 23.7071L6.22153 19.1927C7.79606 20.2404 9.72599 21 12 21C15.1542 21 17.6394 19.541 19.4414 17.8792C21.2384 16.222 22.4152 14.312 22.9876 13.2562C23.4149 12.4681 23.4142 11.5305 22.9873 10.7432C22.4096 9.67778 21.2079 7.72647 19.3641 6.05009L23.7071 1.70711ZM17.9481 7.46613L15.8099 9.60436C16.247 10.2985 16.5 11.121 16.5 12C16.5 14.4853 14.4853 16.5 12 16.5C11.1202 16.5 10.2981 16.2467 9.60438 15.8098L7.66969 17.7445C8.91004 18.5002 10.3506 19 12 19C14.4942 19 16.518 17.8545 18.0855 16.4089C19.6581 14.9588 20.7113 13.2585 21.2294 12.3029C21.3339 12.1102 21.334 11.8899 21.2291 11.6965C20.6928 10.7074 19.5928 8.93863 17.9481 7.46613ZM11.0862 14.328C11.369 14.4391 11.6771 14.5 12 14.5C13.3807 14.5 14.5 13.3807 14.5 12C14.5 11.6767 14.4391 11.3688 14.328 11.0862L11.0862 14.328ZM5.91445 7.59106C4.34191 9.04124 3.28866 10.7415 2.77053 11.6971C2.66638 11.8892 2.66613 12.1104 2.7713 12.3043C3.10199 12.9141 3.65644 13.838 4.43152 14.8079C4.7763 15.2393 4.70605 15.8686 4.27461 16.2134C3.84317 16.5582 3.21391 16.4879 2.86913 16.0565C2.00164 14.971 1.38405 13.9416 1.0132 13.2578C0.586532 12.471 0.584741 11.5325 1.01233 10.7438C1.58479 9.688 2.7616 7.77798 4.55858 6.1208C6.3606 4.45899 8.84582 3 12 3C12.8614 3 13.6769 3.10926 14.4447 3.3038C14.98 3.43946 15.3041 3.98343 15.1684 4.5188C15.0327 5.05416 14.4888 5.37819 13.9534 5.24253C13.3412 5.08739 12.6906 5 12 5C9.50573 5 7.48196 6.1455 5.91445 7.59106ZM11.4203 8.2749C11.6195 8.79001 11.3634 9.36907 10.8483 9.56828C10.2746 9.79013 9.80285 10.2157 9.52324 10.7635C9.27218 11.2555 8.66987 11.4507 8.17795 11.1997C7.68603 10.9486 7.49077 10.3463 7.74183 9.85437C8.24512 8.86823 9.09429 8.10223 10.1269 7.7029C10.642 7.5037 11.2211 7.75979 11.4203 8.2749Z" fill="black"/>
</g>
<defs>
<clipPath id="clip0_895_52791">
<rect width="24" height="24" fill="white"/>
</clipPath>
</defs>
</svg>
