<svg width="24" height="24" viewBox="0 0 24 24" fill="none" xmlns="http://www.w3.org/2000/svg">
<path fill-rule="evenodd" clip-rule="evenodd" d="M14.6569 1C13.3308 1 12.059 1.52678 11.1214 2.46447L2.91425 10.6716C1.35215 12.2337 1.35215 14.7663 2.91425 16.3284L7.67161 21.0858C9.23371 22.6479 11.7664 22.6479 13.3285 21.0858L21.5356 12.8787C22.4732 11.941 23 10.6692 23 9.34315V4C23 2.34315 21.6569 1 20 1H14.6569ZM12.5356 3.87868C13.0982 3.31607 13.8612 3 14.6569 3H20C20.5523 3 21 3.44772 21 4V9.34315C21 10.1388 20.684 10.9019 20.1214 11.4645L11.9142 19.6716C11.1332 20.4526 9.86687 20.4526 9.08582 19.6716L4.32846 14.9142C3.54741 14.1332 3.54741 12.8668 4.32846 12.0858L12.5356 3.87868ZM18 7.5C18 8.32843 17.3285 9 16.5 9C15.6716 9 15 8.32843 15 7.5C15 6.67157 15.6716 6 16.5 6C17.3285 6 18 6.67157 18 7.5Z" fill="black"/>
</svg>
