<svg width="24" height="24" viewBox="0 0 24 24" fill="none" xmlns="http://www.w3.org/2000/svg">
<g clip-path="url(#clip0_895_52911)">
<path fill-rule="evenodd" clip-rule="evenodd" d="M11.6667 2.99999C8.53706 2.99999 6 5.53705 6 8.66667L5.99999 17.25C5.99998 19.3211 7.67892 21 9.75 21C11.8211 21 13.5 19.3211 13.5 17.25L13.5 9.00005C13.5 8.17162 12.8284 7.50005 12 7.50005C11.1716 7.50005 10.5 8.17162 10.5 9.00005L10.5 16C10.5 16.5523 10.0523 17 9.50003 17C8.94775 17.0001 8.50003 16.5523 8.50003 16.0001L8.50001 9.00006C8.50001 7.06706 10.067 5.50005 12 5.50005C13.933 5.50005 15.5 7.06705 15.5 9.00004L15.5 17.25C15.5 20.4257 12.9257 23 9.75 23C6.57435 23 3.99998 20.4257 3.99999 17.25L4 8.66666C4 4.43247 7.4325 0.99999 11.6667 0.99999L12 0.99999C16.4183 0.99999 20 4.58172 20 9.00001L20 16C20 16.5523 19.5523 17 19 17C18.4477 17 18 16.5523 18 16L18 9.00001C18 5.68629 15.3137 2.99999 12 2.99999L11.6667 2.99999Z" fill="black"/>
</g>
<defs>
<clipPath id="clip0_895_52911">
<rect width="24" height="24" fill="white"/>
</clipPath>
</defs>
</svg>
