<svg width="24" height="24" viewBox="0 0 24 24" fill="none" xmlns="http://www.w3.org/2000/svg">
<path fill-rule="evenodd" clip-rule="evenodd" d="M15.9999 5C14.343 5 12.9999 6.34315 12.9999 8C12.9999 8.26032 13.0328 8.5115 13.0942 8.75022C13.1707 9.04769 13.1063 9.36382 12.9194 9.60761C12.7326 9.8514 12.4441 9.9958 12.1369 9.99924C12.0913 9.99975 12.0456 10 11.9999 10C8.98517 10 6.22961 8.88749 4.12246 7.05257C4.0419 7.52259 3.99988 8.00614 3.99988 8.5C3.99988 11.7125 5.78163 14.5103 8.41558 15.9565C8.74116 16.1352 8.94083 16.4797 8.93413 16.8511C8.92743 17.2224 8.71545 17.5595 8.38363 17.7264C7.67271 18.084 6.92146 18.3729 6.13877 18.5846C7.04525 18.8549 8.00589 19 9.00107 19C14.5239 19 19.0011 14.5228 19.0011 8.99999V8.99899C19.0011 8.68466 19.1489 8.38848 19.4001 8.19958C19.8512 7.86036 20.2277 7.42878 20.5018 6.93342C20.1735 6.97734 19.8388 6.99999 19.4991 6.99999L19.4595 6.99989C19.1044 6.99805 18.7769 6.80803 18.5991 6.50065C18.0789 5.60138 17.109 5 15.9999 5ZM11.0001 7.9507C11.0266 5.21198 13.2549 3 15.9999 3C17.6273 3 19.0721 3.77792 19.9842 4.97894C20.55 4.92961 21.0901 4.7948 21.5922 4.58796C21.9174 4.45402 22.289 4.50072 22.5709 4.71095C22.8528 4.92118 23.0036 5.26403 22.968 5.61389C22.8117 7.14791 22.0785 8.50926 20.9917 9.47875C20.7404 15.8842 15.4682 21 9.00107 21C6.4302 21 4.04543 20.1904 2.09166 18.8123C1.73107 18.558 1.57981 18.0974 1.7194 17.6788C1.859 17.2602 2.25645 16.9826 2.69751 16.9956C2.79736 16.9985 2.89761 17 2.99823 17C3.97742 17 4.92274 16.8596 5.81575 16.5979C3.48626 14.6729 1.99988 11.7605 1.99988 8.5C1.99988 7.18736 2.24122 5.92876 2.68285 4.76774C2.80852 4.43734 3.09929 4.19784 3.44765 4.1378C3.79601 4.07775 4.15018 4.20608 4.37922 4.47534C6.01208 6.39495 8.35424 7.68823 11.0001 7.9507Z" fill="black"/>
</svg>
