<svg width="24" height="24" viewBox="0 0 24 24" fill="none" xmlns="http://www.w3.org/2000/svg">
<path fill-rule="evenodd" clip-rule="evenodd" d="M11 5.95597C11 5.30487 10.2273 4.96303 9.74549 5.40102L3.09706 11.4451C2.76973 11.7426 2.76973 12.2574 3.09706 12.555L9.7455 18.599C10.2273 19.037 11 18.6951 11 18.044V16.0494C11 15.5354 11.3897 15.1051 11.9012 15.0543C12.2629 15.0184 12.6295 15 13 15C16.1467 15 18.9856 16.3224 20.9893 18.4388C21.0898 16.3817 20.4814 14.3454 19.2561 12.6755C17.9172 10.851 15.9401 9.59778 13.7187 9.16562C13.1485 9.0547 12.5731 8.99996 12 8.99997C11.7348 8.99998 11.4804 8.89462 11.2929 8.70708C11.1054 8.51955 11 8.26519 11 7.99997V5.95597ZM8.40015 3.92114C10.1667 2.31521 13 3.56858 13 5.95597V7.04552C13.3678 7.0791 13.7351 7.13132 14.1006 7.20243C16.8157 7.73062 19.2321 9.26231 20.8685 11.4923C22.5049 13.7224 23.2411 16.487 22.9304 19.2355C22.8363 20.0679 22.2181 20.5762 21.5676 20.7032C20.9484 20.824 20.2522 20.622 19.7832 20.0847C18.1319 18.1928 15.7059 17 13 17C13 17 13 17 13 17V18.044C13 20.4314 10.1667 21.6848 8.40015 20.0789L1.75171 14.0348C0.551513 12.9438 0.551512 11.0563 1.75171 9.96517L8.40015 3.92114Z" fill="black"/>
</svg>
