<svg width="24" height="24" viewBox="0 0 24 24" fill="none" xmlns="http://www.w3.org/2000/svg">
<path fill-rule="evenodd" clip-rule="evenodd" d="M8.26759 1C7.76606 1 7.29772 1.25065 7.01952 1.66795L6.43907 2.53862C5.9869 3.21687 6.15916 4.13207 6.82695 4.59952L9.40426 6.40364C5.97936 7.50079 3.5 10.7109 3.5 14.5C3.5 19.1944 7.30558 23 12 23C16.6944 23 20.5 19.1944 20.5 14.5C20.5 10.7109 18.0206 7.50079 14.5957 6.40364L17.173 4.59952C17.8408 4.13207 18.0131 3.21687 17.5609 2.53862L16.9805 1.66795C16.7023 1.25065 16.2339 1 15.7324 1H8.26759ZM8.37429 3.24135L8.53518 3H15.4648L15.6257 3.24135L12 5.77934L8.37429 3.24135ZM5.5 14.5C5.5 10.9101 8.41015 8 12 8C15.5899 8 18.5 10.9101 18.5 14.5C18.5 18.0899 15.5899 21 12 21C8.41015 21 5.5 18.0899 5.5 14.5Z" fill="black"/>
</svg>
