<svg width="24" height="24" viewBox="0 0 24 24" fill="none" xmlns="http://www.w3.org/2000/svg">
<path fill-rule="evenodd" clip-rule="evenodd" d="M11.6006 3.81363C11.8212 3.59305 12.1788 3.59305 12.3994 3.81363C14.1273 5.54154 16.6799 6.14931 19 5.38738V12.566C19 14.9796 17.7567 17.2229 15.71 18.502L12.53 20.4895C12.2057 20.6922 11.7943 20.6922 11.47 20.4895L8.29001 18.502C6.24334 17.2229 5 14.9796 5 12.566V5.38738C7.32009 6.14931 9.87269 5.54154 11.6006 3.81363ZM13.8136 2.39942C12.812 1.39779 11.188 1.39779 10.1864 2.39942C8.98733 3.59848 7.21372 4.01717 5.60502 3.48093L5.40894 3.41557C4.22384 3.02054 3 3.90264 3 5.15184V12.566C3 15.6691 4.59858 18.5534 7.23001 20.198L10.41 22.1855C11.3828 22.7935 12.6172 22.7935 13.59 22.1855L16.77 20.198C19.4014 18.5534 21 15.6691 21 12.566V5.15184C21 3.90264 19.7762 3.02054 18.5911 3.41557L18.395 3.48093C16.7863 4.01717 15.0127 3.59848 13.8136 2.39942ZM9.75 10.2677V9.5C9.75 8.25736 10.7574 7.25 12 7.25C13.2426 7.25 14.25 8.25736 14.25 9.5V10.2677C15.0981 10.389 15.75 11.1184 15.75 12V14C15.75 14.9665 14.9665 15.75 14 15.75H10C9.0335 15.75 8.25 14.9665 8.25 14V12C8.25 11.1184 8.90193 10.389 9.75 10.2677ZM12.75 10.25H11.25V9.5C11.25 9.08579 11.5858 8.75 12 8.75C12.4142 8.75 12.75 9.08579 12.75 9.5V10.25Z" fill="black"/>
</svg>
