<svg width="24" height="24" viewBox="0 0 24 24" fill="none" xmlns="http://www.w3.org/2000/svg">
<path fill-rule="evenodd" clip-rule="evenodd" d="M11 4.06189C7.05369 4.55399 4 7.92038 4 12C4 16.4183 7.58172 20 12 20C16.0796 20 19.446 16.9463 19.9381 13H16.9C16.4367 15.2822 14.419 17 12 17C9.23858 17 7 14.7614 7 12C7 9.58104 8.71776 7.56329 11 7.10002V4.06189ZM12 22C17.5228 22 22 17.5228 22 12C22 8.59053 20.2937 5.57958 17.6885 3.77448C17.6407 3.72926 17.5878 3.68809 17.5299 3.65189C17.4899 3.62688 17.4488 3.60505 17.4069 3.58632C15.848 2.58244 13.992 2 12 2C6.47715 2 2 6.47715 2 12C2 17.5228 6.47715 22 12 22ZM15.5996 4.85361C14.8006 4.45039 13.9248 4.17722 13 4.06189V7.10002C13.3472 7.1705 13.6814 7.27698 13.9985 7.41537L15.5996 4.85361ZM15.6364 8.56827C16.2639 9.23293 16.7111 10.0696 16.9 11H19.9381C19.6889 9.00132 18.7024 7.23161 17.2593 5.97161L15.6364 8.56827ZM12 9C13.6569 9 15 10.3431 15 12C15 13.6569 13.6569 15 12 15C10.3431 15 9 13.6569 9 12C9 10.3431 10.3431 9 12 9Z" fill="black"/>
</svg>
