<svg width="24" height="24" viewBox="0 0 24 24" fill="none" xmlns="http://www.w3.org/2000/svg">
<path fill-rule="evenodd" clip-rule="evenodd" d="M13.6383 2.59673C12.842 1.45929 11.1575 1.45929 10.3613 2.59673L5.28198 9.85293C4.39186 11.1245 5.22831 12.8524 6.72628 12.991L4.51868 15.7505C3.47106 17.06 4.4034 18.9999 6.08041 18.9999H11V21.9999C11 22.5521 11.4477 22.9999 12 22.9999C12.5523 22.9999 13 22.5521 13 21.9999V18.9999H17.9192C19.5962 18.9999 20.5285 17.06 19.4809 15.7505L17.2733 12.991C18.7713 12.8524 19.6077 11.1245 18.7176 9.85293L13.6383 2.59673ZM12 16.9999L17.9192 16.9999L14.4189 12.6246C14.1788 12.3244 14.132 11.9131 14.2985 11.5667C14.465 11.2202 14.8154 10.9999 15.1998 10.9999L17.0791 10.9999L11.9998 3.74365L6.92045 10.9999L6.10121 10.4264L6.92044 10.9999H8.79979C9.18419 10.9999 9.53457 11.2202 9.70109 11.5667C9.86761 11.9131 9.82079 12.3244 9.58066 12.6246L6.08041 16.9999L12 16.9999Z" fill="black"/>
</svg>
