<svg width="24" height="24" viewBox="0 0 24 24" fill="none" xmlns="http://www.w3.org/2000/svg">
<path fill-rule="evenodd" clip-rule="evenodd" d="M21.2929 16.7929C21.6834 16.4024 22.3166 16.4024 22.7071 16.7929C23.0976 17.1834 23.0976 17.8166 22.7071 18.2071L19.2071 21.7071C18.8166 22.0976 18.1834 22.0976 17.7929 21.7071L14.2929 18.2071C13.9024 17.8166 13.9024 17.1834 14.2929 16.7929C14.6834 16.4024 15.3166 16.4024 15.7071 16.7929L17.5 18.5858L17.5 5.41421L15.7071 7.20711C15.3166 7.59763 14.6834 7.59763 14.2929 7.20711C13.9024 6.81658 13.9024 6.18342 14.2929 5.79289L17.7929 2.29289C18.1834 1.90237 18.8166 1.90237 19.2071 2.29289L22.7071 5.79289C23.0976 6.18342 23.0976 6.81658 22.7071 7.20711C22.3166 7.59763 21.6834 7.59763 21.2929 7.20711L19.5 5.41421V18.5858L21.2929 16.7929ZM12.274 8.2712C13.4755 9.11222 12.8804 11 11.4138 11L3.5 11C2.67157 11 2 10.3285 2 9.50005V3.96037C2 2.74684 3.36603 2.03561 4.36019 2.73153L12.274 8.2712ZM9.82763 9.00005L4 4.9207L4 9.00005H9.82763ZM12.274 15.7288C13.4755 14.8878 12.8804 13 11.4138 13H3.5C2.67157 13 2 13.6715 2 14.5V20.0396C2 21.2532 3.36603 21.9644 4.36019 21.2685L12.274 15.7288ZM9.82763 15L4 19.0793L4 15H9.82763Z" fill="black"/>
</svg>
