<svg width="24" height="24" viewBox="0 0 24 24" fill="none" xmlns="http://www.w3.org/2000/svg">
<path fill-rule="evenodd" clip-rule="evenodd" d="M4.20842 9.2987C4.96881 6.25465 7.72031 4 11 4C14.5375 4 17.4621 6.62403 17.9336 10.0318C18.1197 10.0108 18.3087 10 18.5 10C21.2614 10 23.5 12.2386 23.5 15C23.5 17.7614 21.2614 20 18.5 20H6C2.96243 20 0.5 17.5376 0.5 14.5C0.5 12.0889 2.05058 10.042 4.20842 9.2987ZM11 6C8.49533 6 6.41922 7.84261 6.05634 10.246C5.99403 10.6586 5.68206 10.9892 5.27373 11.0752C3.68909 11.4091 2.5 12.8169 2.5 14.5C2.5 16.433 4.067 18 6 18H18.5C20.1569 18 21.5 16.6569 21.5 15C21.5 13.3431 20.1569 12 18.5 12C18.0983 12 17.7174 12.0784 17.3699 12.2198C17.0537 12.3486 16.6936 12.307 16.415 12.1097C16.1364 11.9124 15.9777 11.5865 15.9941 11.2455C15.998 11.1642 16 11.0824 16 11C16 8.23858 13.7614 6 11 6Z" fill="black"/>
</svg>
