<svg width="24" height="24" viewBox="0 0 24 24" fill="none" xmlns="http://www.w3.org/2000/svg">
<path fill-rule="evenodd" clip-rule="evenodd" d="M12 4C10.8954 4 10 4.89543 10 6C10 7.10457 10.8954 8 12 8C13.1046 8 14 7.10457 14 6C14 4.89543 13.1046 4 12 4ZM8 6C8 3.79086 9.79086 2 12 2C14.2091 2 16 3.79086 16 6C16 7.35714 15.3241 8.55643 14.2906 9.27962C15.8293 9.69888 16.788 10.5433 17.3461 11.4935C17.663 12.033 17.8267 12.5668 17.911 13H21C21.5523 13 22 13.4477 22 14C22 14.5523 21.5523 15 21 15H20V21C20 21.5523 19.5523 22 19 22C18.4477 22 18 21.5523 18 21V15H17.0071C17.0011 15.0001 16.995 15.0001 16.9889 15H7.01159C7.00517 15.0001 6.99876 15.0001 6.99237 15H6V21C6 21.5523 5.55228 22 5 22C4.44772 22 4 21.5523 4 21V15H3C2.44772 15 2 14.5523 2 14C2 13.4477 2.44772 13 3 13H6.08904C6.17335 12.5668 6.33695 12.033 6.65388 11.4935C7.21204 10.5433 8.17068 9.69887 9.70939 9.27962C8.67588 8.55643 8 7.35714 8 6ZM8.15354 13H15.8465C15.792 12.8398 15.719 12.6723 15.6217 12.5065C15.2422 11.8606 14.3525 11 12 11C9.6475 11 8.7578 11.8606 8.37835 12.5065C8.28096 12.6723 8.20799 12.8398 8.15354 13ZM12.5656 16.8634C12.377 16.5118 11.8729 16.5118 11.6844 16.8634L11.1015 17.95L9.88792 18.1686C9.49532 18.2393 9.33955 18.7187 9.61561 19.0067L10.4689 19.8968L10.3018 21.1185C10.2477 21.5137 10.6555 21.81 11.0147 21.6365L12.125 21.1L13.2352 21.6365C13.5944 21.81 14.0022 21.5137 13.9482 21.1185L13.781 19.8968L14.6343 19.0067C14.9104 18.7187 14.7546 18.2393 14.362 18.1686L13.1485 17.95L12.5656 16.8634Z" fill="black"/>
</svg>
