<svg width="24" height="24" viewBox="0 0 24 24" fill="none" xmlns="http://www.w3.org/2000/svg">
<path fill-rule="evenodd" clip-rule="evenodd" d="M12 4C7.58172 4 4 7.58172 4 12C4 16.4183 7.58172 20 12 20C16.4183 20 20 16.4183 20 12C20 7.58172 16.4183 4 12 4ZM2 12C2 6.47715 6.47715 2 12 2C17.5228 2 22 6.47715 22 12C22 17.5228 17.5228 22 12 22C6.47715 22 2 17.5228 2 12ZM11.7684 5.32808C11.8675 5.14327 12.1325 5.14327 12.2316 5.32808L12.6489 6.106L13.5177 6.26248C13.7241 6.29965 13.806 6.55169 13.6609 6.70309L13.05 7.34034L13.1696 8.21497C13.1981 8.42275 12.9837 8.57852 12.7948 8.48728L12 8.10321L11.2051 8.48728C11.0163 8.57853 10.8019 8.42275 10.8303 8.21497L10.95 7.34034L10.3391 6.70309C10.194 6.55169 10.2759 6.29965 10.4823 6.26248L11.3511 6.106L11.7684 5.32808ZM12.6489 16.306L12.2316 15.5281C12.1325 15.3433 11.8675 15.3433 11.7684 15.5281L11.3511 16.306L10.4823 16.4625C10.2759 16.4997 10.194 16.7517 10.3391 16.9031L10.95 17.5404L10.8303 18.415C10.8019 18.6228 11.0163 18.7785 11.2051 18.6873L12 18.3032L12.7948 18.6873C12.9837 18.7785 13.1981 18.6228 13.1696 18.415L13.05 17.5404L13.6609 16.9031C13.806 16.7517 13.7241 16.4997 13.5177 16.4625L12.6489 16.306ZM15.3746 6.82182C15.4737 6.63702 15.7388 6.63701 15.8379 6.82182L16.2552 7.59974L17.124 7.75622C17.3304 7.7934 17.4123 8.04544 17.2671 8.19683L16.6563 8.83409L16.7759 9.70871C16.8043 9.9165 16.5899 10.0723 16.4011 9.98103L15.6063 9.59696L14.8114 9.98103C14.6226 10.0723 14.4082 9.9165 14.4366 9.70871L14.5563 8.83409L13.9454 8.19683C13.8002 8.04544 13.8821 7.7934 14.0885 7.75622L14.9573 7.59974L15.3746 6.82182ZM8.62543 14.0343C8.5263 13.8495 8.26129 13.8495 8.16215 14.0343L7.74486 14.8122L6.87606 14.9687C6.66967 15.0059 6.58777 15.2579 6.7329 15.4093L7.34379 16.0466L7.22414 16.9212C7.19572 17.129 7.41012 17.2848 7.59895 17.1935L8.39379 16.8095L9.18864 17.1935C9.37747 17.2848 9.59187 17.129 9.56344 16.9212L9.44379 16.0466L10.0547 15.4093C10.1998 15.2579 10.1179 15.0059 9.91152 14.9687L9.04273 14.8122L8.62543 14.0343ZM8.16209 6.82184C8.26123 6.63703 8.52624 6.63703 8.62537 6.82184L9.04267 7.59976L9.91146 7.75624C10.1179 7.79341 10.1998 8.04545 10.0546 8.19685L9.44373 8.83411L9.56338 9.70873C9.59181 9.91652 9.37741 10.0723 9.18858 9.98104L8.39373 9.59697L7.59889 9.98104C7.41006 10.0723 7.19566 9.91652 7.22408 9.70873L7.34373 8.83411L6.73284 8.19685C6.58771 8.04545 6.66961 7.79341 6.876 7.75624L7.7448 7.59976L8.16209 6.82184ZM15.8379 14.0343C15.7388 13.8495 15.4737 13.8495 15.3746 14.0343L14.9573 14.8122L14.0885 14.9687C13.8821 15.0059 13.8002 15.2579 13.9454 15.4093L14.5563 16.0466L14.4366 16.9212C14.4082 17.129 14.6226 17.2848 14.8114 17.1935L15.6063 16.8095L16.4011 17.1935C16.5899 17.2848 16.8043 17.129 16.7759 16.9212L16.6563 16.0466L17.2671 15.4093C17.4123 15.2579 17.3304 15.0059 17.124 14.9687L16.2552 14.8122L15.8379 14.0343ZM16.8683 10.4281C16.9675 10.2433 17.2325 10.2433 17.3316 10.4281L17.7489 11.206L18.6177 11.3625C18.8241 11.3997 18.906 11.6517 18.7609 11.8031L18.15 12.4404L18.2696 13.315C18.298 13.5228 18.0836 13.6785 17.8948 13.5873L17.1 13.2032L16.3051 13.5873C16.1163 13.6785 15.9019 13.5228 15.9303 13.315L16.05 12.4404L15.4391 11.8031C15.2939 11.6517 15.3758 11.3997 15.5822 11.3625L16.451 11.206L16.8683 10.4281ZM7.1316 10.4281C7.03246 10.2433 6.76745 10.2433 6.66831 10.4281L6.25102 11.206L5.38223 11.3625C5.17583 11.3997 5.09394 11.6517 5.23907 11.8031L5.84996 12.4404L5.73031 13.315C5.70188 13.5228 5.91628 13.6785 6.10511 13.5873L6.89996 13.2032L7.6948 13.5873C7.88363 13.6785 8.09803 13.5228 8.06961 13.315L7.94996 12.4404L8.56085 11.8031C8.70598 11.6517 8.62408 11.3997 8.41769 11.3625L7.54889 11.206L7.1316 10.4281Z" fill="black"/>
</svg>
