<svg width="24" height="24" viewBox="0 0 24 24" fill="none" xmlns="http://www.w3.org/2000/svg">
<path fill-rule="evenodd" clip-rule="evenodd" d="M3.5 4.5C1.84315 4.5 0.5 5.84315 0.5 7.5V16.5C0.5 18.1569 1.84315 19.5 3.5 19.5H20.5C22.1569 19.5 23.5 18.1569 23.5 16.5V7.5C23.5 5.84315 22.1569 4.5 20.5 4.5H3.5ZM2.5 7.5C2.5 6.94772 2.94772 6.5 3.5 6.5H20.5C21.0523 6.5 21.5 6.94772 21.5 7.5V16.5C21.5 17.0523 21.0523 17.5 20.5 17.5H3.5C2.94772 17.5 2.5 17.0523 2.5 16.5V7.5ZM18.5 13.5C19.3284 13.5 20 12.8284 20 12C20 11.1716 19.3284 10.5 18.5 10.5C17.6716 10.5 17 11.1716 17 12C17 12.8284 17.6716 13.5 18.5 13.5ZM7 12C7 12.8284 6.32843 13.5 5.5 13.5C4.67157 13.5 4 12.8284 4 12C4 11.1716 4.67157 10.5 5.5 10.5C6.32843 10.5 7 11.1716 7 12ZM10 12C10 10.8954 10.8954 10 12 10C13.1046 10 14 10.8954 14 12C14 13.1046 13.1046 14 12 14C10.8954 14 10 13.1046 10 12ZM12 8C9.79086 8 8 9.79086 8 12C8 14.2091 9.79086 16 12 16C14.2091 16 16 14.2091 16 12C16 9.79086 14.2091 8 12 8Z" fill="black"/>
</svg>
