<svg width="24" height="24" viewBox="0 0 24 24" fill="none" xmlns="http://www.w3.org/2000/svg">
<path fill-rule="evenodd" clip-rule="evenodd" d="M12.2951 4.53156C12.883 4.12549 13.5966 3.9426 14.3073 4.01579C15.0181 4.08899 15.6794 4.41347 16.1722 4.93084C16.665 5.44821 16.957 6.12449 16.9956 6.83797C17.0342 7.55145 16.8169 8.25528 16.3827 8.82279C16.0472 9.26144 16.1308 9.88907 16.5694 10.2246C17.0081 10.5602 17.6357 10.4766 17.9712 10.038C18.6948 9.09213 19.057 7.91908 18.9927 6.72994C18.9284 5.5408 18.4417 4.41367 17.6204 3.55139C16.799 2.68911 15.6968 2.14831 14.5122 2.02631C13.3276 1.90432 12.1383 2.20914 11.1585 2.88593C10.704 3.1998 10.5901 3.82262 10.904 4.27705C11.2178 4.73148 11.8407 4.84543 12.2951 4.53156ZM17.8733 10.666C17.3609 10.4599 16.7785 10.7081 16.5723 11.2205C16.3661 11.7329 16.6144 12.3153 17.1268 12.5215C19.1258 13.3258 19.7365 14.9221 19.9236 16H19.5C18.9477 16 18.5 16.4477 18.5 17C18.5 17.5523 18.9477 18 19.5 18H20.0628C21.0757 18 22.1037 17.1681 21.937 15.9361C21.7441 14.5099 20.9478 11.9031 17.8733 10.666ZM10 8C8.34315 8 7 9.34315 7 11C7 12.6569 8.34315 14 10 14C11.6569 14 13 12.6569 13 11C13 9.34315 11.6569 8 10 8ZM5 11C5 8.23858 7.23858 6 10 6C12.7614 6 15 8.23858 15 11C15 12.3821 14.4393 13.6332 13.5329 14.5382C14.3287 14.8162 14.9988 15.1903 15.5598 15.6326C16.8041 16.6138 17.4162 17.8554 17.7138 18.8795C17.966 19.7474 17.7101 20.5672 17.1775 21.1392C16.6629 21.6918 15.9112 22 15.1298 22L4.87028 22C4.08881 22 3.33714 21.6918 2.82255 21.1392C2.28992 20.5672 2.03403 19.7474 2.28625 18.8795C2.58386 17.8554 3.1959 16.6138 4.44025 15.6326C5.00123 15.1903 5.67135 14.8162 6.46714 14.5382C5.56074 13.6332 5 12.3821 5 11ZM4.2068 19.4376C4.42172 18.698 4.84501 17.8604 5.67856 17.2032C6.50624 16.5506 7.8344 16 10 16C12.1656 16 13.4938 16.5506 14.3215 17.2032C15.155 17.8604 15.5783 18.698 15.7932 19.4376C15.8343 19.5788 15.8037 19.6797 15.7138 19.7762C15.606 19.892 15.3991 20 15.1298 20L4.87028 20C4.60092 20 4.39409 19.8921 4.2862 19.7762C4.19636 19.6797 4.16579 19.5788 4.2068 19.4376Z" fill="black"/>
</svg>
