<svg width="24" height="24" viewBox="0 0 24 24" fill="none" xmlns="http://www.w3.org/2000/svg">
<path fill-rule="evenodd" clip-rule="evenodd" d="M5 5C5.94459 3.74055 7.42869 3 9.00195 3H9.02476H9.04754H9.07028H9.09299H9.11567H9.13832H9.16093H9.18351H9.20606H9.22857H9.25106H9.27351H9.29593H9.31832H9.34067H9.363H9.38529H9.40756H9.42979H9.45199H9.47416H9.4963H9.5184H9.54048H9.56253H9.58455H9.60653H9.62849H9.65042H9.67231H9.69418H9.71602H9.73782H9.7596H9.78135H9.80307H9.82476H9.84643H9.86806H9.88966H9.91124H9.93279H9.95431H9.9758H9.99726H10.0187H10.0401H10.0615H10.0828H10.1042H10.1255H10.1467H10.168H10.1892H10.2104H10.2315H10.2527H10.2738H10.2949H10.3159H10.337H10.358H10.3789H10.3999H10.4208H10.4417H10.4626H10.4835H10.5043H10.5251H10.5459H10.5666H10.5873H10.608H10.6287H10.6494H10.67H10.6906H10.7112H10.7317H10.7523H10.7728H10.7933H10.8137H10.8342H10.8546H10.875H10.8954H10.9157H10.936H10.9563H10.9766H10.9969H11.0171H11.0373H11.0575H11.0777H11.0978H11.118H11.1381H11.1582H11.1782H11.1983H11.2183H11.2383H11.2583H11.2782H11.2982H11.3181H11.338H11.3578H11.3777H11.3975H11.4174H11.4372H11.4569H11.4767H11.4964H11.5161H11.5359H11.5555H11.5752H11.5948H11.6145H11.6341H11.6537H11.6732H11.6928H11.7123H11.7318H11.7513H11.7708H11.7903H11.8097H11.8292H11.8486H11.868H11.8873H11.9067H11.926H11.9454H11.9647H11.984H12.0033H12.0225H12.0418H12.061H12.0802H12.0994H12.1186H12.1378H12.1569H12.1761H12.1952H12.2143H12.2334H12.2525H12.2715H12.2906H12.3096H12.3286H12.3476H12.3666H12.3856H12.4046H12.4235H12.4425H12.4614H12.4803H12.4992H12.5181H12.537H12.5558H12.5747H12.5935H12.6123H12.6312H12.65H12.6687H12.6875H12.7063H12.725H12.7438H12.7625H12.7812H12.7999H12.8186H12.8373H12.856H12.8746H12.8933H12.9119H12.9306H12.9492H12.9678H12.9864H13.005H13.0236H13.0421H13.0607H13.0793H13.0978H13.1163H13.1349H13.1534H13.1719H13.1904H13.2089H13.2274H13.2458H13.2643H13.2828H13.3012H13.3196H13.3381H13.3565H13.3749H13.3933H13.4117H13.4301H13.4485H13.4669H13.4853H13.5037H13.522H13.5404H13.5587H13.5771H13.5954H13.6137H13.6321H13.6504H13.6687H13.687H13.7053H13.7236H13.7419H13.7602H13.7785H13.7968H13.815H13.8333H13.8516H13.8698H13.8881H13.9063H13.9246H13.9428H13.9611H13.9793H13.9976H14.0158H14.034H14.0522H14.0705H14.0887H14.1069H14.1251H14.1433H14.1615H14.1797H14.198H14.2162H14.2344H14.2526H14.2708H14.289H14.3072H14.3253H14.3435H14.3617H14.3799H14.3981H14.4163H14.4345H14.4527H14.4709H14.4891H14.5072H14.5254H14.5436H14.5618H14.58H14.5982H14.6164H14.6346H14.6528H14.671H14.6891H14.7073H14.7255H14.7437H14.7619H14.7801H14.7983H14.8165H14.8348H14.853H14.8712H14.8894H14.9076H14.9258H14.944H14.9623H14.9805H14.9987H15.017H15.0352H15.0534H15.0717H15.0899H15.1082H15.1265H15.1447H15.163H15.1812H15.1995H15.2178H15.2361H15.2544H15.2727H15.291H15.3093H15.3276H15.3459H15.3642H15.3825H15.4009H15.4192H15.4375H15.4559H15.4742H15.4926H15.511H15.5294H15.5477H15.5661H15.5845H15.6029H15.6213H15.6397H15.6582H15.6766H15.695H15.7135H15.7319H15.7504H15.7689H15.7874H15.8059H15.8244H15.8429H15.8614H15.8799H15.8984H15.917H15.9355H15.9541H15.9726H15.9912H16.0098H16.0284H16.047H16.0656H16.0843H16.1029H16.1216H16.1402H16.1589H16.1776H16.1963H16.215H16.2337H16.2524H16.2712H16.2899H16.3087H16.3274H16.3462H16.365H16.3838H16.4026H16.4215H16.4403H16.4592H16.4781H16.4969H16.5158H16.5347H16.5537H16.5726H16.5916H16.6105H16.6295H16.6485H16.6675H16.6865H16.7055H16.7246H16.7437H16.7627H16.7818H16.8009H16.82H16.8392H16.8583H16.8775H16.8967H16.9159H16.9351H16.9543H16.9736H16.9928H17.0121H17.0314H17.0507H17.07H17.0894H17.1087H17.1281H17.1475H17.1669H17.1863H17.2058H17.2252H17.2447H17.2642H17.2837H17.3032H17.3228H17.3424H17.3619H17.3815H17.4012H17.4208H17.4405H17.4601H17.4798H17.4996H17.5193H17.539H17.5588H17.5786H17.5984H17.6183H17.6381H17.658H17.6779H17.6978H17.7177H17.7377H17.7577H17.7777H17.7977H17.8177H17.8378H17.8578H17.8779H17.8981H17.9182H17.9384H17.9586H17.9788H17.999H18.0193H18.0395H18.0598H18.0802H18.1005H18.1209H18.1413H18.1617H18.1821H18.2026H18.223H18.2435H18.2641H18.2846H18.3052H18.3258H18.3464H18.3671H18.3877H18.4084H18.4292H18.4499H18.4707H18.4915H18.5123H18.5331H18.554H18.5749H18.5958H18.6168H18.6378H18.6588H18.6798H18.7008H18.7219H18.743H18.7642H18.7853H18.8065H18.8277H18.8489H18.8702H18.8915H18.9128H18.9342H18.9555H18.9769H18.9984C21.2068 3 23 4.79016 23 7V17C23 19.2091 21.2091 21 19 21H9C7.42621 21 5.94427 20.259 5 19L1.1 13.8C0.3 12.7333 0.3 11.2667 1.1 10.2L5 5ZM9.00195 5C8.05715 5 7.16625 5.44501 6.6 6.2L2.7 11.4C2.43333 11.7556 2.43333 12.2444 2.7 12.6L6.6 17.8C7.16656 18.5554 8.05573 19 9 19H19C20.1046 19 21 18.1046 21 17V7C21 5.89614 20.1036 5 18.9984 5H18.9769H18.9555H18.9342H18.9128H18.8915H18.8702H18.8489H18.8277H18.8065H18.7853H18.7642H18.743H18.7219H18.7008H18.6798H18.6588H18.6378H18.6168H18.5958H18.5749H18.554H18.5331H18.5123H18.4915H18.4707H18.4499H18.4292H18.4084H18.3877H18.3671H18.3464H18.3258H18.3052H18.2846H18.2641H18.2435H18.223H18.2026H18.1821H18.1617H18.1413H18.1209H18.1005H18.0802H18.0598H18.0395H18.0193H17.999H17.9788H17.9586H17.9384H17.9182H17.8981H17.8779H17.8578H17.8378H17.8177H17.7977H17.7777H17.7577H17.7377H17.7177H17.6978H17.6779H17.658H17.6381H17.6183H17.5984H17.5786H17.5588H17.539H17.5193H17.4996H17.4798H17.4601H17.4405H17.4208H17.4012H17.3815H17.3619H17.3424H17.3228H17.3032H17.2837H17.2642H17.2447H17.2252H17.2058H17.1863H17.1669H17.1475H17.1281H17.1087H17.0894H17.07H17.0507H17.0314H17.0121H16.9928H16.9736H16.9543H16.9351H16.9159H16.8967H16.8775H16.8583H16.8392H16.82H16.8009H16.7818H16.7627H16.7437H16.7246H16.7055H16.6865H16.6675H16.6485H16.6295H16.6105H16.5916H16.5726H16.5537H16.5347H16.5158H16.4969H16.4781H16.4592H16.4403H16.4215H16.4026H16.3838H16.365H16.3462H16.3274H16.3087H16.2899H16.2712H16.2524H16.2337H16.215H16.1963H16.1776H16.1589H16.1402H16.1216H16.1029H16.0843H16.0656H16.047H16.0284H16.0098H15.9912H15.9726H15.9541H15.9355H15.917H15.8984H15.8799H15.8614H15.8429H15.8244H15.8059H15.7874H15.7689H15.7504H15.7319H15.7135H15.695H15.6766H15.6582H15.6397H15.6213H15.6029H15.5845H15.5661H15.5477H15.5294H15.511H15.4926H15.4742H15.4559H15.4375H15.4192H15.4009H15.3825H15.3642H15.3459H15.3276H15.3093H15.291H15.2727H15.2544H15.2361H15.2178H15.1995H15.1812H15.163H15.1447H15.1265H15.1082H15.0899H15.0717H15.0534H15.0352H15.017H14.9987H14.9805H14.9623H14.944H14.9258H14.9076H14.8894H14.8712H14.853H14.8348H14.8165H14.7983H14.7801H14.7619H14.7437H14.7255H14.7073H14.6891H14.671H14.6528H14.6346H14.6164H14.5982H14.58H14.5618H14.5436H14.5254H14.5072H14.4891H14.4709H14.4527H14.4345H14.4163H14.3981H14.3799H14.3617H14.3435H14.3253H14.3072H14.289H14.2708H14.2526H14.2344H14.2162H14.198H14.1797H14.1615H14.1433H14.1251H14.1069H14.0887H14.0705H14.0522H14.034H14.0158H13.9976H13.9793H13.9611H13.9428H13.9246H13.9063H13.8881H13.8698H13.8516H13.8333H13.815H13.7968H13.7785H13.7602H13.7419H13.7236H13.7053H13.687H13.6687H13.6504H13.6321H13.6137H13.5954H13.5771H13.5587H13.5404H13.522H13.5037H13.4853H13.4669H13.4485H13.4301H13.4117H13.3933H13.3749H13.3565H13.3381H13.3196H13.3012H13.2828H13.2643H13.2458H13.2274H13.2089H13.1904H13.1719H13.1534H13.1349H13.1163H13.0978H13.0793H13.0607H13.0421H13.0236H13.005H12.9864H12.9678H12.9492H12.9306H12.9119H12.8933H12.8746H12.856H12.8373H12.8186H12.7999H12.7812H12.7625H12.7438H12.725H12.7063H12.6875H12.6687H12.65H12.6312H12.6123H12.5935H12.5747H12.5558H12.537H12.5181H12.4992H12.4803H12.4614H12.4425H12.4235H12.4046H12.3856H12.3666H12.3476H12.3286H12.3096H12.2906H12.2715H12.2525H12.2334H12.2143H12.1952H12.1761H12.1569H12.1378H12.1186H12.0994H12.0802H12.061H12.0418H12.0225H12.0033H11.984H11.9647H11.9454H11.926H11.9067H11.8873H11.868H11.8486H11.8292H11.8097H11.7903H11.7708H11.7513H11.7318H11.7123H11.6928H11.6732H11.6537H11.6341H11.6145H11.5948H11.5752H11.5555H11.5359H11.5161H11.4964H11.4767H11.4569H11.4372H11.4174H11.3975H11.3777H11.3578H11.338H11.3181H11.2982H11.2782H11.2583H11.2383H11.2183H11.1983H11.1782H11.1582H11.1381H11.118H11.0978H11.0777H11.0575H11.0373H11.0171H10.9969H10.9766H10.9563H10.936H10.9157H10.8954H10.875H10.8546H10.8342H10.8137H10.7933H10.7728H10.7523H10.7317H10.7112H10.6906H10.67H10.6494H10.6287H10.608H10.5873H10.5666H10.5459H10.5251H10.5043H10.4835H10.4626H10.4417H10.4208H10.3999H10.3789H10.358H10.337H10.3159H10.2949H10.2738H10.2527H10.2315H10.2104H10.1892H10.168H10.1467H10.1255H10.1042H10.0828H10.0615H10.0401H10.0187H9.99726H9.9758H9.95431H9.93279H9.91124H9.88966H9.86806H9.84643H9.82476H9.80307H9.78135H9.7596H9.73782H9.71602H9.69418H9.67231H9.65042H9.62849H9.60653H9.58455H9.56253H9.54048H9.5184H9.4963H9.47416H9.45199H9.42979H9.40756H9.38529H9.363H9.34067H9.31832H9.29593H9.27351H9.25106H9.22857H9.20606H9.18351H9.16093H9.13832H9.11567H9.09299H9.07028H9.04754H9.02476H9.00195ZM17.7071 8.29289C18.0976 8.68342 18.0976 9.31658 17.7071 9.70711L15.4142 12L17.7071 14.2929C18.0976 14.6834 18.0976 15.3166 17.7071 15.7071C17.3166 16.0976 16.6834 16.0976 16.2929 15.7071L14 13.4142L11.7071 15.7071C11.3166 16.0976 10.6834 16.0976 10.2929 15.7071C9.90237 15.3166 9.90237 14.6834 10.2929 14.2929L12.5858 12L10.2929 9.70711C9.90237 9.31658 9.90237 8.68342 10.2929 8.29289C10.6834 7.90237 11.3166 7.90237 11.7071 8.29289L14 10.5858L16.2929 8.29289C16.6834 7.90237 17.3166 7.90237 17.7071 8.29289Z" fill="black"/>
</svg>
