<svg width="24" height="24" viewBox="0 0 24 24" fill="none" xmlns="http://www.w3.org/2000/svg">
<g clip-path="url(#clip0_895_53044)">
<path fill-rule="evenodd" clip-rule="evenodd" d="M23.7568 1.65364C24.1178 1.23565 24.0716 0.604178 23.6536 0.243193C23.2356 -0.117791 22.6042 -0.0715852 22.2432 0.346397L3.24318 22.3464C2.88219 22.7644 2.9284 23.3959 3.34638 23.7568C3.76436 24.1178 4.39584 24.0716 4.75682 23.6536L9.11251 18.6102L10.8906 19.7956C12.2197 20.6817 14 19.7289 14 18.1315V13.5C14 13.3444 13.9644 13.197 13.901 13.0656L16.0328 10.5973C16.1126 10.8143 16.2676 11.0047 16.4856 11.1258C16.6423 11.2129 16.7727 11.3404 16.8632 11.4951C16.9537 11.6499 17.0009 11.8261 17 12.0053C16.999 12.1846 16.9499 12.3603 16.8578 12.5141C16.7656 12.6678 16.6338 12.794 16.4762 12.8793C15.9906 13.1424 15.8101 13.7493 16.0731 14.2349C16.3361 14.7205 16.943 14.901 17.4287 14.638C17.9015 14.3819 18.2969 14.0034 18.5733 13.5421C18.8497 13.0808 18.9971 12.5537 19 12.016C19.0028 11.4782 18.8611 10.9496 18.5896 10.4854C18.3181 10.0212 17.9268 9.63853 17.4567 9.37741C17.3667 9.32745 17.2724 9.29283 17.1767 9.2727L18.5405 7.69355C19.2739 8.1262 19.8854 8.73942 20.316 9.47567C20.7685 10.2493 21.0047 11.1304 20.9999 12.0266C20.9952 12.9229 20.7496 13.8014 20.2888 14.5702C19.8281 15.339 19.1692 15.9698 18.3811 16.3966C17.8955 16.6596 17.715 17.2665 17.978 17.7522C18.241 18.2378 18.8479 18.4183 19.3336 18.1553C20.4369 17.5577 21.3594 16.6746 22.0044 15.5983C22.6494 14.522 22.9932 13.2921 22.9999 12.0373C23.0066 10.7825 22.6759 9.54905 22.0424 8.46593C21.5005 7.53941 20.754 6.75206 19.8629 6.16238L23.7568 1.65364ZM12 15.2668L10.4299 17.0848L12 18.1315V15.2668ZM14 6.00002C14 4.35193 12.1185 3.41116 10.8 4.40002L6.71175 7.4662L5.39801 7.33483C3.04327 7.09936 1 8.94849 1 11.315V12.9586C1 15.1687 2.98445 16.8497 5.1644 16.4864C5.70917 16.3956 6.07719 15.8804 5.98639 15.3356C5.8956 14.7908 5.38037 14.4228 4.8356 14.5136C3.87471 14.6738 3 13.9328 3 12.9586V11.315C3 10.1317 4.02164 9.20717 5.19901 9.3249L6.9005 9.49505C7.14987 9.51999 7.39951 9.45038 7.6 9.30002L12 6.00002V6.50002C12 7.0523 12.4477 7.50002 13 7.50002C13.5523 7.50002 14 7.0523 14 6.50002V6.00002Z" fill="black"/>
</g>
<defs>
<clipPath id="clip0_895_53044">
<rect width="24" height="24" fill="white"/>
</clipPath>
</defs>
</svg>
