<svg width="24" height="24" viewBox="0 0 24 24" fill="none" xmlns="http://www.w3.org/2000/svg">
<path fill-rule="evenodd" clip-rule="evenodd" d="M13.3207 1.78752C12.7337 0.770857 11.2663 0.770858 10.6793 1.78752L8.39162 5.74998H3.81609C2.64215 5.74998 1.90843 7.02081 2.4954 8.03748L4.78317 12L2.4954 15.9625C1.90843 16.9792 2.64215 18.25 3.81609 18.25H8.39162L10.6793 22.2125C11.2663 23.2291 12.7337 23.2291 13.3207 22.2125L15.6084 18.25H20.184C21.3579 18.25 22.0916 16.9792 21.5047 15.9625L19.2169 12L21.5047 8.03748C22.0916 7.02081 21.3579 5.74998 20.184 5.74998H15.6084L13.3207 1.78752ZM13.299 5.74998L12 3.50002L10.701 5.74998H13.299ZM9.54632 7.74998H14.4537L16.9075 12L14.4537 16.25H9.54632L7.09257 12L9.54632 7.74998ZM7.23692 7.74998H4.63882L5.93787 10L7.23692 7.74998ZM5.93787 14L4.63882 16.25H7.23692L5.93787 14ZM10.701 18.25L12 20.5L13.299 18.25H10.701ZM16.7631 16.25H19.3612L18.0622 14L16.7631 16.25ZM18.0622 10L16.7631 7.74998H19.3612L18.0622 10Z" fill="black"/>
</svg>
