<svg width="24" height="24" viewBox="0 0 24 24" fill="none" xmlns="http://www.w3.org/2000/svg">
<path fill-rule="evenodd" clip-rule="evenodd" d="M8.01852 8.03323C8.01035 5.82411 9.79457 4.02663 12.0037 4.01846C14.2128 4.01029 16.0103 5.79451 16.0185 8.00364C16.0262 10.1015 14.4176 11.8281 12.3637 12.0037C12.2439 12.0012 12.1226 12 11.9999 12C11.8875 12 11.7762 12.001 11.666 12.0031C9.62833 11.8253 8.02623 10.1186 8.01852 8.03323ZM8.0626 12.5297C6.81512 11.435 6.02516 9.83083 6.01853 8.04063C6.00628 4.72694 8.68261 2.03073 11.9963 2.01847C15.31 2.00622 18.0062 4.68255 18.0185 7.99624C18.0251 9.80696 17.2291 11.4333 15.9648 12.5381C16.088 12.5757 16.2089 12.6151 16.3276 12.6563C16.8494 12.8372 17.1257 13.4069 16.9448 13.9287C16.7638 14.4505 16.1941 14.7269 15.6723 14.5459C14.8004 14.2436 13.7299 14.0408 12.4153 14.0055C12.2914 14.0136 12.1665 14.0179 12.0407 14.0184C11.8961 14.0189 11.7527 14.0143 11.6107 14.0048C9.12548 14.0672 7.5028 14.726 6.43049 15.5462C5.2976 16.4128 4.68845 17.5291 4.36084 18.5453C4.2382 18.9258 4.3319 19.2453 4.57124 19.5047C4.83076 19.7859 5.27816 20 5.81135 20H12.4999C13.0522 20 13.4999 20.4477 13.4999 21C13.4999 21.5523 13.0522 22 12.4999 22H5.81135C4.76544 22 3.76945 21.5848 3.10148 20.8611C2.41334 20.1154 2.09546 19.0542 2.45731 17.9317C2.87529 16.6351 3.68 15.1321 5.21536 13.9577C5.99116 13.3642 6.93074 12.8721 8.0626 12.5297ZM15 19C15 18.4477 15.4477 18 16 18H18V16C18 15.4477 18.4477 15 19 15C19.5523 15 20 15.4477 20 16V18H22C22.5523 18 23 18.4477 23 19C23 19.5523 22.5523 20 22 20H20V22C20 22.5523 19.5523 23 19 23C18.4477 23 18 22.5523 18 22V20H16C15.4477 20 15 19.5523 15 19Z" fill="black"/>
</svg>
