<svg width="24" height="24" viewBox="0 0 24 24" fill="none" xmlns="http://www.w3.org/2000/svg">
<path fill-rule="evenodd" clip-rule="evenodd" d="M19.7274 9.92949C18.5839 5.66176 14.1972 3.1291 9.92943 4.27263C5.6617 5.41617 3.12904 9.80286 4.27257 14.0706C5.41611 18.3383 9.8028 20.871 14.0705 19.7274C18.3383 18.5839 20.8709 14.1972 19.7274 9.92949ZM9.41179 2.34078C14.7464 0.911364 20.2298 4.07719 21.6592 9.41185C23.0887 14.7465 19.9228 20.2299 14.5882 21.6593C9.25351 23.0887 3.77014 19.9229 2.34072 14.5882C0.911303 9.25357 4.07713 3.7702 9.41179 2.34078ZM13.9318 11.4824C13.6459 10.4155 12.5492 9.78235 11.4823 10.0682C10.4154 10.3541 9.78221 11.4508 10.0681 12.5177C10.354 13.5847 11.4507 14.2178 12.5176 13.9319C13.5845 13.646 14.2177 12.5494 13.9318 11.4824ZM10.9647 8.13638C13.0985 7.56461 15.2919 8.83094 15.8636 10.9648C16.4354 13.0987 15.1691 15.292 13.0352 15.8638C10.9014 16.4356 8.70801 15.1692 8.13624 13.0354C7.56447 10.9015 8.8308 8.70815 10.9647 8.13638ZM14.8036 17.9641C15.3063 17.7354 15.5284 17.1424 15.2997 16.6397C15.071 16.137 14.4781 15.9149 13.9754 16.1436L11.207 17.403C10.7043 17.6317 10.4822 18.2246 10.7109 18.7273C10.9396 19.23 11.5325 19.4522 12.0352 19.2235L14.8036 17.9641ZM17.1832 10.0936C17.7167 9.95062 18.265 10.2672 18.408 10.8007L19.1844 13.6984C19.3274 14.2319 19.0108 14.7803 18.4773 14.9232C17.9439 15.0661 17.3955 14.7496 17.2526 14.2161L16.4761 11.3183C16.3332 10.7848 16.6498 10.2365 17.1832 10.0936ZM15.0636 7.48159C15.612 7.547 16.1096 7.15546 16.175 6.60706C16.2404 6.05866 15.8488 5.56108 15.3004 5.49567L12.6268 5.17679C12.0784 5.11139 11.5808 5.50293 11.5154 6.05133C11.45 6.59972 11.8416 7.09731 12.39 7.16272L15.0636 7.48159ZM6.96057 7.21273C7.50897 7.27813 7.90051 7.77572 7.83511 8.32412L7.51623 10.9978C7.45082 11.5461 6.95324 11.9377 6.40484 11.8723C5.85644 11.8069 5.4649 11.3093 5.5303 10.7609L5.84918 8.08726C5.91459 7.53886 6.41218 7.14732 6.96057 7.21273ZM7.67046 16.7609C8.17041 16.9956 8.76593 16.7805 9.00059 16.2805C9.23525 15.7806 9.02019 15.1851 8.52023 14.9504L6.44289 13.9754C5.94294 13.7407 5.34742 13.9558 5.11276 14.4557C4.8781 14.9557 5.09317 15.5512 5.59312 15.7859L7.67046 16.7609Z" fill="black"/>
</svg>
