<svg width="24" height="24" viewBox="0 0 24 24" fill="none" xmlns="http://www.w3.org/2000/svg">
<path fill-rule="evenodd" clip-rule="evenodd" d="M15.3809 3.5C15.3809 4.60457 16.2763 5.5 17.3809 5.5C18.4854 5.5 19.3809 4.60457 19.3809 3.5C19.3809 2.39543 18.4854 1.5 17.3809 1.5C16.2763 1.5 15.3809 2.39543 15.3809 3.5ZM10.3182 5.45527C10.1438 5.36806 9.93457 5.39022 9.78228 5.51205L7.90014 7.01777C7.46887 7.36278 6.83958 7.29285 6.49457 6.86159C6.14956 6.43033 6.21948 5.80104 6.65074 5.45603L8.53289 3.95032C9.29433 3.34116 10.3405 3.23033 11.2127 3.66642L15.6346 5.87739C16.7173 6.41875 17.0988 7.77469 16.4573 8.80121L15.0665 11.0264H17.7745C18.9395 11.0264 19.858 12.0182 19.7686 13.1798L19.3251 18.9452C19.2828 19.4958 18.802 19.9079 18.2514 19.8655C17.7007 19.8232 17.2887 19.3424 17.331 18.7918L17.7745 13.0264H9.88795C8.64051 13.0264 7.91986 11.6112 8.65356 10.6023L11.8426 6.21744L10.3182 5.45527ZM13.6561 7.12421L10.8182 11.0264H12.7105C12.7207 11.0074 12.7316 10.9886 12.7432 10.9701L14.7613 7.74121C14.7777 7.71489 14.7679 7.68012 14.7402 7.66624L13.6561 7.12421ZM13.3453 17.8059C13.6161 17.1217 13.7053 16.379 13.604 15.6501C13.528 15.103 13.9098 14.598 14.4568 14.5219C15.0039 14.4459 15.5089 14.8278 15.5849 15.3748C15.7337 16.4456 15.6028 17.5368 15.2049 18.542C14.8069 19.5473 14.1556 20.4324 13.3142 21.1113C12.4727 21.7901 11.4699 22.2396 10.4033 22.416C9.33661 22.5924 8.24246 22.4897 7.22728 22.1179C6.21209 21.746 5.31045 21.1177 4.61008 20.2941C3.90971 19.4705 3.43447 18.4796 3.23059 17.4179C3.02672 16.3561 3.10116 15.2597 3.44666 14.2352C3.79216 13.2108 4.39697 12.2932 5.20223 11.5718C5.61358 11.2033 6.2458 11.238 6.61431 11.6494C6.98283 12.0608 6.9481 12.693 6.53675 13.0615C5.98863 13.5525 5.57696 14.1771 5.34178 14.8744C5.10661 15.5717 5.05594 16.318 5.19471 17.0407C5.33348 17.7634 5.65697 18.4379 6.13369 18.9985C6.61041 19.5591 7.22414 19.9868 7.91514 20.2399C8.60615 20.493 9.35091 20.5629 10.0769 20.4428C10.803 20.3228 11.4856 20.0168 12.0583 19.5547C12.6311 19.0926 13.0744 18.4901 13.3453 17.8059Z" fill="black"/>
</svg>
