<svg width="24" height="24" viewBox="0 0 24 24" fill="none" xmlns="http://www.w3.org/2000/svg">
<path fill-rule="evenodd" clip-rule="evenodd" d="M0.513287 14.6179L0.513042 14.6222C0.50569 14.7306 0.501477 14.8399 0.500495 14.9499L0.500265 14.9656L0.500043 14.9882L0.500008 14.9955L0.5 14.9981V15C0.5 15.0087 0.500111 15.0174 0.500331 15.026C0.514324 18.0516 2.97137 20.5 6.00027 20.5C9.03784 20.5 11.5003 18.0376 11.5003 15C11.5003 11.9625 9.03784 9.50003 6.00027 9.50003C5.21368 9.50003 4.46564 9.66516 3.78896 9.96263C4.57517 8.47675 5.82344 7.11297 7.81623 6.44871C8.34017 6.27406 8.62333 5.70774 8.44868 5.1838C8.27403 4.65986 7.70772 4.3767 7.18377 4.55134C3.78124 5.68552 2.11382 8.38126 1.30701 10.6672C0.902416 11.8136 0.701898 12.8862 0.6018 13.6703C0.551572 14.0637 0.526162 14.3883 0.513287 14.6179ZM6.00027 18.5C7.93327 18.5 9.50027 16.933 9.50027 15C9.50027 13.067 7.93327 11.5 6.00027 11.5C4.06727 11.5 2.50027 13.067 2.50027 15C2.50027 16.933 4.06727 18.5 6.00027 18.5ZM12.5133 14.6179L12.513 14.6222C12.5057 14.7306 12.5015 14.8399 12.5005 14.9499L12.5003 14.9656L12.5 14.9882L12.5 14.9955L12.5 14.9981V15C12.5 15.0087 12.5001 15.0174 12.5003 15.026C12.5143 18.0516 14.9714 20.5 18.0003 20.5C21.0378 20.5 23.5003 18.0376 23.5003 15C23.5003 11.9625 21.0378 9.50003 18.0003 9.50003C17.2137 9.50003 16.4656 9.66516 15.789 9.96263C16.5752 8.47675 17.8234 7.11297 19.8162 6.44871C20.3402 6.27406 20.6233 5.70774 20.4487 5.1838C20.274 4.65986 19.7077 4.3767 19.1838 4.55134C15.7812 5.68552 14.1138 8.38126 13.307 10.6672C12.9024 11.8136 12.7019 12.8862 12.6018 13.6703C12.5516 14.0637 12.5262 14.3883 12.5133 14.6179ZM18.0003 18.5C19.9333 18.5 21.5003 16.933 21.5003 15C21.5003 13.067 19.9333 11.5 18.0003 11.5C16.0673 11.5 14.5003 13.067 14.5003 15C14.5003 16.933 16.0673 18.5 18.0003 18.5Z" fill="black"/>
</svg>
