<svg width="24" height="24" viewBox="0 0 24 24" fill="none" xmlns="http://www.w3.org/2000/svg">
<path fill-rule="evenodd" clip-rule="evenodd" d="M5.70122 3.5C4.66687 3.5 3.67489 3.91089 2.9435 4.64228L2.29289 5.29289C1.90237 5.68342 1.90237 6.31658 2.29289 6.70711C2.68342 7.09763 3.31658 7.09763 3.70711 6.70711L4.35772 6.0565C4.71404 5.70018 5.19731 5.5 5.70122 5.5H18.5C19.6046 5.5 20.5 6.39543 20.5 7.5V16.5C20.5 17.6046 19.6046 18.5 18.5 18.5H15.5C14.9477 18.5 14.5 18.9477 14.5 19.5C14.5 20.0523 14.9477 20.5 15.5 20.5H18.5C20.7091 20.5 22.5 18.7091 22.5 16.5V7.5C22.5 5.29086 20.7091 3.5 18.5 3.5H5.70122ZM2.5 17.5C1.94772 17.5 1.5 17.9477 1.5 18.5C1.5 19.0523 1.94772 19.5 2.5 19.5C2.5 20.0523 2.94772 20.5 3.5 20.5C4.05228 20.5 4.5 20.0523 4.5 19.5C4.5 19.2374 4.44827 18.9773 4.34776 18.7346C4.24725 18.492 4.09993 18.2715 3.91421 18.0858C3.7285 17.9001 3.50802 17.7528 3.26537 17.6522C3.02272 17.5517 2.76264 17.5 2.5 17.5ZM1.5 14.5C1.5 13.9477 1.94772 13.5 2.5 13.5C3.28793 13.5 4.06815 13.6552 4.7961 13.9567C5.52405 14.2583 6.18549 14.7002 6.74264 15.2574C7.29979 15.8145 7.74175 16.4759 8.04328 17.2039C8.34481 17.9319 8.5 18.7121 8.5 19.5C8.5 20.0523 8.05228 20.5 7.5 20.5C6.94771 20.5 6.5 20.0523 6.5 19.5C6.5 18.9747 6.39654 18.4546 6.19552 17.9693C5.9945 17.484 5.69986 17.043 5.32843 16.6716C4.95699 16.3001 4.51604 16.0055 4.03073 15.8045C3.54543 15.6035 3.02529 15.5 2.5 15.5C1.94772 15.5 1.5 15.0523 1.5 14.5ZM2.5 9.5C1.94772 9.5 1.5 9.94772 1.5 10.5C1.5 11.0523 1.94772 11.5 2.5 11.5C3.55058 11.5 4.59086 11.7069 5.56147 12.109C6.53207 12.511 7.41399 13.1003 8.15685 13.8431C8.89972 14.586 9.489 15.4679 9.89104 16.4385C10.2931 17.4091 10.5 18.4494 10.5 19.5C10.5 20.0523 10.9477 20.5 11.5 20.5C12.0523 20.5 12.5 20.0523 12.5 19.5C12.5 18.1868 12.2413 16.8864 11.7388 15.6732C11.2362 14.4599 10.4997 13.3575 9.57107 12.4289C8.64248 11.5003 7.54009 10.7638 6.32683 10.2612C5.11358 9.75866 3.81322 9.5 2.5 9.5Z" fill="black"/>
</svg>
