<svg width="24" height="24" viewBox="0 0 24 24" fill="none" xmlns="http://www.w3.org/2000/svg">
<path fill-rule="evenodd" clip-rule="evenodd" d="M9.5 2C9.5 1.44772 9.94771 1 10.5 1H13.5C14.0523 1 14.5 1.44772 14.5 2V6H17.5C18.0523 6 18.5 6.44772 18.5 7V10C18.5 10.5523 18.0523 11 17.5 11H14.5V16.5C14.5 16.5724 15.0674 17.896 17.1286 17.0715C17.4367 16.9483 17.7859 16.9859 18.0606 17.1719C18.3354 17.358 18.5 17.6682 18.5 18V20.5C18.5 20.8788 18.286 21.225 17.9472 21.3944C14.7522 22.992 12.1274 22.9613 10.2456 21.8638C8.39754 20.786 7.49874 18.8062 7.49874 17V11H6.5C5.94772 11 5.5 10.5523 5.5 10V7.5C5.5 7.04113 5.8123 6.64115 6.25746 6.52986C7.99292 6.09599 8.73432 5.27853 9.09518 4.5117C9.48824 3.67645 9.5 2.76474 9.5 2ZM7.5 9H8.49874C9.05102 9 9.49874 9.44772 9.49874 10V17C9.49874 18.1938 10.1006 19.464 11.2532 20.1362C12.2968 20.7448 13.9992 20.9766 16.5 19.8666V19.2853C14.2127 19.5579 12.5 18.1174 12.5 16.5V10C12.5 9.44772 12.9477 9 13.5 9H16.5V8H13.5C12.9477 8 12.5 7.55228 12.5 7V3H11.475C11.428 3.69405 11.2929 4.5386 10.9048 5.3633C10.3408 6.56183 9.29439 7.62359 7.5 8.24568V9Z" fill="black"/>
</svg>
