<svg width="24" height="24" viewBox="0 0 24 24" fill="none" xmlns="http://www.w3.org/2000/svg">
<path fill-rule="evenodd" clip-rule="evenodd" d="M11 10V14H5.2C3.98497 14 3 14.985 3 16.2V19.3C3 20.515 3.98497 21.5 5.2 21.5H12H18.8C20.015 21.5 21 20.515 21 19.3V16.2C21 14.985 20.015 14 18.8 14H13V10H15.3C16.515 10 17.5 9.01503 17.5 7.8V4.7C17.5 3.48497 16.515 2.5 15.3 2.5H12H8.7C7.48497 2.5 6.5 3.48497 6.5 4.7V7.8C6.5 9.01503 7.48497 10 8.7 10H11ZM18.8 16C18.9105 16 19 16.0895 19 16.2V19.3C19 19.4105 18.9105 19.5 18.8 19.5H5.2C5.08954 19.5 5 19.4105 5 19.3V16.2C5 16.0895 5.08954 16 5.2 16H18.8ZM15.5 4.7C15.5 4.58954 15.4105 4.5 15.3 4.5H8.7C8.58954 4.5 8.5 4.58954 8.5 4.7V7.8C8.5 7.91046 8.58954 8 8.7 8H15.3C15.4105 8 15.5 7.91046 15.5 7.8V4.7Z" fill="black"/>
</svg>
