<svg width="24" height="24" viewBox="0 0 24 24" fill="none" xmlns="http://www.w3.org/2000/svg">
<path fill-rule="evenodd" clip-rule="evenodd" d="M6.58718 4.82703C9.57661 1.8376 14.4234 1.8376 17.4129 4.82703C20.3181 7.7323 20.4117 12.413 17.6249 15.4321L13.4696 19.9336C12.6777 20.7915 11.3223 20.7915 10.5304 19.9336L6.37516 15.4321C3.58833 12.413 3.68191 7.7323 6.58718 4.82703ZM18.8271 3.41282C15.0566 -0.357659 8.94344 -0.357659 5.17296 3.41282C1.50864 7.07715 1.39061 12.9808 4.90555 16.7886L9.06081 21.2901C10.6447 23.006 13.3554 23.006 14.9392 21.2901L19.0945 16.7886C22.6094 12.9808 22.4914 7.07715 18.8271 3.41282ZM11 10C11 9.44772 11.4477 9 12 9C12.5523 9 13 9.44772 13 10C13 10.5523 12.5523 11 12 11C11.4477 11 11 10.5523 11 10ZM12 7C10.3431 7 9 8.34315 9 10C9 11.6569 10.3431 13 12 13C13.6569 13 15 11.6569 15 10C15 8.34315 13.6569 7 12 7Z" fill="black"/>
</svg>
