<svg width="24" height="24" viewBox="0 0 24 24" fill="none" xmlns="http://www.w3.org/2000/svg">
<g clip-path="url(#clip0_895_52699)">
<path fill-rule="evenodd" clip-rule="evenodd" d="M18 7.41421L23.7071 1.70711C24.0976 1.31658 24.0976 0.683417 23.7071 0.292893C23.3166 -0.0976311 22.6834 -0.0976311 22.2929 0.292893L0.292893 22.2929C-0.0976311 22.6834 -0.0976311 23.3166 0.292893 23.7071C0.683417 24.0976 1.31658 24.0976 1.70711 23.7071L7.41756 17.9967C7.44475 17.9989 7.47224 18 7.5 18H18.3784C19.8263 18 21 16.8263 21 15.3784C21 13.7238 20.221 12.1657 18.8973 11.173L18.5677 10.9258C18.2103 10.6578 18 10.2371 18 9.79032V7.41421ZM16 9.41421L9.41421 16H18.3784C18.7217 16 19 15.7217 19 15.3784C19 14.3533 18.5174 13.388 17.6973 12.773L17.3677 12.5258C16.5067 11.88 16 10.8666 16 9.79032V9.41421ZM8.00002 7.00178L8 7.00329V9.79032C8 10.8666 7.49327 11.88 6.63226 12.5258L5.6 13.3C5.22229 13.5833 5 14.0279 5 14.5C5 15.0523 4.55228 15.5 4 15.5C3.44772 15.5 3 15.0523 3 14.5C3 13.3983 3.51868 12.361 4.4 11.7L5.43226 10.9258C5.78966 10.6578 6 10.2371 6 9.79032V7H7C6 7 6 6.99949 6 6.99896L6 6.99781L6.00001 6.99515L6.00005 6.98844L6.00028 6.96953C6.00052 6.95453 6.00097 6.93476 6.00178 6.91053C6.00339 6.86212 6.00646 6.79573 6.01231 6.71391C6.02397 6.55061 6.04682 6.32384 6.09173 6.05435C6.18077 5.52011 6.36072 4.7925 6.73057 4.05279C7.10239 3.30916 7.67581 2.53511 8.55467 1.9492C9.43979 1.35912 10.575 1 12 1C13.5016 1 14.6796 1.39888 15.5813 2.04306C16.0307 2.36411 16.1347 2.98867 15.8137 3.43805C15.4926 3.88744 14.8681 3.99148 14.4187 3.67043C13.8915 3.29382 13.1303 3 12 3C10.925 3 10.1852 3.26588 9.66408 3.6133C9.13669 3.96489 8.77261 4.44084 8.51943 4.94721C8.26428 5.4575 8.13173 5.97989 8.06452 6.38315C8.03131 6.58241 8.01509 6.74627 8.00723 6.8564C8.0033 6.9113 8.00149 6.95234 8.00067 6.97716L8.00002 7.00178ZM8.46446 20.1213C8.85499 19.7308 9.48815 19.7308 9.87868 20.1213C10.1573 20.3999 10.488 20.6209 10.8519 20.7716C11.2159 20.9224 11.606 21 12 21C12.394 21 12.7841 20.9224 13.148 20.7716C13.512 20.6209 13.8427 20.3999 14.1213 20.1213C14.5118 19.7308 15.145 19.7308 15.5355 20.1213C15.9261 20.5118 15.9261 21.145 15.5355 21.5355C15.0712 21.9998 14.52 22.3681 13.9134 22.6194C13.3068 22.8707 12.6566 23 12 23C11.3434 23 10.6932 22.8707 10.0866 22.6194C9.47995 22.3681 8.92876 21.9998 8.46446 21.5355C8.07394 21.145 8.07394 20.5118 8.46446 20.1213Z" fill="black"/>
</g>
<defs>
<clipPath id="clip0_895_52699">
<rect width="24" height="24" fill="white"/>
</clipPath>
</defs>
</svg>
