<svg width="24" height="24" viewBox="0 0 24 24" fill="none" xmlns="http://www.w3.org/2000/svg">
<path fill-rule="evenodd" clip-rule="evenodd" d="M5 3C5 2.44772 5.44772 2 6 2H9C9.55228 2 10 2.44772 10 3V5.49389L10.0002 5.50038C10.0005 5.51056 10.0014 5.53011 10.0033 5.55766C10.0073 5.61311 10.0157 5.69884 10.0333 5.80435C10.0692 6.02011 10.1393 6.2925 10.2694 6.55279C10.3976 6.80916 10.5742 7.03511 10.8203 7.1992C11.0602 7.35912 11.425 7.5 12 7.5C12.575 7.5 12.9398 7.35912 13.1797 7.1992C13.4258 7.03511 13.6024 6.80916 13.7306 6.55279C13.8607 6.2925 13.9308 6.02011 13.9667 5.80435C13.9843 5.69884 13.9927 5.61311 13.9967 5.55766C13.9986 5.53011 13.9995 5.51056 13.9998 5.50038L14 5.49388V3C14 2.44772 14.4477 2 15 2H18C18.5523 2 19 2.44772 19 3V6.70491C19 8.03916 19.7538 9.25888 20.9472 9.85557C21.5924 10.1782 22 10.8376 22 11.559V19C22 20.6569 20.6569 22 19 22H5C3.34315 22 2 20.6569 2 19V12.0352C2 11.3665 2.3342 10.742 2.8906 10.3711L3.2188 10.1523C4.3316 9.41042 5 8.16149 5 6.82408V3ZM15 5.5C16 5.5 16 5.5005 16 5.50101L16 5.5021L16 5.50448L16 5.51011L15.9998 5.52473C15.9996 5.53595 15.9993 5.55011 15.9987 5.56701C15.9976 5.60077 15.9955 5.64568 15.9916 5.70015C15.9838 5.80877 15.9688 5.95741 15.9395 6.13315C15.8817 6.47989 15.7643 6.9575 15.5194 7.44721C15.2726 7.94084 14.8867 8.46489 14.2891 8.8633C13.6852 9.26588 12.925 9.5 12 9.5C11.075 9.5 10.3148 9.26588 9.71092 8.8633C9.11331 8.46489 8.72739 7.94084 8.48057 7.44721C8.23572 6.9575 8.11827 6.47989 8.06048 6.13315C8.03119 5.95741 8.01616 5.80877 8.0084 5.70015C8.00451 5.64568 8.00241 5.60077 8.00129 5.56701C8.00072 5.55011 8.0004 5.53595 8.00022 5.52473L8.00004 5.51011L8.00001 5.50448L8 5.5021L8 5.50101C8 5.5005 8 5.5 9 5.5H8V4H7V6.82408C7 8.8302 5.99739 10.7036 4.3282 11.8164L4 12.0352V19C4 19.5523 4.44772 20 5 20H19C19.5523 20 20 19.5523 20 19V11.6177C18.1596 10.6728 17 8.77696 17 6.70491V4H16V5.5H15ZM6 17C6 16.4477 6.44772 16 7 16H17C17.5523 16 18 16.4477 18 17C18 17.5523 17.5523 18 17 18H7C6.44772 18 6 17.5523 6 17ZM7 12.5C6.44772 12.5 6 12.9477 6 13.5C6 14.0523 6.44772 14.5 7 14.5H17C17.5523 14.5 18 14.0523 18 13.5C18 12.9477 17.5523 12.5 17 12.5H7Z" fill="black"/>
</svg>
