<svg width="24" height="24" viewBox="0 0 24 24" fill="none" xmlns="http://www.w3.org/2000/svg">
<path fill-rule="evenodd" clip-rule="evenodd" d="M7 1.5C6.44772 1.5 6 1.94772 6 2.5C6 3.05228 6.44772 3.5 7 3.5H11V5H7C5.067 5 3.5 6.567 3.5 8.5V17C3.5 18.6569 4.84315 20 6.5 20H6.58579L5.29289 21.2929C4.90237 21.6834 4.90237 22.3166 5.29289 22.7071C5.68342 23.0976 6.31658 23.0976 6.70711 22.7071L9.20711 20.2071C9.27045 20.1438 9.32352 20.074 9.36631 20H14.6337C14.6765 20.074 14.7296 20.1438 14.7929 20.2071L17.2929 22.7071C17.6834 23.0976 18.3166 23.0976 18.7071 22.7071C19.0976 22.3166 19.0976 21.6834 18.7071 21.2929L17.4142 20H17.5C19.1569 20 20.5 18.6569 20.5 17V8.5C20.5 6.567 18.933 5 17 5H13V3.5H17C17.5523 3.5 18 3.05228 18 2.5C18 1.94772 17.5523 1.5 17 1.5H7ZM12 7H7C6.17157 7 5.5 7.67157 5.5 8.5V11L18.5 11V8.5C18.5 7.67157 17.8284 7 17 7H12ZM5.5 17V13L18.5 13V17C18.5 17.5523 18.0523 18 17.5 18H6.5C5.94772 18 5.5 17.5523 5.5 17ZM9.5 15.5C9.5 16.3284 8.82843 17 8 17C7.17157 17 6.5 16.3284 6.5 15.5C6.5 14.6716 7.17157 14 8 14C8.82843 14 9.5 14.6716 9.5 15.5ZM16 17C16.8284 17 17.5 16.3284 17.5 15.5C17.5 14.6716 16.8284 14 16 14C15.1716 14 14.5 14.6716 14.5 15.5C14.5 16.3284 15.1716 17 16 17Z" fill="black"/>
</svg>
