<svg width="24" height="24" viewBox="0 0 24 24" fill="none" xmlns="http://www.w3.org/2000/svg">
<path fill-rule="evenodd" clip-rule="evenodd" d="M11 1C7.8675 1 6.08673 2.48637 5.1367 4.02451C4.67648 4.76963 4.42124 5.5068 4.28018 6.05315C4.253 6.15846 4.22986 6.25743 4.2102 6.34888L4.15653 6.37072C3.76538 6.53189 3.23912 6.7906 2.70718 7.18216C1.62957 7.97541 0.5 9.34589 0.5 11.5C0.5 15.1812 3.07172 16.8724 5 16.8724H6C6.55228 16.8724 7 16.4247 7 15.8724C7 15.3201 6.55228 14.8724 6 14.8724H5C4.17427 14.8724 2.5 14.0746 2.5 11.5C2.5 10.1541 3.17043 9.32459 3.89282 8.79284C4.26088 8.5219 4.63462 8.33686 4.91847 8.2199C5.05902 8.16199 5.17377 8.12231 5.24961 8.09809C5.28742 8.08601 5.31522 8.07788 5.33135 8.07332L5.34683 8.06906C5.76025 7.96377 6.06139 7.6077 6.09659 7.18253L6.09676 7.18076L6.09936 7.15636C6.1022 7.13151 6.10742 7.09008 6.11606 7.03448C6.1334 6.92296 6.16424 6.75628 6.21669 6.5531C6.32251 6.1432 6.51102 5.60537 6.8383 5.07549C7.46327 4.06363 8.6325 3 11 3C12.3147 3 13.2352 3.34154 13.8953 3.80361C14.5641 4.27178 15.0267 4.90709 15.3471 5.57993C15.6689 6.25556 15.8347 6.94397 15.9186 7.47239C15.9602 7.73415 15.9806 7.95023 15.9906 8.09717C15.9956 8.17047 15.9979 8.22607 15.999 8.26098C15.9993 8.26795 15.9994 8.2741 15.9996 8.27938C15.9998 8.28731 15.9999 8.2933 15.9999 8.29729L16 8.30185L16 8.30286C16.0009 8.63239 16.1642 8.94039 16.4365 9.12614C16.7096 9.31237 17.0562 9.35195 17.364 9.23141L17.3788 9.22591C17.3937 9.22042 17.4184 9.21158 17.4512 9.20048C17.5173 9.17815 17.6142 9.14745 17.7305 9.11666C17.9719 9.05272 18.2513 9.00059 18.4958 9L18.5116 9.00042C18.5291 9.00101 18.5594 9.00233 18.6006 9.00527C18.6834 9.01118 18.8082 9.0235 18.9606 9.04889C19.2701 9.10048 19.6675 9.20178 20.0528 9.39443C20.4342 9.58511 20.7851 9.85544 21.0429 10.2422C21.2966 10.6227 21.5 11.175 21.5 12C21.5 13.2507 21.0158 13.9537 20.5005 14.3658C19.938 14.8155 19.2865 14.9568 19 14.9568H18C17.4477 14.9568 17 15.4045 17 15.9568C17 16.5091 17.4477 16.9568 18 16.9568H19C19.7135 16.9568 20.812 16.6775 21.7495 15.9278C22.7342 15.1404 23.5 13.8651 23.5 12C23.5 10.825 23.2034 9.87729 22.7071 9.1328C22.2149 8.39456 21.5658 7.91489 20.9472 7.60557C20.3325 7.29822 19.7299 7.14952 19.2894 7.07611C19.0668 7.039 18.8791 7.02007 18.7431 7.01035C18.675 7.00549 18.6193 7.0029 18.5782 7.00153C18.5577 7.00085 18.5407 7.00046 18.5276 7.00025L18.5108 7.00005L18.5047 7.00001L18.5021 7L18.501 7C18.5005 7 18.5 7 18.5 8V7C18.2843 7 18.0726 7.01898 17.8756 7.04754C17.7663 6.40714 17.5573 5.56931 17.1529 4.72007C16.7233 3.81791 16.0609 2.87823 15.0422 2.16514C14.0148 1.44596 12.6853 1 11 1ZM9.87362 13.7562C10.3336 13.3866 11.0478 13 12 13C12.9631 13 13.7456 13.3995 14.2696 14.0311C14.7744 14.6396 15 15.4119 15 16.1429C15 16.7575 14.8525 17.2713 14.5641 17.7C14.2906 18.1064 13.9369 18.3621 13.6884 18.5316L13.6081 18.5862C13.1244 18.9155 13.0319 18.9785 12.9739 19.2272C12.8484 19.7651 12.3106 20.0993 11.7728 19.9738C11.2349 19.8483 10.9007 19.3106 11.0262 18.7728C11.272 17.7191 12.0306 17.2257 12.4423 16.9579C12.4864 16.9292 12.5266 16.9031 12.5617 16.8791C12.7714 16.7361 12.8553 16.657 12.9047 16.5835C12.9392 16.5323 13 16.4211 13 16.1429C13 15.8024 12.8923 15.5033 12.7304 15.3081C12.5878 15.1362 12.3703 15 12 15C11.6189 15 11.3331 15.1491 11.1264 15.3152C11.0221 15.3991 10.9441 15.4829 10.8946 15.5425C10.8703 15.5718 10.8541 15.5938 10.8462 15.6049L10.8419 15.6111C10.5473 16.0709 9.93683 16.2099 9.47171 15.9205C9.00279 15.6287 8.85918 15.012 9.15096 14.5431L9.99982 15.0713C9.15096 14.5431 9.15119 14.5428 9.15143 14.5424L9.15192 14.5416L9.15295 14.5399L9.15521 14.5363L9.16057 14.5279L9.17464 14.5064C9.1855 14.49 9.19938 14.4697 9.21631 14.4459C9.25009 14.3984 9.29639 14.3366 9.35539 14.2655C9.47259 14.1243 9.64463 13.9402 9.87362 13.7562ZM13 22C13 22.5523 12.5523 23 12 23C11.4477 23 11 22.5523 11 22C11 21.4477 11.4477 21 12 21C12.5523 21 13 21.4477 13 22Z" fill="black"/>
</svg>
