<svg width="24" height="24" viewBox="0 0 24 24" fill="none" xmlns="http://www.w3.org/2000/svg">
<path fill-rule="evenodd" clip-rule="evenodd" d="M18.2635 18.2636C19.3778 17.1493 20.2617 15.8264 20.8648 14.3705C21.4678 12.9146 21.7782 11.3541 21.7782 9.77828C21.7782 8.20242 21.4678 6.64199 20.8648 5.18608C20.4011 4.06677 19.7715 3.02609 18.9988 2.09837C18.2298 1.17515 16.9041 1.23817 16.1422 2.00011L9.10118 9.04111C9.07988 9.06065 9.05942 9.0811 9.03988 9.10241L2.00004 16.1422C1.23811 16.9042 1.17509 18.2299 2.09831 18.9989C3.02603 19.7716 4.06671 20.4012 5.18602 20.8648C6.64192 21.4679 8.20236 21.7783 9.77822 21.7783C11.3541 21.7783 12.9145 21.4679 14.3704 20.8648C15.8263 20.2618 17.1492 19.3779 18.2635 18.2636ZM8.77698 12.1943L6.30264 14.6687C6.66936 14.9293 7.0651 15.1486 7.48273 15.3215C7.89979 15.4943 8.33399 15.619 8.77698 15.694L8.77698 12.1943ZM10.777 15.6947C11.2212 15.6197 11.6567 15.4948 12.0749 15.3215C12.4922 15.1487 12.8876 14.9298 13.254 14.6694L10.777 12.1924V15.6947ZM12.1934 10.7782L14.6694 13.2542C14.93 12.8876 15.1492 12.4919 15.3221 12.0744C15.4951 11.6567 15.6199 11.2219 15.6949 10.7782H12.1934ZM15.6949 8.7782C15.6199 8.3346 15.4951 7.89978 15.3221 7.48217C15.1491 7.06453 14.9299 6.66879 14.6692 6.30208L12.1931 8.7782H15.6949ZM19.017 13.6051C18.5145 14.8184 17.7779 15.9208 16.8493 16.8493C15.9207 17.7779 14.8183 18.5145 13.6051 19.0171C12.3918 19.5196 11.0914 19.7783 9.77822 19.7783C8.465 19.7783 7.16464 19.5196 5.95138 19.0171C5.04724 18.6426 4.20466 18.1381 3.4497 17.521L4.87311 16.0976C5.43609 16.5346 6.05615 16.8954 6.71737 17.1693C7.68797 17.5713 8.72826 17.7783 9.77883 17.7783C10.8294 17.7783 11.8697 17.5713 12.8403 17.1693C13.8109 16.7673 14.6928 16.178 15.4357 15.4351C16.1786 14.6923 16.7678 13.8103 17.1699 12.8397C17.5719 11.8691 17.7788 10.8288 17.7788 9.77827C17.7788 8.7277 17.5719 7.68741 17.1699 6.7168C16.896 6.05558 16.5352 5.43553 16.0982 4.87255L17.5209 3.44976C18.138 4.20472 18.6425 5.0473 19.017 5.95145C19.5196 7.1647 19.7782 8.46506 19.7782 9.77828C19.7782 11.0915 19.5196 12.3919 19.017 13.6051Z" fill="black"/>
</svg>
