<svg width="24" height="24" viewBox="0 0 24 24" fill="none" xmlns="http://www.w3.org/2000/svg">
<path fill-rule="evenodd" clip-rule="evenodd" d="M20 4C20 3.6615 19.8287 3.34597 19.5449 3.16151C19.2611 2.97705 18.9032 2.94871 18.5939 3.08619L18.2509 3.23862C15.3619 4.52263 13.5 7.3876 13.5 10.5491V14C13.5 15.1046 14.3954 16 15.5 16H18V20C18 20.5523 18.4477 21 19 21C19.5523 21 20 20.5523 20 20V4ZM18 5.67542V14H15.5V10.5491C15.5 8.59282 16.4505 6.78792 18 5.67542ZM4 3C4.55228 3 5 3.44772 5 4V9C5 9.55229 5.44772 10 6 10H6.5V4C6.5 3.44772 6.94772 3 7.5 3C8.05228 3 8.5 3.44772 8.5 4V10H9C9.55228 10 10 9.55229 10 9V4C10 3.44772 10.4477 3 11 3C11.5523 3 12 3.44772 12 4V9C12 10.6569 10.6569 12 9 12H8.5V20C8.5 20.5523 8.05228 21 7.5 21C6.94772 21 6.5 20.5523 6.5 20V12H6C4.34315 12 3 10.6569 3 9V4C3 3.44772 3.44772 3 4 3Z" fill="black"/>
</svg>
