<svg width="24" height="24" viewBox="0 0 24 24" fill="none" xmlns="http://www.w3.org/2000/svg">
<path fill-rule="evenodd" clip-rule="evenodd" d="M13 1.5C13 0.947715 12.5523 0.5 12 0.5C11.4477 0.5 11 0.947715 11 1.5V3.38197L9.10557 4.32918C8.428 4.66796 8 5.36049 8 6.11803V7H7V6.5C7 5.94772 6.55228 5.5 6 5.5C5.44772 5.5 5 5.94772 5 6.5V17C5 17.9323 5.63786 18.7156 6.50097 18.9372C6.50033 18.9581 6.5 18.979 6.5 19V22.5C6.5 23.0523 6.94772 23.5 7.5 23.5C8.05228 23.5 8.5 23.0523 8.5 22.5V19H9.5V22.5C9.5 23.0523 9.94771 23.5 10.5 23.5C11.0523 23.5 11.5 23.0523 11.5 22.5V19H12.5V22.5C12.5 23.0523 12.9477 23.5 13.5 23.5C14.0523 23.5 14.5 23.0523 14.5 22.5V19H15.5V22.5C15.5 23.0523 15.9477 23.5 16.5 23.5C17.0523 23.5 17.5 23.0523 17.5 22.5V19C17.5 18.979 17.4997 18.9581 17.499 18.9372C18.3621 18.7156 19 17.9323 19 17V6.5C19 5.94772 18.5523 5.5 18 5.5C17.4477 5.5 17 5.94772 17 6.5V7H16V6.11803C16 5.36049 15.572 4.66796 14.8944 4.32918L13 3.38197V1.5ZM17 17H15.5H8.5H7V9H17V17ZM14 7V6.11803L12 5.11803L10 6.11803V7H14ZM12 9.5C10.067 9.5 8.5 11.067 8.5 13C8.5 14.933 10.067 16.5 12 16.5C13.933 16.5 15.5 14.933 15.5 13C15.5 11.067 13.933 9.5 12 9.5ZM10.5 13C10.5 12.1716 11.1716 11.5 12 11.5C12.8284 11.5 13.5 12.1716 13.5 13C13.5 13.8284 12.8284 14.5 12 14.5C11.1716 14.5 10.5 13.8284 10.5 13Z" fill="black"/>
</svg>
