<svg width="24" height="24" viewBox="0 0 24 24" fill="none" xmlns="http://www.w3.org/2000/svg">
<path fill-rule="evenodd" clip-rule="evenodd" d="M8.00655 5.07176C7.455 5.3902 6.95571 5.7644 6.51169 6.18313C6.79335 7.48219 7.26484 8.77417 7.79566 9.95673C8.03148 9.51458 8.31414 9.00864 8.6406 8.46522C9.46267 7.09685 10.5823 5.45722 11.954 3.99875C10.6114 4.00633 9.25246 4.35243 8.00655 5.07176ZM14.4307 4.37603C13.3918 5.29489 12.4624 6.39783 11.669 7.49702C12.1706 7.4801 12.7512 7.47186 13.3865 7.4829C15.0112 7.51114 17.0335 7.66589 19.0161 8.14412C18.9895 8.09591 18.9624 8.04785 18.9348 7.99996C17.8964 6.20155 16.2653 4.9588 14.4307 4.37603ZM19.8602 10.4652C18.6013 10.0398 17.2446 9.78659 15.9452 9.64332C16.1934 10.045 16.467 10.5068 16.7496 11.0164C17.5093 12.3868 18.352 14.1361 18.9287 16.0131C19.8896 14.3521 20.2339 12.3768 19.8602 10.4652ZM17.3677 17.94C17.0871 16.627 16.6111 15.32 16.0746 14.1249C15.8388 14.5672 15.556 15.0733 15.2293 15.617C14.4227 16.9597 13.3295 18.5636 11.9928 20.0013C13.3569 20.0049 14.7401 19.6593 16.0066 18.9282C16.5034 18.6413 16.9579 18.3092 17.3677 17.94ZM9.54485 19.6119C10.5411 18.7124 11.4345 17.6471 12.2009 16.5853C11.6998 16.6022 11.1199 16.6104 10.4856 16.5994C8.91986 16.5721 6.98486 16.4274 5.07199 15.9889C5.07411 15.9926 5.07623 15.9963 5.07835 16C6.10957 17.7861 7.72555 19.0241 9.54485 19.6119ZM4.18125 13.6731C5.39146 14.0647 6.68451 14.3019 7.92534 14.4388C7.67714 14.0371 7.4035 13.5754 7.12093 13.0657C6.37619 11.7224 5.55172 10.0149 4.97624 8.1799C4.07603 9.84037 3.77869 11.7922 4.18125 13.6731ZM10.4158 14.5977C10.3373 14.4841 10.2427 14.345 10.1352 14.1826C9.81413 13.6978 9.37961 13.0086 8.91661 12.1795C8.98195 12.0399 9.07023 11.8553 9.18045 11.6341C9.43959 11.1141 9.8187 10.394 10.3046 9.57936C10.4586 9.56605 10.6637 9.55013 10.912 9.53488C11.5119 9.49805 12.3612 9.46538 13.3517 9.4826L13.4548 9.48456C13.5333 9.5981 13.6279 9.73723 13.7353 9.8995C14.0564 10.3843 14.4908 11.0732 14.9536 11.9021C14.8883 12.0418 14.7999 12.2266 14.6895 12.4481C14.4303 12.9682 14.0512 13.6884 13.5652 14.5031C13.4115 14.5164 13.2072 14.5322 12.96 14.5474C12.3602 14.5842 11.5108 14.6169 10.5204 14.5997C10.4857 14.5991 10.4508 14.5984 10.4158 14.5977ZM3.3463 17C0.584875 12.217 2.22363 6.10113 7.00655 3.33971C11.7895 0.578283 17.9054 2.21703 20.6668 6.99996C23.4282 11.7829 21.7895 17.8988 17.0066 20.6602C12.2236 23.4216 6.10772 21.7829 3.3463 17Z" fill="black"/>
</svg>
