<svg width="24" height="24" viewBox="0 0 24 24" fill="none" xmlns="http://www.w3.org/2000/svg">
<path fill-rule="evenodd" clip-rule="evenodd" d="M1.5 7.5C1.5 5.29086 3.29086 3.5 5.5 3.5H18.5C20.7091 3.5 22.5 5.29086 22.5 7.5V16.5C22.5 18.7091 20.7091 20.5 18.5 20.5H5.5C3.29086 20.5 1.5 18.7091 1.5 16.5V7.5ZM5.5 5.5C4.39543 5.5 3.5 6.39543 3.5 7.5V9L20.5 9V7.5C20.5 6.39543 19.6046 5.5 18.5 5.5H5.5ZM3.5 16.5V11L20.5 11V16.5C20.5 17.6046 19.6046 18.5 18.5 18.5H5.5C4.39543 18.5 3.5 17.6046 3.5 16.5ZM6 14C5.44772 14 5 14.4477 5 15C5 15.5523 5.44772 16 6 16H8C8.55228 16 9 15.5523 9 15C9 14.4477 8.55228 14 8 14H6Z" fill="black"/>
</svg>
