<svg width="24" height="24" viewBox="0 0 24 24" fill="none" xmlns="http://www.w3.org/2000/svg">
<path fill-rule="evenodd" clip-rule="evenodd" d="M2 5C2 3.34315 3.34315 2 5 2H13C13.5523 2 14 2.44772 14 3C14 3.55228 13.5523 4 13 4H5C4.44772 4 4 4.44772 4 5V6H9C9.55228 6 10 6.44772 10 7C10 7.55228 9.55228 8 9 8H4V11H9C9.55228 11 10 11.4477 10 12C10 12.5523 9.55228 13 9 13H4V16H9C9.55228 16 10 16.4477 10 17C10 17.5523 9.55228 18 9 18H4V19C4 19.5523 4.44772 20 5 20H13C13.5523 20 14 20.4477 14 21C14 21.5523 13.5523 22 13 22H5C3.34315 22 2 20.6569 2 19V17V12V7V5ZM21.7248 15.311C22.1053 15.7113 22.0893 16.3443 21.689 16.7248L18.6387 19.6243C18.248 19.9957 17.6332 19.9906 17.2487 19.6127L14.299 16.7132C13.9051 16.326 13.8997 15.6929 14.2868 15.299C14.674 14.9051 15.3071 14.8997 15.701 15.2868L16.9497 16.5143L16.9497 7.41424L15.7071 8.65687C15.3166 9.0474 14.6834 9.0474 14.2929 8.65687C13.9024 8.26635 13.9024 7.63318 14.2929 7.24266L17.2426 4.29292C17.6332 3.9024 18.2663 3.9024 18.6568 4.29292L21.7071 7.34319C22.0976 7.73371 22.0976 8.36688 21.7071 8.7574C21.3166 9.14792 20.6834 9.14792 20.2929 8.7574L18.9497 7.41424V16.5692L20.311 15.2752C20.7113 14.8947 21.3443 14.9107 21.7248 15.311Z" fill="black"/>
</svg>
