<svg width="24" height="24" viewBox="0 0 24 24" fill="none" xmlns="http://www.w3.org/2000/svg">
<path fill-rule="evenodd" clip-rule="evenodd" d="M3 6C3 5.44772 3.44772 5 4 5H9.46482L10.8711 7.1094C11.242 7.6658 11.8665 8 12.5352 8H20C20.5523 8 21 8.44772 21 9V18C21 18.5523 20.5523 19 20 19H4C3.44772 19 3 18.5523 3 18V6ZM4 3C2.34315 3 1 4.34315 1 6V18C1 19.6569 2.34315 21 4 21H20C21.6569 21 23 19.6569 23 18V9C23 7.34315 21.6569 6 20 6H12.5352L11.1289 3.8906C10.758 3.3342 10.1335 3 9.46482 3H4ZM12 10.5C10.3431 10.5 9 11.8431 9 13.5C9 13.9631 9.10495 14.4018 9.29237 14.7934L13.2934 10.7924C12.9018 10.605 12.4631 10.5 12 10.5ZM12 16.5C11.5369 16.5 11.0982 16.395 10.7066 16.2076L14.7076 12.2066C14.895 12.5982 15 13.0369 15 13.5C15 15.1569 13.6569 16.5 12 16.5ZM7 13.5C7 10.7386 9.23858 8.5 12 8.5C14.7614 8.5 17 10.7386 17 13.5C17 16.2614 14.7614 18.5 12 18.5C9.23858 18.5 7 16.2614 7 13.5Z" fill="black"/>
</svg>
