<svg width="24" height="24" viewBox="0 0 24 24" fill="none" xmlns="http://www.w3.org/2000/svg">
<path fill-rule="evenodd" clip-rule="evenodd" d="M4.5 2.5C3.39543 2.5 2.5 3.39543 2.5 4.5V8V12C2.5 17.2467 6.75329 21.5 12 21.5C17.2467 21.5 21.5 17.2467 21.5 12V8V4.5C21.5 3.39543 20.6046 2.5 19.5 2.5H15.5C14.3954 2.5 13.5 3.39543 13.5 4.5V8V12C13.5 12.8284 12.8284 13.5 12 13.5C11.1716 13.5 10.5 12.8284 10.5 12V8V4.5C10.5 3.39543 9.60457 2.5 8.5 2.5H4.5ZM15.5 9V12C15.5 13.933 13.933 15.5 12 15.5C10.067 15.5 8.5 13.933 8.5 12V9H4.5V12C4.5 16.1421 7.85786 19.5 12 19.5C16.1421 19.5 19.5 16.1421 19.5 12V9H15.5ZM19.5 7H15.5V4.5H19.5V7ZM4.5 7H8.5V4.5H4.5V7Z" fill="black"/>
</svg>
