<svg width="24" height="24" viewBox="0 0 24 24" fill="none" xmlns="http://www.w3.org/2000/svg">
<path fill-rule="evenodd" clip-rule="evenodd" d="M19.49 1.35861C19.4364 0.983641 19.1756 0.671122 18.8162 0.551344C18.4569 0.431566 18.0607 0.525088 17.7929 0.79292L14.7929 3.79292C14.6054 3.98046 14.5 4.23481 14.5 4.50003V8.08581L12.518 10.0678C12.3528 10.0236 12.1792 10 12 10C10.8954 10 10 10.8955 10 12C10 13.1046 10.8954 14 12 14C13.1046 14 14 13.1046 14 12C14 11.8209 13.9764 11.6472 13.9323 11.482L15.9142 9.50003H19.5C19.7652 9.50003 20.0196 9.39467 20.2071 9.20713L23.2071 6.20713C23.4749 5.9393 23.5685 5.54313 23.4487 5.1838C23.3289 4.82446 23.0164 4.56364 22.6414 4.51008L19.8839 4.11614L19.49 1.35861ZM20.3787 6.20713L19.0858 7.50003H16.5V4.91424L17.7929 3.62135L18.0101 5.14145C18.0729 5.58143 18.4186 5.92712 18.8586 5.98998L20.3787 6.20713ZM7.85276 5.15896C9.24255 4.31643 10.856 3.91718 12.4783 4.01435C13.0296 4.04737 13.5033 3.62722 13.5363 3.07592C13.5693 2.52463 13.1492 2.05094 12.5979 2.01792C10.57 1.89646 8.55319 2.39553 6.81595 3.44869C5.07872 4.50184 3.70345 6.05914 2.87321 7.91328C2.04297 9.76742 1.79715 11.8305 2.16846 13.8278C2.53977 15.8251 3.5106 17.6619 4.95172 19.0938C6.39285 20.5257 8.23591 21.4847 10.2356 21.8431C12.2352 22.2016 14.2966 21.9425 16.1454 21.1003C17.9942 20.2582 19.5426 18.8729 20.5845 17.129C21.6265 15.385 22.1126 13.365 21.9781 11.3379C21.9415 10.7869 21.4651 10.3698 20.914 10.4063C20.363 10.4429 19.9459 10.9193 19.9825 11.4704C20.0901 13.092 19.7012 14.708 18.8676 16.1032C18.0341 17.4984 16.7953 18.6066 15.3163 19.2803C13.8373 19.954 12.1882 20.1613 10.5885 19.8745C8.98873 19.5878 7.51428 18.8206 6.36138 17.6751C5.20848 16.5296 4.43181 15.0601 4.13477 13.4622C3.83772 11.8644 4.03438 10.2139 4.69857 8.73063C5.36276 7.24732 6.46297 6.00148 7.85276 5.15896ZM9.84657 8.62917C10.5215 8.19799 11.3104 7.97935 12.111 8.00157C12.663 8.01689 13.123 7.58177 13.1383 7.0297C13.1537 6.47762 12.7185 6.01766 12.1665 6.00234C10.9655 5.96901 9.78228 6.29696 8.76986 6.94373C7.75744 7.5905 6.96249 8.52631 6.48794 9.62998C6.01339 10.7337 5.88108 11.9544 6.10816 13.1341C6.33523 14.3138 6.91123 15.3982 7.76157 16.2469C8.61191 17.0955 9.69744 17.6694 10.8776 17.8941C12.0578 18.1189 13.2782 17.9841 14.381 17.5074C15.4837 17.0307 16.4179 16.2339 17.0627 15.2202C17.7075 14.2065 18.0331 13.0226 17.9974 11.8217C17.9809 11.2697 17.5201 10.8355 16.9681 10.8519C16.416 10.8683 15.9818 11.3291 15.9982 11.8811C16.022 12.6817 15.805 13.471 15.3751 14.1468C14.9453 14.8226 14.3225 15.3538 13.5873 15.6716C12.8522 15.9894 12.0385 16.0792 11.2517 15.9294C10.465 15.7796 9.74128 15.397 9.17438 14.8313C8.60749 14.2655 8.22349 13.5426 8.07211 12.7561C7.92072 11.9696 8.00893 11.1558 8.3253 10.42C8.64166 9.68422 9.17163 9.06035 9.84657 8.62917Z" fill="black"/>
</svg>
