<svg width="24" height="24" viewBox="0 0 24 24" fill="none" xmlns="http://www.w3.org/2000/svg">
<path fill-rule="evenodd" clip-rule="evenodd" d="M4.22182 2.22185C4.61235 1.83132 5.24551 1.83132 5.63604 2.22185C6.02656 2.61237 6.02656 3.24554 5.63604 3.63606C4.80031 4.47179 4.13738 5.46394 3.68508 6.55587C3.23279 7.6478 3 8.81813 3 10C3 11.1819 3.23279 12.3522 3.68508 13.4442C4.13738 14.5361 4.80031 15.5283 5.63604 16.364C6.02656 16.7545 6.02656 17.3877 5.63604 17.7782C5.24551 18.1687 4.61235 18.1687 4.22182 17.7782C3.20038 16.7568 2.39013 15.5441 1.83733 14.2095C1.28452 12.875 1 11.4446 1 10C1 8.55548 1.28452 7.12509 1.83733 5.79051C2.39013 4.45592 3.20038 3.24329 4.22182 2.22185ZM19.7782 2.22185C19.3876 1.83132 18.7545 1.83132 18.364 2.22185C17.9734 2.61237 17.9734 3.24554 18.364 3.63606C19.1997 4.47179 19.8626 5.46394 20.3149 6.55587C20.7672 7.6478 21 8.81813 21 10C21 11.1819 20.7672 12.3522 20.3149 13.4442C19.8626 14.5361 19.1997 15.5283 18.364 16.364C17.9734 16.7545 17.9734 17.3877 18.364 17.7782C18.7545 18.1687 19.3876 18.1687 19.7782 17.7782C20.7996 16.7568 21.6099 15.5441 22.1627 14.2095C22.7155 12.875 23 11.4446 23 10C23 8.55548 22.7155 7.12509 22.1627 5.79051C21.6099 4.45592 20.7996 3.24329 19.7782 2.22185ZM15.5355 5.05028C15.9261 4.65975 16.5592 4.65975 16.9497 5.05028C17.5998 5.70029 18.1154 6.47196 18.4672 7.32124C18.8189 8.17052 19 9.08077 19 10C19 10.9193 18.8189 11.8295 18.4672 12.6788C18.1154 13.5281 17.5998 14.2998 16.9497 14.9498C16.5592 15.3403 15.9261 15.3403 15.5355 14.9498C15.145 14.5592 15.145 13.9261 15.5355 13.5356C15.9998 13.0713 16.3681 12.5201 16.6194 11.9134C16.8707 11.3068 17 10.6566 17 10C17 9.34342 16.8707 8.69324 16.6194 8.08661C16.3681 7.47998 15.9998 6.92878 15.5355 6.46449C15.145 6.07397 15.145 5.4408 15.5355 5.05028ZM7.05024 5.05028C7.44076 4.65975 8.07393 4.65975 8.46445 5.05028C8.85498 5.4408 8.85498 6.07397 8.46445 6.46449C8.00016 6.92878 7.63186 7.47998 7.38059 8.08661C7.12932 8.69324 6.99999 9.34342 6.99999 10C6.99999 10.6566 7.12932 11.3068 7.38059 11.9134C7.63186 12.5201 8.00016 13.0713 8.46445 13.5356C8.85498 13.9261 8.85498 14.5592 8.46445 14.9498C8.07393 15.3403 7.44076 15.3403 7.05024 14.9498C6.40023 14.2998 5.88461 13.5281 5.53283 12.6788C5.18105 11.8295 4.99999 10.9193 4.99999 10C4.99999 9.08077 5.18105 8.17052 5.53283 7.32124C5.88461 6.47196 6.40023 5.70029 7.05024 5.05028ZM12 9C11.4477 9 11 9.44772 11 10C11 10.5523 11.4477 11 12 11C12.5523 11 13 10.5523 13 10C13 9.44772 12.5523 9 12 9ZM13 12.8293C14.1652 12.4175 15 11.3062 15 10C15 8.34315 13.6568 7 12 7C10.3431 7 8.99999 8.34315 8.99999 10C8.99999 11.3062 9.8348 12.4175 11 12.8293V21C11 21.5523 11.4477 22 12 22C12.5523 22 13 21.5523 13 21V12.8293Z" fill="black"/>
</svg>
