<svg width="24" height="24" viewBox="0 0 24 24" fill="none" xmlns="http://www.w3.org/2000/svg">
<path fill-rule="evenodd" clip-rule="evenodd" d="M4 5C3.44772 5 3 5.44772 3 6V18C3 18.5523 3.44772 19 4 19H20C20.5523 19 21 18.5523 21 18V9C21 8.44772 20.5523 8 20 8H12.5352C11.8665 8 11.242 7.6658 10.8711 7.1094L9.46482 5H4ZM1 6C1 4.34315 2.34315 3 4 3H9.46482C10.1335 3 10.758 3.3342 11.1289 3.8906L12.5352 6H20C21.6569 6 23 7.34315 23 9V18C23 19.6569 21.6569 21 20 21H4C2.34315 21 1 19.6569 1 18V6ZM13 17C13 17.5523 12.5523 18 12 18C11.4477 18 11 17.5523 11 17C11 16.4477 11.4477 16 12 16C12.5523 16 13 16.4477 13 17ZM12 9C11.1079 9 10.423 9.28927 9.95923 9.58739C9.72932 9.73519 9.55357 9.88503 9.43085 10.0034C9.36927 10.0628 9.3203 10.1149 9.28383 10.1559C9.26556 10.1765 9.25035 10.1943 9.23818 10.209L9.22216 10.2286L9.21584 10.2366L9.2131 10.24L9.21183 10.2417L9.21122 10.2424C9.21093 10.2428 9.21063 10.2432 9.99998 10.8571L9.21063 10.2432C8.87156 10.6791 8.9501 11.3074 9.38604 11.6465C9.81714 11.9818 10.4363 11.9087 10.7779 11.4855L10.7786 11.4847C10.7838 11.4788 10.7974 11.464 10.8191 11.4431C10.8631 11.4007 10.9373 11.3362 11.0407 11.2697C11.2437 11.1393 11.5587 11 12 11C12.4445 11 12.6838 11.1379 12.8058 11.2556C12.9349 11.38 13 11.5447 13 11.7143C13 11.848 12.9708 11.8685 12.9691 11.8697L12.9691 11.8697C12.9377 11.907 12.8658 11.9666 12.6461 12.0864C12.6158 12.103 12.5788 12.1218 12.5365 12.1434C12.1497 12.3409 11.3185 12.7652 11.04 13.72C10.8853 14.2502 11.1898 14.8054 11.72 14.96C12.2502 15.1146 12.8053 14.8102 12.96 14.28C12.9844 14.1964 12.9952 14.1742 13.6038 13.8422C13.8425 13.712 14.2081 13.5037 14.4997 13.1571C14.8224 12.7734 15 12.2914 15 11.7143C15 11.0267 14.7318 10.3343 14.1941 9.81587C13.6495 9.29069 12.8888 9 12 9Z" fill="black"/>
</svg>
