<svg width="24" height="24" viewBox="0 0 24 24" fill="none" xmlns="http://www.w3.org/2000/svg">
<path fill-rule="evenodd" clip-rule="evenodd" d="M9 0.25C9.3601 0.25 9.66937 0.505926 9.73675 0.859666L9.90839 1.76074C10.0879 2.70293 10.8449 3.42778 11.794 3.56619L13.1082 3.75785C13.4767 3.81159 13.75 4.12759 13.75 4.5C13.75 4.87241 13.4767 5.18841 13.1082 5.24215L11.794 5.43381C10.8449 5.57222 10.0879 6.29707 9.90839 7.23926L9.73675 8.14033C9.66937 8.49407 9.3601 8.75 9 8.75C8.6399 8.75 8.33063 8.49407 8.26325 8.14033L8.09161 7.23926C7.91215 6.29707 7.15514 5.57222 6.20604 5.43381L4.89177 5.24215C4.52326 5.18841 4.25 4.87241 4.25 4.5C4.25 4.12759 4.52326 3.81159 4.89177 3.75785L6.20604 3.56619C7.15514 3.42778 7.91215 2.70293 8.09161 1.76074L8.26325 0.859666C8.33063 0.505926 8.6399 0.25 9 0.25ZM9 3.42246C8.71179 3.85376 8.33693 4.2209 7.90032 4.5C8.33693 4.77911 8.71179 5.14624 9 5.57754C9.28821 5.14624 9.66307 4.77911 10.0997 4.5C9.66307 4.2209 9.28821 3.85376 9 3.42246ZM17.0858 4.5C17.8668 3.71895 19.1332 3.71895 19.9142 4.5L21.5 6.08579C22.281 6.86684 22.2811 8.13317 21.5 8.91422L7.91422 22.5C7.13317 23.281 5.86684 23.2811 5.08579 22.5L3.5 20.9142C2.71895 20.1332 2.71895 18.8668 3.5 18.0858L17.0858 4.5ZM15.9142 8.5L17.5 10.0858L20.0858 7.5L18.5 5.91421L15.9142 8.5ZM16.0858 11.5L14.5 9.91422L4.91422 19.5L6.5 21.0858L16.0858 11.5ZM20.5 13.5C20.7444 13.5 20.953 13.6767 20.9932 13.9178L20.9981 13.947C21.1737 15.0006 21.9994 15.8263 23.053 16.0019L23.0822 16.0068C23.3233 16.047 23.5 16.2556 23.5 16.5C23.5 16.7444 23.3233 16.953 23.0822 16.9932L23.053 16.9981C21.9994 17.1737 21.1737 17.9994 20.9981 19.053L20.9932 19.0822C20.953 19.3233 20.7444 19.5 20.5 19.5C20.2556 19.5 20.047 19.3233 20.0068 19.0822L20.0019 19.053C19.8263 17.9994 19.0006 17.1737 17.947 16.9981L17.9178 16.9932C17.6767 16.953 17.5 16.7444 17.5 16.5C17.5 16.2556 17.6767 16.047 17.9178 16.0068L17.947 16.0019C19.0006 15.8263 19.8263 15.0006 20.0019 13.947L20.0068 13.9178C20.047 13.6767 20.2556 13.5 20.5 13.5ZM4.5 12C5.32843 12 6 11.3284 6 10.5C6 9.67157 5.32843 9 4.5 9C3.67157 9 3 9.67157 3 10.5C3 11.3284 3.67157 12 4.5 12Z" fill="black"/>
</svg>
