<svg width="24" height="24" viewBox="0 0 24 24" fill="none" xmlns="http://www.w3.org/2000/svg">
<path fill-rule="evenodd" clip-rule="evenodd" d="M4 12C4 7.58172 7.58172 4 12 4C16.4183 4 20 7.58172 20 12C20 16.4183 16.4183 20 12 20C7.58172 20 4 16.4183 4 12ZM12 2C6.47715 2 2 6.47715 2 12C2 17.5228 6.47715 22 12 22C17.5228 22 22 17.5228 22 12C22 6.47715 17.5228 2 12 2ZM15.5185 16.0972C15.7812 16.583 16.388 16.7638 16.8738 16.5011C17.3596 16.2384 17.5404 15.6316 17.2777 15.1458C16.765 14.1978 16.0064 13.4053 15.0816 12.8518C14.1568 12.2982 13.1 12.004 12.0222 12C10.9444 11.9961 9.88542 12.2825 8.95657 12.8292C8.02772 13.3759 7.26328 14.1627 6.74359 15.1069C6.47729 15.5907 6.65364 16.1989 7.13748 16.4652C7.62132 16.7315 8.22943 16.5551 8.49573 16.0713C8.8422 15.4418 9.35182 14.9173 9.97106 14.5528C10.5903 14.1883 11.2963 13.9974 12.0148 14C12.7333 14.0027 13.4379 14.1988 14.0544 14.5679C14.6709 14.9369 15.1767 15.4652 15.5185 16.0972ZM10.5 9.5C10.5 10.3284 9.82843 11 9 11C8.17157 11 7.5 10.3284 7.5 9.5C7.5 8.67157 8.17157 8 9 8C9.82843 8 10.5 8.67157 10.5 9.5ZM15 11C15.8284 11 16.5 10.3284 16.5 9.5C16.5 8.67157 15.8284 8 15 8C14.1716 8 13.5 8.67157 13.5 9.5C13.5 10.3284 14.1716 11 15 11Z" fill="black"/>
</svg>
