<svg width="24" height="24" viewBox="0 0 24 24" fill="none" xmlns="http://www.w3.org/2000/svg">
<path fill-rule="evenodd" clip-rule="evenodd" d="M17.1961 1.51937C17.7377 1.62768 18.0889 2.15451 17.9806 2.69606L17.8402 3.39804C17.535 4.92394 16.1138 5.96319 14.5672 5.79134L14.1104 5.74059C13.5181 5.67478 13 6.13847 13 6.73448V7.99995H20C21.6569 7.99995 23 9.34309 23 10.9999V18.9999C23 20.6568 21.6569 21.9999 20 21.9999H4C2.34315 21.9999 1 20.6568 1 18.9999V10.9999C1 9.34309 2.34315 7.99995 4 7.99995H11V6.73448C11 4.94644 12.5542 3.55537 14.3313 3.75283L14.788 3.80357C15.3035 3.86086 15.7773 3.51444 15.879 3.00581L16.0194 2.30383C16.1277 1.76227 16.6546 1.41106 17.1961 1.51937ZM4 9.99995C3.44772 9.99995 3 10.4477 3 10.9999V18.9999C3 19.5522 3.44772 19.9999 4 19.9999H20C20.5523 19.9999 21 19.5522 21 18.9999V10.9999C21 10.4477 20.5523 9.99995 20 9.99995H4ZM19.5 12.9999C19.5 13.8284 18.8284 14.4999 18 14.4999C17.1716 14.4999 16.5 13.8284 16.5 12.9999C16.5 12.1715 17.1716 11.4999 18 11.4999C18.8284 11.4999 19.5 12.1715 19.5 12.9999ZM6 14.4999C6.82843 14.4999 7.5 13.8284 7.5 12.9999C7.5 12.1715 6.82843 11.4999 6 11.4999C5.17157 11.4999 4.5 12.1715 4.5 12.9999C4.5 13.8284 5.17157 14.4999 6 14.4999ZM11.5 12.9999C11.5 13.8284 10.8284 14.4999 10 14.4999C9.17157 14.4999 8.5 13.8284 8.5 12.9999C8.5 12.1715 9.17157 11.4999 10 11.4999C10.8284 11.4999 11.5 12.1715 11.5 12.9999ZM14 14.4999C14.8284 14.4999 15.5 13.8284 15.5 12.9999C15.5 12.1715 14.8284 11.4999 14 11.4999C13.1716 11.4999 12.5 12.1715 12.5 12.9999C12.5 13.8284 13.1716 14.4999 14 14.4999ZM19.5 16.9999C19.5 17.8284 18.8284 18.4999 18 18.4999C17.1716 18.4999 16.5 17.8284 16.5 16.9999C16.5 16.1715 17.1716 15.4999 18 15.4999C18.8284 15.4999 19.5 16.1715 19.5 16.9999ZM6 18.4999C6.82843 18.4999 7.5 17.8284 7.5 16.9999C7.5 16.1715 6.82843 15.4999 6 15.4999C5.17157 15.4999 4.5 16.1715 4.5 16.9999C4.5 17.8284 5.17157 18.4999 6 18.4999ZM9.5 15.9999C8.94772 15.9999 8.5 16.4477 8.5 16.9999C8.5 17.5522 8.94772 17.9999 9.5 17.9999H14.5C15.0523 17.9999 15.5 17.5522 15.5 16.9999C15.5 16.4477 15.0523 15.9999 14.5 15.9999H9.5Z" fill="black"/>
</svg>
