<svg width="24" height="24" viewBox="0 0 24 24" fill="none" xmlns="http://www.w3.org/2000/svg">
<path fill-rule="evenodd" clip-rule="evenodd" d="M12 20C16.4183 20 20 16.4183 20 12C20 7.58172 16.4183 4 12 4C7.58172 4 4 7.58172 4 12C4 16.4183 7.58172 20 12 20ZM22 12C22 17.5228 17.5228 22 12 22C6.47715 22 2 17.5228 2 12C2 6.47715 6.47715 2 12 2C17.5228 2 22 6.47715 22 12ZM11.2929 16.7071C10.9024 16.3166 10.9024 15.6834 11.2929 15.2929L13.5858 13L8 13C7.44771 13 7 12.5523 7 12C7 11.4477 7.44771 11 8 11L13.5858 11L11.2929 8.70711C10.9024 8.31658 10.9024 7.68342 11.2929 7.29289C11.6834 6.90237 12.3166 6.90237 12.7071 7.29289L16.7071 11.2929C16.803 11.3888 16.8753 11.4993 16.9241 11.6172C16.973 11.7351 17 11.8644 17 12C17 12.1367 16.9726 12.2669 16.923 12.3856C16.8753 12.4998 16.8055 12.607 16.7136 12.7006C16.7111 12.7031 16.7086 12.7056 16.7061 12.7081L12.7071 16.7071C12.3166 17.0976 11.6834 17.0976 11.2929 16.7071Z" fill="black"/>
</svg>
