<svg width="24" height="24" viewBox="0 0 24 24" fill="none" xmlns="http://www.w3.org/2000/svg">
<path fill-rule="evenodd" clip-rule="evenodd" d="M5.7 17C4.48497 17 3.5 16.015 3.5 14.8L3.5 5.2C3.5 3.98497 4.48498 3 5.7 3H8.8C10.015 3 11 3.98497 11 5.2L11 14.8C11 16.015 10.015 17 8.8 17L5.7 17ZM5.5 14.8C5.5 14.9105 5.58954 15 5.7 15L8.8 15C8.91046 15 9 14.9105 9 14.8L9 5.2C9 5.08954 8.91046 5 8.8 5L5.7 5C5.58954 5 5.5 5.08954 5.5 5.2L5.5 14.8ZM1.5 20C1.5 19.4477 1.94772 19 2.5 19L21.5 19C22.0523 19 22.5 19.4477 22.5 20C22.5 20.5523 22.0523 21 21.5 21L2.5 21C1.94772 21 1.5 20.5523 1.5 20ZM13 14.8C13 16.015 13.985 17 15.2 17L18.3 17C19.515 17 20.5 16.015 20.5 14.8L20.5 8.2C20.5 6.98497 19.515 6 18.3 6L15.2 6C13.985 6 13 6.98497 13 8.2L13 14.8ZM15.2 15C15.0895 15 15 14.9105 15 14.8L15 8.2C15 8.08954 15.0895 8 15.2 8H18.3C18.4105 8 18.5 8.08954 18.5 8.2L18.5 14.8C18.5 14.9105 18.4105 15 18.3 15L15.2 15Z" fill="black"/>
</svg>
