<svg width="24" height="24" viewBox="0 0 24 24" fill="none" xmlns="http://www.w3.org/2000/svg">
<path fill-rule="evenodd" clip-rule="evenodd" d="M4 3.5C2.34315 3.5 1 4.84315 1 6.5V13.5C1 17.366 4.13401 20.5 8 20.5H10.5C13.671 20.5 16.3496 18.3915 17.2101 15.5H18.5C20.9853 15.5 23 13.4853 23 11C23 8.51472 20.9853 6.5 18.5 6.5H17.5C17.5 4.84315 16.1569 3.5 14.5 3.5H4ZM17.5 8.5V13.5H18.5C19.8807 13.5 21 12.3807 21 11C21 9.61929 19.8807 8.5 18.5 8.5H17.5ZM3 6.5C3 5.94772 3.44772 5.5 4 5.5H14.5C15.0523 5.5 15.5 5.94772 15.5 6.5V13.5C15.5 16.2614 13.2614 18.5 10.5 18.5H8C5.23858 18.5 3 16.2614 3 13.5V6.5Z" fill="black"/>
</svg>
