<svg width="24" height="24" viewBox="0 0 24 24" fill="none" xmlns="http://www.w3.org/2000/svg">
<path fill-rule="evenodd" clip-rule="evenodd" d="M4.99995 12C4.99995 8.13401 8.13396 5 12 5C14.5217 5 16.7331 6.33285 17.9666 8.33729C18.256 8.80766 18.8719 8.95432 19.3423 8.66487C19.8127 8.37543 19.9593 7.75949 19.6699 7.28912C19.3919 6.83742 19.0751 6.41205 18.7239 6.0177C19.2973 5.94671 19.8026 5.9319 20.2296 5.96916C21.1068 6.04571 21.4295 6.31343 21.5347 6.49574C21.6238 6.65007 21.6914 6.96519 21.4738 7.56387C21.2585 8.15631 20.807 8.89043 20.1018 9.71774C19.8878 9.9688 19.6539 10.2245 19.4011 10.4832C19.3013 10.5525 19.215 10.6392 19.1465 10.7386C17.7595 12.103 15.8672 13.5386 13.6339 14.828C11.3595 16.1412 9.13053 17.0721 7.23283 17.5857C7.19103 17.594 7.14976 17.605 7.10927 17.6186C6.71531 17.7223 6.33611 17.8076 5.9743 17.8743C4.90523 18.0713 4.04374 18.0952 3.42299 17.9855C2.79572 17.8746 2.55663 17.6585 2.46753 17.5042C2.3626 17.3224 2.29205 16.9112 2.661 16.1172C2.84171 15.7283 3.10717 15.2972 3.45586 14.835C3.61744 15.3222 3.81954 15.7911 4.0582 16.2376C4.31857 16.7246 4.92448 16.9084 5.41154 16.648C5.8986 16.3877 6.08236 15.7817 5.822 15.2947C5.29765 14.3138 4.99995 13.1932 4.99995 12ZM3.00458 12.2911C3.0015 12.1944 2.99995 12.0974 2.99995 12C2.99995 7.02944 7.02939 3 12 3C13.744 3 15.3719 3.49628 16.7504 4.35458C18.0966 4.02862 19.3487 3.88469 20.4035 3.97673C21.5382 4.07576 22.6782 4.47641 23.2668 5.49574C23.7666 6.36151 23.6781 7.35422 23.3535 8.24711C23.0267 9.14624 22.4147 10.0874 21.6239 11.0152C21.4275 11.2456 21.2177 11.4779 20.9954 11.7112C20.9984 11.8071 21 11.9034 21 12C21 16.9706 16.9705 21 12 21C10.2579 21 8.62912 20.5041 7.25006 19.6458C6.93815 19.7213 6.63341 19.7865 6.33686 19.8411C5.13802 20.0621 4.01695 20.1215 3.07487 19.955C2.13932 19.7896 1.23533 19.37 0.735478 18.5042C0.148654 17.4878 0.368834 16.3039 0.847256 15.2744C1.29438 14.3122 2.04674 13.2967 3.00458 12.2911ZM10.1057 18.741C10.7079 18.9097 11.3431 19 12 19C15.2685 19 18.0139 16.7597 18.7843 13.7309C17.5688 14.7128 16.1672 15.6749 14.6339 16.5601C13.0996 17.4459 11.5647 18.1791 10.1057 18.741Z" fill="black"/>
</svg>
