<svg width="24" height="24" viewBox="0 0 24 24" fill="none" xmlns="http://www.w3.org/2000/svg">
<path fill-rule="evenodd" clip-rule="evenodd" d="M10.2929 4.70716C9.57885 3.99312 8.42115 3.99312 7.70711 4.70716C6.99306 5.42121 6.99306 6.57891 7.70711 7.29295L9 8.58584L10.2929 7.29295C11.0069 6.57891 11.0069 5.42121 10.2929 4.70716ZM10.4142 10.0001L11.7071 8.70717C13.2022 7.21207 13.2022 4.78805 11.7071 3.29295C10.212 1.79786 7.78799 1.79786 6.2929 3.29295C4.7978 4.78805 4.7978 7.21207 6.2929 8.70717L7.58579 10.0001L5.04289 12.543C2.85745 14.7284 2.85745 18.2717 5.0429 20.4572C7.22834 22.6426 10.7717 22.6426 12.9571 20.4572L15.5 17.9143L18.7929 21.2072C19.1834 21.5977 19.8166 21.5977 20.2071 21.2072C20.5976 20.8166 20.5976 20.1835 20.2071 19.7929L16.9142 16.5001L20.2071 13.2072C20.5976 12.8166 20.5976 12.1835 20.2071 11.793C19.8166 11.4024 19.1834 11.4024 18.7929 11.793L15.5 15.0858L10.4142 10.0001ZM9 11.4143L6.45711 13.9572C5.05271 15.3616 5.05271 17.6385 6.45711 19.0429C7.86151 20.4474 10.1385 20.4474 11.5429 19.043L14.0858 16.5001L9 11.4143Z" fill="black"/>
</svg>
