<svg width="24" height="24" viewBox="0 0 24 24" fill="none" xmlns="http://www.w3.org/2000/svg">
<path fill-rule="evenodd" clip-rule="evenodd" d="M3.76902 9.92943C4.72113 6.28096 8.08125 3.5 12 3.5C15.9188 3.5 19.2789 6.28095 20.231 9.92942C20.3358 10.3307 20.2231 10.6869 19.9462 10.9762C19.6535 11.2819 19.1782 11.5 18.6386 11.5H14.8951H9.10498H5.36144C4.82191 11.5 4.34661 11.2819 4.05391 10.9762C3.77693 10.6869 3.6643 10.3307 3.76902 9.92943ZM8.88275 13.5H5.36144C4.30449 13.5 3.29823 13.0789 2.60926 12.3593C1.90458 11.6233 1.53544 10.5679 1.83383 9.42443C3.00372 4.94141 7.12445 1.5 12 1.5C16.8757 1.5 20.9963 4.94141 22.1662 9.42441C22.4646 10.5679 22.0955 11.6232 21.3908 12.3593C20.7018 13.0789 19.6956 13.5 18.6386 13.5H15.1173L15.6626 18.4079C15.9052 20.5909 14.1964 22.5 12 22.5C9.80364 22.5 8.09488 20.5909 8.33743 18.4079L8.88275 13.5ZM10.8951 13.5L10.3252 18.6288C10.2143 19.627 10.9957 20.5 12 20.5C13.0044 20.5 13.7858 19.627 13.6748 18.6288L13.105 13.5H10.8951Z" fill="black"/>
</svg>
