<svg width="24" height="24" viewBox="0 0 24 24" fill="none" xmlns="http://www.w3.org/2000/svg">
<path fill-rule="evenodd" clip-rule="evenodd" d="M4.30646 16.2158C4.44182 15.1625 4.75884 14.2985 5.29323 13.7641C5.86345 13.1939 6.72326 12.966 7.73456 12.9772C8.00362 12.9802 8.26253 12.8747 8.45279 12.6844C8.64306 12.4941 8.74862 12.2352 8.74563 11.9662C8.73437 10.9549 8.96229 10.0951 9.53252 9.52484C10.103 8.9544 10.9632 8.72653 11.9749 8.73796C12.2441 8.741 12.5031 8.63541 12.6934 8.44507C12.8837 8.25472 12.9893 7.99569 12.9862 7.72654C12.9746 6.71496 13.2023 5.85509 13.7723 5.28505C14.3064 4.75099 15.17 4.43416 16.2232 4.29899C17.2558 4.16645 18.3311 4.2263 19.1325 4.318C19.4412 4.35333 19.6681 4.57943 19.7059 4.88233C19.8045 5.67407 19.871 6.73488 19.7389 7.75973C19.6049 8.80027 19.2833 9.6735 18.7221 10.2348C18.1311 10.8257 17.2812 11.0574 16.3057 11.0528C16.0389 11.0515 15.7827 11.157 15.594 11.3456C15.4053 11.5343 15.2998 11.7905 15.301 12.0573C15.3054 13.0329 15.0736 13.8833 14.4823 14.4746C13.8912 15.0657 13.0413 15.2976 12.0661 15.2934C11.7994 15.2922 11.5432 15.3976 11.3546 15.5862C11.166 15.7748 11.0606 16.031 11.0617 16.2977C11.066 17.2729 10.8341 18.1228 10.243 18.7139C9.68135 19.2755 8.80783 19.5973 7.76717 19.7315C6.74218 19.8637 5.68127 19.7974 4.88943 19.6988C4.58647 19.6611 4.36033 19.4342 4.32504 19.1254C4.23344 18.3239 4.17374 17.2485 4.30646 16.2158ZM3.87901 12.3499C2.88806 13.3409 2.48151 14.7256 2.32277 15.9608C2.16139 17.2166 2.23706 18.4695 2.33798 19.3525C2.47747 20.573 3.41779 21.531 4.64233 21.6835C5.52065 21.7929 6.76621 21.8771 8.02298 21.7151C9.26406 21.555 10.6476 21.1377 11.6572 20.1281C12.5014 19.2839 12.8751 18.2385 13.0048 17.2364C14.0069 17.1067 15.0523 16.733 15.8965 15.8888C16.7409 15.0443 17.1146 13.9986 17.2442 12.9961C18.2464 12.8667 19.292 12.4933 20.1363 11.649C21.1457 10.6396 21.5627 9.25613 21.7226 8.01522C21.8844 6.75861 21.8 5.51316 21.6905 4.63496C21.5379 3.4107 20.5801 2.4706 19.3599 2.33097C18.477 2.22995 17.2242 2.15409 15.9686 2.31526C14.7336 2.47378 13.3489 2.88005 12.3581 3.87084C11.5165 4.71243 11.1556 5.77435 11.0354 6.78734C10.0222 6.90766 8.96011 7.26882 8.1183 8.11063C7.27677 8.95216 6.91558 10.0139 6.79513 11.0267C5.78225 11.1472 4.72055 11.5084 3.87901 12.3499ZM8.82017 17.3084C9.40596 16.7226 9.40596 15.7728 8.82017 15.1871C8.23439 14.6013 7.28464 14.6013 6.69885 15.1871C6.11306 15.7728 6.11306 16.7226 6.69885 17.3084C7.28464 17.8942 8.23439 17.8942 8.82017 17.3084ZM17.3053 6.70171C17.8911 7.2875 17.8911 8.23724 17.3053 8.82303C16.7195 9.40882 15.7697 9.40882 15.184 8.82303C14.5982 8.23724 14.5982 7.2875 15.184 6.70171C15.7697 6.11592 16.7195 6.11592 17.3053 6.70171ZM13.0628 13.0657C13.6486 12.4799 13.6486 11.5302 13.0628 10.9444C12.4771 10.3586 11.5273 10.3586 10.9415 10.9444C10.3557 11.5302 10.3557 12.4799 10.9415 13.0657C11.5273 13.6515 12.4771 13.6515 13.0628 13.0657Z" fill="black"/>
</svg>
