<svg width="24" height="24" viewBox="0 0 24 24" fill="none" xmlns="http://www.w3.org/2000/svg">
<path fill-rule="evenodd" clip-rule="evenodd" d="M17.6569 17.6569C20.781 14.5327 20.781 9.46734 17.6569 6.34315C14.5327 3.21895 9.46734 3.21895 6.34315 6.34315C3.21895 9.46734 3.21895 14.5327 6.34314 17.6569C9.46734 20.781 14.5327 20.781 17.6569 17.6569ZM19.0711 4.92893C22.9763 8.83418 22.9763 15.1658 19.0711 19.0711C15.1658 22.9763 8.83417 22.9763 4.92893 19.0711C1.02369 15.1658 1.02369 8.83417 4.92893 4.92893C8.83418 1.02369 15.1658 1.02369 19.0711 4.92893ZM14.8296 15.8284C14.2773 15.8284 13.8296 15.3807 13.8296 14.8284V11.5865L9.88064 15.5355C9.49012 15.9261 8.85695 15.9261 8.46643 15.5355C8.0759 15.145 8.0759 14.5118 8.46643 14.1213L12.4162 10.1716L9.17278 10.1716C8.6205 10.1716 8.17278 9.72386 8.17278 9.17157C8.17278 8.61929 8.6205 8.17157 9.17278 8.17157L14.8296 8.17157C15.3819 8.17157 15.8296 8.61929 15.8296 9.17157V14.8284C15.8296 15.3807 15.3819 15.8284 14.8296 15.8284Z" fill="black"/>
</svg>
