<svg width="24" height="24" viewBox="0 0 24 24" fill="none" xmlns="http://www.w3.org/2000/svg">
<path fill-rule="evenodd" clip-rule="evenodd" d="M1.99988 6C1.99988 4.34315 3.34302 3 4.99988 3H18.9999C20.6567 3 21.9999 4.34315 21.9999 6V18C21.9999 19.6569 20.6567 21 18.9999 21H4.99988C3.34302 21 1.99988 19.6569 1.99988 18V6ZM4.99988 5C4.44759 5 3.99988 5.44772 3.99988 6V7.5H19.9999V6C19.9999 5.44772 19.5522 5 18.9999 5H4.99988ZM19.9999 9.5H3.99988V18C3.99988 18.5523 4.44759 19 4.99988 19H18.9999C19.5522 19 19.9999 18.5523 19.9999 18V9.5ZM14.5674 11.3142C13.8815 10.7138 12.9832 10.35 12 10.35C9.84607 10.35 8.09998 12.0961 8.09998 14.25C8.09998 15.2296 8.46114 16.1248 9.05757 16.8098C9.09887 16.8888 9.1527 16.9629 9.21905 17.0293C9.28523 17.0954 9.35915 17.1492 9.4379 17.1904C10.1232 17.788 11.0193 18.15 12 18.15C14.1539 18.15 15.9 16.4039 15.9 14.25C15.9 13.2657 15.5353 12.3665 14.9337 11.6803C14.8932 11.605 14.8411 11.5343 14.7776 11.4708C14.7138 11.407 14.6429 11.3549 14.5674 11.3142ZM11.2931 16.228C11.514 16.307 11.752 16.35 12 16.35C13.1598 16.35 14.1 15.4098 14.1 14.25C14.1 14.002 14.057 13.764 13.978 13.5431L11.2931 16.228ZM10.0211 14.9545C9.94266 14.7342 9.89998 14.4971 9.89998 14.25C9.89998 13.0902 10.8402 12.15 12 12.15C12.2471 12.15 12.4842 12.1927 12.7045 12.2711L10.0211 14.9545Z" fill="black"/>
</svg>
