<svg width="24" height="24" viewBox="0 0 24 24" fill="none" xmlns="http://www.w3.org/2000/svg">
<path fill-rule="evenodd" clip-rule="evenodd" d="M23 5C23 5.55228 22.5523 6 22 6H20V8C20 8.55228 19.5523 9 19 9C18.4477 9 18 8.55228 18 8V6H16C15.4477 6 15 5.55228 15 5C15 4.44772 15.4477 4 16 4H18V2C18 1.44772 18.4477 1 19 1C19.5523 1 20 1.44772 20 2V4H22C22.5523 4 23 4.44772 23 5ZM10.5 9.5C10.5 10.3284 9.82844 11 9.00001 11C8.17158 11 7.50001 10.3284 7.50001 9.5C7.50001 8.67157 8.17158 8 9.00001 8C9.82844 8 10.5 8.67157 10.5 9.5ZM17.0989 11.9714C17.6411 12.0767 17.9953 12.6015 17.89 13.1437C17.6269 14.4985 16.9049 15.7212 15.8455 16.6057C14.7861 17.4902 13.4542 17.9825 12.0742 17.9995C10.6942 18.0166 9.35047 17.5574 8.26954 16.6993C7.18862 15.8412 6.43655 14.6368 6.14008 13.2889C6.02144 12.7495 6.36253 12.2161 6.90192 12.0974C7.44131 11.9788 7.97475 12.3199 8.09339 12.8593C8.29103 13.7578 8.79241 14.5608 9.51303 15.1329C10.2336 15.7049 11.1294 16.0111 12.0494 15.9997C12.9694 15.9883 13.8574 15.6601 14.5637 15.0705C15.2699 14.4808 15.7513 13.6656 15.9267 12.7624C16.0319 12.2203 16.5568 11.8661 17.0989 11.9714ZM15 11C15.8284 11 16.5 10.3284 16.5 9.5C16.5 8.67157 15.8284 8 15 8C14.1716 8 13.5 8.67157 13.5 9.5C13.5 10.3284 14.1716 11 15 11ZM12.8994 2.04053C10.8555 1.85595 8.80427 2.3047 7.02414 3.32586C5.24401 4.34702 3.82116 5.89115 2.94869 7.74869C2.07622 9.60623 1.79639 11.6872 2.14717 13.7092C2.49794 15.7313 3.46234 17.5964 4.90949 19.0516C6.35663 20.5067 8.21643 21.4814 10.2365 21.8433C12.2566 22.2052 14.3391 21.9368 16.2014 21.0746C18.0637 20.2124 19.6156 18.7981 20.6466 17.0236C21.6776 15.2491 22.1376 13.2004 21.9643 11.1555C21.9176 10.6052 21.4337 10.1969 20.8834 10.2435C20.3331 10.2902 19.9248 10.7741 19.9714 11.3244C20.1101 12.9603 19.742 14.5993 18.9173 16.0189C18.0925 17.4385 16.851 18.5699 15.3611 19.2597C13.8713 19.9495 12.2053 20.1641 10.5892 19.8746C8.97315 19.5851 7.4853 18.8054 6.32759 17.6412C5.16988 16.4771 4.39836 14.985 4.11774 13.3674C3.83711 11.7498 4.06098 10.085 4.75895 8.59895C5.45693 7.11292 6.59521 5.87762 8.01931 5.06069C9.44342 4.24376 11.0844 3.88476 12.7195 4.03242C13.2696 4.08209 13.7557 3.67646 13.8054 3.12641C13.8551 2.57637 13.4494 2.0902 12.8994 2.04053Z" fill="black"/>
</svg>
