<svg width="24" height="24" viewBox="0 0 24 24" fill="none" xmlns="http://www.w3.org/2000/svg">
<path fill-rule="evenodd" clip-rule="evenodd" d="M7.5 4C7.5 2.89543 8.39543 2 9.5 2H14.5C15.6046 2 16.5 2.89543 16.5 4V7.5H20C21.1046 7.5 22 8.39543 22 9.5V14.5C22 15.6046 21.1046 16.5 20 16.5H16.5V20C16.5 21.1046 15.6046 22 14.5 22H9.5C8.39543 22 7.5 21.1046 7.5 20V16.5H4C2.89543 16.5 2 15.6046 2 14.5V9.5C2 8.39543 2.89543 7.5 4 7.5H7.5V4ZM14.5 4H9.5V8.5C9.5 9.05228 9.05228 9.5 8.5 9.5H4V14.5H8.5C9.05228 14.5 9.5 14.9477 9.5 15.5V20H14.5V15.5C14.5 14.9477 14.9477 14.5 15.5 14.5H20V9.5H15.5C14.9477 9.5 14.5 9.05228 14.5 8.5V4Z" fill="black"/>
</svg>
