<svg width="24" height="24" viewBox="0 0 24 24" fill="none" xmlns="http://www.w3.org/2000/svg">
<path fill-rule="evenodd" clip-rule="evenodd" d="M3.5 5C3.5 3.34315 4.84315 2 6.5 2H17.5C19.1569 2 20.5 3.34315 20.5 5V19C20.5 20.6569 19.1569 22 17.5 22H6.5C4.84315 22 3.5 20.6569 3.5 19V5ZM6.5 4C5.94772 4 5.5 4.44772 5.5 5V19C5.5 19.5523 5.94772 20 6.5 20H17.5C18.0523 20 18.5 19.5523 18.5 19V5C18.5 4.44772 18.0523 4 17.5 4H6.5ZM11.1 7.13735C10.167 7.4304 9.43038 8.16699 9.13734 9.10001H11.1V7.13735ZM11.1 12.8627C10.167 12.5696 9.43039 11.833 9.13734 10.9H11.1V12.8627ZM12.9 12.8627V10.9H14.8627C14.5696 11.833 13.833 12.5696 12.9 12.8627ZM12.9 7.13733C13.833 7.43037 14.5696 8.16698 14.8627 9.10001H12.9V7.13733ZM7 10C7 7.23858 9.23858 5 12 5C14.7614 5 17 7.23858 17 10C17 12.7614 14.7614 15 12 15C9.23858 15 7 12.7614 7 10ZM8.5 16C7.94772 16 7.5 16.4477 7.5 17C7.5 17.5523 7.94772 18 8.5 18H15.5C16.0523 18 16.5 17.5523 16.5 17C16.5 16.4477 16.0523 16 15.5 16H8.5Z" fill="black"/>
</svg>
