<svg width="24" height="24" viewBox="0 0 24 24" fill="none" xmlns="http://www.w3.org/2000/svg">
<path fill-rule="evenodd" clip-rule="evenodd" d="M5.5 5C4.39543 5 3.5 5.89543 3.5 7V16.5C3.5 17.6046 4.39543 18.5 5.5 18.5H18.5C19.6046 18.5 20.5 17.6046 20.5 16.5V10C20.5 8.89543 19.6046 8 18.5 8H12.5352C11.8665 8 11.242 7.6658 10.8711 7.1094L9.46482 5H5.5ZM1.5 7C1.5 4.79086 3.29086 3 5.5 3H9.46482C10.1335 3 10.758 3.3342 11.1289 3.8906L12.5352 6H18.5C20.7091 6 22.5 7.79086 22.5 10V16.5C22.5 18.7091 20.7091 20.5 18.5 20.5H5.5C3.29086 20.5 1.5 18.7091 1.5 16.5V7Z" fill="black"/>
</svg>
