<svg width="24" height="24" viewBox="0 0 24 24" fill="none" xmlns="http://www.w3.org/2000/svg">
<path fill-rule="evenodd" clip-rule="evenodd" d="M13 3.55494V8.5C13 9.05228 12.5523 9.5 12 9.5C11.4477 9.5 11 9.05228 11 8.5V3.55495C9.10541 3.76444 7.38776 4.56214 6.03404 5.76137L7.98578 8.81911C8.28293 9.28464 8.14643 9.90292 7.6809 10.2001C7.21536 10.4972 6.59709 10.3607 6.29994 9.89518L4.64806 7.30723C3.90229 8.36101 3.37746 9.58215 3.14111 10.9032C3.01869 11.5874 3.32959 12.3512 3.99317 12.9484L8.98481 17.4409C9.18873 17.6244 9.30829 17.8837 9.3155 18.1579C9.32271 18.4322 9.21694 18.6973 9.02296 18.8913L8.26783 19.6464C7.95284 19.9614 8.17593 20.5 8.62138 20.5H15.3787C15.8242 20.5 16.0473 19.9614 15.7323 19.6464L14.9772 18.8913C14.7832 18.6973 14.6774 18.4322 14.6846 18.1579C14.6918 17.8837 14.8114 17.6244 15.0153 17.4409L20.007 12.9484C20.6705 12.3512 20.9814 11.5874 20.859 10.9032C20.6227 9.58211 20.0978 8.36095 19.352 7.30715L17.7001 9.89518C17.4029 10.3607 16.7846 10.4972 16.3191 10.2001C15.8536 9.90292 15.7171 9.28464 16.0142 8.81911L17.966 5.76131C16.6123 4.56209 14.8946 3.76441 13 3.55494ZM12.0001 1.5C6.5894 1.5 2.09297 5.40546 1.17237 10.551C0.895369 12.0992 1.6331 13.5151 2.65524 14.435L6.86344 18.2224L6.85361 18.2322C5.2787 19.8071 6.39412 22.5 8.62138 22.5H15.3787C17.606 22.5 18.7214 19.8071 17.1465 18.2322L17.1367 18.2224L21.3449 14.435C22.367 13.5151 23.1047 12.0992 22.8278 10.551C21.9072 5.40546 17.4107 1.5 12.0001 1.5Z" fill="black"/>
</svg>
