<svg width="24" height="24" viewBox="0 0 24 24" fill="none" xmlns="http://www.w3.org/2000/svg">
<path fill-rule="evenodd" clip-rule="evenodd" d="M8.84944 4.64427C9.81629 4.22961 10.8813 4 12 4C13.1182 4 14.1829 4.22943 15.1495 4.6438L11.9993 10.1L8.84944 4.64427ZM13.6447 11.05L16.7942 5.59505C18.5018 6.87528 19.6806 8.82244 19.9442 11.05H13.6447ZM10.3539 11.05L7.20486 5.59577C5.49775 6.87601 4.31931 8.82286 4.05581 11.05H10.3539ZM4.05582 12.95H10.3539L8.87387 15.5135C8.70296 15.2072 8.37567 15 8 15C7.44772 15 7 15.4477 7 16C7 16.5523 7.44772 17 8 17L8.01568 16.9999L7.20487 18.4042C5.49778 17.124 4.31935 15.1772 4.05582 12.95ZM13.6448 12.95H19.9442C19.6806 15.1776 18.5018 17.1247 16.7942 18.405L13.6448 12.95ZM11.9993 13.9L8.84945 19.3557C9.81631 19.7704 10.8813 20 12 20C13.1182 20 14.1829 19.7706 15.1494 19.3562L11.9993 13.9ZM12 2C6.47715 2 2 6.47715 2 12C2 17.5228 6.47715 22 12 22C17.5228 22 22 17.5228 22 12C22 6.47715 17.5228 2 12 2ZM13 7C13 7.55228 12.5523 8 12 8C11.4477 8 11 7.55228 11 7C11 6.44772 11.4477 6 12 6C12.5523 6 13 6.44772 13 7ZM8 9C8 9.55229 7.55228 10 7 10C6.44772 10 6 9.55229 6 9C6 8.44771 6.44772 8 7 8C7.55228 8 8 8.44771 8 9ZM16 10C16.5523 10 17 9.55229 17 9C17 8.44771 16.5523 8 16 8C15.4477 8 15 8.44771 15 9C15 9.55229 15.4477 10 16 10ZM18 15C18 15.5523 17.5523 16 17 16C16.4477 16 16 15.5523 16 15C16 14.4477 16.4477 14 17 14C17.5523 14 18 14.4477 18 15ZM13 19C13.5523 19 14 18.5523 14 18C14 17.4477 13.5523 17 13 17C12.4477 17 12 17.4477 12 18C12 18.5523 12.4477 19 13 19Z" fill="black"/>
</svg>
