<svg width="24" height="24" viewBox="0 0 24 24" fill="none" xmlns="http://www.w3.org/2000/svg">
<path fill-rule="evenodd" clip-rule="evenodd" d="M11 1C7.8675 1 6.08673 2.48637 5.1367 4.02451C4.67648 4.76963 4.42124 5.5068 4.28018 6.05315C4.253 6.15846 4.22986 6.25743 4.2102 6.34888L4.15653 6.37072C3.76538 6.53189 3.23912 6.7906 2.70718 7.18216C1.62957 7.97541 0.5 9.34589 0.5 11.5C0.5 13.3249 1.14694 14.6143 2.06841 15.4792C2.95863 16.3149 4.02741 16.6829 4.78576 16.8492C5.32522 16.9675 5.85846 16.6261 5.97678 16.0867C6.0951 15.5472 5.7537 15.014 5.21424 14.8956C4.64673 14.7712 3.96551 14.5169 3.4372 14.021C2.94013 13.5544 2.5 12.803 2.5 11.5C2.5 10.1541 3.17043 9.32459 3.89282 8.79284C4.26088 8.5219 4.63462 8.33686 4.91847 8.2199C5.05902 8.16199 5.17377 8.12231 5.24961 8.09809C5.28742 8.08601 5.31522 8.07788 5.33135 8.07332L5.34645 8.06916C5.75987 7.96387 6.06139 7.60772 6.09659 7.18255L6.09676 7.18076L6.09936 7.15636C6.1022 7.13151 6.10742 7.09008 6.11606 7.03448C6.1334 6.92296 6.16424 6.75628 6.21669 6.5531C6.32251 6.1432 6.51102 5.60537 6.8383 5.07549C7.46327 4.06363 8.6325 3 11 3C12.3147 3 13.2352 3.34154 13.8953 3.80361C14.5641 4.27178 15.0267 4.90709 15.3471 5.57993C15.6689 6.25556 15.8347 6.94397 15.9186 7.47239C15.9602 7.73415 15.9806 7.95023 15.9906 8.09717C15.9956 8.17047 15.9979 8.22607 15.999 8.26098C15.9993 8.26795 15.9994 8.2741 15.9996 8.27938C15.9998 8.28731 15.9999 8.2933 15.9999 8.29729L16 8.30085L16 8.30286C16.0009 8.63239 16.1642 8.94039 16.4365 9.12614C16.709 9.31196 17.0555 9.35148 17.3627 9.23192L17.3647 9.23111L17.3788 9.22591C17.3937 9.22042 17.4184 9.21158 17.4512 9.20048C17.5173 9.17815 17.6142 9.14745 17.7305 9.11666C17.9719 9.05272 18.2513 9.00059 18.4958 9L18.5116 9.00042C18.5291 9.00101 18.5594 9.00233 18.6006 9.00527C18.6834 9.01118 18.8082 9.0235 18.9606 9.04889C19.2701 9.10048 19.6675 9.20178 20.0528 9.39443C20.4342 9.58511 20.7851 9.85544 21.0429 10.2422C21.2966 10.6227 21.5 11.175 21.5 12C21.5 13.2543 21.0316 13.9138 20.5355 14.3027C19.9915 14.729 19.3149 14.9021 18.8595 14.9667C18.3127 15.0443 17.9323 15.5505 18.0099 16.0973C18.0875 16.6441 18.5937 17.0245 19.1405 16.9469C19.7581 16.8592 20.8315 16.6118 21.7693 15.8768C22.7549 15.1042 23.5 13.8614 23.5 12C23.5 10.825 23.2034 9.87729 22.7071 9.1328C22.2149 8.39456 21.5658 7.91489 20.9472 7.60557C20.3325 7.29822 19.7299 7.14952 19.2894 7.07611C19.0668 7.039 18.8791 7.02007 18.7431 7.01035C18.675 7.00549 18.6193 7.0029 18.5782 7.00153C18.5577 7.00085 18.5407 7.00046 18.5276 7.00025L18.5108 7.00005L18.5047 7.00001L18.5021 7L18.501 7C18.501 7 18.5 7 18.5 8V7C18.2843 7 18.0726 7.01898 17.8756 7.04754C17.7663 6.40714 17.5573 5.56931 17.1529 4.72007C16.7233 3.81791 16.0609 2.87823 15.0422 2.16514C14.0148 1.44596 12.6853 1 11 1ZM8.29289 14.2929C8.68342 13.9024 9.31658 13.9024 9.70711 14.2929L12 16.5858L14.2929 14.2929C14.6834 13.9024 15.3166 13.9024 15.7071 14.2929C16.0976 14.6834 16.0976 15.3166 15.7071 15.7071L13.4142 18L15.7071 20.2929C16.0976 20.6834 16.0976 21.3166 15.7071 21.7071C15.3166 22.0976 14.6834 22.0976 14.2929 21.7071L12 19.4142L9.70711 21.7071C9.31658 22.0976 8.68342 22.0976 8.29289 21.7071C7.90237 21.3166 7.90237 20.6834 8.29289 20.2929L10.5858 18L8.29289 15.7071C7.90237 15.3166 7.90237 14.6834 8.29289 14.2929Z" fill="black"/>
</svg>
