<svg width="24" height="24" viewBox="0 0 24 24" fill="none" xmlns="http://www.w3.org/2000/svg">
<path fill-rule="evenodd" clip-rule="evenodd" d="M12 3C10.3431 3 9 4.34315 9 6V11.9748L8.66691 12.2729C7.6424 13.1899 7 14.5193 7 16C7 18.7614 9.23858 21 12 21C14.7614 21 17 18.7614 17 16C17 14.5193 16.3576 13.1899 15.3331 12.2729L15 11.9748V6C15 4.34315 13.6569 3 12 3ZM7 6C7 3.23858 9.23858 1 12 1C14.7614 1 17 3.23858 17 6V11.101C18.2361 12.3626 19 14.0927 19 16C19 19.866 15.866 23 12 23C8.13401 23 5 19.866 5 16C5 14.0926 5.76392 12.3626 7 11.101V6ZM15 16C15 17.6569 13.6569 19 12 19C10.3431 19 9 17.6569 9 16C9 14.6938 9.83481 13.5825 11 13.1707V9C11 8.44772 11.4477 8 12 8C12.5523 8 13 8.44772 13 9V13.1707C14.1652 13.5825 15 14.6938 15 16Z" fill="black"/>
</svg>
