<svg width="24" height="24" viewBox="0 0 24 24" fill="none" xmlns="http://www.w3.org/2000/svg">
<path fill-rule="evenodd" clip-rule="evenodd" d="M8 4V5H16V4H8ZM6 4V5H5C3.34315 5 2 6.34315 2 8V15C2 16.6569 3.34315 18 5 18H6V20C6 21.1046 6.89543 22 8 22H16C17.1046 22 18 21.1046 18 20V18H19C20.6569 18 22 16.6569 22 15V8C22 6.34315 20.6569 5 19 5H18V4C18 2.89543 17.1046 2 16 2H8C6.89543 2 6 2.89543 6 4ZM18 16H19C19.5523 16 20 15.5523 20 15V8C20 7.44772 19.5523 7 19 7H16H8H5C4.44772 7 4 7.44772 4 8V15C4 15.5523 4.44772 16 5 16H6V14C6 12.8954 6.89543 12 8 12H16C17.1046 12 18 12.8954 18 14V16ZM8 18V20H16V14H8V16V18ZM17.5 11C18.3284 11 19 10.3284 19 9.5C19 8.67157 18.3284 8 17.5 8C16.6716 8 16 8.67157 16 9.5C16 10.3284 16.6716 11 17.5 11Z" fill="black"/>
</svg>
