<svg width="24" height="24" viewBox="0 0 24 24" fill="none" xmlns="http://www.w3.org/2000/svg">
<path fill-rule="evenodd" clip-rule="evenodd" d="M3.5 12C3.5 7.30558 7.30558 3.5 12 3.5C16.6944 3.5 20.5 7.30558 20.5 12C20.5 16.6944 16.6944 20.5 12 20.5C7.30558 20.5 3.5 16.6944 3.5 12ZM12 1.5C6.20101 1.5 1.5 6.20101 1.5 12C1.5 17.799 6.20101 22.5 12 22.5C17.799 22.5 22.5 17.799 22.5 12C22.5 6.20101 17.799 1.5 12 1.5ZM10.0556 6C9.50327 6 9.05556 6.44772 9.05556 7V9.05556H7C6.44772 9.05556 6 9.50327 6 10.0556V13.9444C6 14.4967 6.44772 14.9444 7 14.9444H9.05556V17C9.05556 17.5523 9.50327 18 10.0556 18H13.9444C14.4967 18 14.9444 17.5523 14.9444 17V14.9444H17C17.5523 14.9444 18 14.4967 18 13.9444V10.0556C18 9.50327 17.5523 9.05556 17 9.05556H14.9444V7C14.9444 6.44772 14.4967 6 13.9444 6H10.0556ZM11.0556 10.0556V8H12.9444V10.0556C12.9444 10.6078 13.3922 11.0556 13.9444 11.0556H16V12.9444H13.9444C13.3922 12.9444 12.9444 13.3922 12.9444 13.9444V16H11.0556V13.9444C11.0556 13.3922 10.6078 12.9444 10.0556 12.9444H8V11.0556H10.0556C10.6078 11.0556 11.0556 10.6078 11.0556 10.0556Z" fill="black"/>
</svg>
