<svg width="24" height="24" viewBox="0 0 24 24" fill="none" xmlns="http://www.w3.org/2000/svg">
<path fill-rule="evenodd" clip-rule="evenodd" d="M7.51452 2.14254C7.04094 1.85839 6.42668 2.01195 6.14254 2.48553C5.85839 2.95911 6.01195 3.57337 6.48553 3.85752L8.38966 5H6C3.79086 5 2 6.79086 2 9V17C2 18.8638 3.27477 20.4299 5 20.874V22C5 22.5523 5.44772 23 6 23C6.55228 23 7 22.5523 7 22V21H17V22C17 22.5523 17.4477 23 18 23C18.5523 23 19 22.5523 19 22V20.874C20.7252 20.4299 22 18.8638 22 17V9C22 6.79086 20.2091 5 18 5H15.6104L17.5145 3.85752C17.9881 3.57337 18.1417 2.95911 17.8575 2.48553C17.5734 2.01195 16.9591 1.85839 16.4855 2.14254L12 4.83384L7.51452 2.14254ZM11.9924 7C11.9975 7.00004 12.0026 7.00004 12.0077 7H18C19.1046 7 20 7.89543 20 9V17C20 18.1046 19.1046 19 18 19H6C4.89543 19 4 18.1046 4 17V9C4 7.89543 4.89543 7 6 7H11.9924Z" fill="black"/>
</svg>
