<svg width="24" height="24" viewBox="0 0 24 24" fill="none" xmlns="http://www.w3.org/2000/svg">
<path fill-rule="evenodd" clip-rule="evenodd" d="M8 2C8.55228 2 9 2.44772 9 3V4H15V3C15 2.44772 15.4477 2 16 2C16.5523 2 17 2.44772 17 3V4H19C20.6569 4 22 5.34315 22 7V19C22 20.6569 20.6569 22 19 22H5C3.34315 22 2 20.6569 2 19V7C2 5.34315 3.34315 4 5 4H7V3C7 2.44772 7.44772 2 8 2ZM15 6V7C15 7.55228 15.4477 8 16 8C16.5523 8 17 7.55228 17 7V6H19C19.5523 6 20 6.44772 20 7V19C20 19.5523 19.5523 20 19 20H5C4.44772 20 4 19.5523 4 19V7C4 6.44772 4.44772 6 5 6H7V7C7 7.55228 7.44772 8 8 8C8.55228 8 9 7.55228 9 7V6H15ZM13.5275 9.49889C12.9273 8.38001 11.3228 8.38001 10.7226 9.49889L10.0121 10.8234L8.5329 11.0898C7.28331 11.3149 6.78752 12.8408 7.66616 13.7574L8.70628 14.8424L8.50256 16.3316C8.33047 17.5895 9.6285 18.5326 10.7717 17.9802L12.125 17.3263L13.4784 17.9802C14.6216 18.5326 15.9196 17.5895 15.7475 16.3316L15.5438 14.8424L16.5839 13.7574C17.4626 12.8408 16.9668 11.3149 15.7172 11.0898L14.238 10.8234L13.5275 9.49889ZM11.3178 12.6204L12.125 11.1155L12.9323 12.6204L14.6131 12.9231L13.4313 14.156L13.6628 15.848L12.125 15.105L10.5873 15.848L10.8188 14.156L9.63698 12.9231L11.3178 12.6204Z" fill="black"/>
</svg>
