<svg width="24" height="24" viewBox="0 0 24 24" fill="none" xmlns="http://www.w3.org/2000/svg">
<path fill-rule="evenodd" clip-rule="evenodd" d="M12 4C7.58172 4 4 7.58172 4 12C4 16.4183 7.58172 20 12 20C16.4183 20 20 16.4183 20 12C20 7.58172 16.4183 4 12 4ZM2 12C2 6.47715 6.47715 2 12 2C17.5228 2 22 6.47715 22 12C22 17.5228 17.5228 22 12 22C6.47715 22 2 17.5228 2 12ZM14.3071 6.04803C14.2103 6.01684 14.1071 6 14 6H10.5C9.94772 6 9.5 6.44772 9.5 7V10.5H8.5C7.94771 10.5 7.5 10.9477 7.5 11.5C7.5 12.0523 7.94772 12.5 8.5 12.5H9.5V13.5H8.5C7.94772 13.5 7.5 13.9477 7.5 14.5C7.5 15.0523 7.94772 15.5 8.5 15.5H9.5V17C9.5 17.5523 9.94772 18 10.5 18C11.0523 18 11.5 17.5523 11.5 17V15.5H13.5C14.0523 15.5 14.5 15.0523 14.5 14.5C14.5 13.9477 14.0523 13.5 13.5 13.5H11.5V12.5H14C14.1074 12.5 14.2109 12.4831 14.3079 12.4517C14.9459 12.3405 15.5409 12.0403 16.012 11.5836C16.6183 10.9958 16.9721 10.1952 16.9984 9.35118C17.0247 8.50717 16.7215 7.68605 16.153 7.06171C15.665 6.52587 15.0145 6.17108 14.3071 6.04803ZM13.7387 10.5C13.7425 10.5 13.7462 10.4999 13.75 10.4999C14.0748 10.4999 14.3868 10.3735 14.62 10.1475C14.8532 9.92144 14.9893 9.6135 14.9994 9.28888C15.0095 8.96426 14.8929 8.64845 14.6742 8.40831C14.4555 8.16818 14.152 8.02259 13.8278 8.00237C13.8176 8.00173 13.8074 8.00094 13.7973 8H11.5V10.5H13.7387Z" fill="black"/>
</svg>
