<svg width="24" height="24" viewBox="0 0 24 24" fill="none" xmlns="http://www.w3.org/2000/svg">
<path fill-rule="evenodd" clip-rule="evenodd" d="M17.6569 6.34315C14.5327 3.21895 9.46734 3.21895 6.34315 6.34315C3.21895 9.46734 3.21895 14.5327 6.34315 17.6569C9.46734 20.781 14.5327 20.781 17.6569 17.6569C20.781 14.5327 20.781 9.46734 17.6569 6.34315ZM4.92893 4.92893C8.83418 1.02369 15.1658 1.02369 19.0711 4.92893C22.9763 8.83417 22.9763 15.1658 19.0711 19.0711C15.1658 22.9763 8.83418 22.9763 4.92893 19.0711C1.02369 15.1658 1.02369 8.83417 4.92893 4.92893ZM12.3817 5.35651C12.9068 5.52787 13.1935 6.0924 13.0221 6.61743C12.9539 6.8263 12.879 7.03251 12.7975 7.23576C12.592 7.74838 12.0099 7.99735 11.4972 7.79185C10.9846 7.58634 10.7356 7.00418 10.9411 6.49155C11.0063 6.32895 11.0663 6.16399 11.1208 5.99689C11.2922 5.47186 11.8567 5.18515 12.3817 5.35651ZM10.9431 8.69477C11.3584 9.05879 11.4 9.69059 11.036 10.1059C10.8917 10.2706 10.7417 10.4308 10.5864 10.5861C10.431 10.7415 10.2708 10.8914 10.1061 11.0357C9.69074 11.3997 9.05895 11.358 8.69497 10.9427C8.33098 10.5273 8.37264 9.89549 8.78802 9.53151C8.91977 9.41606 9.04791 9.29612 9.17221 9.17183C9.2965 9.04755 9.41645 8.91942 9.53192 8.78768C9.89594 8.37234 10.5277 8.33074 10.9431 8.69477ZM7.792 11.4967C7.99745 12.0094 7.74843 12.5915 7.23578 12.797C7.03252 12.8784 6.8263 12.9533 6.61743 13.0215C6.09239 13.1928 5.52788 12.906 5.35658 12.381C5.18527 11.8559 5.47203 11.2914 5.99707 11.1201C6.16418 11.0656 6.32915 11.0057 6.49176 10.9405C7.0044 10.7351 7.58654 10.9841 7.792 11.4967ZM17.3517 10.9888C17.8762 10.8158 18.4416 11.1007 18.6147 11.6251C18.7877 12.1496 18.5028 12.7151 17.9783 12.8881C17.8109 12.9434 17.6455 13.0041 17.4826 13.07C16.9707 13.2773 16.3877 13.0303 16.1804 12.5184C15.9732 12.0065 16.2201 11.4235 16.732 11.2162C16.9357 11.1338 17.1423 11.0579 17.3517 10.9888ZM13.8594 12.9951C14.2731 12.6292 14.9051 12.6679 15.271 13.0816C15.6369 13.4952 15.5982 14.1272 15.1845 14.4931C15.0529 14.6096 14.9249 14.7306 14.8008 14.8559C14.6767 14.9812 14.557 15.1103 14.4418 15.2431C14.0799 15.6603 13.4483 15.7051 13.0311 15.3432C12.614 14.9813 12.5691 14.3498 12.931 13.9326C13.075 13.7666 13.2246 13.6052 13.3798 13.4485C13.5349 13.2919 13.6949 13.1407 13.8594 12.9951ZM11.18 16.8223C11.3823 16.3084 11.9629 16.0558 12.4768 16.2581C12.9907 16.4604 13.2433 17.041 13.041 17.5549C12.9766 17.7184 12.9175 17.8843 12.8639 18.0523C12.6959 18.5784 12.1333 18.8688 11.6071 18.7008C11.081 18.5329 10.7907 17.9702 10.9586 17.4441C11.0257 17.2341 11.0995 17.0267 11.18 16.8223Z" fill="black"/>
</svg>
