<svg width="24" height="24" viewBox="0 0 24 24" fill="none" xmlns="http://www.w3.org/2000/svg">
<path fill-rule="evenodd" clip-rule="evenodd" d="M10.8 4.39997C12.1185 3.41111 14 4.35188 14 5.99997V18C14 19.6481 12.1185 20.5888 10.8 19.6L6.71175 16.5338L5.39802 16.6652C3.04327 16.9006 1 15.0515 1 12.685V11.3149C1 8.94844 3.04327 7.09931 5.39801 7.33478L6.71175 7.46616L10.8 4.39997ZM12 5.99997L7.6 9.29997C7.39951 9.45034 7.14987 9.51994 6.9005 9.49501L5.19901 9.32486C4.02164 9.20712 3 10.1317 3 11.3149V12.685C3 13.8682 4.02164 14.7928 5.19901 14.6751L6.9005 14.5049C7.14987 14.48 7.39951 14.5496 7.6 14.7L12 18V5.99997ZM15.5 12C15.5 11.4477 15.9477 11 16.5 11H18.5V8.99997C18.5 8.44768 18.9477 7.99997 19.5 7.99997C20.0523 7.99997 20.5 8.44768 20.5 8.99997V11H22.5C23.0523 11 23.5 11.4477 23.5 12C23.5 12.5523 23.0523 13 22.5 13H20.5V15C20.5 15.5523 20.0523 16 19.5 16C18.9477 16 18.5 15.5523 18.5 15V13H16.5C15.9477 13 15.5 12.5523 15.5 12Z" fill="black"/>
</svg>
