<svg width="24" height="24" viewBox="0 0 24 24" fill="none" xmlns="http://www.w3.org/2000/svg">
<path fill-rule="evenodd" clip-rule="evenodd" d="M6.5 8.5C6.5 5.46243 8.96243 3 12 3C15.0376 3 17.5 5.46243 17.5 8.5C17.5 10.3848 16.5528 12.0486 15.1039 13.0412C14.2639 13.6166 13.5 14.5943 13.5 15.8347V16C13.5 16.5523 13.0523 17 12.5 17H11.5C10.9477 17 10.5 16.5523 10.5 16V15.8347C10.5 14.5943 9.73607 13.6166 8.89612 13.0412C7.44719 12.0486 6.5 10.3848 6.5 8.5ZM12 1C7.85786 1 4.5 4.35786 4.5 8.5C4.5 11.0723 5.79587 13.3417 7.76581 14.6912C8.25769 15.0282 8.5 15.4608 8.5 15.8347V16C8.5 17.6569 9.84315 19 11.5 19H12.5C14.1569 19 15.5 17.6569 15.5 16V15.8347C15.5 15.4608 15.7423 15.0282 16.2342 14.6912C18.2041 13.3417 19.5 11.0723 19.5 8.5C19.5 4.35786 16.1421 1 12 1ZM10 21C9.44772 21 9 21.4477 9 22C9 22.5523 9.44772 23 10 23H14C14.5523 23 15 22.5523 15 22C15 21.4477 14.5523 21 14 21H10Z" fill="black"/>
</svg>
