<svg width="24" height="24" viewBox="0 0 24 24" fill="none" xmlns="http://www.w3.org/2000/svg">
<path fill-rule="evenodd" clip-rule="evenodd" d="M4.20325 13.7891C5.10743 8.93438 8.93438 5.10743 13.7891 4.20325L13.7929 4.20711L19.7929 10.2071L19.7967 10.2109C18.8926 15.0656 15.0656 18.8926 10.2109 19.7967C10.2097 19.7955 10.2084 19.7942 10.2071 19.7929L4.20711 13.7929C4.20582 13.7916 4.20454 13.7903 4.20325 13.7891ZM4.00725 16.4215C4.03377 17.1908 4.13258 17.9409 4.29686 18.6655C4.41417 19.1829 4.81714 19.5858 5.33454 19.7031C6.05913 19.8674 6.80924 19.9662 7.57853 19.9927L4.00725 16.4215ZM19.9927 7.57853L16.4215 4.00725C17.1908 4.03377 17.9409 4.13258 18.6655 4.29686C19.1829 4.41417 19.5858 4.81714 19.7031 5.33454C19.8674 6.05913 19.9662 6.80924 19.9927 7.57853ZM16 2C8.26801 2 2 8.26801 2 16C2 17.067 2.11954 18.1072 2.34636 19.1077C2.634 20.3764 3.62365 21.366 4.89233 21.6536C5.89277 21.8805 6.93304 22 8 22C15.732 22 22 15.732 22 8C22 6.93304 21.8805 5.89277 21.6536 4.89233C21.366 3.62365 20.3764 2.634 19.1077 2.34636C18.1072 2.11954 17.067 2 16 2ZM15.7071 9.70711C16.0976 9.31658 16.0976 8.68342 15.7071 8.29289C15.3166 7.90237 14.6834 7.90237 14.2929 8.29289L13.5 9.08579L12.7071 8.29289C12.3166 7.90237 11.6834 7.90237 11.2929 8.29289C10.9024 8.68342 10.9024 9.31658 11.2929 9.70711L12.0858 10.5L10.5 12.0858L9.70711 11.2929C9.31658 10.9024 8.68342 10.9024 8.29289 11.2929C7.90237 11.6834 7.90237 12.3166 8.29289 12.7071L9.08579 13.5L8.29289 14.2929C7.90237 14.6834 7.90237 15.3166 8.29289 15.7071C8.68342 16.0976 9.31658 16.0976 9.70711 15.7071L10.5 14.9142L11.2929 15.7071C11.6834 16.0976 12.3166 16.0976 12.7071 15.7071C13.0976 15.3166 13.0976 14.6834 12.7071 14.2929L11.9142 13.5L13.5 11.9142L14.2929 12.7071C14.6834 13.0976 15.3166 13.0976 15.7071 12.7071C16.0976 12.3166 16.0976 11.6834 15.7071 11.2929L14.9142 10.5L15.7071 9.70711Z" fill="black"/>
</svg>
