<svg width="24" height="24" viewBox="0 0 24 24" fill="none" xmlns="http://www.w3.org/2000/svg">
<g clip-path="url(#clip0_1172_6623)">
<path fill-rule="evenodd" clip-rule="evenodd" d="M16.2951 1.69022C16.4273 2.0857 16.3002 2.5217 15.9762 2.78421C15.5691 3.11408 15.195 3.48304 14.8598 3.88528C18.1483 4.17948 21.2488 6.01624 23.0263 9.095C23.0902 9.20566 23.1519 9.31705 23.2113 9.42911C23.4067 9.79747 23.3531 10.2484 23.0767 10.5607C22.8003 10.8729 22.3592 10.9808 21.9698 10.8315C21.4805 10.6438 20.9739 10.5043 20.4578 10.4151C21.8471 13.4101 21.8065 17.0134 20.0291 20.092C19.9652 20.2026 19.8996 20.3117 19.8323 20.4193C19.611 20.7727 19.1936 20.9517 18.785 20.8685C18.3764 20.7852 18.0624 20.4571 17.997 20.0453C17.915 19.528 17.7825 19.0198 17.6019 18.5285C15.7034 21.2334 12.5601 23.0031 9.00193 23.0031L9.00193 22.4012L9.00193 23.0031C8.8811 23.0031 8.76069 23.0011 8.64075 22.997C8.22372 22.9829 7.8593 22.7113 7.72655 22.3157C7.5938 21.9202 7.72063 21.4837 8.04472 21.2209C8.45379 20.8892 8.82942 20.5179 9.16582 20.1131C5.86736 19.8265 2.75493 17.9881 0.972598 14.9011C0.912177 14.7964 0.853745 14.6911 0.797293 14.5852C0.601013 14.217 0.653996 13.7656 0.930207 13.4529C1.20642 13.1401 1.64779 13.0317 2.03745 13.181C2.52919 13.3693 3.0384 13.509 3.55707 13.5979C2.15587 10.598 2.19164 6.98318 3.97405 3.89595L4.49531 4.1969L3.97405 3.89595C4.03447 3.7913 4.09644 3.68805 4.15993 3.58622C4.38067 3.23212 4.79807 3.05231 5.20703 3.13513C5.616 3.21796 5.93054 3.54601 5.99611 3.95809C6.07891 4.47844 6.21265 4.98956 6.39513 5.48347C8.29311 2.77423 11.439 1.00105 15.0006 1.00105C15.1284 1.00105 15.2557 1.00334 15.3824 1.00787C15.7992 1.0228 16.1629 1.29474 16.2951 1.69022ZM4.84948 6.96571C4.19141 9.43979 4.69719 12.0718 6.17039 14.1181C6.38443 14.4154 6.41877 14.8059 6.2599 15.136C6.10104 15.4661 5.7744 15.6829 5.40852 15.7011C4.96038 15.7234 4.51279 15.7154 4.0688 15.6778C5.88226 17.4846 8.4143 18.3626 10.9229 18.1101C11.2874 18.0734 11.6427 18.239 11.8491 18.5416C12.0556 18.8442 12.08 19.2355 11.9128 19.5614C11.7081 19.9607 11.4773 20.3444 11.2227 20.7101C13.6893 20.0444 15.7125 18.2962 16.75 16.0042C16.901 15.6705 17.2224 15.4461 17.5877 15.4193C17.953 15.3924 18.3038 15.5674 18.502 15.8755C18.7439 16.2515 18.9594 16.6421 19.1478 17.0442C19.8125 14.5718 19.3136 11.9395 17.8472 9.88995C17.6342 9.5922 17.6009 9.20184 17.7604 8.87231C17.9199 8.54278 18.2468 8.32678 18.6125 8.30921C19.0586 8.28778 19.5042 8.29643 19.9462 8.33432C18.1373 6.52234 15.6079 5.63825 13.0996 5.88362C12.7352 5.91926 12.3805 5.75292 12.1749 5.44999C11.9692 5.14705 11.9456 4.75597 12.1132 4.43048C12.3177 4.03344 12.548 3.65194 12.8018 3.28818C10.3232 3.95003 8.28966 5.70416 7.24989 8.00583C7.09914 8.33952 6.77807 8.56415 6.41293 8.59138C6.04778 8.6186 5.69694 8.44409 5.49838 8.13644C5.2553 7.75985 5.03874 7.36859 4.84948 6.96571ZM13.5011 12.0014C13.5011 11.173 12.8295 10.5014 12.0011 10.5014C11.1726 10.5014 10.5011 11.173 10.5011 12.0014C10.5011 12.8298 11.1726 13.5014 12.0011 13.5014C12.8295 13.5014 13.5011 12.8298 13.5011 12.0014ZM12.0011 8.50138C13.9341 8.50139 15.5011 10.0684 15.5011 12.0014C15.5011 13.9344 13.9341 15.5014 12.0011 15.5014C10.0681 15.5014 8.50106 13.9344 8.50106 12.0014C8.50106 10.0684 10.0681 8.50138 12.0011 8.50138Z" fill="black"/>
</g>
<defs>
<clipPath id="clip0_1172_6623">
<rect width="24" height="24" fill="white"/>
</clipPath>
</defs>
</svg>
