<svg width="24" height="24" viewBox="0 0 24 24" fill="none" xmlns="http://www.w3.org/2000/svg">
<path fill-rule="evenodd" clip-rule="evenodd" d="M3 4C3 3.44772 3.44772 3 4 3H12C16.9706 3 21 7.02944 21 12C21 16.9706 16.9706 21 12 21H4C3.44772 21 3 20.5523 3 20C3 19.4477 3.44772 19 4 19H12C15.866 19 19 15.866 19 12C19 8.13401 15.866 5 12 5H4C3.44772 5 3 4.55228 3 4ZM3 12C3 11.4477 3.44772 11 4 11H9.17071C9.58254 9.83481 10.6938 9 12 9C13.6569 9 15 10.3431 15 12C15 13.6569 13.6569 15 12 15C10.6938 15 9.58254 14.1652 9.17071 13H4C3.44772 13 3 12.5523 3 12ZM11 12C11 11.4477 11.4477 11 12 11C12.5523 11 13 11.4477 13 12C13 12.5523 12.5523 13 12 13C11.4477 13 11 12.5523 11 12Z" fill="black"/>
</svg>
