<svg width="24" height="24" viewBox="0 0 24 24" fill="none" xmlns="http://www.w3.org/2000/svg">
<path fill-rule="evenodd" clip-rule="evenodd" d="M8 2C8.55228 2 9 2.44772 9 3V4H15V3C15 2.44772 15.4477 2 16 2C16.5523 2 17 2.44772 17 3V4H19C20.6569 4 22 5.34315 22 7V19C22 20.6569 20.6569 22 19 22H5C3.34315 22 2 20.6569 2 19V7C2 5.34315 3.34315 4 5 4H7V3C7 2.44772 7.44772 2 8 2ZM15 6V7C15 7.55228 15.4477 8 16 8C16.5523 8 17 7.55228 17 7V6H19C19.5523 6 20 6.44772 20 7V19C20 19.5523 19.5523 20 19 20H5C4.44772 20 4 19.5523 4 19V7C4 6.44772 4.44772 6 5 6H7V7C7 7.55228 7.44772 8 8 8C8.55228 8 9 7.55228 9 7V6H15ZM16.2071 12.2071C16.5976 11.8166 16.5976 11.1834 16.2071 10.7929C15.8166 10.4024 15.1834 10.4024 14.7929 10.7929L11 14.5858L9.20711 12.7929C8.81658 12.4024 8.18342 12.4024 7.79289 12.7929C7.40237 13.1834 7.40237 13.8166 7.79289 14.2071L10.2929 16.7071C10.6834 17.0976 11.3166 17.0976 11.7071 16.7071L16.2071 12.2071Z" fill="black"/>
</svg>
