<svg width="24" height="24" viewBox="0 0 24 24" fill="none" xmlns="http://www.w3.org/2000/svg">
<path fill-rule="evenodd" clip-rule="evenodd" d="M13.9999 2.25001C12.7623 1.53548 11.2375 1.53548 9.9999 2.25001L4.55615 5.39296C3.31855 6.10749 2.55615 7.428 2.55615 8.85706V15.143C2.55615 16.572 3.31855 17.8925 4.55615 18.6071L9.9999 21.75C11.2375 22.4645 12.7623 22.4645 13.9999 21.75L19.4436 18.6071C20.6813 17.8925 21.4436 16.572 21.4436 15.143V8.85706C21.4436 7.428 20.6813 6.10749 19.4436 5.39296L13.9999 2.25001ZM10.9999 3.98206C11.6187 3.62479 12.3811 3.62479 12.9999 3.98206L18.4436 7.12501C19.0625 7.48228 19.4436 8.14253 19.4436 8.85706V15.143C19.4436 15.8575 19.0625 16.5177 18.4436 16.875L12.9999 20.018C12.3811 20.3752 11.6187 20.3752 10.9999 20.018L5.55615 16.875C4.93735 16.5177 4.55615 15.8575 4.55615 15.143V8.85706C4.55615 8.14253 4.93735 7.48228 5.55615 7.12501L10.9999 3.98206ZM7.49968 8.247C7.02139 7.97085 6.4098 8.13473 6.13365 8.61302C5.85751 9.09131 6.02139 9.7029 6.49968 9.97905L11.0001 12.5773V17.5C11.0001 18.0523 11.4478 18.5 12.0001 18.5C12.5524 18.5 13.0001 18.0523 13.0001 17.5V12.5773L17.5005 9.97905C17.9788 9.7029 18.1426 9.09131 17.8665 8.61302C17.5903 8.13473 16.9788 7.97085 16.5005 8.247L12.0001 10.8453L7.49968 8.247Z" fill="black"/>
</svg>
