<svg width="24" height="24" viewBox="0 0 24 24" fill="none" xmlns="http://www.w3.org/2000/svg">
<path fill-rule="evenodd" clip-rule="evenodd" d="M10.8477 4.32073C11.4474 3.6011 12.5526 3.6011 13.1523 4.32073L17.1032 9.06175L20.406 6.08923C21.4108 5.18489 23.0052 5.96681 22.9053 7.31498L22.2031 16.7955C22.0484 18.8842 20.3085 20.5 18.214 20.5H5.786C3.6915 20.5 1.95165 18.8842 1.79693 16.7955L1.09467 7.31498C0.994805 5.96681 2.58919 5.18489 3.59402 6.08923L6.89682 9.06175L10.8477 4.32073ZM12 6.06203L7.76822 11.1402C7.59421 11.349 7.34269 11.478 7.07156 11.4974C6.80044 11.5169 6.53308 11.4251 6.33104 11.2433L3.18114 8.40837L3.79146 16.6477C3.86883 17.6921 4.73875 18.5 5.786 18.5H18.214C19.2613 18.5 20.1312 17.6921 20.2085 16.6477L20.8189 8.40837L17.669 11.2433C17.4669 11.4251 17.1996 11.5169 16.9284 11.4974C16.6573 11.478 16.4058 11.349 16.2318 11.1402L12 6.06203Z" fill="black"/>
</svg>
