<svg width="24" height="24" viewBox="0 0 24 24" fill="none" xmlns="http://www.w3.org/2000/svg">
<path fill-rule="evenodd" clip-rule="evenodd" d="M4 3C4.55228 3 5 3.44772 5 4V19H21C21.5523 19 22 19.4477 22 20C22 20.5523 21.5523 21 21 21H4C3.44772 21 3 20.5523 3 20V4C3 3.44772 3.44772 3 4 3ZM7.29289 7.29289C7.48043 7.10536 7.73478 7 8 7H12C12.2652 7 12.5196 7.10536 12.7071 7.29289C12.8946 7.48043 13 7.73478 13 8L13 16C13 16.5523 12.5523 17 12 17H8C7.44772 17 7 16.5523 7 16L7 8C7 7.73478 7.10536 7.48043 7.29289 7.29289ZM9 9L9 15H11L11 9H9ZM16 3C15.7348 3 15.4804 3.10536 15.2929 3.29289C15.1054 3.48043 15 3.73478 15 4L15 16C15 16.5523 15.4477 17 16 17H20C20.5523 17 21 16.5523 21 16V4C21 3.73478 20.8946 3.48043 20.7071 3.29289C20.5196 3.10536 20.2652 3 20 3H16ZM17 15L17 5H19L19 15H17Z" fill="black"/>
</svg>
