<svg width="24" height="24" viewBox="0 0 24 24" fill="none" xmlns="http://www.w3.org/2000/svg">
<path fill-rule="evenodd" clip-rule="evenodd" d="M11.5 2C9.567 2 8 3.567 8 5.5V8H5.5C3.567 8 2 9.567 2 11.5V18.5C2 20.433 3.567 22 5.5 22H12.5C14.433 22 16 20.433 16 18.5V16H18.5C20.433 16 22 14.433 22 12.5V5.5C22 3.567 20.433 2 18.5 2H11.5ZM11.5859 16H11.5C10.8973 16 10.3301 15.8476 9.83495 15.5793L5.41657 19.9977C5.44419 19.9992 5.472 20 5.5 20H7.58586L11.5859 16ZM8.42072 14.1651C8.15238 13.67 8 13.1028 8 12.5V12.4143L4 16.4143V18.5C4 18.528 4.00077 18.5559 4.00229 18.5836L8.42072 14.1651ZM10 5.5C10 4.67157 10.6716 4 11.5 4H18.5C19.3284 4 20 4.67157 20 5.5V12.5C20 13.3284 19.3284 14 18.5 14H11.5C10.6716 14 10 13.3284 10 12.5V5.5ZM4 11.5C4 10.6716 4.67157 10 5.5 10H7.58586L4 13.5859V11.5ZM10.4143 20H12.5C13.3284 20 14 19.3284 14 18.5V16.4143L10.4143 20Z" fill="black"/>
</svg>
