<svg width="24" height="24" viewBox="0 0 24 24" fill="none" xmlns="http://www.w3.org/2000/svg">
<path fill-rule="evenodd" clip-rule="evenodd" d="M6.5 2C4.84315 2 3.5 3.34315 3.5 5V19C3.5 20.6569 4.84315 22 6.5 22H17.5C19.1569 22 20.5 20.6569 20.5 19V5C20.5 3.34315 19.1569 2 17.5 2H6.5ZM5.5 5C5.5 4.44772 5.94772 4 6.5 4H17.5C18.0523 4 18.5 4.44772 18.5 5V19C18.5 19.5523 18.0523 20 17.5 20H6.5C5.94772 20 5.5 19.5523 5.5 19V5ZM12.1543 5.52472C12.0883 5.40165 11.9118 5.40165 11.8458 5.52472L11.5679 6.04275L10.9893 6.14696C10.8519 6.17171 10.7974 6.33955 10.894 6.44037L11.3008 6.86473L11.2211 7.44717C11.2022 7.58554 11.345 7.68927 11.4707 7.62851L12 7.37275L12.5293 7.62851C12.6551 7.68927 12.7979 7.58554 12.7789 7.44717L12.6992 6.86473L13.1061 6.44037C13.2027 6.33955 13.1482 6.17171 13.0107 6.14696L12.4322 6.04275L12.1543 5.52472ZM12.1543 12.3172L12.4322 12.8352L13.0107 12.9394C13.1482 12.9641 13.2027 13.132 13.1061 13.2328L12.6992 13.6572L12.7789 14.2396C12.7979 14.378 12.6551 14.4817 12.5293 14.4209L12 14.1652L11.4707 14.4209C11.345 14.4817 11.2022 14.378 11.2211 14.2396L11.3008 13.6572L10.894 13.2328C10.7974 13.132 10.8519 12.9641 10.9893 12.9394L11.5679 12.8352L11.8458 12.3172C11.9118 12.1941 12.0883 12.1941 12.1543 12.3172ZM14.5558 6.51944C14.4898 6.39637 14.3133 6.39637 14.2473 6.51944L13.9694 7.03747L13.3908 7.14168C13.2534 7.16643 13.1988 7.33427 13.2955 7.43509L13.7023 7.85946L13.6226 8.44189C13.6037 8.58026 13.7465 8.68399 13.8722 8.62323L14.4015 8.36747L14.9308 8.62323C15.0566 8.68399 15.1993 8.58026 15.1804 8.44189L15.1007 7.85946L15.5075 7.43509C15.6042 7.33427 15.5497 7.16643 15.4122 7.14168L14.8337 7.03747L14.5558 6.51944ZM9.44428 11.3224C9.5103 11.1994 9.68678 11.1994 9.7528 11.3224L10.0307 11.8405L10.6092 11.9447C10.7467 11.9694 10.8012 12.1373 10.7046 12.2381L10.2978 12.6624L10.3774 13.2449C10.3964 13.3832 10.2536 13.487 10.1278 13.4262L9.59854 13.1704L9.06923 13.4262C8.94349 13.487 8.80071 13.3832 8.81964 13.2449L8.89932 12.6624L8.49251 12.2381C8.39587 12.1373 8.4504 11.9694 8.58785 11.9447L9.1664 11.8405L9.44428 11.3224ZM9.7528 6.51946C9.68678 6.39639 9.5103 6.39639 9.44428 6.51946L9.1664 7.03749L8.58785 7.14169C8.4504 7.16645 8.39587 7.33429 8.49251 7.4351L8.89932 7.85947L8.81964 8.4419C8.80071 8.58027 8.94349 8.684 9.06923 8.62324L9.59854 8.36748L10.1278 8.62324C10.2536 8.684 10.3964 8.58027 10.3774 8.4419L10.2978 7.85947L10.7046 7.4351C10.8012 7.33429 10.7467 7.16645 10.6092 7.14169L10.0307 7.03749L9.7528 6.51946ZM14.5558 11.3224L14.8337 11.8405L15.4122 11.9447C15.5497 11.9694 15.6042 12.1373 15.5075 12.2381L15.1007 12.6624L15.1804 13.2449C15.1993 13.3832 15.0566 13.487 14.9308 13.4262L14.4015 13.1704L13.8722 13.4262C13.7465 13.487 13.6037 13.3832 13.6226 13.2449L13.7023 12.6624L13.2955 12.2381C13.1988 12.1373 13.2534 11.9694 13.3908 11.9447L13.9694 11.8405L14.2473 11.3224C14.3133 11.1994 14.4898 11.1994 14.5558 11.3224ZM15.5505 8.92093C15.4844 8.79786 15.308 8.79786 15.242 8.92093L14.9641 9.43896L14.3855 9.54317C14.2481 9.56792 14.1935 9.73576 14.2902 9.83658L14.697 10.2609L14.6173 10.8434C14.5984 10.9817 14.7412 11.0855 14.8669 11.0247L15.3962 10.769L15.9255 11.0247C16.0513 11.0855 16.194 10.9817 16.1751 10.8434L16.0954 10.2609L16.5022 9.83658C16.5989 9.73576 16.5443 9.56792 16.4069 9.54317L15.8284 9.43896L15.5505 8.92093ZM8.44953 8.92093C8.51555 8.79786 8.69203 8.79786 8.75805 8.92093L9.03593 9.43896L9.61448 9.54317C9.75193 9.56792 9.80646 9.73576 9.70982 9.83658L9.30301 10.2609L9.38269 10.8434C9.40162 10.9817 9.25884 11.0855 9.13309 11.0247L8.60379 10.769L8.07448 11.0247C7.94874 11.0855 7.80596 10.9817 7.82489 10.8434L7.90457 10.2609L7.49776 9.83658C7.40112 9.73576 7.45565 9.56792 7.5931 9.54317L8.17165 9.43896L8.44953 8.92093ZM8.5 16C7.94772 16 7.5 16.4477 7.5 17C7.5 17.5523 7.94772 18 8.5 18H15.5C16.0523 18 16.5 17.5523 16.5 17C16.5 16.4477 16.0523 16 15.5 16H8.5Z" fill="black"/>
</svg>
