<svg width="24" height="24" viewBox="0 0 24 24" fill="none" xmlns="http://www.w3.org/2000/svg">
<path fill-rule="evenodd" clip-rule="evenodd" d="M3.5 12C3.5 7.30558 7.30558 3.5 12 3.5C13.8587 3.5 15.5781 4.09659 16.977 5.10874L12.8683 9.21747C12.5046 9.1527 12.127 9.15479 11.7543 9.22933L11.1498 9.35024L11.4806 7.69612C11.5462 7.36826 11.4436 7.02932 11.2071 6.7929L10.2071 5.7929C9.94635 5.53212 9.56321 5.43604 9.21024 5.54291C8.85727 5.64978 8.59177 5.94225 8.51944 6.30389L8.15019 8.15017L6.30391 8.51942C5.94228 8.59175 5.6498 8.85725 5.54293 9.21022C5.43606 9.56319 5.53214 9.94633 5.79292 10.2071L6.79292 11.2071C7.02934 11.4435 7.36828 11.5462 7.69614 11.4806L9.35023 11.1498L9.22933 11.7543C9.15478 12.1271 9.1527 12.5046 9.21747 12.8683L5.10874 16.977C4.09659 15.5781 3.5 13.8587 3.5 12ZM6.464 18.4502C7.95129 19.7279 9.88548 20.5 12 20.5C16.6944 20.5 20.5 16.6944 20.5 12C20.5 9.88548 19.7279 7.95129 18.4502 6.464L14.6642 10.25L16.7071 12.2929C17.9261 13.5118 17.926 15.4882 16.7071 16.7071C15.4881 17.9261 13.5118 17.9261 12.2929 16.7071L10.25 14.6642L6.464 18.4502ZM12 1.5C6.20101 1.5 1.5 6.20101 1.5 12C1.5 17.799 6.20101 22.5 12 22.5C17.799 22.5 22.5 17.799 22.5 12C22.5 6.20101 17.799 1.5 12 1.5ZM13.25 11.6642L11.6642 13.25L13.7071 15.2929C14.145 15.7308 14.855 15.7308 15.2929 15.2929C15.7308 14.855 15.7308 14.145 15.2929 13.7071L13.25 11.6642Z" fill="black"/>
</svg>
