<svg width="24" height="24" viewBox="0 0 24 24" fill="none" xmlns="http://www.w3.org/2000/svg">
<path fill-rule="evenodd" clip-rule="evenodd" d="M5.21301 4.98724C5.78478 2.85337 7.97813 1.58704 10.112 2.15881L18.8053 4.48818C20.9392 5.05995 22.2055 7.2533 21.6338 9.38716L19.7332 16.4801C19.39 17.761 18.552 18.8531 17.4036 19.5161L14.1496 21.3948C13.0012 22.0578 11.6364 22.2375 10.3555 21.8943L5.19443 20.5114C3.06057 19.9396 1.79424 17.7463 2.36601 15.6124L5.21301 4.98724ZM9.59436 4.09066C8.52742 3.80478 7.43075 4.43794 7.14487 5.50488L4.29786 16.1301C4.01197 17.197 4.64514 18.2937 5.71207 18.5796L9.09281 19.4854L9.99868 16.1047C10.5704 13.9708 12.7638 12.7045 14.8977 13.2762L18.2784 14.1821L19.7019 8.86952C19.9878 7.80259 19.3546 6.70592 18.2877 6.42003L9.59436 4.09066ZM17.7568 16.1129L14.38 15.2081C13.3131 14.9222 12.2164 15.5554 11.9305 16.6223L11.0257 19.9991C11.7491 20.1529 12.506 20.0344 13.1496 19.6628L16.4036 17.7841C17.0472 17.4125 17.5283 16.8163 17.7568 16.1129Z" fill="black"/>
</svg>
