<svg width="24" height="24" viewBox="0 0 24 24" fill="none" xmlns="http://www.w3.org/2000/svg">
<path fill-rule="evenodd" clip-rule="evenodd" d="M8.0185 8.03323C8.01032 5.82411 9.79455 4.02663 12.0037 4.01846C14.2128 4.01029 16.0103 5.79451 16.0184 8.00364C16.0262 10.1014 14.4177 11.828 12.3638 12.0037C12.2439 12.0012 12.1227 12 12 12C11.8875 12 11.7761 12.001 11.6659 12.0031C9.62825 11.8252 8.02621 10.1185 8.0185 8.03323ZM8.06259 12.5297C6.8151 11.435 6.02513 9.83083 6.01851 8.04063C6.00625 4.72694 8.68259 2.03073 11.9963 2.01847C15.31 2.00622 18.0062 4.68255 18.0184 7.99624C18.0251 9.80694 17.229 11.4333 15.9649 12.5381C17.0844 12.8801 18.0151 13.369 18.7846 13.9577C20.32 15.1321 21.1247 16.6351 21.5426 17.9317C21.9045 19.0541 21.5866 20.1154 20.8985 20.861C20.2305 21.5848 19.2345 22 18.1886 22L12 22L5.81141 22C4.7655 22 3.76951 21.5848 3.10155 20.861C2.4134 20.1154 2.09552 19.0542 2.45737 17.9317C2.87536 16.6351 3.68006 15.1321 5.21542 13.9577C5.99121 13.3642 6.93076 12.8721 8.06259 12.5297ZM11.6105 14.0048C9.12545 14.0672 7.50283 14.726 6.43056 15.5462C5.29766 16.4128 4.68851 17.5291 4.36091 18.5453C4.23826 18.9258 4.33196 19.2453 4.57131 19.5046C4.83082 19.7859 5.27822 20 5.81141 20L12 20L18.1886 20C18.7218 20 19.1692 19.7858 19.4287 19.5046C19.6681 19.2453 19.7618 18.9258 19.6391 18.5453C19.3115 17.5291 18.7024 16.4128 17.5695 15.5462C16.5009 14.7288 14.8859 14.0718 12.4155 14.0055C12.2916 14.0136 12.1666 14.0179 12.0407 14.0184C11.8961 14.0189 11.7526 14.0143 11.6105 14.0048Z" fill="black"/>
</svg>
