<svg width="24" height="24" viewBox="0 0 24 24" fill="none" xmlns="http://www.w3.org/2000/svg">
<path fill-rule="evenodd" clip-rule="evenodd" d="M22 9.99998C22.7145 11.2376 22.7145 12.7624 22 14L18.7321 19.6602C18.0175 20.8978 16.697 21.6602 15.268 21.6602H8.73206C7.303 21.6602 5.98249 20.8978 5.26796 19.6602L2.00001 14C1.28548 12.7624 1.28548 11.2376 2.00001 9.99998L5.26796 4.33972C5.98249 3.10212 7.303 2.33972 8.73206 2.33972H15.268C16.697 2.33972 18.0175 3.10212 18.7321 4.33972L22 9.99998ZM20.268 13C20.6252 12.3812 20.6252 11.6188 20.268 11L17 5.33972C16.6427 4.72092 15.9825 4.33972 15.268 4.33972L8.73206 4.33972C8.01753 4.33972 7.35728 4.72092 7.00001 5.33972L3.73206 11C3.37479 11.6188 3.37479 12.3812 3.73206 13L7.00001 18.6602C7.35727 19.279 8.01753 19.6602 8.73206 19.6602H15.268C15.9825 19.6602 16.6427 19.279 17 18.6602L20.268 13ZM15.7071 8.29292C16.0977 8.68345 16.0977 9.31661 15.7071 9.70714L13.4142 12L15.7071 14.2929C16.0976 14.6834 16.0976 15.3166 15.7071 15.7071C15.3166 16.0976 14.6834 16.0976 14.2929 15.7071L12 13.4142L9.70713 15.7071C9.3166 16.0977 8.68344 16.0977 8.29291 15.7071C7.90239 15.3166 7.90239 14.6834 8.29291 14.2929L10.5858 12L8.29289 9.70711C7.90236 9.31658 7.90236 8.68342 8.29289 8.29289C8.68341 7.90237 9.31657 7.90237 9.7071 8.29289L12 10.5858L14.2929 8.29292C14.6834 7.9024 15.3166 7.9024 15.7071 8.29292Z" fill="black"/>
</svg>
