<svg width="24" height="24" viewBox="0 0 24 24" fill="none" xmlns="http://www.w3.org/2000/svg">
<path fill-rule="evenodd" clip-rule="evenodd" d="M7.19042 2.7692C7.02357 1.26754 8.51813 0.130251 9.92097 0.691386L10.2946 0.840854C10.8581 1.06624 11.34 1.45723 11.6766 1.96218L16.0352 8.50003H19.5C21.433 8.50003 23 10.067 23 12C23 13.933 21.433 15.5 19.5 15.5H16.0352L11.6766 22.0379C11.34 22.5428 10.8581 22.9338 10.2946 23.1592L9.92097 23.3087C8.51813 23.8698 7.02357 22.7325 7.19042 21.2309L7.89166 14.9197L5.42604 14.7348C4.63431 15.5391 3.54776 16 2.40492 16C1.62901 16 1 15.371 1 14.5951V9.40495C1 8.62904 1.629 8.00003 2.40492 8.00003C3.54776 8.00003 4.63431 8.46093 5.42604 9.26527L7.89166 9.08035L7.19042 2.7692ZM9.55186 2.69781L9.17819 2.54834L9.99388 9.8896C10.0239 10.1594 9.94289 10.4297 9.76956 10.6386C9.59624 10.8475 9.34545 10.9769 9.07479 10.9972L5.07479 11.2972C4.73884 11.3224 4.41278 11.1768 4.20738 10.9097L4.17991 10.874C3.87998 10.4841 3.46395 10.2084 3 10.0805V13.9195C3.46395 13.7916 3.87998 13.5159 4.17991 13.126L4.20738 13.0903C4.41278 12.8233 4.73884 12.6776 5.07479 12.7028L9.07479 13.0028C9.34545 13.0231 9.59624 13.1526 9.76956 13.3615C9.94289 13.5703 10.0239 13.8407 9.99388 14.1105L9.17819 21.4517L9.55186 21.3023C9.73968 21.2271 9.90031 21.0968 10.0125 20.9285L14.6679 13.9453C14.8534 13.6671 15.1656 13.5 15.5 13.5H19.5C20.3284 13.5 21 12.8285 21 12C21 11.1716 20.3284 10.5 19.5 10.5H15.5C15.1656 10.5 14.8534 10.3329 14.6679 10.0547L10.0125 3.07158C9.90031 2.90327 9.73968 2.77294 9.55186 2.69781Z" fill="black"/>
</svg>
