<svg width="24" height="24" viewBox="0 0 24 24" fill="none" xmlns="http://www.w3.org/2000/svg">
<path fill-rule="evenodd" clip-rule="evenodd" d="M12 1.5C12.5523 1.5 13 1.94772 13 2.5V6.93432C13.2431 8.76893 13.5195 10.175 13.7962 11.25H14.5C15.0523 11.25 15.5 11.6977 15.5 12.25C15.5 12.8023 15.0523 13.25 14.5 13.25H14.4469C14.5668 13.5336 14.6811 13.7619 14.7863 13.9447C14.9753 14.2732 15.1215 14.4312 15.198 14.5H16.5C17.0523 14.5 17.5 14.9477 17.5 15.5C17.5 15.8908 17.2759 16.2292 16.9491 16.3937L20.7926 21.3903C21.0249 21.6923 21.0654 22.1 20.8971 22.4418C20.7289 22.7835 20.381 23 20 23H16C15.6771 23 15.374 22.844 15.1863 22.5812L13.5581 20.3018C13.1987 19.7986 12.6184 19.5 12 19.5C11.3816 19.5 10.8013 19.7986 10.4419 20.3018L8.81374 22.5812C8.62603 22.844 8.32296 23 8.00001 23H4.00001C3.61904 23 3.27116 22.7835 3.10287 22.4418C2.93458 22.1 2.9751 21.6923 3.20738 21.3903L7.0509 16.3937C6.72415 16.2292 6.5 15.8908 6.5 15.5C6.5 14.9477 6.94772 14.5 7.5 14.5H8.80203C8.87855 14.4312 9.02475 14.2732 9.21374 13.9447C9.31894 13.7619 9.43319 13.5336 9.55312 13.25H9.5C8.94772 13.25 8.5 12.8023 8.5 12.25C8.5 11.6977 8.94772 11.25 9.5 11.25H10.2038C10.4806 10.175 10.7569 8.76893 11 6.93432V2.5C11 1.94772 11.4477 1.5 12 1.5ZM11.6929 13.25C11.5228 13.7399 11.351 14.1523 11.1812 14.5H12.8188C12.649 14.1523 12.4772 13.7399 12.3071 13.25H11.6929ZM6.03087 21L9.49241 16.5H14.5076L17.9691 21H16.5146L15.1856 19.1394C14.4507 18.1106 13.2643 17.5 12 17.5C10.7357 17.5 9.54927 18.1106 8.81442 19.1394L7.48539 21H6.03087Z" fill="black"/>
</svg>
