<svg width="24" height="24" viewBox="0 0 24 24" fill="none" xmlns="http://www.w3.org/2000/svg">
<path fill-rule="evenodd" clip-rule="evenodd" d="M21 8C21 6.34315 19.6569 5 18 5H4C2.34315 5 1 6.34315 1 8V16C1 17.6569 2.34315 19 4 19H18C19.6569 19 21 17.6569 21 16C22.1046 16 23 15.1046 23 14V10C23 8.89543 22.1046 8 21 8ZM18 7C18.5523 7 19 7.44772 19 8V9C19 9.55228 19.4477 10 20 10H21V14H20C19.4477 14 19 14.4477 19 15V16C19 16.5523 18.5523 17 18 17H4C3.44772 17 3 16.5523 3 16V8C3 7.44772 3.44772 7 4 7H18ZM13.4596 8.19696C13.5488 7.98885 13.487 7.74678 13.309 7.60688C13.1309 7.46697 12.8811 7.46415 12.7 7.6L6.7 12.1C6.52783 12.2291 6.4576 12.4539 6.52566 12.6581C6.59372 12.8623 6.78479 13 7 13H10.7417L9.54043 15.803C9.45124 16.0111 9.51303 16.2532 9.69104 16.3931C9.86906 16.533 10.1189 16.5358 10.3 16.4L16.3 11.9C16.4722 11.7709 16.5424 11.5461 16.4743 11.3419C16.4063 11.1377 16.2152 11 16 11H12.2583L13.4596 8.19696Z" fill="black"/>
</svg>
