<svg width="24" height="24" viewBox="0 0 24 24" fill="none" xmlns="http://www.w3.org/2000/svg">
<path fill-rule="evenodd" clip-rule="evenodd" d="M0 9.5C0 5.35786 3.35786 2 7.5 2C11.6421 2 15 5.35786 15 9.5C15 13.6421 11.6421 17 7.5 17C6.90342 17 6.32206 16.9301 5.76411 16.7979C5.12046 17.2403 4.33986 17.5 3.50003 17.5C2.6305 17.5 1.82308 17.2214 1.16606 16.7488C0.90486 16.5609 0.750031 16.2587 0.750031 15.937C0.750031 15.6152 0.90486 15.3131 1.16606 15.1252C1.43547 14.9314 1.654 14.6731 1.79961 14.3741C0.678428 13.0638 0 11.3604 0 9.5ZM7.5 4C4.46243 4 2 6.46243 2 9.5C2 11.0322 2.62519 12.4165 3.63689 13.4149C3.87957 13.6544 3.98351 14.001 3.91263 14.3345C3.82414 14.7509 3.67117 15.1429 3.4649 15.4997C3.47658 15.4999 3.48829 15.5 3.50003 15.5C4.02586 15.5 4.50236 15.2984 4.86006 14.9664C5.12371 14.7217 5.49846 14.6375 5.84147 14.7458C6.36358 14.9107 6.92041 15 7.5 15C10.5376 15 13 12.5376 13 9.5C13 6.46243 10.5376 4 7.5 4ZM5.04289 7.04289C5.43342 6.65237 6.06658 6.65237 6.45711 7.04289L7.5 8.08579L8.54289 7.04289C8.93342 6.65237 9.56658 6.65237 9.95711 7.04289C10.3476 7.43342 10.3476 8.06658 9.95711 8.45711L8.91421 9.5L9.95711 10.5429C10.3476 10.9334 10.3476 11.5666 9.95711 11.9571C9.56658 12.3476 8.93342 12.3476 8.54289 11.9571L7.5 10.9142L6.45711 11.9571C6.06658 12.3476 5.43342 12.3476 5.04289 11.9571C4.65237 11.5666 4.65237 10.9334 5.04289 10.5429L6.08579 9.5L5.04289 8.45711C4.65237 8.06658 4.65237 7.43342 5.04289 7.04289ZM19.7071 12.7929C20.0976 13.1834 20.0976 13.8166 19.7071 14.2071L16.7071 17.2071C16.3166 17.5976 15.6834 17.5976 15.2929 17.2071L14.2929 16.2071C13.9024 15.8166 13.9024 15.1834 14.2929 14.7929C14.6834 14.4024 15.3166 14.4024 15.7071 14.7929L16 15.0858L18.2929 12.7929C18.6834 12.4024 19.3166 12.4024 19.7071 12.7929ZM17.307 9.05865C16.7606 8.97843 16.3827 8.47043 16.4629 7.924C16.5431 7.37758 17.0511 6.99964 17.5975 7.07986C21.2197 7.61162 24 10.7302 24 14.5C24 16.3618 23.3205 18.0664 22.1978 19.3771C22.3093 19.5864 22.5093 19.8692 22.868 20.1611C23.1178 20.3644 23.2544 20.6755 23.235 20.9969C23.2157 21.3184 23.0427 21.6109 22.7702 21.7826C21.4192 22.6346 20.1564 22.5734 19.239 22.2668C18.8304 22.1303 18.4981 21.9488 18.2576 21.7927C17.693 21.9283 17.1043 22 16.5 22C14.1218 22 12.0018 20.892 10.6294 19.1679C10.2854 18.7358 10.3568 18.1067 10.7889 17.7627C11.221 17.4188 11.8501 17.4902 12.1941 17.9223C13.2034 19.1902 14.7568 20 16.5 20C17.081 20 17.6391 19.9103 18.1623 19.7446C18.5066 19.6356 18.8826 19.7208 19.1463 19.9668L19.1469 19.9673C19.1503 19.9704 19.1591 19.9781 19.1731 19.9896C19.2013 20.0126 19.2491 20.0499 19.3143 20.0938C19.4467 20.183 19.6387 20.2917 19.8729 20.3699C20.0574 20.4316 20.2744 20.4776 20.5209 20.4744C20.4482 20.3515 20.3866 20.2328 20.3347 20.1203C20.2273 19.8876 20.1626 19.6849 20.1238 19.5299C20.1044 19.4524 20.0915 19.3867 20.0828 19.3349C20.0785 19.309 20.0752 19.2865 20.0728 19.2678L20.0698 19.2424L20.0686 19.2319L20.0681 19.2271L20.0679 19.2249L20.0678 19.2238C20.0678 19.2233 20.0677 19.2228 21.0633 19.1288L20.0677 19.2228C20.0395 18.9237 20.1473 18.6277 20.3612 18.4167C21.374 17.4182 22 16.0331 22 14.5C22 11.737 19.9617 9.44837 17.307 9.05865Z" fill="black"/>
</svg>
