<svg width="24" height="24" viewBox="0 0 24 24" fill="none" xmlns="http://www.w3.org/2000/svg">
<path fill-rule="evenodd" clip-rule="evenodd" d="M4.14692 5.28219C2.82137 4.3543 1 5.30261 1 6.92066V17.0793C1 18.6974 2.82137 19.6457 4.14693 18.7178L11.4031 13.6385C11.6602 13.4585 11.8591 13.2332 12 12.9831V17.0793C12 18.6974 13.8214 19.6457 15.1469 18.7178L22.4031 13.6385C23.5406 12.8423 23.5406 11.1577 22.4031 10.3615L15.1469 5.28219C13.8214 4.3543 12 5.30261 12 6.92066V11.0169C11.8591 10.7668 11.6602 10.5415 11.4031 10.3615L4.14692 5.28219ZM3 6.92066L10.2562 12L3 17.0793V6.92066ZM14 6.92066L21.2562 12L14 17.0793V6.92066Z" fill="black"/>
</svg>
