<svg width="24" height="24" viewBox="0 0 24 24" fill="none" xmlns="http://www.w3.org/2000/svg">
<path fill-rule="evenodd" clip-rule="evenodd" d="M12 4C7.58172 4 4 7.58172 4 12C4 16.4183 7.58172 20 12 20C16.4183 20 20 16.4183 20 12C20 7.58172 16.4183 4 12 4ZM2 12C2 6.47715 6.47715 2 12 2C17.5228 2 22 6.47715 22 12C22 17.5228 17.5228 22 12 22C6.47715 22 2 17.5228 2 12ZM6.16467 10.7121C6.16467 10.1875 6.59 9.76215 7.11467 9.76215H7.62784C7.73163 9.55694 7.84988 9.35799 7.98205 9.16673C8.55651 8.33546 9.36773 7.68689 10.312 7.29229C11.256 6.89782 12.2975 6.77175 13.3123 6.92705C14.3271 7.08236 15.2786 7.51359 16.0499 8.17518C16.4481 8.51677 16.494 9.11652 16.1524 9.51476C15.8108 9.913 15.2111 9.95892 14.8128 9.61732C14.3175 9.19244 13.697 8.90806 13.0248 8.80518C12.3525 8.70229 11.6641 8.78651 11.0446 9.04539C10.631 9.2182 10.2622 9.46288 9.95519 9.76215H12.6998C13.2244 9.76215 13.6498 10.1875 13.6498 10.7121C13.6498 11.2368 13.2244 11.6621 12.6998 11.6621H9.01065C8.99848 11.7702 8.99213 11.8789 8.9917 11.988C8.99123 12.1051 8.99759 12.2219 9.01066 12.3379H12.6998C13.2244 12.3379 13.6498 12.7632 13.6498 13.2879C13.6498 13.8125 13.2244 14.2379 12.6998 14.2379H9.95527C10.2562 14.5312 10.6166 14.7721 11.0205 14.9444C11.6378 15.2076 12.3254 15.2968 12.9986 15.1987C13.6717 15.1006 14.2945 14.8206 14.7934 14.3991C15.1942 14.0605 15.7936 14.1109 16.1322 14.5117C16.4708 14.9125 16.4204 15.5119 16.0196 15.8505C15.2433 16.5064 14.2886 16.9308 13.2726 17.0788C12.2567 17.2268 11.2162 17.0934 10.2752 16.6921C9.33391 16.2907 8.52769 15.6362 7.95975 14.8007C7.83654 14.6194 7.72577 14.4314 7.62788 14.2379H7.11467C6.59 14.2379 6.16467 13.8125 6.16467 13.2879C6.16467 12.767 6.58387 12.344 7.1033 12.3379C7.09513 12.2192 7.09124 12.1 7.09171 11.9804C7.09214 11.8739 7.09602 11.7678 7.1033 11.6621C6.58387 11.656 6.16467 11.233 6.16467 10.7121Z" fill="black"/>
</svg>
