<svg width="24" height="24" viewBox="0 0 24 24" fill="none" xmlns="http://www.w3.org/2000/svg">
<path fill-rule="evenodd" clip-rule="evenodd" d="M2 6C2 4.34315 3.34315 3 5 3H19C20.6569 3 22 4.34315 22 6V12C22 12.2422 21.9121 12.4762 21.7526 12.6585L14.7526 20.6585C14.5627 20.8755 14.2884 21 14 21H5C3.34315 21 2 19.6569 2 18V6ZM5 5C4.44772 5 4 5.44772 4 6V18C4 18.5523 4.44772 19 5 19H13V14C13 12.3431 14.3431 11 16 11H20V6C20 5.44772 19.5523 5 19 5H5ZM18.7962 13H16C15.4477 13 15 13.4477 15 14V17.3386L18.7962 13Z" fill="black"/>
</svg>
