<svg width="24" height="24" viewBox="0 0 24 24" fill="none" xmlns="http://www.w3.org/2000/svg">
<path fill-rule="evenodd" clip-rule="evenodd" d="M18.4068 1.49309C18.7457 1.83192 18.7905 2.3534 18.5414 2.74059C19.1376 2.96603 19.6799 3.31588 20.1317 3.76772C20.6338 4.26987 21.01 4.88374 21.2295 5.55913C21.4489 6.23452 21.5054 6.95225 21.3943 7.65366C21.3079 8.19914 20.7957 8.57131 20.2502 8.48491C19.7047 8.39852 19.3325 7.88627 19.4189 7.34079C19.4807 6.95112 19.4493 6.55238 19.3274 6.17716C19.2054 5.80194 18.9965 5.46091 18.7175 5.18194C18.6946 5.15902 18.6712 5.13658 18.6475 5.11462C18.5999 5.25622 18.5196 5.38928 18.4068 5.50209C18.0163 5.89261 17.3831 5.89261 16.9926 5.50209L15.6952 4.2047C15.5103 4.01982 15.413 3.78058 15.4031 3.53844C15.3882 3.22064 15.5259 2.92368 15.7577 2.72796L16.9926 1.49309C17.3831 1.10256 18.0163 1.10256 18.4068 1.49309ZM3.16114 12.3533C1.59904 10.7912 1.59904 8.25857 3.16114 6.69648L6.69667 3.16094C8.25877 1.59884 10.7914 1.59884 12.3535 3.16094L20.8388 11.6462C22.4009 13.2083 22.4009 15.741 20.8388 17.3031L17.3033 20.8386C15.7412 22.4007 13.2085 22.4007 11.6464 20.8386L3.16114 12.3533ZM4.57535 8.11069C3.7943 8.89174 3.7943 10.1581 4.57535 10.9391L13.0606 19.4244C13.8417 20.2054 15.108 20.2054 15.8891 19.4244L19.4246 15.8889C20.2056 15.1078 20.2056 13.8415 19.4246 13.0604L10.9393 4.57516C10.1583 3.79411 8.89193 3.79411 8.11088 4.57516L4.57535 8.11069ZM9.87865 7.75717L7.75733 9.87849C7.3668 10.269 6.73364 10.269 6.34311 9.87849C5.95259 9.48797 5.95259 8.8548 6.34311 8.46428L8.46443 6.34296C8.85496 5.95244 9.48812 5.95244 9.87865 6.34296C10.2692 6.73348 10.2692 7.36665 9.87865 7.75717ZM16.5962 14.4747C17.182 15.0605 17.182 16.0103 16.5962 16.5961C16.0104 17.1818 15.0606 17.1818 14.4749 16.5961C13.8891 16.0103 13.8891 15.0605 14.4749 14.4747C15.0606 13.889 16.0104 13.889 16.5962 14.4747ZM8.12516 21.1847L6.89956 22.4103C6.50903 22.8008 5.87587 22.8008 5.48534 22.4103C5.14498 22.0699 5.10126 21.5453 5.35418 21.1576C4.75932 20.9321 4.21821 20.5827 3.76721 20.1317C3.26506 19.6295 2.88888 19.0157 2.66944 18.3403C2.44999 17.6649 2.3935 16.9472 2.5046 16.2458C2.59099 15.7003 3.10323 15.3281 3.64872 15.4145C4.1942 15.5009 4.56637 16.0131 4.47997 16.5586C4.41825 16.9483 4.44964 17.347 4.57155 17.7223C4.69347 18.0975 4.90245 18.4385 5.18143 18.7175C5.20302 18.7391 5.22499 18.7603 5.24732 18.781C5.29526 18.6423 5.3746 18.512 5.48534 18.4013C5.87587 18.0108 6.50903 18.0108 6.89956 18.4013L8.13543 19.6372C8.31594 19.7869 8.44483 20.0004 8.4844 20.2502C8.54237 20.6162 8.3939 20.9672 8.12516 21.1847Z" fill="black"/>
</svg>
