<svg width="24" height="24" viewBox="0 0 24 24" fill="none" xmlns="http://www.w3.org/2000/svg">
<path fill-rule="evenodd" clip-rule="evenodd" d="M11 5C10.4477 5 10 5.44772 10 6C10 6.55228 10.4477 7 11 7H11.1687L17 11.9895L16.9963 12.1536C16.9891 12.4813 17.1429 12.7918 17.408 12.9846C17.6721 13.1766 18.0137 13.2274 18.3223 13.1211L17 11.9895L17 11.987L18.3249 13.1202L18.3285 13.1191C18.3362 13.1165 18.3501 13.1121 18.3694 13.1063C18.4083 13.0947 18.4667 13.0783 18.5376 13.0618C18.6875 13.0268 18.8561 13 19 13C20.2589 13 21 14.0672 21 15C21 15.9017 20.1569 17 19 17H11C10.4477 17 10 17.4477 10 18C10 18.5523 10.4477 19 11 19H19C21.446 19 23 16.8122 23 15C23 13.2189 21.6034 11 19 11C18.9715 11 18.9432 11.0004 18.915 11.0011C18.461 8.25254 16.1839 5 12 5H11ZM11.1692 7H12C15.2868 7 16.993 9.87254 17 11.987L11.1692 7ZM11.1692 7L10 6L11.1687 7H11.1692ZM9 7C9 6.44772 8.55228 6 8 6C7.44772 6 7 6.44772 7 7V18C7 18.5523 7.44772 19 8 19C8.55228 19 9 18.5523 9 18V7ZM5 9.5C5.55228 9.5 6 9.94772 6 10.5V18C6 18.5523 5.55228 19 5 19C4.44772 19 4 18.5523 4 18V10.5C4 9.94772 4.44772 9.5 5 9.5ZM3 13C3 12.4477 2.55228 12 2 12C1.44772 12 1 12.4477 1 13V17C1 17.5523 1.44772 18 2 18C2.55228 18 3 17.5523 3 17L3 13Z" fill="black"/>
</svg>
