<svg width="24" height="24" viewBox="0 0 24 24" fill="none" xmlns="http://www.w3.org/2000/svg">
<path fill-rule="evenodd" clip-rule="evenodd" d="M8.0185 8.03323C8.01032 5.82411 9.79455 4.02663 12.0037 4.01846C14.2128 4.01029 16.0103 5.79451 16.0184 8.00364C16.0262 10.1014 14.4177 11.828 12.3639 12.0037C12.244 12.0012 12.1227 12 12 12C11.8875 12 11.7761 12.001 11.6659 12.0031C9.62825 11.8252 8.02621 10.1185 8.0185 8.03323ZM8.06259 12.5297C6.8151 11.435 6.02513 9.83083 6.01851 8.04063C6.00625 4.72694 8.68259 2.03073 11.9963 2.01847C15.31 2.00622 18.0062 4.68255 18.0184 7.99624C18.026 10.0371 17.0137 11.8437 15.4608 12.9334C15.5026 13.0776 15.5125 13.2334 15.4837 13.3911C15.3845 13.9344 14.8636 14.2944 14.3203 14.1951C13.7505 14.0911 13.1178 14.0244 12.4154 14.0055C12.2915 14.0136 12.1665 14.0179 12.0407 14.0184C11.8961 14.0189 11.7526 14.0143 11.6105 14.0048C9.12545 14.0672 7.50283 14.726 6.43055 15.5462C5.29766 16.4128 4.68851 17.5291 4.36091 18.5453C4.23826 18.9258 4.33196 19.2453 4.5713 19.5046C4.83082 19.7859 5.27822 20 5.81141 20H12.5C13.0523 20 13.5 20.4477 13.5 21C13.5 21.5523 13.0523 22 12.5 22H5.81141C4.7655 22 3.76951 21.5848 3.10154 20.861C2.4134 20.1154 2.09552 19.0542 2.45737 17.9317C2.87536 16.6351 3.68006 15.1321 5.21542 13.9577C5.99121 13.3642 6.93076 12.8721 8.06259 12.5297ZM22.2071 15.7929C22.5976 16.1834 22.5976 16.8166 22.2071 17.2071L20.4142 19L22.2071 20.7929C22.5976 21.1834 22.5976 21.8166 22.2071 22.2071C21.8166 22.5976 21.1834 22.5976 20.7929 22.2071L19 20.4142L17.2071 22.2071C16.8166 22.5976 16.1834 22.5976 15.7929 22.2071C15.4024 21.8166 15.4024 21.1834 15.7929 20.7929L17.5858 19L15.7929 17.2071C15.4024 16.8166 15.4024 16.1834 15.7929 15.7929C16.1834 15.4023 16.8166 15.4023 17.2071 15.7929L19 17.5858L20.7929 15.7929C21.1834 15.4023 21.8166 15.4023 22.2071 15.7929Z" fill="black"/>
</svg>
