<svg width="24" height="24" viewBox="0 0 24 24" fill="none" xmlns="http://www.w3.org/2000/svg">
<path fill-rule="evenodd" clip-rule="evenodd" d="M1 6C1 4.34315 2.34315 3 4 3H20C21.6569 3 23 4.34315 23 6C23 7.30622 22.1652 8.41746 21 8.82929V18C21 19.6569 19.6569 21 18 21H6C4.34315 21 3 19.6569 3 18V8.82929C1.83481 8.41746 1 7.30622 1 6ZM5 9H19V18C19 18.5523 18.5523 19 18 19H6C5.44772 19 5 18.5523 5 18V9ZM21 6C21 6.55228 20.5523 7 20 7H4C3.44772 7 3 6.55228 3 6C3 5.44772 3.44772 5 4 5H20C20.5523 5 21 5.44772 21 6ZM9 11C8.44772 11 8 11.4477 8 12C8 12.5523 8.44772 13 9 13H15C15.5523 13 16 12.5523 16 12C16 11.4477 15.5523 11 15 11H9Z" fill="black"/>
</svg>
