<svg width="24" height="24" viewBox="0 0 24 24" fill="none" xmlns="http://www.w3.org/2000/svg">
<path fill-rule="evenodd" clip-rule="evenodd" d="M2 5C2 3.34315 3.34315 2 5 2H16C17.6569 2 19 3.34315 19 5C20.6569 5 22 6.34315 22 8V8.93652C22 10.9048 20.5681 12.5806 18.6239 12.8876L13.344 13.7212C12.858 13.798 12.5 14.2169 12.5 14.709V15C12.5 15.0167 12.4996 15.0333 12.4988 15.0498C13.6405 15.2809 14.5 16.2901 14.5 17.5V20.5C14.5 21.8807 13.3807 23 12 23H11C9.61929 23 8.5 21.8807 8.5 20.5L8.5 17.5C8.5 16.2901 9.35949 15.2809 10.5012 15.0498C10.5004 15.0333 10.5 15.0167 10.5 15V14.709C10.5 13.2328 11.574 11.9759 13.0321 11.7457L18.3119 10.912C19.284 10.7586 20 9.92067 20 8.93652V8C20 7.44772 19.5523 7 19 7C19 8.65685 17.6569 10 16 10H5C3.34315 10 2 8.65685 2 7V5ZM5 4C4.44772 4 4 4.44772 4 5V7C4 7.55228 4.44772 8 5 8H16C16.5523 8 17 7.55228 17 7V5C17 4.44772 16.5523 4 16 4H5ZM12 17C12.2761 17 12.5 17.2239 12.5 17.5V20.5C12.5 20.7761 12.2761 21 12 21H11C10.7239 21 10.5 20.7761 10.5 20.5V17.5C10.5 17.2239 10.7239 17 11 17H12Z" fill="black"/>
</svg>
