<svg width="24" height="24" viewBox="0 0 24 24" fill="none" xmlns="http://www.w3.org/2000/svg">
<path fill-rule="evenodd" clip-rule="evenodd" d="M11 1C7.41015 1 4.5 3.91015 4.5 7.5V14C4.5 15.933 6.067 17.5 8 17.5H9V20C9 21.6569 10.3431 23 12 23C13.6569 23 15 21.6569 15 20V17.5H16C17.933 17.5 19.5 15.933 19.5 14V7.5C19.5 3.91015 16.5899 1 13 1H11ZM13 17.5H11V20C11 20.5523 11.4477 21 12 21C12.5523 21 13 20.5523 13 20V17.5ZM6.5 7.5C6.5 5.01472 8.51472 3 11 3H13C15.4853 3 17.5 5.01472 17.5 7.5V14C17.5 14.8284 16.8284 15.5 16 15.5H8C7.17157 15.5 6.5 14.8284 6.5 14V7.5ZM10 6C10.5523 6 11 6.44772 11 7V12.5C11 13.0523 10.5523 13.5 10 13.5C9.44772 13.5 9 13.0523 9 12.5V7C9 6.44772 9.44772 6 10 6ZM15 7C15 6.44772 14.5523 6 14 6C13.4477 6 13 6.44772 13 7V12.5C13 13.0523 13.4477 13.5 14 13.5C14.5523 13.5 15 13.0523 15 12.5V7Z" fill="black"/>
</svg>
