<svg width="24" height="24" viewBox="0 0 24 24" fill="none" xmlns="http://www.w3.org/2000/svg">
<path fill-rule="evenodd" clip-rule="evenodd" d="M4.07876 2.54159C2.89557 2.44864 2 3.41722 2 4.49999V15.5C2 16.6294 2.90351 17.4411 3.89145 17.5479C6.06894 17.7833 7.77695 18.8468 8.8844 19.7759C9.49438 20.2877 10.2771 20.2699 10.8306 20.0469C10.8977 20.0198 10.9656 19.9879 11.0332 19.9512C11.3198 20.1097 11.6494 20.1999 12 20.1999C12.5523 20.1999 13 19.7522 13 19.1999C13 18.6477 12.5523 18.1999 12 18.1999V7.85981C12.6809 7.08225 14.8269 4.94607 18 4.56034V9.49994C18 10.0522 18.4477 10.4999 19 10.4999C19.5523 10.4999 20 10.0522 20 9.49994V4.49994C20 3.42706 19.1055 2.42845 17.8936 2.55946C14.6249 2.91284 12.279 4.75129 11.0988 5.90634C10.0527 4.67222 7.88216 2.84038 4.07876 2.54159ZM10 7.83052V7.77091C9.57246 7.10309 7.87619 4.8741 4 4.54184V15.5V15.5C4.00067 15.5015 4.00363 15.5075 4.01187 15.516C4.03101 15.5357 4.06487 15.555 4.10641 15.5595C6.69769 15.8396 8.70484 17.0538 10 18.1037L10 7.83328C10 7.83236 10 7.83144 10 7.83052ZM16 15.9C16 14.8507 16.8507 14 17.9 14C18.9493 14 19.8 14.8507 19.8 15.9C19.8 16.9493 18.9493 17.8 17.9 17.8C16.8507 17.8 16 16.9493 16 15.9ZM17.9 12C15.7461 12 14 13.7461 14 15.9C14 18.0539 15.7461 19.8 17.9 19.8C18.614 19.8 19.2832 19.6081 19.8589 19.2731L21.2929 20.7071C21.6834 21.0976 22.3166 21.0976 22.7071 20.7071C23.0976 20.3166 23.0976 19.6834 22.7071 19.2929L21.2731 17.8589C21.6081 17.2832 21.8 16.614 21.8 15.9C21.8 13.7461 20.0539 12 17.9 12Z" fill="black"/>
</svg>
