<svg width="24" height="24" viewBox="0 0 24 24" fill="none" xmlns="http://www.w3.org/2000/svg">
<path fill-rule="evenodd" clip-rule="evenodd" d="M11.5 4C10.6716 4 10 4.67157 10 5.5V9C10 9.55228 9.55228 10 9 10H5.5C4.67157 10 4 10.6716 4 11.5V18.5C4 19.3284 4.67157 20 5.5 20H12.5C13.3284 20 14 19.3284 14 18.5V15C14 14.4477 14.4477 14 15 14H18.5C19.3284 14 20 13.3284 20 12.5V5.5C20 4.67157 19.3284 4 18.5 4H11.5ZM8 5.5C8 3.567 9.567 2 11.5 2H18.5C20.433 2 22 3.567 22 5.5V12.5C22 14.433 20.433 16 18.5 16H16V18.5C16 20.433 14.433 22 12.5 22H5.5C3.567 22 2 20.433 2 18.5V11.5C2 9.567 3.567 8 5.5 8H8V5.5Z" fill="black"/>
</svg>
