<svg width="24" height="24" viewBox="0 0 24 24" fill="none" xmlns="http://www.w3.org/2000/svg">
<path fill-rule="evenodd" clip-rule="evenodd" d="M6.5 2.5C4.29086 2.5 2.5 4.29086 2.5 6.5V17.5C2.5 19.7091 4.29086 21.5 6.5 21.5H17.5C19.7091 21.5 21.5 19.7091 21.5 17.5V6.5C21.5 4.29086 19.7091 2.5 17.5 2.5H6.5ZM4.5 6.5C4.5 5.39543 5.39543 4.5 6.5 4.5H11V13.5H4.5V6.5ZM13 15.5V13.5V10.5H19.5V17.5C19.5 18.6046 18.6046 19.5 17.5 19.5H13V15.5ZM19.5 8.5V6.5C19.5 5.39543 18.6046 4.5 17.5 4.5H13V8.5H19.5ZM4.5 15.5H11V19.5H6.5C5.39543 19.5 4.5 18.6046 4.5 17.5V15.5Z" fill="black"/>
</svg>
