<svg width="24" height="24" viewBox="0 0 24 24" fill="none" xmlns="http://www.w3.org/2000/svg">
<path fill-rule="evenodd" clip-rule="evenodd" d="M18.4024 5.58939C16.6018 3.78876 13.2971 3.87187 11.0087 6.16025C9.78927 7.37966 9.19605 8.88766 9.18037 10.3029L9.18456 10.3251L9.5028 12.1152C9.7137 12.6532 10.0266 13.1428 10.4378 13.554C12.2385 15.3546 15.5432 15.2715 17.8315 12.9831C20.1199 10.6947 20.203 7.39003 18.4024 5.58939ZM9.59447 4.74604C7.88864 6.45187 7.04021 8.74621 7.19566 10.9053C7.16834 12.1994 7.01645 13.4777 6.86189 14.4714C6.83773 14.6267 6.81357 14.7746 6.78992 14.914C5.88147 14.7393 4.90527 15.0037 4.20186 15.7071L2.00472 17.9043C0.877741 19.0312 0.877741 20.8584 2.00472 21.9854C3.13169 23.1124 4.95888 23.1124 6.08586 21.9854L8.28301 19.7883C8.9927 19.0786 9.25547 18.0912 9.07133 17.1759C9.14418 17.1624 9.21958 17.1487 9.29738 17.1351C10.259 16.9669 11.5739 16.8001 13 16.8001C13.0297 16.8001 13.0592 16.7988 13.0882 16.7963C15.2468 16.9511 17.5404 16.1027 19.2458 14.3973C22.1371 11.5059 22.5652 6.92375 19.8166 4.17518C17.068 1.42661 12.4858 1.85466 9.59447 4.74604ZM5.61608 17.1213C5.962 16.7754 6.52286 16.7754 6.86879 17.1213C7.21472 17.4673 7.21472 18.0281 6.86879 18.3741L4.67164 20.5712C4.32572 20.9171 3.76486 20.9171 3.41893 20.5712C3.073 20.2253 3.073 19.6644 3.41893 19.3185L5.61608 17.1213Z" fill="black"/>
</svg>
