<svg width="24" height="24" viewBox="0 0 24 24" fill="none" xmlns="http://www.w3.org/2000/svg">
<path fill-rule="evenodd" clip-rule="evenodd" d="M4.19833 18L6.83469 3.5H13.5969C15.2346 3.5 16.5681 4.62087 16.9553 6.08658C16.6373 6.02972 16.3093 6 15.9738 6H10.2005C9.45666 6 8.81914 6.53157 8.68541 7.26325L7.17756 15.5138L6.68031 18H4.19833ZM6.35766 20H4.19833C2.95052 20 2.00738 18.8699 2.23059 17.6422L4.90692 2.92239C5.05668 2.09872 5.77407 1.5 6.61126 1.5H13.5969C16.6698 1.5 19.0632 4.00372 19.0698 6.94757C20.6934 8.04886 21.6911 9.98754 21.4684 12.1033C21.1455 15.1711 18.5586 17.5 15.4738 17.5H13.8362L13.2324 20.8543C13.0609 21.8069 12.2319 22.5 11.264 22.5H8.29941C7.05086 22.5 6.10753 21.3686 6.332 20.1404L6.35766 20ZM18.6313 9.20908C19.2495 9.91832 19.5868 10.8739 19.4794 11.8939C19.2636 13.9438 17.5351 15.5 15.4738 15.5H13.0001C12.5161 15.5 12.1016 15.8466 12.0159 16.3228L11.264 20.5H8.29941L9.14199 15.8897L9.51992 14H11.7145C14.8343 14 17.5668 12.0498 18.6313 9.20908ZM16.8872 8.11913C16.225 10.3986 14.1288 12 11.7145 12H9.85286L10.5839 8H15.9738C16.2905 8 16.5965 8.04149 16.8872 8.11913Z" fill="black"/>
</svg>
