<svg width="24" height="24" viewBox="0 0 24 24" fill="none" xmlns="http://www.w3.org/2000/svg">
<path fill-rule="evenodd" clip-rule="evenodd" d="M11.4265 1.18077C11.7709 0.939744 12.2291 0.939744 12.5735 1.18077L22.5735 8.18077C22.8408 8.3679 23 8.67369 23 9V15C23 15.3263 22.8408 15.6321 22.5735 15.8192L12.5735 22.8192C12.2291 23.0603 11.7709 23.0603 11.4265 22.8192L1.42654 15.8192C1.15921 15.6321 1 15.3263 1 15V9C1 8.67369 1.15921 8.3679 1.42654 8.18077L11.4265 1.18077ZM3 10.8427V13.1573L4.78048 12L3 10.8427ZM6.61538 13.1927L3.78766 15.0307L11 20.0793V16.0427L6.61538 13.1927ZM13 16.0427V20.0793L20.2123 15.0307L17.3846 13.1927L13 16.0427ZM19.2195 12L21 13.1573V10.8427L19.2195 12ZM20.2123 8.96929L17.3846 10.8073L13 7.95731V3.92066L20.2123 8.96929ZM11 3.92066V7.95731L6.61538 10.8073L3.78766 8.96929L11 3.92066ZM12 9.69269L8.45029 12L12 14.3073L15.5497 12L12 9.69269Z" fill="black"/>
</svg>
