<svg width="24" height="24" viewBox="0 0 24 24" fill="none" xmlns="http://www.w3.org/2000/svg">
<path fill-rule="evenodd" clip-rule="evenodd" d="M20 1.5C19.4477 1.5 19 1.94772 19 2.5V21.5C19 22.0523 19.4477 22.5 20 22.5C20.5523 22.5 21 22.0523 21 21.5V2.5C21 1.94772 20.5523 1.5 20 1.5ZM17 15.2C17 13.985 16.015 13 14.8 13H5.2C3.98497 13 3 13.985 3 15.2V18.3C3 19.515 3.98497 20.5 5.2 20.5H14.8C16.015 20.5 17 19.515 17 18.3V15.2ZM14.8 15C14.9105 15 15 15.0895 15 15.2V18.3C15 18.4105 14.9105 18.5 14.8 18.5H5.2C5.08954 18.5 5 18.4105 5 18.3V15.2C5 15.0895 5.08954 15 5.2 15H14.8ZM14.8 3.5C16.015 3.5 17 4.48497 17 5.7V8.8C17 10.015 16.015 11 14.8 11H8.2C6.98497 11 6 10.015 6 8.8V5.7C6 4.48497 6.98497 3.5 8.2 3.5H14.8ZM15 5.7C15 5.58954 14.9105 5.5 14.8 5.5H8.2C8.08954 5.5 8 5.58954 8 5.7V8.8C8 8.91046 8.08954 9 8.2 9H14.8C14.9105 9 15 8.91046 15 8.8V5.7Z" fill="black"/>
</svg>
