<svg width="24" height="24" viewBox="0 0 24 24" fill="none" xmlns="http://www.w3.org/2000/svg">
<path fill-rule="evenodd" clip-rule="evenodd" d="M8.0185 7.99624C8.01032 5.78712 9.79455 3.98965 12.0037 3.98147C14.2128 3.9733 16.0103 5.75753 16.0184 7.96665C16.0266 10.1758 14.2424 11.9732 12.0333 11.9814C9.82414 11.9896 8.02667 10.2054 8.0185 7.99624ZM11.9963 1.98149C8.68259 1.99375 6.00625 4.68996 6.01851 8.00364C6.02519 9.80889 6.82844 11.425 8.09414 12.5202C6.94821 12.863 5.9984 13.3587 5.21542 13.9577C3.68006 15.1321 2.87535 16.6351 2.45737 17.9317C2.09552 19.0542 2.4134 20.1154 3.10155 20.861C3.76951 21.5848 4.7655 22 5.81141 22H11.5C12.0523 22 12.5 21.5523 12.5 21C12.5 20.4477 12.0523 20 11.5 20H5.81141C5.27822 20 4.83082 19.7859 4.57131 19.5046C4.33196 19.2453 4.23826 18.9258 4.36091 18.5453C4.68851 17.5291 5.29766 16.4128 6.43055 15.5462C7.55786 14.6839 9.29345 14 12 14C12.071 14 12.1402 13.9926 12.207 13.9785C15.4434 13.8785 18.0305 11.2173 18.0184 7.95925C18.0062 4.64557 15.31 1.96923 11.9963 1.98149ZM19.4136 16.1722L16.1722 19.4136C16.061 19.1306 16 18.8224 16 18.5C16 17.1193 17.1193 16 18.5 16C18.8224 16 19.1306 16.061 19.4136 16.1722ZM17.5864 20.8278C17.8694 20.9389 18.1776 21 18.5 21C19.8807 21 21 19.8807 21 18.5C21 18.1775 20.939 17.8694 20.8278 17.5864L17.5864 20.8278ZM18.5 14C16.0147 14 14 16.0147 14 18.5C14 20.9853 16.0147 23 18.5 23C20.9853 23 23 20.9853 23 18.5C23 16.0147 20.9853 14 18.5 14Z" fill="black"/>
</svg>
