<svg width="24" height="24" viewBox="0 0 24 24" fill="none" xmlns="http://www.w3.org/2000/svg">
<path fill-rule="evenodd" clip-rule="evenodd" d="M19.9134 4.48948C19.9024 4.48976 19.8942 4.49196 19.8831 4.49918C18.7287 5.25479 17.0792 6.24501 15.2649 7.04936C13.7757 7.70962 12.1176 8.27113 10.5 8.44464V13.5553C12.1176 13.7288 13.7757 14.2903 15.2649 14.9505C17.0792 15.7549 18.7287 16.7451 19.8831 17.5007C19.8942 17.5079 19.9024 17.5101 19.9134 17.5104C19.9278 17.5108 19.9483 17.5071 19.969 17.4963C19.9881 17.4865 19.9972 17.4761 19.9999 17.4724L20 17.4691V4.53081L19.9999 4.5275C19.9972 4.52382 19.9881 4.51341 19.969 4.50355C19.9483 4.49284 19.9278 4.48912 19.9134 4.48948ZM9.49658 15.4999C9.49772 15.4999 9.49886 15.4999 9.5 15.4999C11.0133 15.4999 12.7579 16.0268 14.4543 16.7789C16.1348 17.524 17.6853 18.4525 18.7878 19.1741C20.1029 20.0349 22 19.1459 22 17.4691V4.53081C22 2.85402 20.1029 1.96497 18.7878 2.82579C17.6853 3.54742 16.1348 4.47593 14.4543 5.221C12.7591 5.9726 11.0157 6.49921 9.50318 6.49994C9.50212 6.49994 9.50106 6.49994 9.5 6.49994H6.5C4.01472 6.49994 2 8.51466 2 10.9999C2 13.3579 3.81361 15.2923 6.12201 15.4843C6.14828 15.6241 6.17894 15.7692 6.21464 15.9191C6.56599 17.3948 7.40026 19.3145 9.29284 21.2071C9.68336 21.5976 10.3165 21.5976 10.7071 21.2071C11.0976 20.8165 11.0976 20.1834 10.7071 19.7928C9.1201 18.2059 8.451 16.6454 8.1709 15.4999H9.49658ZM8.5 13.4999V8.49994H6.5C5.11929 8.49994 4 9.61923 4 10.9999C4 12.3807 5.11929 13.4999 6.5 13.4999H8.5Z" fill="black"/>
</svg>
