<svg width="24" height="24" viewBox="0 0 24 24" fill="none" xmlns="http://www.w3.org/2000/svg">
<path fill-rule="evenodd" clip-rule="evenodd" d="M13.3099 7.09356C11.2273 7.42493 9.42992 8.61348 8.29062 10.2895C8.09201 10.5816 7.754 10.7473 7.40141 10.7253C7.04883 10.7034 6.734 10.497 6.5732 10.1824C5.91139 8.8878 4.568 8.00408 3.01953 8.00001C3.01953 9.30784 3.64613 10.469 4.61971 11.2005C4.87112 11.3894 5.01904 11.6855 5.01904 12C5.01904 12.3145 4.87112 12.6106 4.61971 12.7995C3.64613 13.531 3.01954 14.6922 3.01953 16C4.5688 15.9955 5.91265 15.1105 6.57377 13.8145C6.73441 13.4996 7.04938 13.2929 7.40221 13.2709C7.75504 13.2488 8.09329 13.4147 8.29188 13.7072C9.46172 15.4301 11.3267 16.6385 13.4823 16.9313C12.3745 13.8387 12.0399 10.214 13.3099 7.09356ZM14.879 5.00749C14.7527 5.00251 14.6257 5 14.4982 5C11.7411 5 9.25867 6.17513 7.52428 8.0491C6.42524 6.79405 4.81026 6 3.0088 6C2.63913 6 2.27642 6.03355 1.92381 6.09803C1.51578 6.17263 1.19617 6.49138 1.12047 6.89921C1.05409 7.25678 1.01953 7.62481 1.01953 8.00001C1.01953 9.53707 1.59816 10.9392 2.54744 12C1.59816 13.0608 1.01953 14.4629 1.01953 16C1.01953 16.3753 1.05411 16.7434 1.12051 17.101C1.19624 17.5089 1.51595 17.8277 1.92405 17.9022C2.27628 17.9665 2.63857 18 3.00781 18C4.81048 18 6.42641 17.2049 7.52549 15.9484C9.25999 17.8238 11.7434 19 14.5017 19C14.6277 19 14.753 18.9976 14.8777 18.9927C14.9957 19.0074 15.1173 19.0012 15.2368 18.972C19.0668 18.679 22.2594 16.1151 23.4749 12.6268C23.6148 12.2251 23.6151 11.7878 23.4757 11.3859C22.2641 7.89242 19.0703 5.3233 15.2375 5.02834C15.1191 4.99945 14.9976 4.99293 14.879 5.00749ZM15.5289 7.07026C13.9928 9.92709 14.291 13.684 15.6182 16.9175C18.3864 16.5043 20.662 14.5781 21.5735 12.005C20.655 9.40039 18.3395 7.45662 15.5289 7.07026ZM19 11C19 11.8284 18.3284 12.5 17.5 12.5C16.6716 12.5 16 11.8284 16 11C16 10.1716 16.6716 9.5 17.5 9.5C18.3284 9.5 19 10.1716 19 11Z" fill="black"/>
</svg>
