<svg width="24" height="24" viewBox="0 0 24 24" fill="none" xmlns="http://www.w3.org/2000/svg">
<path fill-rule="evenodd" clip-rule="evenodd" d="M1 7.5C1 5.29086 2.79086 3.5 5 3.5H19C21.2091 3.5 23 5.29086 23 7.5V16.5C23 18.7091 21.2091 20.5 19 20.5H5C2.79086 20.5 1 18.7091 1 16.5V7.5ZM5 5.5C3.89543 5.5 3 6.39543 3 7.5V16.5C3 17.6046 3.89543 18.5 5 18.5H19C20.1046 18.5 21 17.6046 21 16.5V7.5C21 6.39543 20.1046 5.5 19 5.5H5ZM13 8.5C13.5523 8.5 14 8.94772 14 9.5V11.0858L16.2929 8.79289C16.6834 8.40237 17.3166 8.40237 17.7071 8.79289C18.0976 9.18342 18.0976 9.81658 17.7071 10.2071L15.9142 12L17.7071 13.7929C18.0976 14.1834 18.0976 14.8166 17.7071 15.2071C17.3166 15.5976 16.6834 15.5976 16.2929 15.2071L14 12.9142V14.5C14 15.0523 13.5523 15.5 13 15.5C12.4477 15.5 12 15.0523 12 14.5V12V9.5C12 8.94772 12.4477 8.5 13 8.5ZM8.5 10.2C8.11674 10.2 7.95 10.4664 7.95 10.625C7.95 10.7836 8.11674 11.05 8.5 11.05C8.88326 11.05 9.05 10.7836 9.05 10.625C9.05 10.4664 8.88326 10.2 8.5 10.2ZM10.479 12C10.7718 11.624 10.95 11.1544 10.95 10.625C10.95 9.26482 9.7736 8.3 8.5 8.3C7.2264 8.3 6.05 9.26482 6.05 10.625C6.05 11.1544 6.22823 11.624 6.52104 12C6.22823 12.3761 6.05 12.8456 6.05 13.375C6.05 14.7352 7.2264 15.7 8.5 15.7C9.7736 15.7 10.95 14.7352 10.95 13.375C10.95 12.8456 10.7718 12.3761 10.479 12ZM8.5 12.95C8.11674 12.95 7.95 13.2164 7.95 13.375C7.95 13.5336 8.11674 13.8 8.5 13.8C8.88326 13.8 9.05 13.5336 9.05 13.375C9.05 13.2164 8.88326 12.95 8.5 12.95Z" fill="black"/>
</svg>
