<svg width="24" height="24" viewBox="0 0 24 24" fill="none" xmlns="http://www.w3.org/2000/svg">
<path fill-rule="evenodd" clip-rule="evenodd" d="M4 5C3.44772 5 3 5.44772 3 6V18C3 18.5523 3.44772 19 4 19H13C13.5523 19 14 19.4477 14 20C14 20.5523 13.5523 21 13 21H4C2.34315 21 1 19.6569 1 18V6C1 4.34315 2.34315 3 4 3H9.46482C10.1335 3 10.758 3.3342 11.1289 3.8906L12.5352 6H20C21.6569 6 23 7.34315 23 9V12C23 12.5523 22.5523 13 22 13C21.4477 13 21 12.5523 21 12V9C21 8.44772 20.5523 8 20 8H12.5352C11.8665 8 11.242 7.6658 10.8711 7.1094L9.46482 5H4ZM22.2071 15.7929C22.5976 16.1834 22.5976 16.8166 22.2071 17.2071L20.4142 19L22.2071 20.7929C22.5976 21.1834 22.5976 21.8166 22.2071 22.2071C21.8166 22.5976 21.1834 22.5976 20.7929 22.2071L19 20.4142L17.2071 22.2071C16.8166 22.5976 16.1834 22.5976 15.7929 22.2071C15.4024 21.8166 15.4024 21.1834 15.7929 20.7929L17.5858 19L15.7929 17.2071C15.4024 16.8166 15.4024 16.1834 15.7929 15.7929C16.1834 15.4024 16.8166 15.4024 17.2071 15.7929L19 17.5858L20.7929 15.7929C21.1834 15.4024 21.8166 15.4024 22.2071 15.7929Z" fill="black"/>
</svg>
