<svg width="24" height="24" viewBox="0 0 24 24" fill="none" xmlns="http://www.w3.org/2000/svg">
<path fill-rule="evenodd" clip-rule="evenodd" d="M4 12C4 7.58172 7.58172 4 12 4C16.4183 4 20 7.58172 20 12C20 12.4812 19.5449 12.9919 18.7705 12.9919H16.0294C13.3838 12.9919 11.5047 15.5686 12.3133 18.0876L12.5759 18.9058C12.6747 19.2135 12.624 19.5116 12.5018 19.7129C12.3895 19.8976 12.2249 20 12 20C7.58172 20 4 16.4183 4 12ZM12 2C6.47715 2 2 6.47715 2 12C2 17.5228 6.47715 22 12 22C12.985 22 13.7692 21.4785 14.211 20.7513C14.6428 20.0406 14.7512 19.1388 14.4802 18.2946L14.2176 17.4764C13.8234 16.2482 14.7395 14.9919 16.0294 14.9919H18.7705C20.3449 14.9919 22 13.8675 22 12C22 6.47715 17.5228 2 12 2ZM12.4778 7.28067C12.6593 8.08897 12.1512 8.89137 11.3429 9.07288C10.5346 9.2544 9.73221 8.74629 9.55069 7.93799C9.36918 7.1297 9.87729 6.3273 10.6856 6.14578C11.4939 5.96427 12.2963 6.47238 12.4778 7.28067ZM16.325 10.0541C15.7158 10.6154 14.7668 10.5766 14.2055 9.96732C13.6441 9.35807 13.683 8.40912 14.2922 7.84778C14.9015 7.28643 15.8504 7.32527 16.4118 7.93452C16.9731 8.54377 16.9343 9.49272 16.325 10.0541ZM9.13728 11.1055C9.38423 10.3148 8.94339 9.47352 8.15263 9.22656C7.36186 8.97961 6.52063 9.42045 6.27368 10.2112C6.02672 11.002 6.46757 11.8432 7.25833 12.0902C8.04909 12.3371 8.89033 11.8963 9.13728 11.1055ZM7.67519 13.9458C8.28443 13.3845 9.23339 13.4233 9.79473 14.0326C10.3561 14.6418 10.3172 15.5908 9.70799 16.1521C9.09874 16.7135 8.14979 16.6746 7.58845 16.0654C7.0271 15.4561 7.06594 14.5072 7.67519 13.9458Z" fill="black"/>
</svg>
