<svg width="24" height="24" viewBox="0 0 24 24" fill="none" xmlns="http://www.w3.org/2000/svg">
<path fill-rule="evenodd" clip-rule="evenodd" d="M9.1711 14.8284C9.38675 15.044 9.60432 15.2533 9.82325 15.4559C10.2285 15.8311 10.253 16.4638 9.87781 16.8691C9.50265 17.2744 8.86995 17.2988 8.46465 16.9237C8.22681 16.7035 7.9907 16.4764 7.75689 16.2426C6.97321 15.4589 6.26209 14.6465 5.63343 13.8262C5.35191 14.3515 5.11837 14.8626 4.93519 15.3511C4.19333 17.3294 4.39928 18.5425 4.9278 19.071C5.45631 19.5995 6.66942 19.8055 8.64774 19.0636C10.5332 18.3566 12.7566 16.8991 14.8273 14.8284C15.7543 13.9013 16.5585 12.9437 17.2274 11.9995C16.5586 11.0556 15.7547 10.0983 14.828 9.17154C12.7573 7.10083 10.5339 5.64334 8.64841 4.93629C6.67009 4.19442 5.45698 4.40038 4.92846 4.9289C4.39995 5.45741 4.19399 6.67052 4.93586 8.64884C5.11892 9.13699 5.35227 9.64779 5.63355 10.1727C6.26202 9.35278 6.97287 8.54066 7.75623 7.7573C8.0085 7.50503 8.26345 7.26057 8.52037 7.02421C8.92681 6.65028 9.55943 6.67665 9.93336 7.08309C10.3073 7.48954 10.2809 8.12215 9.87447 8.49608C9.63803 8.71361 9.40312 8.93884 9.17044 9.17152C8.2437 10.0983 7.43979 11.0556 6.77101 11.9995C7.43992 12.9437 8.24406 13.9013 9.1711 14.8284ZM3.0632 9.35109C3.3838 10.206 3.82594 11.0981 4.37648 11.9994C3.82563 12.9011 3.38326 13.7936 3.06254 14.6488C2.26887 16.7653 2.08948 19.0611 3.51358 20.4852C4.93769 21.9093 7.23355 21.7299 9.34999 20.9363C11.5593 20.1078 14.0164 18.4676 16.2415 16.2426C17.0252 15.4589 17.7363 14.6464 18.3649 13.8262C18.6465 14.3515 18.88 14.8626 19.0632 15.3511C19.8051 17.3294 19.5991 18.5425 19.0706 19.071C18.5774 19.5642 17.4886 19.7838 15.6938 19.1853C15.1699 19.0106 14.6035 19.2936 14.4288 19.8175C14.2541 20.3415 14.5371 20.9078 15.0611 21.0825C17.035 21.7409 19.1466 21.8234 20.4848 20.4852C21.9089 19.0611 21.7295 16.7653 20.9359 14.6488C20.6151 13.7936 20.1728 12.9011 19.6219 11.9994C20.1724 11.0981 20.6146 10.206 20.9352 9.35107C21.7289 7.23463 21.9083 4.93877 20.4841 3.51466C19.1557 2.18619 17.0645 2.25842 15.1064 2.90211C14.5818 3.07459 14.2963 3.63974 14.4688 4.1644C14.6412 4.68906 15.2064 4.97456 15.7311 4.80208C17.5053 4.2188 18.5806 4.43959 19.0699 4.92888C19.5984 5.45739 19.8044 6.6705 19.0625 8.64882C18.8795 9.13698 18.6461 9.64779 18.3648 10.1727C17.7364 9.35279 17.0255 8.54067 16.2422 7.75732C14.0171 5.53226 11.5599 3.89212 9.35065 3.06363C7.23421 2.26997 4.93835 2.09058 3.51425 3.51468C2.09014 4.93879 2.26954 7.23465 3.0632 9.35109ZM12 13.5C12.8284 13.5 13.5 12.8284 13.5 12C13.5 11.1716 12.8284 10.5 12 10.5C11.1716 10.5 10.5 11.1716 10.5 12C10.5 12.8284 11.1716 13.5 12 13.5Z" fill="black"/>
</svg>
