<svg width="24" height="24" viewBox="0 0 24 24" fill="none" xmlns="http://www.w3.org/2000/svg">
<g clip-path="url(#clip0_895_53008)">
<path fill-rule="evenodd" clip-rule="evenodd" d="M12.7562 0.845648C12.5662 0.626138 12.2903 0.5 12 0.5C11.7097 0.5 11.4338 0.626138 11.2438 0.845648L10.1816 2.07317C9.20551 3.20117 7.75429 3.80228 6.26648 3.69487L4.64739 3.57798C4.35786 3.55707 4.07353 3.66301 3.86827 3.86827C3.66301 4.07353 3.55707 4.35786 3.57798 4.64739L3.69487 6.26648C3.80228 7.75429 3.20117 9.20551 2.07317 10.1816L0.845648 11.2438C0.626138 11.4338 0.5 11.7097 0.5 12C0.5 12.2903 0.626138 12.5662 0.845648 12.7562L2.07317 13.8184C3.20117 14.7945 3.80228 16.2457 3.69487 17.7335L3.57798 19.3526C3.55707 19.6421 3.66301 19.9265 3.86827 20.1317C4.07353 20.337 4.35786 20.4429 4.64739 20.422L6.26647 20.3051C7.75428 20.1977 9.20551 20.7988 10.1816 21.9268L11.2438 23.1544C11.4338 23.3739 11.7097 23.5 12 23.5C12.2903 23.5 12.5662 23.3739 12.7562 23.1544L13.8184 21.9268C14.7945 20.7988 16.2457 20.1977 17.7335 20.3051L19.3526 20.422C19.6421 20.4429 19.9265 20.337 20.1317 20.1317C20.337 19.9265 20.4429 19.6421 20.422 19.3526L20.3051 17.7335C20.1977 16.2457 20.7988 14.7945 21.9268 13.8184L23.1544 12.7562C23.3739 12.5662 23.5 12.2903 23.5 12C23.5 11.7097 23.3739 11.4338 23.1544 11.2438L21.9268 10.1816C20.7988 9.20551 20.1977 7.75428 20.3051 6.26647L20.422 4.64739C20.4429 4.35786 20.337 4.07353 20.1317 3.86827C19.9265 3.66301 19.6421 3.55707 19.3526 3.57798L17.7335 3.69487C16.2457 3.80228 14.7945 3.20117 13.8184 2.07317L12.7562 0.845648ZM11.694 3.38188L12 3.02823L12.306 3.38188C13.6951 4.9871 15.7603 5.84254 17.8775 5.68968L18.344 5.656L18.3103 6.12245C18.1575 8.23972 19.0129 10.3049 20.6181 11.694L20.9718 12L20.6181 12.306C19.0129 13.6951 18.1575 15.7603 18.3103 17.8775L18.344 18.344L17.8775 18.3103C15.7603 18.1575 13.6951 19.0129 12.306 20.6181L12 20.9718L11.694 20.6181C10.3049 19.0129 8.23972 18.1575 6.12245 18.3103L5.656 18.344L5.68968 17.8775C5.84254 15.7603 4.9871 13.6951 3.38188 12.306L3.02823 12L3.38188 11.694C4.9871 10.3049 5.84254 8.23972 5.68968 6.12246L5.656 5.656L6.12246 5.68968C8.23972 5.84254 10.3049 4.9871 11.694 3.38188ZM8.5 12C8.5 10.067 10.067 8.5 12 8.5C13.933 8.5 15.5 10.067 15.5 12C15.5 13.933 13.933 15.5 12 15.5C10.067 15.5 8.5 13.933 8.5 12ZM12 6.5C8.96243 6.5 6.5 8.96243 6.5 12C6.5 15.0376 8.96243 17.5 12 17.5C15.0376 17.5 17.5 15.0376 17.5 12C17.5 8.96243 15.0376 6.5 12 6.5Z" fill="black"/>
</g>
<defs>
<clipPath id="clip0_895_53008">
<rect width="24" height="24" fill="white"/>
</clipPath>
</defs>
</svg>
