<svg width="24" height="24" viewBox="0 0 24 24" fill="none" xmlns="http://www.w3.org/2000/svg">
<path fill-rule="evenodd" clip-rule="evenodd" d="M5 3.5C2.79086 3.5 1 5.29086 1 7.5V16.5C1 18.7091 2.79086 20.5 5 20.5H19C21.2091 20.5 23 18.7091 23 16.5V7.5C23 5.29086 21.2091 3.5 19 3.5H5ZM3 7.5C3 6.39543 3.89543 5.5 5 5.5H19C20.1046 5.5 21 6.39543 21 7.5V16.5C21 17.6046 20.1046 18.5 19 18.5H5C3.89543 18.5 3 17.6046 3 16.5V7.5ZM14.304 9.5C14.304 8.94772 13.8562 8.5 13.304 8.5C12.7517 8.5 12.304 8.94772 12.304 9.5V12V14.5C12.304 15.0523 12.7517 15.5 13.304 15.5C13.8562 15.5 14.304 15.0523 14.304 14.5V12.9142L16.5968 15.2071C16.9874 15.5976 17.6205 15.5976 18.0111 15.2071C18.4016 14.8166 18.4016 14.1834 18.0111 13.7929L16.2182 12L18.0111 10.2071C18.4016 9.81658 18.4016 9.18342 18.0111 8.79289C17.6205 8.40237 16.9874 8.40237 16.5968 8.79289L14.304 11.0858V9.5ZM10.7024 9.5C10.7024 8.94772 10.2547 8.5 9.70239 8.5C9.15011 8.5 8.70239 8.94772 8.70239 9.5V11.5H7.70261L7.70305 9.50023C7.70317 8.94795 7.25555 8.50013 6.70326 8.50001C6.15098 8.49989 5.70317 8.94751 5.70305 9.49979L5.70239 12.4998C5.70233 12.765 5.80767 13.0194 5.99521 13.207C6.18275 13.3946 6.43714 13.5 6.70239 13.5H8.70239V14.5C8.70239 15.0523 9.15011 15.5 9.70239 15.5C10.2547 15.5 10.7024 15.0523 10.7024 14.5V13.5C11.2547 13.5 11.7024 13.0523 11.7024 12.5C11.7024 11.9477 11.2547 11.5 10.7024 11.5V9.5Z" fill="black"/>
</svg>
