<svg width="24" height="24" viewBox="0 0 24 24" fill="none" xmlns="http://www.w3.org/2000/svg">
<path fill-rule="evenodd" clip-rule="evenodd" d="M1.5 7.5C1.5 5.29086 3.29086 3.5 5.5 3.5H18.5C20.7091 3.5 22.5 5.29086 22.5 7.5V15.9937V16.0063V16.5C22.5 18.7091 20.7091 20.5 18.5 20.5H5.5C3.29086 20.5 1.5 18.7091 1.5 16.5V15.0006V15.0004V7.5ZM20.5 7.5V13.5858L19.1056 12.1914C18.2415 11.3273 16.8792 11.2145 15.8848 11.9249L14.1809 13.1419L11.2458 9.5546C10.3573 8.46865 8.74929 8.32642 7.68396 9.23956L3.5 12.8258V7.5C3.5 6.39543 4.39543 5.5 5.5 5.5H18.5C19.6046 5.5 20.5 6.39543 20.5 7.5ZM3.5 16.5V15.46L8.98555 10.7581C9.19861 10.5754 9.52022 10.6039 9.69792 10.8211L13.2261 15.1333C13.5597 15.541 14.1525 15.62 14.5813 15.3137L17.0473 13.5523C17.2461 13.4103 17.5186 13.4328 17.6914 13.6056L20.5 16.4142V16.5C20.5 17.6046 19.6046 18.5 18.5 18.5H5.5C4.39543 18.5 3.5 17.6046 3.5 16.5ZM17 8.5C17 9.32843 16.3284 10 15.5 10C14.6716 10 14 9.32843 14 8.5C14 7.67157 14.6716 7 15.5 7C16.3284 7 17 7.67157 17 8.5Z" fill="black"/>
</svg>
