<svg width="24" height="24" viewBox="0 0 24 24" fill="none" xmlns="http://www.w3.org/2000/svg">
<path fill-rule="evenodd" clip-rule="evenodd" d="M7.64593 4.5C8.05484 4.5 8.42255 4.74895 8.57441 5.12861L10.7854 10.6562C10.9272 11.0105 11 11.3887 11 11.7703V18.5C11 19.0523 10.5523 19.5 10 19.5H4V12.6177C5.84036 11.6728 7 9.77696 7 7.70491V4.5H7.64593ZM6.5 2.5H7.64593H8.17157C8.97521 2.5 9.68572 2.82549 10.2311 3.23328C10.7784 3.64261 11.4488 4 12 4C12.5512 4 13.2216 3.64261 13.7689 3.23328C14.3143 2.82549 15.0248 2.5 15.8284 2.5H16.3541H17.5H18C18.5523 2.5 19 2.94772 19 3.5V7.70491C19 9.03916 19.7538 10.2589 20.9472 10.8556C21.5924 11.1782 22 11.8376 22 12.559V19.5C22 20.6046 21.1046 21.5 20 21.5H14C13.2316 21.5 12.5308 21.2111 12 20.7361C11.4692 21.2111 10.7684 21.5 10 21.5H4C2.89543 21.5 2 20.6046 2 19.5V12.559C2 11.8376 2.40757 11.1782 3.05279 10.8556C4.24617 10.2589 5 9.03916 5 7.70491V3.5C5 2.94772 5.44772 2.5 6 2.5H6.5ZM17 4.5H16.3541C15.9452 4.5 15.5775 4.74895 15.4256 5.12861L13.2146 10.6562C13.0728 11.0105 13 11.3887 13 11.7703V18.5C13 19.0523 13.4477 19.5 14 19.5H20V12.6177C18.1596 11.6728 17 9.77696 17 7.70491V4.5ZM12.9785 5.86122C12.6665 5.9472 12.3377 6 12 6C11.6623 6 11.3335 5.9472 11.0215 5.86122L12 8.30742L12.9785 5.86122Z" fill="black"/>
</svg>
