<svg width="24" height="24" viewBox="0 0 24 24" fill="none" xmlns="http://www.w3.org/2000/svg">
<path fill-rule="evenodd" clip-rule="evenodd" d="M12 1C12.5523 1 13 1.44772 13 2V3.04482C17.8367 3.48056 21.7691 7.04654 22.7593 11.7009C23.0309 12.9779 21.9933 14 20.8465 14H13V19.991C13.0002 19.995 13.0005 20.003 13.0014 20.0147C13.0034 20.0428 13.0079 20.0895 13.0176 20.1481C13.038 20.2701 13.0768 20.4175 13.1444 20.5528C13.2101 20.6842 13.2929 20.7851 13.3985 20.8554C13.4977 20.9216 13.675 21 14 21C14.325 21 14.5023 20.9216 14.6016 20.8554C14.7071 20.7851 14.7899 20.6842 14.8556 20.5528C14.9232 20.4175 14.962 20.2701 14.9824 20.1481C14.9921 20.0895 14.9966 20.0428 14.9986 20.0147C14.9996 20.0014 14.9999 19.9927 15.0001 19.9895C15.0057 19.4421 15.4512 19 16 19C16.5523 19 17 19.4477 17 20H16C17 20 17 20.0005 17 20.001L17 20.0021L17 20.0043L17 20.0094L16.9998 20.0219C16.9997 20.0312 16.9994 20.0425 16.999 20.0558C16.9981 20.0822 16.9965 20.1164 16.9936 20.1572C16.9878 20.2385 16.9766 20.348 16.9551 20.4769C16.913 20.7299 16.8268 21.0825 16.6444 21.4472C16.4601 21.8158 16.1679 22.2149 15.711 22.5196C15.2477 22.8284 14.675 23 14 23C13.325 23 12.7523 22.8284 12.2891 22.5196C11.8321 22.2149 11.5399 21.8158 11.3556 21.4472C11.1732 21.0825 11.087 20.7299 11.0449 20.4769C11.0234 20.348 11.0123 20.2385 11.0065 20.1572C11.0035 20.1164 11.0019 20.0822 11.001 20.0558C11.0006 20.0425 11.0003 20.0312 11.0002 20.0219L11 20.0094L11 20.0043L11 20.0021L11 20.001C11 20.0005 11 20 12 20H11V14H3.15368C2.00687 14 0.96928 12.9779 1.24094 11.7009C2.2311 7.0466 6.16337 3.48065 11 3.04484V2C11 1.44772 11.4477 1 12 1ZM20.7773 12C19.8683 7.99183 16.2824 5 12.0001 5C7.71776 5 4.13194 7.99183 3.22289 12H20.7773Z" fill="black"/>
</svg>
