<svg width="24" height="24" viewBox="0 0 24 24" fill="none" xmlns="http://www.w3.org/2000/svg">
<path fill-rule="evenodd" clip-rule="evenodd" d="M7.8 21C9.01503 21 10 20.015 10 18.8V13L14 13V15.3C14 16.515 14.985 17.5 16.2 17.5H19.3C20.515 17.5 21.5 16.515 21.5 15.3V12V8.7C21.5 7.48497 20.515 6.5 19.3 6.5L16.2 6.5C14.985 6.5 14 7.48497 14 8.7V11H10V5.2C10 3.98497 9.01503 3 7.8 3H4.7C3.48497 3 2.5 3.98497 2.5 5.2V12V18.8C2.5 20.015 3.48497 21 4.7 21H7.8ZM8 18.8C8 18.9105 7.91046 19 7.8 19H4.7C4.58954 19 4.5 18.9105 4.5 18.8L4.5 5.2C4.5 5.08954 4.58954 5 4.7 5L7.8 5C7.91046 5 8 5.08954 8 5.2L8 18.8ZM19.3 15.5C19.4105 15.5 19.5 15.4105 19.5 15.3V8.7C19.5 8.58954 19.4105 8.5 19.3 8.5H16.2C16.0895 8.5 16 8.58954 16 8.7V15.3C16 15.4105 16.0895 15.5 16.2 15.5H19.3Z" fill="black"/>
</svg>
