<svg width="24" height="24" viewBox="0 0 24 24" fill="none" xmlns="http://www.w3.org/2000/svg">
<path fill-rule="evenodd" clip-rule="evenodd" d="M11.6006 3.81338C11.8212 3.5928 12.1788 3.5928 12.3994 3.81338C14.1273 5.5413 16.6799 6.14907 19 5.38713V12.5658C19 14.9793 17.7567 17.2226 15.71 18.5018L12.53 20.4893C12.2057 20.6919 11.7943 20.6919 11.47 20.4893L8.29001 18.5018C6.24334 17.2226 5 14.9793 5 12.5658V5.38713C7.32009 6.14907 9.87269 5.5413 11.6006 3.81338ZM13.8136 2.39917C12.812 1.39754 11.188 1.39754 10.1864 2.39917C8.98733 3.59823 7.21372 4.01692 5.60502 3.48069L5.40894 3.41533C4.22384 3.0203 3 3.90239 3 5.1516V12.5658C3 15.6689 4.59858 18.5531 7.23001 20.1978L10.41 22.1853C11.3828 22.7933 12.6172 22.7933 13.59 22.1853L16.77 20.1978C19.4014 18.5531 21 15.6689 21 12.5658V5.1516C21 3.90239 19.7762 3.0203 18.5911 3.41533L18.395 3.48069C16.7863 4.01692 15.0127 3.59823 13.8136 2.39917ZM15.7071 10.7069C16.0976 10.3164 16.0976 9.68319 15.7071 9.29266C15.3166 8.90214 14.6834 8.90214 14.2929 9.29266L11 12.5856L9.70711 11.2927C9.31658 10.9021 8.68342 10.9021 8.29289 11.2927C7.90237 11.6832 7.90237 12.3164 8.29289 12.7069L10.2929 14.7069C10.6834 15.0974 11.3166 15.0974 11.7071 14.7069L15.7071 10.7069Z" fill="black"/>
</svg>
