<svg width="24" height="24" viewBox="0 0 24 24" fill="none" xmlns="http://www.w3.org/2000/svg">
<path fill-rule="evenodd" clip-rule="evenodd" d="M3.5 4C3.5 2.89543 4.39543 2 5.5 2H18.5C19.6046 2 20.5 2.89543 20.5 4V21C20.5 21.4045 20.2564 21.7691 19.8827 21.9239C19.509 22.0787 19.0789 21.9931 18.7929 21.7071L17 19.9142L15.2071 21.7071C14.8166 22.0976 14.1834 22.0976 13.7929 21.7071L12 19.9142L10.2071 21.7071C9.81658 22.0976 9.18342 22.0976 8.79289 21.7071L7 19.9142L5.20711 21.7071C4.92111 21.9931 4.49099 22.0787 4.11732 21.9239C3.74364 21.7691 3.5 21.4045 3.5 21V4ZM18.5 4L5.5 4V18.5858L6.29289 17.7929C6.68342 17.4024 7.31658 17.4024 7.70711 17.7929L9.5 19.5858L11.2929 17.7929C11.6834 17.4024 12.3166 17.4024 12.7071 17.7929L14.5 19.5858L16.2929 17.7929C16.6834 17.4024 17.3166 17.4024 17.7071 17.7929L18.5 18.5858V4ZM7.5 8C7.5 7.44772 7.94772 7 8.5 7H15.5C16.0523 7 16.5 7.44772 16.5 8C16.5 8.55228 16.0523 9 15.5 9H8.5C7.94772 9 7.5 8.55228 7.5 8ZM8.5 11C7.94772 11 7.5 11.4477 7.5 12C7.5 12.5523 7.94772 13 8.5 13H15.5C16.0523 13 16.5 12.5523 16.5 12C16.5 11.4477 16.0523 11 15.5 11H8.5Z" fill="black"/>
</svg>
