<svg width="24" height="24" viewBox="0 0 24 24" fill="none" xmlns="http://www.w3.org/2000/svg">
<path fill-rule="evenodd" clip-rule="evenodd" d="M8.51762 5.5C8.29489 5.5 8.18335 5.76929 8.34084 5.92678L9.95696 7.54289C10.3475 7.93342 10.3475 8.56658 9.95696 8.95711L4.91406 14L9.99985 19.0858L15.0427 14.0429C15.2303 13.8554 15.4846 13.75 15.7498 13.75C16.0151 13.75 16.2694 13.8554 16.457 14.0429L18.0731 15.659C18.2306 15.8165 18.4998 15.705 18.4998 15.4822L18.4998 5.5H8.51762ZM6.92663 7.34099C5.50921 5.92357 6.51308 3.5 8.51762 3.5H18.4998C19.6044 3.5 20.4998 4.39543 20.4998 5.5L20.4998 15.4822C20.4998 17.4868 18.0763 18.4907 16.6589 17.0732L15.7498 16.1642L11.4141 20.5C10.633 21.281 9.36668 21.281 8.58564 20.5L3.49985 15.4142C2.7188 14.6332 2.7188 13.3668 3.49985 12.5858L7.83564 8.25L6.92663 7.34099Z" fill="black"/>
</svg>
