<svg width="24" height="24" viewBox="0 0 24 24" fill="none" xmlns="http://www.w3.org/2000/svg">
<path fill-rule="evenodd" clip-rule="evenodd" d="M3.99991 13.5C4.55219 13.5 4.99991 13.0523 4.99991 12.5V5C4.99991 4.44771 5.44762 4 5.99991 4H11.9999V8C11.9999 9.65685 13.3431 11 14.9999 11H18.9999V12.5C18.9999 13.0523 19.4476 13.5 19.9999 13.5C20.5522 13.5 20.9999 13.0523 20.9999 12.5V10C20.9999 9.73478 20.8946 9.48043 20.707 9.29289L13.707 2.29289C13.5195 2.10536 13.2651 2 12.9999 2H5.99991C4.34305 2 2.99991 3.34315 2.99991 5V12.5C2.99991 13.0523 3.44762 13.5 3.99991 13.5ZM17.5857 9H14.9999C14.4476 9 13.9999 8.55228 13.9999 8V5.41421L17.5857 9ZM18.5188 16.9C18.1641 16.8958 17.818 17.0096 17.535 17.2236C17.2521 17.4375 17.0482 17.7395 16.9556 18.0819C16.8629 18.4243 16.8866 18.7878 17.0231 19.1153C17.1595 19.4427 17.4009 19.7155 17.7093 19.8908C18.0177 20.0661 18.3756 20.134 18.7268 20.0837C19.0608 20.0359 19.3706 19.8838 19.6125 19.6499H18.375C17.8779 19.6499 17.475 19.2469 17.475 18.7499C17.475 18.2528 17.8779 17.8499 18.375 17.8499H20.4987C20.5995 17.8499 20.6964 17.8664 20.7869 17.897C20.8818 17.8756 20.9818 17.8694 21.0839 17.8807C21.578 17.9355 21.9341 18.3803 21.8793 18.8744C21.7963 19.6236 21.4666 20.324 20.9421 20.8655C20.4177 21.4069 19.7281 21.7587 18.9819 21.8655C18.2357 21.9724 17.4751 21.8282 16.8198 21.4557C16.1644 21.0832 15.6515 20.5034 15.3616 19.8076C15.0716 19.1117 15.0211 18.3393 15.2181 17.6116C15.415 16.884 15.8482 16.2424 16.4495 15.7878C17.0508 15.3332 17.7861 15.0913 18.5399 15.1001C19.2936 15.1089 20.0231 15.368 20.6136 15.8366C21.0029 16.1456 21.0681 16.7117 20.7591 17.1011C20.4501 17.4904 19.884 17.5555 19.4946 17.2466C19.2168 17.026 18.8735 16.9041 18.5188 16.9ZM8.9521 15.1506C9.31278 15.0241 9.71402 15.1392 9.95279 15.4377L12.35 18.4342L12.35 15.9999C12.35 15.5028 12.753 15.0999 13.25 15.0999C13.7471 15.0999 14.15 15.5028 14.15 15.9999L14.15 20.9999C14.15 21.3822 13.9086 21.7227 13.5479 21.8492C13.1872 21.9757 12.786 21.8606 12.5472 21.5622L10.15 18.5656V20.9999C10.15 21.497 9.74706 21.8999 9.25001 21.8999C8.75295 21.8999 8.35001 21.497 8.35001 20.9999V15.9999C8.35001 15.6177 8.59143 15.2772 8.9521 15.1506ZM3.00001 15.0999C2.50295 15.0999 2.10001 15.5028 2.10001 15.9999V20.9999C2.10001 21.4969 2.50295 21.8999 3.00001 21.8999C3.49706 21.8999 3.90001 21.4969 3.90001 20.9999V19.8999H5.00001C6.32549 19.8999 7.40001 18.8253 7.40001 17.4999C7.40001 16.1744 6.32549 15.0999 5.00001 15.0999H3.00001ZM5.00001 18.0999H3.90001V16.8999H5.00001C5.33138 16.8999 5.60001 17.1685 5.60001 17.4999C5.60001 17.8312 5.33138 18.0999 5.00001 18.0999Z" fill="black"/>
</svg>
