<svg width="24" height="24" viewBox="0 0 24 24" fill="none" xmlns="http://www.w3.org/2000/svg">
<path fill-rule="evenodd" clip-rule="evenodd" d="M12 4C7.58172 4 4 7.58172 4 12C4 16.4183 7.58172 20 12 20C16.4183 20 20 16.4183 20 12C20 7.58172 16.4183 4 12 4ZM2 12C2 6.47715 6.47715 2 12 2C17.5228 2 22 6.47715 22 12C22 17.5228 17.5228 22 12 22C6.47715 22 2 17.5228 2 12ZM13.5 17.15C13.5 17.9785 12.8284 18.65 12 18.65C11.1716 18.65 10.5 17.9785 10.5 17.15C10.5 16.3216 11.1716 15.65 12 15.65C12.8284 15.65 13.5 16.3216 13.5 17.15ZM12 6C10.7345 6 9.77917 6.47812 9.15 6.95C8.83692 7.18481 8.60088 7.42037 8.44009 7.60126C8.35935 7.69209 8.29653 7.77033 8.25144 7.8295C8.22887 7.85913 8.21065 7.8841 8.19676 7.90363L8.17915 7.92879L8.17275 7.93816L8.17015 7.94201L8.169 7.94373L8.16846 7.94453C8.1682 7.94492 8.16795 7.9453 9 8.5L8.16795 7.9453C7.8616 8.40483 7.98577 9.0257 8.4453 9.33205C8.90219 9.63665 9.51858 9.51564 9.82675 9.06257C9.82856 9.06003 9.83375 9.05282 9.84231 9.04159C9.85972 9.01873 9.89065 8.97978 9.93491 8.92999C10.0241 8.82963 10.1631 8.69019 10.35 8.55C10.7208 8.27188 11.2655 8 12 8C12.7286 8 13.2016 8.2633 13.5026 8.60186C13.8199 8.95883 14 9.46307 14 10C14 10.4423 13.8948 10.6688 13.7904 10.8136C13.6664 10.9856 13.4779 11.1356 13.1506 11.3438C13.0935 11.3802 13.0304 11.4187 12.9627 11.46L12.9625 11.4601C12.3488 11.8345 11.3597 12.4379 11.0299 13.7575C10.8959 14.2933 11.2217 14.8362 11.7575 14.9701C12.2933 15.1041 12.8362 14.7783 12.9701 14.2425C13.0941 13.7467 13.379 13.5664 14.0569 13.1374L14.0574 13.137C14.1106 13.1033 14.1662 13.0682 14.2244 13.0312C14.5846 12.8019 15.0523 12.4832 15.4127 11.9832C15.7927 11.4562 16 10.8077 16 10C16 9.03693 15.6801 8.04117 14.9974 7.27314C14.2984 6.4867 13.2714 6 12 6ZM9.82675 9.06257C9.82836 9.0602 9.82997 9.05782 9.83156 9.05543L9.83109 9.05614L9.83022 9.05744L9.82872 9.05966L9.82671 9.0626C9.82582 9.0639 9.82581 9.0639 9.82667 9.06268C9.8267 9.06264 9.82672 9.06261 9.82675 9.06257Z" fill="black"/>
</svg>
