<svg width="24" height="24" viewBox="0 0 24 24" fill="none" xmlns="http://www.w3.org/2000/svg">
<path fill-rule="evenodd" clip-rule="evenodd" d="M3.5 5.5C3.5 4.39543 4.39543 3.5 5.5 3.5H15.4822C17.4868 3.5 18.4906 5.92357 17.0732 7.34099L16.1642 8.25L20.5 12.5858C21.281 13.3668 21.281 14.6332 20.5 15.4142L15.4142 20.5C14.6332 21.281 13.3668 21.281 12.5858 20.5L8.25 16.1642L7.34099 17.0732C5.92357 18.4907 3.5 17.4868 3.5 15.4822V5.5ZM5.5 5.5V5.5V15.4822C5.5 15.705 5.76929 15.8165 5.92678 15.659L7.54289 14.0429C7.73043 13.8554 7.98478 13.75 8.25 13.75C8.51522 13.75 8.76957 13.8554 8.95711 14.0429L14 19.0858L19.0858 14L14.0429 8.95711C13.6524 8.56658 13.6524 7.93342 14.0429 7.54289L15.659 5.92678C15.8165 5.76929 15.705 5.5 15.4822 5.5H5.5Z" fill="black"/>
</svg>
