<svg width="24" height="24" viewBox="0 0 24 24" fill="none" xmlns="http://www.w3.org/2000/svg">
<g clip-path="url(#clip0_1172_6624)">
<path fill-rule="evenodd" clip-rule="evenodd" d="M16.2077 1.58575C16.374 1.9476 16.3098 2.37364 16.0442 2.67037C15.7748 2.97129 15.528 3.29258 15.3062 3.63161C17.761 3.74292 20.1862 4.71144 22.0921 6.53861C22.3795 6.81422 22.4761 7.23413 22.3378 7.60761C22.1996 7.98109 21.8529 8.23693 21.4553 8.25893C21.0514 8.28128 20.6491 8.33405 20.252 8.4172C21.9095 10.2318 22.9398 12.6318 22.9954 15.2718C23.0038 15.6699 22.7752 16.0351 22.4133 16.2015C22.0515 16.3678 21.6254 16.3036 21.3287 16.0379C21.0274 15.7683 20.7058 15.5212 20.3663 15.2993C20.2558 17.7553 19.2872 20.1819 17.4591 22.0887C17.1835 22.3762 16.7636 22.4727 16.3901 22.3344C16.0167 22.1962 15.7608 21.8495 15.7388 21.4519C15.7167 21.0515 15.6646 20.6526 15.5827 20.2589C13.771 21.9131 11.3761 22.9423 8.74147 23.0007C8.34321 23.0096 7.9777 22.7812 7.81102 22.4194C7.64435 22.0576 7.70832 21.6313 7.97386 21.3344C8.24368 21.0327 8.49085 20.7105 8.71278 20.3705C6.25496 20.2637 3.82541 19.2976 1.91575 17.4709C1.62788 17.1955 1.53091 16.7756 1.6689 16.4019C1.80689 16.0282 2.15351 15.772 2.55125 15.7498C2.9548 15.7273 3.35681 15.6744 3.75357 15.5911C2.09155 13.7777 1.05697 11.377 0.998346 8.73526C0.989509 8.337 1.21789 7.97148 1.5797 7.80481C1.94152 7.63814 2.36774 7.70211 2.66469 7.96765C2.96607 8.23715 3.28786 8.48407 3.6274 8.7058C3.73501 6.24921 4.701 3.8211 6.52687 1.91236C6.80223 1.6245 7.22218 1.52753 7.59588 1.66552C7.96957 1.8035 8.22573 2.15012 8.24793 2.54786C8.27066 2.95487 8.32429 3.36033 8.40879 3.76041C10.2251 2.09512 12.6309 1.0594 15.278 1.00363C15.6762 0.995243 16.0413 1.2239 16.2077 1.58575ZM13.1664 3.32632C11.4009 3.82989 9.86956 4.89023 8.77394 6.30738C8.55779 6.58697 8.21012 6.7317 7.85943 6.6881C7.50873 6.64451 7.20709 6.41905 7.06598 6.09505C6.91678 5.75247 6.7877 5.40334 6.67873 5.04942C5.79103 6.65079 5.45979 8.47848 5.68609 10.2508C5.73087 10.6015 5.58715 10.9498 5.30808 11.1668C5.02902 11.3839 4.65609 11.4375 4.32721 11.3077C3.98297 11.1719 3.64815 11.0177 3.32397 10.8461C3.82885 12.607 4.88779 14.1342 6.30208 15.2276C6.58182 15.4438 6.72657 15.7917 6.68277 16.1426C6.63896 16.4935 6.41313 16.7951 6.08881 16.936C5.74932 17.0834 5.40341 17.2111 5.05281 17.319C6.65513 18.2073 8.48404 18.5383 10.2574 18.3113C10.6081 18.2663 10.9564 18.41 11.1736 18.689C11.3907 18.968 11.4444 19.341 11.3147 19.6699C11.1787 20.0148 11.0242 20.3503 10.8523 20.6751C12.6078 20.1718 14.1311 19.1177 15.2238 17.7099C15.4405 17.4306 15.7887 17.2865 16.1394 17.331C16.4902 17.3754 16.7914 17.6018 16.9317 17.9263C17.0771 18.2629 17.2032 18.6057 17.3099 18.9531C18.2 17.3528 18.5335 15.5255 18.3096 13.7529C18.2653 13.4023 18.4094 13.0543 18.6886 12.8376C18.9678 12.6209 19.3406 12.5677 19.6693 12.6976C20.0136 12.8337 20.3485 12.9883 20.6728 13.1602C20.1707 11.4 19.1153 9.87267 17.7046 8.77773C17.4255 8.56106 17.2814 8.21316 17.3256 7.86257C17.3699 7.51199 17.5958 7.21078 17.9201 7.07025C18.2597 6.92303 18.6058 6.79557 18.9565 6.68785C17.3571 5.79833 15.531 5.46461 13.7595 5.68773C13.4088 5.73189 13.061 5.58772 12.8444 5.30849C12.6278 5.02926 12.5746 4.65644 12.7046 4.32782C12.8405 3.98418 12.9948 3.64994 13.1664 3.32632ZM13.0037 12.001C13.0037 11.4487 12.556 11.001 12.0037 11.001C11.4514 11.001 11.0037 11.4487 11.0037 12.001C11.0037 12.5533 11.4514 13.001 12.0037 13.001C12.556 13.001 13.0037 12.5533 13.0037 12.001ZM12.0037 9.00097C13.6605 9.00097 15.0037 10.3441 15.0037 12.001C15.0037 13.6578 13.6605 15.001 12.0037 15.001C10.3468 15.001 9.00368 13.6578 9.00368 12.001C9.00367 10.3441 10.3468 9.00097 12.0037 9.00097Z" fill="black"/>
</g>
<defs>
<clipPath id="clip0_1172_6624">
<rect width="24" height="24" fill="white"/>
</clipPath>
</defs>
</svg>
