<svg width="24" height="24" viewBox="0 0 24 24" fill="none" xmlns="http://www.w3.org/2000/svg">
<path fill-rule="evenodd" clip-rule="evenodd" d="M2.5 5.5C2.5 3.84315 3.84315 2.5 5.5 2.5H18.5C20.1569 2.5 21.5 3.84315 21.5 5.5V18.5C21.5 20.1569 20.1569 21.5 18.5 21.5H5.5C3.84315 21.5 2.5 20.1569 2.5 18.5V5.5ZM5.5 4.5C4.94772 4.5 4.5 4.94772 4.5 5.5V18.5C4.5 19.0523 4.94772 19.5 5.5 19.5H18.5C19.0523 19.5 19.5 19.0523 19.5 18.5V5.5C19.5 4.94772 19.0523 4.5 18.5 4.5H5.5ZM6 9.5C6 8.94772 6.44772 8.5 7 8.5H10.25C10.8023 8.5 11.25 8.94772 11.25 9.5C11.25 10.0523 10.8023 10.5 10.25 10.5H8V11H9.5C10.0523 11 10.5 11.4477 10.5 12C10.5 12.5523 10.0523 13 9.5 13H8V13.5H10.25C10.8023 13.5 11.25 13.9477 11.25 14.5C11.25 15.0523 10.8023 15.5 10.25 15.5H7C6.44772 15.5 6 15.0523 6 14.5V9.5ZM14 9.5C14 8.94772 13.5523 8.5 13 8.5C12.4477 8.5 12 8.94772 12 9.5V12.5C12 14.1569 13.3431 15.5 15 15.5C16.6569 15.5 18 14.1569 18 12.5V9.5C18 8.94772 17.5523 8.5 17 8.5C16.4477 8.5 16 8.94772 16 9.5V12.5C16 13.0523 15.5523 13.5 15 13.5C14.4477 13.5 14 13.0523 14 12.5V9.5Z" fill="black"/>
</svg>
