<svg width="24" height="24" viewBox="0 0 24 24" fill="none" xmlns="http://www.w3.org/2000/svg">
<g clip-path="url(#clip0_1172_6622)">
<path fill-rule="evenodd" clip-rule="evenodd" d="M19.6676 3.72569C21.1486 4.58077 22.3445 5.74418 23.2185 7.08865C23.4623 7.46374 23.4273 7.95514 23.1329 8.29193C22.8384 8.62872 22.356 8.72892 21.9517 8.53731C21.1218 8.14392 20.25 7.91614 19.3762 7.84333C22.0055 11.1222 22.5056 15.8065 20.2775 19.6656C19.4224 21.1467 18.259 22.3426 16.9146 23.2165C16.5395 23.4604 16.0481 23.4254 15.7113 23.1309C15.3745 22.8364 15.2743 22.3541 15.4659 21.9498C15.8589 21.1207 16.0866 20.2497 16.1597 19.3768C12.8808 22.0058 8.1967 22.5058 4.33772 20.2778C2.85669 19.4227 1.6608 18.2593 0.786803 16.9148C0.542968 16.5397 0.577935 16.0483 0.872424 15.7115C1.16692 15.3748 1.64927 15.2746 2.05353 15.4662C2.88326 15.8595 3.75487 16.0872 4.6284 16.1601C1.99724 12.8811 1.4963 8.19529 3.72497 4.33512C4.58004 2.85409 5.74346 1.6582 7.08792 0.784207C7.46301 0.540371 7.95442 0.575338 8.2912 0.869828C8.62799 1.16432 8.7282 1.64667 8.53658 2.05094C8.14277 2.88177 7.91492 3.7546 7.84236 4.6293C11.1214 1.99798 15.8073 1.49697 19.6676 3.72569ZM19.2575 5.83084C19.0677 5.69973 18.871 5.57519 18.6676 5.45774C14.9718 3.32402 10.338 4.28108 7.76365 7.52772C7.52147 7.83314 7.12391 7.97001 6.74506 7.8784C6.3662 7.78679 6.0751 7.4834 5.99922 7.10109C5.84616 6.32993 5.78809 5.5383 5.83011 4.7452C5.699 4.93501 5.57447 5.13169 5.45702 5.33512C3.32315 9.03108 4.28049 13.6653 7.52766 16.2396C7.83316 16.4817 7.97006 16.8794 7.87839 17.2583C7.78673 17.6372 7.48321 17.9283 7.1008 18.0041C6.33055 18.1567 5.53991 18.2146 4.7478 18.1726C4.93762 18.3038 5.13429 18.4283 5.33772 18.5457C9.03265 20.679 13.6653 19.7228 16.24 16.4778C16.4823 16.1724 16.88 16.0357 17.2588 16.1275C17.6377 16.2193 17.9287 16.5228 18.0044 16.9053C18.1566 17.6747 18.2143 18.4644 18.1724 19.2555C18.3035 19.0657 18.428 18.8691 18.5455 18.6656C20.6787 14.9708 19.7226 10.3383 16.4778 7.76355C16.1724 7.52127 16.0357 7.12365 16.1275 6.74482C16.2192 6.366 16.5227 6.075 16.905 5.99926C17.6751 5.84672 18.4656 5.78888 19.2575 5.83084ZM13.4971 11.9981C13.4971 11.1697 12.8255 10.4981 11.9971 10.4981C11.1686 10.4981 10.4971 11.1697 10.4971 11.9981C10.4971 12.8266 11.1686 13.4981 11.9971 13.4981C12.8255 13.4981 13.4971 12.8266 13.4971 11.9981ZM11.9971 8.49814C13.9301 8.49814 15.4971 10.0651 15.4971 11.9981C15.4971 13.9311 13.9301 15.4981 11.9971 15.4981C10.0641 15.4981 8.49707 13.9311 8.49707 11.9981C8.49707 10.0651 10.0641 8.49814 11.9971 8.49814Z" fill="black"/>
</g>
<defs>
<clipPath id="clip0_1172_6622">
<rect width="24" height="24" fill="white"/>
</clipPath>
</defs>
</svg>
