<svg width="24" height="24" viewBox="0 0 24 24" fill="none" xmlns="http://www.w3.org/2000/svg">
<path fill-rule="evenodd" clip-rule="evenodd" d="M20.0101 8.18206L15.0932 11.805C14.6512 12.1307 14.0294 12.0392 13.7 11.6L10.8961 7.86142C10.4821 7.30946 9.64673 7.33265 9.26401 7.90672L3.98988 15.8179L8.90678 12.1949C9.34874 11.8693 9.9706 11.9608 10.3 12.4L13.1039 16.1386C13.5179 16.6905 14.3532 16.6673 14.736 16.0933L20.0101 8.18206ZM21.1152 4.88344C22.4672 3.88729 24.1846 5.5258 23.2531 6.92308L16.4001 17.2027C15.2519 18.9249 12.7458 18.9944 11.5039 17.3386L9.29492 14.3932L2.88473 19.1165C1.53281 20.1127 -0.18466 18.4742 0.746859 17.0769L7.59991 6.79732C8.74806 5.07509 11.2541 5.00553 12.4961 6.66142L14.705 9.60674L21.1152 4.88344Z" fill="black"/>
</svg>
