<svg width="24" height="24" viewBox="0 0 24 24" fill="none" xmlns="http://www.w3.org/2000/svg">
<path fill-rule="evenodd" clip-rule="evenodd" d="M6.55849 2.81957C6.25693 2.35689 5.63739 2.22626 5.1747 2.52782C3.79906 3.4244 2.61355 4.58322 1.6859 5.93809C1.37388 6.3938 1.49037 7.01615 1.94607 7.32817C2.40177 7.64018 3.02413 7.5237 3.33614 7.06799C4.11538 5.9299 5.11121 4.95649 6.26674 4.20337C6.72943 3.90181 6.86005 3.28226 6.55849 2.81957ZM18.8252 2.52782C18.3625 2.22626 17.743 2.35689 17.4414 2.81957C17.1398 3.28226 17.2705 3.90181 17.7332 4.20337C18.8887 4.95649 19.8845 5.9299 20.6638 7.06799C20.9758 7.5237 21.5981 7.64018 22.0538 7.32817C22.5095 7.01615 22.626 6.3938 22.314 5.93809C21.3863 4.58322 20.2008 3.4244 18.8252 2.52782ZM5.50001 13C5.50001 9.41015 8.41016 6.5 12 6.5C15.5899 6.5 18.5 9.41015 18.5 13C18.5 16.5899 15.5899 19.5 12 19.5C8.41016 19.5 5.50001 16.5899 5.50001 13ZM12 4.5C7.30559 4.5 3.50001 8.30558 3.50001 13C3.50001 14.9872 4.18195 16.8152 5.32458 18.2626C5.31385 18.2724 5.30329 18.2825 5.2929 18.2929L3.7929 19.7929C3.40238 20.1834 3.40238 20.8166 3.7929 21.2071C4.18343 21.5976 4.81659 21.5976 5.20712 21.2071L6.70712 19.7071C6.71751 19.6967 6.72762 19.6862 6.73745 19.6754C8.18486 20.8181 10.0128 21.5 12 21.5C13.9872 21.5 15.8152 20.8181 17.2626 19.6754C17.2724 19.6862 17.2825 19.6967 17.2929 19.7071L18.7929 21.2071C19.1834 21.5976 19.8166 21.5976 20.2071 21.2071C20.5976 20.8166 20.5976 20.1834 20.2071 19.7929L18.7071 18.2929C18.6967 18.2825 18.6862 18.2724 18.6754 18.2626C19.8181 16.8151 20.5 14.9872 20.5 13C20.5 8.30558 16.6944 4.5 12 4.5ZM13 10C13 9.44772 12.5523 9 12 9C11.4477 9 11 9.44772 11 10V13C11 13.5523 11.4477 14 12 14H14C14.5523 14 15 13.5523 15 13C15 12.4477 14.5523 12 14 12H13V10Z" fill="black"/>
</svg>
