<svg width="24" height="24" viewBox="0 0 24 24" fill="none" xmlns="http://www.w3.org/2000/svg">
<path fill-rule="evenodd" clip-rule="evenodd" d="M9 4C4.58172 4 1 7.58172 1 12C1 16.4183 4.58172 20 9 20H15C19.4183 20 23 16.4183 23 12C23 7.58172 19.4183 4 15 4H9ZM3 12C3 8.68629 5.68629 6 9 6H15C18.3137 6 21 8.68629 21 12C21 15.3137 18.3137 18 15 18H9C5.68629 18 3 15.3137 3 12ZM9 7.5C6.51472 7.5 4.5 9.51472 4.5 12C4.5 14.4853 6.51472 16.5 9 16.5C11.4853 16.5 13.5 14.4853 13.5 12C13.5 9.51472 11.4853 7.5 9 7.5ZM6.5 12C6.5 10.6193 7.61929 9.5 9 9.5C10.3807 9.5 11.5 10.6193 11.5 12C11.5 13.3807 10.3807 14.5 9 14.5C7.61929 14.5 6.5 13.3807 6.5 12Z" fill="black"/>
</svg>
