<svg width="24" height="24" viewBox="0 0 24 24" fill="none" xmlns="http://www.w3.org/2000/svg">
<path fill-rule="evenodd" clip-rule="evenodd" d="M11.3946 4.89461C11.1699 5.11933 11 5.47725 11 6C11 6.4868 11.0955 6.6952 11.158 6.79413C11.2338 6.91422 11.3363 7.0022 11.6 7.2C11.6095 7.2071 11.6192 7.21437 11.6292 7.22183C11.868 7.4005 12.2458 7.68319 12.533 8.13788C12.7731 8.51802 12.9199 8.96265 12.9751 9.49437L22.0708 16.641C24.3111 18.4012 23.0664 22 20.2174 22H3.78264C0.933609 22 -0.311081 18.4012 1.92917 16.641L10.9632 9.54289C10.9297 9.36558 10.8798 9.2657 10.842 9.20587C10.7662 9.08578 10.6637 8.9978 10.4 8.8C10.3905 8.7929 10.3808 8.78563 10.3708 8.77817C10.132 8.5995 9.75419 8.31681 9.46702 7.86212C9.1545 7.3673 9 6.7632 9 6C9 5.02275 9.33012 4.13067 9.9804 3.48039C10.6307 2.83011 11.5228 2.5 12.5 2.5C13.8141 2.5 14.6972 3.24392 15.2027 3.87451C15.458 4.19294 15.6383 4.50629 15.755 4.73829C15.8139 4.85551 15.8582 4.95523 15.889 5.02887C15.9044 5.06579 15.9165 5.0964 15.9254 5.11968L15.9365 5.14906L15.9402 5.15944L15.9417 5.16352L15.9423 5.16528L15.9426 5.16608C15.9427 5.16646 15.9429 5.16683 15.0191 5.49325L15.9429 5.16684C16.1269 5.68757 15.8539 6.25887 15.3332 6.44287C14.8143 6.6262 14.2453 6.35589 14.0592 5.83887C14.0589 5.83821 14.0585 5.83705 14.0579 5.8354L14.0579 5.83523M14.0574 5.83387C14.0575 5.83433 14.0577 5.83478 14.0579 5.83523L14.0576 5.83454L14.0574 5.83387ZM14.0592 5.83887C14.0594 5.83941 14.0594 5.83961 14.0594 5.83946L14.0587 5.83766L14.0581 5.83575L14.0579 5.8354C14.0555 5.82938 14.0507 5.81703 14.0433 5.79925C14.0284 5.76352 14.0035 5.70699 13.9681 5.63671C13.8962 5.49371 13.7878 5.30706 13.6423 5.12549C13.3461 4.75608 12.9792 4.5 12.5 4.5C11.9773 4.5 11.6193 4.66989 11.3946 4.89461M12 11.2717L3.16481 18.2137C2.41807 18.8004 2.83296 20 3.78264 20H20.2174C21.167 20 21.5819 18.8004 20.8352 18.2137L12 11.2717Z" fill="black"/>
</svg>
