<svg width="24" height="24" viewBox="0 0 24 24" fill="none" xmlns="http://www.w3.org/2000/svg">
<g clip-path="url(#clip0_895_52888)">
<path fill-rule="evenodd" clip-rule="evenodd" d="M23.7071 1.70711L17 8.41421V10.5H16C17 10.5 17 10.5005 17 10.501L17 10.5021L17 10.5047L17 10.5108L16.9997 10.5276C16.9995 10.5407 16.9992 10.5577 16.9985 10.5782C16.9971 10.6193 16.9945 10.675 16.9896 10.7431C16.9799 10.8791 16.961 11.0668 16.9239 11.2894C16.8505 11.7299 16.7018 12.3325 16.3944 12.9472C16.0851 13.5658 15.6054 14.2149 14.8672 14.7071C14.1227 15.2034 13.175 15.5 12 15.5C11.325 15.5 10.7234 15.4022 10.191 15.2232L9.0206 16.3936C10.4811 17.0583 12.2682 17.1842 13.9082 16.7575C15.8507 16.2521 17.4407 15.0157 18.0513 13.1838C18.226 12.6598 18.7923 12.3767 19.3163 12.5513C19.8402 12.726 20.1234 13.2923 19.9487 13.8162C19.0742 16.4397 16.841 18.061 14.4118 18.6931C13.9508 18.813 13.4775 18.8989 12.9988 18.9498C12.9996 18.9665 13 18.9832 13 19V21H15C15.5523 21 16 21.4477 16 22C16 22.5523 15.5523 23 15 23H9C8.44771 23 8 22.5523 8 22C8 21.4477 8.44771 21 9 21H11V19C11 18.9858 11.0003 18.9717 11.0009 18.9577C9.78337 18.8368 8.59134 18.4824 7.53594 17.8783L1.70711 23.7071C1.31658 24.0976 0.683417 24.0976 0.292893 23.7071C-0.0976311 23.3166 -0.0976311 22.6834 0.292893 22.2929L22.2929 0.292893C22.6834 -0.0976311 23.3166 -0.0976311 23.7071 0.292893C24.0976 0.683417 24.0976 1.31658 23.7071 1.70711ZM11.9149 13.4993L15 10.4142V10.4957L14.9996 10.5116C14.999 10.5291 14.9977 10.5594 14.9947 10.6006C14.9888 10.6834 14.9765 10.8082 14.9511 10.9606C14.8995 11.2701 14.7982 11.6675 14.6056 12.0528C14.4149 12.4342 14.1446 12.7851 13.7578 13.0429C13.3773 13.2966 12.825 13.5 12 13.5C11.9713 13.5 11.943 13.4998 11.9149 13.4993ZM9 6.00435L9.00042 5.98839C9.00101 5.97089 9.00233 5.9406 9.00527 5.89937C9.01118 5.81658 9.0235 5.69178 9.04889 5.5394C9.10048 5.22989 9.20178 4.8325 9.39443 4.44721C9.58511 4.06584 9.85544 3.71489 10.2422 3.45705C10.6227 3.20338 11.175 3 12 3C13.3314 3 14.0004 3.52791 14.3844 4.07472C14.7018 4.52668 15.3255 4.63576 15.7775 4.31835C16.2295 4.00094 16.3385 3.37724 16.0211 2.92528C15.27 1.85569 13.9956 1 12 1C10.825 1 9.87729 1.29662 9.1328 1.79295C8.39456 2.28511 7.91489 2.93416 7.60557 3.55279C7.29822 4.1675 7.14952 4.77011 7.07611 5.2106C7.039 5.43322 7.02007 5.62092 7.01035 5.75688C7.00549 5.82503 7.0029 5.88067 7.00153 5.92176C7.00085 5.94232 7.00046 5.95929 7.00025 5.9724L7.00005 5.98916L7.00001 5.99533L7 5.99786L7 5.99898C7 5.9995 7 6 8 6H7V10.5C7 11.0523 7.44772 11.5 8 11.5C8.55229 11.5 9 11.0523 9 10.5V6.00435ZM5.94707 13.1789C5.77063 12.658 5.20618 12.3772 4.6838 12.5513C4.15986 12.726 3.8767 13.2923 4.05134 13.8162C4.14107 14.0845 4.26373 14.3405 4.39424 14.591C4.64946 15.0808 5.25339 15.2709 5.74317 15.0157C6.23295 14.7605 6.4231 14.1565 6.16788 13.6668C6.08357 13.505 6.02546 13.3744 5.98994 13.2888C5.97222 13.246 5.96022 13.2147 5.95348 13.1966L5.94707 13.1789Z" fill="black"/>
</g>
<defs>
<clipPath id="clip0_895_52888">
<rect width="24" height="24" fill="white"/>
</clipPath>
</defs>
</svg>
