<svg width="24" height="24" viewBox="0 0 24 24" fill="none" xmlns="http://www.w3.org/2000/svg">
<path fill-rule="evenodd" clip-rule="evenodd" d="M4 11C4 6.58172 7.58172 3 12 3C16.4183 3 20 6.58172 20 11V13C20 14.6569 18.6569 16 17 16C15.8954 16 15 16.8954 15 18V19C15 19.4099 14.7534 19.7622 14.4004 19.9166V19C14.4004 18.4477 13.9527 18 13.4004 18C12.8481 18 12.4004 18.4477 12.4004 19V20H11.5996V19C11.5996 18.4477 11.1519 18 10.5996 18C10.0473 18 9.59961 18.4477 9.59961 19V19.9166C9.24664 19.7622 9 19.4099 9 19V18C9 16.8954 8.10457 16 7 16C5.34315 16 4 14.6569 4 13V11ZM13.4004 22H14C15.6569 22 17 20.6569 17 19V18C19.7614 18 22 15.7614 22 13V11C22 5.47715 17.5228 1 12 1C6.47715 1 2 5.47715 2 11V13C2 15.7614 4.23858 18 7 18V19C7 20.6569 8.34315 22 10 22H10.5996H13.4004ZM8.5 14C9.32843 14 10 13.3284 10 12.5C10 11.6716 9.32843 11 8.5 11C7.67157 11 7 11.6716 7 12.5C7 13.3284 7.67157 14 8.5 14ZM17 12.5C17 13.3284 16.3284 14 15.5 14C14.6716 14 14 13.3284 14 12.5C14 11.6716 14.6716 11 15.5 11C16.3284 11 17 11.6716 17 12.5ZM12.7803 14.1251C12.5904 13.8879 12.303 13.7499 11.9992 13.75C11.6953 13.7501 11.408 13.8884 11.2184 14.1258L10.6192 14.8758C10.2744 15.3073 10.3447 15.9365 10.7762 16.2813C11.14 16.5719 11.6443 16.5675 12.0002 16.3004C12.3564 16.5678 12.8612 16.5719 13.225 16.2807C13.6561 15.9355 13.7259 15.3062 13.3807 14.8751L12.7803 14.1251Z" fill="black"/>
</svg>
