<svg width="24" height="24" viewBox="0 0 24 24" fill="none" xmlns="http://www.w3.org/2000/svg">
<g clip-path="url(#clip0_895_52662)">
<path fill-rule="evenodd" clip-rule="evenodd" d="M11.2929 23.0208C11.6834 23.4114 12.3166 23.4114 12.7071 23.0208L16.2426 19.4853C16.6332 19.0948 16.6332 18.4616 16.2426 18.0711C15.8521 17.6806 15.2189 17.6806 14.8284 18.0711L13 19.8995V13L19.8995 13L18.0711 14.8284C17.6805 15.2189 17.6805 15.8521 18.0711 16.2426C18.4616 16.6332 19.0947 16.6332 19.4853 16.2426L23.0208 12.7071C23.2083 12.5196 23.3137 12.2652 23.3137 12C23.3137 11.7348 23.2083 11.4804 23.0208 11.2929L19.4853 7.75736C19.0947 7.36683 18.4616 7.36683 18.0711 7.75736C17.6805 8.14788 17.6805 8.78105 18.0711 9.17157L19.8995 11L13 11V4.10052L14.8284 5.92895C15.2189 6.31948 15.8521 6.31948 16.2426 5.92896C16.6332 5.53843 16.6332 4.90527 16.2426 4.51474L12.7071 0.979204C12.5196 0.791666 12.2652 0.68631 12 0.68631C11.7348 0.68631 11.4804 0.791665 11.2929 0.979204L7.75735 4.51474C7.36682 4.90526 7.36682 5.53843 7.75735 5.92895C8.14787 6.31948 8.78104 6.31948 9.17156 5.92895L11 4.10052V11L4.10049 11L5.92892 9.17157C6.31944 8.78105 6.31944 8.14789 5.92892 7.75736C5.53839 7.36684 4.90523 7.36684 4.51471 7.75736L0.979172 11.2929C0.588648 11.6834 0.588648 12.3166 0.979172 12.7071L4.51471 16.2426C4.90523 16.6332 5.5384 16.6332 5.92892 16.2426C6.31944 15.8521 6.31944 15.219 5.92892 14.8284L4.10049 13L11 13V19.8995L9.17156 18.0711C8.78104 17.6806 8.14787 17.6806 7.75735 18.0711C7.36682 18.4616 7.36682 19.0948 7.75735 19.4853L11.2929 23.0208Z" fill="black"/>
</g>
<defs>
<clipPath id="clip0_895_52662">
<rect width="24" height="24" fill="white"/>
</clipPath>
</defs>
</svg>
