<svg width="24" height="24" viewBox="0 0 24 24" fill="none" xmlns="http://www.w3.org/2000/svg">
<path fill-rule="evenodd" clip-rule="evenodd" d="M11.4993 2.20471C11.8091 2.02551 12.191 2.02551 12.5007 2.20471C14.2642 3.22482 15.6506 4.82772 16.3955 6.75089C17.4991 6.26798 18.7183 6.00005 20 6.00005C20.2865 6.00005 20.5702 6.01347 20.8504 6.03977C21.272 6.07933 21.6229 6.38007 21.7265 6.79058C21.9053 7.49855 22 8.23895 22 9.00005C22 13.9706 17.9706 18 13 18C12.7135 18 12.4298 17.9866 12.1496 17.9603C12.0986 17.9555 12.0486 17.9469 12 17.9348C11.9514 17.9469 11.9014 17.9555 11.8504 17.9603C11.5702 17.9866 11.2865 18.0001 11 18.0001C6.02944 18.0001 2 13.9706 2 9.00005C2 8.23896 2.0947 7.49856 2.27345 6.79059C2.3771 6.38008 2.72804 6.07934 3.14958 6.03977C3.42978 6.01348 3.71346 6.00005 4 6.00005C5.28173 6.00005 6.50088 6.26799 7.6045 6.7509C8.3494 4.82772 9.73582 3.22482 11.4993 2.20471ZM17 10C17 9.56462 16.9691 9.13644 16.9093 8.71757C17.8216 8.26792 18.846 8.01112 19.9293 8.0004C19.9759 8.3265 20 8.66023 20 9.00005C20 12.1919 17.8637 14.8847 14.943 15.7269C16.2275 14.1714 17 12.1762 17 10ZM7 10.0001C7 12.1762 7.77254 14.1714 9.057 15.7269C6.13626 14.8847 4 12.1919 4 9.00005C4 8.66023 4.02414 8.32651 4.07071 8.0004C5.15402 8.01112 6.17842 8.26792 7.0907 8.71758C7.03093 9.13645 7 9.56463 7 10.0001ZM12 4.2546C10.1849 5.52077 9 7.62254 9 10.0001C9 12.3776 10.1849 14.4793 12 15.7455C13.8151 14.4793 15 12.3776 15 10C15 7.62254 13.8152 5.52077 12 4.2546ZM21.7074 16.3425C21.4522 15.8528 20.8482 15.6627 20.3585 15.918C19.8687 16.1732 19.6786 16.7772 19.9339 17.2669C20.0252 17.4421 20.0301 17.5847 19.8971 17.7972C19.7259 18.0708 19.3235 18.4329 18.5773 18.7936C17.848 19.1461 16.8917 19.4481 15.7652 19.6622C14.6427 19.8755 13.4029 19.9918 12.1366 19.9996C10.8704 20.0074 9.62069 19.9065 8.47903 19.7067C7.33392 19.5063 6.34809 19.2153 5.58285 18.8685C4.80167 18.5145 4.35056 18.1479 4.14148 17.8546C3.96791 17.6112 3.97913 17.4617 4.04356 17.3142C4.26464 16.8081 4.03358 16.2186 3.52748 15.9975C3.02137 15.7764 2.43187 16.0075 2.21079 16.5136C1.83258 17.3794 1.98041 18.2687 2.51298 19.0157C3.01005 19.7129 3.8173 20.2642 4.7573 20.6902C5.71323 21.1234 6.86917 21.4554 8.13425 21.6768C9.40277 21.8988 10.7725 22.0081 12.149 21.9996C13.5253 21.9911 14.8866 21.865 16.1386 21.627C17.3868 21.3898 18.5203 21.0426 19.4477 20.5943C20.3582 20.1541 21.1387 19.5833 21.5925 18.8582C22.0845 18.072 22.1412 17.1747 21.7074 16.3425Z" fill="black"/>
</svg>
