<svg width="24" height="24" viewBox="0 0 24 24" fill="none" xmlns="http://www.w3.org/2000/svg">
<path fill-rule="evenodd" clip-rule="evenodd" d="M4 12C4 7.58172 7.58172 4 12 4C16.4183 4 20 7.58172 20 12C20 16.4183 16.4183 20 12 20C7.58172 20 4 16.4183 4 12ZM12 2C6.47715 2 2 6.47715 2 12C2 17.5228 6.47715 22 12 22C17.5228 22 22 17.5228 22 12C22 6.47715 17.5228 2 12 2ZM17.89 13.1437C17.9953 12.6015 17.6411 12.0767 17.0989 11.9714C16.5568 11.8661 16.0319 12.2203 15.9267 12.7625C15.7513 13.6657 15.2699 14.4808 14.5637 15.0705C13.8574 15.6602 12.9694 15.9883 12.0494 15.9997C11.1294 16.0111 10.2336 15.7049 9.51303 15.1329C8.79241 14.5608 8.29103 13.7579 8.09338 12.8593C7.97474 12.3199 7.44131 11.9788 6.90191 12.0974C6.36252 12.2161 6.02143 12.7495 6.14007 13.2889C6.43654 14.6368 7.18861 15.8413 8.26954 16.6993C9.35046 17.5574 10.6942 18.0166 12.0742 17.9996C13.4542 17.9825 14.7861 17.4902 15.8455 16.6057C16.9049 15.7212 17.6269 14.4985 17.89 13.1437ZM10.5 9.5C10.5 10.3284 9.82843 11 9 11C8.17157 11 7.5 10.3284 7.5 9.5C7.5 8.67157 8.17157 8 9 8C9.82843 8 10.5 8.67157 10.5 9.5ZM15 11C15.8284 11 16.5 10.3284 16.5 9.5C16.5 8.67157 15.8284 8 15 8C14.1716 8 13.5 8.67157 13.5 9.5C13.5 10.3284 14.1716 11 15 11Z" fill="black"/>
</svg>
