<svg width="24" height="24" viewBox="0 0 24 24" fill="none" xmlns="http://www.w3.org/2000/svg">
<path fill-rule="evenodd" clip-rule="evenodd" d="M17.9185 3.14928C19.2495 2.29363 21 3.24931 21 4.83164V19.1683C21 20.7506 19.2495 21.7063 17.9185 20.8507L6.76774 13.6823C6.40348 13.4482 6.14757 13.1253 6 12.7664L6 20C6 20.5523 5.55228 21 5 21C4.44772 21 4 20.5523 4 20V12.2432V3.99997C4 3.44769 4.44772 2.99997 5 2.99997C5.55229 2.99997 6 3.44769 6 3.99997L6 11.2335C6.14757 10.8747 6.40348 10.5518 6.76774 10.3176L17.9185 3.14928ZM19 4.83164L7.84926 12L19 19.1683V4.83164Z" fill="black"/>
</svg>
