<svg width="24" height="24" viewBox="0 0 24 24" fill="none" xmlns="http://www.w3.org/2000/svg">
<path fill-rule="evenodd" clip-rule="evenodd" d="M11.6396 1C10.2096 1 8.97832 2.00938 8.69787 3.41165L8.68366 3.48267C8.66961 3.55293 8.60446 3.66106 8.447 3.72878C8.41899 3.74083 8.39106 3.75301 8.3632 3.76533C8.25186 3.81457 8.178 3.78635 8.15616 3.77123C6.9641 2.94595 5.35241 3.09128 4.32721 4.11648L4.11645 4.32724C3.09124 5.35245 2.94592 6.96413 3.77119 8.15619C3.78632 8.17804 3.81454 8.25192 3.7653 8.36327C3.75299 8.39111 3.74081 8.41903 3.72877 8.44703C3.66106 8.60447 3.55294 8.66961 3.4827 8.68366L3.41165 8.69787C2.00938 8.97832 1 10.2096 1 11.6396V12.3604C1 13.7904 2.00938 15.0217 3.41165 15.3021L3.4827 15.3163C3.55295 15.3304 3.66106 15.3955 3.72877 15.553C3.74081 15.581 3.75299 15.6089 3.76531 15.6368C3.81454 15.7481 3.78632 15.8219 3.77121 15.8438C2.94593 17.0358 3.09126 18.6475 4.11647 19.6727L4.32722 19.8835L5.03433 19.1764L4.32722 19.8835C5.35243 20.9087 6.96411 21.054 8.15617 20.2287L7.58696 19.4065L8.15617 20.2287C8.17799 20.2136 8.25182 20.1854 8.36312 20.2346C8.391 20.247 8.41896 20.2592 8.44699 20.2712C8.60446 20.3389 8.66961 20.4471 8.68366 20.5173L8.69787 20.5883C8.97832 21.9906 10.2096 23 11.6396 23H12.3604C13.7904 23 15.0217 21.9906 15.3021 20.5883L15.3163 20.5173C15.3304 20.4471 15.3955 20.3389 15.553 20.2712C15.5809 20.2592 15.6088 20.247 15.6367 20.2347C15.748 20.1855 15.822 20.2137 15.8438 20.2288C17.0359 21.0541 18.6476 20.9088 19.6728 19.8836L19.8836 19.6728C20.9088 18.6476 21.0541 17.0359 20.2288 15.8439C20.2137 15.822 20.1854 15.7481 20.2347 15.6367C20.247 15.6089 20.2592 15.581 20.2712 15.553C20.3389 15.3955 20.4471 15.3304 20.5173 15.3163L20.5883 15.3021C21.9906 15.0217 23 13.7904 23 12.3604V11.6396C23 10.2096 21.9906 8.97832 20.5883 8.69787L20.5173 8.68366C20.4471 8.66961 20.3389 8.60446 20.2712 8.447C20.2592 8.41903 20.247 8.39113 20.2347 8.3633C20.1854 8.2519 20.2137 8.17796 20.2288 8.15608C21.0541 6.96401 20.9088 5.35233 19.8836 4.32713L19.6728 4.11637C18.6476 3.09116 17.0359 2.94584 15.8439 3.77111C15.822 3.78627 15.748 3.8145 15.6366 3.76523C15.6088 3.75294 15.5809 3.74078 15.553 3.72876C15.3955 3.66106 15.3304 3.55295 15.3163 3.48271L15.3021 3.41165C15.0217 2.00938 13.7904 1 12.3604 1H11.6396ZM10.659 3.80389C10.7525 3.33646 11.1629 3 11.6396 3H12.3604C12.8371 3 13.2475 3.33646 13.341 3.80388L13.3552 3.87494C13.5172 4.68484 14.0957 5.27916 14.7628 5.56606C14.7845 5.57539 14.8062 5.58483 14.8277 5.59438C15.4867 5.88575 16.3116 5.87978 16.9823 5.41549C17.3796 5.1404 17.9169 5.18884 18.2586 5.53058L18.4694 5.74133C18.8111 6.08307 18.8595 6.6203 18.5844 7.01766C18.1202 7.68828 18.1142 8.51325 18.4056 9.17216C18.4151 9.19377 18.4246 9.21544 18.4339 9.23716C18.7208 9.90429 19.3152 10.4828 20.1251 10.6448L20.1961 10.659C20.6635 10.7525 21 11.1629 21 11.6396V12.3604C21 12.8371 20.6635 13.2475 20.1961 13.341L20.1251 13.3552C19.3152 13.5172 18.7208 14.0957 18.4339 14.7628C18.4246 14.7846 18.4151 14.8062 18.4056 14.8279C18.1142 15.4868 18.1202 16.3117 18.5844 16.9823C18.8595 17.3797 18.8111 17.9169 18.4693 18.2586L18.2586 18.4694C17.9169 18.8111 17.3796 18.8596 16.9823 18.5845L16.4131 19.4067L16.9823 18.5845C16.3117 18.1202 15.4867 18.1142 14.8278 18.4056C14.8062 18.4151 14.7845 18.4246 14.7628 18.4339C14.0957 18.7208 13.5172 19.3152 13.3552 20.1251L13.341 20.1961C13.2475 20.6635 12.8371 21 12.3604 21H11.6396C11.1629 21 10.7525 20.6635 10.659 20.1961L10.6448 20.1251C10.4828 19.3152 9.90428 18.7208 9.23715 18.4339C9.21539 18.4246 9.19367 18.4151 9.17202 18.4055C8.51318 18.1142 7.6883 18.1201 7.01775 18.5843C6.6204 18.8594 6.08317 18.811 5.74144 18.4693L5.53068 18.2585L4.82357 18.9656L5.53068 18.2585C5.18894 17.9168 5.1405 17.3795 5.41559 16.9822C5.87983 16.3116 5.8858 15.4867 5.59444 14.8279C5.58488 14.8063 5.57542 14.7846 5.56606 14.7628C5.27916 14.0957 4.68484 13.5172 3.87494 13.3552L3.80389 13.341C3.33646 13.2475 3 12.8371 3 12.3604V11.6396C3 11.1629 3.33646 10.7525 3.80388 10.659L3.87493 10.6448C4.68483 10.4828 5.27916 9.9043 5.56607 9.23718C5.57542 9.21544 5.58487 9.19376 5.59443 9.17213C5.88579 8.51326 5.87982 7.68835 5.41558 7.01777C5.14049 6.62042 5.18893 6.08319 5.53066 5.74146L5.74142 5.5307C6.08316 5.18896 6.62039 5.14052 7.01774 5.41561C7.68831 5.87985 8.51322 5.88582 9.17208 5.59446C9.19372 5.58489 9.21541 5.57543 9.23716 5.56607C9.90429 5.27917 10.4828 4.68483 10.6448 3.87491L10.659 3.80389ZM15 12C15 13.6569 13.6569 15 12 15C10.3431 15 9 13.6569 9 12C9 10.3431 10.3431 9 12 9C13.6569 9 15 10.3431 15 12ZM17 12C17 14.7614 14.7614 17 12 17C9.23858 17 7 14.7614 7 12C7 9.23858 9.23858 7 12 7C14.7614 7 17 9.23858 17 12Z" fill="black"/>
</svg>
