<svg width="24" height="24" viewBox="0 0 24 24" fill="none" xmlns="http://www.w3.org/2000/svg">
<path fill-rule="evenodd" clip-rule="evenodd" d="M14.4142 1.99985C13.6331 1.2188 12.3668 1.2188 11.5858 1.99985L7.99997 5.58564C7.21892 6.36668 7.21892 7.63301 7.99997 8.41406L10.5857 10.9998H9C8.44772 10.9998 8 11.4475 8 11.9998C8 12.5521 8.44772 12.9998 9 12.9998H15C15.5523 12.9998 16 12.5521 16 11.9998C16 11.4475 15.5523 10.9998 15 10.9998H13.4142L17 7.41406C17.781 6.63301 17.781 5.36669 17 4.58564L14.4142 1.99985ZM9.41418 6.99985L13 3.41406L15.5858 5.99985L12 9.58564L9.41418 6.99985ZM6.92848 10.8712C7.13359 10.3584 6.88417 9.77648 6.37139 9.57136C5.85861 9.36625 5.27664 9.61566 5.07152 10.1284L3.21457 14.7708C3.07283 15.1252 3 15.5033 3 15.885V19.4998C3 21.1567 4.34315 22.4998 6 22.4998H18C19.6569 22.4998 21 21.1567 21 19.4998V15.885C21 15.5033 20.9272 15.1252 20.7854 14.7708L18.9285 10.1284C18.7234 9.61566 18.1414 9.36625 17.6286 9.57136C17.1158 9.77648 16.8664 10.3584 17.0715 10.8712L18.523 14.4998H5.47704L6.92848 10.8712ZM5 16.4998V19.4998C5 20.0521 5.44772 20.4998 6 20.4998H18C18.5523 20.4998 19 20.0521 19 19.4998V16.4998H5Z" fill="black"/>
</svg>
