<svg width="24" height="24" viewBox="0 0 24 24" fill="none" xmlns="http://www.w3.org/2000/svg">
<path fill-rule="evenodd" clip-rule="evenodd" d="M19.9381 13C19.446 16.9463 16.0796 20 12 20C7.92038 20 4.55399 16.9463 4.0619 13H7.04006L9.74074 16.1508C9.96555 16.4131 10.3098 16.5408 10.6513 16.4885C10.9928 16.4362 11.2831 16.2114 11.4191 15.8939L13.7863 10.3706L15.7407 12.6508C15.9307 12.8724 16.2081 13 16.5 13H19.9381ZM19.9381 11H16.9599L14.2593 7.84921C14.0344 7.58693 13.6902 7.45925 13.3487 7.51151C13.0072 7.56377 12.7169 7.78857 12.5809 8.10608L10.2137 13.6294L8.25926 11.3492C8.06927 11.1276 7.79192 11 7.5 11H4.06189C4.55399 7.05369 7.92038 4 12 4C16.0796 4 19.446 7.05369 19.9381 11ZM12 22C17.5228 22 22 17.5228 22 12C22 6.47715 17.5228 2 12 2C6.47715 2 2 6.47715 2 12C2 17.5228 6.47715 22 12 22Z" fill="black"/>
</svg>
