<svg width="24" height="24" viewBox="0 0 24 24" fill="none" xmlns="http://www.w3.org/2000/svg">
<path fill-rule="evenodd" clip-rule="evenodd" d="M12.0427 2.00009C10.098 1.9918 8.19308 2.55071 6.56116 3.60842C4.92924 4.66612 3.64114 6.17671 2.85455 7.95525C2.06796 9.73378 1.81702 11.7031 2.13246 13.622C2.4479 15.541 3.31603 17.3263 4.63055 18.7595C5.00387 19.1665 5.63644 19.1938 6.04345 18.8205C6.45046 18.4472 6.47777 17.8146 6.10445 17.4076C5.05283 16.2611 4.35833 14.8328 4.10598 13.2976C3.85363 11.7625 4.05438 10.187 4.68365 8.7642C5.31292 7.34137 6.3434 6.1329 7.64894 5.28673C8.95447 4.44057 10.4784 3.99344 12.0342 4.00007C13.5899 4.00671 15.11 4.46683 16.4083 5.3241C17.7065 6.18137 18.7267 7.39859 19.3438 8.82674C19.9609 10.2549 20.1482 11.832 19.8827 13.3649C19.6173 14.8979 18.9106 16.3202 17.8493 17.4577C17.4725 17.8615 17.4944 18.4943 17.8982 18.8711C18.302 19.2478 18.9348 19.2259 19.3116 18.8221C20.6383 17.4002 21.5216 15.6224 21.8534 13.7062C22.1852 11.79 21.9511 9.8186 21.1797 8.03342C20.4083 6.24824 19.1331 4.72671 17.5103 3.65513C15.8875 2.58354 13.9874 2.00839 12.0427 2.00009ZM12.1246 6.00129C11.2736 5.98363 10.4286 6.14722 9.64568 6.48121C8.86278 6.8152 8.1599 7.31194 7.58372 7.93844C7.00755 8.56495 6.57126 9.30687 6.30385 10.1149C6.03643 10.923 5.944 11.7787 6.0327 12.6252C6.09025 13.1745 6.58218 13.5732 7.13146 13.5156C7.68074 13.458 8.07936 12.9661 8.02181 12.4168C7.96268 11.8525 8.0243 11.282 8.20257 10.7433C8.38085 10.2046 8.67171 9.70996 9.05583 9.2923C9.43994 8.87463 9.90853 8.54347 10.4305 8.32081C10.9524 8.09815 11.5157 7.98908 12.0831 8.00086C12.6504 8.01264 13.2087 8.14499 13.7209 8.38912C14.2332 8.63325 14.6876 8.98358 15.0541 9.41683C15.4205 9.85008 15.6906 10.3563 15.8464 10.902C16.0021 11.4476 16.04 12.0202 15.9575 12.5816C15.8772 13.128 16.2551 13.6361 16.8015 13.7164C17.3479 13.7967 17.856 13.4188 17.9363 12.8724C18.06 12.0303 18.0032 11.1714 17.7695 10.353C17.5359 9.53451 17.1308 8.77512 16.5811 8.12524C16.0314 7.47536 15.3498 6.94988 14.5814 6.58368C13.813 6.21748 12.9756 6.01896 12.1246 6.00129ZM11.996 13.4924C11.4264 13.4945 10.9663 13.958 10.9684 14.5277C10.9705 15.0973 11.434 15.5574 12.0036 15.5553C12.5733 15.5532 13.0334 15.0897 13.0313 14.5201C13.0292 13.9504 12.5657 13.4903 11.996 13.4924ZM8.9684 14.5351C8.9622 12.8609 10.3144 11.4986 11.9886 11.4924C13.6628 11.4863 15.0251 12.8385 15.0313 14.5127C15.0342 15.3048 14.7331 16.027 14.2376 16.5689C14.6281 16.798 14.9597 17.085 15.2367 17.408C15.9076 18.1904 16.2101 19.1258 16.3518 19.7994C16.6222 21.0843 15.5485 21.9959 14.4928 21.9959L9.50812 21.9959C8.45243 21.9959 7.37875 21.0843 7.64914 19.7994C7.79089 19.1258 8.09335 18.1904 8.76425 17.408C9.04101 17.0852 9.37237 16.7985 9.76246 16.5694C9.27176 16.033 8.9713 15.3194 8.9684 14.5351ZM13.7184 18.7098C14.0317 19.0752 14.2273 19.5465 14.3441 19.9959L9.65683 19.9959C9.77363 19.5465 9.96927 19.0752 10.2826 18.7098C10.6139 18.3234 11.1196 18 12.0005 18C12.8814 18 13.3871 18.3234 13.7184 18.7098Z" fill="black"/>
</svg>
