<svg width="24" height="24" viewBox="0 0 24 24" fill="none" xmlns="http://www.w3.org/2000/svg">
<path fill-rule="evenodd" clip-rule="evenodd" d="M12 2C9.07295 2 6.59964 3.93386 5.78453 6.59295C3.55185 7.62098 2 9.87815 2 12.5C2 16.0899 4.91015 19 8.5 19C9.38541 19 10.2302 18.8226 11.0001 18.5015V22C11.0001 22.5523 11.4478 23 12.0001 23C12.5524 23 13.0001 22.5523 13.0001 22V18.5016C13.7699 18.8226 14.6147 19 15.5 19C19.0899 19 22 16.0899 22 12.5C22 9.87815 20.4482 7.62098 18.2155 6.59296C17.4004 3.93387 14.9271 2 12 2ZM13.0001 16.2424C13.7151 16.7212 14.574 17 15.5 17C17.9853 17 20 14.9853 20 12.5C20 10.5549 18.7655 8.89569 17.034 8.26793C16.7108 8.15077 16.4705 7.87585 16.3976 7.53995C15.9582 5.51569 14.1549 4 12 4C9.84508 4 8.04183 5.51569 7.60242 7.53995C7.5295 7.87585 7.28918 8.15077 6.96603 8.26793C5.23455 8.89569 4 10.5549 4 12.5C4 14.9853 6.01472 17 8.5 17C9.42606 17 10.2851 16.7212 11.0001 16.2423V12.5352L8.44541 10.8321C7.98588 10.5257 7.8617 9.90483 8.16806 9.4453C8.47441 8.98577 9.09528 8.8616 9.55481 9.16795L11.0001 10.1315V7.5C11.0001 6.94772 11.4478 6.5 12.0001 6.5C12.5524 6.5 13.0001 6.94772 13.0001 7.5V12.7962L15.3416 10.7474C15.7572 10.3837 16.389 10.4259 16.7527 10.8415C17.1164 11.2571 17.0742 11.8889 16.6586 12.2526L13.0001 15.4538V16.2424Z" fill="black"/>
</svg>
