<svg width="24" height="24" viewBox="0 0 24 24" fill="none" xmlns="http://www.w3.org/2000/svg">
<path fill-rule="evenodd" clip-rule="evenodd" d="M12 4C9.23858 4 7 6.23858 7 9V10V12V16C7 16.5523 6.55228 17 6 17H4C2.34315 17 1 15.6569 1 14V12C1 10.3431 2.34315 9 4 9H5C5 5.13401 8.13401 2 12 2C15.866 2 19 5.13401 19 9L20 9C21.6569 9 23 10.3431 23 12V14C23 15.6569 21.6569 17 20 17H19C19 19.0966 17.3869 20.8165 15.3341 20.9862C14.9262 22.1586 13.8114 23 12.5 23H11.5C9.84315 23 8.5 21.6569 8.5 20C8.5 18.3431 9.84315 17 11.5 17H12.5C13.7967 17 14.9012 17.8227 15.3202 18.9745C16.2725 18.8213 17 17.9956 17 17V16V12V10V9C17 6.23858 14.7614 4 12 4ZM20 15H19V12V11H20C20.5523 11 21 11.4477 21 12V14C21 14.5523 20.5523 15 20 15ZM4 11H5V12V15H4C3.44772 15 3 14.5523 3 14V12C3 11.4477 3.44772 11 4 11ZM11.5 21C10.9477 21 10.5 20.5523 10.5 20C10.5 19.4477 10.9477 19 11.5 19H12.5C13.0523 19 13.5 19.4477 13.5 20C13.5 20.5523 13.0523 21 12.5 21H11.5Z" fill="black"/>
</svg>
