<svg width="24" height="24" viewBox="0 0 24 24" fill="none" xmlns="http://www.w3.org/2000/svg">
<path fill-rule="evenodd" clip-rule="evenodd" d="M2.94182 6.01129C3.71744 6.05098 4.46577 6.19473 5.17307 6.42891C2.73255 7.36489 1 9.73012 1 12.5C1 13.8026 1.38418 15.0184 2.04572 16.0368C2.24375 16.3417 2.59163 16.5151 2.95428 16.4897C3.31692 16.4642 3.6372 16.244 3.79075 15.9145C5.07764 13.1528 7.80258 11.1999 11 11.0145V11.6803V22C11 22.5523 11.4477 23 12 23C12.5523 23 13 22.5523 13 22V11.6774V11.0147C16.1972 11.2014 18.9215 13.1552 20.2074 15.9176C20.3608 16.2471 20.6809 16.4675 21.0434 16.4931C21.406 16.5187 21.7539 16.3456 21.9522 16.041C22.6154 15.0217 23.0006 13.8043 23.0006 12.5C23.0006 9.72992 21.2678 7.36456 18.827 6.42871C19.535 6.19437 20.2841 6.05062 21.0605 6.01115C21.4292 5.9924 21.7576 5.772 21.9147 5.43786C22.0717 5.10373 22.0319 4.71023 21.8111 4.41434C20.7189 2.95079 18.9703 2 17 2C14.9139 2 13.0765 3.06461 12.0014 4.68016C10.9263 3.06461 9.08881 2 7.00272 2C5.0323 2 3.28371 2.95087 2.19148 4.41453C1.97071 4.71038 1.93088 5.1038 2.08787 5.43789C2.24487 5.77199 2.57316 5.99242 2.94182 6.01129ZM15.1438 6.14183C16.1918 5.34365 17.3945 4.73794 18.6995 4.3777C18.1836 4.13525 17.6076 4 17 4C15.1605 4 13.6109 5.24176 13.1439 6.93278C13.7524 6.56509 14.4262 6.29424 15.1438 6.14183ZM5.30204 4.37827C6.60603 4.73853 7.80792 5.3439 8.85521 6.1415C9.57445 6.29407 10.2496 6.56559 10.8592 6.93433C10.3927 5.24252 8.84283 4 7.00272 4C6.39465 4 5.81827 4.13546 5.30204 4.37827ZM3 12.5C3 10.0147 5.01472 8 7.5 8C8.60335 8 9.61468 8.39703 10.3981 9.05713C7.39468 9.37037 4.76875 10.9497 3.06208 13.2501C3.02125 13.0063 3 12.7558 3 12.5ZM20.9378 13.2544C19.2318 10.9525 16.6059 9.37178 13.6021 9.05749C14.3855 8.39717 15.397 8 16.5006 8C18.9859 8 21.0006 10.0147 21.0006 12.5C21.0006 12.7573 20.9791 13.0093 20.9378 13.2544Z" fill="black"/>
</svg>
