<svg width="24" height="24" viewBox="0 0 24 24" fill="none" xmlns="http://www.w3.org/2000/svg">
<path fill-rule="evenodd" clip-rule="evenodd" d="M8.8 21C10.015 21 11 20.015 11 18.8V13H13V15.3C13 16.515 13.985 17.5 15.2 17.5H18.3C19.515 17.5 20.5 16.515 20.5 15.3V13H21.5C22.0523 13 22.5 12.5523 22.5 12C22.5 11.4477 22.0523 11 21.5 11H20.5V8.7C20.5 7.48497 19.515 6.5 18.3 6.5L15.2 6.5C13.985 6.5 13 7.48497 13 8.7V11H11V5.2C11 3.98497 10.015 3 8.8 3H5.7C4.48497 3 3.5 3.98497 3.5 5.2L3.5 11H2.5C1.94772 11 1.5 11.4477 1.5 12C1.5 12.5523 1.94772 13 2.5 13H3.5L3.5 18.8C3.5 20.015 4.48497 21 5.7 21H8.8ZM9 18.8C9 18.9105 8.91046 19 8.8 19H5.7C5.58954 19 5.5 18.9105 5.5 18.8L5.5 5.2C5.5 5.08954 5.58954 5 5.7 5L8.8 5C8.91046 5 9 5.08954 9 5.2L9 18.8ZM18.3 15.5C18.4105 15.5 18.5 15.4105 18.5 15.3V8.7C18.5 8.58954 18.4105 8.5 18.3 8.5H15.2C15.0895 8.5 15 8.58954 15 8.7V15.3C15 15.4105 15.0895 15.5 15.2 15.5H18.3Z" fill="black"/>
</svg>
