<svg width="24" height="24" viewBox="0 0 24 24" fill="none" xmlns="http://www.w3.org/2000/svg">
<path fill-rule="evenodd" clip-rule="evenodd" d="M16.5 5C16.5 3.34315 15.1569 2 13.5 2H10.5C8.84315 2 7.5 3.34315 7.5 5V6H6.5H4.5C2.84315 6 1.5 7.34314 1.5 9V18.5C1.5 20.1569 2.84315 21.5 4.5 21.5H19.5C21.1569 21.5 22.5 20.1569 22.5 18.5V9C22.5 7.34315 21.1569 6 19.5 6H17.5H16.5V5ZM14.5 6V5C14.5 4.44772 14.0523 4 13.5 4H10.5C9.94771 4 9.5 4.44772 9.5 5V6H14.5ZM8.50099 8H15.5H16.5V19.5H7.5V8H8.49901C8.49934 8 8.49967 8 8.5 8C8.50033 8 8.50066 8 8.50099 8ZM18.5 8V19.5H19.5C20.0523 19.5 20.5 19.0523 20.5 18.5V9C20.5 8.44772 20.0523 8 19.5 8H18.5ZM5.5 8H4.5C3.94772 8 3.5 8.44771 3.5 9V18.5C3.5 19.0523 3.94772 19.5 4.5 19.5H5.5V8Z" fill="black"/>
</svg>
