<svg width="24" height="24" viewBox="0 0 24 24" fill="none" xmlns="http://www.w3.org/2000/svg">
<path fill-rule="evenodd" clip-rule="evenodd" d="M8 1C8.55229 1 9 1.44772 9 2V4H11V2C11 1.44772 11.4477 1 12 1C12.5523 1 13 1.44772 13 2V4H15V2C15 1.44772 15.4477 1 16 1C16.5523 1 17 1.44772 17 2V4.12602C18.4056 4.4878 19.5122 5.59439 19.874 7H22C22.5523 7 23 7.44772 23 8C23 8.55228 22.5523 9 22 9H20V11H22C22.5523 11 23 11.4477 23 12C23 12.5523 22.5523 13 22 13H20V15H22C22.5523 15 23 15.4477 23 16C23 16.5523 22.5523 17 22 17H19.874C19.5122 18.4056 18.4056 19.5122 17 19.874V22C17 22.5523 16.5523 23 16 23C15.4477 23 15 22.5523 15 22V20H13V22C13 22.5523 12.5523 23 12 23C11.4477 23 11 22.5523 11 22V20H9V22C9 22.5523 8.55229 23 8 23C7.44772 23 7 22.5523 7 22V19.874C5.59439 19.5122 4.4878 18.4056 4.12602 17H2C1.44772 17 1 16.5523 1 16C1 15.4477 1.44772 15 2 15H4V13H2C1.44772 13 1 12.5523 1 12C1 11.4477 1.44772 11 2 11H4V9H2C1.44772 9 1 8.55228 1 8C1 7.44771 1.44772 7 2 7H4.12602C4.4878 5.59439 5.59439 4.4878 7 4.12602V2C7 1.44772 7.44772 1 8 1ZM18 16V12V8C18 6.89543 17.1046 6 16 6H12H8C6.89543 6 6 6.89543 6 8V12V16C6 17.1046 6.89543 18 8 18H12H16C17.1046 18 18 17.1046 18 16ZM10.75 8.5C9.50736 8.5 8.5 9.50736 8.5 10.75V13.25C8.5 14.4926 9.50736 15.5 10.75 15.5H13.25C14.4926 15.5 15.5 14.4926 15.5 13.25V10.75C15.5 9.50736 14.4926 8.5 13.25 8.5H10.75ZM10.5 10.75C10.5 10.6119 10.6119 10.5 10.75 10.5H13.25C13.3881 10.5 13.5 10.6119 13.5 10.75V13.25C13.5 13.3881 13.3881 13.5 13.25 13.5H10.75C10.6119 13.5 10.5 13.3881 10.5 13.25V10.75Z" fill="black"/>
</svg>
