<svg width="24" height="24" viewBox="0 0 24 24" fill="none" xmlns="http://www.w3.org/2000/svg">
<path fill-rule="evenodd" clip-rule="evenodd" d="M6.5 7C5.67157 7 5 6.32843 5 5.5C5 4.67157 5.67157 4 6.5 4C7.32843 4 8 4.67157 8 5.5C8 6.32843 7.32843 7 6.5 7ZM10 5.5C10 7.0368 9.00953 8.34226 7.63212 8.81285C7.75018 9.26734 7.97021 9.84554 8.37852 10.422C9.15987 11.5251 10.7561 12.796 14.1516 12.9779C14.5889 11.5435 15.9226 10.5 17.5 10.5C19.433 10.5 21 12.067 21 14C21 15.933 19.433 17.5 17.5 17.5C15.9071 17.5 14.5627 16.4358 14.1389 14.9796C10.8846 14.8225 8.80408 13.774 7.5 12.4705V15.1449C8.94574 15.5752 10 16.9145 10 18.5C10 20.433 8.433 22 6.5 22C4.567 22 3 20.433 3 18.5C3 16.9145 4.05426 15.5752 5.5 15.1449V8.85506C4.05426 8.42479 3 7.08551 3 5.5C3 3.567 4.567 2 6.5 2C8.433 2 10 3.567 10 5.5ZM6.5 17C5.67157 17 5 17.6716 5 18.5C5 19.3284 5.67157 20 6.5 20C7.32843 20 8 19.3284 8 18.5C8 17.6716 7.32843 17 6.5 17ZM16 14C16 14.8284 16.6716 15.5 17.5 15.5C18.3284 15.5 19 14.8284 19 14C19 13.1716 18.3284 12.5 17.5 12.5C16.6716 12.5 16 13.1716 16 14Z" fill="black"/>
</svg>
