<svg width="24" height="24" viewBox="0 0 24 24" fill="none" xmlns="http://www.w3.org/2000/svg">
<path fill-rule="evenodd" clip-rule="evenodd" d="M16 7.00005C16 5.13642 14.7249 3.56962 13 3.12587V10.874C14.7252 10.43 16 8.86389 16 7.00005ZM16.4722 11.0001H21.5C22.2989 11.0001 23.0627 11.6686 22.9706 12.598C22.6698 15.6315 20.1121 18.0001 17 18.0001C15.4631 18.0001 14.0614 17.4224 13 16.4722V21.5001C13 22.2989 12.3314 23.0627 11.402 22.9706C8.36857 22.6698 6 20.1122 6 17.0001C6 15.4632 6.57767 14.0615 7.52781 13.0001H2.50005C1.70123 13.0001 0.937401 12.3315 1.02955 11.4021C1.3303 8.36864 3.88795 6.00006 7.00005 6.00006C8.53693 6.00006 9.93859 6.57771 11 7.52781L11 2.50005C11 1.70123 11.6686 0.937401 12.598 1.02955C15.6314 1.3303 18 3.88795 18 7.00005C18 8.53676 17.4223 9.93855 16.4722 11.0001ZM3.12587 11.0001C3.56962 9.27517 5.13642 8.00006 7.00005 8.00006C8.86367 8.00006 10.4305 9.27517 10.8742 11.0001H3.12587ZM17 16.0001C15.1364 16.0001 13.5696 14.7249 13.1259 13.0001H20.8742C20.4305 14.7249 18.8637 16.0001 17 16.0001ZM8 17.0001C8 15.1365 9.27511 13.5697 11 13.1259V20.8743C9.27511 20.4305 8 18.8637 8 17.0001Z" fill="black"/>
</svg>
