<svg width="24" height="24" viewBox="0 0 24 24" fill="none" xmlns="http://www.w3.org/2000/svg">
<path fill-rule="evenodd" clip-rule="evenodd" d="M20 4C20 2.89543 19.1046 2 18 2H7C5.34315 2 4 3.34315 4 5V19C4 20.6569 5.34315 22 7 22H18.5C19.0523 22 19.5 21.5523 19.5 21C19.5 20.4477 19.0523 20 18.5 20H7C6.44772 20 6 19.5523 6 19C6 18.4477 6.44772 18 7 18H18C19.1046 18 20 17.1046 20 16L20 4ZM7 16C6.64936 16 6.31278 16.0602 6 16.1707L6 5C6 4.44772 6.44772 4 7 4L8.5 4V8.39872C8.5 9.88243 10.2305 10.693 11.3703 9.74311L12.5 8.80171L13.6297 9.74311C14.7695 10.693 16.5 9.88243 16.5 8.39872V4H18V16H7ZM14.5 4H10.5V7.86496L11.8598 6.73178C12.2307 6.42274 12.7693 6.42274 13.1402 6.73178L14.5 7.86496V4Z" fill="black"/>
</svg>
