<svg width="24" height="24" viewBox="0 0 24 24" fill="none" xmlns="http://www.w3.org/2000/svg">
<path fill-rule="evenodd" clip-rule="evenodd" d="M10.4657 2.27143C10.7516 1.2045 11.8482 0.571335 12.9152 0.857219L16.7789 1.8925C17.8458 2.17838 18.479 3.27505 18.1931 4.34198L17.4166 7.23975C18.4835 7.52564 19.1167 8.62231 18.8308 9.68924L17.7976 13.5452L17.7956 13.553L16.5033 18.3757L16.5015 18.3826L15.577 21.8329C15.4599 22.2701 15.0637 22.5741 14.6111 22.5741L4.25831 22.5741C3.94742 22.5741 3.65421 22.4295 3.46496 22.1829C3.2757 21.9362 3.21192 21.6156 3.29238 21.3153L4.90858 15.2836L4.91037 15.2768L6.20237 10.455L6.20444 10.4471L7.23972 6.58341C7.5256 5.51648 8.62228 4.88332 9.68921 5.1692L10.4657 2.27143ZM15.9331 8.9128L15.9371 8.91386L16.899 9.1716L16.1225 12.0694L14.6736 11.6812L14.9325 10.7152C15.0754 10.1818 14.7588 9.63343 14.2254 9.49049C13.6919 9.34755 13.1436 9.66413 13.0006 10.1976L12.7418 11.1635L11.7758 10.9047L12.0346 9.93878C12.1776 9.40531 11.861 8.85697 11.3275 8.71403C10.7941 8.57109 10.2457 8.88767 10.1028 9.42114L9.84397 10.387L8.39511 9.99883L9.17157 7.10105L10.1336 7.35883L10.1375 7.35988L13.0353 8.13633L15.9331 8.9128ZM12.587 5.94567L11.6211 5.68685L12.3975 2.78907L16.2612 3.82435L15.4848 6.72212L14.5189 6.46331L14.7777 5.49737C14.9206 4.9639 14.604 4.41557 14.0706 4.27262C13.5371 4.12968 12.9888 4.44627 12.8458 4.97973L12.587 5.94567ZM10.2936 12.5781L13.1901 13.3542L15.6049 14.0013L14.8285 16.899L13.3796 16.5108L13.6384 15.5449C13.7813 15.0114 13.4648 14.4631 12.9313 14.3201C12.3978 14.1772 11.8495 14.4938 11.7065 15.0272L11.4477 15.9932L10.4817 15.7343L10.7406 14.7684C10.8835 14.2349 10.5669 13.6866 10.0335 13.5437C9.5 13.4007 8.95166 13.7173 8.80872 14.2508L8.54989 15.2167L7.10104 14.8285L7.8775 11.9307L10.2909 12.5774L10.2923 12.5777L10.2936 12.5781ZM11.896 18.1838L8.99942 17.4077L8.99819 17.4074L8.99696 17.407L6.58343 16.7603L5.56153 20.5741H13.8437L14.3108 18.8309L11.896 18.1838Z" fill="black"/>
</svg>
