<svg width="24" height="24" viewBox="0 0 24 24" fill="none" xmlns="http://www.w3.org/2000/svg">
<path fill-rule="evenodd" clip-rule="evenodd" d="M21 8C21 6.34315 19.6569 5 18 5H4C2.34315 5 1 6.34315 1 8V16C1 17.6569 2.34315 19 4 19H18C19.6569 19 21 17.6569 21 16C22.1046 16 23 15.1046 23 14V10C23 8.89543 22.1046 8 21 8ZM18 7C18.5523 7 19 7.44772 19 8V9C19 9.55228 19.4477 10 20 10H21V14H20C19.4477 14 19 14.4477 19 15V16C19 16.5523 18.5523 17 18 17H4C3.44772 17 3 16.5523 3 16V8C3 7.44772 3.44772 7 4 7H18ZM14.5 9H5V15H14.5V9Z" fill="black"/>
</svg>
