<svg width="24" height="24" viewBox="0 0 24 24" fill="none" xmlns="http://www.w3.org/2000/svg">
<path fill-rule="evenodd" clip-rule="evenodd" d="M2.77052 11.6971C3.28865 10.7415 4.3419 9.04124 5.91444 7.59106C7.48195 6.1455 9.50572 5 12 5C14.4943 5 16.518 6.1455 18.0855 7.59105C19.6581 9.04124 20.7113 10.7415 21.2295 11.6971C21.3341 11.8902 21.3341 12.1098 21.2295 12.3029C20.7113 13.2585 19.6581 14.9588 18.0855 16.4089C16.518 17.8545 14.4943 19 12 19C9.50572 19 7.48195 17.8545 5.91444 16.4089C4.3419 14.9588 3.28865 13.2585 2.77052 12.3029C2.66585 12.1098 2.66585 11.8902 2.77052 11.6971ZM12 3C8.84581 3 6.36059 4.45899 4.55857 6.1208C2.76159 7.77798 1.58478 9.688 1.01232 10.7438C0.585249 11.5315 0.58525 12.4685 1.01232 13.2562C1.58478 14.312 2.76159 16.222 4.55858 17.8792C6.36059 19.541 8.84581 21 12 21C15.1542 21 17.6394 19.541 19.4414 17.8792C21.2384 16.222 22.4152 14.312 22.9877 13.2562C23.4147 12.4685 23.4147 11.5315 22.9877 10.7438C22.4152 9.68799 21.2384 7.77798 19.4414 6.1208C17.6394 4.45899 15.1542 3 12 3ZM9.5 12C9.5 10.6193 10.6193 9.5 12 9.5C13.3807 9.5 14.5 10.6193 14.5 12C14.5 13.3807 13.3807 14.5 12 14.5C10.6193 14.5 9.5 13.3807 9.5 12ZM12 7.5C9.51472 7.5 7.5 9.51472 7.5 12C7.5 14.4853 9.51472 16.5 12 16.5C14.4853 16.5 16.5 14.4853 16.5 12C16.5 9.51472 14.4853 7.5 12 7.5Z" fill="black"/>
</svg>
