<svg width="24" height="24" viewBox="0 0 24 24" fill="none" xmlns="http://www.w3.org/2000/svg">
<path fill-rule="evenodd" clip-rule="evenodd" d="M22 4.5C22 5.05228 21.5523 5.5 21 5.5H3C2.44772 5.5 2 5.05228 2 4.5C2 3.94772 2.44772 3.5 3 3.5H21C21.5523 3.5 22 3.94772 22 4.5ZM22 9.5C22 10.0523 21.5523 10.5 21 10.5L11 10.5C10.4477 10.5 10 10.0523 10 9.5C10 8.94771 10.4477 8.5 11 8.5L21 8.5C21.5523 8.5 22 8.94772 22 9.5ZM21 15.5C21.5523 15.5 22 15.0523 22 14.5C22 13.9477 21.5523 13.5 21 13.5H11C10.4477 13.5 10 13.9477 10 14.5C10 15.0523 10.4477 15.5 11 15.5H21ZM7.70711 8.29289C7.31658 7.90237 6.68342 7.90237 6.29289 8.29289L3.29289 11.2929C2.90237 11.6834 2.90237 12.3166 3.29289 12.7071L6.29289 15.7071C6.68342 16.0976 7.31658 16.0976 7.70711 15.7071C8.09763 15.3166 8.09763 14.6834 7.70711 14.2929L5.41421 12L7.70711 9.70711C8.09763 9.31658 8.09763 8.68342 7.70711 8.29289ZM21 20.5C21.5523 20.5 22 20.0523 22 19.5C22 18.9477 21.5523 18.5 21 18.5L3 18.5C2.44772 18.5 2 18.9477 2 19.5C2 20.0523 2.44772 20.5 3 20.5H21Z" fill="black"/>
</svg>
