<svg width="24" height="24" viewBox="0 0 24 24" fill="none" xmlns="http://www.w3.org/2000/svg">
<path fill-rule="evenodd" clip-rule="evenodd" d="M10.2058 2.3908C10.9481 0.936302 13.0264 0.936301 13.7687 2.3908L16.0941 6.94744L21.1463 7.75095C22.759 8.00743 23.4012 9.98401 22.2472 11.1394L18.6322 14.7591L19.4293 19.8123C19.6837 21.4253 18.0023 22.6469 16.5468 21.9065L11.9872 19.587L7.42762 21.9065C5.97216 22.6469 4.29078 21.4253 4.5452 19.8123L5.34223 14.7591L1.72721 11.1394C0.573269 9.98401 1.2155 8.00743 2.82819 7.75095L7.88039 6.94744L10.2058 2.3908ZM14.3126 7.85656L11.9872 3.29993L9.66182 7.85656C9.37122 8.426 8.8259 8.8222 8.19453 8.92261L3.14233 9.72612L6.75735 13.3458C7.20912 13.7981 7.41741 14.4392 7.31781 15.0707L6.52078 20.1239L11.0804 17.8044C11.6502 17.5145 12.3243 17.5145 12.8941 17.8044L17.4537 20.1239L16.6566 15.0707C16.557 14.4392 16.7653 13.7981 17.2171 13.3458L20.8321 9.72612L15.7799 8.92261C15.1486 8.8222 14.6032 8.426 14.3126 7.85656Z" fill="black"/>
</svg>
