<svg width="24" height="24" viewBox="0 0 24 24" fill="none" xmlns="http://www.w3.org/2000/svg">
<path fill-rule="evenodd" clip-rule="evenodd" d="M10.3216 2.42969C10.0066 1.97606 9.38346 1.8637 8.92983 2.17872C8.4762 2.49374 8.36384 3.11685 8.67886 3.57048L10.7828 6.60009L2.26941 18.8593C1.34843 20.1855 2.29751 22.0001 3.91215 22.0001H7.98591C7.99478 22.0002 8.00365 22.0002 8.01251 22.0001H15.9877C15.9965 22.0002 16.0054 22.0002 16.0143 22.0001H20.0883C21.7029 22.0001 22.652 20.1855 21.731 18.8593L13.2177 6.60009L15.3216 3.57048C15.6366 3.11685 15.5243 2.49374 15.0706 2.17872C14.617 1.8637 13.9939 1.97606 13.6789 2.42969L12.0002 4.84692L10.3216 2.42969ZM16.5226 20.0001H20.0883L12.0002 8.35326L3.91215 20.0001H7.47757L11.1792 14.679C11.3661 14.4103 11.6727 14.2501 12.0001 14.2501C12.3274 14.2501 12.6341 14.4103 12.821 14.679L16.5226 20.0001ZM9.91391 20.0001H14.0863L12.0001 17.0012L9.91391 20.0001Z" fill="black"/>
</svg>
