<svg width="24" height="24" viewBox="0 0 24 24" fill="none" xmlns="http://www.w3.org/2000/svg">
<path fill-rule="evenodd" clip-rule="evenodd" d="M13.8067 4.59026C13.0816 3.07413 10.9233 3.07407 10.1981 4.59016L4.55091 16.3972C3.64103 18.2995 5.02775 20.4999 7.13647 20.4999C8.09507 20.4999 8.98697 20.1481 9.61507 19.5003C9.95287 19.1519 10.3225 18.7567 10.6982 18.332C9.83931 17.2384 9.03201 16.0252 8.57252 14.8693C8.03025 13.5052 8.16596 12.0652 8.79057 10.9486C9.41735 9.82808 10.566 8.99992 12.0018 8.99992C13.4375 8.99992 14.5863 9.82805 15.2131 10.9485C15.8378 12.0652 15.9735 13.5053 15.431 14.8694C14.9714 16.0253 14.164 17.2384 13.3052 18.332C13.681 18.7567 14.0506 19.1519 14.3884 19.5003C15.0166 20.1481 15.9085 20.4999 16.8671 20.4999C18.9759 20.4999 20.3628 18.2994 19.4529 16.3969L13.8067 4.59026ZM12.0017 19.8758C12.3415 20.2533 12.6652 20.5961 12.9526 20.8926C13.9957 21.9683 15.4249 22.4999 16.8671 22.4999C20.4474 22.4999 22.8019 18.764 21.2572 15.5341L15.611 3.7274C14.1608 0.695126 9.84417 0.695005 8.39389 3.7272L2.74666 15.5342C1.20187 18.764 3.55625 22.4999 7.13647 22.4999C8.57864 22.4999 10.0079 21.9683 11.051 20.8925C11.3384 20.5961 11.6619 20.2532 12.0017 19.8758ZM12.0017 16.747C12.6632 15.8707 13.2421 14.9614 13.5726 14.1304C13.8924 13.3262 13.7984 12.5162 13.4676 11.925C13.139 11.3376 12.6066 10.9999 12.0018 10.9999C11.397 10.9999 10.8646 11.3376 10.536 11.925C10.2053 12.5162 10.1113 13.3262 10.431 14.1305C10.7614 14.9615 11.3402 15.8707 12.0017 16.747Z" fill="black"/>
</svg>
