<svg width="24" height="24" viewBox="0 0 24 24" fill="none" xmlns="http://www.w3.org/2000/svg">
<path fill-rule="evenodd" clip-rule="evenodd" d="M2.5 6.5C2.5 4.29086 4.29086 2.5 6.5 2.5H17.5C19.7091 2.5 21.5 4.29086 21.5 6.5V17.5C21.5 19.7091 19.7091 21.5 17.5 21.5H6.5C4.29086 21.5 2.5 19.7091 2.5 17.5V6.5ZM6.5 4.5C5.39543 4.5 4.5 5.39543 4.5 6.5V17.5C4.5 18.6046 5.39543 19.5 6.5 19.5H17.5C18.6046 19.5 19.5 18.6046 19.5 17.5V6.5C19.5 5.39543 18.6046 4.5 17.5 4.5H6.5ZM16.5 16C16.5 16.8284 15.8284 17.5 15 17.5C14.1716 17.5 13.5 16.8284 13.5 16C13.5 15.1716 14.1716 14.5 15 14.5C15.8284 14.5 16.5 15.1716 16.5 16ZM9 17.5C9.82843 17.5 10.5 16.8284 10.5 16C10.5 15.1716 9.82843 14.5 9 14.5C8.17157 14.5 7.5 15.1716 7.5 16C7.5 16.8284 8.17157 17.5 9 17.5ZM10.5 8C10.5 8.82843 9.82843 9.5 9 9.5C8.17157 9.5 7.5 8.82843 7.5 8C7.5 7.17157 8.17157 6.5 9 6.5C9.82843 6.5 10.5 7.17157 10.5 8ZM9 13.5C9.82843 13.5 10.5 12.8284 10.5 12C10.5 11.1716 9.82843 10.5 9 10.5C8.17157 10.5 7.5 11.1716 7.5 12C7.5 12.8284 8.17157 13.5 9 13.5ZM16.5 8C16.5 8.82843 15.8284 9.5 15 9.5C14.1716 9.5 13.5 8.82843 13.5 8C13.5 7.17157 14.1716 6.5 15 6.5C15.8284 6.5 16.5 7.17157 16.5 8ZM15 13.5C15.8284 13.5 16.5 12.8284 16.5 12C16.5 11.1716 15.8284 10.5 15 10.5C14.1716 10.5 13.5 11.1716 13.5 12C13.5 12.8284 14.1716 13.5 15 13.5Z" fill="black"/>
</svg>
