<svg width="24" height="24" viewBox="0 0 24 24" fill="none" xmlns="http://www.w3.org/2000/svg">
<path fill-rule="evenodd" clip-rule="evenodd" d="M20.1213 2.70705C18.9498 1.53547 17.0503 1.53548 15.8787 2.70705L9.04094 9.5448C8.71981 9.86592 8.51754 10.2868 8.46739 10.7381L8.00612 14.8895C7.97258 15.1914 8.07809 15.4922 8.2929 15.707C8.50771 15.9219 8.80851 16.0274 9.11044 15.9938L13.2618 15.5326C13.7132 15.4824 14.134 15.2801 14.4552 14.959L21.2929 8.12126C22.4645 6.94969 22.4645 5.0502 21.2929 3.87862L20.1213 2.70705ZM17.2929 4.12126C17.6834 3.73074 18.3166 3.73074 18.7071 4.12126L19.8787 5.29284C20.2692 5.68336 20.2692 6.31653 19.8787 6.70705L19 7.58573L16.4142 4.99994L17.2929 4.12126ZM15 6.41416L17.5858 8.99994L13.0409 13.5448L10.1319 13.868L10.4552 10.959L15 6.41416ZM4 7C4 5.89543 4.89543 5 6 5H10.2014C10.7537 5 11.2014 4.55228 11.2014 4C11.2014 3.44772 10.7537 3 10.2014 3H6C3.79086 3 2 4.79086 2 7V18C2 20.2091 3.79086 22 6 22H17C19.2091 22 21 20.2091 21 18V13.9167C21 13.3644 20.5523 12.9167 20 12.9167C19.4477 12.9167 19 13.3644 19 13.9167V18C19 19.1046 18.1046 20 17 20H6C4.89543 20 4 19.1046 4 18V7Z" fill="black"/>
</svg>
