<svg width="24" height="24" viewBox="0 0 24 24" fill="none" xmlns="http://www.w3.org/2000/svg">
<path fill-rule="evenodd" clip-rule="evenodd" d="M11 2.5C11 1.94772 11.4477 1.5 12 1.5C12.5523 1.5 13 1.94772 13 2.5V3.5H15.3C16.515 3.5 17.5 4.48497 17.5 5.7V8.8C17.5 10.015 16.515 11 15.3 11H13V13H18.8C20.015 13 21 13.985 21 15.2V18.3C21 19.515 20.015 20.5 18.8 20.5H13V21.5C13 22.0523 12.5523 22.5 12 22.5C11.4477 22.5 11 22.0523 11 21.5V20.5H5.2C3.98497 20.5 3 19.515 3 18.3V15.2C3 13.985 3.98497 13 5.2 13H11V11H8.7C7.48497 11 6.5 10.015 6.5 8.8V5.7C6.5 4.48497 7.48497 3.5 8.7 3.5H11V2.5ZM18.8 15C18.9105 15 19 15.0895 19 15.2V18.3C19 18.4105 18.9105 18.5 18.8 18.5H5.2C5.08954 18.5 5 18.4105 5 18.3V15.2C5 15.0895 5.08954 15 5.2 15H18.8ZM15.5 5.7C15.5 5.58954 15.4105 5.5 15.3 5.5H8.7C8.58954 5.5 8.5 5.58954 8.5 5.7V8.8C8.5 8.91046 8.58954 9 8.7 9H15.3C15.4105 9 15.5 8.91046 15.5 8.8V5.7Z" fill="black"/>
</svg>
