<svg width="24" height="24" viewBox="0 0 24 24" fill="none" xmlns="http://www.w3.org/2000/svg">
<g clip-path="url(#clip0_1172_6620)">
<path fill-rule="evenodd" clip-rule="evenodd" d="M4.40181 9.44663C5.9027 3.84523 11.6602 0.521117 17.2616 2.02201C20.3251 2.84287 22.708 4.93841 23.9914 7.58157C24.1831 7.97633 24.095 8.44994 23.7742 8.74939C23.4534 9.04883 22.9748 9.10413 22.5942 8.88574C22.0433 8.56968 21.442 8.31852 20.7972 8.14573C20.1499 7.9723 19.5005 7.88904 18.8619 7.88807C19.9358 9.68067 20.3113 11.8909 19.7272 14.0707C19.7071 14.1459 19.6859 14.2206 19.6637 14.2948C19.6429 14.3812 19.6209 14.4674 19.5978 14.5537C18.0969 20.1551 12.3394 23.4792 6.73799 21.9783C3.67447 21.1574 1.29164 19.0619 0.0082348 16.4187C-0.183446 16.0239 -0.0953543 15.5503 0.225449 15.2509C0.546253 14.9515 1.0248 14.8962 1.40544 15.1145C1.95632 15.4306 2.55759 15.6818 3.20245 15.8546C3.84972 16.028 4.49908 16.1112 5.13767 16.1122C4.0638 14.3196 3.68833 12.1094 4.2724 9.92959C4.29256 9.85435 4.31374 9.77962 4.33592 9.70542C4.35675 9.61911 4.37871 9.53284 4.40181 9.44663ZM16.744 3.95386C12.2095 2.73885 7.54867 5.4298 6.33366 9.96426C6.31277 10.0422 6.29304 10.1202 6.27445 10.1982C6.2698 10.2177 6.26456 10.2371 6.25874 10.2563C6.23963 10.3194 6.22146 10.383 6.20425 10.4472C5.63485 12.5723 6.27987 14.7376 7.7188 16.2056C7.97267 16.4646 8.06641 16.8408 7.96377 17.1886C7.86113 17.5365 7.5782 17.8015 7.22438 17.8812C6.05359 18.1449 4.81905 18.1892 3.58041 17.9812C4.57909 18.9378 5.8256 19.6633 7.25562 20.0464C11.7901 21.2614 16.451 18.5705 17.666 14.036C17.6869 13.958 17.7066 13.88 17.7252 13.8021C17.7298 13.7825 17.7351 13.7632 17.7409 13.744C17.76 13.6809 17.7782 13.6172 17.7954 13.5531C18.3648 11.428 17.7197 9.26264 16.2808 7.79464C16.0269 7.53564 15.9332 7.15948 16.0358 6.81163C16.1385 6.46378 16.4214 6.19877 16.7752 6.11908C17.946 5.85538 19.1806 5.81109 20.4192 6.01906C19.4205 5.06245 18.174 4.33703 16.744 3.95386ZM14.0001 11.9997C14.0001 10.8952 13.1047 9.99974 12.0001 9.99974C10.8955 9.99974 10.0001 10.8952 10.0001 11.9997C10.0001 13.1043 10.8955 13.9997 12.0001 13.9997C13.1047 13.9997 14.0001 13.1043 14.0001 11.9997ZM12.0001 7.99974C14.2092 7.99974 16.0001 9.7906 16.0001 11.9997C16.0001 14.2089 14.2092 15.9997 12.0001 15.9997C9.79094 15.9997 8.00008 14.2089 8.00008 11.9997C8.00008 9.7906 9.79094 7.99974 12.0001 7.99974Z" fill="black"/>
</g>
<defs>
<clipPath id="clip0_1172_6620">
<rect width="24" height="24" fill="white"/>
</clipPath>
</defs>
</svg>
