<svg width="24" height="24" viewBox="0 0 24 24" fill="none" xmlns="http://www.w3.org/2000/svg">
<path fill-rule="evenodd" clip-rule="evenodd" d="M4 5C3.44772 5 3 5.44772 3 6V18C3 18.5523 3.44772 19 4 19H20C20.5523 19 21 18.5523 21 18V9C21 8.44772 20.5523 8 20 8H12.5352C11.8665 8 11.242 7.6658 10.8711 7.1094L9.46482 5H4ZM1 6C1 4.34315 2.34315 3 4 3H9.46482C10.1335 3 10.758 3.3342 11.1289 3.8906L12.5352 6H20C21.6569 6 23 7.34315 23 9V18C23 19.6569 21.6569 21 20 21H4C2.34315 21 1 19.6569 1 18V6ZM8 13.5C8 12.9477 8.44772 12.5 9 12.5H11V10.5C11 9.94772 11.4477 9.5 12 9.5C12.5523 9.5 13 9.94772 13 10.5V12.5H15C15.5523 12.5 16 12.9477 16 13.5C16 14.0523 15.5523 14.5 15 14.5H13V16.5C13 17.0523 12.5523 17.5 12 17.5C11.4477 17.5 11 17.0523 11 16.5V14.5H9C8.44772 14.5 8 14.0523 8 13.5Z" fill="black"/>
</svg>
