<svg width="24" height="24" viewBox="0 0 24 24" fill="none" xmlns="http://www.w3.org/2000/svg">
<path fill-rule="evenodd" clip-rule="evenodd" d="M4.99991 12.5C4.99991 13.0523 4.55219 13.5 3.99991 13.5C3.44762 13.5 2.99991 13.0523 2.99991 12.5V5C2.99991 3.34315 4.34305 2 5.99991 2H12.9999C13.2651 2 13.5195 2.10536 13.707 2.29289L20.707 9.29289C20.8946 9.48043 20.9999 9.73478 20.9999 10V12.5C20.9999 13.0523 20.5522 13.5 19.9999 13.5C19.4476 13.5 18.9999 13.0523 18.9999 12.5V11H14.9999C13.3431 11 11.9999 9.65685 11.9999 8V4H5.99991C5.44762 4 4.99991 4.44771 4.99991 5V12.5ZM14.9999 9H17.5857L13.9999 5.41421V8C13.9999 8.55228 14.4476 9 14.9999 9ZM10.7028 15.4377C10.3923 15.0495 9.82595 14.9866 9.43781 15.2971C9.04968 15.6076 8.98675 16.174 9.29726 16.5621L10.8475 18.4999L9.29726 20.4377C8.98675 20.8258 9.04968 21.3922 9.43781 21.7027C9.82595 22.0132 10.3923 21.9502 10.7028 21.5621L12 19.9406L13.2973 21.5621C13.6078 21.9502 14.1741 22.0132 14.5623 21.7027C14.9504 21.3922 15.0133 20.8258 14.7028 20.4377L13.1526 18.4999L14.7028 16.5621C15.0133 16.174 14.9504 15.6076 14.5623 15.2971C14.1741 14.9866 13.6078 15.0495 13.2973 15.4377L12 17.0592L10.7028 15.4377ZM15.6 15.9999C15.6 15.5028 16.0029 15.0999 16.5 15.0999H20.5C20.9971 15.0999 21.4 15.5028 21.4 15.9999C21.4 16.4969 20.9971 16.8999 20.5 16.8999H19.4V20.9999C19.4 21.4969 18.9971 21.8999 18.5 21.8999C18.0029 21.8999 17.6 21.4969 17.6 20.9999V16.8999H16.5C16.0029 16.8999 15.6 16.4969 15.6 15.9999ZM3.50001 15.0999C3.00295 15.0999 2.60001 15.5028 2.60001 15.9999C2.60001 16.4969 3.00295 16.8999 3.50001 16.8999H4.60001V20.9999C4.60001 21.4969 5.00295 21.8999 5.50001 21.8999C5.99706 21.8999 6.40001 21.4969 6.40001 20.9999V16.8999H7.50001C7.99706 16.8999 8.40001 16.4969 8.40001 15.9999C8.40001 15.5028 7.99706 15.0999 7.50001 15.0999H3.50001Z" fill="black"/>
</svg>
