<svg width="24" height="24" viewBox="0 0 24 24" fill="none" xmlns="http://www.w3.org/2000/svg">
<path fill-rule="evenodd" clip-rule="evenodd" d="M12 1C8.68629 1 6 3.68629 6 7V9.79032C6 10.2371 5.78966 10.6578 5.43226 10.9258L5.1027 11.173C3.77902 12.1657 3 13.7238 3 15.3784C3 16.8263 4.17374 18 5.62162 18H18.3784C19.8263 18 21 16.8263 21 15.3784C21 13.7238 20.221 12.1657 18.8973 11.173L18.5677 10.9258C18.2103 10.6578 18 10.2371 18 9.79032V7C18 3.68629 15.3137 1 12 1ZM8 7C8 4.79086 9.79086 3 12 3C14.2091 3 16 4.79086 16 7V9.79032C16 10.8666 16.5067 11.88 17.3677 12.5258L17.6973 12.773C18.5174 13.388 19 14.3533 19 15.3784C19 15.7217 18.7217 16 18.3784 16H5.62162C5.27831 16 5 15.7217 5 15.3784C5 14.3533 5.48263 13.388 6.3027 12.773L6.63226 12.5258C7.49327 11.88 8 10.8666 8 9.79032V7ZM9.87868 20.1213C9.48816 19.7308 8.85499 19.7308 8.46447 20.1213C8.07394 20.5118 8.07394 21.145 8.46447 21.5355C8.92876 21.9998 9.47995 22.3681 10.0866 22.6194C10.6932 22.8707 11.3434 23 12 23C12.6566 23 13.3068 22.8707 13.9134 22.6194C14.52 22.3681 15.0712 21.9998 15.5355 21.5355C15.9261 21.145 15.9261 20.5118 15.5355 20.1213C15.145 19.7308 14.5118 19.7308 14.1213 20.1213C13.8427 20.3999 13.512 20.6209 13.1481 20.7716C12.7841 20.9224 12.394 21 12 21C11.606 21 11.2159 20.9224 10.8519 20.7716C10.488 20.6209 10.1573 20.3999 9.87868 20.1213Z" fill="black"/>
</svg>
