<svg width="24" height="24" viewBox="0 0 24 24" fill="none" xmlns="http://www.w3.org/2000/svg">
<path fill-rule="evenodd" clip-rule="evenodd" d="M19.116 6.29834L12.1175 13.2968L13.9051 19.8514C13.9267 19.9305 13.9606 19.9664 13.9887 19.9873C14.0233 20.013 14.075 20.0333 14.1376 20.0355C14.2002 20.0377 14.2533 20.021 14.2896 19.9977C14.319 19.9789 14.3554 19.9454 14.3824 19.868L19.116 6.29834ZM10.7433 11.8426L17.9756 4.61027L3.88582 8.86997C3.81013 8.89286 3.7749 8.92676 3.75419 8.95559C3.72912 8.9905 3.70994 9.04151 3.70826 9.10238C3.70658 9.16326 3.72292 9.21524 3.74603 9.25148C3.76511 9.28141 3.79842 9.3172 3.87273 9.34423L10.7433 11.8426ZM10.1716 13.7628L3.18924 11.2238C1.15592 10.4844 1.23605 7.58167 3.30704 6.95555L19.8001 1.96928C21.1695 1.55528 22.4301 2.87004 21.9589 4.2208L16.2708 20.5267C15.5428 22.6135 12.5571 22.5098 11.9756 20.3777L10.1716 13.7628Z" fill="black"/>
</svg>
