<svg width="24" height="24" viewBox="0 0 24 24" fill="none" xmlns="http://www.w3.org/2000/svg">
<path fill-rule="evenodd" clip-rule="evenodd" d="M12.0039 4.01858C9.79475 4.02676 8.01053 5.82423 8.0187 8.03335C8.02642 10.1186 9.62845 11.8253 11.6661 12.0032C11.7763 12.0012 11.8876 12.0001 12.0002 12.0001C12.1229 12.0001 12.2441 12.0014 12.364 12.0038C14.4179 11.8282 16.0264 10.1016 16.0186 8.00376C16.0105 5.79464 14.213 4.01041 12.0039 4.01858ZM6.01872 8.04075C6.02534 9.83095 6.81531 11.4351 8.06279 12.5299C6.93095 12.8722 5.99139 13.3643 5.2156 13.9578C3.68024 15.1322 2.87554 16.6352 2.45756 17.9318C2.0957 19.0543 2.41359 20.1155 3.10173 20.8612C3.7697 21.585 4.76568 22.0001 5.81159 22.0001H12.5002C13.0525 22.0001 13.5002 21.5524 13.5002 21.0001C13.5002 20.4478 13.0525 20.0001 12.5002 20.0001H5.81159C5.2784 20.0001 4.83101 19.786 4.57149 19.5048C4.33214 19.2454 4.23844 18.9259 4.36109 18.5454C4.68869 17.5292 5.29785 16.4129 6.43074 15.5463C7.50301 14.7261 9.12563 14.0673 11.6107 14.0049C11.7528 14.0145 11.8963 14.0191 12.0409 14.0185C12.1668 14.0181 12.2918 14.0137 12.4158 14.0056C15.0654 14.0767 16.7332 14.8272 17.7998 15.7317C18.221 16.0889 18.852 16.037 19.2092 15.6158C19.5664 15.1946 19.5145 14.5635 19.0933 14.2063C18.2692 13.5075 17.2403 12.9278 15.965 12.5382C17.2292 11.4334 18.0253 9.80708 18.0186 7.99636C18.0064 4.68267 15.3102 2.00634 11.9965 2.0186C8.68279 2.03085 6.00646 4.72707 6.01872 8.04075ZM22.7073 17.7072C23.0978 17.3167 23.0978 16.6835 22.7073 16.293C22.3168 15.9025 21.6836 15.9025 21.2931 16.293L18.0002 19.5859L16.7073 18.293C16.3168 17.9025 15.6836 17.9025 15.2931 18.293C14.9026 18.6835 14.9026 19.3167 15.2931 19.7072L17.2931 21.7072C17.6836 22.0977 18.3168 22.0977 18.7073 21.7072L22.7073 17.7072Z" fill="black"/>
</svg>
