<svg width="24" height="24" viewBox="0 0 24 24" fill="none" xmlns="http://www.w3.org/2000/svg">
<path fill-rule="evenodd" clip-rule="evenodd" d="M21.5 18.5C21.5 20.1569 20.1569 21.5 18.5 21.5H12C11.8907 21.5 11.7855 21.4825 11.687 21.4501H5.50005C3.87081 21.4501 2.55005 20.1293 2.55005 18.5V18.5V12V5.50005C2.55005 3.87081 3.87081 2.55005 5.50005 2.55005H11.6867C11.7853 2.51757 11.8906 2.5 12 2.5H18.5C20.1569 2.5 21.5 3.84315 21.5 5.5L21.5 18.5ZM12.95 4.5V6.31372C12.95 6.66767 12.7533 6.99227 12.4395 7.15599C12.1257 7.3197 11.7469 7.29539 11.4566 7.0929C11.3274 7.00278 11.1713 6.95005 11 6.95005C10.5582 6.95005 10.2 7.30822 10.2 7.75005C10.2 8.19188 10.5582 8.55005 11 8.55005C11.1713 8.55005 11.3274 8.49732 11.4566 8.4072C11.7469 8.20471 12.1257 8.18039 12.4395 8.34411C12.7533 8.50783 12.95 8.83243 12.95 9.18638V11.05H13.5505C13.5502 11.0333 13.55 11.0167 13.55 11C13.55 9.50878 14.7589 8.29995 16.25 8.29995C17.7412 8.29995 18.95 9.50878 18.95 11C18.95 11.0167 18.9499 11.0333 18.9496 11.05H19.5V5.5C19.5 4.94771 19.0523 4.5 18.5 4.5L12.95 4.5ZM11.05 11.05V10.4496C11.0334 10.4499 11.0167 10.45 11 10.45C9.50888 10.45 8.30005 9.24122 8.30005 7.75005C8.30005 6.25888 9.50888 5.05005 11 5.05005C11.0167 5.05005 11.0334 5.0502 11.05 5.05051V4.45005H5.50005C4.92015 4.45005 4.45005 4.92015 4.45005 5.50005V11.05H6.31372C6.66767 11.05 6.99227 11.2467 7.15599 11.5605C7.3197 11.8743 7.29539 12.2531 7.0929 12.5434C7.00278 12.6726 6.95005 12.8287 6.95005 13C6.95005 13.4418 7.30822 13.8 7.75005 13.8C8.19188 13.8 8.55005 13.4418 8.55005 13C8.55005 12.8287 8.49732 12.6726 8.4072 12.5434C8.20471 12.2531 8.18039 11.8743 8.34411 11.5605C8.50783 11.2467 8.83243 11.05 9.18638 11.05H11.05ZM11.05 19.55H5.50005C4.92015 19.55 4.45005 19.0798 4.45005 18.5L4.45005 12.95H5.05051C5.0502 12.9666 5.05005 12.9833 5.05005 13C5.05005 14.4911 6.25888 15.7 7.75005 15.7C9.24122 15.7 10.45 14.4911 10.45 13C10.45 12.9833 10.4499 12.9666 10.4496 12.95H11.05V14.8137C11.05 15.1677 11.2468 15.4923 11.5606 15.656C11.8744 15.8197 12.2532 15.7954 12.5435 15.5929C12.6727 15.5028 12.8288 15.45 13 15.45C13.4419 15.45 13.8 15.8082 13.8 16.25C13.8 16.6919 13.4419 17.05 13 17.05C12.8288 17.05 12.6727 16.9973 12.5435 16.9072C12.2532 16.7047 11.8744 16.6804 11.5606 16.8441C11.2468 17.0078 11.05 17.3324 11.05 17.6864V19.55ZM12.95 19.5V18.9496C12.9667 18.9499 12.9833 18.95 13 18.95C14.4912 18.95 15.7 17.7412 15.7 16.25C15.7 14.7589 14.4912 13.55 13 13.55C12.9833 13.55 12.9667 13.5502 12.95 13.5505V12.95H14.8137C15.1677 12.95 15.4923 12.7532 15.656 12.4394C15.8197 12.1256 15.7954 11.7468 15.5929 11.4565C15.5028 11.3273 15.45 11.1712 15.45 11C15.45 10.5581 15.8082 10.2 16.25 10.2C16.6919 10.2 17.05 10.5581 17.05 11C17.05 11.1712 16.9973 11.3273 16.9072 11.4565C16.7047 11.7468 16.6804 12.1256 16.8441 12.4394C17.0078 12.7532 17.3324 12.95 17.6864 12.95H19.5V18.5C19.5 19.0523 19.0523 19.5 18.5 19.5H12.95Z" fill="black"/>
</svg>
