<svg width="24" height="24" viewBox="0 0 24 24" fill="none" xmlns="http://www.w3.org/2000/svg">
<path fill-rule="evenodd" clip-rule="evenodd" d="M11 21C11 21.5523 11.4477 22 12 22H18C19.6569 22 21 20.6569 21 19V11C21 10.7578 20.9121 10.5238 20.7526 10.3415L13.7526 2.3415C13.5627 2.12448 13.2884 2 13 2H6C4.34315 2 3 3.34315 3 5V12C3 12.5523 3.44772 13 4 13C4.55229 13 5 12.5523 5 12V5C5 4.44772 5.44772 4 6 4H12V9C12 10.6569 13.3431 12 15 12H19V19C19 19.5523 18.5523 20 18 20H12C11.4477 20 11 20.4477 11 21ZM17.7962 10H15C14.4477 10 14 9.55228 14 9V5.66145L17.7962 10ZM8.20711 15.7929C8.59763 16.1834 8.59763 16.8166 8.20711 17.2071L6.41421 19L8.20711 20.7929C8.59763 21.1834 8.59763 21.8166 8.20711 22.2071C7.81658 22.5976 7.18342 22.5976 6.79289 22.2071L5 20.4142L3.20711 22.2071C2.81658 22.5976 2.18342 22.5976 1.79289 22.2071C1.40237 21.8166 1.40237 21.1834 1.79289 20.7929L3.58579 19L1.79289 17.2071C1.40237 16.8166 1.40237 16.1834 1.79289 15.7929C2.18342 15.4024 2.81658 15.4024 3.20711 15.7929L5 17.5858L6.79289 15.7929C7.18342 15.4024 7.81658 15.4024 8.20711 15.7929Z" fill="black"/>
</svg>
