<svg width="24" height="24" viewBox="0 0 24 24" fill="none" xmlns="http://www.w3.org/2000/svg">
<path fill-rule="evenodd" clip-rule="evenodd" d="M8.97482 2.79911C7.90789 2.51323 6.81121 3.14639 6.52533 4.21333L4.7136 10.9748C4.42771 12.0417 5.06088 13.1384 6.12781 13.4243L9.02559 14.2008C10.0925 14.4866 11.1892 13.8535 11.4751 12.7865L12.1155 10.3963L14.8598 11.2539C16.7279 11.8377 17.9999 13.5679 17.9999 15.5251V16C17.9999 18.2039 16.2176 19.9915 14.0157 20H4C3.44772 20 3 20.4477 3 21C3 21.5523 3.44772 22 4 22H13.992L13.9999 22L14.0193 22H20C20.5523 22 21 21.5523 21 21C21 20.4477 20.5523 20 20 20H18.4722C19.4222 18.9385 19.9999 17.5367 19.9999 16V15.5251C19.9999 12.6931 18.1595 10.1897 15.4563 9.34495L12.6336 8.46284L13.2868 6.02506C13.5727 4.95813 12.9395 3.86145 11.8726 3.57557L8.97482 2.79911ZM8.45718 4.73097L11.355 5.50742L9.54323 12.2689L6.64545 11.4924L8.45718 4.73097ZM5 16C4.44772 16 4 16.4477 4 17C4 17.5523 4.44772 18 5 18H10C10.5523 18 11 17.5523 11 17C11 16.4477 10.5523 16 10 16H5Z" fill="black"/>
</svg>
