<svg width="24" height="24" viewBox="0 0 24 24" fill="none" xmlns="http://www.w3.org/2000/svg">
<path fill-rule="evenodd" clip-rule="evenodd" d="M8.5 21C8.5 21.5523 8.94772 22 9.5 22H18C19.6569 22 21 20.6569 21 19V11C21 10.7578 20.9121 10.5238 20.7526 10.3415L13.7526 2.3415C13.5627 2.12448 13.2884 2 13 2H6C4.34315 2 3 3.34315 3 5V10.5C3 11.0523 3.44772 11.5 4 11.5C4.55228 11.5 5 11.0523 5 10.5V5C5 4.44772 5.44772 4 6 4H12V9C12 10.6569 13.3431 12 15 12H19V19C19 19.5523 18.5523 20 18 20H9.5C8.94772 20 8.5 20.4477 8.5 21ZM17.7962 10H15C14.4477 10 14 9.55228 14 9V5.66145L17.7962 10ZM6 22C6 22.5523 5.55228 23 5 23C4.44772 23 4 22.5523 4 22C4 21.4477 4.44772 21 5 21C5.55228 21 6 21.4477 6 22ZM5.00005 14C4.10795 14 3.42304 14.2893 2.95929 14.5874C2.72938 14.7352 2.55363 14.885 2.43091 15.0034C2.36933 15.0628 2.32036 15.1149 2.28389 15.1559C2.26562 15.1765 2.25041 15.1943 2.23824 15.209L2.22222 15.2286L2.2159 15.2366L2.21316 15.24L2.21189 15.2417L2.21128 15.2424C2.21099 15.2428 2.21069 15.2432 3.00005 15.8571L2.21069 15.2432C1.87162 15.6791 1.95016 16.3074 2.38611 16.6465C2.8172 16.9818 3.43637 16.9087 3.77797 16.4855L3.77871 16.4847C3.78389 16.4788 3.79743 16.464 3.81918 16.4431C3.86313 16.4007 3.93738 16.3362 4.0408 16.2697C4.24372 16.1393 4.55881 16 5.00005 16C5.4446 16 5.68388 16.1379 5.80591 16.2556C5.93494 16.38 6.00005 16.5447 6.00005 16.7143C6.00005 16.848 5.97082 16.8685 5.96919 16.8697L5.96913 16.8697C5.93777 16.907 5.86584 16.9666 5.64619 17.0864C5.61583 17.103 5.57885 17.1218 5.53655 17.1434C5.14975 17.3409 4.31854 17.7652 4.04005 18.72C3.88541 19.2502 4.18985 19.8054 4.72005 19.96C5.25024 20.1146 5.80541 19.8102 5.96005 19.28C5.98443 19.1964 5.99527 19.1742 6.6039 18.8422C6.84258 18.712 7.20816 18.5037 7.49972 18.1571C7.82245 17.7734 8.00005 17.2914 8.00005 16.7143C8.00005 16.0267 7.73182 15.3343 7.19418 14.8159C6.64955 14.2907 5.88883 14 5.00005 14Z" fill="black"/>
</svg>
