<svg width="24" height="24" viewBox="0 0 24 24" fill="none" xmlns="http://www.w3.org/2000/svg">
<g clip-path="url(#clip0_1172_6663)">
<path fill-rule="evenodd" clip-rule="evenodd" d="M8.93402 15.2297L5.31367 13.1394C5.29762 13.1288 5.28115 13.1187 5.26427 13.1089C4.66724 12.7642 4.19433 12.2398 3.91301 11.6104C3.63169 10.981 3.55633 10.2788 3.6977 9.60409C3.83906 8.92935 4.18993 8.31649 4.70022 7.85296C5.01394 7.56799 5.37807 7.3484 5.77126 7.20385L5.77126 11.4721C5.77126 11.698 5.85015 11.9055 5.98188 12.0686C6.06056 12.1878 6.1674 12.291 6.29949 12.3672L10.0957 14.559L8.93402 15.2297ZM6.76707 3.6706C6.43015 4.1317 6.1741 4.64236 6.00602 5.18077C5.04476 5.34952 4.14841 5.78736 3.42271 6.44656C2.61611 7.17924 2.06152 8.14795 1.83807 9.21448C1.61462 10.281 1.73373 11.3909 2.1784 12.3857C2.40798 12.8993 2.71829 13.3688 3.09464 13.7777C2.7477 14.7271 2.68612 15.759 2.91984 16.7454C3.16852 17.7949 3.7391 18.7404 4.55172 19.4497C5.36435 20.1589 6.37836 20.5963 7.45189 20.7008C8.00252 20.7543 8.55467 20.7189 9.08797 20.5989C9.7666 21.4091 10.6772 21.992 11.6974 22.2691C12.7237 22.5478 13.8109 22.5034 14.811 22.1419C15.8111 21.7804 16.6755 21.1195 17.2864 20.2491C17.5954 19.8089 17.8319 19.326 17.9902 18.8187C18.8929 18.66 19.7407 18.2636 20.4441 17.6657C21.2893 16.9475 21.8811 15.9766 22.1324 14.8963C22.3836 13.816 22.281 12.6835 21.8395 11.666C21.607 11.1299 21.2869 10.6407 20.8955 10.2167C21.1956 9.39267 21.2826 8.50186 21.1426 7.62826C20.965 6.52036 20.432 5.50024 19.6239 4.7218C18.8158 3.94335 17.7765 3.4488 16.6627 3.31274C16.073 3.2407 15.4793 3.27124 14.9069 3.39922C14.2947 2.66885 13.4905 2.11965 12.5814 1.8161C11.5408 1.46865 10.4167 1.46105 9.37156 1.79441C8.3264 2.12777 7.41429 2.78482 6.76707 3.6706ZM18.6826 10.861L15.0574 8.76804L13.896 9.43857L17.6959 11.6324C17.8256 11.7073 17.931 11.8082 18.0092 11.9247C18.1441 12.0887 18.2251 12.2987 18.2251 12.5276L18.2251 16.7953C18.5837 16.6633 18.9188 16.4686 19.2137 16.218C19.7484 15.7636 20.1228 15.1493 20.2818 14.4659C20.4407 13.7824 20.3758 13.066 20.0965 12.4222C19.8172 11.7785 19.3384 11.2416 18.7307 10.8908C18.7143 10.8813 18.6982 10.8714 18.6826 10.861ZM15.166 12.3657L16.3251 13.0349L16.3251 17.2776L16.3251 17.2885C16.3229 17.9575 16.1157 18.6098 15.7313 19.1575C15.3448 19.7082 14.7979 20.1263 14.1652 20.355C13.5325 20.5837 12.8446 20.6118 12.1954 20.4355C11.7382 20.3113 11.3158 20.0901 10.9558 19.7895L14.6491 17.6571C14.8321 17.5515 14.9667 17.3941 15.045 17.2141C15.122 17.0769 15.166 16.9185 15.166 16.7498L15.166 12.3657ZM11.996 10.5355L13.266 11.2688L13.266 12.7286L11.9957 13.462L10.7308 12.7318L10.7308 11.266L11.996 10.5355ZM19.2605 9.0008C19.3211 8.64854 19.3238 8.28647 19.2665 7.92895C19.1542 7.22803 18.817 6.58265 18.3057 6.09017C17.7945 5.59768 17.137 5.2848 16.4323 5.19872C15.7442 5.11466 15.0475 5.25137 14.4427 5.58843C14.4296 5.59688 14.4162 5.60506 14.4025 5.61295L10.7308 7.7328L10.7308 9.07205L14.5234 6.88241C14.6526 6.80782 14.792 6.76703 14.9315 6.75728C15.1435 6.72 15.3694 6.75424 15.5704 6.87032L19.2605 9.0008ZM7.67109 6.70372L7.67126 6.72205L7.67126 10.9653L8.83083 11.6348L8.83083 7.24984C8.83083 7.11086 8.86067 6.97885 8.9143 6.85987C8.98574 6.64915 9.13108 6.46249 9.33891 6.3425L13.037 4.20739C12.7261 3.94852 12.368 3.74797 11.9796 3.61829C11.3213 3.39847 10.6101 3.39366 9.94892 3.60457C9.28769 3.81547 8.71065 4.23115 8.30118 4.79154C7.89532 5.347 7.67494 6.01611 7.67109 6.70372ZM9.46462 17.1172C9.33921 17.1897 9.20414 17.2302 9.06879 17.2414C8.85516 17.2803 8.62718 17.2464 8.42441 17.1294L4.72831 14.9954C4.65343 15.4286 4.66618 15.8748 4.76865 16.3073C4.92598 16.9713 5.28695 17.5695 5.80106 18.0182C6.31517 18.4669 6.95669 18.7436 7.63586 18.8097C8.29786 18.8741 8.96334 18.7352 9.54382 18.4122C9.55742 18.4034 9.57131 18.3949 9.5855 18.3867L13.266 16.2617L13.266 14.9225L9.46462 17.1172Z" fill="black"/>
</g>
<defs>
<clipPath id="clip0_1172_6663">
<rect width="24" height="24" fill="white"/>
</clipPath>
</defs>
</svg>
