<svg width="24" height="24" viewBox="0 0 24 24" fill="none" xmlns="http://www.w3.org/2000/svg">
<path fill-rule="evenodd" clip-rule="evenodd" d="M8 1C8.55228 1 9 1.44772 9 2V6.5H15V2C15 1.44772 15.4477 1 16 1C16.5523 1 17 1.44772 17 2V6.5H19C20.1046 6.5 21 7.39543 21 8.5V12C21 15.866 17.866 19 14 19H13V22C13 22.5523 12.5523 23 12 23C11.4477 23 11 22.5523 11 22V19H10C6.13401 19 3 15.866 3 12V8.5C3 7.39543 3.89543 6.5 5 6.5H7V2C7 1.44772 7.44772 1 8 1ZM5 8.5V12C5 14.7614 7.23858 17 10 17H14C16.7614 17 19 14.7614 19 12V8.5H5Z" fill="black"/>
</svg>
