<svg width="24" height="24" viewBox="0 0 24 24" fill="none" xmlns="http://www.w3.org/2000/svg">
<path fill-rule="evenodd" clip-rule="evenodd" d="M6 3C6 2.44772 5.55229 2 5 2C4.44772 2 4 2.44772 4 3V12.126C2.27477 12.5701 1 14.1362 1 16C1 17.8638 2.27477 19.4299 4 19.874V21C4 21.5523 4.44771 22 5 22C5.55228 22 6 21.5523 6 21V19.874C7.72523 19.4299 9 17.8638 9 16C9 14.1362 7.72523 12.5701 6 12.126L6 3ZM12 4C13.1046 4 14 4.89543 14 6C14 7.10457 13.1046 8 12 8C10.8954 8 10 7.10457 10 6C10 4.89543 10.8954 4 12 4ZM16 6C16 3.79086 14.2091 2 12 2C9.79086 2 8 3.79086 8 6C8 7.86384 9.27477 9.42994 11 9.87398V21C11 21.5523 11.4477 22 12 22C12.5523 22 13 21.5523 13 21L13 9.87398C14.7252 9.42994 16 7.86384 16 6ZM5 14C6.10457 14 7 14.8954 7 16C7 17.1046 6.10457 18 5 18C3.89543 18 3 17.1046 3 16C3 14.8954 3.89543 14 5 14ZM20 3C20 2.44772 19.5523 2 19 2C18.4477 2 18 2.44772 18 3V12.126C16.2748 12.5701 15 14.1362 15 16C15 17.8638 16.2748 19.4299 18 19.874V21C18 21.5523 18.4477 22 19 22C19.5523 22 20 21.5523 20 21V19.874C21.7252 19.4299 23 17.8638 23 16C23 14.1362 21.7252 12.5701 20 12.126V3ZM19 14C20.1046 14 21 14.8954 21 16C21 17.1046 20.1046 18 19 18C17.8954 18 17 17.1046 17 16C17 14.8954 17.8954 14 19 14Z" fill="black"/>
</svg>
