<svg width="24" height="24" viewBox="0 0 24 24" fill="none" xmlns="http://www.w3.org/2000/svg">
<path fill-rule="evenodd" clip-rule="evenodd" d="M3 18.1668V5.26717C4.30231 4.93674 6.84891 4.37907 8.59901 4.49775C9.75303 4.576 10.5923 4.95398 11.5827 5.4088L11.6178 5.42494C12.5967 5.87454 13.7263 6.39336 15.2657 6.49775C17.1239 6.62376 19.5345 6.13974 20.9412 5.80652C20.9505 5.80433 20.9572 5.80465 20.9638 5.80614C20.9717 5.80793 20.9805 5.8119 20.9883 5.81795C20.9961 5.82394 20.9992 5.82904 20.9998 5.83023C20.9998 5.83027 20.9998 5.8303 20.9999 5.83033C20.9999 5.83052 20.9999 5.83078 20.9999 5.83114C21 5.83166 21 5.83237 21 5.8333V18.7329C19.6977 19.0633 17.1511 19.621 15.401 19.5023C14.247 19.4241 13.4077 19.0461 12.4173 18.5913L12.3822 18.5751C11.4033 18.1255 10.2737 17.6067 8.73432 17.5023C6.87607 17.3763 4.46549 17.8603 3.05878 18.1936C3.04955 18.1957 3.04276 18.1954 3.03621 18.1939C3.02835 18.1922 3.0195 18.1882 3.01166 18.1821C3.00388 18.1761 3.00081 18.171 3.0002 18.1699C3.0001 18.1697 3.00006 18.1696 3.00006 18.1696C3.00006 18.1696 3.00012 18.1697 3.00017 18.1699C3.00023 18.1701 3.0002 18.1701 3.00016 18.1698C3.0001 18.1694 3 18.1684 3 18.1668ZM20.9999 5.83033C20.9999 5.83048 20.9999 5.83053 20.9999 5.83051C20.9999 5.83049 20.9999 5.83036 20.9998 5.83016C20.9998 5.82992 20.9998 5.82996 20.9999 5.83033ZM8.73432 2.50233C6.61001 2.35828 3.74606 3.01317 2.47581 3.33682C1.58507 3.56377 1 4.36621 1 5.25008V18.1668C1 19.506 2.26968 20.4358 3.51978 20.1397C4.92771 19.8062 7.07363 19.3943 8.59901 19.4977C9.75303 19.576 10.5923 19.954 11.5827 20.4088L11.6178 20.4249L11.6178 20.425C12.5967 20.8745 13.7263 21.3934 15.2657 21.4978C17.39 21.6418 20.2539 20.9869 21.5242 20.6633C22.4149 20.4363 23 19.6339 23 18.75V5.8333C23 4.49405 21.7303 3.56425 20.4802 3.86038C19.0723 4.19389 16.9264 4.60577 15.401 4.50233C14.247 4.42408 13.4077 4.0461 12.4173 3.59128L12.3822 3.57514C11.4033 3.12555 10.2737 2.60672 8.73432 2.50233ZM8.5 12C8.5 10.4145 9.55429 9.07521 11.0001 8.64496V10.7694L8.57237 12.7116C8.52493 12.4818 8.5 12.2438 8.5 12ZM11.0001 15.3551C10.4448 15.1899 9.94727 14.8905 9.54504 14.4947L11.0001 13.3307V15.3551ZM14.455 14.4946C14.0528 14.8905 13.5553 15.1898 13.0001 15.3551V13.3307L14.455 14.4946ZM15.5 12C15.5 12.2438 15.4751 12.4818 15.4276 12.7115L13.0001 10.7694V8.645C14.4458 9.0753 15.5 10.4146 15.5 12ZM6.5 12C6.5 8.96248 8.96243 6.50004 12 6.50004C15.0376 6.50004 17.5 8.96248 17.5 12C17.5 15.0376 15.0376 17.5 12 17.5C8.96243 17.5 6.5 15.0376 6.5 12Z" fill="black"/>
</svg>
