<svg width="24" height="24" viewBox="0 0 24 24" fill="none" xmlns="http://www.w3.org/2000/svg">
<path fill-rule="evenodd" clip-rule="evenodd" d="M2.55736 3.76891C3.04181 2.69235 4.11259 2 5.29312 2H18.7068C19.8873 2 20.9581 2.69235 21.4425 3.76891L22.7119 6.58964C22.7748 6.7294 22.8037 6.87926 22.7996 7.02784C22.9805 7.60166 23.04 8.20718 22.9738 8.80576C22.9048 9.42948 22.7011 10.0308 22.3768 10.568C22.0525 11.1052 21.6152 11.5655 21.0954 11.917C21.0639 11.9383 21.0321 11.9592 21 11.9797V13V15V19C21 20.6569 19.6569 22 18 22H16.5C14.8431 22 13.5 20.6569 13.5 19V18C13.5 17.4477 13.0523 17 12.5 17H11.5C10.9477 17 10.5 17.4477 10.5 18V19C10.5 20.6569 9.15685 22 7.5 22H6C4.34315 22 3 20.6569 3 19L3 15V11.9797C2.95782 11.9527 2.91608 11.925 2.87479 11.8966C2.35589 11.5394 1.92119 11.0733 1.60101 10.5308C1.28082 9.98828 1.08287 9.38243 1.02096 8.75553C0.963441 8.17307 1.02465 7.58547 1.20035 7.02813C1.19616 6.87946 1.2251 6.72949 1.28803 6.58964L2.55736 3.76891ZM5 12.999V12.6474C5.49367 12.6851 5.99117 12.638 6.47069 12.507C7.07839 12.3411 7.64256 12.0445 8.12384 11.6381C8.31867 11.4735 8.49801 11.2926 8.66008 11.0976C8.74481 11.1995 8.83432 11.2977 8.92838 11.3918C9.33046 11.7938 9.8078 12.1128 10.3331 12.3304C10.8585 12.548 11.4215 12.66 11.9902 12.66C12.5588 12.66 13.1218 12.548 13.6472 12.3304C14.1725 12.1128 14.6499 11.7938 15.0519 11.3918C15.1496 11.2941 15.2424 11.1919 15.3301 11.0857C15.4917 11.2815 15.6706 11.4633 15.8652 11.6287C16.3432 12.0352 16.9039 12.333 17.5084 12.5013C17.9943 12.6366 18.499 12.6857 19 12.6474V13V15V19C19 19.5523 18.5523 20 18 20H16.5C15.9477 20 15.5 19.5523 15.5 19V18C15.5 16.3431 14.1569 15 12.5 15H11.5C9.84315 15 8.5 16.3431 8.5 18V19C8.5 19.5523 8.05229 20 7.5 20H6C5.44772 20 5 19.5523 5 19L5 15L5 13C5 12.9997 5 12.9993 5 12.999ZM16.2843 8C16.3204 8.10332 16.34 8.21437 16.34 8.33C16.34 8.66767 16.4134 9.00131 16.5551 9.30781C16.6968 9.61431 16.9034 9.88634 17.1607 10.1051C17.4179 10.3238 17.7197 10.484 18.045 10.5746C18.3703 10.6652 18.7114 10.684 19.0446 10.6297C19.3779 10.5754 19.6954 10.4493 19.9751 10.2602C20.2549 10.071 20.4901 9.82334 20.6647 9.53426C20.8392 9.24519 20.9488 8.92164 20.9859 8.58601C21.0075 8.3905 21.0042 8.19361 20.9765 8H16.2843ZM3.02349 8H7.71573C7.67963 8.10332 7.66 8.21437 7.66 8.33C7.66 8.66898 7.58604 9.00388 7.44327 9.31133C7.3005 9.61878 7.09236 9.89138 6.83338 10.1101C6.5744 10.3288 6.27082 10.4884 5.94381 10.5777C5.61681 10.667 5.27425 10.6839 4.94005 10.6271C4.60585 10.5704 4.28805 10.4414 4.00883 10.2492C3.72961 10.057 3.4957 9.80619 3.32341 9.51426C3.15111 9.22233 3.04459 8.89632 3.01128 8.55898C2.99284 8.37229 2.99707 8.18462 3.02349 8ZM9.60443 8C9.64053 8.10332 9.66016 8.21437 9.66016 8.33C9.66016 8.63598 9.72042 8.93896 9.83752 9.22165C9.95461 9.50434 10.1262 9.7612 10.3426 9.97756C10.559 10.1939 10.8158 10.3655 11.0985 10.4826C11.3812 10.5997 11.6842 10.66 11.9902 10.66C12.2961 10.66 12.5991 10.5997 12.8818 10.4826C13.1645 10.3655 13.4214 10.1939 13.6377 9.97756C13.8541 9.7612 14.0257 9.50434 14.1428 9.22165C14.2599 8.93896 14.3202 8.63598 14.3202 8.33C14.3202 8.21437 14.3398 8.10332 14.3759 8H9.60443ZM5.29312 4C4.89961 4 4.54268 4.23078 4.3812 4.58964L3.74654 6H20.2534L19.6187 4.58964C19.4572 4.23078 19.1003 4 18.7068 4H5.29312Z" fill="black"/>
</svg>
