<svg width="24" height="24" viewBox="0 0 24 24" fill="none" xmlns="http://www.w3.org/2000/svg">
<path fill-rule="evenodd" clip-rule="evenodd" d="M2.54282 13.3713C1.76177 12.5903 1.76177 11.3239 2.54282 10.5429L9.70183 3.38387C11.1193 1.96645 13.5428 2.97034 13.5428 4.97487L13.5428 6.457L20.0428 6.457C21.1474 6.457 22.0428 7.35243 22.0428 8.457L22.0428 15.457C22.0428 16.5616 21.1474 17.457 20.0428 17.457L13.5428 17.457L13.5428 18.9393C13.5428 20.9439 11.1193 21.9477 9.70183 20.5303L2.54282 13.3713ZM11.116 4.79809L3.95703 11.9571L11.116 19.1161C11.2735 19.2736 11.5428 19.1621 11.5428 18.9393L11.5428 16.457C11.5428 15.9047 11.9905 15.457 12.5428 15.457L20.0428 15.457L20.0428 8.457L12.5428 8.457C12.2776 8.457 12.0232 8.35165 11.8357 8.16411C11.6482 7.97657 11.5428 7.72222 11.5428 7.457L11.5428 4.97487C11.5428 4.75214 11.2735 4.6406 11.116 4.79809Z" fill="black"/>
</svg>
