<svg width="24" height="24" viewBox="0 0 24 24" fill="none" xmlns="http://www.w3.org/2000/svg">
<path fill-rule="evenodd" clip-rule="evenodd" d="M9.34025 0C7.77998 0 6.48019 1.19599 6.35061 2.75086L6.14981 5.16054C4.22182 6.81121 3 9.26292 3 12C3 14.7371 4.22183 17.1888 6.14982 18.8395L6.35062 21.2491C6.4802 22.804 7.77999 24 9.34026 24H14.6597C16.22 24 17.5198 22.804 17.6494 21.2491L17.8502 18.8395C19.1671 17.712 20.1546 16.2107 20.6482 14.5H21.5C22.0523 14.5 22.5 14.0523 22.5 13.5V10.5C22.5 9.94771 22.0523 9.5 21.5 9.5H20.6482C20.1546 7.78931 19.1671 6.28803 17.8502 5.16051L17.6494 2.75086C17.5198 1.19599 16.22 0 14.6597 0H9.34025ZM15.7304 3.80712L15.6563 2.91695C15.6131 2.39866 15.1798 2 14.6597 2H9.34025C8.82016 2 8.38689 2.39866 8.3437 2.91695L8.26952 3.80713C9.40606 3.2888 10.6693 3 12 3C13.3307 3 14.5939 3.28879 15.7304 3.80712ZM15.7305 20.1929C14.5939 20.7112 13.3307 21 12 21C10.6693 21 9.40607 20.7112 8.26953 20.1929L8.34371 21.083C8.38691 21.6013 8.82017 22 9.34026 22H14.6597C15.1798 22 15.6131 21.6013 15.6563 21.083L15.7305 20.1929ZM13 8C13 7.44772 12.5523 7 12 7C11.4477 7 11 7.44772 11 8V12C11 12.4304 11.2754 12.8126 11.6838 12.9487L14.6838 13.9487C15.2077 14.1233 15.774 13.8402 15.9487 13.3162C16.1233 12.7923 15.8402 12.226 15.3162 12.0513L13 11.2792V8ZM5 12C5 8.13401 8.13401 5 12 5C15.866 5 19 8.13401 19 12C19 15.866 15.866 19 12 19C8.13401 19 5 15.866 5 12Z" fill="black"/>
</svg>
