<svg width="24" height="24" viewBox="0 0 24 24" fill="none" xmlns="http://www.w3.org/2000/svg">
<path fill-rule="evenodd" clip-rule="evenodd" d="M3.8753 2.71917C4.30657 2.37416 4.93586 2.44408 5.28087 2.87534L6.98063 5.00004H9.75736C10.688 5.00004 11.5852 5.32434 12.2978 5.91036C12.7738 5.63549 13.3041 5.4601 13.8565 5.39872L16.9779 5.0519L18.7191 2.87534C19.0641 2.44408 19.6934 2.37416 20.1247 2.71917C20.556 3.06418 20.6259 3.69347 20.2809 4.12473L18.2809 6.62473C18.1152 6.83183 17.874 6.96463 17.6104 6.99392L14.0773 7.38649C13.6583 7.43304 13.2648 7.6108 12.9528 7.89438L9.562 10.977C9.2281 11.2805 9.2157 11.8015 9.53479 12.1206C9.82681 12.4126 10.2944 12.4306 10.608 12.1618L12.8492 10.2408C13.2599 9.88875 13.8761 9.92712 14.2399 10.3274L18.0912 14.5637L18.4877 14.3654C18.9438 14.1374 19.2955 13.7438 19.4711 13.2651L20.0611 11.6558C20.1111 11.5194 20.1902 11.3956 20.2929 11.2929L22.2929 9.29293C22.6834 8.90241 23.3166 8.90241 23.7071 9.29293C24.0976 9.68345 24.0976 10.3166 23.7071 10.7071L21.863 12.5513L21.3488 13.9536C20.9977 14.911 20.2943 15.6982 19.3822 16.1543L19.061 16.3148C19.0879 16.9118 18.8483 17.5153 18.3549 17.9328L14.5116 21.1848C13.0631 22.4104 10.9529 22.4498 9.45973 21.279L4.17018 17.1315C3.48888 16.5973 2.99928 15.8565 2.77494 15.0203L2.10355 12.5178L0.292893 10.7071C-0.0976311 10.3166 -0.0976311 9.68345 0.292893 9.29293C0.683417 8.90241 1.31658 8.90241 1.70711 9.29293L3.70711 11.2929C3.83115 11.417 3.92038 11.5715 3.96584 11.7409L4.70662 14.502C4.8188 14.9201 5.06359 15.2905 5.40425 15.5576L10.6938 19.7051C11.4404 20.2905 12.4955 20.2708 13.2197 19.658L17.063 16.406L13.4134 12.3914L11.9096 13.6803C10.8025 14.6292 9.15157 14.5658 8.12057 13.5348C6.99403 12.4083 7.0378 10.5688 8.21666 9.49707L10.7023 7.23736C10.4143 7.08296 10.0901 7.00004 9.75736 7.00004H6.5C6.19622 7.00004 5.9089 6.86195 5.71913 6.62473L3.71913 4.12473C3.37412 3.69347 3.44404 3.06418 3.8753 2.71917Z" fill="black"/>
</svg>
