<svg width="24" height="24" viewBox="0 0 24 24" fill="none" xmlns="http://www.w3.org/2000/svg">
<path fill-rule="evenodd" clip-rule="evenodd" d="M4 12C4 7.58172 7.58172 4 12 4C16.4183 4 20 7.58172 20 12C20 16.4183 16.4183 20 12 20C7.58172 20 4 16.4183 4 12ZM12 2C6.47715 2 2 6.47715 2 12C2 17.5228 6.47715 22 12 22C17.5228 22 22 17.5228 22 12C22 6.47715 17.5228 2 12 2ZM8.10769 13.7994C8.12376 13.5576 8.22575 13.3394 8.38339 13.1749C8.46746 13.087 8.56423 13.0176 8.66834 12.967C8.8004 12.9028 8.94872 12.8667 9.10547 12.8667H10.418C10.4229 12.8666 10.4278 12.8666 10.4327 12.8666C10.9349 12.8666 11.4173 12.6711 11.7779 12.3215C11.879 12.2236 11.9682 12.1156 12.0447 12L8.03516 12C7.48287 12 7.03516 11.5523 7.03516 11C7.03516 10.4477 7.48287 10 8.03516 10L12.1254 10C12.0528 9.86828 11.9646 9.74447 11.8617 9.63151C11.5236 9.26012 11.0542 9.03498 10.5531 9.00371C10.5383 9.00279 10.5236 9.00155 10.5091 9L8.03516 9C7.48287 9 7.03516 8.55228 7.03516 8C7.03516 7.44772 7.48287 7 8.03516 7L15.5005 7C16.0527 7 16.5005 7.44772 16.5005 8C16.5005 8.55229 16.0527 9 15.5005 9H13.8577C14.0348 9.31387 14.1679 9.65042 14.2532 10H15.5005C16.0527 10 16.5005 10.4477 16.5005 11C16.5005 11.5523 16.0527 12 15.5005 12H14.2182C14.0314 12.6627 13.6724 13.2705 13.1701 13.7575C12.7234 14.1905 12.1847 14.5074 11.6011 14.689L13.489 16.3075C13.9083 16.667 13.9568 17.2983 13.5973 17.7176C13.2379 18.1369 12.6066 18.1854 12.1873 17.8259L8.45934 14.63C8.45083 14.6227 8.44243 14.6154 8.43417 14.6079C8.33331 14.5166 8.25526 14.4092 8.20057 14.2929C8.13957 14.1636 8.10547 14.0191 8.10547 13.8667C8.10547 13.8667 8.10547 13.8667 8.10547 13.8667C8.10546 13.8443 8.1062 13.8218 8.10769 13.7994Z" fill="black"/>
</svg>
