<svg width="24" height="24" viewBox="0 0 24 24" fill="none" xmlns="http://www.w3.org/2000/svg">
<path fill-rule="evenodd" clip-rule="evenodd" d="M5.5 9.5C5.5 5.61979 8.51036 3 12 3C15.4896 3 18.5 5.61979 18.5 9.5C18.5 11.2642 17.8872 12.4944 16.7472 14.0537C16.409 14.5163 16.0151 15.0175 15.5801 15.5711C14.567 16.8603 13.3306 18.4336 12.0546 20.4643C12.0487 20.4736 12.0444 20.4766 12.0393 20.4793C12.0318 20.4832 12.0182 20.4877 12 20.4877C11.9818 20.4877 11.9682 20.4832 11.9607 20.4793C11.9556 20.4766 11.9513 20.4736 11.9454 20.4643C10.6694 18.4336 9.43304 16.8603 8.41994 15.5711C7.98488 15.0175 7.591 14.5163 7.25284 14.0537C6.11283 12.4944 5.5 11.2642 5.5 9.5ZM12 1C7.48964 1 3.5 4.4332 3.5 9.5C3.5 11.8696 4.38148 13.515 5.63831 15.2341C6.04096 15.7848 6.47222 16.333 6.93032 16.9153C7.9185 18.1714 9.03161 19.5862 10.252 21.5284C11.0557 22.8075 12.9443 22.8075 13.748 21.5284C14.9684 19.5862 16.0815 18.1714 17.0697 16.9153C17.5278 16.333 17.959 15.7848 18.3617 15.2341C19.6185 13.515 20.5 11.8696 20.5 9.5C20.5 4.4332 16.5104 1 12 1ZM15.7071 8.70711C16.0976 8.31658 16.0976 7.68342 15.7071 7.29289C15.3166 6.90237 14.6834 6.90237 14.2929 7.29289L11 10.5858L9.70711 9.29289C9.31658 8.90237 8.68342 8.90237 8.29289 9.29289C7.90237 9.68342 7.90237 10.3166 8.29289 10.7071L10.2929 12.7071C10.6834 13.0976 11.3166 13.0976 11.7071 12.7071L15.7071 8.70711Z" fill="black"/>
</svg>
