<svg width="24" height="24" viewBox="0 0 24 24" fill="none" xmlns="http://www.w3.org/2000/svg">
<path fill-rule="evenodd" clip-rule="evenodd" d="M4.92428 3.82674C5.01415 2.79322 5.87934 2 6.91676 2H17.0831C18.1205 2 18.9857 2.79323 19.0756 3.82674L19.3898 7.43969C19.7372 11.4354 16.8603 14.9147 13 15.4334V20H15C15.5523 20 16 20.4477 16 21C16 21.5523 15.5523 22 15 22H9C8.44772 22 8 21.5523 8 21C8 20.4477 8.44772 20 9 20H11V15.4334C7.13959 14.9148 4.26265 11.4354 4.61011 7.43969L4.92428 3.82674ZM17.0831 4L6.91676 4L6.74284 6H17.257L17.0831 4ZM11.9999 13.5C8.95291 13.5 6.53315 10.997 6.58256 8H17.4173C17.4667 10.997 15.047 13.5 11.9999 13.5Z" fill="black"/>
</svg>
