<svg width="24" height="24" viewBox="0 0 24 24" fill="none" xmlns="http://www.w3.org/2000/svg">
<path fill-rule="evenodd" clip-rule="evenodd" d="M12.0037 4.01846C9.79457 4.02663 8.01035 5.82411 8.01852 8.03323C8.02623 10.1186 9.62833 11.8253 11.666 12.0031C11.7762 12.001 11.8875 12 11.9999 12C12.0782 12 12.156 12.0005 12.2331 12.0015C12.2768 12.0021 12.3204 12.0028 12.3637 12.0037C14.4176 11.8281 16.0262 10.1015 16.0185 8.00364C16.0103 5.79451 14.2128 4.01029 12.0037 4.01846ZM15.9649 12.5381C17.2291 11.4333 18.0251 9.80695 18.0185 7.99624C18.0062 4.68255 15.31 2.00622 11.9963 2.01847C8.68261 2.03073 6.00628 4.72694 6.01853 8.04063C6.02516 9.83082 6.81512 11.435 8.0626 12.5297C6.93074 12.8721 5.99116 13.3642 5.21536 13.9577C3.68 15.1321 2.87529 16.6351 2.45731 17.9317C2.09546 19.0542 2.41334 20.1154 3.10148 20.861C3.76945 21.5848 4.76544 22 5.81135 22H11.9999H12.4999C13.0522 22 13.4999 21.5523 13.4999 21C13.4999 20.4477 13.0522 20 12.4999 20H11.9999H5.81135C5.27816 20 4.83076 19.7859 4.57124 19.5047C4.3319 19.2453 4.2382 18.9258 4.36084 18.5453C4.68845 17.5291 5.2976 16.4128 6.43049 15.5462C7.5028 14.726 9.12549 14.0671 11.6107 14.0048C11.7527 14.0143 11.8961 14.0189 12.0407 14.0184C12.1665 14.0179 12.2914 14.0136 12.4153 14.0055C13.5415 14.0358 14.4886 14.1889 15.2852 14.4223C16.1618 14.6793 16.8599 15.0345 17.4178 15.434C17.8668 15.7555 18.4915 15.6521 18.813 15.2031C19.1345 14.7541 19.0312 14.1294 18.5821 13.8079C17.8528 13.2856 16.9874 12.8505 15.9649 12.5381ZM15 19C15 18.4477 15.4477 18 16 18H22C22.5523 18 23 18.4477 23 19C23 19.5523 22.5523 20 22 20H16C15.4477 20 15 19.5523 15 19Z" fill="black"/>
</svg>
