<svg width="24" height="24" viewBox="0 0 24 24" fill="none" xmlns="http://www.w3.org/2000/svg">
<path fill-rule="evenodd" clip-rule="evenodd" d="M8.17071 3H6C4.34315 3 3 4.34315 3 6V19C3 20.6569 4.34315 22 6 22H18C19.6569 22 21 20.6569 21 19V6C21 4.34315 19.6569 3 18 3H15.8293C15.4175 1.83481 14.3062 1 13 1H11C9.69378 1 8.58254 1.83481 8.17071 3ZM8.17071 5H6C5.44772 5 5 5.44771 5 6V19C5 19.5523 5.44772 20 6 20H18C18.5523 20 19 19.5523 19 19V6C19 5.44771 18.5523 5 18 5H15.8293C15.4175 6.16519 14.3062 7 13 7H11C9.69378 7 8.58254 6.16519 8.17071 5ZM10 4C10 4.55228 10.4477 5 11 5H13C13.5523 5 14 4.55228 14 4C14 3.44772 13.5523 3 13 3H11C10.4477 3 10 3.44772 10 4Z" fill="black"/>
</svg>
