<svg width="24" height="24" viewBox="0 0 24 24" fill="none" xmlns="http://www.w3.org/2000/svg">
<path fill-rule="evenodd" clip-rule="evenodd" d="M10.2071 5.2072C9.81658 5.59772 9.18342 5.59772 8.79289 5.2072C8.40237 4.81668 8.40237 4.18351 8.79289 3.79299L10.5858 2.00009C11.3668 1.21904 12.6332 1.21904 13.4142 2.00009L15.2071 3.79299C15.5976 4.18351 15.5976 4.81668 15.2071 5.2072C14.8166 5.59772 14.1834 5.59772 13.7929 5.2072L12 3.41431L10.2071 5.2072ZM1 10.5001C1 8.84324 2.34315 7.50009 4 7.50009H20C21.6569 7.50009 23 8.84324 23 10.5001V18.5001C23 20.1569 21.6569 21.5001 20 21.5001H4C2.34315 21.5001 1 20.1569 1 18.5001V10.5001ZM4 9.50009C3.44772 9.50009 3 9.94781 3 10.5001V18.5001C3 19.0524 3.44772 19.5001 4 19.5001H20C20.5523 19.5001 21 19.0524 21 18.5001V10.5001C21 9.94781 20.5523 9.50009 20 9.50009H4ZM18 14.0001C18.8284 14.0001 19.5 13.3285 19.5 12.5001C19.5 11.6717 18.8284 11.0001 18 11.0001C17.1716 11.0001 16.5 11.6717 16.5 12.5001C16.5 13.3285 17.1716 14.0001 18 14.0001ZM7.5 12.5001C7.5 13.3285 6.82843 14.0001 6 14.0001C5.17157 14.0001 4.5 13.3285 4.5 12.5001C4.5 11.6717 5.17157 11.0001 6 11.0001C6.82843 11.0001 7.5 11.6717 7.5 12.5001ZM10 14.0001C10.8284 14.0001 11.5 13.3285 11.5 12.5001C11.5 11.6717 10.8284 11.0001 10 11.0001C9.17157 11.0001 8.5 11.6717 8.5 12.5001C8.5 13.3285 9.17157 14.0001 10 14.0001ZM15.5 12.5001C15.5 13.3285 14.8284 14.0001 14 14.0001C13.1716 14.0001 12.5 13.3285 12.5 12.5001C12.5 11.6717 13.1716 11.0001 14 11.0001C14.8284 11.0001 15.5 11.6717 15.5 12.5001ZM18 18.0001C18.8284 18.0001 19.5 17.3285 19.5 16.5001C19.5 15.6717 18.8284 15.0001 18 15.0001C17.1716 15.0001 16.5 15.6717 16.5 16.5001C16.5 17.3285 17.1716 18.0001 18 18.0001ZM7.5 16.5001C7.5 17.3285 6.82843 18.0001 6 18.0001C5.17157 18.0001 4.5 17.3285 4.5 16.5001C4.5 15.6717 5.17157 15.0001 6 15.0001C6.82843 15.0001 7.5 15.6717 7.5 16.5001ZM9.5 17.5001C8.94772 17.5001 8.5 17.0524 8.5 16.5001C8.5 15.9478 8.94772 15.5001 9.5 15.5001H14.5C15.0523 15.5001 15.5 15.9478 15.5 16.5001C15.5 17.0524 15.0523 17.5001 14.5 17.5001H9.5Z" fill="black"/>
</svg>
