<svg width="24" height="24" viewBox="0 0 24 24" fill="none" xmlns="http://www.w3.org/2000/svg">
<path fill-rule="evenodd" clip-rule="evenodd" d="M12 3C9.79086 3 8 4.79086 8 7V9.79032C8 10.8666 7.49327 11.88 6.63226 12.5258L6.3027 12.773C5.48263 13.388 5 14.3533 5 15.3784C5 15.7217 5.27831 16 5.62162 16H18.1478C18.6055 16 19 15.6129 19 15.1292C19 14.5468 18.8639 13.9639 18.6056 13.4472C18.3586 12.9532 18.5588 12.3526 19.0528 12.1056C19.5468 11.8586 20.1474 12.0588 20.3944 12.5528C20.7937 13.3514 21 14.2411 21 15.1292C21 16.6915 19.7359 18 18.1478 18H5.62162C4.17374 18 3 16.8263 3 15.3784C3 13.7238 3.77902 12.1657 5.1027 11.173L5.43226 10.9258C5.78966 10.6578 6 10.2371 6 9.79032V7C6 3.68629 8.68629 1 12 1C12.5647 1 13.0563 1.05629 13.408 1.11256C13.5846 1.14082 13.7281 1.16943 13.8304 1.19173C13.8815 1.2029 13.9225 1.21252 13.9524 1.21979L13.9887 1.22884L14.0004 1.23185L14.0046 1.23295L14.0073 1.23368L13.75 2.2C14.0077 1.23377 14.0075 1.23372 14.0073 1.23368C14.541 1.37598 14.8585 1.92403 14.7162 2.45766C14.574 2.9912 14.0262 3.30842 13.4926 3.16632L13.4939 3.16667L13.4793 3.16302C13.4642 3.15935 13.4388 3.15335 13.404 3.14577C13.3344 3.13057 13.2279 3.10918 13.092 3.08744C12.8187 3.04371 12.4353 3 12 3ZM8.46452 20.1213C8.85505 19.7307 9.48821 19.7307 9.87874 20.1213C10.1573 20.3998 10.488 20.6208 10.852 20.7716C11.216 20.9223 11.6061 20.9999 12.0001 20.9999C12.394 20.9999 12.7841 20.9223 13.1481 20.7716C13.5121 20.6208 13.8428 20.3998 14.1214 20.1213C14.5119 19.7307 15.1451 19.7307 15.5356 20.1213C15.9261 20.5118 15.9261 21.145 15.5356 21.5355C15.0713 21.9998 14.5201 22.3681 13.9135 22.6193C13.3068 22.8706 12.6567 22.9999 12.0001 22.9999C11.3434 22.9999 10.6933 22.8706 10.0866 22.6193C9.48001 22.3681 8.92882 21.9998 8.46452 21.5355C8.074 21.145 8.074 20.5118 8.46452 20.1213ZM19 3C19 2.44772 18.5523 2 18 2C17.4477 2 17 2.44772 17 3V5H15C14.4477 5 14 5.44772 14 6C14 6.55228 14.4477 7 15 7H17V9C17 9.55228 17.4477 10 18 10C18.5523 10 19 9.55228 19 9V7H21C21.5523 7 22 6.55228 22 6C22 5.44772 21.5523 5 21 5H19V3Z" fill="black"/>
</svg>
