<svg width="24" height="24" viewBox="0 0 24 24" fill="none" xmlns="http://www.w3.org/2000/svg">
<path fill-rule="evenodd" clip-rule="evenodd" d="M7.5 1.5C4.73858 1.5 2.5 3.73858 2.5 6.5V13.5V17.5C2.5 20.2614 4.73858 22.5 7.5 22.5H15.5C16.0523 22.5 16.5 22.0523 16.5 21.5C16.5 20.9477 16.0523 20.5 15.5 20.5H7.5C5.84327 20.5 4.5002 19.1571 4.5 17.5004C5.33566 18.1281 6.37439 18.5 7.5 18.5H16.5C19.2614 18.5 21.5 16.2614 21.5 13.5V6.5C21.5 3.73858 19.2614 1.5 16.5 1.5H7.5ZM4.5 13.5C4.5 15.1569 5.84315 16.5 7.5 16.5H16.5C18.1569 16.5 19.5 15.1569 19.5 13.5V6.5C19.5 4.84315 18.1569 3.5 16.5 3.5H7.5C5.84315 3.5 4.5 4.84315 4.5 6.5V13.5ZM8.5 8.75C8.5 8.05964 9.05964 7.5 9.75 7.5C10.4404 7.5 11 8.05964 11 8.75V11.5C11 12.0523 11.4477 12.5 12 12.5C12.5523 12.5 13 12.0523 13 11.5V8.75C13 8.05964 13.5596 7.5 14.25 7.5C14.9404 7.5 15.5 8.05964 15.5 8.75V13C15.5 13.5523 15.9477 14 16.5 14C17.0523 14 17.5 13.5523 17.5 13V8.75C17.5 6.95507 16.0449 5.5 14.25 5.5C13.3768 5.5 12.5839 5.8444 12 6.40479C11.4161 5.8444 10.6232 5.5 9.75 5.5C7.95507 5.5 6.5 6.95507 6.5 8.75V13C6.5 13.5523 6.94772 14 7.5 14C8.05228 14 8.5 13.5523 8.5 13V8.75Z" fill="black"/>
</svg>
