<svg width="24" height="24" viewBox="0 0 24 24" fill="none" xmlns="http://www.w3.org/2000/svg">
<path fill-rule="evenodd" clip-rule="evenodd" d="M11.3674 2.15683C11.778 2.01999 12.2218 2.01999 12.6324 2.15683L20.5384 4.79218C21.4428 5.09366 22.0087 5.99162 21.8905 6.93761L20.5565 17.6098C20.4758 18.2548 20.0867 18.8205 19.5131 19.1264L12.9411 22.6315C12.3528 22.9452 11.647 22.9452 11.0587 22.6315L4.48671 19.1264C3.9131 18.8205 3.52396 18.2548 3.44333 17.6098L2.10931 6.93761C1.99106 5.99162 2.55697 5.09366 3.46141 4.79218L11.3674 2.15683ZM11.9999 4.0542L4.09386 6.68955L5.42788 17.3617L11.9999 20.8668L18.5719 17.3617L19.9059 6.68955L11.9999 4.0542ZM12.0002 6.00009C12.3876 6.00009 12.7401 6.2238 12.9051 6.57429L16.9051 15.0743C17.1402 15.574 16.9258 16.1697 16.426 16.4049C15.9263 16.6401 15.3306 16.4256 15.0954 15.9259L14.1892 14.0001H9.81131L8.90506 15.9259C8.66989 16.4256 8.07416 16.6401 7.57444 16.4049C7.07472 16.1697 6.86026 15.574 7.09542 15.0743L11.0954 6.57429C11.2604 6.2238 11.6129 6.00009 12.0002 6.00009ZM10.7525 12.0001H13.248L12.0002 9.34863L10.7525 12.0001Z" fill="black"/>
</svg>
