<svg width="24" height="24" viewBox="0 0 24 24" fill="none" xmlns="http://www.w3.org/2000/svg">
<path fill-rule="evenodd" clip-rule="evenodd" d="M12.3994 3.81363C12.1788 3.59305 11.8212 3.59305 11.6006 3.81363C9.87269 5.54154 7.32009 6.14931 5 5.38738V12.566C5 14.9796 6.24334 17.2229 8.29001 18.502L11.47 20.4895C11.7943 20.6922 12.2057 20.6922 12.53 20.4895L15.71 18.502C17.7567 17.2229 19 14.9796 19 12.566V5.38738C16.6799 6.14931 14.1273 5.54154 12.3994 3.81363ZM10.1864 2.39942C11.188 1.39779 12.812 1.39779 13.8136 2.39942C15.0127 3.59848 16.7863 4.01717 18.395 3.48093L18.5911 3.41557C19.7762 3.02054 21 3.90264 21 5.15184V12.566C21 15.6691 19.4014 18.5534 16.77 20.198L13.59 22.1855C12.6172 22.7935 11.3828 22.7935 10.41 22.1855L7.23001 20.198C4.59858 18.5534 3 15.6691 3 12.566V5.15184C3 3.90264 4.22384 3.02054 5.40894 3.41557L5.60502 3.48093C7.21372 4.01717 8.98733 3.59848 10.1864 2.39942Z" fill="black"/>
</svg>
