<svg width="24" height="24" viewBox="0 0 24 24" fill="none" xmlns="http://www.w3.org/2000/svg">
<path fill-rule="evenodd" clip-rule="evenodd" d="M5 2C3.34315 2 2 3.34315 2 5V14V16V19C2 20.6569 3.34315 22 5 22H19C20.6569 22 22 20.6569 22 19V16V14V5C22 3.34315 20.6569 2 19 2H16H13H11H8H5ZM11 4H8V6H11V4ZM12 7.73243C11.7058 7.90261 11.3643 8 11 8H8C6.89543 8 6 7.10457 6 6V4H5C4.44772 4 4 4.44772 4 5V10.5351C4.58835 10.1948 5.27143 10 6 10H18C18.7286 10 19.4117 10.1948 20 10.5351V5C20 4.44772 19.5523 4 19 4H18V6C18 7.10457 17.1046 8 16 8H13C12.6357 8 12.2942 7.90261 12 7.73243ZM16 4H13V6H16V4ZM4 14V16V19C4 19.5523 4.44772 20 5 20H19C19.5523 20 20 19.5523 20 19V16V14C20 12.8954 19.1046 12 18 12H6C4.89543 12 4 12.8954 4 14Z" fill="black"/>
</svg>
