<svg width="24" height="24" viewBox="0 0 24 24" fill="none" xmlns="http://www.w3.org/2000/svg">
<path fill-rule="evenodd" clip-rule="evenodd" d="M12.0254 5.00002C9.87271 4.99612 7.74814 5.48869 5.8168 6.43943C3.88546 7.39018 2.19939 8.77349 0.889617 10.4818C0.553585 10.9201 0.636484 11.5479 1.07478 11.8839C1.51307 12.2199 2.14079 12.137 2.47682 11.6987C3.59948 10.2344 5.04469 9.04872 6.70012 8.2338C8.35555 7.41888 10.1766 6.99668 12.0217 7.00002C13.8669 7.00336 15.6864 7.43215 17.3389 8.25306C18.9913 9.07398 20.4322 10.2649 21.5496 11.7333C21.884 12.1728 22.5114 12.2579 22.951 11.9235C23.3905 11.5891 23.4756 10.9616 23.1412 10.5221C21.8376 8.80905 20.1566 7.41964 18.2287 6.46191C16.3008 5.50418 14.178 5.00392 12.0254 5.00002ZM16.5895 10.1154C15.1647 9.37937 13.5838 8.99682 11.9801 9.00002C10.3764 9.00321 8.79699 9.39206 7.37511 10.1337C5.95324 10.8754 4.7306 11.9482 3.81033 13.2616C3.49341 13.7139 3.60315 14.3375 4.05546 14.6544C4.50776 14.9713 5.13134 14.8616 5.44826 14.4093C6.18448 13.3586 7.16259 12.5003 8.30009 11.907C9.43759 11.3136 10.7011 11.0026 11.9841 11C13.267 10.9975 14.5318 11.3035 15.6716 11.8923C16.8115 12.4811 17.793 13.3354 18.5334 14.3832C18.8521 14.8342 19.4761 14.9415 19.9272 14.6228C20.3782 14.3041 20.4855 13.68 20.1667 13.229C19.2412 11.9193 18.0143 10.8514 16.5895 10.1154ZM8.97082 13.8208C9.8992 13.2778 10.9565 12.9944 12.032 13.0001C13.1075 13.0058 14.1617 13.3005 15.0842 13.8534C16.0068 14.4062 16.7638 15.1969 17.276 16.1426C17.539 16.6283 17.3585 17.2352 16.8729 17.4982C16.3872 17.7612 15.7803 17.5807 15.5173 17.0951C15.1759 16.4646 14.6712 15.9375 14.0562 15.5689C13.4411 15.2004 12.7383 15.0039 12.0213 15.0001C11.3043 14.9962 10.5995 15.1852 9.98055 15.5472C9.36163 15.9092 8.85139 16.4309 8.50323 17.0577C8.23506 17.5405 7.62627 17.7145 7.14346 17.4464C6.66065 17.1782 6.48666 16.5694 6.75483 16.0866C7.27706 15.1464 8.04243 14.3638 8.97082 13.8208ZM12 17.5C11.7374 17.5 11.4773 17.5517 11.2346 17.6522C10.992 17.7528 10.7715 17.9001 10.5858 18.0858C10.1953 18.4763 10.1953 19.1095 10.5858 19.5C10.9763 19.8905 11.6095 19.8905 12 19.5C12.3905 19.8905 13.0237 19.8905 13.4142 19.5C13.8048 19.1095 13.8048 18.4763 13.4142 18.0858C13.2285 17.9001 13.008 17.7528 12.7654 17.6522C12.5227 17.5517 12.2627 17.5 12 17.5Z" fill="black"/>
</svg>
