<svg width="24" height="24" viewBox="0 0 24 24" fill="none" xmlns="http://www.w3.org/2000/svg">
<path fill-rule="evenodd" clip-rule="evenodd" d="M11 3C10.4477 3 10 3.44772 10 4V5H14V4C14 3.44772 13.5523 3 13 3H11ZM16 5V4C16 2.34315 14.6569 1 13 1H11C9.34315 1 8 2.34315 8 4V5H3C2.44772 5 2 5.44772 2 6C2 6.55228 2.44772 7 3 7H21C21.5523 7 22 6.55228 22 6C22 5.44772 21.5523 5 21 5H16ZM5 9C5.55228 9 6 9.44772 6 10V19C6 20.1046 6.89543 21 8 21H16C17.1046 21 18 20.1046 18 19V10C18 9.44772 18.4477 9 19 9C19.5523 9 20 9.44772 20 10V19C20 21.2091 18.2091 23 16 23H8C5.79086 23 4 21.2091 4 19V10C4 9.44772 4.44772 9 5 9ZM10 9C10.5523 9 11 9.44772 11 10V17C11 17.5523 10.5523 18 10 18C9.44772 18 9 17.5523 9 17V10C9 9.44772 9.44772 9 10 9ZM14 9C14.5523 9 15 9.44772 15 10V17C15 17.5523 14.5523 18 14 18C13.4477 18 13 17.5523 13 17V10C13 9.44772 13.4477 9 14 9Z" fill="black"/>
</svg>
