<svg width="24" height="24" viewBox="0 0 24 24" fill="none" xmlns="http://www.w3.org/2000/svg">
<path fill-rule="evenodd" clip-rule="evenodd" d="M16.3347 1.62929C16.5052 1.41743 16.7497 1.31315 16.9935 1.31293C17.2552 1.31268 17.5162 1.43219 17.6846 1.6671C17.7888 1.8123 17.9887 2.09408 18.1303 2.31344C18.2096 2.43649 18.2984 2.58288 18.3779 2.71672C18.6984 3.25661 18.6606 3.92368 18.3124 4.42505C17.9946 4.88266 17.4973 5.11147 17 5.11147C16.8915 5.11147 16.783 5.10057 16.6763 5.07877C16.2942 5.0007 15.936 4.7828 15.6876 4.42505L15.6752 4.40717C15.3424 3.92792 15.2841 3.28696 15.5786 2.74806C15.6658 2.58863 15.7722 2.40171 15.8734 2.24793C16.0196 2.02552 16.2279 1.76193 16.3347 1.62929ZM13 8.00002C13 7.4499 12.5558 7.00352 12.0065 7.00004L12 7.00002C11.4477 7.00002 11 7.44774 11 8.00002V9H8V8.00002C8 7.48226 7.6065 7.0564 7.10224 7.00519C7.06862 7.00177 7.03451 7.00002 7 7.00002C6.44771 7.00002 6 7.44774 6 8.00002L6 9C3.79086 9 2 10.7909 2 13V14.0001V15V17V20C2 21.1046 2.89543 22 4 22H20C21.1046 22 22 21.1046 22 20V17V15V14.0001V13C22 10.7909 20.2091 9 18 9L18 8.00002C18 7.48226 17.6065 7.0564 17.1022 7.00519C17.0686 7.00177 17.0345 7.00002 17 7.00002C16.4477 7.00002 16 7.44774 16 8.00002V9H13V8.00002ZM7.00684 11H11.9932L12 11L12.0068 11H16.9932L17 11L17.0068 11H18C19.1046 11 20 11.8954 20 13V15V16C19.1238 16 18.3623 15.5248 17.7631 14.9364C17.4716 14.6502 17.2436 14.3609 17.0889 14.143C17.0121 14.0349 16.955 13.9466 16.9186 13.888C16.9004 13.8588 16.8875 13.8372 16.8801 13.8245L16.8731 13.8124L16.8726 13.8115C16.6824 13.4718 16.3123 13.2733 15.9239 13.3029C15.5367 13.3325 15.2019 13.5834 15.0647 13.9463L15.0619 13.953C15.0581 13.9624 15.0506 13.9804 15.0392 14.0059C15.0162 14.0569 14.9779 14.137 14.9227 14.2362C14.8114 14.4365 14.6375 14.7047 14.3912 14.9706C13.9094 15.491 13.1601 16 12 16C10.8399 16 10.0906 15.491 9.60876 14.9706C9.36253 14.7047 9.18856 14.4365 9.07728 14.2362C9.02213 14.137 8.98382 14.0569 8.96084 14.0059C8.94939 13.9804 8.94186 13.9624 8.93806 13.953L8.93534 13.9463C8.79814 13.5834 8.4633 13.3325 8.07612 13.3029C7.68771 13.2732 7.31753 13.4718 7.12738 13.8116L7.11993 13.8245C7.11245 13.8372 7.09957 13.8588 7.08141 13.888C7.04501 13.9466 6.98788 14.0349 6.91113 14.143C6.75643 14.3609 6.52844 14.6502 6.23691 14.9364C5.6377 15.5248 4.87624 16 4 16V15V13C4 11.8954 4.89543 11 6 11H6.99316L7 11L7.00684 11ZM4 18V20H20V18C18.3762 18 17.1377 17.1252 16.3619 16.3636C16.2627 16.2662 16.1693 16.169 16.0819 16.0735C16.0124 16.1581 15.9381 16.2437 15.8588 16.3294C15.0906 17.159 13.8399 18 12 18C10.1601 18 8.90936 17.159 8.14124 16.3294C8.06187 16.2437 7.98756 16.1581 7.91812 16.0735C7.83065 16.169 7.73728 16.2662 7.63809 16.3636C6.8623 17.1252 5.62376 18 4 18ZM11.3347 1.62929C11.5052 1.41743 11.7497 1.31315 11.9935 1.31293C12.2552 1.31268 12.5162 1.43219 12.6846 1.6671C12.7888 1.8123 12.9887 2.09408 13.1303 2.31344C13.2097 2.43649 13.2984 2.58288 13.3779 2.71672C13.6984 3.25661 13.6606 3.92368 13.3124 4.42505C12.9946 4.88266 12.4973 5.11147 12 5.11147C11.8874 5.11147 11.7747 5.09973 11.6641 5.07624C11.2866 4.99605 10.9334 4.779 10.6876 4.42505L10.6752 4.40717C10.3424 3.92792 10.2841 3.28696 10.5786 2.74806C10.6658 2.58863 10.7722 2.40171 10.8734 2.24793C11.0196 2.02552 11.2279 1.76193 11.3347 1.62929ZM6.33466 1.62929C6.50524 1.41743 6.74967 1.31315 6.99353 1.31293C7.25517 1.31268 7.51617 1.43219 7.68464 1.6671C7.78878 1.8123 7.98875 2.09408 8.13026 2.31344C8.20965 2.43649 8.29843 2.58288 8.37789 2.71672C8.69841 3.25661 8.6606 3.92368 8.31243 4.42505C7.99464 4.88267 7.49732 5.11148 7.00002 5.11147C6.50271 5.11148 6.0054 4.88267 5.6876 4.42505L5.67519 4.40717C5.34238 3.92792 5.28407 3.28696 5.57863 2.74806C5.66577 2.58863 5.77223 2.40171 5.87336 2.24793C6.01961 2.02552 6.22786 1.76193 6.33466 1.62929Z" fill="black"/>
</svg>
