<svg width="24" height="24" viewBox="0 0 24 24" fill="none" xmlns="http://www.w3.org/2000/svg">
<path fill-rule="evenodd" clip-rule="evenodd" d="M3.00002 6.5C3.00002 4.84315 4.34317 3.5 6.00002 3.5H18C19.6569 3.5 21 4.84315 21 6.5V14.223L22.9488 17.471C23.7486 18.8041 22.7884 20.5 21.2338 20.5H2.76621C1.21162 20.5 0.251398 18.8041 1.05123 17.471L3.00002 14.223V6.5ZM4.56621 15.5L2.76621 18.5L21.2338 18.5L19.4338 15.5H4.56621ZM19 13.5V6.5C19 5.94772 18.5523 5.5 18 5.5H6.00002C5.44774 5.5 5.00002 5.94772 5.00002 6.5V13.5H19Z" fill="black"/>
</svg>
