<svg width="24" height="24" viewBox="0 0 24 24" fill="none" xmlns="http://www.w3.org/2000/svg">
<path fill-rule="evenodd" clip-rule="evenodd" d="M4 12C4 7.58172 7.58172 4 12 4C12.2695 4 12.5357 4.01329 12.7981 4.03925C9.9443 5.54854 8 8.54687 8 12C8 15.4531 9.9443 18.4515 12.7981 19.9608C12.5357 19.9867 12.2695 20 12 20C7.58172 20 4 16.4183 4 12ZM12 2C6.47715 2 2 6.47715 2 12C2 17.5228 6.47715 22 12 22C13.6847 22 15.2749 21.5826 16.6699 20.8447C17.0599 20.6384 17.2686 20.2009 17.1836 19.768C17.0985 19.3351 16.7399 19.0091 16.3008 18.9656C12.7636 18.6154 10 15.6298 10 12C10 8.37017 12.7636 5.38458 16.3008 5.03441C16.7398 4.99095 17.0985 4.66491 17.1836 4.232C17.2686 3.79909 17.0599 3.36161 16.6699 3.15532C15.2749 2.41742 13.6847 2 12 2ZM18.3612 7.49177C18.1814 7.18702 17.8539 7 17.5 7C17.1461 7 16.8186 7.18702 16.6388 7.49177L15.5567 9.32534L13.4786 9.78781C13.1331 9.86468 12.8541 10.1184 12.7447 10.4549C12.6354 10.7915 12.712 11.1607 12.9463 11.426L14.3557 13.0216L14.1534 15.141C14.1198 15.4933 14.2748 15.8371 14.5611 16.0451C14.8474 16.2531 15.2222 16.2943 15.5469 16.1534L17.5 15.3061L19.4531 16.1534C19.7778 16.2943 20.1526 16.2531 20.4389 16.0451C20.7252 15.8371 20.8802 15.4933 20.8466 15.141L20.6442 13.0216L22.0537 11.426C22.288 11.1607 22.3646 10.7915 22.2553 10.4549C22.1459 10.1184 21.8669 9.86468 21.5214 9.78781L19.4433 9.32534L18.3612 7.49177ZM17.0587 10.7154L17.5 9.96762L17.9413 10.7154C18.082 10.9538 18.3151 11.1232 18.5853 11.1833L19.4329 11.372L18.8581 12.0228C18.6748 12.2302 18.5858 12.5043 18.6121 12.7798L18.6946 13.6442L17.898 13.2986C17.6441 13.1885 17.3559 13.1885 17.102 13.2986L16.3054 13.6442L16.3879 12.7798C16.4142 12.5043 16.3252 12.2302 16.1419 12.0228L15.5671 11.372L16.4147 11.1833C16.6849 11.1232 16.918 10.9538 17.0587 10.7154Z" fill="black"/>
</svg>
