<svg width="24" height="24" viewBox="0 0 24 24" fill="none" xmlns="http://www.w3.org/2000/svg">
<path fill-rule="evenodd" clip-rule="evenodd" d="M7.21922 5H5.63244C5.28118 5 4.95567 5.1843 4.77495 5.4855L3.26625 8H7.96922L7.21922 5ZM8.46922 10H3.59319L10.655 18.7432L8.46922 10ZM13.3449 18.7434L20.4069 10H15.5308L13.3449 18.7434ZM13.4692 10L12 15.8769L10.5308 10H13.4692ZM13.9692 8H10.0308L9.28077 5H14.7192L13.9692 8ZM16.0308 8H20.7339L19.2252 5.4855C19.0444 5.1843 18.7189 5 18.3677 5H16.7808L16.0308 8ZM16.0213 3H18.3677C19.4215 3 20.398 3.5529 20.9402 4.45651L22.6385 7.28708C23.2863 8.36676 23.191 9.73607 22.3998 10.7156L14.3339 20.702C13.1331 22.1887 10.867 22.1887 9.66623 20.702L1.60027 10.7156C0.80913 9.73607 0.713812 8.36676 1.36162 7.28708L3.05996 4.45651C3.60213 3.5529 4.57865 3 5.63244 3H7.97873C7.99345 2.99967 8.00813 2.99968 8.02276 3H15.9772C15.9919 2.99968 16.0065 2.99967 16.0213 3Z" fill="black"/>
</svg>
