<svg width="24" height="24" viewBox="0 0 24 24" fill="none" xmlns="http://www.w3.org/2000/svg">
<path fill-rule="evenodd" clip-rule="evenodd" d="M5.7437 13H5.65066C5.63119 13.0029 5.61158 13.0052 5.59184 13.007C4.69996 13.0863 4 13.837 4 14.75C4 15.7165 4.7835 16.5 5.75 16.5C5.95259 16.5 6.14513 16.466 6.32349 16.4042C6.68543 16.2787 7.08723 16.371 7.3581 16.6419C7.62897 16.9128 7.7213 17.3146 7.59585 17.6765C7.53402 17.8549 7.5 18.0474 7.5 18.25C7.5 19.2165 8.2835 20 9.25 20C10.163 20 10.9137 19.3001 10.993 18.4082C10.9948 18.3885 10.9971 18.3689 11 18.3494V13L5.75631 13L5.75 13L5.7437 13ZM12 20.7995C12.6848 21.538 13.6633 22 14.75 22C16.7397 22 18.3674 20.4505 18.4923 18.4923C20.4505 18.3674 22 16.7397 22 14.75C22 13.6633 21.538 12.6848 20.7995 12C21.538 11.3152 22 10.3368 22 9.25001C22 7.26034 20.4504 5.63259 18.4923 5.50772C18.3674 3.54957 16.7397 2.00001 14.75 2.00001C13.6633 2.00001 12.6848 2.46206 12 3.20053C11.3152 2.46205 10.3367 2 9.25 2C7.26032 2 5.63257 3.54956 5.5077 5.50772C3.54955 5.6326 2 7.26035 2 9.25002C2 10.3368 2.46204 11.3152 3.20052 12C2.46204 12.6848 2 13.6633 2 14.75C2 16.7397 3.54955 18.3674 5.5077 18.4923C5.63258 20.4505 7.26033 22 9.25 22C10.3367 22 11.3152 21.538 12 20.7995ZM13 18.3493C13.0029 18.3688 13.0052 18.3884 13.007 18.4082C13.0863 19.3001 13.837 20 14.75 20C15.7165 20 16.5 19.2165 16.5 18.25C16.5 18.0474 16.466 17.8549 16.4042 17.6765C16.2787 17.3146 16.371 16.9128 16.6419 16.6419C16.9128 16.371 17.3146 16.2787 17.6765 16.4042C17.8549 16.466 18.0474 16.5 18.25 16.5C19.2165 16.5 20 15.7165 20 14.75C20 13.837 19.3 13.0863 18.4082 13.007C18.3884 13.0052 18.3688 13.0029 18.3493 13H13L13 18.3493ZM5.75564 11L5.75772 11L11 11V5.65066C10.9971 5.63119 10.9948 5.61158 10.993 5.59185C10.9137 4.69996 10.163 4 9.25 4C8.2835 4 7.5 4.7835 7.5 5.75C7.5 5.95259 7.53402 6.14513 7.59585 6.32351C7.72131 6.68545 7.62899 7.08725 7.35812 7.35812C7.08725 7.629 6.68544 7.72133 6.3235 7.59587C6.14513 7.53404 5.9526 7.50002 5.75 7.50002C4.7835 7.50002 4 8.28352 4 9.25002C4 10.1631 4.69996 10.9137 5.59184 10.993C5.61155 10.9948 5.63114 10.9971 5.65058 11H5.74503L5.74595 11L5.75497 11L5.75564 11ZM18.4082 10.993C18.3884 10.9948 18.3688 10.9971 18.3493 11H13V5.65067C13.0029 5.6312 13.0052 5.61159 13.007 5.59186C13.0863 4.69997 13.837 4.00001 14.75 4.00001C15.7165 4.00001 16.5 4.78352 16.5 5.75001C16.5 5.95261 16.466 6.14514 16.4042 6.32351C16.2787 6.68545 16.371 7.08725 16.6419 7.35812C16.9128 7.62899 17.3146 7.72132 17.6765 7.59586C17.8549 7.53403 18.0474 7.50001 18.25 7.50001C19.2165 7.50001 20 8.28352 20 9.25001C20 10.1631 19.3 10.9137 18.4082 10.993Z" fill="black"/>
</svg>
