<svg width="24" height="24" viewBox="0 0 24 24" fill="none" xmlns="http://www.w3.org/2000/svg">
<path fill-rule="evenodd" clip-rule="evenodd" d="M13 22H18C19.6569 22 21 20.6569 21 19V11C21 10.7578 20.9121 10.5238 20.7526 10.3415L13.7526 2.3415C13.5627 2.12448 13.2884 2 13 2H6C4.34315 2 3 3.34315 3 5V11C3 11.5523 3.44772 12 4 12C4.55228 12 5 11.5523 5 11V5C5 4.44772 5.44772 4 6 4H12V9C12 10.6569 13.3431 12 15 12H19V19C19 19.5523 18.5523 20 18 20H13C12.4477 20 12 20.4477 12 21C12 21.5523 12.4477 22 13 22ZM17.7962 10H15C14.4477 10 14 9.55228 14 9V5.66145L17.7962 10ZM8.46372 15.1137C7.67205 14.4203 6.63511 14 5.5 14C3.01472 14 1 16.0147 1 18.5C1 19.6351 1.42028 20.6721 2.11372 21.4637C2.15957 21.5513 2.2193 21.6335 2.29289 21.7071C2.36649 21.7807 2.4487 21.8404 2.53628 21.8863C3.32795 22.5797 4.36489 23 5.5 23C7.98528 23 10 20.9853 10 18.5C10 17.3649 9.57972 16.3279 8.88628 15.5363C8.84043 15.4487 8.7807 15.3665 8.70711 15.2929C8.63351 15.2193 8.5513 15.1596 8.46372 15.1137ZM4.58641 20.8278C4.8694 20.939 5.17757 21 5.5 21C6.88071 21 8 19.8807 8 18.5C8 18.1776 7.93896 17.8694 7.82781 17.5864L4.58641 20.8278ZM3.17219 19.4136C3.06104 19.1306 3 18.8224 3 18.5C3 17.1193 4.11929 16 5.5 16C5.82243 16 6.1306 16.061 6.4136 16.1722L3.17219 19.4136Z" fill="black"/>
</svg>
