<svg width="24" height="24" viewBox="0 0 24 24" fill="none" xmlns="http://www.w3.org/2000/svg">
<path fill-rule="evenodd" clip-rule="evenodd" d="M7.19299 3.5C4.29151 3.5 1.83822 5.6479 1.45475 8.52392L0.484096 15.8038C0.152542 18.2905 2.08704 20.5 4.5957 20.5C6.46624 20.5 8.10536 19.248 8.59753 17.4434L8.96488 16.0965C9.14143 15.4491 9.72941 15 10.4004 15H13.5998C14.2708 15 14.8588 15.4491 15.0354 16.0964L15.4027 17.4434C15.8949 19.248 17.534 20.5 19.4045 20.5C21.9132 20.5 23.8477 18.2905 23.5161 15.8038L22.5455 8.52392C22.162 5.6479 19.7087 3.5 16.8073 3.5H7.19299ZM3.4372 8.78825C3.68819 6.90584 5.29392 5.5 7.19299 5.5H16.8073C18.7063 5.5 20.312 6.90584 20.563 8.78825L21.5337 16.0681C21.7054 17.3558 20.7036 18.5 19.4045 18.5C18.4359 18.5 17.5871 17.8517 17.3322 16.9172L16.9649 15.5702C16.551 14.0527 15.1727 13 13.5998 13H10.4004C8.82751 13 7.44921 14.0527 7.03536 15.5702L6.668 16.9172C6.41313 17.8517 5.56434 18.5 4.5957 18.5C3.29662 18.5 2.29486 17.3558 2.46655 16.0681L3.4372 8.78825ZM15.5 9.5C15.5 8.94772 15.9477 8.5 16.5 8.5C17.0523 8.5 17.5 8.94772 17.5 9.5C17.5 10.0523 17.0523 10.5 16.5 10.5C15.9477 10.5 15.5 10.0523 15.5 9.5ZM16.5 6.5C14.8431 6.5 13.5 7.84315 13.5 9.5C13.5 11.1569 14.8431 12.5 16.5 12.5C18.1569 12.5 19.5 11.1569 19.5 9.5C19.5 7.84315 18.1569 6.5 16.5 6.5ZM6.5 7.5C6.5 6.94772 6.94772 6.5 7.5 6.5C8.05228 6.5 8.5 6.94772 8.5 7.5V8.5H9.5C10.0523 8.5 10.5 8.94772 10.5 9.5C10.5 10.0523 10.0523 10.5 9.5 10.5H8.5V11.5C8.5 12.0523 8.05228 12.5 7.5 12.5C6.94772 12.5 6.5 12.0523 6.5 11.5V10.5H5.5C4.94772 10.5 4.5 10.0523 4.5 9.5C4.5 8.94772 4.94772 8.5 5.5 8.5H6.5V7.5Z" fill="black"/>
</svg>
