<svg width="24" height="24" viewBox="0 0 24 24" fill="none" xmlns="http://www.w3.org/2000/svg">
<path fill-rule="evenodd" clip-rule="evenodd" d="M13.1538 5.06408C12.4154 4.75639 11.5846 4.75639 10.8461 5.06408L2.59998 8.49998L10.8461 11.9359C11.5846 12.2436 12.4154 12.2436 13.1538 11.9359L21.4 8.49998L13.1538 5.06408ZM10.0769 3.21793C11.3077 2.70511 12.6923 2.70511 13.9231 3.21793L22.28 6.69998C22.9783 6.99095 23.3719 7.58672 23.4606 8.22122C23.4862 8.30971 23.5 8.40325 23.5 8.5V20C23.5 20.5523 23.0523 21 22.5 21C21.9477 21 21.5 20.5523 21.5 20V10.625L20 11.25V15.5C20 16.2524 19.6399 16.8855 19.1616 17.3702C18.6875 17.8505 18.0511 18.2373 17.3436 18.5405C15.9251 19.1484 14.0352 19.5 12 19.5C9.96479 19.5 8.07483 19.1484 6.6563 18.5405C5.94882 18.2373 5.3124 17.8505 4.83832 17.3702C4.35999 16.8855 3.99997 16.2524 3.99997 15.5V11.25L1.83075 10.3461C0.18972 9.66237 0.189719 7.33759 1.83074 6.65383L10.0769 3.21793ZM13.9231 13.782L18 12.0833V15.5C18 15.576 17.9682 15.7321 17.7381 15.9653C17.5038 16.2028 17.1151 16.4625 16.5558 16.7022C15.4408 17.18 13.8308 17.5 12 17.5C10.1692 17.5 8.55912 17.18 7.44414 16.7022C6.88487 16.4625 6.49617 16.2028 6.26181 15.9653C6.03169 15.7321 5.99997 15.576 5.99997 15.5V12.0833L10.0769 13.782C11.3077 14.2949 12.6923 14.2949 13.9231 13.782Z" fill="black"/>
</svg>
