<svg width="24" height="24" viewBox="0 0 24 24" fill="none" xmlns="http://www.w3.org/2000/svg">
<path fill-rule="evenodd" clip-rule="evenodd" d="M5 3.5C2.79086 3.5 1 5.29086 1 7.5V16.5C1 18.7091 2.79086 20.5 5 20.5H19C21.2091 20.5 23 18.7091 23 16.5V7.5C23 5.29086 21.2091 3.5 19 3.5H5ZM3 7.5C3 6.39543 3.89543 5.5 5 5.5H19C20.1046 5.5 21 6.39543 21 7.5V16.5C21 17.6046 20.1046 18.5 19 18.5H5C3.89543 18.5 3 17.6046 3 16.5V7.5ZM8.71031 10.5148C8.42059 10.4738 8.1252 10.5184 7.86051 10.6431C7.59583 10.7679 7.37341 10.9673 7.22065 11.2169C7.06788 11.4665 6.99145 11.7553 7.00076 12.0477C7.01007 12.3402 7.10471 12.6235 7.27304 12.8629C7.44136 13.1022 7.67601 13.2871 7.94809 13.3948C8.22018 13.5024 8.51781 13.5282 8.80433 13.4688C9.09085 13.4094 9.35375 13.2676 9.56066 13.0607C9.95119 12.6701 10.5843 12.6701 10.9749 13.0607C11.3654 13.4512 11.3654 14.0844 10.9749 14.4749C10.4921 14.9577 9.87865 15.2887 9.2101 15.4272C8.54155 15.5657 7.84708 15.5057 7.21222 15.2545C6.57736 15.0033 6.02984 14.5719 5.63708 14.0134C5.24433 13.4549 5.02349 12.7938 5.00177 12.1113C4.98005 11.4289 5.1584 10.7551 5.51484 10.1728C5.87129 9.59043 6.39027 9.12508 7.00787 8.83401C7.62547 8.54293 8.31471 8.43885 8.99072 8.53457C9.66673 8.6303 10.3 8.92166 10.8125 9.37276C11.2271 9.73766 11.2673 10.3695 10.9024 10.7841C10.5375 11.1987 9.90563 11.2389 9.49107 10.874C9.27142 10.6807 9.00003 10.5558 8.71031 10.5148ZM15.7103 10.5148C15.4206 10.4738 15.1252 10.5184 14.8605 10.6431C14.5958 10.7679 14.3734 10.9673 14.2206 11.2169C14.0679 11.4665 13.9915 11.7553 14.0008 12.0477C14.0101 12.3402 14.1047 12.6235 14.273 12.8629C14.4414 13.1022 14.676 13.2871 14.9481 13.3948C15.2202 13.5024 15.5178 13.5282 15.8043 13.4688C16.0909 13.4094 16.3538 13.2676 16.5607 13.0607C16.9512 12.6701 17.5844 12.6701 17.9749 13.0607C18.3654 13.4512 18.3654 14.0844 17.9749 14.4749C17.4921 14.9577 16.8787 15.2887 16.2101 15.4272C15.5415 15.5657 14.8471 15.5057 14.2122 15.2545C13.5774 15.0033 13.0298 14.5719 12.6371 14.0134C12.2443 13.4549 12.0235 12.7938 12.0018 12.1113C11.9801 11.4289 12.1584 10.7551 12.5148 10.1728C12.8713 9.59043 13.3903 9.12508 14.0079 8.83401C14.6255 8.54293 15.3147 8.43885 15.9907 8.53457C16.6667 8.6303 17.3 8.92166 17.8125 9.37276C18.2271 9.73766 18.2673 10.3695 17.9024 10.7841C17.5375 11.1987 16.9056 11.2389 16.4911 10.874C16.2714 10.6807 16 10.5558 15.7103 10.5148Z" fill="black"/>
</svg>
