<svg width="24" height="24" viewBox="0 0 24 24" fill="none" xmlns="http://www.w3.org/2000/svg">
<path fill-rule="evenodd" clip-rule="evenodd" d="M10.2306 4.19635C10.7998 4.06783 11.392 4 12 4C13.4769 4 14.8604 4.40024 16.0479 5.09816C15.2002 6.17865 14.17 7.09337 13.0101 7.80445C12.1971 6.52757 11.2681 5.31937 10.2306 4.19635ZM14.0174 9.53273C15.3996 8.69169 16.626 7.60495 17.6323 6.31872C19.0422 7.71649 19.9345 9.6354 19.9965 11.7625C19.06 11.5634 18.1008 11.4765 17.1394 11.5054C16.4396 11.5265 15.7447 11.6087 15.0625 11.7502C14.7499 10.9948 14.4012 10.2548 14.0174 9.53273ZM13.1339 12.3225C12.8626 11.6832 12.5632 11.0561 12.2363 10.4431C11.8422 10.6089 11.4392 10.7565 11.0284 10.8849C8.75677 11.5951 6.34698 11.6895 4.04232 11.172C4.01434 11.4442 4 11.7204 4 12C4 14.4311 5.08438 16.6089 6.79584 18.0761C7.31343 17.0546 7.97557 16.1105 8.76359 15.2736C9.84389 14.1263 11.1396 13.2031 12.5767 12.5565C12.7606 12.4738 12.9464 12.3958 13.1339 12.3225ZM8.47879 19.1854C8.92368 18.2552 9.51051 17.3978 10.2197 16.6447C11.1199 15.6886 12.1997 14.9192 13.3973 14.3804C13.5422 14.3152 13.6884 14.2536 13.836 14.1955C14.3903 15.8905 14.7535 17.6539 14.9108 19.454C14.0087 19.8065 13.0269 20 12 20C10.7364 20 9.5413 19.7071 8.47879 19.1854ZM15.7624 13.6521C16.2362 13.5685 16.7164 13.519 17.1995 13.5045C18.0773 13.4781 18.9528 13.5675 19.8038 13.769C19.3801 15.6459 18.2967 17.2727 16.81 18.393C16.6114 16.7748 16.2591 15.1878 15.7624 13.6521ZM8.19481 4.96117C9.3321 6.10916 10.3404 7.36364 11.2094 8.70187C10.9541 8.80227 10.6947 8.89375 10.4316 8.97603C8.5012 9.57956 6.4537 9.66105 4.49482 9.22384C5.17177 7.39442 6.49849 5.88014 8.19481 4.96117ZM12 2C6.47715 2 2 6.47715 2 12C2 17.5228 6.47715 22 12 22C17.5228 22 22 17.5228 22 12C22 6.47715 17.5228 2 12 2Z" fill="black"/>
</svg>
