<svg width="24" height="24" viewBox="0 0 24 24" fill="none" xmlns="http://www.w3.org/2000/svg">
<path fill-rule="evenodd" clip-rule="evenodd" d="M3 6.53165V5.26717C3.3087 5.18885 3.68731 5.09775 4.10866 5.00593L11.9774 12.4375L5.37531 17.7192L5.35963 17.732C4.48701 17.872 3.6762 18.0473 3.05878 18.1936C3.04955 18.1957 3.04276 18.1954 3.03621 18.1939C3.02835 18.1922 3.0195 18.1882 3.01166 18.1821C3.00388 18.1761 3.00081 18.171 3.0002 18.1699L3.00016 18.1698L3 18.1668V17.4684L8.64021 12.7683C8.8682 12.5783 9.00002 12.2968 9.00002 12C9.00002 11.7033 8.8682 11.4218 8.64021 11.2318L3 6.53165ZM3.00016 18.1698C3.0002 18.1701 3.00023 18.1701 3.00017 18.1699C3.00012 18.1697 3.00006 18.1696 3.00006 18.1696L3.00016 18.1698ZM8.39631 6.3044L6.57167 4.58113L10.4425 4.91626C10.8182 5.0589 11.1884 5.22776 11.5827 5.4088L11.6178 5.42494C12.5967 5.87454 13.7263 6.39336 15.2657 6.49775C17.0986 6.62204 19.4689 6.15283 20.8831 5.82023L20.9999 5.83033L20.9999 5.83114L21 5.8333V7.55126C20.5992 7.65296 20.0603 7.78156 19.4523 7.90524C18.1288 8.1745 16.5727 8.40012 15.401 8.32067C14.247 8.24241 13.4078 7.86444 12.4174 7.40962L12.3822 7.39348C11.4034 6.94388 10.2738 6.42506 8.73435 6.32067C8.6228 6.3131 8.50999 6.30775 8.39631 6.3044ZM20.9998 5.83016L20.9998 5.83016L20.9999 5.83033L20.9998 5.83023L20.9998 5.83016ZM20.8837 5.82011L20.9412 5.80652C20.9505 5.80433 20.9572 5.80465 20.9638 5.80614C20.9717 5.80793 20.9805 5.8119 20.9883 5.81795C20.996 5.82382 20.9991 5.82885 20.9998 5.83016L20.8837 5.82011ZM10.4423 4.9162C9.87417 4.70054 9.29361 4.54485 8.59901 4.49775C7.99086 4.45651 7.28654 4.49694 6.57167 4.58113L10.4423 4.9162ZM10.4423 4.9162L20.8837 5.82011L20.8831 5.82023L10.4425 4.91626L10.4423 4.9162ZM11.4045 9.14549L14.1866 11.773C14.2044 11.7898 14.2215 11.8072 14.2379 11.8251C14.5973 11.9226 14.9786 11.992 15.401 12.0207C16.5726 12.1001 18.1287 11.8745 19.4523 11.6052C20.0603 11.4816 20.5992 11.353 21 11.2512V9.61089C20.6621 9.69152 20.2726 9.77934 19.851 9.8651C18.4979 10.1404 16.7206 10.4147 15.2657 10.3161C13.7263 10.2117 12.5967 9.69287 11.6179 9.24328L11.5827 9.22714L11.4045 9.14549ZM12.2884 14.7499L13.579 13.7174C14.0873 13.8644 14.6422 13.9738 15.2656 14.0161C16.7206 14.1147 18.4978 13.8404 19.851 13.5651C20.2725 13.4793 20.6621 13.3915 21 13.3109V14.9512C20.5992 15.053 20.0603 15.1816 19.4523 15.3052C18.1287 15.5745 16.5726 15.8001 15.401 15.7207C14.5422 15.6624 13.8499 15.4355 13.1522 15.1388C12.9474 15.0517 12.7231 14.9489 12.4854 14.84L12.4854 14.84C12.4207 14.8104 12.355 14.7803 12.2884 14.7499ZM10.5209 16.164L8.83827 17.5101C10.3248 17.6302 11.4255 18.1357 12.3822 18.5751L12.4173 18.5913C13.4077 19.0461 14.247 19.4241 15.401 19.5023C17.1511 19.621 19.6977 19.0633 21 18.7329V17.0109C20.6621 17.0915 20.2725 17.1793 19.851 17.2651C18.4979 17.5404 16.7206 17.8147 15.2657 17.7161C14.1027 17.6372 13.1814 17.3246 12.3695 16.9793C12.0539 16.8451 11.7784 16.7181 11.5183 16.5983L11.5183 16.5983L11.5183 16.5983C11.1775 16.4413 10.8633 16.2966 10.5209 16.164ZM1 6.99959V6.99942V5.25008C1 4.36621 1.58507 3.56377 2.47581 3.33682C3.74606 3.01317 6.61001 2.35828 8.73432 2.50233C10.2737 2.60672 11.4033 3.12555 12.3822 3.57514L12.4173 3.59128C13.4077 4.0461 14.247 4.42408 15.401 4.50233C16.9264 4.60577 19.0723 4.19389 20.4802 3.86038C21.7303 3.56425 23 4.49405 23 5.8333V18.75C23 19.6339 22.4149 20.4363 21.5242 20.6633C20.2539 20.9869 17.39 21.6418 15.2657 21.4978C13.7263 21.3934 12.5967 20.8745 11.6178 20.425L11.6178 20.4249L11.5827 20.4088C10.5923 19.954 9.75303 19.576 8.59901 19.4977C7.07363 19.3943 4.92771 19.8062 3.51978 20.1397C2.26968 20.4358 1 19.506 1 18.1668V17.0007V17.0005V6.99959ZM3 9.13506L6.43798 12L3 14.865V9.13506Z" fill="black"/>
</svg>
