<svg width="24" height="24" viewBox="0 0 24 24" fill="none" xmlns="http://www.w3.org/2000/svg">
<path fill-rule="evenodd" clip-rule="evenodd" d="M5 5C4.44772 5 4 5.44772 4 6C4 6.55228 4.44772 7 5 7H8H18C20.2091 7 22 8.79086 22 11V13V16V18C22 20.2091 20.2091 22 18 22H5C3.34315 22 2 20.6569 2 19V6C2 4.34315 3.34315 3 5 3H19C19.5523 3 20 3.44772 20 4C20 4.55228 19.5523 5 19 5H5ZM20 16V13H16.5C15.6716 13 15 13.6716 15 14.5C15 15.3284 15.6716 16 16.5 16H20ZM20 11C20 9.89543 19.1046 9 18 9H8H5H4V19C4 19.5523 4.44772 20 5 20H18C19.1046 20 20 19.1046 20 18H16.5C14.567 18 13 16.433 13 14.5C13 12.567 14.567 11 16.5 11H20Z" fill="black"/>
</svg>
