<svg width="24" height="24" viewBox="0 0 24 24" fill="none" xmlns="http://www.w3.org/2000/svg">
<path fill-rule="evenodd" clip-rule="evenodd" d="M14 5.99997C14 4.35188 12.1185 3.41111 10.8 4.39997L6.71175 7.46616L5.39801 7.33478C3.04327 7.09931 1 8.94844 1 11.3149V12.685C1 15.0515 3.04327 16.9006 5.39802 16.6652L6.71175 16.5338L10.8 19.6C12.1185 20.5888 14 19.6481 14 18V5.99997ZM7.6 9.29997L12 5.99997V18L7.6 14.7C7.39951 14.5496 7.14987 14.48 6.9005 14.5049L5.19901 14.6751C4.02164 14.7928 3 13.8682 3 12.685V11.3149C3 10.1317 4.02164 9.20712 5.19901 9.32486L6.9005 9.49501C7.14987 9.51994 7.39951 9.45034 7.6 9.29997ZM19 12.0159C19.0028 11.4782 18.8611 10.9496 18.5896 10.4854C18.3181 10.0212 17.9268 9.63849 17.4567 9.37737C16.9739 9.1092 16.3651 9.2832 16.0969 9.766C15.8288 10.2488 16.0028 10.8576 16.4856 11.1258C16.6423 11.2128 16.7727 11.3404 16.8632 11.4951C16.9537 11.6498 17.0009 11.826 17 12.0053C16.999 12.1845 16.9499 12.3602 16.8578 12.514C16.7656 12.6678 16.6338 12.7939 16.4762 12.8793C15.9906 13.1423 15.8101 13.7492 16.0731 14.2348C16.3361 14.7205 16.943 14.9009 17.4287 14.6379C17.9015 14.3818 18.2969 14.0033 18.5733 13.5421C18.8497 13.0808 18.9971 12.5537 19 12.0159Z" fill="black"/>
</svg>
