<svg width="24" height="24" viewBox="0 0 24 24" fill="none" xmlns="http://www.w3.org/2000/svg">
<path fill-rule="evenodd" clip-rule="evenodd" d="M20 4.79735C20 4.4854 19.7175 4.24961 19.4106 4.30542L11.4106 5.75996C11.1728 5.80319 11 6.01025 11 6.2519V17.5V18C11 18.1529 10.9657 18.2978 10.9043 18.4274C10.4769 20.4678 8.66739 22 6.5 22C4.01472 22 2 19.9853 2 17.5C2 15.0148 4.01472 13 6.5 13C7.42507 13 8.28495 13.2792 9 13.7578V6.2519C9 5.04368 9.86406 4.00835 11.0528 3.79222L19.0528 2.33768C20.5874 2.05866 22 3.23759 22 4.79735V15.5V16C22 16.1529 21.9657 16.2978 21.9043 16.4274C21.4769 18.4678 19.6674 20 17.5 20C15.0147 20 13 17.9853 13 15.5C13 13.0148 15.0147 11 17.5 11C18.4251 11 19.285 11.2792 20 11.7578V4.79735ZM20 15.5C20 14.1193 18.8807 13 17.5 13C16.1193 13 15 14.1193 15 15.5C15 16.8807 16.1193 18 17.5 18C18.8807 18 20 16.8807 20 15.5ZM6.5 15C7.88071 15 9 16.1193 9 17.5C9 18.8807 7.88071 20 6.5 20C5.11929 20 4 18.8807 4 17.5C4 16.1193 5.11929 15 6.5 15Z" fill="black"/>
</svg>
