<svg width="24" height="24" viewBox="0 0 24 24" fill="none" xmlns="http://www.w3.org/2000/svg">
<path fill-rule="evenodd" clip-rule="evenodd" d="M9.5 3C8.11929 3 7 4.11929 7 5.5C7 6.05228 7.44772 6.5 8 6.5C8.55228 6.5 9 6.05228 9 5.5C9 5.22386 9.22386 5 9.5 5H13.9338L14.8512 6.52899C15.2127 7.1314 15.8637 7.5 16.5662 7.5H20C20.5523 7.5 21 7.94772 21 8.5V13C21 13.5523 20.5523 14 20 14C19.4477 14 19 14.4477 19 15C19 15.5523 19.4477 16 20 16C21.6569 16 23 14.6569 23 13V8.5C23 6.84315 21.6569 5.5 20 5.5H16.5662L15.6488 3.97101C15.2873 3.3686 14.6363 3 13.9338 3H9.5ZM3 11C3 10.4477 3.44772 10 4 10H7.93381L8.8512 11.529C9.21265 12.1314 9.86366 12.5 10.5662 12.5H14C14.5523 12.5 15 12.9477 15 13.5V18C15 18.5523 14.5523 19 14 19H4C3.44772 19 3 18.5523 3 18V11ZM4 8C2.34315 8 1 9.34315 1 11V18C1 19.6569 2.34315 21 4 21H14C15.6569 21 17 19.6569 17 18V13.5C17 11.8431 15.6569 10.5 14 10.5H10.5662L9.6488 8.97101C9.28735 8.3686 8.63634 8 7.93381 8H4Z" fill="black"/>
</svg>
