<svg width="24" height="24" viewBox="0 0 24 24" fill="none" xmlns="http://www.w3.org/2000/svg">
<path fill-rule="evenodd" clip-rule="evenodd" d="M15.4685 7.27788C15.8223 5.66773 15.3732 3.91659 14.121 2.66438L12.7067 1.25017C12.3162 0.859644 11.6831 0.859644 11.2925 1.25017L9.87832 2.66438C8.62613 3.91657 8.17696 5.66767 8.53078 7.2778C8.35637 7.2594 8.17929 7.24996 8 7.24996H6C5.44772 7.24996 5 7.69768 5 8.24996V10.25C5 11.2719 5.30656 12.2222 5.83274 13.0139C5.36008 13.0935 5 13.5047 5 14V16C5 18.7614 7.23858 21 10 21H11V22C11 22.5522 11.4477 23 12 23C12.5523 23 13 22.5522 13 22V21H14C16.7614 21 19 18.7614 19 16V14C19 13.5047 18.6399 13.0935 18.1673 13.0139C18.6934 12.2222 19 11.2719 19 10.25V8.24996C19 7.69768 18.5523 7.24996 18 7.24996H16C15.8205 7.24996 15.6431 7.25943 15.4685 7.27788ZM13 19H14C15.6569 19 17 17.6568 17 16V15H16C14.3431 15 13 16.3431 13 18V19ZM13 13.25H14C15.6569 13.25 17 11.9068 17 10.25V9.24996H16C14.3431 9.24996 13 10.5931 13 12.25V13.25ZM11 12.25C11 10.5931 9.65685 9.24996 8 9.24996H7V10.25C7 11.9068 8.34315 13.25 10 13.25H11V12.25ZM11 18C11 16.3431 9.65685 15 8 15H7V16C7 17.6568 8.34315 19 10 19H11V18ZM12.7067 8.32124C13.8783 7.14966 13.8783 5.25017 12.7067 4.0786L11.9996 3.37149L11.2925 4.0786C10.121 5.25017 10.121 7.14966 11.2925 8.32124L11.9996 9.02834L12.7067 8.32124Z" fill="black"/>
</svg>
