<svg width="24" height="24" viewBox="0 0 24 24" fill="none" xmlns="http://www.w3.org/2000/svg">
<path fill-rule="evenodd" clip-rule="evenodd" d="M4 12C4 7.58172 7.58172 4 12 4C16.4183 4 20 7.58172 20 12C20 16.4183 16.4183 20 12 20C7.58172 20 4 16.4183 4 12ZM12 2C6.47715 2 2 6.47715 2 12C2 17.5228 6.47715 22 12 22C17.5228 22 22 17.5228 22 12C22 6.47715 17.5228 2 12 2ZM11.9125 7.31572C10.5887 6.3702 8.75 7.31644 8.75 8.94319V15.0568C8.75 16.6836 10.5887 17.6298 11.9125 16.6843L16.192 13.6275C17.3087 12.8298 17.3087 11.1702 16.192 10.3725L11.9125 7.31572ZM10.75 8.94319L15.0295 12L10.75 15.0568V8.94319Z" fill="black"/>
</svg>
