<svg width="24" height="24" viewBox="0 0 24 24" fill="none" xmlns="http://www.w3.org/2000/svg">
<path fill-rule="evenodd" clip-rule="evenodd" d="M9.28871 3.46252C9.79412 3.89605 10.0918 4.58287 10.0298 5.30419C10.0101 5.53328 10 5.76534 10 5.99998C10 10.4183 13.5817 14 18 14C18.2346 14 18.4667 13.9899 18.6958 13.9702C19.4171 13.9082 20.1039 14.2059 20.5375 14.7113C20.9932 15.2426 21.1882 16.0489 20.7654 16.8167C19.0655 19.9043 15.7782 22 12 22C6.47715 22 2 17.5228 2 12C2 8.22181 4.09567 4.93452 7.18324 3.23459C7.95109 2.81183 8.75741 3.00678 9.28871 3.46252ZM8.02857 5.0536C5.61954 6.43418 4 9.02864 4 12C4 16.4183 7.58172 20 12 20C14.9714 20 17.5658 18.3804 18.9464 15.9714C18.9211 15.9636 18.8942 15.9605 18.8672 15.9628C18.5812 15.9874 18.2919 16 18 16C12.4772 16 8 11.5228 8 5.99998C8 5.70805 8.01254 5.41881 8.03714 5.1328C8.03946 5.10582 8.03634 5.07888 8.02857 5.0536Z" fill="black"/>
</svg>
